<svg width="170" height="46" viewBox="0 0 170 46" fill="none" xmlns="http://www.w3.org/2000/svg">
<path d="M0 5.73828C0 2.97686 2.23858 0.738281 5 0.738281H165C167.761 0.738281 170 2.97686 170 5.73828V40.7383C170 43.4997 167.761 45.7383 165 45.7383H5C2.23858 45.7383 0 43.4997 0 40.7383V5.73828Z" fill="#48B736"/>
<path d="M77.6208 29.2383L74.7408 25.1883C74.4168 25.2243 74.0808 25.2423 73.7328 25.2423H70.3488V29.2383H69.0168V16.6383H73.7328C75.3408 16.6383 76.6008 17.0223 77.5128 17.7903C78.4248 18.5583 78.8808 19.6143 78.8808 20.9583C78.8808 21.9423 78.6288 22.7763 78.1248 23.4603C77.6328 24.1323 76.9248 24.6183 76.0008 24.9183L79.0788 29.2383H77.6208ZM73.6968 24.1083C74.9448 24.1083 75.8988 23.8323 76.5588 23.2803C77.2188 22.7283 77.5488 21.9543 77.5488 20.9583C77.5488 19.9383 77.2188 19.1583 76.5588 18.6183C75.8988 18.0663 74.9448 17.7903 73.6968 17.7903H70.3488V24.1083H73.6968ZM89.9987 24.9003H82.0787C82.1507 25.8843 82.5287 26.6823 83.2127 27.2943C83.8967 27.8943 84.7607 28.1943 85.8047 28.1943C86.3927 28.1943 86.9327 28.0923 87.4247 27.8883C87.9167 27.6723 88.3427 27.3603 88.7027 26.9523L89.4227 27.7803C89.0027 28.2843 88.4747 28.6683 87.8387 28.9323C87.2147 29.1963 86.5247 29.3283 85.7687 29.3283C84.7967 29.3283 83.9327 29.1243 83.1767 28.7163C82.4327 28.2963 81.8507 27.7203 81.4307 26.9883C81.0107 26.2563 80.8007 25.4283 80.8007 24.5043C80.8007 23.5803 80.9987 22.7523 81.3947 22.0203C81.8027 21.2883 82.3547 20.7183 83.0507 20.3103C83.7587 19.9023 84.5507 19.6983 85.4267 19.6983C86.3027 19.6983 87.0887 19.9023 87.7847 20.3103C88.4807 20.7183 89.0267 21.2883 89.4227 22.0203C89.8187 22.7403 90.0167 23.5683 90.0167 24.5043L89.9987 24.9003ZM85.4267 20.7963C84.5147 20.7963 83.7467 21.0903 83.1227 21.6783C82.5107 22.2543 82.1627 23.0103 82.0787 23.9463H88.7927C88.7087 23.0103 88.3547 22.2543 87.7307 21.6783C87.1187 21.0903 86.3507 20.7963 85.4267 20.7963ZM101.258 15.8823V29.2383H100.034V27.3663C99.6499 28.0023 99.1399 28.4883 98.5039 28.8243C97.8799 29.1603 97.1719 29.3283 96.3799 29.3283C95.4919 29.3283 94.6879 29.1243 93.9679 28.7163C93.2479 28.3083 92.6839 27.7383 92.2759 27.0063C91.8679 26.2743 91.6639 25.4403 91.6639 24.5043C91.6639 23.5683 91.8679 22.7343 92.2759 22.0023C92.6839 21.2703 93.2479 20.7063 93.9679 20.3103C94.6879 19.9023 95.4919 19.6983 96.3799 19.6983C97.1479 19.6983 97.8379 19.8603 98.4499 20.1843C99.0739 20.4963 99.5839 20.9583 99.9799 21.5703V15.8823H101.258ZM96.4879 28.1943C97.1479 28.1943 97.7419 28.0443 98.2699 27.7443C98.8099 27.4323 99.2299 26.9943 99.5299 26.4303C99.8419 25.8663 99.9979 25.2243 99.9979 24.5043C99.9979 23.7843 99.8419 23.1423 99.5299 22.5783C99.2299 22.0143 98.8099 21.5823 98.2699 21.2823C97.7419 20.9703 97.1479 20.8143 96.4879 20.8143C95.8159 20.8143 95.2099 20.9703 94.6699 21.2823C94.1419 21.5823 93.7219 22.0143 93.4099 22.5783C93.1099 23.1423 92.9599 23.7843 92.9599 24.5043C92.9599 25.2243 93.1099 25.8663 93.4099 26.4303C93.7219 26.9943 94.1419 27.4323 94.6699 27.7443C95.2099 28.0443 95.8159 28.1943 96.4879 28.1943Z" fill="white"/>
</svg>
