<svg width="421" height="63" viewBox="0 0 421 63" fill="none" xmlns="http://www.w3.org/2000/svg">
<g clip-path="url(#clip0_5636_106465)">
<path d="M410.186 3.35054C409.535 3.36791 409.003 3.66948 408.992 4.11427L409.004 14.7237C409.007 15.1164 409.557 15.4632 410.208 15.4458L419.139 15.4342C419.79 15.4168 420.323 15.1152 420.333 14.6704L420.322 4.06104C420.318 3.66827 419.768 3.3215 419.118 3.33887L410.186 3.35054Z" fill="#6B9FDC"/>
<path d="M257.124 3.87878L257.252 15.3828L402.049 15.0851L401.921 3.58111L257.124 3.87878Z" fill="#2C7CAE"/>
<path d="M257.127 3.65756L247.195 9.71941L257.149 15.7533L257.127 3.65756Z" fill="#E4C494"/>
<path d="M257.147 6.43241L257.221 12.8018L402.01 12.5242L401.936 6.1549L257.147 6.43241Z" fill="#6B9FDC"/>
<path d="M251.081 7.34386L247.195 9.7196L251.091 12.0762L251.081 7.34386Z" fill="#040607"/>
<path d="M401.487 3.4149L401.518 15.4854L412.923 15.4514L412.892 3.38097L401.487 3.4149Z" fill="#FFD963"/>
<path d="M403.796 15.4844L403.775 3.39122L403.796 15.4844Z" stroke="#F59120" stroke-width="5" stroke-miterlimit="10"/>
<path d="M405.873 15.4883L405.851 3.39514L405.873 15.4883Z" stroke="#F59120" stroke-width="5" stroke-miterlimit="10"/>
</g>
<g clip-path="url(#clip1_5636_106465)">
<path d="M205.335 29.8225C205.983 29.7814 206.54 30.0339 206.591 30.4758L207.54 41.0417C207.572 41.4331 207.057 41.8278 206.408 41.8688L192.293 43.1901C191.645 43.2311 191.088 42.9786 191.037 42.5367L190.087 31.9709C190.055 31.5794 190.571 31.1848 191.219 31.1437L205.335 29.8225Z" fill="#6BDC8B"/>
<path d="M358.301 16.3844L359.221 27.9043L215.215 40.5993L214.295 29.0794L358.301 16.3844Z" fill="#2CAE58"/>
<path d="M358.276 16.1641L368.702 21.3092L359.349 28.2107L358.276 16.1641Z" fill="#E4C494"/>
<path d="M358.51 18.9293L359.018 25.3301L215.022 38.0449L214.514 31.6441L358.51 18.9293Z" fill="#6BDC8B"/>
<path d="M364.62 19.2903L368.701 21.3069L365.039 24.0031L364.62 19.2903Z" fill="#040607"/>
<path d="M214.717 28.9267L215.779 40.9521L202.424 42.1171L201.361 30.0917L214.717 28.9267Z" fill="#FFD963"/>
<path d="M213.516 41.153L212.443 29.1075L213.516 41.153Z" stroke="#F59120" stroke-width="5" stroke-miterlimit="10"/>
<path d="M211.452 41.3444L210.378 29.299L211.452 41.3444Z" stroke="#F59120" stroke-width="5" stroke-miterlimit="10"/>
</g>
<g clip-path="url(#clip2_5636_106465)">
<path d="M10.1939 32.8954C10.8402 32.9716 11.4107 32.7497 11.4852 32.311L12.9969 21.8099C13.0498 21.4207 12.5555 20.9985 11.9091 20.9223L3.06841 19.6514C2.42209 19.5752 1.85163 19.7971 1.77708 20.2358L0.265377 30.7369C0.212546 31.1261 0.706845 31.5483 1.35316 31.6245L10.1939 32.8954Z" fill="#E78668"/>
<path d="M187.488 57.827L189.014 46.4238L20.6568 22.3499L19.1314 33.7531L187.488 57.827Z" fill="#B34637"/>
<path d="M187.454 58.0456L198.154 53.4727L189.169 46.072L187.454 58.0456Z" fill="#E4C494"/>
<path d="M187.832 55.2964L188.674 48.9824L20.3171 24.8847L19.4755 31.1986L187.832 55.2964Z" fill="#E78668"/>
<path d="M193.966 55.2652L198.153 53.4721L194.636 50.5805L193.966 55.2652Z" fill="#040607"/>
<path d="M18.811 34.0807L20.5137 22.1309L9.22131 20.5267L7.51863 32.4765L18.811 34.0807Z" fill="#FFD963"/>
<path d="M18.2595 21.8051L16.5445 33.7761L18.2595 21.8051Z" stroke="#F59120" stroke-width="5" stroke-miterlimit="10"/>
<path d="M16.2048 21.5024L14.4899 33.4733L16.2048 21.5024Z" stroke="#F59120" stroke-width="5" stroke-miterlimit="10"/>
</g>
<defs>
<clipPath id="clip0_5636_106465">
<rect width="20" height="173" fill="white" transform="translate(420) rotate(89.8147)"/>
</clipPath>
<clipPath id="clip1_5636_106465">
<rect width="20" height="180" fill="white" transform="matrix(0.0869971 0.996209 0.996209 -0.0869971 189 27.6592)"/>
</clipPath>
<clipPath id="clip2_5636_106465">
<rect width="20" height="199" fill="white" transform="translate(0 34.8018) rotate(-81.9297)"/>
</clipPath>
</defs>
</svg>
