<svg width="270" height="58" viewBox="0 0 270 58" fill="none" xmlns="http://www.w3.org/2000/svg">
<g clip-path="url(#clip0_5636_106264)">
<path d="M397.25 57.7383V0.738281L0.25 0.738281V57.7383L397.25 57.7383Z" fill="#FECC7B"/>
<path d="M15.1333 17.7383V24.7383H13.5133V19.0383H12.1133V17.7383H15.1333Z" fill="black"/>
<path d="M42.6705 23.4191V24.7391H37.3805V23.6891L40.0805 21.1391C40.3672 20.8658 40.5605 20.6325 40.6605 20.4391C40.7605 20.2391 40.8105 20.0425 40.8105 19.8491C40.8105 19.5691 40.7139 19.3558 40.5205 19.2091C40.3339 19.0558 40.0572 18.9791 39.6905 18.9791C39.3839 18.9791 39.1072 19.0391 38.8605 19.1591C38.6139 19.2725 38.4072 19.4458 38.2405 19.6791L37.0605 18.9191C37.3339 18.5125 37.7105 18.1958 38.1905 17.9691C38.6705 17.7358 39.2205 17.6191 39.8405 17.6191C40.3605 17.6191 40.8139 17.7058 41.2005 17.8791C41.5939 18.0458 41.8972 18.2858 42.1105 18.5991C42.3305 18.9058 42.4405 19.2691 42.4405 19.6891C42.4405 20.0691 42.3605 20.4258 42.2005 20.7591C42.0405 21.0925 41.7305 21.4725 41.2705 21.8991L39.6605 23.4191H42.6705Z" fill="black"/>
<path d="M67.7013 20.5883C68.3146 20.6883 68.7846 20.9183 69.1113 21.2783C69.4379 21.6316 69.6013 22.0716 69.6013 22.5983C69.6013 23.0049 69.4946 23.3816 69.2813 23.7283C69.0679 24.0683 68.7413 24.3416 68.3013 24.5483C67.8679 24.7549 67.3346 24.8583 66.7013 24.8583C66.2079 24.8583 65.7213 24.7949 65.2413 24.6683C64.7679 24.5349 64.3646 24.3483 64.0312 24.1083L64.6612 22.8683C64.9279 23.0683 65.2346 23.2249 65.5813 23.3383C65.9346 23.4449 66.2946 23.4983 66.6613 23.4983C67.0679 23.4983 67.3879 23.4216 67.6213 23.2683C67.8546 23.1083 67.9713 22.8849 67.9713 22.5983C67.9713 22.0249 67.5346 21.7383 66.6613 21.7383H65.9213V20.6683L67.3613 19.0383H64.3813V17.7383H69.2813V18.7883L67.7013 20.5883Z" fill="black"/>
<path d="M96.8533 23.2683H95.7133V24.7383H94.1333V23.2683H90.3633V22.1783L93.6633 17.7383H95.3633L92.3033 21.9483H94.1833V20.6383H95.7133V21.9483H96.8533V23.2683Z" fill="black"/>
<path d="M118.817 20.3683C119.804 20.3683 120.53 20.5649 120.997 20.9583C121.47 21.3516 121.707 21.8783 121.707 22.5383C121.707 22.9649 121.6 23.3549 121.387 23.7083C121.174 24.0549 120.847 24.3349 120.407 24.5483C119.974 24.7549 119.437 24.8583 118.797 24.8583C118.304 24.8583 117.817 24.7949 117.337 24.6683C116.864 24.5349 116.46 24.3483 116.127 24.1083L116.767 22.8683C117.034 23.0683 117.34 23.2249 117.687 23.3383C118.034 23.4449 118.39 23.4983 118.757 23.4983C119.164 23.4983 119.484 23.4183 119.717 23.2583C119.95 23.0983 120.067 22.8749 120.067 22.5883C120.067 22.2883 119.944 22.0616 119.697 21.9083C119.457 21.7549 119.037 21.6783 118.437 21.6783H116.647L117.007 17.7383H121.277V19.0383H118.357L118.247 20.3683H118.817Z" fill="black"/>
<path d="M147.077 20.3491C147.524 20.3491 147.93 20.4391 148.297 20.6191C148.664 20.7991 148.954 21.0558 149.167 21.3891C149.38 21.7158 149.487 22.0958 149.487 22.5291C149.487 22.9958 149.37 23.4058 149.137 23.7591C148.904 24.1125 148.584 24.3858 148.177 24.5791C147.777 24.7658 147.33 24.8591 146.837 24.8591C145.857 24.8591 145.09 24.5591 144.537 23.9591C143.984 23.3591 143.707 22.5025 143.707 21.3891C143.707 20.5958 143.857 19.9158 144.157 19.3491C144.457 18.7825 144.874 18.3525 145.407 18.0591C145.947 17.7658 146.57 17.6191 147.277 17.6191C147.65 17.6191 148.007 17.6625 148.347 17.7491C148.694 17.8291 148.987 17.9458 149.227 18.0991L148.627 19.2891C148.28 19.0558 147.844 18.9391 147.317 18.9391C146.724 18.9391 146.254 19.1125 145.907 19.4591C145.56 19.8058 145.374 20.3091 145.347 20.9691C145.76 20.5558 146.337 20.3491 147.077 20.3491ZM146.747 23.6491C147.094 23.6491 147.374 23.5558 147.587 23.3691C147.807 23.1825 147.917 22.9291 147.917 22.6091C147.917 22.2891 147.807 22.0358 147.587 21.8491C147.374 21.6558 147.087 21.5591 146.727 21.5591C146.374 21.5591 146.084 21.6591 145.857 21.8591C145.63 22.0525 145.517 22.3025 145.517 22.6091C145.517 22.9158 145.627 23.1658 145.847 23.3591C146.067 23.5525 146.367 23.6491 146.747 23.6491Z" fill="black"/>
<path d="M175.27 17.7383V18.7883L172.67 24.7383H170.91L173.42 19.0583H171.1V20.1983H169.66V17.7383H175.27Z" fill="black"/>
<path d="M200.379 21.0591C200.725 21.2325 200.989 21.4591 201.169 21.7391C201.355 22.0191 201.449 22.3425 201.449 22.7091C201.449 23.1425 201.325 23.5225 201.079 23.8491C200.832 24.1691 200.485 24.4191 200.039 24.5991C199.592 24.7725 199.075 24.8591 198.489 24.8591C197.902 24.8591 197.385 24.7725 196.939 24.5991C196.499 24.4191 196.155 24.1691 195.909 23.8491C195.669 23.5225 195.549 23.1425 195.549 22.7091C195.549 22.3425 195.639 22.0191 195.819 21.7391C196.005 21.4591 196.269 21.2325 196.609 21.0591C196.349 20.8991 196.149 20.6991 196.009 20.4591C195.869 20.2125 195.799 19.9325 195.799 19.6191C195.799 19.2125 195.912 18.8591 196.139 18.5591C196.365 18.2591 196.682 18.0291 197.089 17.8691C197.495 17.7025 197.962 17.6191 198.489 17.6191C199.022 17.6191 199.492 17.7025 199.899 17.8691C200.312 18.0291 200.632 18.2591 200.859 18.5591C201.085 18.8591 201.199 19.2125 201.199 19.6191C201.199 19.9325 201.129 20.2125 200.989 20.4591C200.849 20.6991 200.645 20.8991 200.379 21.0591ZM198.489 18.8091C198.162 18.8091 197.899 18.8891 197.699 19.0491C197.505 19.2025 197.409 19.4158 197.409 19.6891C197.409 19.9558 197.505 20.1658 197.699 20.3191C197.892 20.4725 198.155 20.5491 198.489 20.5491C198.822 20.5491 199.089 20.4725 199.289 20.3191C199.489 20.1658 199.589 19.9558 199.589 19.6891C199.589 19.4158 199.489 19.2025 199.289 19.0491C199.089 18.8891 198.822 18.8091 198.489 18.8091ZM198.489 23.6691C198.895 23.6691 199.215 23.5791 199.449 23.3991C199.689 23.2125 199.809 22.9658 199.809 22.6591C199.809 22.3525 199.689 22.1091 199.449 21.9291C199.215 21.7491 198.895 21.6591 198.489 21.6591C198.089 21.6591 197.772 21.7491 197.539 21.9291C197.305 22.1091 197.189 22.3525 197.189 22.6591C197.189 22.9725 197.305 23.2191 197.539 23.3991C197.772 23.5791 198.089 23.6691 198.489 23.6691Z" fill="black"/>
<path d="M224.166 17.6191C225.146 17.6191 225.912 17.9191 226.466 18.5191C227.019 19.1125 227.296 19.9691 227.296 21.0891C227.296 21.8825 227.146 22.5625 226.846 23.1291C226.552 23.6958 226.136 24.1258 225.596 24.4191C225.056 24.7125 224.432 24.8591 223.726 24.8591C223.352 24.8591 222.996 24.8191 222.656 24.7391C222.316 24.6525 222.026 24.5325 221.786 24.3791L222.386 23.1891C222.726 23.4225 223.162 23.5391 223.696 23.5391C224.289 23.5391 224.759 23.3658 225.106 23.0191C225.452 22.6658 225.639 22.1591 225.666 21.4991C225.246 21.9191 224.666 22.1291 223.926 22.1291C223.479 22.1291 223.072 22.0391 222.706 21.8591C222.339 21.6791 222.049 21.4258 221.836 21.0991C221.622 20.7658 221.516 20.3825 221.516 19.9491C221.516 19.4825 221.632 19.0725 221.866 18.7191C222.099 18.3658 222.416 18.0958 222.816 17.9091C223.222 17.7158 223.672 17.6191 224.166 17.6191ZM224.286 20.9191C224.639 20.9191 224.926 20.8225 225.146 20.6291C225.372 20.4291 225.486 20.1758 225.486 19.8691C225.486 19.5625 225.376 19.3125 225.156 19.1191C224.942 18.9258 224.646 18.8291 224.266 18.8291C223.919 18.8291 223.636 18.9225 223.416 19.1091C223.202 19.2958 223.096 19.5491 223.096 19.8691C223.096 20.1891 223.202 20.4458 223.416 20.6391C223.636 20.8258 223.926 20.9191 224.286 20.9191Z" fill="black"/>
<path d="M249.239 18.7391V25.7391H247.619V20.0391H246.219V18.7391H249.239Z" fill="black"/>
<path d="M253.455 25.8591C252.875 25.8591 252.358 25.7158 251.905 25.4291C251.451 25.1425 251.095 24.7291 250.835 24.1891C250.581 23.6425 250.455 22.9925 250.455 22.2391C250.455 21.4858 250.581 20.8391 250.835 20.2991C251.095 19.7525 251.451 19.3358 251.905 19.0491C252.358 18.7625 252.875 18.6191 253.455 18.6191C254.035 18.6191 254.551 18.7625 255.005 19.0491C255.458 19.3358 255.811 19.7525 256.065 20.2991C256.325 20.8391 256.455 21.4858 256.455 22.2391C256.455 22.9925 256.325 23.6425 256.065 24.1891C255.811 24.7291 255.458 25.1425 255.005 25.4291C254.551 25.7158 254.035 25.8591 253.455 25.8591ZM253.455 24.4891C253.881 24.4891 254.215 24.3058 254.455 23.9391C254.701 23.5725 254.825 23.0058 254.825 22.2391C254.825 21.4725 254.701 20.9058 254.455 20.5391C254.215 20.1725 253.881 19.9891 253.455 19.9891C253.035 19.9891 252.701 20.1725 252.455 20.5391C252.215 20.9058 252.095 21.4725 252.095 22.2391C252.095 23.0058 252.215 23.5725 252.455 23.9391C252.701 24.3058 253.035 24.4891 253.455 24.4891Z" fill="black"/>
<path d="M27.9648 9.94789V0.738281H26.4667V9.94789H27.9648Z" fill="black"/>
<path d="M14.7324 14.9261V0.738281H13.2344V14.9261H14.7324Z" fill="black"/>
<path d="M40.9492 14.9261V0.738281H39.4511V14.9261H40.9492Z" fill="black"/>
<path d="M17.9785 8.45444V0.738281H16.4804V8.45444H17.9785Z" fill="black"/>
<path d="M21.2227 8.45444V0.738281H19.7246V8.45444H21.2227Z" fill="black"/>
<path d="M24.7188 8.45444V0.738281H23.2207V8.45444H24.7188Z" fill="black"/>
<path d="M30.9609 8.45444V0.738281H29.4628V8.45444H30.9609Z" fill="black"/>
<path d="M34.457 8.45444V0.738281H32.9589V8.45444H34.457Z" fill="black"/>
<path d="M37.7031 8.45444V0.738281H36.205V8.45444H37.7031Z" fill="black"/>
<path d="M1.49805 9.94789L1.49805 0.738281H-9.15527e-05L-9.15527e-05 9.94789H1.49805Z" fill="black"/>
<path d="M14.7324 14.9261V0.738281H13.2344V14.9261H14.7324Z" fill="black"/>
<path d="M4.74414 8.45444V0.738281H3.24603V8.45444H4.74414Z" fill="black"/>
<path d="M8.24023 8.45444V0.738281H6.7421V8.45444H8.24023Z" fill="black"/>
<path d="M11.4863 8.45444V0.738281H9.98825V8.45444H11.4863Z" fill="black"/>
<path d="M54.1816 9.94789V0.738281H52.6835V9.94789H54.1816Z" fill="black"/>
<path d="M67.416 14.9261V0.738281H65.9179V14.9261H67.416Z" fill="black"/>
<path d="M44.4434 8.45444V0.738281H42.9453V8.45444H44.4434Z" fill="black"/>
<path d="M47.6895 8.45444V0.738281H46.1913V8.45444H47.6895Z" fill="black"/>
<path d="M50.9355 8.45444V0.738281H49.4374V8.45444H50.9355Z" fill="black"/>
<path d="M57.4277 8.45444V0.738281H55.9297V8.45444H57.4277Z" fill="black"/>
<path d="M60.6738 8.45444V0.738281H59.1757V8.45444H60.6738Z" fill="black"/>
<path d="M64.1699 8.45444V0.738281H62.6718V8.45444H64.1699Z" fill="black"/>
<path d="M80.6484 9.94789V0.738281H79.1504V9.94789H80.6484Z" fill="black"/>
<path d="M93.6328 14.9261V0.738281H92.1347V14.9261H93.6328Z" fill="black"/>
<path d="M70.6621 8.45444V0.738281H69.164V8.45444H70.6621Z" fill="black"/>
<path d="M74.1562 8.45444V0.738281H72.6581V8.45444H74.1562Z" fill="black"/>
<path d="M77.4023 8.45444V0.738281H75.9043V8.45444H77.4023Z" fill="black"/>
<path d="M83.8945 8.45444V0.738281H82.3964V8.45444H83.8945Z" fill="black"/>
<path d="M87.1406 8.45444V0.738281H85.6425V8.45444H87.1406Z" fill="black"/>
<path d="M90.3867 8.45444V0.738281H88.8886V8.45444H90.3867Z" fill="black"/>
<path d="M107.115 9.94789V0.738281H105.617V9.94789H107.115Z" fill="black"/>
<path d="M120.1 14.9261V0.738281H118.602V14.9261H120.1Z" fill="black"/>
<path d="M97.1289 8.45444V0.738281H95.6308V8.45444H97.1289Z" fill="black"/>
<path d="M100.375 8.45444V0.738281H98.8769V8.45444H100.375Z" fill="black"/>
<path d="M103.869 8.45444V0.738281H102.371V8.45444H103.869Z" fill="black"/>
<path d="M110.111 8.45444V0.738281H108.613V8.45444H110.111Z" fill="black"/>
<path d="M113.607 8.45444V0.738281H112.109V8.45444H113.607Z" fill="black"/>
<path d="M116.854 8.45444V0.738281H115.355V8.45444H116.854Z" fill="black"/>
<path d="M133.332 9.94789V0.738281H131.834V9.94789H133.332Z" fill="black"/>
<path d="M146.566 14.9261V0.738281H145.068V14.9261H146.566Z" fill="black"/>
<path d="M123.594 8.45444V0.738281H122.096V8.45444H123.594Z" fill="black"/>
<path d="M126.84 8.45444V0.738281H125.342V8.45444H126.84Z" fill="black"/>
<path d="M130.086 8.45444V0.738281H128.588V8.45444H130.086Z" fill="black"/>
<path d="M136.578 8.45444V0.738281H135.08V8.45444H136.578Z" fill="black"/>
<path d="M139.824 8.45444V0.738281H138.326V8.45444H139.824Z" fill="black"/>
<path d="M143.32 8.45444V0.738281H141.822V8.45444H143.32Z" fill="black"/>
<path d="M159.799 9.94789V0.738281H158.301V9.94789H159.799Z" fill="black"/>
<path d="M172.783 14.9261V0.738281H171.285V14.9261H172.783Z" fill="black"/>
<path d="M149.811 8.45444V0.738281H148.312V8.45444H149.811Z" fill="black"/>
<path d="M153.307 8.45444V0.738281H151.809V8.45444H153.307Z" fill="black"/>
<path d="M156.553 8.45444V0.738281H155.055V8.45444H156.553Z" fill="black"/>
<path d="M163.045 8.45444V0.738281H161.547V8.45444H163.045Z" fill="black"/>
<path d="M166.291 8.45444V0.738281H164.793V8.45444H166.291Z" fill="black"/>
<path d="M169.787 8.45444V0.738281H168.289V8.45444H169.787Z" fill="black"/>
<path d="M186.266 9.94789V0.738281H184.768V9.94789H186.266Z" fill="black"/>
<path d="M199.25 14.9261V0.738281H197.752V14.9261H199.25Z" fill="black"/>
<path d="M176.277 8.45444V0.738281H174.779V8.45444H176.277Z" fill="black"/>
<path d="M179.523 8.45444V0.738281H178.025V8.45444H179.523Z" fill="black"/>
<path d="M183.02 8.45444V0.738281H181.521V8.45444H183.02Z" fill="black"/>
<path d="M189.262 8.45444V0.738281H187.764V8.45444H189.262Z" fill="black"/>
<path d="M192.758 8.45444V0.738281H191.26V8.45444H192.758Z" fill="black"/>
<path d="M196.004 8.45444V0.738281H194.506V8.45444H196.004Z" fill="black"/>
<path d="M212.482 9.94789V0.738281H210.984V9.94789H212.482Z" fill="black"/>
<path d="M225.717 14.9261V0.738281H224.219V14.9261H225.717Z" fill="black"/>
<path d="M202.744 8.45444V0.738281H201.246V8.45444H202.744Z" fill="black"/>
<path d="M205.99 8.45444V0.738281H204.492V8.45444H205.99Z" fill="black"/>
<path d="M209.486 8.45444V0.738281H207.988V8.45444H209.486Z" fill="black"/>
<path d="M215.729 8.45444V0.738281H214.23V8.45444H215.729Z" fill="black"/>
<path d="M219.225 8.45444V0.738281H217.727V8.45444H219.225Z" fill="black"/>
<path d="M222.471 8.45444V0.738281H220.973V8.45444H222.471Z" fill="black"/>
<path d="M238.949 9.94789V0.738281H237.451V9.94789H238.949Z" fill="black"/>
<path d="M251.934 14.9261V0.738281H250.435V14.9261H251.934Z" fill="black"/>
<path d="M228.963 8.45444V0.738281H227.465V8.45444H228.963Z" fill="black"/>
<path d="M232.457 8.45444V0.738281H230.959V8.45444H232.457Z" fill="black"/>
<path d="M235.703 8.45444V0.738281H234.205V8.45444H235.703Z" fill="black"/>
<path d="M242.195 8.45444V0.738281H240.697V8.45444H242.195Z" fill="black"/>
<path d="M245.441 8.45444V0.738281H243.943V8.45444H245.441Z" fill="black"/>
<path d="M248.938 8.45444V0.738281H247.439V8.45444H248.938Z" fill="black"/>
<path d="M265.416 9.94789V0.738281H263.918V9.94789H265.416Z" fill="black"/>
<path d="M255.428 8.45444V0.738281H253.93V8.45444H255.428Z" fill="black"/>
<path d="M258.924 8.45444V0.738281H257.426V8.45444H258.924Z" fill="black"/>
<path d="M262.17 8.45444V0.738281H260.672V8.45444H262.17Z" fill="black"/>
<path d="M268.662 8.45444V0.738281H267.164V8.45444H268.662Z" fill="black"/>
<g clip-path="url(#clip1_5636_106264)">
<path d="M220.317 46.6612C219.494 46.6612 218.917 46.0843 218.917 45.3535C218.917 44.6227 219.535 44.0458 220.317 44.0458C221.141 44.0458 221.717 44.6227 221.717 45.3535C221.717 46.0843 221.141 46.6612 220.317 46.6612ZM223.488 46.5843C223.2 46.5843 223.076 46.4304 223.076 46.1997V42.9689H221.759V43.5843C221.347 43.1227 220.77 42.8535 220.07 42.8535C218.629 42.8535 217.559 43.9304 217.559 45.3535C217.559 46.7766 218.629 47.8535 220.07 47.8535C220.812 47.8535 221.429 47.5074 221.841 47.0074C222.047 47.5074 222.5 47.7766 223.2 47.7766H223.57V46.5843H223.488Z" fill="#9C6A17"/>
<path d="M226.946 47.8535C228.305 47.8535 229.376 47.0458 229.623 45.892H228.223C228.017 46.3535 227.523 46.6612 226.946 46.6612C226.123 46.6612 225.546 46.0843 225.546 45.3535C225.546 44.6227 226.164 44.0458 226.946 44.0458C227.523 44.0458 228.017 44.3535 228.223 44.8151H229.623C229.376 43.6612 228.305 42.8535 226.946 42.8535C225.382 42.8535 224.188 43.9304 224.188 45.3535C224.188 46.7766 225.382 47.8535 226.946 47.8535Z" fill="#9C6A17"/>
<path d="M233.452 44.0848V42.9694H232.258V41.7002H231.023V42.5848C231.023 42.854 230.899 42.9694 230.611 42.9694H230.158V44.0848H230.982V46.2387C230.982 47.2387 231.599 47.7387 232.752 47.7387H233.452V46.6233H232.958C232.546 46.6233 232.299 46.3925 232.299 46.0079V44.0848H233.452Z" fill="#9C6A17"/>
<path d="M234.565 47.7383H235.883V42.9691H234.565V47.7383ZM235.224 42.2767C235.677 42.2767 236.047 41.9306 236.047 41.5075C236.047 41.0844 235.677 40.7383 235.224 40.7383C234.771 40.7383 234.4 41.0844 234.4 41.5075C234.4 41.9306 234.73 42.2767 235.224 42.2767Z" fill="#9C6A17"/>
<path d="M240.247 44.0848V42.9694H239.053V41.7002H237.818V42.5848C237.818 42.854 237.694 42.9694 237.406 42.9694H236.953V44.0848H237.777V46.2387C237.777 47.2387 238.394 47.7387 239.547 47.7387H240.247V46.6233H239.753C239.341 46.6233 239.094 46.3925 239.094 46.0079V44.0848H240.247Z" fill="#9C6A17"/>
<path d="M246.712 46.5847C246.424 46.5847 246.301 46.4309 246.301 46.2001V44.7386C246.301 43.6232 245.518 42.8924 244.283 42.8924C243.624 42.8924 243.048 43.1617 242.636 43.6232V41.0078H241.318V47.777H242.636V45.1617C242.636 44.5078 243.13 44.0847 243.83 44.0847C244.489 44.0847 244.942 44.5078 244.942 45.1617V46.4694C244.942 47.354 245.436 47.777 246.424 47.777H246.795V46.5847H246.712Z" fill="#9C6A17"/>
<path d="M247.659 47.7383H248.976V42.9691H247.659V47.7383ZM248.318 42.2767C248.771 42.2767 249.141 41.9306 249.141 41.5075C249.141 41.0844 248.771 40.7383 248.318 40.7383C247.865 40.7383 247.494 41.0844 247.494 41.5075C247.494 41.9306 247.865 42.2767 248.318 42.2767Z" fill="#9C6A17"/>
<path d="M255.73 46.5849C255.442 46.5849 255.318 46.431 255.318 46.2003V44.7387C255.318 43.6233 254.536 42.8926 253.301 42.8926C252.642 42.8926 252.065 43.1233 251.654 43.5849V42.9695H250.336V47.7387H251.654V45.1233C251.654 44.4695 252.148 44.0464 252.848 44.0464C253.507 44.0464 253.959 44.4695 253.959 45.1233V46.431C253.959 47.3157 254.454 47.7387 255.442 47.7387H255.812V46.5464H255.73V46.5849Z" fill="#9C6A17"/>
<path fill-rule="evenodd" clip-rule="evenodd" d="M213.483 43.0072C213.483 42.9687 213.483 42.9687 213.483 42.9303C213.442 42.8149 213.401 42.661 213.318 42.5072C213.236 42.3533 213.03 42.1226 212.701 42.0841C212.371 42.0456 212.083 42.1995 211.877 42.3533C211.671 42.5072 211.507 42.7379 211.465 43.0072C211.424 43.3149 211.548 43.5072 211.712 43.661C211.836 43.7764 212.001 43.8533 212.083 43.8918C212.124 43.9303 212.165 43.9303 212.207 43.9303C212.207 43.9303 212.207 43.9303 212.248 43.9303L211.342 47.9687L212.454 48.1995L213.401 44.0072L215.583 44.0841C215.501 44.1995 215.459 44.3149 215.377 44.4303C215.212 44.7379 215.048 45.0456 214.924 45.3533C214.801 45.6226 214.677 46.0072 214.718 46.3149C214.759 46.6995 214.883 47.1226 215.254 47.4687C215.624 47.7764 216.118 47.9687 216.777 48.0841L217.312 48.161L217.518 47.1226L216.983 47.0456C216.407 46.9303 216.159 46.8149 216.036 46.6995C215.912 46.6226 215.871 46.4687 215.83 46.1995V46.161C215.83 46.1226 215.83 46.1226 215.871 46.0841C215.912 46.0072 215.912 45.8918 215.995 45.7764C216.118 45.5072 216.242 45.2379 216.407 44.9687C216.612 44.4303 216.942 43.9303 216.942 43.9303C216.942 43.8918 217.024 43.8149 217.024 43.661C217.024 43.5841 216.983 43.4687 216.942 43.3533C216.859 43.2379 216.777 43.1995 216.695 43.161C216.612 43.1226 216.53 43.1226 216.489 43.1226L213.483 43.0072Z" fill="#9C6A17"/>
<path d="M194.995 47.4685C194.83 47.1993 194.542 46.9685 194.295 46.7762C194.007 46.5839 193.677 46.3531 193.348 46.2377C193.019 46.1223 192.648 46.1608 192.319 46.2762C192.03 46.3531 191.783 46.5454 191.66 46.8146C191.536 47.1223 191.536 47.3916 191.783 47.6223C192.03 47.8146 192.36 47.9685 192.648 48.0069C192.73 48.0069 192.977 48.0454 193.06 47.9685C193.142 47.8916 193.101 47.6223 193.101 47.5454C193.019 47.2762 192.73 47.0454 192.483 47.2762C192.236 47.5069 191.866 47.0839 192.113 46.8531C192.401 46.5839 192.854 46.5839 193.183 46.7762C193.513 46.9685 193.677 47.3531 193.677 47.7377C193.677 48.1223 193.554 48.4685 193.142 48.5454C192.771 48.6608 192.319 48.5839 191.989 48.43C191.66 48.2762 191.33 48.0454 191.124 47.7377C190.96 47.3916 191.001 46.9685 191.166 46.6223C191.495 45.8916 192.319 45.6223 193.101 45.6608C193.595 45.6993 194.048 45.9685 194.419 46.1993C194.789 46.4685 195.201 46.7377 195.448 47.1223C195.613 47.43 195.16 47.7762 194.995 47.4685Z" fill="#9C6A17"/>
<path d="M202.036 44.4306C202.118 45.046 201.83 45.5844 201.418 45.6229C201.006 45.6613 200.594 45.1613 200.512 44.546C200.43 43.9306 200.718 43.3921 201.13 43.3536C201.542 43.3152 201.953 43.8152 202.036 44.4306Z" fill="#9C6A17"/>
<path d="M194.129 45.008C194.129 46.8927 195.817 48.1619 197.835 48.1619C199.852 48.1619 201.458 47.1619 201.499 45.008C201.541 43.1234 199.852 41.585 197.835 41.585C195.776 41.585 194.129 43.085 194.129 45.008Z" fill="#9C6A17"/>
<path d="M198.823 41.7766C198.823 41.6227 197.753 41.5843 197.465 41.0074C197.423 40.9304 197.423 40.8535 197.423 40.8535C197.3 40.892 197.094 40.9689 196.888 41.1612C196.682 41.3535 196.641 41.5458 196.6 41.6227C196.559 41.6227 196.435 41.5458 196.353 41.4689C196.27 41.3535 196.27 41.1997 196.27 41.1612C196.188 41.2381 196.065 41.3151 195.982 41.4689C195.694 41.892 195.817 42.3151 195.859 42.4304C198.288 42.0843 198.823 41.892 198.823 41.7766Z" fill="#9C6A17"/>
<path d="M196.147 46.5459C196.353 47.4305 197.588 47.9305 198.865 47.6229C200.182 47.3536 201.088 46.3921 200.882 45.5459C200.676 44.6613 199.441 44.1613 198.124 44.469C196.847 44.7382 195.982 45.6613 196.147 46.5459Z" fill="#FECC7B"/>
<path d="M195.735 44.9302C195.9 45.6995 196.641 46.1995 197.382 46.0072C198.123 45.8149 198.617 45.0456 198.452 44.2764C198.288 43.5072 197.547 43.0072 196.805 43.1995C196.023 43.3533 195.57 44.1226 195.735 44.9302Z" fill="#FECC7B"/>
<path d="M200.347 43.7767C200.511 44.5844 200.058 45.3536 199.4 45.5074C198.7 45.6613 198 45.1613 197.876 44.392C197.67 43.5844 198.123 42.8151 198.823 42.6613C199.482 42.469 200.182 42.969 200.347 43.7767Z" fill="#FECC7B"/>
<path d="M194.706 46.7765C194.459 46.815 194.212 46.6996 194.006 46.4688C193.8 46.2381 193.594 45.8919 193.512 45.5073C193.429 45.1227 193.471 44.7381 193.553 44.4304C193.676 44.1227 193.882 43.9304 194.129 43.8919C194.376 43.815 194.623 43.9304 194.829 44.1611C195.035 44.3919 195.241 44.7381 195.323 45.1227C195.406 45.5073 195.365 45.8919 195.282 46.1996C195.118 46.5457 194.953 46.7381 194.706 46.7765Z" fill="#9C6A17"/>
<path d="M195.118 46.1999C194.995 46.4691 194.83 46.6229 194.665 46.6614L194.706 46.8922C195.036 46.8152 195.242 46.5845 195.365 46.2768L195.118 46.1999ZM195.159 45.1999C195.242 45.5845 195.2 45.9306 195.118 46.1999L195.406 46.2768C195.53 45.9691 195.571 45.546 195.489 45.1229L195.159 45.1999ZM194.706 44.2768C194.912 44.4691 195.077 44.8152 195.159 45.1999L195.448 45.1614C195.365 44.7383 195.159 44.3537 194.953 44.1229L194.706 44.2768ZM194.13 44.0075C194.295 43.9691 194.542 44.046 194.706 44.2768L194.912 44.0845C194.706 43.8537 194.418 43.6999 194.089 43.7383L194.13 44.0075ZM193.718 44.4691C193.8 44.1999 193.965 44.046 194.13 44.0075L194.089 43.7383C193.759 43.8152 193.553 44.046 193.43 44.3537L193.718 44.4691ZM193.636 45.4691C193.553 45.0845 193.595 44.7383 193.677 44.4691L193.43 44.3537C193.306 44.6614 193.265 45.0845 193.348 45.5075L193.636 45.4691ZM194.089 46.3922C193.883 46.1999 193.718 45.8537 193.636 45.4691L193.348 45.5075C193.43 45.9306 193.636 46.3152 193.842 46.546L194.089 46.3922ZM194.665 46.6614C194.5 46.6999 194.295 46.6229 194.089 46.3922L193.883 46.546C194.13 46.8152 194.418 46.9691 194.748 46.8922L194.665 46.6614ZM195.242 46.2383L195.365 46.2768L195.242 46.2383ZM195.324 45.1614L195.2 45.1999L195.324 45.1614ZM194.83 44.1614L194.953 44.0845L194.83 44.1614ZM194.13 43.8922L194.089 43.7383L194.13 43.8922ZM193.553 44.4306L193.43 44.3537L193.553 44.4306ZM193.512 45.5075L193.636 45.4691L193.512 45.5075ZM193.965 46.4691L193.883 46.546L193.965 46.4691ZM194.706 46.7768L194.665 46.6614L194.706 46.7768Z" fill="#FECC7B"/>
<path d="M194.17 45.469C194.664 46.4305 194.747 47.1613 195.117 47.0843C195.488 47.0074 195.57 45.969 195.447 45.1228C195.323 44.3151 194.582 43.7382 194.458 43.8536C194.294 43.892 194.047 44.6613 194.17 45.469Z" fill="#9C6A17"/>
<path d="M199.73 46.5464C199.689 46.5849 199.195 47.1233 198.33 47.1233C197.713 47.1233 197.136 46.8157 196.807 46.3926C196.93 46.4695 197.465 46.8926 198.289 46.931C199.071 46.931 199.565 46.6233 199.73 46.5464Z" fill="#9C6A17"/>
<path d="M198.164 45.9304C198.205 45.9304 198.37 45.9689 198.576 45.9689C198.782 45.9304 198.905 45.892 198.946 45.8535C198.823 45.8535 198.699 45.892 198.576 45.892C198.411 45.9304 198.246 45.9304 198.164 45.9304Z" fill="#9C6A17"/>
<path d="M201.459 45.123C201.5 45.123 201.541 45.123 201.541 45.1615L201.706 48.2C201.706 48.2384 201.706 48.2384 201.665 48.2769L198.783 49.623H198.741L195.653 48.6615C195.612 48.6615 195.612 48.623 195.612 48.623L195.447 45.5846C195.447 45.5461 195.447 45.5461 195.488 45.5461H195.53L198.577 46.5461C198.618 46.5461 198.618 46.5461 198.659 46.5461L201.459 45.123Z" fill="#9C6A17"/>
<path d="M198.742 46.6226L201.542 45.2764L201.377 44.9688L198.577 46.3149L198.742 46.6226ZM198.536 46.6226C198.618 46.6611 198.66 46.6226 198.742 46.6226L198.577 46.3534H198.618L198.536 46.6226ZM198.618 46.6226V46.3149V46.6226ZM195.489 45.6226L198.536 46.6226L198.66 46.3149L195.613 45.3534L195.489 45.6226ZM195.53 45.6611V45.3534V45.6611ZM195.613 45.6226L195.571 45.6611C195.53 45.6611 195.53 45.6611 195.489 45.6611L195.613 45.3534C195.53 45.3149 195.448 45.3534 195.407 45.3918L195.613 45.6226ZM195.613 45.5457C195.613 45.5841 195.613 45.5841 195.571 45.6226L195.366 45.3918C195.324 45.4303 195.283 45.5072 195.283 45.5841L195.613 45.5457ZM195.818 48.5841L195.654 45.5457H195.324L195.489 48.5841H195.818ZM195.736 48.4688C195.777 48.4688 195.818 48.5457 195.818 48.5457L195.489 48.5841C195.489 48.6611 195.53 48.738 195.654 48.7764L195.736 48.4688ZM195.695 48.4688V48.7764V48.4688ZM198.824 49.4688L195.736 48.5072L195.613 48.8149L198.701 49.7764L198.824 49.4688ZM198.742 49.4303V49.738V49.4303ZM198.701 49.4688C198.742 49.4688 198.783 49.4688 198.783 49.4688L198.66 49.738C198.701 49.7764 198.783 49.738 198.824 49.738L198.701 49.4688ZM198.66 49.5072L198.907 49.738L198.66 49.5072ZM201.624 48.1226L198.742 49.4688L198.907 49.738L201.789 48.3918L201.624 48.1226ZM201.542 48.1995C201.542 48.1611 201.542 48.1226 201.583 48.1226L201.707 48.3918C201.789 48.3534 201.83 48.2764 201.83 48.1995H201.542ZM201.377 45.1995L201.542 48.238H201.871L201.707 45.1611L201.377 45.1995ZM201.542 45.2764C201.501 45.3149 201.46 45.2764 201.418 45.2764C201.377 45.2764 201.377 45.238 201.377 45.1995H201.707C201.707 45.0457 201.542 44.9303 201.377 45.0072L201.542 45.2764ZM198.66 46.4687L198.577 46.3149L198.66 46.4687ZM198.618 46.4687L198.66 46.3149H198.618H198.577V46.4687H198.618ZM198.618 46.4687L198.577 46.6226H198.618H198.66V46.4687H198.618ZM195.53 45.5072L195.571 45.3534H195.53V45.5072ZM195.53 45.5072L195.489 45.6611H195.53V45.5072ZM195.489 45.5072L195.613 45.6226L195.489 45.5072ZM195.448 45.5457H195.613H195.448ZM195.654 48.5841H195.489H195.654ZM195.695 48.6226L195.654 48.7764H195.695H195.736V48.6226H195.695ZM195.695 48.6226L195.736 48.4688H195.695H195.654V48.6226H195.695ZM198.742 49.5841L198.701 49.738H198.742H198.783V49.5841H198.742ZM198.742 49.5841L198.783 49.4303H198.742H198.701V49.5841H198.742ZM198.783 49.5841L198.866 49.738H198.907L198.783 49.5841ZM198.783 49.5841L198.701 49.4303H198.66L198.783 49.5841ZM201.666 48.2764L201.583 48.1226L201.666 48.2764ZM201.707 48.1995H201.871H201.707ZM201.542 45.1611H201.707H201.542ZM201.46 45.1226L201.542 45.2764L201.46 45.1226Z" fill="#FECC7B"/>
<path d="M198.741 49.5079L198.576 46.7387L198.823 46.7002L198.947 49.3925L198.741 49.5079Z" fill="#FECC7B"/>
<path d="M195.86 45.3152L195.818 45.4691V45.4306V45.3152V45.2383L198.042 46.046L195.86 45.3152Z" fill="#9C6A17"/>
<path d="M195.776 45.3154L195.94 45.3538L195.776 45.3154ZM195.899 45.2384L195.817 45.3923L195.899 45.2384ZM198.081 45.9692L195.899 45.2384L195.858 45.3923L197.999 46.123L198.081 45.9692ZM195.776 45.2769L197.999 46.123L198.04 45.9692L195.817 45.123L195.776 45.2769ZM195.899 45.3154V45.2H195.734V45.3154H195.899ZM195.899 45.4307V45.3154L195.734 45.3538V45.4692L195.899 45.4307ZM195.899 45.3923L195.776 45.5077L195.899 45.3923ZM195.776 45.3154V45.4307H195.94V45.3154H195.776ZM195.858 45.3154L195.899 45.2384L195.817 45.2V45.3154H195.858ZM195.858 45.3154L195.817 45.3923L195.858 45.3154ZM198.04 46.0461L197.999 46.123L198.04 45.9692V46.0461ZM195.817 45.2384L195.858 45.1615L195.734 45.123V45.2384H195.817ZM195.817 45.3154H195.734H195.817ZM195.817 45.4307H195.734V45.4692L195.817 45.4307ZM195.817 45.4692L195.776 45.5077L195.899 45.623V45.4692H195.817ZM195.858 45.3154H195.776H195.858Z" fill="#FECC7B"/>
<path d="M201.499 45.1993L201.417 44.8916L199.152 46.2762L201.417 45.0839V45.0454V45.0839L201.499 45.1993Z" fill="#9C6A17"/>
<path d="M201.582 45.1994H201.417H201.582ZM201.5 45.2764V45.1225V45.2764ZM201.335 45.1225L201.417 45.2379L201.541 45.161L201.459 45.0456L201.335 45.1225ZM201.335 45.0841L201.5 45.0071L201.335 45.0841ZM201.459 45.1225L201.376 44.9687L201.459 45.1225ZM199.194 46.3148L201.459 45.1225L201.376 45.0071L199.111 46.1994L199.194 46.3148ZM201.335 44.8533L199.07 46.1994L199.153 46.3148L201.417 44.9687L201.335 44.8533ZM201.582 45.161L201.5 44.8918L201.335 44.9302L201.417 45.1994L201.582 45.161ZM201.5 45.1994V45.2764H201.582V45.1994H201.5ZM201.5 45.1994L201.417 45.2379L201.459 45.2764H201.5V45.1994ZM201.417 45.0841L201.335 45.1225L201.417 45.0841ZM201.417 45.0456L201.5 45.0071L201.459 44.9687L201.376 45.0071L201.417 45.0456ZM201.417 45.0841L201.376 45.0071L201.417 45.0841ZM199.153 46.2764L199.111 46.1994L199.194 46.3148L199.153 46.2764ZM201.417 44.8918L201.5 44.8533L201.459 44.7764L201.376 44.8148L201.417 44.8918ZM201.5 45.1994H201.582H201.5Z" fill="#FECC7B"/>
<path d="M195.826 48.4299C196.258 48.4224 196.604 48.2098 196.599 47.9549C196.594 47.7001 196.24 47.4995 195.808 47.507C195.376 47.5145 195.029 47.7271 195.035 47.982C195.04 48.2368 195.394 48.4374 195.826 48.4299Z" fill="#9C6A17"/>
<path d="M195.823 48.2377C196.073 48.2335 196.273 48.1096 196.27 47.9609C196.267 47.8123 196.062 47.6952 195.812 47.6994C195.562 47.7036 195.362 47.8275 195.365 47.9762C195.367 48.1249 195.573 48.242 195.823 48.2377Z" fill="#FECC7B"/>
<path d="M196.6 47.5071C196.6 47.8148 196.23 48.0456 195.777 48.0456C195.324 48.0456 194.953 47.8148 194.912 47.5456C194.912 47.2764 195.283 47.0071 195.736 47.0071C196.189 46.9687 196.559 47.1994 196.6 47.5071Z" fill="#9C6A17"/>
<path d="M196.23 47.3917C196.23 47.5455 196.024 47.6994 195.777 47.6994C195.53 47.6994 195.324 47.584 195.324 47.3917C195.324 47.2378 195.53 47.084 195.777 47.084C196.024 47.084 196.23 47.2378 196.23 47.3917Z" fill="#FECC7B"/>
<path d="M196.477 46.969C196.477 47.1997 196.147 47.3921 195.694 47.3921C195.283 47.3921 194.912 47.1997 194.912 46.969V46.9305C194.953 46.6997 195.283 46.5459 195.694 46.5459C196.106 46.5844 196.477 46.7382 196.477 46.969Z" fill="#9C6A17"/>
<path d="M196.146 46.9688C196.146 47.1227 195.94 47.2765 195.693 47.2765C195.528 47.2765 195.281 47.1611 195.24 47.0073V46.9688C195.24 46.815 195.487 46.6611 195.693 46.6611C195.94 46.6611 196.146 46.815 196.146 46.9688Z" fill="#FECC7B"/>
<path d="M195.448 46.2764C195.365 46.3148 195.118 46.3918 194.995 46.6225C194.912 46.7764 194.871 46.9302 194.871 47.0071C195.036 46.8918 195.242 46.7764 195.406 46.6225C195.448 46.5071 195.489 46.3918 195.448 46.2764Z" fill="#9C6A17"/>
<path d="M195.448 46.8151C195.365 46.892 195.324 47.0074 195.242 47.0843C195.242 47.0458 195.159 46.8535 195.242 46.6227C195.283 46.4304 195.406 46.3535 195.448 46.3535C195.365 46.5074 195.324 46.6997 195.365 46.7766C195.406 46.8151 195.448 46.8151 195.448 46.8151Z" fill="#FECC7B"/>
<path d="M200.841 47.3154C200.841 47.5847 201.212 47.777 201.583 47.7385C201.994 47.7001 202.283 47.4693 202.283 47.2385C202.283 46.9693 201.912 46.777 201.541 46.8154C201.13 46.8154 200.8 47.0462 200.841 47.3154Z" fill="#9C6A17"/>
<path d="M201.573 47.0072C201.324 47.0232 201.13 47.1563 201.141 47.3047C201.152 47.453 201.363 47.5604 201.613 47.5445C201.862 47.5285 202.056 47.3954 202.045 47.247C202.034 47.0987 201.823 46.9913 201.573 47.0072Z" fill="#FECC7B"/>
<path d="M200.718 46.8536C200.718 47.1228 201.13 47.3536 201.583 47.3151C202.036 47.2767 202.406 47.0074 202.365 46.7382C202.365 46.469 201.953 46.2382 201.5 46.2767C201.047 46.3151 200.677 46.5459 200.718 46.8536Z" fill="#9C6A17"/>
<path d="M201.469 46.3603C201.151 46.3802 200.903 46.5337 200.916 46.7033C200.928 46.8728 201.195 46.9942 201.513 46.9744C201.83 46.9545 202.078 46.801 202.066 46.6315C202.054 46.4619 201.786 46.3405 201.469 46.3603Z" fill="#FECC7B"/>
<path d="M200.841 46.3151C200.841 46.5458 201.212 46.6997 201.583 46.6997C201.994 46.6612 202.283 46.4689 202.283 46.2381V46.1997C202.241 45.9689 201.912 45.8535 201.541 45.8535C201.13 45.892 200.8 46.0843 200.841 46.3151Z" fill="#9C6A17"/>
<path d="M201.17 46.315C201.17 46.4689 201.376 46.6227 201.623 46.5843C201.788 46.5843 202.035 46.4304 202.035 46.2766V46.2381C202.035 46.0843 201.788 45.9304 201.582 45.9689C201.335 45.9689 201.17 46.1227 201.17 46.315Z" fill="#FECC7B"/>
<path d="M201.623 45.5459C201.705 45.5844 201.952 45.6613 202.117 45.8921C202.241 46.0459 202.282 46.1997 202.282 46.2767C202.076 46.1613 201.87 46.0459 201.664 45.9305C201.664 45.8536 201.664 45.8151 201.623 45.7382C201.623 45.6613 201.623 45.5844 201.623 45.5459Z" fill="#9C6A17"/>
<path d="M201.787 46.0461C201.87 46.123 201.952 46.2 202.034 46.2769C202.034 46.2384 202.076 46.0461 201.993 45.8538C201.911 45.7 201.746 45.6615 201.746 45.623C201.87 45.7769 201.911 45.9307 201.87 45.9692C201.828 46.0077 201.828 46.0461 201.787 46.0461Z" fill="#FECC7B"/>
<path d="M197.712 45.0071C197.753 45.2763 197.589 45.5071 197.342 45.5455C197.095 45.584 196.889 45.3917 196.848 45.1224C196.765 44.8532 196.93 44.6224 197.177 44.584C197.424 44.584 197.671 44.7378 197.712 45.0071Z" fill="#9C6A17"/>
<path d="M197.26 44.8148C197.26 44.9686 197.177 45.084 197.054 45.1224C196.93 45.1224 196.807 45.0455 196.807 44.8917C196.807 44.7378 196.889 44.6224 197.013 44.584C197.136 44.584 197.218 44.6994 197.26 44.8148Z" fill="#FECC7B"/>
<path d="M199.689 44.5849C199.73 44.8541 199.565 45.0849 199.359 45.1233C199.153 45.1618 198.947 44.9695 198.906 44.7002C198.906 44.431 199.03 44.2002 199.277 44.2002C199.483 44.1618 199.689 44.3541 199.689 44.5849Z" fill="#9C6A17"/>
<path d="M199.359 44.315C199.359 44.3919 199.277 44.4688 199.153 44.5073C199.03 44.5073 198.906 44.4688 198.906 44.3534C198.906 44.2765 198.989 44.1996 199.112 44.1611C199.236 44.1611 199.359 44.2381 199.359 44.315Z" fill="#FECC7B"/>
<path d="M195.818 45.3154V45.4693L196.024 45.5462L195.942 45.3924L195.818 45.3154Z" fill="#FECC7B"/>
<path d="M195.818 45.3154L197.301 45.8924L198.577 46.3539L195.86 45.3924L195.818 45.3154Z" fill="#9C6A17"/>
<path d="M200.841 45.3923L199.152 46.2769L200.429 45.7L201.499 45.2384L201.417 45.123L200.841 45.3923Z" fill="#FECC7B"/>
<path d="M201.253 45.123L199.853 45.7769L198.576 46.3538L201.211 45.1615L201.253 45.123Z" fill="#9C6A17"/>
<path d="M207.924 42.8535C207.224 42.8535 206.647 43.1227 206.236 43.5843V42.9689H204.918V49.5458H206.236V47.1227C206.647 47.5843 207.224 47.8535 207.924 47.8535C209.365 47.8535 210.436 46.7766 210.436 45.3535C210.436 43.9304 209.365 42.8535 207.924 42.8535ZM207.677 46.6997C207.471 46.6997 207.306 46.6612 207.1 46.5843C206.647 46.4304 206.318 46.0074 206.236 45.5458C206.236 45.4689 206.236 45.4304 206.236 45.3535C206.236 45.2766 206.236 45.2381 206.236 45.1612C206.318 44.6612 206.606 44.2766 207.1 44.1227C207.265 44.0458 207.471 44.0074 207.677 44.0074C208.459 44.0074 209.118 44.6227 209.118 45.3535C209.118 46.0843 208.5 46.6997 207.677 46.6997Z" fill="#9C6A17"/>
<path d="M258.776 45.6614C258.776 45.5076 258.817 45.3153 258.941 45.0845C259.023 44.8537 259.188 44.623 259.311 44.3922C259.435 44.1614 259.6 43.9691 259.682 43.8537C259.723 43.7768 259.764 43.7384 259.806 43.6999L259.847 43.6614L260.176 43.2384L260.3 43.123L259.064 42.8922L258.941 42.9691L258.9 43.0076C258.858 43.046 258.817 43.123 258.776 43.1999C258.653 43.3537 258.488 43.5845 258.364 43.8153C258.2 44.046 258.035 44.3537 257.911 44.6614C257.87 44.7768 257.788 44.9307 257.788 45.123V40.9307H256.594V47.6999H257.788V46.2768C258.076 47.2384 259.147 47.7384 260.3 47.9307L260.835 48.0076L261.041 46.9691L260.506 46.8922C259.311 46.6999 258.776 46.1999 258.776 45.6614Z" fill="#9C6A17"/>
</g>
</g>
<defs>
<clipPath id="clip0_5636_106264">
<rect width="57" height="270" fill="white" transform="translate(270 0.738281) rotate(90)"/>
</clipPath>
<clipPath id="clip1_5636_106264">
<rect width="70" height="9" fill="white" transform="translate(191 40.7383)"/>
</clipPath>
</defs>
</svg>
