<svg width="584" height="106" viewBox="0 0 584 106" fill="none" xmlns="http://www.w3.org/2000/svg">
<path d="M13.1293 4.4V17H11.3293V11.384H4.09332V17H2.29332V4.4H4.09332V9.818H11.3293V4.4H13.1293ZM20.7347 17.108C19.7867 17.108 18.9347 16.898 18.1787 16.478C17.4227 16.058 16.8287 15.482 16.3967 14.75C15.9767 14.006 15.7667 13.166 15.7667 12.23C15.7667 11.294 15.9767 10.46 16.3967 9.728C16.8287 8.984 17.4227 8.408 18.1787 8C18.9347 7.58 19.7867 7.37 20.7347 7.37C21.6827 7.37 22.5287 7.58 23.2727 8C24.0287 8.408 24.6167 8.984 25.0367 9.728C25.4687 10.46 25.6847 11.294 25.6847 12.23C25.6847 13.166 25.4687 14.006 25.0367 14.75C24.6167 15.482 24.0287 16.058 23.2727 16.478C22.5287 16.898 21.6827 17.108 20.7347 17.108ZM20.7347 15.596C21.3467 15.596 21.8927 15.458 22.3727 15.182C22.8647 14.894 23.2487 14.498 23.5247 13.994C23.8007 13.478 23.9387 12.89 23.9387 12.23C23.9387 11.57 23.8007 10.988 23.5247 10.484C23.2487 9.968 22.8647 9.572 22.3727 9.296C21.8927 9.02 21.3467 8.882 20.7347 8.882C20.1227 8.882 19.5707 9.02 19.0787 9.296C18.5987 9.572 18.2147 9.968 17.9267 10.484C17.6507 10.988 17.5127 11.57 17.5127 12.23C17.5127 12.89 17.6507 13.478 17.9267 13.994C18.2147 14.498 18.5987 14.894 19.0787 15.182C19.5707 15.458 20.1227 15.596 20.7347 15.596ZM42.2469 7.46L38.6829 17H37.0269L34.2729 9.764L31.4829 17H29.8269L26.2809 7.46H27.9189L30.6909 15.056L33.5709 7.46H35.0289L37.8549 15.092L40.6989 7.46H42.2469ZM60.7683 7.37C61.9683 7.37 62.9163 7.718 63.6123 8.414C64.3203 9.11 64.6743 10.142 64.6743 11.51V17H62.9463V11.708C62.9463 10.784 62.7303 10.088 62.2983 9.62C61.8783 9.152 61.2723 8.918 60.4803 8.918C59.6043 8.918 58.9083 9.194 58.3923 9.746C57.8763 10.286 57.6183 11.066 57.6183 12.086V17H55.8903V11.708C55.8903 10.784 55.6743 10.088 55.2423 9.62C54.8223 9.152 54.2163 8.918 53.4243 8.918C52.5483 8.918 51.8523 9.194 51.3363 9.746C50.8203 10.286 50.5623 11.066 50.5623 12.086V17H48.8343V7.46H50.4903V8.882C50.8383 8.39 51.2943 8.018 51.8583 7.766C52.4223 7.502 53.0643 7.37 53.7843 7.37C54.5283 7.37 55.1883 7.52 55.7643 7.82C56.3403 8.12 56.7843 8.558 57.0963 9.134C57.4563 8.582 57.9543 8.15 58.5903 7.838C59.2383 7.526 59.9643 7.37 60.7683 7.37ZM71.3278 7.37C72.6478 7.37 73.6558 7.694 74.3518 8.342C75.0598 8.99 75.4138 9.956 75.4138 11.24V17H73.7758V15.74C73.4878 16.184 73.0738 16.526 72.5338 16.766C72.0058 16.994 71.3758 17.108 70.6438 17.108C69.5758 17.108 68.7178 16.85 68.0698 16.334C67.4338 15.818 67.1158 15.14 67.1158 14.3C67.1158 13.46 67.4218 12.788 68.0338 12.284C68.6458 11.768 69.6178 11.51 70.9498 11.51H73.6858V11.168C73.6858 10.424 73.4698 9.854 73.0378 9.458C72.6058 9.062 71.9698 8.864 71.1298 8.864C70.5658 8.864 70.0138 8.96 69.4738 9.152C68.9338 9.332 68.4778 9.578 68.1058 9.89L67.3858 8.594C67.8778 8.198 68.4658 7.898 69.1498 7.694C69.8338 7.478 70.5598 7.37 71.3278 7.37ZM70.9318 15.776C71.5918 15.776 72.1618 15.632 72.6418 15.344C73.1218 15.044 73.4698 14.624 73.6858 14.084V12.752H71.0218C69.5578 12.752 68.8258 13.244 68.8258 14.228C68.8258 14.708 69.0118 15.086 69.3838 15.362C69.7558 15.638 70.2718 15.776 70.9318 15.776ZM83.7056 7.37C84.9176 7.37 85.8776 7.724 86.5856 8.432C87.3056 9.128 87.6656 10.154 87.6656 11.51V17H85.9376V11.708C85.9376 10.784 85.7156 10.088 85.2716 9.62C84.8276 9.152 84.1916 8.918 83.3636 8.918C82.4276 8.918 81.6896 9.194 81.1496 9.746C80.6096 10.286 80.3396 11.066 80.3396 12.086V17H78.6116V7.46H80.2676V8.9C80.6156 8.408 81.0836 8.03 81.6716 7.766C82.2716 7.502 82.9496 7.37 83.7056 7.37ZM99.1298 7.46L94.5038 17.954C94.0958 18.926 93.6158 19.61 93.0638 20.006C92.5238 20.402 91.8698 20.6 91.1018 20.6C90.6338 20.6 90.1778 20.522 89.7338 20.366C89.3018 20.222 88.9418 20.006 88.6538 19.718L89.3918 18.422C89.8838 18.89 90.4538 19.124 91.1018 19.124C91.5218 19.124 91.8698 19.01 92.1458 18.782C92.4338 18.566 92.6918 18.188 92.9198 17.648L93.2258 16.982L89.0138 7.46H90.8138L94.1438 15.092L97.4378 7.46H99.1298ZM114.018 7.46L109.842 17H108.078L103.902 7.46H105.702L108.978 15.11L112.326 7.46H114.018ZM123.989 12.284C123.989 12.416 123.977 12.59 123.953 12.806H116.213C116.321 13.646 116.687 14.324 117.311 14.84C117.947 15.344 118.733 15.596 119.669 15.596C120.809 15.596 121.727 15.212 122.423 14.444L123.377 15.56C122.945 16.064 122.405 16.448 121.757 16.712C121.121 16.976 120.407 17.108 119.615 17.108C118.607 17.108 117.713 16.904 116.933 16.496C116.153 16.076 115.547 15.494 115.115 14.75C114.695 14.006 114.485 13.166 114.485 12.23C114.485 11.306 114.689 10.472 115.097 9.728C115.517 8.984 116.087 8.408 116.807 8C117.539 7.58 118.361 7.37 119.273 7.37C120.185 7.37 120.995 7.58 121.703 8C122.423 8.408 122.981 8.984 123.377 9.728C123.785 10.472 123.989 11.324 123.989 12.284ZM119.273 8.828C118.445 8.828 117.749 9.08 117.185 9.584C116.633 10.088 116.309 10.748 116.213 11.564H122.333C122.237 10.76 121.907 10.106 121.343 9.602C120.791 9.086 120.101 8.828 119.273 8.828ZM135.515 7.46V15.704C135.515 17.372 135.101 18.602 134.273 19.394C133.445 20.198 132.209 20.6 130.565 20.6C129.665 20.6 128.807 20.474 127.991 20.222C127.175 19.982 126.515 19.634 126.011 19.178L126.839 17.846C127.283 18.23 127.829 18.53 128.477 18.746C129.137 18.974 129.815 19.088 130.511 19.088C131.627 19.088 132.449 18.824 132.977 18.296C133.517 17.768 133.787 16.964 133.787 15.884V15.128C133.379 15.62 132.875 15.992 132.275 16.244C131.687 16.484 131.045 16.604 130.349 16.604C129.437 16.604 128.609 16.412 127.865 16.028C127.133 15.632 126.557 15.086 126.137 14.39C125.717 13.682 125.507 12.878 125.507 11.978C125.507 11.078 125.717 10.28 126.137 9.584C126.557 8.876 127.133 8.33 127.865 7.946C128.609 7.562 129.437 7.37 130.349 7.37C131.069 7.37 131.735 7.502 132.347 7.766C132.971 8.03 133.481 8.42 133.877 8.936V7.46H135.515ZM130.547 15.092C131.171 15.092 131.729 14.96 132.221 14.696C132.725 14.432 133.115 14.066 133.391 13.598C133.679 13.118 133.823 12.578 133.823 11.978C133.823 11.054 133.517 10.31 132.905 9.746C132.293 9.17 131.507 8.882 130.547 8.882C129.575 8.882 128.783 9.17 128.171 9.746C127.559 10.31 127.253 11.054 127.253 11.978C127.253 12.578 127.391 13.118 127.667 13.598C127.955 14.066 128.345 14.432 128.837 14.696C129.341 14.96 129.911 15.092 130.547 15.092ZM147.439 12.284C147.439 12.416 147.427 12.59 147.403 12.806H139.663C139.771 13.646 140.137 14.324 140.761 14.84C141.397 15.344 142.183 15.596 143.119 15.596C144.259 15.596 145.177 15.212 145.873 14.444L146.827 15.56C146.395 16.064 145.855 16.448 145.207 16.712C144.571 16.976 143.857 17.108 143.065 17.108C142.057 17.108 141.163 16.904 140.383 16.496C139.603 16.076 138.997 15.494 138.565 14.75C138.145 14.006 137.935 13.166 137.935 12.23C137.935 11.306 138.139 10.472 138.547 9.728C138.967 8.984 139.537 8.408 140.257 8C140.989 7.58 141.811 7.37 142.723 7.37C143.635 7.37 144.445 7.58 145.153 8C145.873 8.408 146.431 8.984 146.827 9.728C147.235 10.472 147.439 11.324 147.439 12.284ZM142.723 8.828C141.895 8.828 141.199 9.08 140.635 9.584C140.083 10.088 139.759 10.748 139.663 11.564H145.783C145.687 10.76 145.357 10.106 144.793 9.602C144.241 9.086 143.551 8.828 142.723 8.828ZM155.202 16.442C154.95 16.658 154.638 16.826 154.266 16.946C153.894 17.054 153.51 17.108 153.114 17.108C152.154 17.108 151.41 16.85 150.882 16.334C150.354 15.818 150.09 15.08 150.09 14.12V8.882H148.47V7.46H150.09V5.372H151.818V7.46H154.554V8.882H151.818V14.048C151.818 14.564 151.944 14.96 152.196 15.236C152.46 15.512 152.832 15.65 153.312 15.65C153.84 15.65 154.29 15.5 154.662 15.2L155.202 16.442ZM160.765 7.37C162.085 7.37 163.093 7.694 163.789 8.342C164.497 8.99 164.851 9.956 164.851 11.24V17H163.213V15.74C162.925 16.184 162.511 16.526 161.971 16.766C161.443 16.994 160.813 17.108 160.081 17.108C159.013 17.108 158.155 16.85 157.507 16.334C156.871 15.818 156.553 15.14 156.553 14.3C156.553 13.46 156.859 12.788 157.471 12.284C158.083 11.768 159.055 11.51 160.387 11.51H163.123V11.168C163.123 10.424 162.907 9.854 162.475 9.458C162.043 9.062 161.407 8.864 160.567 8.864C160.003 8.864 159.451 8.96 158.911 9.152C158.371 9.332 157.915 9.578 157.543 9.89L156.823 8.594C157.315 8.198 157.903 7.898 158.587 7.694C159.271 7.478 159.997 7.37 160.765 7.37ZM160.369 15.776C161.029 15.776 161.599 15.632 162.079 15.344C162.559 15.044 162.907 14.624 163.123 14.084V12.752H160.459C158.995 12.752 158.263 13.244 158.263 14.228C158.263 14.708 158.449 15.086 158.821 15.362C159.193 15.638 159.709 15.776 160.369 15.776ZM173.107 7.37C174.031 7.37 174.859 7.574 175.591 7.982C176.323 8.39 176.893 8.96 177.301 9.692C177.721 10.424 177.931 11.27 177.931 12.23C177.931 13.19 177.721 14.042 177.301 14.786C176.893 15.518 176.323 16.088 175.591 16.496C174.859 16.904 174.031 17.108 173.107 17.108C172.399 17.108 171.751 16.97 171.163 16.694C170.575 16.418 170.089 16.016 169.705 15.488V17H168.049V3.644H169.777V8.9C170.161 8.396 170.641 8.018 171.217 7.766C171.793 7.502 172.423 7.37 173.107 7.37ZM172.963 15.596C173.575 15.596 174.121 15.458 174.601 15.182C175.093 14.894 175.477 14.498 175.753 13.994C176.041 13.478 176.185 12.89 176.185 12.23C176.185 11.57 176.041 10.988 175.753 10.484C175.477 9.968 175.093 9.572 174.601 9.296C174.121 9.02 173.575 8.882 172.963 8.882C172.363 8.882 171.817 9.02 171.325 9.296C170.833 9.572 170.449 9.968 170.173 10.484C169.897 10.988 169.759 11.57 169.759 12.23C169.759 12.89 169.897 13.478 170.173 13.994C170.449 14.498 170.833 14.894 171.325 15.182C171.817 15.458 172.363 15.596 172.963 15.596ZM180.319 3.644H182.047V17H180.319V3.644ZM193.968 12.284C193.968 12.416 193.956 12.59 193.932 12.806H186.192C186.3 13.646 186.666 14.324 187.29 14.84C187.926 15.344 188.712 15.596 189.648 15.596C190.788 15.596 191.706 15.212 192.402 14.444L193.356 15.56C192.924 16.064 192.384 16.448 191.736 16.712C191.1 16.976 190.386 17.108 189.594 17.108C188.586 17.108 187.692 16.904 186.912 16.496C186.132 16.076 185.526 15.494 185.094 14.75C184.674 14.006 184.464 13.166 184.464 12.23C184.464 11.306 184.668 10.472 185.076 9.728C185.496 8.984 186.066 8.408 186.786 8C187.518 7.58 188.34 7.37 189.252 7.37C190.164 7.37 190.974 7.58 191.682 8C192.402 8.408 192.96 8.984 193.356 9.728C193.764 10.472 193.968 11.324 193.968 12.284ZM189.252 8.828C188.424 8.828 187.728 9.08 187.164 9.584C186.612 10.088 186.288 10.748 186.192 11.564H192.312C192.216 10.76 191.886 10.106 191.322 9.602C190.77 9.086 190.08 8.828 189.252 8.828ZM199.103 17.108C198.323 17.108 197.573 17.006 196.853 16.802C196.133 16.586 195.569 16.316 195.161 15.992L195.881 14.624C196.301 14.924 196.811 15.164 197.411 15.344C198.011 15.524 198.617 15.614 199.229 15.614C200.741 15.614 201.497 15.182 201.497 14.318C201.497 14.03 201.395 13.802 201.191 13.634C200.987 13.466 200.729 13.346 200.417 13.274C200.117 13.19 199.685 13.1 199.121 13.004C198.353 12.884 197.723 12.746 197.231 12.59C196.751 12.434 196.337 12.17 195.989 11.798C195.641 11.426 195.467 10.904 195.467 10.232C195.467 9.368 195.827 8.678 196.547 8.162C197.267 7.634 198.233 7.37 199.445 7.37C200.081 7.37 200.717 7.448 201.353 7.604C201.989 7.76 202.511 7.97 202.919 8.234L202.181 9.602C201.401 9.098 200.483 8.846 199.427 8.846C198.695 8.846 198.137 8.966 197.753 9.206C197.369 9.446 197.177 9.764 197.177 10.16C197.177 10.472 197.285 10.718 197.501 10.898C197.717 11.078 197.981 11.21 198.293 11.294C198.617 11.378 199.067 11.474 199.643 11.582C200.411 11.714 201.029 11.858 201.497 12.014C201.977 12.158 202.385 12.41 202.721 12.77C203.057 13.13 203.225 13.634 203.225 14.282C203.225 15.146 202.853 15.836 202.109 16.352C201.377 16.856 200.375 17.108 199.103 17.108ZM219.219 3.644V17H217.563V15.488C217.179 16.016 216.693 16.418 216.105 16.694C215.517 16.97 214.869 17.108 214.161 17.108C213.237 17.108 212.409 16.904 211.677 16.496C210.945 16.088 210.369 15.518 209.949 14.786C209.541 14.042 209.337 13.19 209.337 12.23C209.337 11.27 209.541 10.424 209.949 9.692C210.369 8.96 210.945 8.39 211.677 7.982C212.409 7.574 213.237 7.37 214.161 7.37C214.845 7.37 215.475 7.502 216.051 7.766C216.627 8.018 217.107 8.396 217.491 8.9V3.644H219.219ZM214.305 15.596C214.905 15.596 215.451 15.458 215.943 15.182C216.435 14.894 216.819 14.498 217.095 13.994C217.371 13.478 217.509 12.89 217.509 12.23C217.509 11.57 217.371 10.988 217.095 10.484C216.819 9.968 216.435 9.572 215.943 9.296C215.451 9.02 214.905 8.882 214.305 8.882C213.693 8.882 213.141 9.02 212.649 9.296C212.169 9.572 211.785 9.968 211.497 10.484C211.221 10.988 211.083 11.57 211.083 12.23C211.083 12.89 211.221 13.478 211.497 13.994C211.785 14.498 212.169 14.894 212.649 15.182C213.141 15.458 213.693 15.596 214.305 15.596ZM226.575 17.108C225.627 17.108 224.775 16.898 224.019 16.478C223.263 16.058 222.669 15.482 222.237 14.75C221.817 14.006 221.607 13.166 221.607 12.23C221.607 11.294 221.817 10.46 222.237 9.728C222.669 8.984 223.263 8.408 224.019 8C224.775 7.58 225.627 7.37 226.575 7.37C227.523 7.37 228.369 7.58 229.113 8C229.869 8.408 230.457 8.984 230.877 9.728C231.309 10.46 231.525 11.294 231.525 12.23C231.525 13.166 231.309 14.006 230.877 14.75C230.457 15.482 229.869 16.058 229.113 16.478C228.369 16.898 227.523 17.108 226.575 17.108ZM226.575 15.596C227.187 15.596 227.733 15.458 228.213 15.182C228.705 14.894 229.089 14.498 229.365 13.994C229.641 13.478 229.779 12.89 229.779 12.23C229.779 11.57 229.641 10.988 229.365 10.484C229.089 9.968 228.705 9.572 228.213 9.296C227.733 9.02 227.187 8.882 226.575 8.882C225.963 8.882 225.411 9.02 224.919 9.296C224.439 9.572 224.055 9.968 223.767 10.484C223.491 10.988 223.353 11.57 223.353 12.23C223.353 12.89 223.491 13.478 223.767 13.994C224.055 14.498 224.439 14.894 224.919 15.182C225.411 15.458 225.963 15.596 226.575 15.596ZM242.536 12.284C242.536 12.416 242.524 12.59 242.5 12.806H234.76C234.868 13.646 235.234 14.324 235.858 14.84C236.494 15.344 237.28 15.596 238.216 15.596C239.356 15.596 240.274 15.212 240.97 14.444L241.924 15.56C241.492 16.064 240.952 16.448 240.304 16.712C239.668 16.976 238.954 17.108 238.162 17.108C237.154 17.108 236.26 16.904 235.48 16.496C234.7 16.076 234.094 15.494 233.662 14.75C233.242 14.006 233.032 13.166 233.032 12.23C233.032 11.306 233.236 10.472 233.644 9.728C234.064 8.984 234.634 8.408 235.354 8C236.086 7.58 236.908 7.37 237.82 7.37C238.732 7.37 239.542 7.58 240.25 8C240.97 8.408 241.528 8.984 241.924 9.728C242.332 10.472 242.536 11.324 242.536 12.284ZM237.82 8.828C236.992 8.828 236.296 9.08 235.732 9.584C235.18 10.088 234.856 10.748 234.76 11.564H240.88C240.784 10.76 240.454 10.106 239.89 9.602C239.338 9.086 238.648 8.828 237.82 8.828ZM247.672 17.108C246.892 17.108 246.142 17.006 245.422 16.802C244.702 16.586 244.138 16.316 243.73 15.992L244.45 14.624C244.87 14.924 245.38 15.164 245.98 15.344C246.58 15.524 247.186 15.614 247.798 15.614C249.31 15.614 250.066 15.182 250.066 14.318C250.066 14.03 249.964 13.802 249.76 13.634C249.556 13.466 249.298 13.346 248.986 13.274C248.686 13.19 248.254 13.1 247.69 13.004C246.922 12.884 246.292 12.746 245.8 12.59C245.32 12.434 244.906 12.17 244.558 11.798C244.21 11.426 244.036 10.904 244.036 10.232C244.036 9.368 244.396 8.678 245.116 8.162C245.836 7.634 246.802 7.37 248.014 7.37C248.65 7.37 249.286 7.448 249.922 7.604C250.558 7.76 251.08 7.97 251.488 8.234L250.75 9.602C249.97 9.098 249.052 8.846 247.996 8.846C247.264 8.846 246.706 8.966 246.322 9.206C245.938 9.446 245.746 9.764 245.746 10.16C245.746 10.472 245.854 10.718 246.07 10.898C246.286 11.078 246.55 11.21 246.862 11.294C247.186 11.378 247.636 11.474 248.212 11.582C248.98 11.714 249.598 11.858 250.066 12.014C250.546 12.158 250.954 12.41 251.29 12.77C251.626 13.13 251.794 13.634 251.794 14.282C251.794 15.146 251.422 15.836 250.678 16.352C249.946 16.856 248.944 17.108 247.672 17.108ZM261.523 17.108C260.743 17.108 259.993 17.006 259.273 16.802C258.553 16.586 257.989 16.316 257.581 15.992L258.301 14.624C258.721 14.924 259.231 15.164 259.831 15.344C260.431 15.524 261.037 15.614 261.649 15.614C263.161 15.614 263.917 15.182 263.917 14.318C263.917 14.03 263.815 13.802 263.611 13.634C263.407 13.466 263.149 13.346 262.837 13.274C262.537 13.19 262.105 13.1 261.541 13.004C260.773 12.884 260.143 12.746 259.651 12.59C259.171 12.434 258.757 12.17 258.409 11.798C258.061 11.426 257.887 10.904 257.887 10.232C257.887 9.368 258.247 8.678 258.967 8.162C259.687 7.634 260.653 7.37 261.865 7.37C262.501 7.37 263.137 7.448 263.773 7.604C264.409 7.76 264.931 7.97 265.339 8.234L264.601 9.602C263.821 9.098 262.903 8.846 261.847 8.846C261.115 8.846 260.557 8.966 260.173 9.206C259.789 9.446 259.597 9.764 259.597 10.16C259.597 10.472 259.705 10.718 259.921 10.898C260.137 11.078 260.401 11.21 260.713 11.294C261.037 11.378 261.487 11.474 262.063 11.582C262.831 11.714 263.449 11.858 263.917 12.014C264.397 12.158 264.805 12.41 265.141 12.77C265.477 13.13 265.645 13.634 265.645 14.282C265.645 15.146 265.273 15.836 264.529 16.352C263.797 16.856 262.795 17.108 261.523 17.108ZM272.899 7.37C274.111 7.37 275.071 7.724 275.779 8.432C276.499 9.128 276.859 10.154 276.859 11.51V17H275.131V11.708C275.131 10.784 274.909 10.088 274.465 9.62C274.021 9.152 273.385 8.918 272.557 8.918C271.621 8.918 270.883 9.194 270.343 9.746C269.803 10.286 269.533 11.066 269.533 12.086V17H267.805V3.644H269.533V8.81C269.893 8.354 270.361 8 270.937 7.748C271.525 7.496 272.179 7.37 272.899 7.37ZM288.732 12.284C288.732 12.416 288.72 12.59 288.696 12.806H280.956C281.064 13.646 281.43 14.324 282.054 14.84C282.69 15.344 283.476 15.596 284.412 15.596C285.552 15.596 286.47 15.212 287.166 14.444L288.12 15.56C287.688 16.064 287.148 16.448 286.5 16.712C285.864 16.976 285.15 17.108 284.358 17.108C283.35 17.108 282.456 16.904 281.676 16.496C280.896 16.076 280.29 15.494 279.858 14.75C279.438 14.006 279.228 13.166 279.228 12.23C279.228 11.306 279.432 10.472 279.84 9.728C280.26 8.984 280.83 8.408 281.55 8C282.282 7.58 283.104 7.37 284.016 7.37C284.928 7.37 285.738 7.58 286.446 8C287.166 8.408 287.724 8.984 288.12 9.728C288.528 10.472 288.732 11.324 288.732 12.284ZM284.016 8.828C283.188 8.828 282.492 9.08 281.928 9.584C281.376 10.088 281.052 10.748 280.956 11.564H287.076C286.98 10.76 286.65 10.106 286.086 9.602C285.534 9.086 284.844 8.828 284.016 8.828ZM301.059 7.37C302.271 7.37 303.231 7.724 303.939 8.432C304.659 9.128 305.019 10.154 305.019 11.51V17H303.291V11.708C303.291 10.784 303.069 10.088 302.625 9.62C302.181 9.152 301.545 8.918 300.717 8.918C299.781 8.918 299.043 9.194 298.503 9.746C297.963 10.286 297.693 11.066 297.693 12.086V17H295.965V7.46H297.621V8.9C297.969 8.408 298.437 8.03 299.025 7.766C299.625 7.502 300.303 7.37 301.059 7.37ZM316.892 12.284C316.892 12.416 316.88 12.59 316.856 12.806H309.116C309.224 13.646 309.59 14.324 310.214 14.84C310.85 15.344 311.636 15.596 312.572 15.596C313.712 15.596 314.63 15.212 315.326 14.444L316.28 15.56C315.848 16.064 315.308 16.448 314.66 16.712C314.024 16.976 313.31 17.108 312.518 17.108C311.51 17.108 310.616 16.904 309.836 16.496C309.056 16.076 308.45 15.494 308.018 14.75C307.598 14.006 307.388 13.166 307.388 12.23C307.388 11.306 307.592 10.472 308 9.728C308.42 8.984 308.99 8.408 309.71 8C310.442 7.58 311.264 7.37 312.176 7.37C313.088 7.37 313.898 7.58 314.606 8C315.326 8.408 315.884 8.984 316.28 9.728C316.688 10.472 316.892 11.324 316.892 12.284ZM312.176 8.828C311.348 8.828 310.652 9.08 310.088 9.584C309.536 10.088 309.212 10.748 309.116 11.564H315.236C315.14 10.76 314.81 10.106 314.246 9.602C313.694 9.086 313.004 8.828 312.176 8.828ZM327.913 12.284C327.913 12.416 327.901 12.59 327.877 12.806H320.137C320.245 13.646 320.611 14.324 321.235 14.84C321.871 15.344 322.657 15.596 323.593 15.596C324.733 15.596 325.651 15.212 326.347 14.444L327.301 15.56C326.869 16.064 326.329 16.448 325.681 16.712C325.045 16.976 324.331 17.108 323.539 17.108C322.531 17.108 321.637 16.904 320.857 16.496C320.077 16.076 319.471 15.494 319.039 14.75C318.619 14.006 318.409 13.166 318.409 12.23C318.409 11.306 318.613 10.472 319.021 9.728C319.441 8.984 320.011 8.408 320.731 8C321.463 7.58 322.285 7.37 323.197 7.37C324.109 7.37 324.919 7.58 325.627 8C326.347 8.408 326.905 8.984 327.301 9.728C327.709 10.472 327.913 11.324 327.913 12.284ZM323.197 8.828C322.369 8.828 321.673 9.08 321.109 9.584C320.557 10.088 320.233 10.748 320.137 11.564H326.257C326.161 10.76 325.831 10.106 325.267 9.602C324.715 9.086 324.025 8.828 323.197 8.828ZM339.313 3.644V17H337.657V15.488C337.273 16.016 336.787 16.418 336.199 16.694C335.611 16.97 334.963 17.108 334.255 17.108C333.331 17.108 332.503 16.904 331.771 16.496C331.039 16.088 330.463 15.518 330.043 14.786C329.635 14.042 329.431 13.19 329.431 12.23C329.431 11.27 329.635 10.424 330.043 9.692C330.463 8.96 331.039 8.39 331.771 7.982C332.503 7.574 333.331 7.37 334.255 7.37C334.939 7.37 335.569 7.502 336.145 7.766C336.721 8.018 337.201 8.396 337.585 8.9V3.644H339.313ZM334.399 15.596C334.999 15.596 335.545 15.458 336.037 15.182C336.529 14.894 336.913 14.498 337.189 13.994C337.465 13.478 337.603 12.89 337.603 12.23C337.603 11.57 337.465 10.988 337.189 10.484C336.913 9.968 336.529 9.572 336.037 9.296C335.545 9.02 334.999 8.882 334.399 8.882C333.787 8.882 333.235 9.02 332.743 9.296C332.263 9.572 331.879 9.968 331.591 10.484C331.315 10.988 331.177 11.57 331.177 12.23C331.177 12.89 331.315 13.478 331.591 13.994C331.879 14.498 332.263 14.894 332.743 15.182C333.235 15.458 333.787 15.596 334.399 15.596ZM352.78 16.442C352.528 16.658 352.216 16.826 351.844 16.946C351.472 17.054 351.088 17.108 350.692 17.108C349.732 17.108 348.988 16.85 348.46 16.334C347.932 15.818 347.668 15.08 347.668 14.12V8.882H346.048V7.46H347.668V5.372H349.396V7.46H352.132V8.882H349.396V14.048C349.396 14.564 349.522 14.96 349.774 15.236C350.038 15.512 350.41 15.65 350.89 15.65C351.418 15.65 351.868 15.5 352.24 15.2L352.78 16.442ZM358.639 17.108C357.691 17.108 356.839 16.898 356.083 16.478C355.327 16.058 354.733 15.482 354.301 14.75C353.881 14.006 353.671 13.166 353.671 12.23C353.671 11.294 353.881 10.46 354.301 9.728C354.733 8.984 355.327 8.408 356.083 8C356.839 7.58 357.691 7.37 358.639 7.37C359.587 7.37 360.433 7.58 361.177 8C361.933 8.408 362.521 8.984 362.941 9.728C363.373 10.46 363.589 11.294 363.589 12.23C363.589 13.166 363.373 14.006 362.941 14.75C362.521 15.482 361.933 16.058 361.177 16.478C360.433 16.898 359.587 17.108 358.639 17.108ZM358.639 15.596C359.251 15.596 359.797 15.458 360.277 15.182C360.769 14.894 361.153 14.498 361.429 13.994C361.705 13.478 361.843 12.89 361.843 12.23C361.843 11.57 361.705 10.988 361.429 10.484C361.153 9.968 360.769 9.572 360.277 9.296C359.797 9.02 359.251 8.882 358.639 8.882C358.027 8.882 357.475 9.02 356.983 9.296C356.503 9.572 356.119 9.968 355.831 10.484C355.555 10.988 355.417 11.57 355.417 12.23C355.417 12.89 355.555 13.478 355.831 13.994C356.119 14.498 356.503 14.894 356.983 15.182C357.475 15.458 358.027 15.596 358.639 15.596ZM375.871 7.37C376.795 7.37 377.623 7.574 378.355 7.982C379.087 8.39 379.657 8.96 380.065 9.692C380.485 10.424 380.695 11.27 380.695 12.23C380.695 13.19 380.485 14.042 380.065 14.786C379.657 15.518 379.087 16.088 378.355 16.496C377.623 16.904 376.795 17.108 375.871 17.108C375.163 17.108 374.515 16.97 373.927 16.694C373.339 16.418 372.853 16.016 372.469 15.488V17H370.813V3.644H372.541V8.9C372.925 8.396 373.405 8.018 373.981 7.766C374.557 7.502 375.187 7.37 375.871 7.37ZM375.727 15.596C376.339 15.596 376.885 15.458 377.365 15.182C377.857 14.894 378.241 14.498 378.517 13.994C378.805 13.478 378.949 12.89 378.949 12.23C378.949 11.57 378.805 10.988 378.517 10.484C378.241 9.968 377.857 9.572 377.365 9.296C376.885 9.02 376.339 8.882 375.727 8.882C375.127 8.882 374.581 9.02 374.089 9.296C373.597 9.572 373.213 9.968 372.937 10.484C372.661 10.988 372.523 11.57 372.523 12.23C372.523 12.89 372.661 13.478 372.937 13.994C373.213 14.498 373.597 14.894 374.089 15.182C374.581 15.458 375.127 15.596 375.727 15.596ZM391.974 7.46V17H390.336V15.56C389.988 16.052 389.526 16.436 388.95 16.712C388.386 16.976 387.768 17.108 387.096 17.108C385.824 17.108 384.822 16.76 384.09 16.064C383.358 15.356 382.992 14.318 382.992 12.95V7.46H384.72V12.752C384.72 13.676 384.942 14.378 385.386 14.858C385.83 15.326 386.466 15.56 387.294 15.56C388.206 15.56 388.926 15.284 389.454 14.732C389.982 14.18 390.246 13.4 390.246 12.392V7.46H391.974ZM403.706 7.46L399.08 17.954C398.672 18.926 398.192 19.61 397.64 20.006C397.1 20.402 396.446 20.6 395.678 20.6C395.21 20.6 394.754 20.522 394.31 20.366C393.878 20.222 393.518 20.006 393.23 19.718L393.968 18.422C394.46 18.89 395.03 19.124 395.678 19.124C396.098 19.124 396.446 19.01 396.722 18.782C397.01 18.566 397.268 18.188 397.496 17.648L397.802 16.982L393.59 7.46H395.39L398.72 15.092L402.014 7.46H403.706ZM408.382 13.022C408.382 12.542 408.46 12.122 408.616 11.762C408.784 11.39 408.982 11.078 409.21 10.826C409.45 10.574 409.762 10.274 410.146 9.926C410.626 9.506 410.98 9.146 411.208 8.846C411.436 8.534 411.55 8.162 411.55 7.73C411.55 7.142 411.322 6.674 410.866 6.326C410.41 5.966 409.78 5.786 408.976 5.786C407.572 5.786 406.498 6.26 405.754 7.208L404.44 6.272C404.944 5.624 405.586 5.126 406.366 4.778C407.158 4.43 408.07 4.256 409.102 4.256C410.41 4.256 411.448 4.544 412.216 5.12C412.984 5.684 413.368 6.464 413.368 7.46C413.368 7.952 413.284 8.39 413.116 8.774C412.96 9.146 412.768 9.458 412.54 9.71C412.312 9.962 412.006 10.262 411.622 10.61C411.13 11.054 410.764 11.444 410.524 11.78C410.296 12.116 410.182 12.53 410.182 13.022H408.382ZM409.3 17.108C408.964 17.108 408.682 17 408.454 16.784C408.238 16.556 408.13 16.28 408.13 15.956C408.13 15.632 408.238 15.362 408.454 15.146C408.682 14.918 408.964 14.804 409.3 14.804C409.636 14.804 409.912 14.918 410.128 15.146C410.344 15.362 410.452 15.632 410.452 15.956C410.452 16.28 410.338 16.556 410.11 16.784C409.894 17 409.624 17.108 409.3 17.108Z" fill="#2F2F2F"/>
<path d="M423 5C423 2.23858 425.239 0 428 0H458C460.761 0 463 2.23858 463 5V25C463 27.7614 460.761 30 458 30H428C425.239 30 423 27.7614 423 25V5Z" fill="#9DD765"/>
<path d="M439.271 8.4V21H437.489V9.966H434.645V8.4H439.271ZM450.883 19.434V21H441.829V19.776L446.959 14.826C447.583 14.226 448.003 13.71 448.219 13.278C448.435 12.834 448.543 12.39 448.543 11.946C448.543 11.286 448.309 10.776 447.841 10.416C447.385 10.044 446.725 9.858 445.861 9.858C444.469 9.858 443.395 10.314 442.639 11.226L441.415 10.164C441.907 9.564 442.549 9.096 443.341 8.76C444.145 8.424 445.039 8.256 446.023 8.256C447.343 8.256 448.393 8.574 449.173 9.21C449.953 9.834 450.343 10.686 450.343 11.766C450.343 12.438 450.199 13.074 449.911 13.674C449.623 14.274 449.077 14.958 448.273 15.726L444.421 19.434H450.883Z" fill="#065B5B"/>
<path d="M12.7299 44.4V57H10.9299V51.384H3.69391V57H1.89391V44.4H3.69391V49.818H10.9299V44.4H12.7299ZM20.3353 57.108C19.3873 57.108 18.5353 56.898 17.7793 56.478C17.0233 56.058 16.4293 55.482 15.9973 54.75C15.5773 54.006 15.3673 53.166 15.3673 52.23C15.3673 51.294 15.5773 50.46 15.9973 49.728C16.4293 48.984 17.0233 48.408 17.7793 48C18.5353 47.58 19.3873 47.37 20.3353 47.37C21.2833 47.37 22.1293 47.58 22.8733 48C23.6293 48.408 24.2173 48.984 24.6373 49.728C25.0693 50.46 25.2853 51.294 25.2853 52.23C25.2853 53.166 25.0693 54.006 24.6373 54.75C24.2173 55.482 23.6293 56.058 22.8733 56.478C22.1293 56.898 21.2833 57.108 20.3353 57.108ZM20.3353 55.596C20.9473 55.596 21.4933 55.458 21.9733 55.182C22.4653 54.894 22.8493 54.498 23.1253 53.994C23.4013 53.478 23.5393 52.89 23.5393 52.23C23.5393 51.57 23.4013 50.988 23.1253 50.484C22.8493 49.968 22.4653 49.572 21.9733 49.296C21.4933 49.02 20.9473 48.882 20.3353 48.882C19.7233 48.882 19.1713 49.02 18.6793 49.296C18.1993 49.572 17.8153 49.968 17.5273 50.484C17.2513 50.988 17.1133 51.57 17.1133 52.23C17.1133 52.89 17.2513 53.478 17.5273 53.994C17.8153 54.498 18.1993 54.894 18.6793 55.182C19.1713 55.458 19.7233 55.596 20.3353 55.596ZM41.8474 47.46L38.2834 57H36.6274L33.8734 49.764L31.0834 57H29.4274L25.8814 47.46H27.5194L30.2914 55.056L33.1714 47.46H34.6294L37.4554 55.092L40.2994 47.46H41.8474ZM60.3689 47.37C61.5689 47.37 62.5169 47.718 63.2129 48.414C63.9209 49.11 64.2749 50.142 64.2749 51.51V57H62.5469V51.708C62.5469 50.784 62.3309 50.088 61.8989 49.62C61.4789 49.152 60.8729 48.918 60.0809 48.918C59.2049 48.918 58.5089 49.194 57.9929 49.746C57.4769 50.286 57.2189 51.066 57.2189 52.086V57H55.4909V51.708C55.4909 50.784 55.2749 50.088 54.8429 49.62C54.4229 49.152 53.8169 48.918 53.0249 48.918C52.1489 48.918 51.4529 49.194 50.9369 49.746C50.4209 50.286 50.1629 51.066 50.1629 52.086V57H48.4349V47.46H50.0909V48.882C50.4389 48.39 50.8949 48.018 51.4589 47.766C52.0229 47.502 52.6649 47.37 53.3849 47.37C54.1289 47.37 54.7889 47.52 55.3649 47.82C55.9409 48.12 56.3849 48.558 56.6969 49.134C57.0569 48.582 57.5549 48.15 58.1909 47.838C58.8389 47.526 59.5649 47.37 60.3689 47.37ZM70.9284 47.37C72.2484 47.37 73.2564 47.694 73.9524 48.342C74.6604 48.99 75.0144 49.956 75.0144 51.24V57H73.3764V55.74C73.0884 56.184 72.6744 56.526 72.1344 56.766C71.6064 56.994 70.9764 57.108 70.2444 57.108C69.1764 57.108 68.3184 56.85 67.6704 56.334C67.0344 55.818 66.7164 55.14 66.7164 54.3C66.7164 53.46 67.0224 52.788 67.6344 52.284C68.2464 51.768 69.2184 51.51 70.5504 51.51H73.2864V51.168C73.2864 50.424 73.0704 49.854 72.6384 49.458C72.2064 49.062 71.5704 48.864 70.7304 48.864C70.1664 48.864 69.6144 48.96 69.0744 49.152C68.5344 49.332 68.0784 49.578 67.7064 49.89L66.9864 48.594C67.4784 48.198 68.0664 47.898 68.7504 47.694C69.4344 47.478 70.1604 47.37 70.9284 47.37ZM70.5324 55.776C71.1924 55.776 71.7624 55.632 72.2424 55.344C72.7224 55.044 73.0704 54.624 73.2864 54.084V52.752H70.6224C69.1584 52.752 68.4264 53.244 68.4264 54.228C68.4264 54.708 68.6124 55.086 68.9844 55.362C69.3564 55.638 69.8724 55.776 70.5324 55.776ZM83.3062 47.37C84.5182 47.37 85.4782 47.724 86.1862 48.432C86.9062 49.128 87.2662 50.154 87.2662 51.51V57H85.5382V51.708C85.5382 50.784 85.3162 50.088 84.8722 49.62C84.4282 49.152 83.7922 48.918 82.9642 48.918C82.0282 48.918 81.2902 49.194 80.7502 49.746C80.2102 50.286 79.9402 51.066 79.9402 52.086V57H78.2122V47.46H79.8682V48.9C80.2162 48.408 80.6842 48.03 81.2722 47.766C81.8722 47.502 82.5502 47.37 83.3062 47.37ZM98.7304 47.46L94.1044 57.954C93.6964 58.926 93.2164 59.61 92.6644 60.006C92.1244 60.402 91.4704 60.6 90.7024 60.6C90.2344 60.6 89.7784 60.522 89.3344 60.366C88.9024 60.222 88.5424 60.006 88.2544 59.718L88.9924 58.422C89.4844 58.89 90.0544 59.124 90.7024 59.124C91.1224 59.124 91.4704 59.01 91.7464 58.782C92.0344 58.566 92.2924 58.188 92.5204 57.648L92.8264 56.982L88.6144 47.46H90.4144L93.7444 55.092L97.0384 47.46H98.7304ZM110.541 56.442C110.289 56.658 109.977 56.826 109.605 56.946C109.233 57.054 108.849 57.108 108.453 57.108C107.493 57.108 106.749 56.85 106.221 56.334C105.693 55.818 105.429 55.08 105.429 54.12V48.882H103.809V47.46H105.429V45.372H107.157V47.46H109.893V48.882H107.157V54.048C107.157 54.564 107.283 54.96 107.535 55.236C107.799 55.512 108.171 55.65 108.651 55.65C109.179 55.65 109.629 55.5 110.001 55.2L110.541 56.442ZM116.4 57.108C115.452 57.108 114.6 56.898 113.844 56.478C113.088 56.058 112.494 55.482 112.062 54.75C111.642 54.006 111.432 53.166 111.432 52.23C111.432 51.294 111.642 50.46 112.062 49.728C112.494 48.984 113.088 48.408 113.844 48C114.6 47.58 115.452 47.37 116.4 47.37C117.348 47.37 118.194 47.58 118.938 48C119.694 48.408 120.282 48.984 120.702 49.728C121.134 50.46 121.35 51.294 121.35 52.23C121.35 53.166 121.134 54.006 120.702 54.75C120.282 55.482 119.694 56.058 118.938 56.478C118.194 56.898 117.348 57.108 116.4 57.108ZM116.4 55.596C117.012 55.596 117.558 55.458 118.038 55.182C118.53 54.894 118.914 54.498 119.19 53.994C119.466 53.478 119.604 52.89 119.604 52.23C119.604 51.57 119.466 50.988 119.19 50.484C118.914 49.968 118.53 49.572 118.038 49.296C117.558 49.02 117.012 48.882 116.4 48.882C115.788 48.882 115.236 49.02 114.744 49.296C114.264 49.572 113.88 49.968 113.592 50.484C113.316 50.988 113.178 51.57 113.178 52.23C113.178 52.89 113.316 53.478 113.592 53.994C113.88 54.498 114.264 54.894 114.744 55.182C115.236 55.458 115.788 55.596 116.4 55.596ZM135.674 47.37C136.874 47.37 137.822 47.718 138.518 48.414C139.226 49.11 139.58 50.142 139.58 51.51V57H137.852V51.708C137.852 50.784 137.636 50.088 137.204 49.62C136.784 49.152 136.178 48.918 135.386 48.918C134.51 48.918 133.814 49.194 133.298 49.746C132.782 50.286 132.524 51.066 132.524 52.086V57H130.796V51.708C130.796 50.784 130.58 50.088 130.148 49.62C129.728 49.152 129.122 48.918 128.33 48.918C127.454 48.918 126.758 49.194 126.242 49.746C125.726 50.286 125.468 51.066 125.468 52.086V57H123.74V47.46H125.396V48.882C125.744 48.39 126.2 48.018 126.764 47.766C127.328 47.502 127.97 47.37 128.69 47.37C129.434 47.37 130.094 47.52 130.67 47.82C131.246 48.12 131.69 48.558 132.002 49.134C132.362 48.582 132.86 48.15 133.496 47.838C134.144 47.526 134.87 47.37 135.674 47.37ZM146.233 47.37C147.553 47.37 148.561 47.694 149.257 48.342C149.965 48.99 150.319 49.956 150.319 51.24V57H148.681V55.74C148.393 56.184 147.979 56.526 147.439 56.766C146.911 56.994 146.281 57.108 145.549 57.108C144.481 57.108 143.623 56.85 142.975 56.334C142.339 55.818 142.021 55.14 142.021 54.3C142.021 53.46 142.327 52.788 142.939 52.284C143.551 51.768 144.523 51.51 145.855 51.51H148.591V51.168C148.591 50.424 148.375 49.854 147.943 49.458C147.511 49.062 146.875 48.864 146.035 48.864C145.471 48.864 144.919 48.96 144.379 49.152C143.839 49.332 143.383 49.578 143.011 49.89L142.291 48.594C142.783 48.198 143.371 47.898 144.055 47.694C144.739 47.478 145.465 47.37 146.233 47.37ZM145.837 55.776C146.497 55.776 147.067 55.632 147.547 55.344C148.027 55.044 148.375 54.624 148.591 54.084V52.752H145.927C144.463 52.752 143.731 53.244 143.731 54.228C143.731 54.708 143.917 55.086 144.289 55.362C144.661 55.638 145.177 55.776 145.837 55.776ZM158.881 56.442C158.629 56.658 158.317 56.826 157.945 56.946C157.573 57.054 157.189 57.108 156.793 57.108C155.833 57.108 155.089 56.85 154.561 56.334C154.033 55.818 153.769 55.08 153.769 54.12V48.882H152.149V47.46H153.769V45.372H155.497V47.46H158.233V48.882H155.497V54.048C155.497 54.564 155.623 54.96 155.875 55.236C156.139 55.512 156.511 55.65 156.991 55.65C157.519 55.65 157.969 55.5 158.341 55.2L158.881 56.442ZM164.74 57.108C163.792 57.108 162.94 56.898 162.184 56.478C161.428 56.058 160.834 55.482 160.402 54.75C159.982 54.006 159.772 53.166 159.772 52.23C159.772 51.294 159.982 50.46 160.402 49.728C160.834 48.984 161.428 48.408 162.184 48C162.94 47.58 163.792 47.37 164.74 47.37C165.688 47.37 166.534 47.58 167.278 48C168.034 48.408 168.622 48.984 169.042 49.728C169.474 50.46 169.69 51.294 169.69 52.23C169.69 53.166 169.474 54.006 169.042 54.75C168.622 55.482 168.034 56.058 167.278 56.478C166.534 56.898 165.688 57.108 164.74 57.108ZM164.74 55.596C165.352 55.596 165.898 55.458 166.378 55.182C166.87 54.894 167.254 54.498 167.53 53.994C167.806 53.478 167.944 52.89 167.944 52.23C167.944 51.57 167.806 50.988 167.53 50.484C167.254 49.968 166.87 49.572 166.378 49.296C165.898 49.02 165.352 48.882 164.74 48.882C164.128 48.882 163.576 49.02 163.084 49.296C162.604 49.572 162.22 49.968 161.932 50.484C161.656 50.988 161.518 51.57 161.518 52.23C161.518 52.89 161.656 53.478 161.932 53.994C162.22 54.498 162.604 54.894 163.084 55.182C163.576 55.458 164.128 55.596 164.74 55.596ZM180.701 52.284C180.701 52.416 180.689 52.59 180.665 52.806H172.925C173.033 53.646 173.399 54.324 174.023 54.84C174.659 55.344 175.445 55.596 176.381 55.596C177.521 55.596 178.439 55.212 179.135 54.444L180.089 55.56C179.657 56.064 179.117 56.448 178.469 56.712C177.833 56.976 177.119 57.108 176.327 57.108C175.319 57.108 174.425 56.904 173.645 56.496C172.865 56.076 172.259 55.494 171.827 54.75C171.407 54.006 171.197 53.166 171.197 52.23C171.197 51.306 171.401 50.472 171.809 49.728C172.229 48.984 172.799 48.408 173.519 48C174.251 47.58 175.073 47.37 175.985 47.37C176.897 47.37 177.707 47.58 178.415 48C179.135 48.408 179.693 48.984 180.089 49.728C180.497 50.472 180.701 51.324 180.701 52.284ZM175.985 48.828C175.157 48.828 174.461 49.08 173.897 49.584C173.345 50.088 173.021 50.748 172.925 51.564H179.045C178.949 50.76 178.619 50.106 178.055 49.602C177.503 49.086 176.813 48.828 175.985 48.828ZM185.837 57.108C185.057 57.108 184.307 57.006 183.587 56.802C182.867 56.586 182.303 56.316 181.895 55.992L182.615 54.624C183.035 54.924 183.545 55.164 184.145 55.344C184.745 55.524 185.351 55.614 185.963 55.614C187.475 55.614 188.231 55.182 188.231 54.318C188.231 54.03 188.129 53.802 187.925 53.634C187.721 53.466 187.463 53.346 187.151 53.274C186.851 53.19 186.419 53.1 185.855 53.004C185.087 52.884 184.457 52.746 183.965 52.59C183.485 52.434 183.071 52.17 182.723 51.798C182.375 51.426 182.201 50.904 182.201 50.232C182.201 49.368 182.561 48.678 183.281 48.162C184.001 47.634 184.967 47.37 186.179 47.37C186.815 47.37 187.451 47.448 188.087 47.604C188.723 47.76 189.245 47.97 189.653 48.234L188.915 49.602C188.135 49.098 187.217 48.846 186.161 48.846C185.429 48.846 184.871 48.966 184.487 49.206C184.103 49.446 183.911 49.764 183.911 50.16C183.911 50.472 184.019 50.718 184.235 50.898C184.451 51.078 184.715 51.21 185.027 51.294C185.351 51.378 185.801 51.474 186.377 51.582C187.145 51.714 187.763 51.858 188.231 52.014C188.711 52.158 189.119 52.41 189.455 52.77C189.791 53.13 189.959 53.634 189.959 54.282C189.959 55.146 189.587 55.836 188.843 56.352C188.111 56.856 187.109 57.108 185.837 57.108ZM205.952 43.644V57H204.296V55.488C203.912 56.016 203.426 56.418 202.838 56.694C202.25 56.97 201.602 57.108 200.894 57.108C199.97 57.108 199.142 56.904 198.41 56.496C197.678 56.088 197.102 55.518 196.682 54.786C196.274 54.042 196.07 53.19 196.07 52.23C196.07 51.27 196.274 50.424 196.682 49.692C197.102 48.96 197.678 48.39 198.41 47.982C199.142 47.574 199.97 47.37 200.894 47.37C201.578 47.37 202.208 47.502 202.784 47.766C203.36 48.018 203.84 48.396 204.224 48.9V43.644H205.952ZM201.038 55.596C201.638 55.596 202.184 55.458 202.676 55.182C203.168 54.894 203.552 54.498 203.828 53.994C204.104 53.478 204.242 52.89 204.242 52.23C204.242 51.57 204.104 50.988 203.828 50.484C203.552 49.968 203.168 49.572 202.676 49.296C202.184 49.02 201.638 48.882 201.038 48.882C200.426 48.882 199.874 49.02 199.382 49.296C198.902 49.572 198.518 49.968 198.23 50.484C197.954 50.988 197.816 51.57 197.816 52.23C197.816 52.89 197.954 53.478 198.23 53.994C198.518 54.498 198.902 54.894 199.382 55.182C199.874 55.458 200.426 55.596 201.038 55.596ZM213.308 57.108C212.36 57.108 211.508 56.898 210.752 56.478C209.996 56.058 209.402 55.482 208.97 54.75C208.55 54.006 208.34 53.166 208.34 52.23C208.34 51.294 208.55 50.46 208.97 49.728C209.402 48.984 209.996 48.408 210.752 48C211.508 47.58 212.36 47.37 213.308 47.37C214.256 47.37 215.102 47.58 215.846 48C216.602 48.408 217.19 48.984 217.61 49.728C218.042 50.46 218.258 51.294 218.258 52.23C218.258 53.166 218.042 54.006 217.61 54.75C217.19 55.482 216.602 56.058 215.846 56.478C215.102 56.898 214.256 57.108 213.308 57.108ZM213.308 55.596C213.92 55.596 214.466 55.458 214.946 55.182C215.438 54.894 215.822 54.498 216.098 53.994C216.374 53.478 216.512 52.89 216.512 52.23C216.512 51.57 216.374 50.988 216.098 50.484C215.822 49.968 215.438 49.572 214.946 49.296C214.466 49.02 213.92 48.882 213.308 48.882C212.696 48.882 212.144 49.02 211.652 49.296C211.172 49.572 210.788 49.968 210.5 50.484C210.224 50.988 210.086 51.57 210.086 52.23C210.086 52.89 210.224 53.478 210.5 53.994C210.788 54.498 211.172 54.894 211.652 55.182C212.144 55.458 212.696 55.596 213.308 55.596ZM229.27 52.284C229.27 52.416 229.258 52.59 229.234 52.806H221.494C221.602 53.646 221.968 54.324 222.592 54.84C223.228 55.344 224.014 55.596 224.95 55.596C226.09 55.596 227.008 55.212 227.704 54.444L228.658 55.56C228.226 56.064 227.686 56.448 227.038 56.712C226.402 56.976 225.688 57.108 224.896 57.108C223.888 57.108 222.994 56.904 222.214 56.496C221.434 56.076 220.828 55.494 220.396 54.75C219.976 54.006 219.766 53.166 219.766 52.23C219.766 51.306 219.97 50.472 220.378 49.728C220.798 48.984 221.368 48.408 222.088 48C222.82 47.58 223.642 47.37 224.554 47.37C225.466 47.37 226.276 47.58 226.984 48C227.704 48.408 228.262 48.984 228.658 49.728C229.066 50.472 229.27 51.324 229.27 52.284ZM224.554 48.828C223.726 48.828 223.03 49.08 222.466 49.584C221.914 50.088 221.59 50.748 221.494 51.564H227.614C227.518 50.76 227.188 50.106 226.624 49.602C226.072 49.086 225.382 48.828 224.554 48.828ZM234.405 57.108C233.625 57.108 232.875 57.006 232.155 56.802C231.435 56.586 230.871 56.316 230.463 55.992L231.183 54.624C231.603 54.924 232.113 55.164 232.713 55.344C233.313 55.524 233.919 55.614 234.531 55.614C236.043 55.614 236.799 55.182 236.799 54.318C236.799 54.03 236.697 53.802 236.493 53.634C236.289 53.466 236.031 53.346 235.719 53.274C235.419 53.19 234.987 53.1 234.423 53.004C233.655 52.884 233.025 52.746 232.533 52.59C232.053 52.434 231.639 52.17 231.291 51.798C230.943 51.426 230.769 50.904 230.769 50.232C230.769 49.368 231.129 48.678 231.849 48.162C232.569 47.634 233.535 47.37 234.747 47.37C235.383 47.37 236.019 47.448 236.655 47.604C237.291 47.76 237.813 47.97 238.221 48.234L237.483 49.602C236.703 49.098 235.785 48.846 234.729 48.846C233.997 48.846 233.439 48.966 233.055 49.206C232.671 49.446 232.479 49.764 232.479 50.16C232.479 50.472 232.587 50.718 232.803 50.898C233.019 51.078 233.283 51.21 233.595 51.294C233.919 51.378 234.369 51.474 234.945 51.582C235.713 51.714 236.331 51.858 236.799 52.014C237.279 52.158 237.687 52.41 238.023 52.77C238.359 53.13 238.527 53.634 238.527 54.282C238.527 55.146 238.155 55.836 237.411 56.352C236.679 56.856 235.677 57.108 234.405 57.108ZM248.257 57.108C247.477 57.108 246.727 57.006 246.007 56.802C245.287 56.586 244.723 56.316 244.315 55.992L245.035 54.624C245.455 54.924 245.965 55.164 246.565 55.344C247.165 55.524 247.771 55.614 248.383 55.614C249.895 55.614 250.651 55.182 250.651 54.318C250.651 54.03 250.549 53.802 250.345 53.634C250.141 53.466 249.883 53.346 249.571 53.274C249.271 53.19 248.839 53.1 248.275 53.004C247.507 52.884 246.877 52.746 246.385 52.59C245.905 52.434 245.491 52.17 245.143 51.798C244.795 51.426 244.621 50.904 244.621 50.232C244.621 49.368 244.981 48.678 245.701 48.162C246.421 47.634 247.387 47.37 248.599 47.37C249.235 47.37 249.871 47.448 250.507 47.604C251.143 47.76 251.665 47.97 252.073 48.234L251.335 49.602C250.555 49.098 249.637 48.846 248.581 48.846C247.849 48.846 247.291 48.966 246.907 49.206C246.523 49.446 246.331 49.764 246.331 50.16C246.331 50.472 246.439 50.718 246.655 50.898C246.871 51.078 247.135 51.21 247.447 51.294C247.771 51.378 248.221 51.474 248.797 51.582C249.565 51.714 250.183 51.858 250.651 52.014C251.131 52.158 251.539 52.41 251.875 52.77C252.211 53.13 252.379 53.634 252.379 54.282C252.379 55.146 252.007 55.836 251.263 56.352C250.531 56.856 249.529 57.108 248.257 57.108ZM259.632 47.37C260.844 47.37 261.804 47.724 262.512 48.432C263.232 49.128 263.592 50.154 263.592 51.51V57H261.864V51.708C261.864 50.784 261.642 50.088 261.198 49.62C260.754 49.152 260.118 48.918 259.29 48.918C258.354 48.918 257.616 49.194 257.076 49.746C256.536 50.286 256.266 51.066 256.266 52.086V57H254.538V43.644H256.266V48.81C256.626 48.354 257.094 48 257.67 47.748C258.258 47.496 258.912 47.37 259.632 47.37ZM275.465 52.284C275.465 52.416 275.453 52.59 275.429 52.806H267.689C267.797 53.646 268.163 54.324 268.787 54.84C269.423 55.344 270.209 55.596 271.145 55.596C272.285 55.596 273.203 55.212 273.899 54.444L274.853 55.56C274.421 56.064 273.881 56.448 273.233 56.712C272.597 56.976 271.883 57.108 271.091 57.108C270.083 57.108 269.189 56.904 268.409 56.496C267.629 56.076 267.023 55.494 266.591 54.75C266.171 54.006 265.961 53.166 265.961 52.23C265.961 51.306 266.165 50.472 266.573 49.728C266.993 48.984 267.563 48.408 268.283 48C269.015 47.58 269.837 47.37 270.749 47.37C271.661 47.37 272.471 47.58 273.179 48C273.899 48.408 274.457 48.984 274.853 49.728C275.261 50.472 275.465 51.324 275.465 52.284ZM270.749 48.828C269.921 48.828 269.225 49.08 268.661 49.584C268.109 50.088 267.785 50.748 267.689 51.564H273.809C273.713 50.76 273.383 50.106 272.819 49.602C272.267 49.086 271.577 48.828 270.749 48.828ZM287.793 47.37C289.005 47.37 289.965 47.724 290.673 48.432C291.393 49.128 291.753 50.154 291.753 51.51V57H290.025V51.708C290.025 50.784 289.803 50.088 289.359 49.62C288.915 49.152 288.279 48.918 287.451 48.918C286.515 48.918 285.777 49.194 285.237 49.746C284.697 50.286 284.427 51.066 284.427 52.086V57H282.699V47.46H284.355V48.9C284.703 48.408 285.171 48.03 285.759 47.766C286.359 47.502 287.037 47.37 287.793 47.37ZM303.625 52.284C303.625 52.416 303.613 52.59 303.589 52.806H295.849C295.957 53.646 296.323 54.324 296.947 54.84C297.583 55.344 298.369 55.596 299.305 55.596C300.445 55.596 301.363 55.212 302.059 54.444L303.013 55.56C302.581 56.064 302.041 56.448 301.393 56.712C300.757 56.976 300.043 57.108 299.251 57.108C298.243 57.108 297.349 56.904 296.569 56.496C295.789 56.076 295.183 55.494 294.751 54.75C294.331 54.006 294.121 53.166 294.121 52.23C294.121 51.306 294.325 50.472 294.733 49.728C295.153 48.984 295.723 48.408 296.443 48C297.175 47.58 297.997 47.37 298.909 47.37C299.821 47.37 300.631 47.58 301.339 48C302.059 48.408 302.617 48.984 303.013 49.728C303.421 50.472 303.625 51.324 303.625 52.284ZM298.909 48.828C298.081 48.828 297.385 49.08 296.821 49.584C296.269 50.088 295.945 50.748 295.849 51.564H301.969C301.873 50.76 301.543 50.106 300.979 49.602C300.427 49.086 299.737 48.828 298.909 48.828ZM314.647 52.284C314.647 52.416 314.635 52.59 314.611 52.806H306.871C306.979 53.646 307.345 54.324 307.969 54.84C308.605 55.344 309.391 55.596 310.327 55.596C311.467 55.596 312.385 55.212 313.081 54.444L314.035 55.56C313.603 56.064 313.063 56.448 312.415 56.712C311.779 56.976 311.065 57.108 310.273 57.108C309.265 57.108 308.371 56.904 307.591 56.496C306.811 56.076 306.205 55.494 305.773 54.75C305.353 54.006 305.143 53.166 305.143 52.23C305.143 51.306 305.347 50.472 305.755 49.728C306.175 48.984 306.745 48.408 307.465 48C308.197 47.58 309.019 47.37 309.931 47.37C310.843 47.37 311.653 47.58 312.361 48C313.081 48.408 313.639 48.984 314.035 49.728C314.443 50.472 314.647 51.324 314.647 52.284ZM309.931 48.828C309.103 48.828 308.407 49.08 307.843 49.584C307.291 50.088 306.967 50.748 306.871 51.564H312.991C312.895 50.76 312.565 50.106 312.001 49.602C311.449 49.086 310.759 48.828 309.931 48.828ZM326.046 43.644V57H324.39V55.488C324.006 56.016 323.52 56.418 322.932 56.694C322.344 56.97 321.696 57.108 320.988 57.108C320.064 57.108 319.236 56.904 318.504 56.496C317.772 56.088 317.196 55.518 316.776 54.786C316.368 54.042 316.164 53.19 316.164 52.23C316.164 51.27 316.368 50.424 316.776 49.692C317.196 48.96 317.772 48.39 318.504 47.982C319.236 47.574 320.064 47.37 320.988 47.37C321.672 47.37 322.302 47.502 322.878 47.766C323.454 48.018 323.934 48.396 324.318 48.9V43.644H326.046ZM321.132 55.596C321.732 55.596 322.278 55.458 322.77 55.182C323.262 54.894 323.646 54.498 323.922 53.994C324.198 53.478 324.336 52.89 324.336 52.23C324.336 51.57 324.198 50.988 323.922 50.484C323.646 49.968 323.262 49.572 322.77 49.296C322.278 49.02 321.732 48.882 321.132 48.882C320.52 48.882 319.968 49.02 319.476 49.296C318.996 49.572 318.612 49.968 318.324 50.484C318.048 50.988 317.91 51.57 317.91 52.23C317.91 52.89 318.048 53.478 318.324 53.994C318.612 54.498 318.996 54.894 319.476 55.182C319.968 55.458 320.52 55.596 321.132 55.596ZM331.782 53.022C331.782 52.542 331.86 52.122 332.016 51.762C332.184 51.39 332.382 51.078 332.61 50.826C332.85 50.574 333.162 50.274 333.546 49.926C334.026 49.506 334.38 49.146 334.608 48.846C334.836 48.534 334.95 48.162 334.95 47.73C334.95 47.142 334.722 46.674 334.266 46.326C333.81 45.966 333.18 45.786 332.376 45.786C330.972 45.786 329.898 46.26 329.154 47.208L327.84 46.272C328.344 45.624 328.986 45.126 329.766 44.778C330.558 44.43 331.47 44.256 332.502 44.256C333.81 44.256 334.848 44.544 335.616 45.12C336.384 45.684 336.768 46.464 336.768 47.46C336.768 47.952 336.684 48.39 336.516 48.774C336.36 49.146 336.168 49.458 335.94 49.71C335.712 49.962 335.406 50.262 335.022 50.61C334.53 51.054 334.164 51.444 333.924 51.78C333.696 52.116 333.582 52.53 333.582 53.022H331.782ZM332.7 57.108C332.364 57.108 332.082 57 331.854 56.784C331.638 56.556 331.53 56.28 331.53 55.956C331.53 55.632 331.638 55.362 331.854 55.146C332.082 54.918 332.364 54.804 332.7 54.804C333.036 54.804 333.312 54.918 333.528 55.146C333.744 55.362 333.852 55.632 333.852 55.956C333.852 56.28 333.738 56.556 333.51 56.784C333.294 57 333.024 57.108 332.7 57.108Z" fill="#2F2F2F"/>
<path d="M348 41C348 38.2386 350.239 36 353 36H383C385.761 36 388 38.2386 388 41V61C388 63.7614 385.761 66 383 66H353C350.239 66 348 63.7614 348 61V41Z" fill="#9DD765"/>
<path d="M373.805 53.904H371.411V57H369.665V53.904H362.663V52.644L369.107 44.4H371.051L364.877 52.356H369.719V49.62H371.411V52.356H373.805V53.904Z" fill="#065B5B"/>
<path d="M13.0219 84.4V97H11.2219V91.384H3.9859V97H2.1859V84.4H3.9859V89.818H11.2219V84.4H13.0219ZM20.6273 97.108C19.6793 97.108 18.8273 96.898 18.0713 96.478C17.3153 96.058 16.7213 95.482 16.2893 94.75C15.8693 94.006 15.6593 93.166 15.6593 92.23C15.6593 91.294 15.8693 90.46 16.2893 89.728C16.7213 88.984 17.3153 88.408 18.0713 88C18.8273 87.58 19.6793 87.37 20.6273 87.37C21.5753 87.37 22.4213 87.58 23.1653 88C23.9213 88.408 24.5093 88.984 24.9293 89.728C25.3613 90.46 25.5773 91.294 25.5773 92.23C25.5773 93.166 25.3613 94.006 24.9293 94.75C24.5093 95.482 23.9213 96.058 23.1653 96.478C22.4213 96.898 21.5753 97.108 20.6273 97.108ZM20.6273 95.596C21.2393 95.596 21.7853 95.458 22.2653 95.182C22.7573 94.894 23.1413 94.498 23.4173 93.994C23.6933 93.478 23.8313 92.89 23.8313 92.23C23.8313 91.57 23.6933 90.988 23.4173 90.484C23.1413 89.968 22.7573 89.572 22.2653 89.296C21.7853 89.02 21.2393 88.882 20.6273 88.882C20.0153 88.882 19.4633 89.02 18.9713 89.296C18.4913 89.572 18.1073 89.968 17.8193 90.484C17.5433 90.988 17.4053 91.57 17.4053 92.23C17.4053 92.89 17.5433 93.478 17.8193 93.994C18.1073 94.498 18.4913 94.894 18.9713 95.182C19.4633 95.458 20.0153 95.596 20.6273 95.596ZM42.1394 87.46L38.5754 97H36.9194L34.1654 89.764L31.3754 97H29.7194L26.1734 87.46H27.8114L30.5834 95.056L33.4634 87.46H34.9214L37.7474 95.092L40.5914 87.46H42.1394ZM60.6609 87.37C61.8609 87.37 62.8089 87.718 63.5049 88.414C64.2129 89.11 64.5669 90.142 64.5669 91.51V97H62.8389V91.708C62.8389 90.784 62.6229 90.088 62.1909 89.62C61.7709 89.152 61.1649 88.918 60.3729 88.918C59.4969 88.918 58.8009 89.194 58.2849 89.746C57.7689 90.286 57.5109 91.066 57.5109 92.086V97H55.7829V91.708C55.7829 90.784 55.5669 90.088 55.1349 89.62C54.7149 89.152 54.1089 88.918 53.3169 88.918C52.4409 88.918 51.7449 89.194 51.2289 89.746C50.7129 90.286 50.4549 91.066 50.4549 92.086V97H48.7269V87.46H50.3829V88.882C50.7309 88.39 51.1869 88.018 51.7509 87.766C52.3149 87.502 52.9569 87.37 53.6769 87.37C54.4209 87.37 55.0809 87.52 55.6569 87.82C56.2329 88.12 56.6769 88.558 56.9889 89.134C57.3489 88.582 57.8469 88.15 58.4829 87.838C59.1309 87.526 59.8569 87.37 60.6609 87.37ZM71.2204 87.37C72.5404 87.37 73.5484 87.694 74.2444 88.342C74.9524 88.99 75.3064 89.956 75.3064 91.24V97H73.6684V95.74C73.3804 96.184 72.9664 96.526 72.4264 96.766C71.8984 96.994 71.2684 97.108 70.5364 97.108C69.4684 97.108 68.6104 96.85 67.9624 96.334C67.3264 95.818 67.0084 95.14 67.0084 94.3C67.0084 93.46 67.3144 92.788 67.9264 92.284C68.5384 91.768 69.5104 91.51 70.8424 91.51H73.5784V91.168C73.5784 90.424 73.3624 89.854 72.9304 89.458C72.4984 89.062 71.8624 88.864 71.0224 88.864C70.4584 88.864 69.9064 88.96 69.3664 89.152C68.8264 89.332 68.3704 89.578 67.9984 89.89L67.2784 88.594C67.7704 88.198 68.3584 87.898 69.0424 87.694C69.7264 87.478 70.4524 87.37 71.2204 87.37ZM70.8244 95.776C71.4844 95.776 72.0544 95.632 72.5344 95.344C73.0144 95.044 73.3624 94.624 73.5784 94.084V92.752H70.9144C69.4504 92.752 68.7184 93.244 68.7184 94.228C68.7184 94.708 68.9044 95.086 69.2764 95.362C69.6484 95.638 70.1644 95.776 70.8244 95.776ZM83.5982 87.37C84.8102 87.37 85.7702 87.724 86.4782 88.432C87.1982 89.128 87.5582 90.154 87.5582 91.51V97H85.8302V91.708C85.8302 90.784 85.6082 90.088 85.1642 89.62C84.7202 89.152 84.0842 88.918 83.2562 88.918C82.3202 88.918 81.5822 89.194 81.0422 89.746C80.5022 90.286 80.2322 91.066 80.2322 92.086V97H78.5042V87.46H80.1602V88.9C80.5082 88.408 80.9762 88.03 81.5642 87.766C82.1642 87.502 82.8422 87.37 83.5982 87.37ZM99.0224 87.46L94.3964 97.954C93.9884 98.926 93.5084 99.61 92.9564 100.006C92.4164 100.402 91.7624 100.6 90.9944 100.6C90.5264 100.6 90.0704 100.522 89.6264 100.366C89.1944 100.222 88.8344 100.006 88.5464 99.718L89.2844 98.422C89.7764 98.89 90.3464 99.124 90.9944 99.124C91.4144 99.124 91.7624 99.01 92.0384 98.782C92.3264 98.566 92.5844 98.188 92.8124 97.648L93.1184 96.982L88.9064 87.46H90.7064L94.0364 95.092L97.3304 87.46H99.0224ZM117.403 87.37C118.603 87.37 119.551 87.718 120.247 88.414C120.955 89.11 121.309 90.142 121.309 91.51V97H119.581V91.708C119.581 90.784 119.365 90.088 118.933 89.62C118.513 89.152 117.907 88.918 117.115 88.918C116.239 88.918 115.543 89.194 115.027 89.746C114.511 90.286 114.253 91.066 114.253 92.086V97H112.525V91.708C112.525 90.784 112.309 90.088 111.877 89.62C111.457 89.152 110.851 88.918 110.059 88.918C109.183 88.918 108.487 89.194 107.971 89.746C107.455 90.286 107.197 91.066 107.197 92.086V97H105.469V87.46H107.125V88.882C107.473 88.39 107.929 88.018 108.493 87.766C109.057 87.502 109.699 87.37 110.419 87.37C111.163 87.37 111.823 87.52 112.399 87.82C112.975 88.12 113.419 88.558 113.731 89.134C114.091 88.582 114.589 88.15 115.225 87.838C115.873 87.526 116.599 87.37 117.403 87.37ZM128.627 97.108C127.679 97.108 126.827 96.898 126.071 96.478C125.315 96.058 124.721 95.482 124.289 94.75C123.869 94.006 123.659 93.166 123.659 92.23C123.659 91.294 123.869 90.46 124.289 89.728C124.721 88.984 125.315 88.408 126.071 88C126.827 87.58 127.679 87.37 128.627 87.37C129.575 87.37 130.421 87.58 131.165 88C131.921 88.408 132.509 88.984 132.929 89.728C133.361 90.46 133.577 91.294 133.577 92.23C133.577 93.166 133.361 94.006 132.929 94.75C132.509 95.482 131.921 96.058 131.165 96.478C130.421 96.898 129.575 97.108 128.627 97.108ZM128.627 95.596C129.239 95.596 129.785 95.458 130.265 95.182C130.757 94.894 131.141 94.498 131.417 93.994C131.693 93.478 131.831 92.89 131.831 92.23C131.831 91.57 131.693 90.988 131.417 90.484C131.141 89.968 130.757 89.572 130.265 89.296C129.785 89.02 129.239 88.882 128.627 88.882C128.015 88.882 127.463 89.02 126.971 89.296C126.491 89.572 126.107 89.968 125.819 90.484C125.543 90.988 125.405 91.57 125.405 92.23C125.405 92.89 125.543 93.478 125.819 93.994C126.107 94.498 126.491 94.894 126.971 95.182C127.463 95.458 128.015 95.596 128.627 95.596ZM137.623 89.062C137.923 88.51 138.367 88.09 138.955 87.802C139.543 87.514 140.257 87.37 141.097 87.37V89.044C141.001 89.032 140.869 89.026 140.701 89.026C139.765 89.026 139.027 89.308 138.487 89.872C137.959 90.424 137.695 91.216 137.695 92.248V97H135.967V87.46H137.623V89.062ZM151.761 92.284C151.761 92.416 151.749 92.59 151.725 92.806H143.985C144.093 93.646 144.459 94.324 145.083 94.84C145.719 95.344 146.505 95.596 147.441 95.596C148.581 95.596 149.499 95.212 150.195 94.444L151.149 95.56C150.717 96.064 150.177 96.448 149.529 96.712C148.893 96.976 148.179 97.108 147.387 97.108C146.379 97.108 145.485 96.904 144.705 96.496C143.925 96.076 143.319 95.494 142.887 94.75C142.467 94.006 142.257 93.166 142.257 92.23C142.257 91.306 142.461 90.472 142.869 89.728C143.289 88.984 143.859 88.408 144.579 88C145.311 87.58 146.133 87.37 147.045 87.37C147.957 87.37 148.767 87.58 149.475 88C150.195 88.408 150.753 88.984 151.149 89.728C151.557 90.472 151.761 91.324 151.761 92.284ZM147.045 88.828C146.217 88.828 145.521 89.08 144.957 89.584C144.405 90.088 144.081 90.748 143.985 91.564H150.105C150.009 90.76 149.679 90.106 149.115 89.602C148.563 89.086 147.873 88.828 147.045 88.828ZM163.152 97.108C162.18 97.108 161.31 96.898 160.542 96.478C159.786 96.058 159.192 95.482 158.76 94.75C158.328 94.006 158.112 93.166 158.112 92.23C158.112 91.294 158.328 90.46 158.76 89.728C159.192 88.984 159.786 88.408 160.542 88C161.31 87.58 162.18 87.37 163.152 87.37C164.016 87.37 164.784 87.544 165.456 87.892C166.14 88.24 166.668 88.744 167.04 89.404L165.726 90.25C165.426 89.794 165.054 89.452 164.61 89.224C164.166 88.996 163.674 88.882 163.134 88.882C162.51 88.882 161.946 89.02 161.442 89.296C160.95 89.572 160.56 89.968 160.272 90.484C159.996 90.988 159.858 91.57 159.858 92.23C159.858 92.902 159.996 93.496 160.272 94.012C160.56 94.516 160.95 94.906 161.442 95.182C161.946 95.458 162.51 95.596 163.134 95.596C163.674 95.596 164.166 95.482 164.61 95.254C165.054 95.026 165.426 94.684 165.726 94.228L167.04 95.056C166.668 95.716 166.14 96.226 165.456 96.586C164.784 96.934 164.016 97.108 163.152 97.108ZM172.752 87.37C174.072 87.37 175.08 87.694 175.776 88.342C176.484 88.99 176.838 89.956 176.838 91.24V97H175.2V95.74C174.912 96.184 174.498 96.526 173.958 96.766C173.43 96.994 172.8 97.108 172.068 97.108C171 97.108 170.142 96.85 169.494 96.334C168.858 95.818 168.54 95.14 168.54 94.3C168.54 93.46 168.846 92.788 169.458 92.284C170.07 91.768 171.042 91.51 172.374 91.51H175.11V91.168C175.11 90.424 174.894 89.854 174.462 89.458C174.03 89.062 173.394 88.864 172.554 88.864C171.99 88.864 171.438 88.96 170.898 89.152C170.358 89.332 169.902 89.578 169.53 89.89L168.81 88.594C169.302 88.198 169.89 87.898 170.574 87.694C171.258 87.478 171.984 87.37 172.752 87.37ZM172.356 95.776C173.016 95.776 173.586 95.632 174.066 95.344C174.546 95.044 174.894 94.624 175.11 94.084V92.752H172.446C170.982 92.752 170.25 93.244 170.25 94.228C170.25 94.708 170.436 95.086 170.808 95.362C171.18 95.638 171.696 95.776 172.356 95.776ZM181.691 89.062C181.991 88.51 182.435 88.09 183.023 87.802C183.611 87.514 184.325 87.37 185.165 87.37V89.044C185.069 89.032 184.937 89.026 184.769 89.026C183.833 89.026 183.095 89.308 182.555 89.872C182.027 90.424 181.763 91.216 181.763 92.248V97H180.035V87.46H181.691V89.062ZM188.951 89.062C189.251 88.51 189.695 88.09 190.283 87.802C190.871 87.514 191.585 87.37 192.425 87.37V89.044C192.329 89.032 192.197 89.026 192.029 89.026C191.093 89.026 190.355 89.308 189.815 89.872C189.287 90.424 189.023 91.216 189.023 92.248V97H187.295V87.46H188.951V89.062ZM198.553 97.108C197.605 97.108 196.753 96.898 195.997 96.478C195.241 96.058 194.647 95.482 194.215 94.75C193.795 94.006 193.585 93.166 193.585 92.23C193.585 91.294 193.795 90.46 194.215 89.728C194.647 88.984 195.241 88.408 195.997 88C196.753 87.58 197.605 87.37 198.553 87.37C199.501 87.37 200.347 87.58 201.091 88C201.847 88.408 202.435 88.984 202.855 89.728C203.287 90.46 203.503 91.294 203.503 92.23C203.503 93.166 203.287 94.006 202.855 94.75C202.435 95.482 201.847 96.058 201.091 96.478C200.347 96.898 199.501 97.108 198.553 97.108ZM198.553 95.596C199.165 95.596 199.711 95.458 200.191 95.182C200.683 94.894 201.067 94.498 201.343 93.994C201.619 93.478 201.757 92.89 201.757 92.23C201.757 91.57 201.619 90.988 201.343 90.484C201.067 89.968 200.683 89.572 200.191 89.296C199.711 89.02 199.165 88.882 198.553 88.882C197.941 88.882 197.389 89.02 196.897 89.296C196.417 89.572 196.033 89.968 195.745 90.484C195.469 90.988 195.331 91.57 195.331 92.23C195.331 92.89 195.469 93.478 195.745 93.994C196.033 94.498 196.417 94.894 196.897 95.182C197.389 95.458 197.941 95.596 198.553 95.596ZM211.257 96.442C211.005 96.658 210.693 96.826 210.321 96.946C209.949 97.054 209.565 97.108 209.169 97.108C208.209 97.108 207.465 96.85 206.937 96.334C206.409 95.818 206.145 95.08 206.145 94.12V88.882H204.525V87.46H206.145V85.372H207.873V87.46H210.609V88.882H207.873V94.048C207.873 94.564 207.999 94.96 208.251 95.236C208.515 95.512 208.887 95.65 209.367 95.65C209.895 95.65 210.345 95.5 210.717 95.2L211.257 96.442ZM216.082 97.108C215.302 97.108 214.552 97.006 213.832 96.802C213.112 96.586 212.548 96.316 212.14 95.992L212.86 94.624C213.28 94.924 213.79 95.164 214.39 95.344C214.99 95.524 215.596 95.614 216.208 95.614C217.72 95.614 218.476 95.182 218.476 94.318C218.476 94.03 218.374 93.802 218.17 93.634C217.966 93.466 217.708 93.346 217.396 93.274C217.096 93.19 216.664 93.1 216.1 93.004C215.332 92.884 214.702 92.746 214.21 92.59C213.73 92.434 213.316 92.17 212.968 91.798C212.62 91.426 212.446 90.904 212.446 90.232C212.446 89.368 212.806 88.678 213.526 88.162C214.246 87.634 215.212 87.37 216.424 87.37C217.06 87.37 217.696 87.448 218.332 87.604C218.968 87.76 219.49 87.97 219.898 88.234L219.16 89.602C218.38 89.098 217.462 88.846 216.406 88.846C215.674 88.846 215.116 88.966 214.732 89.206C214.348 89.446 214.156 89.764 214.156 90.16C214.156 90.472 214.264 90.718 214.48 90.898C214.696 91.078 214.96 91.21 215.272 91.294C215.596 91.378 216.046 91.474 216.622 91.582C217.39 91.714 218.008 91.858 218.476 92.014C218.956 92.158 219.364 92.41 219.7 92.77C220.036 93.13 220.204 93.634 220.204 94.282C220.204 95.146 219.832 95.836 219.088 96.352C218.356 96.856 217.354 97.108 216.082 97.108ZM236.198 83.644V97H234.542V95.488C234.158 96.016 233.672 96.418 233.084 96.694C232.496 96.97 231.848 97.108 231.14 97.108C230.216 97.108 229.388 96.904 228.656 96.496C227.924 96.088 227.348 95.518 226.928 94.786C226.52 94.042 226.316 93.19 226.316 92.23C226.316 91.27 226.52 90.424 226.928 89.692C227.348 88.96 227.924 88.39 228.656 87.982C229.388 87.574 230.216 87.37 231.14 87.37C231.824 87.37 232.454 87.502 233.03 87.766C233.606 88.018 234.086 88.396 234.47 88.9V83.644H236.198ZM231.284 95.596C231.884 95.596 232.43 95.458 232.922 95.182C233.414 94.894 233.798 94.498 234.074 93.994C234.35 93.478 234.488 92.89 234.488 92.23C234.488 91.57 234.35 90.988 234.074 90.484C233.798 89.968 233.414 89.572 232.922 89.296C232.43 89.02 231.884 88.882 231.284 88.882C230.672 88.882 230.12 89.02 229.628 89.296C229.148 89.572 228.764 89.968 228.476 90.484C228.2 90.988 228.062 91.57 228.062 92.23C228.062 92.89 228.2 93.478 228.476 93.994C228.764 94.498 229.148 94.894 229.628 95.182C230.12 95.458 230.672 95.596 231.284 95.596ZM243.553 97.108C242.605 97.108 241.753 96.898 240.997 96.478C240.241 96.058 239.647 95.482 239.215 94.75C238.795 94.006 238.585 93.166 238.585 92.23C238.585 91.294 238.795 90.46 239.215 89.728C239.647 88.984 240.241 88.408 240.997 88C241.753 87.58 242.605 87.37 243.553 87.37C244.501 87.37 245.347 87.58 246.091 88C246.847 88.408 247.435 88.984 247.855 89.728C248.287 90.46 248.503 91.294 248.503 92.23C248.503 93.166 248.287 94.006 247.855 94.75C247.435 95.482 246.847 96.058 246.091 96.478C245.347 96.898 244.501 97.108 243.553 97.108ZM243.553 95.596C244.165 95.596 244.711 95.458 245.191 95.182C245.683 94.894 246.067 94.498 246.343 93.994C246.619 93.478 246.757 92.89 246.757 92.23C246.757 91.57 246.619 90.988 246.343 90.484C246.067 89.968 245.683 89.572 245.191 89.296C244.711 89.02 244.165 88.882 243.553 88.882C242.941 88.882 242.389 89.02 241.897 89.296C241.417 89.572 241.033 89.968 240.745 90.484C240.469 90.988 240.331 91.57 240.331 92.23C240.331 92.89 240.469 93.478 240.745 93.994C241.033 94.498 241.417 94.894 241.897 95.182C242.389 95.458 242.941 95.596 243.553 95.596ZM259.515 92.284C259.515 92.416 259.503 92.59 259.479 92.806H251.739C251.847 93.646 252.213 94.324 252.837 94.84C253.473 95.344 254.259 95.596 255.195 95.596C256.335 95.596 257.253 95.212 257.949 94.444L258.903 95.56C258.471 96.064 257.931 96.448 257.283 96.712C256.647 96.976 255.933 97.108 255.141 97.108C254.133 97.108 253.239 96.904 252.459 96.496C251.679 96.076 251.073 95.494 250.641 94.75C250.221 94.006 250.011 93.166 250.011 92.23C250.011 91.306 250.215 90.472 250.623 89.728C251.043 88.984 251.613 88.408 252.333 88C253.065 87.58 253.887 87.37 254.799 87.37C255.711 87.37 256.521 87.58 257.229 88C257.949 88.408 258.507 88.984 258.903 89.728C259.311 90.472 259.515 91.324 259.515 92.284ZM254.799 88.828C253.971 88.828 253.275 89.08 252.711 89.584C252.159 90.088 251.835 90.748 251.739 91.564H257.859C257.763 90.76 257.433 90.106 256.869 89.602C256.317 89.086 255.627 88.828 254.799 88.828ZM264.65 97.108C263.87 97.108 263.12 97.006 262.4 96.802C261.68 96.586 261.116 96.316 260.708 95.992L261.428 94.624C261.848 94.924 262.358 95.164 262.958 95.344C263.558 95.524 264.164 95.614 264.776 95.614C266.288 95.614 267.044 95.182 267.044 94.318C267.044 94.03 266.942 93.802 266.738 93.634C266.534 93.466 266.276 93.346 265.964 93.274C265.664 93.19 265.232 93.1 264.668 93.004C263.9 92.884 263.27 92.746 262.778 92.59C262.298 92.434 261.884 92.17 261.536 91.798C261.188 91.426 261.014 90.904 261.014 90.232C261.014 89.368 261.374 88.678 262.094 88.162C262.814 87.634 263.78 87.37 264.992 87.37C265.628 87.37 266.264 87.448 266.9 87.604C267.536 87.76 268.058 87.97 268.466 88.234L267.728 89.602C266.948 89.098 266.03 88.846 264.974 88.846C264.242 88.846 263.684 88.966 263.3 89.206C262.916 89.446 262.724 89.764 262.724 90.16C262.724 90.472 262.832 90.718 263.048 90.898C263.264 91.078 263.528 91.21 263.84 91.294C264.164 91.378 264.614 91.474 265.19 91.582C265.958 91.714 266.576 91.858 267.044 92.014C267.524 92.158 267.932 92.41 268.268 92.77C268.604 93.13 268.772 93.634 268.772 94.282C268.772 95.146 268.4 95.836 267.656 96.352C266.924 96.856 265.922 97.108 264.65 97.108ZM278.502 97.108C277.722 97.108 276.972 97.006 276.252 96.802C275.532 96.586 274.968 96.316 274.56 95.992L275.28 94.624C275.7 94.924 276.21 95.164 276.81 95.344C277.41 95.524 278.016 95.614 278.628 95.614C280.14 95.614 280.896 95.182 280.896 94.318C280.896 94.03 280.794 93.802 280.59 93.634C280.386 93.466 280.128 93.346 279.816 93.274C279.516 93.19 279.084 93.1 278.52 93.004C277.752 92.884 277.122 92.746 276.63 92.59C276.15 92.434 275.736 92.17 275.388 91.798C275.04 91.426 274.866 90.904 274.866 90.232C274.866 89.368 275.226 88.678 275.946 88.162C276.666 87.634 277.632 87.37 278.844 87.37C279.48 87.37 280.116 87.448 280.752 87.604C281.388 87.76 281.91 87.97 282.318 88.234L281.58 89.602C280.8 89.098 279.882 88.846 278.826 88.846C278.094 88.846 277.536 88.966 277.152 89.206C276.768 89.446 276.576 89.764 276.576 90.16C276.576 90.472 276.684 90.718 276.9 90.898C277.116 91.078 277.38 91.21 277.692 91.294C278.016 91.378 278.466 91.474 279.042 91.582C279.81 91.714 280.428 91.858 280.896 92.014C281.376 92.158 281.784 92.41 282.12 92.77C282.456 93.13 282.624 93.634 282.624 94.282C282.624 95.146 282.252 95.836 281.508 96.352C280.776 96.856 279.774 97.108 278.502 97.108ZM289.878 87.37C291.09 87.37 292.05 87.724 292.758 88.432C293.478 89.128 293.838 90.154 293.838 91.51V97H292.11V91.708C292.11 90.784 291.888 90.088 291.444 89.62C291 89.152 290.364 88.918 289.536 88.918C288.6 88.918 287.862 89.194 287.322 89.746C286.782 90.286 286.512 91.066 286.512 92.086V97H284.784V83.644H286.512V88.81C286.872 88.354 287.34 88 287.916 87.748C288.504 87.496 289.158 87.37 289.878 87.37ZM305.71 92.284C305.71 92.416 305.698 92.59 305.674 92.806H297.934C298.042 93.646 298.408 94.324 299.032 94.84C299.668 95.344 300.454 95.596 301.39 95.596C302.53 95.596 303.448 95.212 304.144 94.444L305.098 95.56C304.666 96.064 304.126 96.448 303.478 96.712C302.842 96.976 302.128 97.108 301.336 97.108C300.328 97.108 299.434 96.904 298.654 96.496C297.874 96.076 297.268 95.494 296.836 94.75C296.416 94.006 296.206 93.166 296.206 92.23C296.206 91.306 296.41 90.472 296.818 89.728C297.238 88.984 297.808 88.408 298.528 88C299.26 87.58 300.082 87.37 300.994 87.37C301.906 87.37 302.716 87.58 303.424 88C304.144 88.408 304.702 88.984 305.098 89.728C305.506 90.472 305.71 91.324 305.71 92.284ZM300.994 88.828C300.166 88.828 299.47 89.08 298.906 89.584C298.354 90.088 298.03 90.748 297.934 91.564H304.054C303.958 90.76 303.628 90.106 303.064 89.602C302.512 89.086 301.822 88.828 300.994 88.828ZM318.038 87.37C319.25 87.37 320.21 87.724 320.918 88.432C321.638 89.128 321.998 90.154 321.998 91.51V97H320.27V91.708C320.27 90.784 320.048 90.088 319.604 89.62C319.16 89.152 318.524 88.918 317.696 88.918C316.76 88.918 316.022 89.194 315.482 89.746C314.942 90.286 314.672 91.066 314.672 92.086V97H312.944V87.46H314.6V88.9C314.948 88.408 315.416 88.03 316.004 87.766C316.604 87.502 317.282 87.37 318.038 87.37ZM333.87 92.284C333.87 92.416 333.858 92.59 333.834 92.806H326.094C326.202 93.646 326.568 94.324 327.192 94.84C327.828 95.344 328.614 95.596 329.55 95.596C330.69 95.596 331.608 95.212 332.304 94.444L333.258 95.56C332.826 96.064 332.286 96.448 331.638 96.712C331.002 96.976 330.288 97.108 329.496 97.108C328.488 97.108 327.594 96.904 326.814 96.496C326.034 96.076 325.428 95.494 324.996 94.75C324.576 94.006 324.366 93.166 324.366 92.23C324.366 91.306 324.57 90.472 324.978 89.728C325.398 88.984 325.968 88.408 326.688 88C327.42 87.58 328.242 87.37 329.154 87.37C330.066 87.37 330.876 87.58 331.584 88C332.304 88.408 332.862 88.984 333.258 89.728C333.666 90.472 333.87 91.324 333.87 92.284ZM329.154 88.828C328.326 88.828 327.63 89.08 327.066 89.584C326.514 90.088 326.19 90.748 326.094 91.564H332.214C332.118 90.76 331.788 90.106 331.224 89.602C330.672 89.086 329.982 88.828 329.154 88.828ZM344.892 92.284C344.892 92.416 344.88 92.59 344.856 92.806H337.116C337.224 93.646 337.59 94.324 338.214 94.84C338.85 95.344 339.636 95.596 340.572 95.596C341.712 95.596 342.63 95.212 343.326 94.444L344.28 95.56C343.848 96.064 343.308 96.448 342.66 96.712C342.024 96.976 341.31 97.108 340.518 97.108C339.51 97.108 338.616 96.904 337.836 96.496C337.056 96.076 336.45 95.494 336.018 94.75C335.598 94.006 335.388 93.166 335.388 92.23C335.388 91.306 335.592 90.472 336 89.728C336.42 88.984 336.99 88.408 337.71 88C338.442 87.58 339.264 87.37 340.176 87.37C341.088 87.37 341.898 87.58 342.606 88C343.326 88.408 343.884 88.984 344.28 89.728C344.688 90.472 344.892 91.324 344.892 92.284ZM340.176 88.828C339.348 88.828 338.652 89.08 338.088 89.584C337.536 90.088 337.212 90.748 337.116 91.564H343.236C343.14 90.76 342.81 90.106 342.246 89.602C341.694 89.086 341.004 88.828 340.176 88.828ZM356.291 83.644V97H354.635V95.488C354.251 96.016 353.765 96.418 353.177 96.694C352.589 96.97 351.941 97.108 351.233 97.108C350.309 97.108 349.481 96.904 348.749 96.496C348.017 96.088 347.441 95.518 347.021 94.786C346.613 94.042 346.409 93.19 346.409 92.23C346.409 91.27 346.613 90.424 347.021 89.692C347.441 88.96 348.017 88.39 348.749 87.982C349.481 87.574 350.309 87.37 351.233 87.37C351.917 87.37 352.547 87.502 353.123 87.766C353.699 88.018 354.179 88.396 354.563 88.9V83.644H356.291ZM351.377 95.596C351.977 95.596 352.523 95.458 353.015 95.182C353.507 94.894 353.891 94.498 354.167 93.994C354.443 93.478 354.581 92.89 354.581 92.23C354.581 91.57 354.443 90.988 354.167 90.484C353.891 89.968 353.507 89.572 353.015 89.296C352.523 89.02 351.977 88.882 351.377 88.882C350.765 88.882 350.213 89.02 349.721 89.296C349.241 89.572 348.857 89.968 348.569 90.484C348.293 90.988 348.155 91.57 348.155 92.23C348.155 92.89 348.293 93.478 348.569 93.994C348.857 94.498 349.241 94.894 349.721 95.182C350.213 95.458 350.765 95.596 351.377 95.596ZM369.759 96.442C369.507 96.658 369.195 96.826 368.823 96.946C368.451 97.054 368.067 97.108 367.671 97.108C366.711 97.108 365.967 96.85 365.439 96.334C364.911 95.818 364.647 95.08 364.647 94.12V88.882H363.027V87.46H364.647V85.372H366.375V87.46H369.111V88.882H366.375V94.048C366.375 94.564 366.501 94.96 366.753 95.236C367.017 95.512 367.389 95.65 367.869 95.65C368.397 95.65 368.847 95.5 369.219 95.2L369.759 96.442ZM376.942 87.37C378.154 87.37 379.114 87.724 379.822 88.432C380.542 89.128 380.902 90.154 380.902 91.51V97H379.174V91.708C379.174 90.784 378.952 90.088 378.508 89.62C378.064 89.152 377.428 88.918 376.6 88.918C375.664 88.918 374.926 89.194 374.386 89.746C373.846 90.286 373.576 91.066 373.576 92.086V97H371.848V83.644H373.576V88.81C373.936 88.354 374.404 88 374.98 87.748C375.568 87.496 376.222 87.37 376.942 87.37ZM387.574 87.37C388.894 87.37 389.902 87.694 390.598 88.342C391.306 88.99 391.66 89.956 391.66 91.24V97H390.022V95.74C389.734 96.184 389.32 96.526 388.78 96.766C388.252 96.994 387.622 97.108 386.89 97.108C385.822 97.108 384.964 96.85 384.316 96.334C383.68 95.818 383.362 95.14 383.362 94.3C383.362 93.46 383.668 92.788 384.28 92.284C384.892 91.768 385.864 91.51 387.196 91.51H389.932V91.168C389.932 90.424 389.716 89.854 389.284 89.458C388.852 89.062 388.216 88.864 387.376 88.864C386.812 88.864 386.26 88.96 385.72 89.152C385.18 89.332 384.724 89.578 384.352 89.89L383.632 88.594C384.124 88.198 384.712 87.898 385.396 87.694C386.08 87.478 386.806 87.37 387.574 87.37ZM387.178 95.776C387.838 95.776 388.408 95.632 388.888 95.344C389.368 95.044 389.716 94.624 389.932 94.084V92.752H387.268C385.804 92.752 385.072 93.244 385.072 94.228C385.072 94.708 385.258 95.086 385.63 95.362C386.002 95.638 386.518 95.776 387.178 95.776ZM399.952 87.37C401.164 87.37 402.124 87.724 402.832 88.432C403.552 89.128 403.912 90.154 403.912 91.51V97H402.184V91.708C402.184 90.784 401.962 90.088 401.518 89.62C401.074 89.152 400.438 88.918 399.61 88.918C398.674 88.918 397.936 89.194 397.396 89.746C396.856 90.286 396.586 91.066 396.586 92.086V97H394.858V87.46H396.514V88.9C396.862 88.408 397.33 88.03 397.918 87.766C398.518 87.502 399.196 87.37 399.952 87.37ZM417.002 87.37C417.926 87.37 418.754 87.574 419.486 87.982C420.218 88.39 420.788 88.96 421.196 89.692C421.616 90.424 421.826 91.27 421.826 92.23C421.826 93.19 421.616 94.042 421.196 94.786C420.788 95.518 420.218 96.088 419.486 96.496C418.754 96.904 417.926 97.108 417.002 97.108C416.294 97.108 415.646 96.97 415.058 96.694C414.47 96.418 413.984 96.016 413.6 95.488V97H411.944V83.644H413.672V88.9C414.056 88.396 414.536 88.018 415.112 87.766C415.688 87.502 416.318 87.37 417.002 87.37ZM416.858 95.596C417.47 95.596 418.016 95.458 418.496 95.182C418.988 94.894 419.372 94.498 419.648 93.994C419.936 93.478 420.08 92.89 420.08 92.23C420.08 91.57 419.936 90.988 419.648 90.484C419.372 89.968 418.988 89.572 418.496 89.296C418.016 89.02 417.47 88.882 416.858 88.882C416.258 88.882 415.712 89.02 415.22 89.296C414.728 89.572 414.344 89.968 414.068 90.484C413.792 90.988 413.654 91.57 413.654 92.23C413.654 92.89 413.792 93.478 414.068 93.994C414.344 94.498 414.728 94.894 415.22 95.182C415.712 95.458 416.258 95.596 416.858 95.596ZM432.835 92.284C432.835 92.416 432.823 92.59 432.799 92.806H425.059C425.167 93.646 425.533 94.324 426.157 94.84C426.793 95.344 427.579 95.596 428.515 95.596C429.655 95.596 430.573 95.212 431.269 94.444L432.223 95.56C431.791 96.064 431.251 96.448 430.603 96.712C429.967 96.976 429.253 97.108 428.461 97.108C427.453 97.108 426.559 96.904 425.779 96.496C424.999 96.076 424.393 95.494 423.961 94.75C423.541 94.006 423.331 93.166 423.331 92.23C423.331 91.306 423.535 90.472 423.943 89.728C424.363 88.984 424.933 88.408 425.653 88C426.385 87.58 427.207 87.37 428.119 87.37C429.031 87.37 429.841 87.58 430.549 88C431.269 88.408 431.827 88.984 432.223 89.728C432.631 90.472 432.835 91.324 432.835 92.284ZM428.119 88.828C427.291 88.828 426.595 89.08 426.031 89.584C425.479 90.088 425.155 90.748 425.059 91.564H431.179C431.083 90.76 430.753 90.106 430.189 89.602C429.637 89.086 428.947 88.828 428.119 88.828ZM435.235 83.644H436.963V97H435.235V83.644ZM440.262 83.644H441.99V97H440.262V83.644ZM455.181 87.37C456.105 87.37 456.933 87.574 457.665 87.982C458.397 88.39 458.967 88.96 459.375 89.692C459.795 90.424 460.005 91.27 460.005 92.23C460.005 93.19 459.795 94.042 459.375 94.786C458.967 95.518 458.397 96.088 457.665 96.496C456.933 96.904 456.105 97.108 455.181 97.108C454.497 97.108 453.867 96.976 453.291 96.712C452.727 96.448 452.247 96.064 451.851 95.56V100.492H450.123V87.46H451.779V88.972C452.163 88.444 452.649 88.048 453.237 87.784C453.825 87.508 454.473 87.37 455.181 87.37ZM455.037 95.596C455.649 95.596 456.195 95.458 456.675 95.182C457.167 94.894 457.551 94.498 457.827 93.994C458.115 93.478 458.259 92.89 458.259 92.23C458.259 91.57 458.115 90.988 457.827 90.484C457.551 89.968 457.167 89.572 456.675 89.296C456.195 89.02 455.649 88.882 455.037 88.882C454.437 88.882 453.891 89.026 453.399 89.314C452.919 89.59 452.535 89.98 452.247 90.484C451.971 90.988 451.833 91.57 451.833 92.23C451.833 92.89 451.971 93.478 452.247 93.994C452.523 94.498 452.907 94.894 453.399 95.182C453.891 95.458 454.437 95.596 455.037 95.596ZM471.015 92.284C471.015 92.416 471.003 92.59 470.979 92.806H463.239C463.347 93.646 463.713 94.324 464.337 94.84C464.973 95.344 465.759 95.596 466.695 95.596C467.835 95.596 468.753 95.212 469.449 94.444L470.403 95.56C469.971 96.064 469.431 96.448 468.783 96.712C468.147 96.976 467.433 97.108 466.641 97.108C465.633 97.108 464.739 96.904 463.959 96.496C463.179 96.076 462.573 95.494 462.141 94.75C461.721 94.006 461.511 93.166 461.511 92.23C461.511 91.306 461.715 90.472 462.123 89.728C462.543 88.984 463.113 88.408 463.833 88C464.565 87.58 465.387 87.37 466.299 87.37C467.211 87.37 468.021 87.58 468.729 88C469.449 88.408 470.007 88.984 470.403 89.728C470.811 90.472 471.015 91.324 471.015 92.284ZM466.299 88.828C465.471 88.828 464.775 89.08 464.211 89.584C463.659 90.088 463.335 90.748 463.239 91.564H469.359C469.263 90.76 468.933 90.106 468.369 89.602C467.817 89.086 467.127 88.828 466.299 88.828ZM478.472 87.37C479.396 87.37 480.224 87.574 480.956 87.982C481.688 88.39 482.258 88.96 482.666 89.692C483.086 90.424 483.296 91.27 483.296 92.23C483.296 93.19 483.086 94.042 482.666 94.786C482.258 95.518 481.688 96.088 480.956 96.496C480.224 96.904 479.396 97.108 478.472 97.108C477.788 97.108 477.158 96.976 476.582 96.712C476.018 96.448 475.538 96.064 475.142 95.56V100.492H473.414V87.46H475.07V88.972C475.454 88.444 475.94 88.048 476.528 87.784C477.116 87.508 477.764 87.37 478.472 87.37ZM478.328 95.596C478.94 95.596 479.486 95.458 479.966 95.182C480.458 94.894 480.842 94.498 481.118 93.994C481.406 93.478 481.55 92.89 481.55 92.23C481.55 91.57 481.406 90.988 481.118 90.484C480.842 89.968 480.458 89.572 479.966 89.296C479.486 89.02 478.94 88.882 478.328 88.882C477.728 88.882 477.182 89.026 476.69 89.314C476.21 89.59 475.826 89.98 475.538 90.484C475.262 90.988 475.124 91.57 475.124 92.23C475.124 92.89 475.262 93.478 475.538 93.994C475.814 94.498 476.198 94.894 476.69 95.182C477.182 95.458 477.728 95.596 478.328 95.596ZM490.742 87.37C491.666 87.37 492.494 87.574 493.226 87.982C493.958 88.39 494.528 88.96 494.936 89.692C495.356 90.424 495.566 91.27 495.566 92.23C495.566 93.19 495.356 94.042 494.936 94.786C494.528 95.518 493.958 96.088 493.226 96.496C492.494 96.904 491.666 97.108 490.742 97.108C490.058 97.108 489.428 96.976 488.852 96.712C488.288 96.448 487.808 96.064 487.412 95.56V100.492H485.684V87.46H487.34V88.972C487.724 88.444 488.21 88.048 488.798 87.784C489.386 87.508 490.034 87.37 490.742 87.37ZM490.598 95.596C491.21 95.596 491.756 95.458 492.236 95.182C492.728 94.894 493.112 94.498 493.388 93.994C493.676 93.478 493.82 92.89 493.82 92.23C493.82 91.57 493.676 90.988 493.388 90.484C493.112 89.968 492.728 89.572 492.236 89.296C491.756 89.02 491.21 88.882 490.598 88.882C489.998 88.882 489.452 89.026 488.96 89.314C488.48 89.59 488.096 89.98 487.808 90.484C487.532 90.988 487.394 91.57 487.394 92.23C487.394 92.89 487.532 93.478 487.808 93.994C488.084 94.498 488.468 94.894 488.96 95.182C489.452 95.458 489.998 95.596 490.598 95.596ZM506.575 92.284C506.575 92.416 506.563 92.59 506.539 92.806H498.799C498.907 93.646 499.273 94.324 499.897 94.84C500.533 95.344 501.319 95.596 502.255 95.596C503.395 95.596 504.313 95.212 505.009 94.444L505.963 95.56C505.531 96.064 504.991 96.448 504.343 96.712C503.707 96.976 502.993 97.108 502.201 97.108C501.193 97.108 500.299 96.904 499.519 96.496C498.739 96.076 498.133 95.494 497.701 94.75C497.281 94.006 497.071 93.166 497.071 92.23C497.071 91.306 497.275 90.472 497.683 89.728C498.103 88.984 498.673 88.408 499.393 88C500.125 87.58 500.947 87.37 501.859 87.37C502.771 87.37 503.581 87.58 504.289 88C505.009 88.408 505.567 88.984 505.963 89.728C506.371 90.472 506.575 91.324 506.575 92.284ZM501.859 88.828C501.031 88.828 500.335 89.08 499.771 89.584C499.219 90.088 498.895 90.748 498.799 91.564H504.919C504.823 90.76 504.493 90.106 503.929 89.602C503.377 89.086 502.687 88.828 501.859 88.828ZM510.631 89.062C510.931 88.51 511.375 88.09 511.963 87.802C512.551 87.514 513.265 87.37 514.105 87.37V89.044C514.009 89.032 513.877 89.026 513.709 89.026C512.773 89.026 512.035 89.308 511.495 89.872C510.967 90.424 510.703 91.216 510.703 92.248V97H508.975V87.46H510.631V89.062ZM519.041 97.108C518.261 97.108 517.511 97.006 516.791 96.802C516.071 96.586 515.507 96.316 515.099 95.992L515.819 94.624C516.239 94.924 516.749 95.164 517.349 95.344C517.949 95.524 518.555 95.614 519.167 95.614C520.679 95.614 521.435 95.182 521.435 94.318C521.435 94.03 521.333 93.802 521.129 93.634C520.925 93.466 520.667 93.346 520.355 93.274C520.055 93.19 519.623 93.1 519.059 93.004C518.291 92.884 517.661 92.746 517.169 92.59C516.689 92.434 516.275 92.17 515.927 91.798C515.579 91.426 515.405 90.904 515.405 90.232C515.405 89.368 515.765 88.678 516.485 88.162C517.205 87.634 518.171 87.37 519.383 87.37C520.019 87.37 520.655 87.448 521.291 87.604C521.927 87.76 522.449 87.97 522.857 88.234L522.119 89.602C521.339 89.098 520.421 88.846 519.365 88.846C518.633 88.846 518.075 88.966 517.691 89.206C517.307 89.446 517.115 89.764 517.115 90.16C517.115 90.472 517.223 90.718 517.439 90.898C517.655 91.078 517.919 91.21 518.231 91.294C518.555 91.378 519.005 91.474 519.581 91.582C520.349 91.714 520.967 91.858 521.435 92.014C521.915 92.158 522.323 92.41 522.659 92.77C522.995 93.13 523.163 93.634 523.163 94.282C523.163 95.146 522.791 95.836 522.047 96.352C521.315 96.856 520.313 97.108 519.041 97.108ZM527.49 93.022C527.49 92.542 527.568 92.122 527.724 91.762C527.892 91.39 528.09 91.078 528.318 90.826C528.558 90.574 528.87 90.274 529.254 89.926C529.734 89.506 530.088 89.146 530.316 88.846C530.544 88.534 530.658 88.162 530.658 87.73C530.658 87.142 530.43 86.674 529.974 86.326C529.518 85.966 528.888 85.786 528.084 85.786C526.68 85.786 525.606 86.26 524.862 87.208L523.548 86.272C524.052 85.624 524.694 85.126 525.474 84.778C526.266 84.43 527.178 84.256 528.21 84.256C529.518 84.256 530.556 84.544 531.324 85.12C532.092 85.684 532.476 86.464 532.476 87.46C532.476 87.952 532.392 88.39 532.224 88.774C532.068 89.146 531.876 89.458 531.648 89.71C531.42 89.962 531.114 90.262 530.73 90.61C530.238 91.054 529.872 91.444 529.632 91.78C529.404 92.116 529.29 92.53 529.29 93.022H527.49ZM528.408 97.108C528.072 97.108 527.79 97 527.562 96.784C527.346 96.556 527.238 96.28 527.238 95.956C527.238 95.632 527.346 95.362 527.562 95.146C527.79 94.918 528.072 94.804 528.408 94.804C528.744 94.804 529.02 94.918 529.236 95.146C529.452 95.362 529.56 95.632 529.56 95.956C529.56 96.28 529.446 96.556 529.218 96.784C529.002 97 528.732 97.108 528.408 97.108Z" fill="#2F2F2F"/>
<path d="M544 81C544 78.2386 546.239 76 549 76H579C581.761 76 584 78.2386 584 81V101C584 103.761 581.761 106 579 106H549C546.239 106 544 103.761 544 101V81Z" fill="#9DD765"/>
<path d="M569.805 93.904H567.411V97H565.665V93.904H558.663V92.644L565.107 84.4H567.051L560.877 92.356H565.719V89.62H567.411V92.356H569.805V93.904Z" fill="#065B5B"/>
</svg>
