<svg width="38" height="50" viewBox="0 0 38 50" fill="none" xmlns="http://www.w3.org/2000/svg">
<path d="M19.5376 8.192C20.7736 8.312 21.7156 8.696 22.3636 9.344C23.0116 9.98 23.3356 10.796 23.3356 11.792C23.3356 12.512 23.1556 13.166 22.7956 13.754C22.4356 14.33 21.8956 14.792 21.1756 15.14C20.4676 15.476 19.5976 15.644 18.5656 15.644C17.6656 15.644 16.8016 15.512 15.9736 15.248C15.1456 14.972 14.4676 14.594 13.9396 14.114L14.7676 12.692C15.1996 13.1 15.7516 13.43 16.4236 13.682C17.0956 13.922 17.8096 14.042 18.5656 14.042C19.5016 14.042 20.2276 13.844 20.7436 13.448C21.2716 13.052 21.5356 12.506 21.5356 11.81C21.5356 11.114 21.2776 10.574 20.7616 10.19C20.2456 9.806 19.4656 9.614 18.4216 9.614H17.4136V8.354L20.5816 4.466H14.5156V2.9H22.8316V4.124L19.5376 8.192Z" fill="white"/>
<path d="M18.296 38.922C20.096 38.922 21.416 39.264 22.256 39.948C23.108 40.62 23.534 41.544 23.534 42.72C23.534 43.464 23.354 44.136 22.994 44.736C22.646 45.324 22.112 45.792 21.392 46.14C20.684 46.476 19.808 46.644 18.764 46.644C17.876 46.644 17.018 46.512 16.19 46.248C15.362 45.972 14.678 45.594 14.138 45.114L14.966 43.692C15.398 44.1 15.95 44.43 16.622 44.682C17.294 44.922 18.002 45.042 18.746 45.042C19.694 45.042 20.426 44.844 20.942 44.448C21.47 44.04 21.734 43.488 21.734 42.792C21.734 42.036 21.446 41.466 20.87 41.082C20.294 40.686 19.31 40.488 17.918 40.488H15.056L15.722 33.9H22.832V35.466H17.234L16.892 38.922H18.296Z" fill="white"/>
<line x1="0.5" y1="24" x2="37.5" y2="24" stroke="white"/>
</svg>
