<svg width="370" height="298" viewBox="0 0 370 298" fill="none" xmlns="http://www.w3.org/2000/svg">
<g clip-path="url(#clip0_5611_99980)">
<line x1="55" y1="214.456" x2="370" y2="214.456" stroke="#A1B9BC" stroke-width="1.08811" stroke-dasharray="2.18 2.18"/>
<line x1="55" y1="184.456" x2="370" y2="184.456" stroke="#A1B9BC" stroke-width="1.08811" stroke-dasharray="2.18 2.18"/>
<line x1="55" y1="154.456" x2="370" y2="154.456" stroke="#A1B9BC" stroke-width="1.08811" stroke-dasharray="2.18 2.18"/>
<line x1="55" y1="124.456" x2="370" y2="124.456" stroke="#A1B9BC" stroke-width="1.08811" stroke-dasharray="2.18 2.18"/>
<line x1="55" y1="94.4559" x2="370" y2="94.4559" stroke="#A1B9BC" stroke-width="1.08811" stroke-dasharray="2.18 2.18"/>
<line x1="55" y1="64.4559" x2="370" y2="64.4559" stroke="#A1B9BC" stroke-width="1.08811" stroke-dasharray="2.18 2.18"/>
<line x1="55" y1="34.4559" x2="370" y2="34.4559" stroke="#A1B9BC" stroke-width="1.08811" stroke-dasharray="2.18 2.18"/>
<path d="M51.9727 242.766C51.9727 244.212 51.7011 245.303 51.1577 246.04C50.619 246.772 49.797 247.138 48.6919 247.138C47.6052 247.138 46.7856 246.781 46.2331 246.068C45.6851 245.349 45.4042 244.288 45.3904 242.883V241.143C45.3904 239.697 45.6598 238.613 46.1985 237.89C46.7419 237.167 47.5684 236.805 48.6781 236.805C49.7786 236.805 50.5982 237.158 51.137 237.862C51.6803 238.567 51.9589 239.621 51.9727 241.026V242.766ZM50.2943 240.887C50.2943 239.943 50.1654 239.253 49.9076 238.815C49.6497 238.373 49.2399 238.152 48.6781 238.152C48.1302 238.152 47.7273 238.362 47.4694 238.781C47.2115 239.195 47.0757 239.844 47.0619 240.729V243.008C47.0619 243.947 47.1931 244.647 47.4556 245.108C47.7181 245.568 48.1302 245.798 48.6919 245.798C49.2307 245.798 49.629 245.586 49.8868 245.163C50.1447 244.735 50.2805 244.067 50.2943 243.16V240.887Z" fill="#637173"/>
<path d="M49.9628 217H48.2913V208.926L45.8256 209.768V208.353L49.7487 206.909H49.9628V217Z" fill="#637173"/>
<path d="M52.1799 187H45.418V185.847L48.7679 182.193C49.2514 181.654 49.5944 181.205 49.797 180.846C50.0043 180.482 50.1079 180.118 50.1079 179.755C50.1079 179.276 49.972 178.889 49.7003 178.594C49.4333 178.3 49.0718 178.152 48.616 178.152C48.0726 178.152 47.6513 178.318 47.352 178.65C47.0527 178.981 46.903 179.435 46.903 180.01H45.2247C45.2247 179.398 45.3628 178.848 45.6391 178.359C45.92 177.867 46.3183 177.485 46.834 177.213C47.3543 176.941 47.9529 176.805 48.6298 176.805C49.606 176.805 50.3749 177.052 50.9367 177.544C51.5031 178.032 51.7862 178.709 51.7862 179.575C51.7862 180.077 51.6435 180.604 51.358 181.157C51.0771 181.705 50.6144 182.329 49.9697 183.029L47.5108 185.66H52.1799V187Z" fill="#637173"/>
<path d="M47.3589 151.205H48.3811C48.8968 151.2 49.3043 151.067 49.6036 150.804C49.9076 150.542 50.0595 150.162 50.0595 149.665C50.0595 149.186 49.9329 148.815 49.6796 148.553C49.431 148.286 49.0488 148.152 48.5331 148.152C48.0818 148.152 47.7111 148.283 47.4211 148.546C47.131 148.804 46.9859 149.142 46.9859 149.561H45.3075C45.3075 149.046 45.4434 148.576 45.715 148.152C45.9913 147.729 46.3735 147.399 46.8616 147.165C47.3543 146.925 47.9045 146.805 48.5124 146.805C49.5162 146.805 50.3036 147.059 50.8745 147.565C51.4501 148.067 51.7379 148.767 51.7379 149.665C51.7379 150.116 51.5928 150.542 51.3028 150.943C51.0173 151.339 50.6466 151.638 50.1907 151.841C50.7433 152.029 51.1623 152.326 51.4478 152.732C51.7379 153.137 51.8829 153.62 51.8829 154.182C51.8829 155.084 51.5721 155.803 50.9505 156.337C50.3335 156.871 49.5208 157.138 48.5124 157.138C47.5454 157.138 46.7534 156.88 46.1364 156.365C45.5193 155.849 45.2108 155.163 45.2108 154.306H46.8892C46.8892 154.748 47.0366 155.108 47.3313 155.384C47.6306 155.66 48.0312 155.798 48.5331 155.798C49.0534 155.798 49.4632 155.66 49.7625 155.384C50.0618 155.108 50.2115 154.707 50.2115 154.182C50.2115 153.652 50.0549 153.245 49.7418 152.959C49.4287 152.674 48.9636 152.531 48.3466 152.531H47.3589V151.205Z" fill="#637173"/>
<path d="M51.0955 123.415H52.3457V124.762H51.0955V127H49.4172V124.762H45.0727L45.0244 123.74L49.3619 116.944H51.0955V123.415ZM46.7856 123.415H49.4172V119.216L49.2928 119.437L46.7856 123.415Z" fill="#637173"/>
<path d="M45.867 92.0132L46.4126 86.9435H51.8139V88.394H47.8078L47.5316 90.7976C47.9966 90.5305 48.5216 90.397 49.1063 90.397C50.0641 90.397 50.8078 90.7032 51.3373 91.3156C51.8714 91.928 52.1385 92.7522 52.1385 93.7883C52.1385 94.8105 51.8438 95.6255 51.2544 96.2333C50.665 96.8365 49.8569 97.1381 48.8301 97.1381C47.9091 97.1381 47.1448 96.878 46.537 96.3577C45.9338 95.8327 45.6068 95.142 45.5562 94.2856H47.1793C47.2438 94.7737 47.4188 95.1489 47.7042 95.4114C47.9897 95.6693 48.3627 95.7982 48.8232 95.7982C49.3389 95.7982 49.7395 95.614 50.025 95.2456C50.3151 94.8773 50.4601 94.3754 50.4601 93.7399C50.4601 93.1275 50.3012 92.644 49.9835 92.2895C49.6658 91.9303 49.2284 91.7507 48.6712 91.7507C48.3673 91.7507 48.1094 91.7922 47.8976 91.8751C47.6858 91.9533 47.4556 92.1099 47.2069 92.3447L45.867 92.0132Z" fill="#637173"/>
<path d="M50.6397 56.8952V58.2834H50.4325C49.4931 58.2973 48.7426 58.5551 48.1808 59.057C47.6191 59.5589 47.2852 60.2703 47.1793 61.1913C47.7181 60.6249 48.4064 60.3417 49.2445 60.3417C50.1332 60.3417 50.8331 60.6548 51.3442 61.2811C51.8599 61.9073 52.1178 62.7154 52.1178 63.7054C52.1178 64.7276 51.8162 65.5565 51.213 66.1919C50.6144 66.8227 49.827 67.1381 48.8508 67.1381C47.847 67.1381 47.032 66.7675 46.4057 66.0261C45.7841 65.2848 45.4733 64.3132 45.4733 63.1114V62.5381C45.4733 60.7746 45.9015 59.3932 46.758 58.394C47.6191 57.3948 48.8554 56.8952 50.467 56.8952H50.6397ZM48.837 61.6955C48.4686 61.6955 48.1302 61.7991 47.8217 62.0063C47.5178 62.2135 47.2944 62.4898 47.1517 62.8351V63.3462C47.1517 64.0922 47.3082 64.6862 47.6214 65.1282C47.9345 65.5657 48.3397 65.7844 48.837 65.7844C49.3343 65.7844 49.728 65.5979 50.0181 65.2249C50.3082 64.8519 50.4532 64.3616 50.4532 63.7537C50.4532 63.1459 50.3059 62.6509 50.0112 62.2688C49.7165 61.8866 49.3251 61.6955 48.837 61.6955Z" fill="#637173"/>
<path d="M52.1109 27.8759L48.091 37H46.3298L50.3427 28.2904H45.1418V26.9435H52.1109V27.8759Z" fill="#637173"/>
<path d="M15.7266 124.992L15.7266 127.403L9.46888 130.967H15.7266V133.391H5.67007V130.967L11.9277 127.409H5.67007V124.992H15.7266ZM14.9185 119.114C15.5493 119.607 15.8647 120.272 15.8647 121.11C15.8647 121.93 15.6276 122.552 15.1533 122.975C14.6744 123.394 13.9883 123.604 13.095 123.604H8.25326V121.276H13.1088C13.7489 121.276 14.0689 120.965 14.0689 120.344C14.0689 119.81 13.8778 119.43 13.4956 119.204H8.25326V116.863H15.7266V119.045L14.9185 119.114ZM8.25326 113.381L9.13044 113.306C8.45356 112.776 8.11512 112.065 8.11512 111.171C8.11512 110.227 8.4904 109.59 9.24095 109.258C8.4904 108.752 8.11512 108.019 8.11512 107.062C8.11512 105.547 9.03144 104.769 10.8641 104.727H15.7266V107.062H11.0091C10.6269 107.062 10.3484 107.126 10.1734 107.255C9.99841 107.384 9.91092 107.619 9.91092 107.96C9.91092 108.42 10.1158 108.763 10.5256 108.989L10.6223 108.982H15.7266V111.316H11.0229C10.6315 111.316 10.3484 111.378 10.1734 111.503C9.99841 111.627 9.91092 111.864 9.91092 112.214C9.91092 112.661 10.1158 113.002 10.5256 113.236H15.7266V115.564H8.25326V113.381ZM12.0521 96.4595C13.2769 96.4595 14.2185 96.7128 14.877 97.2193C15.5355 97.7258 15.8647 98.4395 15.8647 99.3604C15.8647 100.12 15.5631 100.733 14.9599 101.198L15.7266 101.294V103.38H5.11751L5.11751 101.053H8.85416C8.36147 100.62 8.11512 100.06 8.11512 99.3742C8.11512 98.4441 8.44896 97.7258 9.11663 97.2193C9.7843 96.7128 10.7236 96.4595 11.9347 96.4595H12.0521ZM11.907 98.7941C11.1887 98.7941 10.6776 98.8908 10.3737 99.0841C10.0652 99.2729 9.91092 99.5653 9.91092 99.9613C9.91092 100.486 10.1112 100.85 10.5118 101.053H13.4818C13.8778 100.855 14.0758 100.486 14.0758 99.9475C14.0758 99.3996 13.8087 99.0519 13.2746 98.9046C13.0121 98.8309 12.5563 98.7941 11.907 98.7941ZM15.8647 91.8111C15.8647 92.9577 15.524 93.8855 14.8425 94.5946C14.1564 95.3037 13.2654 95.6583 12.1695 95.6583H11.9761C11.2117 95.6583 10.5372 95.5179 9.95237 95.237C9.36758 94.9515 8.91633 94.5371 8.59861 93.9937C8.27628 93.4504 8.11512 92.8057 8.11512 92.0598C8.11512 91.0099 8.44205 90.1811 9.09591 89.5733C9.74516 88.9655 10.6523 88.6616 11.8172 88.6616H12.722V93.2892C13.1411 93.2063 13.4703 93.0245 13.7097 92.7436C13.9492 92.4627 14.0689 92.0989 14.0689 91.6523C14.0689 90.9155 13.811 90.34 13.2953 89.9255L14.5524 88.8619C14.953 89.152 15.273 89.5641 15.5124 90.0982C15.7473 90.6278 15.8647 91.1987 15.8647 91.8111ZM9.91092 92.0736C9.91092 92.7551 10.3622 93.1603 11.2647 93.2892V90.9409H11.0851C10.7121 90.9317 10.4243 91.0261 10.2217 91.2241C10.0145 91.4221 9.91092 91.7052 9.91092 92.0736ZM10.3599 83.1982L10.3046 83.9649C10.3046 84.697 10.5349 85.1667 10.9953 85.3739H15.7266V87.7015H8.25326V85.5189L9.21332 85.443C8.48119 85.0516 8.11512 84.5059 8.11512 83.806C8.11512 83.5574 8.14275 83.3409 8.198 83.1568L10.3599 83.1982Z" fill="#637173"/>
<path d="M179.858 291.313L181.861 283.991H184.568L181.184 294.048H178.532L175.175 283.991H177.862L179.858 291.313ZM188.512 294.186C187.366 294.186 186.438 293.845 185.729 293.164C185.019 292.478 184.665 291.587 184.665 290.491V290.297C184.665 289.533 184.805 288.858 185.086 288.274C185.372 287.689 185.786 287.238 186.329 286.92C186.873 286.598 187.517 286.436 188.263 286.436C189.313 286.436 190.142 286.763 190.75 287.417C191.358 288.066 191.662 288.974 191.662 290.139V291.043H187.034C187.117 291.462 187.299 291.792 187.58 292.031C187.861 292.27 188.224 292.39 188.671 292.39C189.408 292.39 189.983 292.132 190.398 291.617L191.461 292.874C191.171 293.274 190.759 293.594 190.225 293.834C189.695 294.069 189.124 294.186 188.512 294.186ZM188.25 288.232C187.568 288.232 187.163 288.683 187.034 289.586H189.382V289.406C189.392 289.033 189.297 288.746 189.099 288.543C188.901 288.336 188.618 288.232 188.25 288.232ZM192.332 290.256C192.332 289.501 192.456 288.833 192.705 288.253C192.953 287.673 193.31 287.226 193.775 286.913C194.24 286.595 194.781 286.436 195.398 286.436C196.176 286.436 196.784 286.699 197.222 287.224L197.305 286.575H199.418V293.765C199.418 294.423 199.264 294.994 198.955 295.478C198.651 295.966 198.209 296.339 197.629 296.597C197.049 296.859 196.377 296.99 195.612 296.99C195.064 296.99 194.533 296.887 194.017 296.679C193.506 296.472 193.114 296.203 192.843 295.871L193.817 294.504C194.249 295.015 194.82 295.27 195.53 295.27C196.561 295.27 197.077 294.741 197.077 293.682V293.447C196.63 293.94 196.066 294.186 195.384 294.186C194.473 294.186 193.736 293.838 193.174 293.143C192.612 292.443 192.332 291.508 192.332 290.339V290.256ZM194.666 290.401C194.666 291.013 194.781 291.499 195.012 291.858C195.242 292.213 195.564 292.39 195.978 292.39C196.48 292.39 196.846 292.222 197.077 291.886V288.743C196.851 288.403 196.49 288.232 195.992 288.232C195.578 288.232 195.253 288.419 195.018 288.792C194.784 289.16 194.666 289.696 194.666 290.401ZM204.357 294.186C203.21 294.186 202.282 293.845 201.573 293.164C200.864 292.478 200.509 291.587 200.509 290.491V290.297C200.509 289.533 200.65 288.858 200.931 288.274C201.216 287.689 201.631 287.238 202.174 286.92C202.717 286.598 203.362 286.436 204.108 286.436C205.158 286.436 205.987 286.763 206.594 287.417C207.202 288.066 207.506 288.974 207.506 290.139V291.043H202.879C202.961 291.462 203.143 291.792 203.424 292.031C203.705 292.27 204.069 292.39 204.515 292.39C205.252 292.39 205.828 292.132 206.242 291.617L207.306 292.874C207.016 293.274 206.604 293.594 206.07 293.834C205.54 294.069 204.969 294.186 204.357 294.186ZM204.094 288.232C203.413 288.232 203.007 288.683 202.879 289.586H205.227V289.406C205.236 289.033 205.142 288.746 204.944 288.543C204.746 288.336 204.462 288.232 204.094 288.232ZM211.16 284.717V286.575H212.389V288.191H211.16V291.61C211.16 291.891 211.211 292.086 211.312 292.197C211.413 292.307 211.613 292.363 211.913 292.363C212.143 292.363 212.336 292.349 212.493 292.321V293.986C212.074 294.119 211.636 294.186 211.181 294.186C210.379 294.186 209.788 293.997 209.406 293.62C209.023 293.242 208.832 292.669 208.832 291.9V288.191H207.879V286.575H208.832V284.717H211.16ZM217.521 294.048C217.438 293.896 217.365 293.673 217.3 293.378C216.872 293.917 216.273 294.186 215.504 294.186C214.8 294.186 214.201 293.974 213.709 293.551C213.216 293.122 212.97 292.586 212.97 291.941C212.97 291.131 213.269 290.518 213.867 290.104C214.466 289.69 215.336 289.482 216.478 289.482H217.197V289.089C217.197 288.403 216.9 288.06 216.306 288.06C215.753 288.06 215.477 288.331 215.477 288.875H213.149C213.149 288.152 213.455 287.565 214.068 287.113C214.685 286.662 215.47 286.436 216.423 286.436C217.376 286.436 218.129 286.669 218.682 287.134C219.234 287.599 219.517 288.237 219.531 289.047V292.356C219.54 293.042 219.646 293.567 219.849 293.93V294.048H217.521ZM216.064 292.528C216.354 292.528 216.593 292.466 216.782 292.342C216.976 292.218 217.114 292.077 217.197 291.921V290.726H216.52C215.709 290.726 215.304 291.089 215.304 291.817C215.304 292.029 215.375 292.201 215.518 292.335C215.661 292.464 215.843 292.528 216.064 292.528ZM227.764 290.373C227.764 291.598 227.511 292.54 227.004 293.198C226.498 293.857 225.784 294.186 224.863 294.186C224.104 294.186 223.491 293.884 223.026 293.281L222.929 294.048H220.843V283.439H223.171V287.175C223.604 286.683 224.163 286.436 224.849 286.436C225.78 286.436 226.498 286.77 227.004 287.438C227.511 288.106 227.764 289.045 227.764 290.256V290.373ZM225.43 290.228C225.43 289.51 225.333 288.999 225.14 288.695C224.951 288.386 224.658 288.232 224.262 288.232C223.737 288.232 223.374 288.433 223.171 288.833V291.803C223.369 292.199 223.737 292.397 224.276 292.397C224.824 292.397 225.172 292.13 225.319 291.596C225.393 291.333 225.43 290.878 225.43 290.228ZM231.252 294.048H228.918V283.439H231.252V294.048ZM236.308 294.186C235.162 294.186 234.234 293.845 233.525 293.164C232.815 292.478 232.461 291.587 232.461 290.491V290.297C232.461 289.533 232.601 288.858 232.882 288.274C233.168 287.689 233.582 287.238 234.125 286.92C234.669 286.598 235.313 286.436 236.059 286.436C237.109 286.436 237.938 286.763 238.546 287.417C239.154 288.066 239.458 288.974 239.458 290.139V291.043H234.83C234.913 291.462 235.095 291.792 235.376 292.031C235.657 292.27 236.02 292.39 236.467 292.39C237.204 292.39 237.779 292.132 238.194 291.617L239.257 292.874C238.967 293.274 238.555 293.594 238.021 293.834C237.491 294.069 236.92 294.186 236.308 294.186ZM236.046 288.232C235.364 288.232 234.959 288.683 234.83 289.586H237.178V289.406C237.188 289.033 237.093 288.746 236.895 288.543C236.697 288.336 236.414 288.232 236.046 288.232ZM244.313 291.948C244.313 291.75 244.21 291.591 244.002 291.472C243.795 291.352 243.401 291.228 242.821 291.099C242.241 290.97 241.762 290.802 241.385 290.594C241.007 290.383 240.719 290.127 240.521 289.828C240.323 289.528 240.224 289.185 240.224 288.799C240.224 288.112 240.507 287.548 241.074 287.106C241.64 286.66 242.382 286.436 243.298 286.436C244.283 286.436 245.075 286.66 245.674 287.106C246.272 287.553 246.572 288.14 246.572 288.868H244.237C244.237 288.269 243.922 287.97 243.291 287.97C243.047 287.97 242.842 288.039 242.676 288.177C242.51 288.31 242.428 288.479 242.428 288.681C242.428 288.888 242.529 289.056 242.732 289.185C242.934 289.314 243.256 289.42 243.698 289.503C244.145 289.586 244.537 289.685 244.873 289.8C245.996 290.187 246.558 290.88 246.558 291.879C246.558 292.561 246.254 293.115 245.646 293.544C245.043 293.972 244.26 294.186 243.298 294.186C242.658 294.186 242.087 294.071 241.585 293.841C241.083 293.61 240.692 293.297 240.411 292.901C240.13 292.505 239.989 292.089 239.989 291.651H242.165C242.174 291.996 242.289 292.25 242.51 292.411C242.732 292.567 243.015 292.646 243.36 292.646C243.678 292.646 243.915 292.581 244.071 292.452C244.233 292.323 244.313 292.155 244.313 291.948Z" fill="#637173"/>
<path d="M86.5064 258.212C86.3821 259.276 85.9884 260.098 85.3253 260.678C84.6669 261.254 83.7897 261.541 82.6938 261.541C81.5058 261.541 80.5526 261.116 79.8343 260.264C79.1206 259.412 78.7637 258.272 78.7637 256.845V255.878C78.7637 254.943 78.9295 254.121 79.261 253.412C79.5972 252.703 80.0715 252.16 80.6839 251.782C81.2963 251.4 82.0054 251.209 82.8112 251.209C83.8795 251.209 84.7359 251.508 85.3806 252.107C86.0252 252.701 86.4005 253.525 86.5064 254.579H85.1734C85.0583 253.778 84.8073 253.198 84.4205 252.839C84.0383 252.48 83.5019 252.3 82.8112 252.3C81.964 252.3 81.2986 252.613 80.8151 253.239C80.3362 253.866 80.0968 254.757 80.0968 255.912V256.886C80.0968 257.977 80.3247 258.845 80.7806 259.49C81.2364 260.135 81.8742 260.457 82.6938 260.457C83.4305 260.457 83.9946 260.291 84.386 259.96C84.782 259.624 85.0445 259.041 85.1734 258.212H86.5064ZM92.7365 261.403C92.6628 261.256 92.6029 260.994 92.5569 260.616C91.9629 261.233 91.2538 261.541 90.4296 261.541C89.6928 261.541 89.0873 261.334 88.613 260.92C88.1434 260.501 87.9085 259.971 87.9085 259.331C87.9085 258.553 88.2032 257.95 88.7926 257.522C89.3866 257.089 90.22 256.872 91.2929 256.872H92.5362V256.285C92.5362 255.839 92.4026 255.484 92.1356 255.222C91.8685 254.955 91.4748 254.821 90.9545 254.821C90.4986 254.821 90.1164 254.936 89.8079 255.166C89.4994 255.397 89.3452 255.675 89.3452 256.002H88.0605C88.0605 255.629 88.1917 255.27 88.4542 254.925C88.7212 254.575 89.0804 254.298 89.5317 254.096C89.9875 253.893 90.4871 253.792 91.0305 253.792C91.8915 253.792 92.5661 254.008 93.0542 254.441C93.5423 254.869 93.7955 255.461 93.814 256.216V259.656C93.814 260.342 93.9014 260.888 94.0764 261.293V261.403H92.7365ZM90.616 260.429C91.0166 260.429 91.3965 260.326 91.7557 260.119C92.1148 259.911 92.375 259.642 92.5362 259.311V257.777H91.5347C89.9691 257.777 89.1863 258.235 89.1863 259.152C89.1863 259.552 89.3198 259.865 89.5869 260.091C89.854 260.317 90.197 260.429 90.616 260.429ZM99.4293 255.077C99.2359 255.044 99.0264 255.028 98.8008 255.028C97.9627 255.028 97.394 255.385 97.0947 256.099V261.403H95.817V253.93H97.0602L97.0809 254.793C97.5 254.126 98.094 253.792 98.8629 253.792C99.1116 253.792 99.3004 253.824 99.4293 253.889V255.077ZM104.223 255.077C104.029 255.044 103.82 255.028 103.594 255.028C102.756 255.028 102.187 255.385 101.888 256.099V261.403H100.61V253.93H101.854L101.874 254.793C102.293 254.126 102.887 253.792 103.656 253.792C103.905 253.792 104.094 253.824 104.223 253.889V255.077ZM104.927 257.598C104.927 256.865 105.07 256.207 105.355 255.622C105.646 255.037 106.046 254.586 106.557 254.268C107.073 253.951 107.66 253.792 108.319 253.792C109.336 253.792 110.158 254.144 110.784 254.849C111.415 255.553 111.731 256.49 111.731 257.66V257.75C111.731 258.477 111.59 259.131 111.309 259.711C111.033 260.287 110.635 260.736 110.114 261.058C109.599 261.38 109.005 261.541 108.332 261.541C107.319 261.541 106.497 261.189 105.867 260.485C105.24 259.78 104.927 258.848 104.927 257.687V257.598ZM106.212 257.75C106.212 258.578 106.403 259.244 106.785 259.746C107.172 260.248 107.688 260.499 108.332 260.499C108.982 260.499 109.497 260.245 109.879 259.739C110.262 259.228 110.453 258.514 110.453 257.598C110.453 256.778 110.257 256.115 109.866 255.608C109.479 255.097 108.963 254.842 108.319 254.842C107.688 254.842 107.179 255.093 106.792 255.595C106.405 256.096 106.212 256.815 106.212 257.75ZM115.067 252.12V253.93H116.462V254.918H115.067V259.552C115.067 259.852 115.129 260.077 115.253 260.229C115.377 260.376 115.589 260.45 115.889 260.45C116.036 260.45 116.238 260.423 116.496 260.367V261.403C116.16 261.495 115.833 261.541 115.516 261.541C114.945 261.541 114.514 261.369 114.224 261.023C113.934 260.678 113.789 260.188 113.789 259.552V254.918H112.428V253.93H113.789V252.12H115.067ZM122.312 259.421C122.312 259.076 122.181 258.809 121.918 258.62C121.66 258.426 121.207 258.261 120.558 258.123C119.913 257.984 119.4 257.819 119.017 257.625C118.64 257.432 118.359 257.202 118.175 256.935C117.995 256.667 117.905 256.35 117.905 255.981C117.905 255.369 118.163 254.851 118.679 254.427C119.199 254.004 119.862 253.792 120.668 253.792C121.515 253.792 122.201 254.011 122.726 254.448C123.256 254.885 123.521 255.445 123.521 256.126H122.236C122.236 255.776 122.086 255.475 121.787 255.222C121.492 254.968 121.119 254.842 120.668 254.842C120.203 254.842 119.839 254.943 119.577 255.146C119.314 255.348 119.183 255.613 119.183 255.94C119.183 256.248 119.305 256.481 119.549 256.638C119.793 256.794 120.233 256.944 120.868 257.086C121.508 257.229 122.026 257.4 122.422 257.598C122.818 257.796 123.111 258.035 123.3 258.316C123.493 258.592 123.59 258.931 123.59 259.331C123.59 259.999 123.323 260.535 122.789 260.941C122.254 261.341 121.561 261.541 120.71 261.541C120.111 261.541 119.581 261.436 119.121 261.224C118.66 261.012 118.299 260.717 118.037 260.34C117.779 259.957 117.65 259.545 117.65 259.103H118.928C118.951 259.532 119.121 259.872 119.439 260.126C119.761 260.374 120.185 260.499 120.71 260.499C121.193 260.499 121.58 260.402 121.87 260.208C122.165 260.01 122.312 259.748 122.312 259.421Z" fill="#637173"/>
<path d="M178.482 252.438H175.249V261.403H173.93V252.438H170.705V251.347H178.482V252.438ZM178.744 257.598C178.744 256.865 178.887 256.207 179.173 255.622C179.463 255.037 179.863 254.586 180.374 254.268C180.89 253.951 181.477 253.792 182.136 253.792C183.153 253.792 183.975 254.144 184.601 254.849C185.232 255.553 185.548 256.49 185.548 257.66V257.75C185.548 258.477 185.407 259.131 185.126 259.711C184.85 260.287 184.452 260.736 183.931 261.058C183.416 261.38 182.822 261.541 182.149 261.541C181.136 261.541 180.315 261.189 179.684 260.485C179.057 259.78 178.744 258.848 178.744 257.687V257.598ZM180.029 257.75C180.029 258.578 180.22 259.244 180.602 259.746C180.989 260.248 181.505 260.499 182.149 260.499C182.799 260.499 183.314 260.245 183.697 259.739C184.079 259.228 184.27 258.514 184.27 257.598C184.27 256.778 184.074 256.115 183.683 255.608C183.296 255.097 182.78 254.842 182.136 254.842C181.505 254.842 180.996 255.093 180.609 255.595C180.222 256.096 180.029 256.815 180.029 257.75ZM188.352 253.93L188.386 254.759C188.934 254.114 189.673 253.792 190.604 253.792C191.649 253.792 192.36 254.192 192.738 254.994C192.986 254.635 193.309 254.344 193.705 254.123C194.105 253.902 194.577 253.792 195.121 253.792C196.76 253.792 197.593 254.66 197.621 256.396V261.403H196.343V256.472C196.343 255.938 196.221 255.539 195.977 255.277C195.733 255.01 195.323 254.876 194.748 254.876C194.273 254.876 193.88 255.019 193.567 255.304C193.254 255.585 193.072 255.965 193.021 256.444V261.403H191.736V256.506C191.736 255.42 191.204 254.876 190.141 254.876C189.303 254.876 188.729 255.233 188.421 255.947V261.403H187.143V253.93H188.352ZM204.169 261.403C204.095 261.256 204.035 260.994 203.989 260.616C203.395 261.233 202.686 261.541 201.862 261.541C201.125 261.541 200.52 261.334 200.045 260.92C199.576 260.501 199.341 259.971 199.341 259.331C199.341 258.553 199.636 257.95 200.225 257.522C200.819 257.089 201.652 256.872 202.725 256.872H203.968V256.285C203.968 255.839 203.835 255.484 203.568 255.222C203.301 254.955 202.907 254.821 202.387 254.821C201.931 254.821 201.549 254.936 201.24 255.166C200.932 255.397 200.777 255.675 200.777 256.002H199.493C199.493 255.629 199.624 255.27 199.886 254.925C200.154 254.575 200.513 254.298 200.964 254.096C201.42 253.893 201.919 253.792 202.463 253.792C203.324 253.792 203.998 254.008 204.486 254.441C204.975 254.869 205.228 255.461 205.246 256.216V259.656C205.246 260.342 205.334 260.888 205.509 261.293V261.403H204.169ZM202.048 260.429C202.449 260.429 202.829 260.326 203.188 260.119C203.547 259.911 203.807 259.642 203.968 259.311V257.777H202.967C201.401 257.777 200.619 258.235 200.619 259.152C200.619 259.552 200.752 259.865 201.019 260.091C201.286 260.317 201.629 260.429 202.048 260.429ZM208.983 252.12V253.93H210.378V254.918H208.983V259.552C208.983 259.852 209.045 260.077 209.169 260.229C209.294 260.376 209.506 260.45 209.805 260.45C209.952 260.45 210.155 260.423 210.413 260.367V261.403C210.077 261.495 209.75 261.541 209.432 261.541C208.861 261.541 208.43 261.369 208.14 261.023C207.85 260.678 207.705 260.188 207.705 259.552V254.918H206.344V253.93H207.705V252.12H208.983ZM211.4 257.598C211.4 256.865 211.543 256.207 211.829 255.622C212.119 255.037 212.519 254.586 213.03 254.268C213.546 253.951 214.133 253.792 214.792 253.792C215.809 253.792 216.631 254.144 217.257 254.849C217.888 255.553 218.204 256.49 218.204 257.66V257.75C218.204 258.477 218.063 259.131 217.782 259.711C217.506 260.287 217.108 260.736 216.587 261.058C216.072 261.38 215.478 261.541 214.805 261.541C213.792 261.541 212.971 261.189 212.34 260.485C211.713 259.78 211.4 258.848 211.4 257.687V257.598ZM212.685 257.75C212.685 258.578 212.876 259.244 213.258 259.746C213.645 260.248 214.161 260.499 214.805 260.499C215.455 260.499 215.97 260.245 216.353 259.739C216.735 259.228 216.926 258.514 216.926 257.598C216.926 256.778 216.73 256.115 216.339 255.608C215.952 255.097 215.436 254.842 214.792 254.842C214.161 254.842 213.652 255.093 213.265 255.595C212.878 256.096 212.685 256.815 212.685 257.75ZM222.907 261.541C221.894 261.541 221.07 261.21 220.435 260.547C219.799 259.879 219.481 258.988 219.481 257.874V257.639C219.481 256.898 219.622 256.237 219.903 255.657C220.188 255.072 220.584 254.616 221.091 254.289C221.602 253.958 222.154 253.792 222.748 253.792C223.72 253.792 224.475 254.112 225.014 254.752C225.553 255.392 225.822 256.308 225.822 257.501V258.033H220.759C220.778 258.769 220.992 259.366 221.402 259.822C221.816 260.273 222.341 260.499 222.976 260.499C223.428 260.499 223.81 260.406 224.123 260.222C224.436 260.038 224.71 259.794 224.945 259.49L225.725 260.098C225.099 261.06 224.16 261.541 222.907 261.541ZM222.748 254.842C222.233 254.842 221.8 255.031 221.45 255.408C221.1 255.781 220.884 256.306 220.801 256.983H224.544V256.886C224.507 256.237 224.332 255.735 224.019 255.38C223.706 255.021 223.283 254.842 222.748 254.842ZM231.658 259.421C231.658 259.076 231.527 258.809 231.265 258.62C231.007 258.426 230.553 258.261 229.904 258.123C229.259 257.984 228.746 257.819 228.364 257.625C227.986 257.432 227.705 257.202 227.521 256.935C227.342 256.667 227.252 256.35 227.252 255.981C227.252 255.369 227.51 254.851 228.025 254.427C228.546 254.004 229.209 253.792 230.015 253.792C230.862 253.792 231.548 254.011 232.073 254.448C232.602 254.885 232.867 255.445 232.867 256.126H231.582C231.582 255.776 231.433 255.475 231.133 255.222C230.839 254.968 230.466 254.842 230.015 254.842C229.549 254.842 229.186 254.943 228.923 255.146C228.661 255.348 228.53 255.613 228.53 255.94C228.53 256.248 228.652 256.481 228.896 256.638C229.14 256.794 229.579 256.944 230.215 257.086C230.855 257.229 231.373 257.4 231.769 257.598C232.165 257.796 232.457 258.035 232.646 258.316C232.839 258.592 232.936 258.931 232.936 259.331C232.936 259.999 232.669 260.535 232.135 260.941C231.601 261.341 230.908 261.541 230.056 261.541C229.457 261.541 228.928 261.436 228.467 261.224C228.007 261.012 227.645 260.717 227.383 260.34C227.125 259.957 226.996 259.545 226.996 259.103H228.274C228.297 259.532 228.467 259.872 228.785 260.126C229.107 260.374 229.531 260.499 230.056 260.499C230.539 260.499 230.926 260.402 231.216 260.208C231.511 260.01 231.658 259.748 231.658 259.421Z" fill="#637173"/>
<path d="M281.707 257.466V261.403H280.381V251.347H284.09C285.19 251.347 286.051 251.628 286.673 252.189C287.299 252.751 287.612 253.495 287.612 254.42C287.612 255.397 287.306 256.149 286.694 256.679C286.086 257.204 285.213 257.466 284.076 257.466H281.707ZM281.707 256.382H284.09C284.799 256.382 285.342 256.216 285.72 255.885C286.097 255.549 286.286 255.065 286.286 254.434C286.286 253.836 286.097 253.357 285.72 252.998C285.342 252.638 284.824 252.452 284.166 252.438H281.707V256.382ZM292.109 261.541C291.096 261.541 290.272 261.21 289.636 260.547C289.001 259.879 288.683 258.988 288.683 257.874V257.639C288.683 256.898 288.823 256.237 289.104 255.657C289.39 255.072 289.786 254.616 290.292 254.289C290.803 253.958 291.356 253.792 291.95 253.792C292.922 253.792 293.677 254.112 294.215 254.752C294.754 255.392 295.024 256.308 295.024 257.501V258.033H289.961C289.979 258.769 290.193 259.366 290.603 259.822C291.018 260.273 291.542 260.499 292.178 260.499C292.629 260.499 293.011 260.406 293.324 260.222C293.638 260.038 293.912 259.794 294.146 259.49L294.927 260.098C294.301 261.06 293.361 261.541 292.109 261.541ZM291.95 254.842C291.434 254.842 291.001 255.031 290.651 255.408C290.302 255.781 290.085 256.306 290.002 256.983H293.746V256.886C293.709 256.237 293.534 255.735 293.221 255.38C292.908 255.021 292.484 254.842 291.95 254.842ZM302.821 257.75C302.821 258.887 302.561 259.803 302.041 260.499C301.521 261.194 300.816 261.541 299.927 261.541C299.02 261.541 298.307 261.254 297.786 260.678V264.277H296.509V253.93H297.676L297.738 254.759C298.258 254.114 298.981 253.792 299.907 253.792C300.805 253.792 301.514 254.13 302.034 254.807C302.559 255.484 302.821 256.426 302.821 257.632V257.75ZM301.544 257.605C301.544 256.762 301.364 256.096 301.005 255.608C300.646 255.12 300.153 254.876 299.527 254.876C298.753 254.876 298.173 255.219 297.786 255.905V259.476C298.169 260.158 298.753 260.499 299.541 260.499C300.153 260.499 300.639 260.257 300.998 259.773C301.362 259.285 301.544 258.562 301.544 257.605ZM310.764 257.75C310.764 258.887 310.504 259.803 309.984 260.499C309.464 261.194 308.759 261.541 307.87 261.541C306.963 261.541 306.25 261.254 305.729 260.678V264.277H304.452V253.93H305.619L305.681 254.759C306.201 254.114 306.924 253.792 307.85 253.792C308.748 253.792 309.457 254.13 309.977 254.807C310.502 255.484 310.764 256.426 310.764 257.632V257.75ZM309.487 257.605C309.487 256.762 309.307 256.096 308.948 255.608C308.589 255.12 308.096 254.876 307.47 254.876C306.696 254.876 306.116 255.219 305.729 255.905V259.476C306.111 260.158 306.696 260.499 307.484 260.499C308.096 260.499 308.582 260.257 308.941 259.773C309.305 259.285 309.487 258.562 309.487 257.605ZM315.496 261.541C314.483 261.541 313.658 261.21 313.023 260.547C312.388 259.879 312.07 258.988 312.07 257.874V257.639C312.07 256.898 312.21 256.237 312.491 255.657C312.777 255.072 313.173 254.616 313.679 254.289C314.19 253.958 314.743 253.792 315.337 253.792C316.308 253.792 317.064 254.112 317.602 254.752C318.141 255.392 318.41 256.308 318.41 257.501V258.033H313.348C313.366 258.769 313.58 259.366 313.99 259.822C314.404 260.273 314.929 260.499 315.565 260.499C316.016 260.499 316.398 260.406 316.711 260.222C317.024 260.038 317.298 259.794 317.533 259.49L318.314 260.098C317.688 261.06 316.748 261.541 315.496 261.541ZM315.337 254.842C314.821 254.842 314.388 255.031 314.038 255.408C313.688 255.781 313.472 256.306 313.389 256.983H317.133V256.886C317.096 256.237 316.921 255.735 316.608 255.38C316.295 255.021 315.871 254.842 315.337 254.842ZM323.508 255.077C323.314 255.044 323.105 255.028 322.879 255.028C322.041 255.028 321.473 255.385 321.173 256.099V261.403H319.895V253.93H321.139L321.159 254.793C321.578 254.126 322.172 253.792 322.941 253.792C323.19 253.792 323.379 253.824 323.508 253.889V255.077ZM329.04 259.421C329.04 259.076 328.909 258.809 328.647 258.62C328.389 258.426 327.935 258.261 327.286 258.123C326.641 257.984 326.128 257.819 325.746 257.625C325.368 257.432 325.087 257.202 324.903 256.935C324.723 256.667 324.634 256.35 324.634 255.981C324.634 255.369 324.891 254.851 325.407 254.427C325.927 254.004 326.591 253.792 327.396 253.792C328.244 253.792 328.93 254.011 329.455 254.448C329.984 254.885 330.249 255.445 330.249 256.126H328.964C328.964 255.776 328.815 255.475 328.515 255.222C328.221 254.968 327.848 254.842 327.396 254.842C326.931 254.842 326.568 254.943 326.305 255.146C326.043 255.348 325.911 255.613 325.911 255.94C325.911 256.248 326.033 256.481 326.277 256.638C326.521 256.794 326.961 256.944 327.597 257.086C328.237 257.229 328.755 257.4 329.151 257.598C329.547 257.796 329.839 258.035 330.028 258.316C330.221 258.592 330.318 258.931 330.318 259.331C330.318 259.999 330.051 260.535 329.517 260.941C328.983 261.341 328.29 261.541 327.438 261.541C326.839 261.541 326.31 261.436 325.849 261.224C325.389 261.012 325.027 260.717 324.765 260.34C324.507 259.957 324.378 259.545 324.378 259.103H325.656C325.679 259.532 325.849 259.872 326.167 260.126C326.489 260.374 326.913 260.499 327.438 260.499C327.921 260.499 328.308 260.402 328.598 260.208C328.893 260.01 329.04 259.748 329.04 259.421Z" fill="#637173"/>
<rect x="67" y="65" width="69" height="180" fill="#FB9F34"/>
<rect x="167" y="125" width="69" height="120" fill="#D93D3D"/>
<rect x="270" y="185" width="69" height="60" fill="#FDCC13"/>
<path d="M55.3847 -0.384705C55.1722 -0.597168 54.8278 -0.597168 54.6153 -0.384705L51.1529 3.07764C50.9405 3.2901 50.9405 3.63458 51.1529 3.84705C51.3654 4.05951 51.7099 4.05951 51.9224 3.84705L55 0.769409L58.0776 3.84705C58.2901 4.05951 58.6346 4.05951 58.847 3.84705C59.0595 3.63458 59.0595 3.2901 58.847 3.07764L55.3847 -0.384705ZM55.5441 245L55.544 -2.37814e-08L54.4559 2.37814e-08L54.4559 245L55.5441 245Z" fill="#637173"/>
<path d="M368.848 245.385C369.06 245.172 369.06 244.828 368.848 244.615L365.385 241.153C365.173 240.941 364.829 240.941 364.616 241.153C364.404 241.365 364.404 241.71 364.616 241.922L367.694 245L364.616 248.078C364.404 248.29 364.404 248.635 364.616 248.847C364.829 249.06 365.173 249.06 365.385 248.847L368.848 245.385ZM54 245.544L368.463 245.544L368.463 244.456L54 244.456L54 245.544Z" fill="#637173"/>
</g>
<defs>
<clipPath id="clip0_5611_99980">
<rect width="370" height="298" rx="5.44054" fill="white"/>
</clipPath>
</defs>
</svg>
