<svg width="38" height="50" viewBox="0 0 38 50" fill="none" xmlns="http://www.w3.org/2000/svg">
<path d="M24.8055 12.404H22.4115V15.5H20.6655V12.404H13.6635V11.144L20.1075 2.9H22.0515L15.8775 10.856H20.7195V8.12H22.4115V10.856H24.8055V12.404Z" fill="white"/>
<path d="M18.296 38.922C20.096 38.922 21.416 39.264 22.256 39.948C23.108 40.62 23.534 41.544 23.534 42.72C23.534 43.464 23.354 44.136 22.994 44.736C22.646 45.324 22.112 45.792 21.392 46.14C20.684 46.476 19.808 46.644 18.764 46.644C17.876 46.644 17.018 46.512 16.19 46.248C15.362 45.972 14.678 45.594 14.138 45.114L14.966 43.692C15.398 44.1 15.95 44.43 16.622 44.682C17.294 44.922 18.002 45.042 18.746 45.042C19.694 45.042 20.426 44.844 20.942 44.448C21.47 44.04 21.734 43.488 21.734 42.792C21.734 42.036 21.446 41.466 20.87 41.082C20.294 40.686 19.31 40.488 17.918 40.488H15.056L15.722 33.9H22.832V35.466H17.234L16.892 38.922H18.296Z" fill="white"/>
<line x1="0.5" y1="24" x2="37.5" y2="24" stroke="white"/>
</svg>
