<svg width="205" height="44" viewBox="0 0 205 44" fill="none" xmlns="http://www.w3.org/2000/svg">
<path d="M21.271 15.4V28H19.489V16.966H16.645V15.4H21.271ZM32.8831 26.434V28H23.8291V26.776L28.9591 21.826C29.5831 21.226 30.0031 20.71 30.2191 20.278C30.4351 19.834 30.5431 19.39 30.5431 18.946C30.5431 18.286 30.3091 17.776 29.8411 17.416C29.3851 17.044 28.7251 16.858 27.8611 16.858C26.4691 16.858 25.3951 17.314 24.6391 18.226L23.4151 17.164C23.9071 16.564 24.5491 16.096 25.3411 15.76C26.1451 15.424 27.0391 15.256 28.0231 15.256C29.3431 15.256 30.3931 15.574 31.1731 16.21C31.9531 16.834 32.3431 17.686 32.3431 18.766C32.3431 19.438 32.1991 20.074 31.9111 20.674C31.6231 21.274 31.0771 21.958 30.2731 22.726L26.4211 26.434H32.8831Z" fill="#2F2F2F"/>
<path d="M5 8H45V6H5V8ZM49 12V32H51V12H49ZM45 36H5V38H45V36ZM1 32V12H-1V32H1ZM5 36C2.79086 36 1 34.2091 1 32H-1C-1 35.3137 1.68629 38 5 38V36ZM49 32C49 34.2091 47.2091 36 45 36V38C48.3137 38 51 35.3137 51 32H49ZM45 8C47.2091 8 49 9.79086 49 12H51C51 8.68629 48.3137 6 45 6V8ZM5 6C1.68629 6 -1 8.68629 -1 12H1C1 9.79086 2.79086 8 5 8V6Z" fill="#2F2F2F"/>
<path d="M57.1614 23.624H66.8454V26.612H57.1614V23.624Z" fill="#2F2F2F"/>
<path d="M104.805 24.904H102.411V28H100.665V24.904H93.6635V23.644L100.107 15.4H102.051L95.8775 23.356H100.719V20.62H102.411V23.356H104.805V24.904Z" fill="#2F2F2F"/>
<path d="M79 8H119V6H79V8ZM123 12V32H125V12H123ZM119 36H79V38H119V36ZM75 32V12H73V32H75ZM79 36C76.7909 36 75 34.2091 75 32H73C73 35.3137 75.6863 38 79 38V36ZM123 32C123 34.2091 121.209 36 119 36V38C122.314 38 125 35.3137 125 32H123ZM119 8C121.209 8 123 9.79086 123 12H125C125 8.68629 122.314 6 119 6V8ZM79 6C75.6863 6 73 8.68629 73 12H75C75 9.79086 76.7909 8 79 8V6Z" fill="#2F2F2F"/>
<path d="M131.435 16.712H147.563V19.556H131.435V16.712ZM131.435 25.244H147.563V28.088H131.435V25.244Z" fill="#2F2F2F"/>
<path d="M182.776 21.394C183.496 21.67 184.048 22.066 184.432 22.582C184.816 23.098 185.008 23.716 185.008 24.436C185.008 25.192 184.804 25.852 184.396 26.416C183.988 26.968 183.406 27.394 182.65 27.694C181.894 27.994 181.006 28.144 179.986 28.144C178.978 28.144 178.096 27.994 177.34 27.694C176.596 27.394 176.02 26.968 175.612 26.416C175.204 25.852 175 25.192 175 24.436C175 23.716 175.186 23.098 175.558 22.582C175.942 22.066 176.494 21.67 177.214 21.394C176.638 21.118 176.2 20.752 175.9 20.296C175.6 19.84 175.45 19.3 175.45 18.676C175.45 17.98 175.636 17.374 176.008 16.858C176.392 16.342 176.926 15.946 177.61 15.67C178.294 15.394 179.086 15.256 179.986 15.256C180.898 15.256 181.696 15.394 182.38 15.67C183.076 15.946 183.61 16.342 183.982 16.858C184.366 17.374 184.558 17.98 184.558 18.676C184.558 19.288 184.402 19.828 184.09 20.296C183.79 20.752 183.352 21.118 182.776 21.394ZM179.986 16.714C179.134 16.714 178.462 16.9 177.97 17.272C177.478 17.632 177.232 18.124 177.232 18.748C177.232 19.372 177.472 19.864 177.952 20.224C178.444 20.584 179.122 20.764 179.986 20.764C180.862 20.764 181.546 20.584 182.038 20.224C182.542 19.864 182.794 19.372 182.794 18.748C182.794 18.124 182.536 17.632 182.02 17.272C181.516 16.9 180.838 16.714 179.986 16.714ZM179.986 26.686C180.982 26.686 181.768 26.482 182.344 26.074C182.92 25.654 183.208 25.09 183.208 24.382C183.208 23.686 182.92 23.14 182.344 22.744C181.768 22.336 180.982 22.132 179.986 22.132C178.99 22.132 178.21 22.336 177.646 22.744C177.082 23.14 176.8 23.686 176.8 24.382C176.8 25.09 177.082 25.654 177.646 26.074C178.21 26.482 178.99 26.686 179.986 26.686Z" fill="#2F2F2F"/>
<path d="M160 8H200V6H160V8ZM204 12V32H206V12H204ZM200 36H160V38H200V36ZM156 32V12H154V32H156ZM160 36C157.791 36 156 34.2091 156 32H154C154 35.3137 156.686 38 160 38V36ZM204 32C204 34.2091 202.209 36 200 36V38C203.314 38 206 35.3137 206 32H204ZM200 8C202.209 8 204 9.79086 204 12H206C206 8.68629 203.314 6 200 6V8ZM160 6C156.686 6 154 8.68629 154 12H156C156 9.79086 157.791 8 160 8V6Z" fill="#2F2F2F"/>
</svg>
