<svg width="642" height="31" viewBox="0 0 642 31" fill="none" xmlns="http://www.w3.org/2000/svg">
<path d="M7.722 21.2007L4.968 17.5467L2.178 21.2007H0.252L4.014 16.3227L0.432 11.6607H2.358L4.986 15.0987L7.596 11.6607H9.486L5.886 16.3227L9.684 21.2007H7.722ZM15.9716 12.0567H24.0356V13.4787H15.9716V12.0567ZM15.9716 16.3227H24.0356V17.7447H15.9716V16.3227Z" fill="#2F2F2F"/>
<path d="M36 5.20068C36 2.43926 38.2386 0.200684 41 0.200684H71C73.7614 0.200684 76 2.43926 76 5.20068V25.2007C76 27.9621 73.7614 30.2007 71 30.2007H41C38.2386 30.2007 36 27.9621 36 25.2007V5.20068Z" fill="#9DD765"/>
<path d="M45.3755 13.8927C46.6115 14.0127 47.5535 14.3967 48.2015 15.0447C48.8495 15.6807 49.1735 16.4967 49.1735 17.4927C49.1735 18.2127 48.9935 18.8667 48.6335 19.4547C48.2735 20.0307 47.7335 20.4927 47.0135 20.8407C46.3055 21.1767 45.4355 21.3447 44.4035 21.3447C43.5035 21.3447 42.6395 21.2127 41.8115 20.9487C40.9835 20.6727 40.3055 20.2947 39.7775 19.8147L40.6055 18.3927C41.0375 18.8007 41.5895 19.1307 42.2615 19.3827C42.9335 19.6227 43.6475 19.7427 44.4035 19.7427C45.3395 19.7427 46.0655 19.5447 46.5815 19.1487C47.1095 18.7527 47.3735 18.2067 47.3735 17.5107C47.3735 16.8147 47.1155 16.2747 46.5995 15.8907C46.0835 15.5067 45.3035 15.3147 44.2595 15.3147H43.2515V14.0547L46.4195 10.1667H40.3535V8.60068H48.6695V9.82468L45.3755 13.8927ZM61.8143 18.1047H59.4203V21.2007H57.6743V18.1047H50.6723V16.8447L57.1163 8.60068H59.0603L52.8863 16.5567H57.7283V13.8207H59.4203V16.5567H61.8143V18.1047ZM71.6966 19.6347V21.2007H62.6426V19.9767L67.7726 15.0267C68.3966 14.4267 68.8166 13.9107 69.0326 13.4787C69.2486 13.0347 69.3566 12.5907 69.3566 12.1467C69.3566 11.4867 69.1226 10.9767 68.6546 10.6167C68.1986 10.2447 67.5386 10.0587 66.6746 10.0587C65.2826 10.0587 64.2086 10.5147 63.4526 11.4267L62.2286 10.3647C62.7206 9.76468 63.3626 9.29668 64.1546 8.96068C64.9586 8.62468 65.8526 8.45668 66.8366 8.45668C68.1566 8.45668 69.2066 8.77468 69.9866 9.41068C70.7666 10.0347 71.1566 10.8867 71.1566 11.9667C71.1566 12.6387 71.0126 13.2747 70.7246 13.8747C70.4366 14.4747 69.8906 15.1587 69.0866 15.9267L65.2346 19.6347H71.6966Z" fill="#065B5B"/>
<path d="M200.712 19.7787V21.2007H192.72V20.0847L198.354 13.0827H192.828V11.6607H200.568V12.7947L194.934 19.7787H200.712ZM207.427 12.0567H215.491V13.4787H207.427V12.0567ZM207.427 16.3227H215.491V17.7447H207.427V16.3227Z" fill="#2F2F2F"/>
<path d="M228 5.20068C228 2.43926 230.239 0.200684 233 0.200684H263C265.761 0.200684 268 2.43926 268 5.20068V25.2007C268 27.9621 265.761 30.2007 263 30.2007H233C230.239 30.2007 228 27.9621 228 25.2007V5.20068Z" fill="#9DD765"/>
<path d="M244.06 8.60068V21.2007H242.278V10.1667H239.434V8.60068H244.06ZM255.996 8.60068V9.82468L250.902 21.2007H248.994L253.98 10.1667H248.22V12.4167H246.492V8.60068H255.996Z" fill="#065B5B"/>
<path d="M387.572 11.5707C388.772 11.5707 389.72 11.9187 390.416 12.6147C391.124 13.3107 391.478 14.3427 391.478 15.7107V21.2007H389.75V15.9087C389.75 14.9847 389.534 14.2887 389.102 13.8207C388.682 13.3527 388.076 13.1187 387.284 13.1187C386.408 13.1187 385.712 13.3947 385.196 13.9467C384.68 14.4867 384.422 15.2667 384.422 16.2867V21.2007H382.694V15.9087C382.694 14.9847 382.478 14.2887 382.046 13.8207C381.626 13.3527 381.02 13.1187 380.228 13.1187C379.352 13.1187 378.656 13.3947 378.14 13.9467C377.624 14.4867 377.366 15.2667 377.366 16.2867V21.2007H375.638V11.6607H377.294V13.0827C377.642 12.5907 378.098 12.2187 378.662 11.9667C379.226 11.7027 379.868 11.5707 380.588 11.5707C381.332 11.5707 381.992 11.7207 382.568 12.0207C383.144 12.3207 383.588 12.7587 383.9 13.3347C384.26 12.7827 384.758 12.3507 385.394 12.0387C386.042 11.7267 386.768 11.5707 387.572 11.5707ZM399.06 12.0567H407.124V13.4787H399.06V12.0567ZM399.06 16.3227H407.124V17.7447H399.06V16.3227Z" fill="#2F2F2F"/>
<path d="M419 5C419 2.23858 421.239 0 424 0H454C456.761 0 459 2.23858 459 5V25C459 27.7614 456.761 30 454 30H424C421.239 30 419 27.7614 419 25V5Z" fill="#9DD765"/>
<path d="M434.693 19.434V21H425.639V19.776L430.769 14.826C431.393 14.226 431.813 13.71 432.029 13.278C432.245 12.834 432.353 12.39 432.353 11.946C432.353 11.286 432.119 10.776 431.651 10.416C431.195 10.044 430.535 9.858 429.671 9.858C428.279 9.858 427.205 10.314 426.449 11.226L425.225 10.164C425.717 9.564 426.359 9.096 427.151 8.76C427.955 8.424 428.849 8.256 429.833 8.256C431.153 8.256 432.203 8.574 432.983 9.21C433.763 9.834 434.153 10.686 434.153 11.766C434.153 12.438 434.009 13.074 433.721 13.674C433.433 14.274 432.887 14.958 432.083 15.726L428.231 19.434H434.693ZM441.556 13.35C442.384 13.35 443.122 13.506 443.77 13.818C444.43 14.13 444.946 14.58 445.318 15.168C445.69 15.744 445.876 16.41 445.876 17.166C445.876 17.958 445.678 18.654 445.282 19.254C444.898 19.854 444.364 20.322 443.68 20.658C443.008 20.982 442.252 21.144 441.412 21.144C439.72 21.144 438.412 20.598 437.488 19.506C436.576 18.414 436.12 16.866 436.12 14.862C436.12 13.458 436.366 12.264 436.858 11.28C437.362 10.284 438.058 9.534 438.946 9.03C439.846 8.514 440.89 8.256 442.078 8.256C442.69 8.256 443.266 8.322 443.806 8.454C444.346 8.574 444.814 8.754 445.21 8.994L444.526 10.398C443.926 10.002 443.122 9.804 442.114 9.804C440.806 9.804 439.78 10.212 439.036 11.028C438.292 11.832 437.92 13.008 437.92 14.556C437.92 14.748 437.926 14.898 437.938 15.006C438.298 14.466 438.79 14.058 439.414 13.782C440.05 13.494 440.764 13.35 441.556 13.35ZM441.34 19.686C442.168 19.686 442.84 19.464 443.356 19.02C443.872 18.576 444.13 17.982 444.13 17.238C444.13 16.494 443.866 15.906 443.338 15.474C442.822 15.03 442.126 14.808 441.25 14.808C440.686 14.808 440.182 14.916 439.738 15.132C439.306 15.348 438.964 15.642 438.712 16.014C438.472 16.386 438.352 16.8 438.352 17.256C438.352 17.7 438.466 18.108 438.694 18.48C438.934 18.84 439.276 19.134 439.72 19.362C440.176 19.578 440.716 19.686 441.34 19.686ZM451.135 8.4V21H449.353V9.966H446.509V8.4H451.135Z" fill="#065B5B"/>
<path d="M576.002 20.6427C575.75 20.8587 575.438 21.0267 575.066 21.1467C574.694 21.2547 574.31 21.3087 573.914 21.3087C572.954 21.3087 572.21 21.0507 571.682 20.5347C571.154 20.0187 570.89 19.2807 570.89 18.3207V13.0827H569.27V11.6607H570.89V9.57268H572.618V11.6607H575.354V13.0827H572.618V18.2487C572.618 18.7647 572.744 19.1607 572.996 19.4367C573.26 19.7127 573.632 19.8507 574.112 19.8507C574.64 19.8507 575.09 19.7007 575.462 19.4007L576.002 20.6427ZM582.493 12.0567H590.557V13.4787H582.493V12.0567ZM582.493 16.3227H590.557V17.7447H582.493V16.3227Z" fill="#2F2F2F"/>
<path d="M602 5C602 2.23858 604.239 0 607 0H637C639.761 0 642 2.23858 642 5V25C642 27.7614 639.761 30 637 30H607C604.239 30 602 27.7614 602 25V5Z" fill="#9DD765"/>
<path d="M621.296 13.422C623.096 13.422 624.416 13.764 625.256 14.448C626.108 15.12 626.534 16.044 626.534 17.22C626.534 17.964 626.354 18.636 625.994 19.236C625.646 19.824 625.112 20.292 624.392 20.64C623.684 20.976 622.808 21.144 621.764 21.144C620.876 21.144 620.018 21.012 619.19 20.748C618.362 20.472 617.678 20.094 617.138 19.614L617.966 18.192C618.398 18.6 618.95 18.93 619.622 19.182C620.294 19.422 621.002 19.542 621.746 19.542C622.694 19.542 623.426 19.344 623.942 18.948C624.47 18.54 624.734 17.988 624.734 17.292C624.734 16.536 624.446 15.966 623.87 15.582C623.294 15.186 622.31 14.988 620.918 14.988H618.056L618.722 8.4H625.832V9.966H620.234L619.892 13.422H621.296Z" fill="#065B5B"/>
</svg>
