<svg width="530" height="170" viewBox="0 0 530 170" fill="none" xmlns="http://www.w3.org/2000/svg">
<rect width="80" height="80" fill="white"/>
<g clip-path="url(#clip0_5589_117682)">
<path d="M40.8647 75.8976C40.7123 75.891 40.5931 75.7988 40.5997 75.6867C40.6461 73.6375 39.1618 72.1879 37.8497 70.9029C36.5907 69.6642 35.4974 68.5967 36.498 67.437C37.3528 66.442 39.4136 65.9874 41.6003 65.5064C44.5755 64.8474 47.3851 64.228 46.961 62.3501C46.6363 60.9071 43.5153 59.9846 40.5666 59.7078C40.4208 59.688 40.3148 59.5826 40.3346 59.4706C40.3479 59.352 40.487 59.2729 40.6262 59.2861C43.6743 59.5694 47.0803 60.5051 47.4779 62.2776C47.9881 64.5311 44.8141 65.2362 41.7394 65.9149C39.7449 66.3564 37.6775 66.811 36.9287 67.6808C36.1931 68.5374 36.9154 69.3215 38.2606 70.6394C39.5593 71.9111 41.1696 73.4925 41.1298 75.6933C41.1232 75.8119 41.0105 75.8976 40.8647 75.8976Z" fill="#445971"/>
<path d="M42.1022 57.8093C40.9757 58.4946 39.8294 59.8059 41.1944 60.6493C43.0299 61.7958 42.9835 63.3047 41.7378 62.8699C40.4721 62.4218 39.4318 62.0528 37.9077 62.7908C36.2643 63.5881 35.6017 62.0923 36.7149 61.295C38.5637 59.9706 38.9679 58.9229 37.53 57.8027C39.4715 57.9345 42.1022 57.8093 42.1022 57.8093Z" fill="#5E8BB8"/>
<path d="M42.3278 58.1393C51.6578 55.3125 63.0883 43.353 62.1673 26.59C61.2064 9.00325 47.4898 4.78613 40.161 4.78613C33.2961 4.78613 17.8698 9.71489 18.4795 28.6524C19.0427 46.2259 30.8244 55.6288 37.3382 58.2447C39.717 58.8707 41.1351 58.5017 42.3278 58.1393Z" fill="#6BB0DC"/>
<path d="M56.6089 42.8248C50.5922 52.7547 36.6834 53.3016 29.2552 44.5841C21.8336 35.8797 20.515 27.2148 20.515 27.2148C20.515 27.2148 19.8524 41.2499 30.4745 51.7005C41.0966 62.1576 53.5078 50.6725 56.6089 42.8248Z" fill="#5E8BB8"/>
<path d="M48.24 7.679C43.4491 5.73518 29.5138 4.31849 29.4475 18.4326C29.3548 37.6864 53.9519 50.0083 58.776 38.7143C64.0307 26.3727 60.1807 12.5419 48.24 7.679Z" fill="#79BFEA"/>
<path d="M48.5512 14.7429C48.5578 12.4037 48.3922 9.68893 47.4844 8.33154C51.7186 9.88002 55.1975 12.5025 57.2252 16.2518C56.9468 16.7197 55.9728 18.3011 54.4421 20.1922C53.1632 17.9848 51.2945 16.0871 48.5512 14.7429ZM55.0252 29.6214C55.5222 29.8125 56.0125 30.0233 56.4697 30.2474C56.3041 27.6183 55.9065 24.9496 54.8065 22.5445C53.7794 23.355 52.7722 24.1128 51.9439 24.719C53.2825 26.1159 54.3228 27.9148 55.0252 29.6214ZM48.5181 16.2452C48.3789 19.3553 47.8753 22.1031 47.8753 22.1031C47.8753 22.1031 47.8952 22.1887 47.9548 22.36C47.9615 22.36 47.9615 22.36 47.9615 22.36C49.088 22.5841 50.1084 23.131 51.0229 23.8756C52.103 22.8806 53.0638 21.8461 53.8921 20.8643C52.7126 19.0457 51.003 17.4511 48.5181 16.2452ZM55.3764 22.0965C56.4631 24.7388 56.9005 27.6776 57.0727 30.5702C58.5637 31.4005 59.339 31.8947 60.0811 32.6788C60.2402 28.4749 60.2136 23.8163 58.5902 19.3224C57.6625 20.2251 56.5228 21.1806 55.3764 22.0965Z" fill="#E9EDF5"/>
<path d="M26.3596 13.5028C27.1349 14.0563 26.9361 15.6509 25.909 17.0544C24.8886 18.4645 23.4308 19.1497 22.6555 18.5897C21.8802 18.0362 22.0856 16.4416 23.0994 15.0381C24.1265 13.6346 25.5843 12.9493 26.3596 13.5028Z" fill="#E9EDF5"/>
<path d="M22.4364 19.4072C22.781 19.5917 22.7876 20.244 22.4497 20.8634C22.1117 21.4828 21.5617 21.8386 21.2171 21.6541C20.8726 21.4762 20.8726 20.8239 21.2039 20.1979C21.5418 19.5785 22.0918 19.2293 22.4364 19.4072Z" fill="#E9EDF5"/>
<path d="M39.6844 60.0103C39.2139 60.0103 38.6573 59.9312 38.0609 59.661C37.8753 59.5754 37.7892 59.3579 37.8753 59.1668C37.9615 58.9757 38.1802 58.8967 38.3723 58.9757C39.6446 59.5556 40.6982 59.0943 40.7446 59.0746C40.9301 58.9889 41.1554 59.0746 41.2416 59.2657C41.3277 59.4502 41.2482 59.6676 41.0626 59.7599C41.0229 59.773 40.4795 60.0103 39.6844 60.0103Z" fill="#445971"/>
</g>
<rect width="80" height="80" transform="translate(90)" fill="white"/>
<g clip-path="url(#clip1_5589_117682)">
<path d="M130.865 75.8976C130.712 75.891 130.593 75.7988 130.6 75.6867C130.646 73.6375 129.162 72.1879 127.85 70.9029C126.591 69.6642 125.497 68.5967 126.498 67.437C127.353 66.442 129.414 65.9874 131.6 65.5064C134.576 64.8474 137.385 64.228 136.961 62.3501C136.636 60.9071 133.515 59.9846 130.567 59.7078C130.421 59.688 130.315 59.5826 130.335 59.4706C130.348 59.352 130.487 59.2729 130.626 59.2861C133.674 59.5694 137.08 60.5051 137.478 62.2776C137.988 64.5311 134.814 65.2362 131.739 65.9149C129.745 66.3564 127.677 66.811 126.929 67.6808C126.193 68.5374 126.915 69.3215 128.261 70.6394C129.559 71.9111 131.17 73.4925 131.13 75.6933C131.123 75.8119 131.011 75.8976 130.865 75.8976Z" fill="#445971"/>
<path d="M132.102 57.8093C130.976 58.4946 129.829 59.8059 131.194 60.6493C133.03 61.7958 132.984 63.3047 131.738 62.8699C130.472 62.4218 129.432 62.0528 127.908 62.7908C126.264 63.5881 125.602 62.0923 126.715 61.295C128.564 59.9706 128.968 58.9229 127.53 57.8027C129.472 57.9345 132.102 57.8093 132.102 57.8093Z" fill="#5E8BB8"/>
<path d="M132.328 58.1393C141.658 55.3125 153.088 43.353 152.167 26.59C151.206 9.00325 137.49 4.78613 130.161 4.78613C123.296 4.78613 107.87 9.71489 108.479 28.6524C109.043 46.2259 120.824 55.6288 127.338 58.2447C129.717 58.8707 131.135 58.5017 132.328 58.1393Z" fill="#6BB0DC"/>
<path d="M146.609 42.8248C140.592 52.7547 126.683 53.3016 119.255 44.5841C111.834 35.8797 110.515 27.2148 110.515 27.2148C110.515 27.2148 109.852 41.2499 120.474 51.7005C131.097 62.1576 143.508 50.6725 146.609 42.8248Z" fill="#5E8BB8"/>
<path d="M138.24 7.679C133.449 5.73518 119.514 4.31849 119.448 18.4326C119.355 37.6864 143.952 50.0083 148.776 38.7143C154.031 26.3727 150.181 12.5419 138.24 7.679Z" fill="#79BFEA"/>
<path d="M138.551 14.7429C138.558 12.4037 138.392 9.68893 137.484 8.33154C141.719 9.88002 145.197 12.5025 147.225 16.2518C146.947 16.7197 145.973 18.3011 144.442 20.1922C143.163 17.9848 141.295 16.0871 138.551 14.7429ZM145.025 29.6214C145.522 29.8125 146.013 30.0233 146.47 30.2474C146.304 27.6183 145.907 24.9496 144.807 22.5445C143.779 23.355 142.772 24.1128 141.944 24.719C143.282 26.1159 144.323 27.9148 145.025 29.6214ZM138.518 16.2452C138.379 19.3553 137.875 22.1031 137.875 22.1031C137.875 22.1031 137.895 22.1887 137.955 22.36C137.961 22.36 137.961 22.36 137.961 22.36C139.088 22.5841 140.108 23.131 141.023 23.8756C142.103 22.8806 143.064 21.8461 143.892 20.8643C142.713 19.0457 141.003 17.4511 138.518 16.2452ZM145.376 22.0965C146.463 24.7388 146.9 27.6776 147.073 30.5702C148.564 31.4005 149.339 31.8947 150.081 32.6788C150.24 28.4749 150.214 23.8163 148.59 19.3224C147.662 20.2251 146.523 21.1806 145.376 22.0965Z" fill="#E9EDF5"/>
<path d="M116.36 13.5028C117.135 14.0563 116.936 15.6509 115.909 17.0544C114.889 18.4645 113.431 19.1497 112.655 18.5897C111.88 18.0362 112.086 16.4416 113.099 15.0381C114.127 13.6346 115.584 12.9493 116.36 13.5028Z" fill="#E9EDF5"/>
<path d="M112.436 19.4072C112.781 19.5917 112.788 20.244 112.45 20.8634C112.112 21.4828 111.562 21.8386 111.217 21.6541C110.873 21.4762 110.873 20.8239 111.204 20.1979C111.542 19.5785 112.092 19.2293 112.436 19.4072Z" fill="#E9EDF5"/>
<path d="M129.684 60.0103C129.214 60.0103 128.657 59.9312 128.061 59.661C127.875 59.5754 127.789 59.3579 127.875 59.1668C127.961 58.9757 128.18 58.8967 128.372 58.9757C129.645 59.5556 130.698 59.0943 130.745 59.0746C130.93 58.9889 131.155 59.0746 131.242 59.2657C131.328 59.4502 131.248 59.6676 131.063 59.7599C131.023 59.773 130.48 60.0103 129.684 60.0103Z" fill="#445971"/>
</g>
<rect width="80" height="80" transform="translate(180)" fill="white"/>
<g clip-path="url(#clip2_5589_117682)">
<path d="M220.865 75.8976C220.712 75.891 220.593 75.7988 220.6 75.6867C220.646 73.6375 219.162 72.1879 217.85 70.9029C216.591 69.6642 215.497 68.5967 216.498 67.437C217.353 66.442 219.414 65.9874 221.6 65.5064C224.576 64.8474 227.385 64.228 226.961 62.3501C226.636 60.9071 223.515 59.9846 220.567 59.7078C220.421 59.688 220.315 59.5826 220.335 59.4706C220.348 59.352 220.487 59.2729 220.626 59.2861C223.674 59.5694 227.08 60.5051 227.478 62.2776C227.988 64.5311 224.814 65.2362 221.739 65.9149C219.745 66.3564 217.677 66.811 216.929 67.6808C216.193 68.5374 216.915 69.3215 218.261 70.6394C219.559 71.9111 221.17 73.4925 221.13 75.6933C221.123 75.8119 221.011 75.8976 220.865 75.8976Z" fill="#445971"/>
<path d="M222.102 57.8093C220.976 58.4946 219.829 59.8059 221.194 60.6493C223.03 61.7958 222.984 63.3047 221.738 62.8699C220.472 62.4218 219.432 62.0528 217.908 62.7908C216.264 63.5881 215.602 62.0923 216.715 61.295C218.564 59.9706 218.968 58.9229 217.53 57.8027C219.472 57.9345 222.102 57.8093 222.102 57.8093Z" fill="#5E8BB8"/>
<path d="M222.328 58.1393C231.658 55.3125 243.088 43.353 242.167 26.59C241.206 9.00325 227.49 4.78613 220.161 4.78613C213.296 4.78613 197.87 9.71489 198.479 28.6524C199.043 46.2259 210.824 55.6288 217.338 58.2447C219.717 58.8707 221.135 58.5017 222.328 58.1393Z" fill="#6BB0DC"/>
<path d="M236.609 42.8248C230.592 52.7547 216.683 53.3016 209.255 44.5841C201.834 35.8797 200.515 27.2148 200.515 27.2148C200.515 27.2148 199.852 41.2499 210.474 51.7005C221.097 62.1576 233.508 50.6725 236.609 42.8248Z" fill="#5E8BB8"/>
<path d="M228.24 7.679C223.449 5.73518 209.514 4.31849 209.448 18.4326C209.355 37.6864 233.952 50.0083 238.776 38.7143C244.031 26.3727 240.181 12.5419 228.24 7.679Z" fill="#79BFEA"/>
<path d="M228.551 14.7429C228.558 12.4037 228.392 9.68893 227.484 8.33154C231.719 9.88002 235.197 12.5025 237.225 16.2518C236.947 16.7197 235.973 18.3011 234.442 20.1922C233.163 17.9848 231.295 16.0871 228.551 14.7429ZM235.025 29.6214C235.522 29.8125 236.013 30.0233 236.47 30.2474C236.304 27.6183 235.907 24.9496 234.807 22.5445C233.779 23.355 232.772 24.1128 231.944 24.719C233.282 26.1159 234.323 27.9148 235.025 29.6214ZM228.518 16.2452C228.379 19.3553 227.875 22.1031 227.875 22.1031C227.875 22.1031 227.895 22.1887 227.955 22.36C227.961 22.36 227.961 22.36 227.961 22.36C229.088 22.5841 230.108 23.131 231.023 23.8756C232.103 22.8806 233.064 21.8461 233.892 20.8643C232.713 19.0457 231.003 17.4511 228.518 16.2452ZM235.376 22.0965C236.463 24.7388 236.9 27.6776 237.073 30.5702C238.564 31.4005 239.339 31.8947 240.081 32.6788C240.24 28.4749 240.214 23.8163 238.59 19.3224C237.662 20.2251 236.523 21.1806 235.376 22.0965Z" fill="#E9EDF5"/>
<path d="M206.36 13.5028C207.135 14.0563 206.936 15.6509 205.909 17.0544C204.889 18.4645 203.431 19.1497 202.655 18.5897C201.88 18.0362 202.086 16.4416 203.099 15.0381C204.127 13.6346 205.584 12.9493 206.36 13.5028Z" fill="#E9EDF5"/>
<path d="M202.436 19.4072C202.781 19.5917 202.788 20.244 202.45 20.8634C202.112 21.4828 201.562 21.8386 201.217 21.6541C200.873 21.4762 200.873 20.8239 201.204 20.1979C201.542 19.5785 202.092 19.2293 202.436 19.4072Z" fill="#E9EDF5"/>
<path d="M219.684 60.0103C219.214 60.0103 218.657 59.9312 218.061 59.661C217.875 59.5754 217.789 59.3579 217.875 59.1668C217.961 58.9757 218.18 58.8967 218.372 58.9757C219.645 59.5556 220.698 59.0943 220.745 59.0746C220.93 58.9889 221.155 59.0746 221.242 59.2657C221.328 59.4502 221.248 59.6676 221.063 59.7599C221.023 59.773 220.48 60.0103 219.684 60.0103Z" fill="#445971"/>
</g>
<rect width="80" height="80" transform="translate(270)" fill="white"/>
<g clip-path="url(#clip3_5589_117682)">
<path d="M310.865 75.8976C310.712 75.891 310.593 75.7988 310.6 75.6867C310.646 73.6375 309.162 72.1879 307.85 70.9029C306.591 69.6642 305.497 68.5967 306.498 67.437C307.353 66.442 309.414 65.9874 311.6 65.5064C314.576 64.8474 317.385 64.228 316.961 62.3501C316.636 60.9071 313.515 59.9846 310.567 59.7078C310.421 59.688 310.315 59.5826 310.335 59.4706C310.348 59.352 310.487 59.2729 310.626 59.2861C313.674 59.5694 317.08 60.5051 317.478 62.2776C317.988 64.5311 314.814 65.2362 311.739 65.9149C309.745 66.3564 307.677 66.811 306.929 67.6808C306.193 68.5374 306.915 69.3215 308.261 70.6394C309.559 71.9111 311.17 73.4925 311.13 75.6933C311.123 75.8119 311.011 75.8976 310.865 75.8976Z" fill="#445971"/>
<path d="M312.102 57.8093C310.976 58.4946 309.829 59.8059 311.194 60.6493C313.03 61.7958 312.984 63.3047 311.738 62.8699C310.472 62.4218 309.432 62.0528 307.908 62.7908C306.264 63.5881 305.602 62.0923 306.715 61.295C308.564 59.9706 308.968 58.9229 307.53 57.8027C309.472 57.9345 312.102 57.8093 312.102 57.8093Z" fill="#5E8BB8"/>
<path d="M312.328 58.1393C321.658 55.3125 333.088 43.353 332.167 26.59C331.206 9.00325 317.49 4.78613 310.161 4.78613C303.296 4.78613 287.87 9.71489 288.479 28.6524C289.043 46.2259 300.824 55.6288 307.338 58.2447C309.717 58.8707 311.135 58.5017 312.328 58.1393Z" fill="#6BB0DC"/>
<path d="M326.609 42.8248C320.592 52.7547 306.683 53.3016 299.255 44.5841C291.834 35.8797 290.515 27.2148 290.515 27.2148C290.515 27.2148 289.852 41.2499 300.474 51.7005C311.097 62.1576 323.508 50.6725 326.609 42.8248Z" fill="#5E8BB8"/>
<path d="M318.24 7.679C313.449 5.73518 299.514 4.31849 299.448 18.4326C299.355 37.6864 323.952 50.0083 328.776 38.7143C334.031 26.3727 330.181 12.5419 318.24 7.679Z" fill="#79BFEA"/>
<path d="M318.551 14.7429C318.558 12.4037 318.392 9.68893 317.484 8.33154C321.719 9.88002 325.197 12.5025 327.225 16.2518C326.947 16.7197 325.973 18.3011 324.442 20.1922C323.163 17.9848 321.295 16.0871 318.551 14.7429ZM325.025 29.6214C325.522 29.8125 326.013 30.0233 326.47 30.2474C326.304 27.6183 325.907 24.9496 324.807 22.5445C323.779 23.355 322.772 24.1128 321.944 24.719C323.282 26.1159 324.323 27.9148 325.025 29.6214ZM318.518 16.2452C318.379 19.3553 317.875 22.1031 317.875 22.1031C317.875 22.1031 317.895 22.1887 317.955 22.36C317.961 22.36 317.961 22.36 317.961 22.36C319.088 22.5841 320.108 23.131 321.023 23.8756C322.103 22.8806 323.064 21.8461 323.892 20.8643C322.713 19.0457 321.003 17.4511 318.518 16.2452ZM325.376 22.0965C326.463 24.7388 326.9 27.6776 327.073 30.5702C328.564 31.4005 329.339 31.8947 330.081 32.6788C330.24 28.4749 330.214 23.8163 328.59 19.3224C327.662 20.2251 326.523 21.1806 325.376 22.0965Z" fill="#E9EDF5"/>
<path d="M296.36 13.5028C297.135 14.0563 296.936 15.6509 295.909 17.0544C294.889 18.4645 293.431 19.1497 292.655 18.5897C291.88 18.0362 292.086 16.4416 293.099 15.0381C294.127 13.6346 295.584 12.9493 296.36 13.5028Z" fill="#E9EDF5"/>
<path d="M292.436 19.4072C292.781 19.5917 292.788 20.244 292.45 20.8634C292.112 21.4828 291.562 21.8386 291.217 21.6541C290.873 21.4762 290.873 20.8239 291.204 20.1979C291.542 19.5785 292.092 19.2293 292.436 19.4072Z" fill="#E9EDF5"/>
<path d="M309.684 60.0103C309.214 60.0103 308.657 59.9312 308.061 59.661C307.875 59.5754 307.789 59.3579 307.875 59.1668C307.961 58.9757 308.18 58.8967 308.372 58.9757C309.645 59.5556 310.698 59.0943 310.745 59.0746C310.93 58.9889 311.155 59.0746 311.242 59.2657C311.328 59.4502 311.248 59.6676 311.063 59.7599C311.023 59.773 310.48 60.0103 309.684 60.0103Z" fill="#445971"/>
</g>
<rect width="80" height="80" transform="translate(360)" fill="white"/>
<g clip-path="url(#clip4_5589_117682)">
<path d="M400.865 75.8976C400.712 75.891 400.593 75.7988 400.6 75.6867C400.646 73.6375 399.162 72.1879 397.85 70.9029C396.591 69.6642 395.497 68.5967 396.498 67.437C397.353 66.442 399.414 65.9874 401.6 65.5064C404.576 64.8474 407.385 64.228 406.961 62.3501C406.636 60.9071 403.515 59.9846 400.567 59.7078C400.421 59.688 400.315 59.5826 400.335 59.4706C400.348 59.352 400.487 59.2729 400.626 59.2861C403.674 59.5694 407.08 60.5051 407.478 62.2776C407.988 64.5311 404.814 65.2362 401.739 65.9149C399.745 66.3564 397.677 66.811 396.929 67.6808C396.193 68.5374 396.915 69.3215 398.261 70.6394C399.559 71.9111 401.17 73.4925 401.13 75.6933C401.123 75.8119 401.011 75.8976 400.865 75.8976Z" fill="#445971"/>
<path d="M402.102 57.8093C400.976 58.4946 399.829 59.8059 401.194 60.6493C403.03 61.7958 402.984 63.3047 401.738 62.8699C400.472 62.4218 399.432 62.0528 397.908 62.7908C396.264 63.5881 395.602 62.0923 396.715 61.295C398.564 59.9706 398.968 58.9229 397.53 57.8027C399.472 57.9345 402.102 57.8093 402.102 57.8093Z" fill="#5E8BB8"/>
<path d="M402.328 58.1393C411.658 55.3125 423.088 43.353 422.167 26.59C421.206 9.00325 407.49 4.78613 400.161 4.78613C393.296 4.78613 377.87 9.71489 378.479 28.6524C379.043 46.2259 390.824 55.6288 397.338 58.2447C399.717 58.8707 401.135 58.5017 402.328 58.1393Z" fill="#6BB0DC"/>
<path d="M416.609 42.8248C410.592 52.7547 396.683 53.3016 389.255 44.5841C381.834 35.8797 380.515 27.2148 380.515 27.2148C380.515 27.2148 379.852 41.2499 390.474 51.7005C401.097 62.1576 413.508 50.6725 416.609 42.8248Z" fill="#5E8BB8"/>
<path d="M408.24 7.679C403.449 5.73518 389.514 4.31849 389.448 18.4326C389.355 37.6864 413.952 50.0083 418.776 38.7143C424.031 26.3727 420.181 12.5419 408.24 7.679Z" fill="#79BFEA"/>
<path d="M408.551 14.7429C408.558 12.4037 408.392 9.68893 407.484 8.33154C411.719 9.88002 415.197 12.5025 417.225 16.2518C416.947 16.7197 415.973 18.3011 414.442 20.1922C413.163 17.9848 411.295 16.0871 408.551 14.7429ZM415.025 29.6214C415.522 29.8125 416.013 30.0233 416.47 30.2474C416.304 27.6183 415.907 24.9496 414.807 22.5445C413.779 23.355 412.772 24.1128 411.944 24.719C413.282 26.1159 414.323 27.9148 415.025 29.6214ZM408.518 16.2452C408.379 19.3553 407.875 22.1031 407.875 22.1031C407.875 22.1031 407.895 22.1887 407.955 22.36C407.961 22.36 407.961 22.36 407.961 22.36C409.088 22.5841 410.108 23.131 411.023 23.8756C412.103 22.8806 413.064 21.8461 413.892 20.8643C412.713 19.0457 411.003 17.4511 408.518 16.2452ZM415.376 22.0965C416.463 24.7388 416.9 27.6776 417.073 30.5702C418.564 31.4005 419.339 31.8947 420.081 32.6788C420.24 28.4749 420.214 23.8163 418.59 19.3224C417.662 20.2251 416.523 21.1806 415.376 22.0965Z" fill="#E9EDF5"/>
<path d="M386.36 13.5028C387.135 14.0563 386.936 15.6509 385.909 17.0544C384.889 18.4645 383.431 19.1497 382.655 18.5897C381.88 18.0362 382.086 16.4416 383.099 15.0381C384.127 13.6346 385.584 12.9493 386.36 13.5028Z" fill="#E9EDF5"/>
<path d="M382.436 19.4072C382.781 19.5917 382.788 20.244 382.45 20.8634C382.112 21.4828 381.562 21.8386 381.217 21.6541C380.873 21.4762 380.873 20.8239 381.204 20.1979C381.542 19.5785 382.092 19.2293 382.436 19.4072Z" fill="#E9EDF5"/>
<path d="M399.684 60.0103C399.214 60.0103 398.657 59.9312 398.061 59.661C397.875 59.5754 397.789 59.3579 397.875 59.1668C397.961 58.9757 398.18 58.8967 398.372 58.9757C399.645 59.5556 400.698 59.0943 400.745 59.0746C400.93 58.9889 401.155 59.0746 401.242 59.2657C401.328 59.4502 401.248 59.6676 401.063 59.7599C401.023 59.773 400.48 60.0103 399.684 60.0103Z" fill="#445971"/>
</g>
<rect width="80" height="80" transform="translate(450)" fill="white"/>
<g clip-path="url(#clip5_5589_117682)">
<path d="M490.865 75.8976C490.712 75.891 490.593 75.7988 490.6 75.6867C490.646 73.6375 489.162 72.1879 487.85 70.9029C486.591 69.6642 485.497 68.5967 486.498 67.437C487.353 66.442 489.414 65.9874 491.6 65.5064C494.576 64.8474 497.385 64.228 496.961 62.3501C496.636 60.9071 493.515 59.9846 490.567 59.7078C490.421 59.688 490.315 59.5826 490.335 59.4706C490.348 59.352 490.487 59.2729 490.626 59.2861C493.674 59.5694 497.08 60.5051 497.478 62.2776C497.988 64.5311 494.814 65.2362 491.739 65.9149C489.745 66.3564 487.677 66.811 486.929 67.6808C486.193 68.5374 486.915 69.3215 488.261 70.6394C489.559 71.9111 491.17 73.4925 491.13 75.6933C491.123 75.8119 491.011 75.8976 490.865 75.8976Z" fill="#445971"/>
<path d="M492.102 57.8093C490.976 58.4946 489.829 59.8059 491.194 60.6493C493.03 61.7958 492.984 63.3047 491.738 62.8699C490.472 62.4218 489.432 62.0528 487.908 62.7908C486.264 63.5881 485.602 62.0923 486.715 61.295C488.564 59.9706 488.968 58.9229 487.53 57.8027C489.472 57.9345 492.102 57.8093 492.102 57.8093Z" fill="#5E8BB8"/>
<path d="M492.328 58.1393C501.658 55.3125 513.088 43.353 512.167 26.59C511.206 9.00325 497.49 4.78613 490.161 4.78613C483.296 4.78613 467.87 9.71489 468.479 28.6524C469.043 46.2259 480.824 55.6288 487.338 58.2447C489.717 58.8707 491.135 58.5017 492.328 58.1393Z" fill="#6BB0DC"/>
<path d="M506.609 42.8248C500.592 52.7547 486.683 53.3016 479.255 44.5841C471.834 35.8797 470.515 27.2148 470.515 27.2148C470.515 27.2148 469.852 41.2499 480.474 51.7005C491.097 62.1576 503.508 50.6725 506.609 42.8248Z" fill="#5E8BB8"/>
<path d="M498.24 7.679C493.449 5.73518 479.514 4.31849 479.448 18.4326C479.355 37.6864 503.952 50.0083 508.776 38.7143C514.031 26.3727 510.181 12.5419 498.24 7.679Z" fill="#79BFEA"/>
<path d="M498.551 14.7429C498.558 12.4037 498.392 9.68893 497.484 8.33154C501.719 9.88002 505.197 12.5025 507.225 16.2518C506.947 16.7197 505.973 18.3011 504.442 20.1922C503.163 17.9848 501.295 16.0871 498.551 14.7429ZM505.025 29.6214C505.522 29.8125 506.013 30.0233 506.47 30.2474C506.304 27.6183 505.907 24.9496 504.807 22.5445C503.779 23.355 502.772 24.1128 501.944 24.719C503.282 26.1159 504.323 27.9148 505.025 29.6214ZM498.518 16.2452C498.379 19.3553 497.875 22.1031 497.875 22.1031C497.875 22.1031 497.895 22.1887 497.955 22.36C497.961 22.36 497.961 22.36 497.961 22.36C499.088 22.5841 500.108 23.131 501.023 23.8756C502.103 22.8806 503.064 21.8461 503.892 20.8643C502.713 19.0457 501.003 17.4511 498.518 16.2452ZM505.376 22.0965C506.463 24.7388 506.9 27.6776 507.073 30.5702C508.564 31.4005 509.339 31.8947 510.081 32.6788C510.24 28.4749 510.214 23.8163 508.59 19.3224C507.662 20.2251 506.523 21.1806 505.376 22.0965Z" fill="#E9EDF5"/>
<path d="M476.36 13.5028C477.135 14.0563 476.936 15.6509 475.909 17.0544C474.889 18.4645 473.431 19.1497 472.655 18.5897C471.88 18.0362 472.086 16.4416 473.099 15.0381C474.127 13.6346 475.584 12.9493 476.36 13.5028Z" fill="#E9EDF5"/>
<path d="M472.436 19.4072C472.781 19.5917 472.788 20.244 472.45 20.8634C472.112 21.4828 471.562 21.8386 471.217 21.6541C470.873 21.4762 470.873 20.8239 471.204 20.1979C471.542 19.5785 472.092 19.2293 472.436 19.4072Z" fill="#E9EDF5"/>
<path d="M489.684 60.0103C489.214 60.0103 488.657 59.9312 488.061 59.661C487.875 59.5754 487.789 59.3579 487.875 59.1668C487.961 58.9757 488.18 58.8967 488.372 58.9757C489.645 59.5556 490.698 59.0943 490.745 59.0746C490.93 58.9889 491.155 59.0746 491.242 59.2657C491.328 59.4502 491.248 59.6676 491.063 59.7599C491.023 59.773 490.48 60.0103 489.684 60.0103Z" fill="#445971"/>
</g>
<rect width="80" height="80" transform="translate(0 90)" fill="white"/>
<g clip-path="url(#clip6_5589_117682)">
<path d="M40.8647 165.898C40.7123 165.891 40.5931 165.799 40.5997 165.687C40.6461 163.637 39.1618 162.188 37.8497 160.903C36.5907 159.664 35.4974 158.597 36.498 157.437C37.3528 156.442 39.4136 155.987 41.6003 155.506C44.5755 154.847 47.3851 154.228 46.961 152.35C46.6363 150.907 43.5153 149.985 40.5666 149.708C40.4208 149.688 40.3148 149.583 40.3346 149.471C40.3479 149.352 40.487 149.273 40.6262 149.286C43.6743 149.569 47.0803 150.505 47.4779 152.278C47.9881 154.531 44.8141 155.236 41.7394 155.915C39.7449 156.356 37.6775 156.811 36.9287 157.681C36.1931 158.537 36.9154 159.322 38.2606 160.639C39.5593 161.911 41.1696 163.493 41.1298 165.693C41.1232 165.812 41.0105 165.898 40.8647 165.898Z" fill="#445971"/>
<path d="M42.1022 147.809C40.9757 148.495 39.8294 149.806 41.1944 150.649C43.0299 151.796 42.9835 153.305 41.7378 152.87C40.4721 152.422 39.4318 152.053 37.9077 152.791C36.2643 153.588 35.6017 152.092 36.7149 151.295C38.5637 149.971 38.9679 148.923 37.53 147.803C39.4715 147.935 42.1022 147.809 42.1022 147.809Z" fill="#5E8BB8"/>
<path d="M42.3278 148.139C51.6578 145.312 63.0883 133.353 62.1673 116.59C61.2064 99.0033 47.4898 94.7861 40.161 94.7861C33.2961 94.7861 17.8698 99.7149 18.4795 118.652C19.0427 136.226 30.8244 145.629 37.3382 148.245C39.717 148.871 41.1351 148.502 42.3278 148.139Z" fill="#6BB0DC"/>
<path d="M56.6089 132.825C50.5922 142.755 36.6834 143.302 29.2552 134.584C21.8336 125.88 20.515 117.215 20.515 117.215C20.515 117.215 19.8524 131.25 30.4745 141.7C41.0966 152.158 53.5078 140.673 56.6089 132.825Z" fill="#5E8BB8"/>
<path d="M48.24 97.679C43.4491 95.7352 29.5138 94.3185 29.4475 108.433C29.3548 127.686 53.9519 140.008 58.776 128.714C64.0307 116.373 60.1807 102.542 48.24 97.679Z" fill="#79BFEA"/>
<path d="M48.5512 104.743C48.5578 102.404 48.3922 99.6889 47.4844 98.3315C51.7186 99.88 55.1975 102.503 57.2252 106.252C56.9468 106.72 55.9728 108.301 54.4421 110.192C53.1632 107.985 51.2945 106.087 48.5512 104.743ZM55.0252 119.621C55.5222 119.812 56.0125 120.023 56.4697 120.247C56.3041 117.618 55.9065 114.95 54.8065 112.545C53.7794 113.355 52.7722 114.113 51.9439 114.719C53.2825 116.116 54.3228 117.915 55.0252 119.621ZM48.5181 106.245C48.3789 109.355 47.8753 112.103 47.8753 112.103C47.8753 112.103 47.8952 112.189 47.9548 112.36C47.9615 112.36 47.9615 112.36 47.9615 112.36C49.088 112.584 50.1084 113.131 51.0229 113.876C52.103 112.881 53.0638 111.846 53.8921 110.864C52.7126 109.046 51.003 107.451 48.5181 106.245ZM55.3764 112.096C56.4631 114.739 56.9005 117.678 57.0727 120.57C58.5637 121.4 59.339 121.895 60.0811 122.679C60.2402 118.475 60.2136 113.816 58.5902 109.322C57.6625 110.225 56.5228 111.181 55.3764 112.096Z" fill="#E9EDF5"/>
<path d="M26.3596 103.503C27.1349 104.056 26.9361 105.651 25.909 107.054C24.8886 108.464 23.4308 109.15 22.6555 108.59C21.8802 108.036 22.0856 106.442 23.0994 105.038C24.1265 103.635 25.5843 102.949 26.3596 103.503Z" fill="#E9EDF5"/>
<path d="M22.4364 109.407C22.781 109.592 22.7876 110.244 22.4497 110.863C22.1117 111.483 21.5617 111.839 21.2171 111.654C20.8726 111.476 20.8726 110.824 21.2039 110.198C21.5418 109.579 22.0918 109.229 22.4364 109.407Z" fill="#E9EDF5"/>
<path d="M39.6844 150.01C39.2139 150.01 38.6573 149.931 38.0609 149.661C37.8753 149.575 37.7892 149.358 37.8753 149.167C37.9615 148.976 38.1802 148.897 38.3723 148.976C39.6446 149.556 40.6982 149.094 40.7446 149.075C40.9301 148.989 41.1554 149.075 41.2416 149.266C41.3277 149.45 41.2482 149.668 41.0626 149.76C41.0229 149.773 40.4795 150.01 39.6844 150.01Z" fill="#445971"/>
</g>
<rect width="80" height="80" transform="translate(90 90)" fill="white"/>
<g clip-path="url(#clip7_5589_117682)">
<path d="M130.865 165.898C130.712 165.891 130.593 165.799 130.6 165.687C130.646 163.637 129.162 162.188 127.85 160.903C126.591 159.664 125.497 158.597 126.498 157.437C127.353 156.442 129.414 155.987 131.6 155.506C134.576 154.847 137.385 154.228 136.961 152.35C136.636 150.907 133.515 149.985 130.567 149.708C130.421 149.688 130.315 149.583 130.335 149.471C130.348 149.352 130.487 149.273 130.626 149.286C133.674 149.569 137.08 150.505 137.478 152.278C137.988 154.531 134.814 155.236 131.739 155.915C129.745 156.356 127.677 156.811 126.929 157.681C126.193 158.537 126.915 159.322 128.261 160.639C129.559 161.911 131.17 163.493 131.13 165.693C131.123 165.812 131.011 165.898 130.865 165.898Z" fill="#445971"/>
<path d="M132.102 147.809C130.976 148.495 129.829 149.806 131.194 150.649C133.03 151.796 132.984 153.305 131.738 152.87C130.472 152.422 129.432 152.053 127.908 152.791C126.264 153.588 125.602 152.092 126.715 151.295C128.564 149.971 128.968 148.923 127.53 147.803C129.472 147.935 132.102 147.809 132.102 147.809Z" fill="#5E8BB8"/>
<path d="M132.328 148.139C141.658 145.312 153.088 133.353 152.167 116.59C151.206 99.0033 137.49 94.7861 130.161 94.7861C123.296 94.7861 107.87 99.7149 108.479 118.652C109.043 136.226 120.824 145.629 127.338 148.245C129.717 148.871 131.135 148.502 132.328 148.139Z" fill="#6BB0DC"/>
<path d="M146.609 132.825C140.592 142.755 126.683 143.302 119.255 134.584C111.834 125.88 110.515 117.215 110.515 117.215C110.515 117.215 109.852 131.25 120.474 141.7C131.097 152.158 143.508 140.673 146.609 132.825Z" fill="#5E8BB8"/>
<path d="M138.24 97.679C133.449 95.7352 119.514 94.3185 119.448 108.433C119.355 127.686 143.952 140.008 148.776 128.714C154.031 116.373 150.181 102.542 138.24 97.679Z" fill="#79BFEA"/>
<path d="M138.551 104.743C138.558 102.404 138.392 99.6889 137.484 98.3315C141.719 99.88 145.197 102.503 147.225 106.252C146.947 106.72 145.973 108.301 144.442 110.192C143.163 107.985 141.295 106.087 138.551 104.743ZM145.025 119.621C145.522 119.812 146.013 120.023 146.47 120.247C146.304 117.618 145.907 114.95 144.807 112.545C143.779 113.355 142.772 114.113 141.944 114.719C143.282 116.116 144.323 117.915 145.025 119.621ZM138.518 106.245C138.379 109.355 137.875 112.103 137.875 112.103C137.875 112.103 137.895 112.189 137.955 112.36C137.961 112.36 137.961 112.36 137.961 112.36C139.088 112.584 140.108 113.131 141.023 113.876C142.103 112.881 143.064 111.846 143.892 110.864C142.713 109.046 141.003 107.451 138.518 106.245ZM145.376 112.096C146.463 114.739 146.9 117.678 147.073 120.57C148.564 121.4 149.339 121.895 150.081 122.679C150.24 118.475 150.214 113.816 148.59 109.322C147.662 110.225 146.523 111.181 145.376 112.096Z" fill="#E9EDF5"/>
<path d="M116.36 103.503C117.135 104.056 116.936 105.651 115.909 107.054C114.889 108.464 113.431 109.15 112.655 108.59C111.88 108.036 112.086 106.442 113.099 105.038C114.127 103.635 115.584 102.949 116.36 103.503Z" fill="#E9EDF5"/>
<path d="M112.436 109.407C112.781 109.592 112.788 110.244 112.45 110.863C112.112 111.483 111.562 111.839 111.217 111.654C110.873 111.476 110.873 110.824 111.204 110.198C111.542 109.579 112.092 109.229 112.436 109.407Z" fill="#E9EDF5"/>
<path d="M129.684 150.01C129.214 150.01 128.657 149.931 128.061 149.661C127.875 149.575 127.789 149.358 127.875 149.167C127.961 148.976 128.18 148.897 128.372 148.976C129.645 149.556 130.698 149.094 130.745 149.075C130.93 148.989 131.155 149.075 131.242 149.266C131.328 149.45 131.248 149.668 131.063 149.76C131.023 149.773 130.48 150.01 129.684 150.01Z" fill="#445971"/>
</g>
<rect width="80" height="80" transform="translate(180 90)" fill="white"/>
<g opacity="0.6" clip-path="url(#clip8_5589_117682)">
<path d="M220.865 165.898C220.712 165.891 220.593 165.799 220.6 165.687C220.646 163.637 219.162 162.188 217.85 160.903C216.591 159.664 215.497 158.597 216.498 157.437C217.353 156.442 219.414 155.987 221.6 155.506C224.576 154.847 227.385 154.228 226.961 152.35C226.636 150.907 223.515 149.985 220.567 149.708C220.421 149.688 220.315 149.583 220.335 149.471C220.348 149.352 220.487 149.273 220.626 149.286C223.674 149.569 227.08 150.505 227.478 152.278C227.988 154.531 224.814 155.236 221.739 155.915C219.745 156.356 217.677 156.811 216.929 157.681C216.193 158.537 216.915 159.322 218.261 160.639C219.559 161.911 221.17 163.493 221.13 165.693C221.123 165.812 221.011 165.898 220.865 165.898Z" fill="#445971"/>
<path d="M222.102 147.809C220.976 148.495 219.829 149.806 221.194 150.649C223.03 151.796 222.984 153.305 221.738 152.87C220.472 152.422 219.432 152.053 217.908 152.791C216.264 153.588 215.602 152.092 216.715 151.295C218.564 149.971 218.968 148.923 217.53 147.803C219.472 147.935 222.102 147.809 222.102 147.809Z" fill="#5E8BB8"/>
<path d="M222.328 148.139C231.658 145.312 243.088 133.353 242.167 116.59C241.206 99.0033 227.49 94.7861 220.161 94.7861C213.296 94.7861 197.87 99.7149 198.479 118.652C199.043 136.226 210.824 145.629 217.338 148.245C219.717 148.871 221.135 148.502 222.328 148.139Z" fill="#6BB0DC"/>
<path d="M236.609 132.825C230.592 142.755 216.683 143.302 209.255 134.584C201.834 125.88 200.515 117.215 200.515 117.215C200.515 117.215 199.852 131.25 210.474 141.7C221.097 152.158 233.508 140.673 236.609 132.825Z" fill="#5E8BB8"/>
<path d="M228.24 97.679C223.449 95.7352 209.514 94.3185 209.448 108.433C209.355 127.686 233.952 140.008 238.776 128.714C244.031 116.373 240.181 102.542 228.24 97.679Z" fill="#79BFEA"/>
<path d="M228.551 104.743C228.558 102.404 228.392 99.6889 227.484 98.3315C231.719 99.88 235.197 102.503 237.225 106.252C236.947 106.72 235.973 108.301 234.442 110.192C233.163 107.985 231.295 106.087 228.551 104.743ZM235.025 119.621C235.522 119.812 236.013 120.023 236.47 120.247C236.304 117.618 235.907 114.95 234.807 112.545C233.779 113.355 232.772 114.113 231.944 114.719C233.282 116.116 234.323 117.915 235.025 119.621ZM228.518 106.245C228.379 109.355 227.875 112.103 227.875 112.103C227.875 112.103 227.895 112.189 227.955 112.36C227.961 112.36 227.961 112.36 227.961 112.36C229.088 112.584 230.108 113.131 231.023 113.876C232.103 112.881 233.064 111.846 233.892 110.864C232.713 109.046 231.003 107.451 228.518 106.245ZM235.376 112.096C236.463 114.739 236.9 117.678 237.073 120.57C238.564 121.4 239.339 121.895 240.081 122.679C240.24 118.475 240.214 113.816 238.59 109.322C237.662 110.225 236.523 111.181 235.376 112.096Z" fill="#E9EDF5"/>
<path d="M206.36 103.503C207.135 104.056 206.936 105.651 205.909 107.054C204.889 108.464 203.431 109.15 202.655 108.59C201.88 108.036 202.086 106.442 203.099 105.038C204.127 103.635 205.584 102.949 206.36 103.503Z" fill="#E9EDF5"/>
<path d="M202.436 109.407C202.781 109.592 202.788 110.244 202.45 110.863C202.112 111.483 201.562 111.839 201.217 111.654C200.873 111.476 200.873 110.824 201.204 110.198C201.542 109.579 202.092 109.229 202.436 109.407Z" fill="#E9EDF5"/>
<path d="M219.684 150.01C219.214 150.01 218.657 149.931 218.061 149.661C217.875 149.575 217.789 149.358 217.875 149.167C217.961 148.976 218.18 148.897 218.372 148.976C219.645 149.556 220.698 149.094 220.745 149.075C220.93 148.989 221.155 149.075 221.242 149.266C221.328 149.45 221.248 149.668 221.063 149.76C221.023 149.773 220.48 150.01 219.684 150.01Z" fill="#445971"/>
</g>
<line x1="187.407" y1="98" x2="250.108" y2="160.7" stroke="#1D3F52" stroke-width="3" stroke-linecap="round"/>
<line x1="1.5" y1="-1.5" x2="90.1713" y2="-1.5" transform="matrix(-0.707107 0.707107 0.707107 0.707107 256 98)" stroke="#1D3F52" stroke-width="3" stroke-linecap="round"/>
<rect width="80" height="80" transform="translate(270 90)" fill="white"/>
<g opacity="0.6" clip-path="url(#clip9_5589_117682)">
<path d="M310.865 165.898C310.712 165.891 310.593 165.799 310.6 165.687C310.646 163.637 309.162 162.188 307.85 160.903C306.591 159.664 305.497 158.597 306.498 157.437C307.353 156.442 309.414 155.987 311.6 155.506C314.576 154.847 317.385 154.228 316.961 152.35C316.636 150.907 313.515 149.985 310.567 149.708C310.421 149.688 310.315 149.583 310.335 149.471C310.348 149.352 310.487 149.273 310.626 149.286C313.674 149.569 317.08 150.505 317.478 152.278C317.988 154.531 314.814 155.236 311.739 155.915C309.745 156.356 307.677 156.811 306.929 157.681C306.193 158.537 306.915 159.322 308.261 160.639C309.559 161.911 311.17 163.493 311.13 165.693C311.123 165.812 311.011 165.898 310.865 165.898Z" fill="#445971"/>
<path d="M312.102 147.809C310.976 148.495 309.829 149.806 311.194 150.649C313.03 151.796 312.984 153.305 311.738 152.87C310.472 152.422 309.432 152.053 307.908 152.791C306.264 153.588 305.602 152.092 306.715 151.295C308.564 149.971 308.968 148.923 307.53 147.803C309.472 147.935 312.102 147.809 312.102 147.809Z" fill="#5E8BB8"/>
<path d="M312.328 148.139C321.658 145.312 333.088 133.353 332.167 116.59C331.206 99.0033 317.49 94.7861 310.161 94.7861C303.296 94.7861 287.87 99.7149 288.479 118.652C289.043 136.226 300.824 145.629 307.338 148.245C309.717 148.871 311.135 148.502 312.328 148.139Z" fill="#6BB0DC"/>
<path d="M326.609 132.825C320.592 142.755 306.683 143.302 299.255 134.584C291.834 125.88 290.515 117.215 290.515 117.215C290.515 117.215 289.852 131.25 300.474 141.7C311.097 152.158 323.508 140.673 326.609 132.825Z" fill="#5E8BB8"/>
<path d="M318.24 97.679C313.449 95.7352 299.514 94.3185 299.448 108.433C299.355 127.686 323.952 140.008 328.776 128.714C334.031 116.373 330.181 102.542 318.24 97.679Z" fill="#79BFEA"/>
<path d="M318.551 104.743C318.558 102.404 318.392 99.6889 317.484 98.3315C321.719 99.88 325.197 102.503 327.225 106.252C326.947 106.72 325.973 108.301 324.442 110.192C323.163 107.985 321.295 106.087 318.551 104.743ZM325.025 119.621C325.522 119.812 326.013 120.023 326.47 120.247C326.304 117.618 325.907 114.95 324.807 112.545C323.779 113.355 322.772 114.113 321.944 114.719C323.282 116.116 324.323 117.915 325.025 119.621ZM318.518 106.245C318.379 109.355 317.875 112.103 317.875 112.103C317.875 112.103 317.895 112.189 317.955 112.36C317.961 112.36 317.961 112.36 317.961 112.36C319.088 112.584 320.108 113.131 321.023 113.876C322.103 112.881 323.064 111.846 323.892 110.864C322.713 109.046 321.003 107.451 318.518 106.245ZM325.376 112.096C326.463 114.739 326.9 117.678 327.073 120.57C328.564 121.4 329.339 121.895 330.081 122.679C330.24 118.475 330.214 113.816 328.59 109.322C327.662 110.225 326.523 111.181 325.376 112.096Z" fill="#E9EDF5"/>
<path d="M296.36 103.503C297.135 104.056 296.936 105.651 295.909 107.054C294.889 108.464 293.431 109.15 292.655 108.59C291.88 108.036 292.086 106.442 293.099 105.038C294.127 103.635 295.584 102.949 296.36 103.503Z" fill="#E9EDF5"/>
<path d="M292.436 109.407C292.781 109.592 292.788 110.244 292.45 110.863C292.112 111.483 291.562 111.839 291.217 111.654C290.873 111.476 290.873 110.824 291.204 110.198C291.542 109.579 292.092 109.229 292.436 109.407Z" fill="#E9EDF5"/>
<path d="M309.684 150.01C309.214 150.01 308.657 149.931 308.061 149.661C307.875 149.575 307.789 149.358 307.875 149.167C307.961 148.976 308.18 148.897 308.372 148.976C309.645 149.556 310.698 149.094 310.745 149.075C310.93 148.989 311.155 149.075 311.242 149.266C311.328 149.45 311.248 149.668 311.063 149.76C311.023 149.773 310.48 150.01 309.684 150.01Z" fill="#445971"/>
</g>
<line x1="277.407" y1="98" x2="340.108" y2="160.7" stroke="#1D3F52" stroke-width="3" stroke-linecap="round"/>
<line x1="1.5" y1="-1.5" x2="90.1713" y2="-1.5" transform="matrix(-0.707107 0.707107 0.707107 0.707107 346 98)" stroke="#1D3F52" stroke-width="3" stroke-linecap="round"/>
<rect width="80" height="80" transform="translate(360 90)" fill="white"/>
<g opacity="0.6" clip-path="url(#clip10_5589_117682)">
<path d="M400.865 165.898C400.712 165.891 400.593 165.799 400.6 165.687C400.646 163.637 399.162 162.188 397.85 160.903C396.591 159.664 395.497 158.597 396.498 157.437C397.353 156.442 399.414 155.987 401.6 155.506C404.576 154.847 407.385 154.228 406.961 152.35C406.636 150.907 403.515 149.985 400.567 149.708C400.421 149.688 400.315 149.583 400.335 149.471C400.348 149.352 400.487 149.273 400.626 149.286C403.674 149.569 407.08 150.505 407.478 152.278C407.988 154.531 404.814 155.236 401.739 155.915C399.745 156.356 397.677 156.811 396.929 157.681C396.193 158.537 396.915 159.322 398.261 160.639C399.559 161.911 401.17 163.493 401.13 165.693C401.123 165.812 401.011 165.898 400.865 165.898Z" fill="#445971"/>
<path d="M402.102 147.809C400.976 148.495 399.829 149.806 401.194 150.649C403.03 151.796 402.984 153.305 401.738 152.87C400.472 152.422 399.432 152.053 397.908 152.791C396.264 153.588 395.602 152.092 396.715 151.295C398.564 149.971 398.968 148.923 397.53 147.803C399.472 147.935 402.102 147.809 402.102 147.809Z" fill="#5E8BB8"/>
<path d="M402.328 148.139C411.658 145.312 423.088 133.353 422.167 116.59C421.206 99.0033 407.49 94.7861 400.161 94.7861C393.296 94.7861 377.87 99.7149 378.479 118.652C379.043 136.226 390.824 145.629 397.338 148.245C399.717 148.871 401.135 148.502 402.328 148.139Z" fill="#6BB0DC"/>
<path d="M416.609 132.825C410.592 142.755 396.683 143.302 389.255 134.584C381.834 125.88 380.515 117.215 380.515 117.215C380.515 117.215 379.852 131.25 390.474 141.7C401.097 152.158 413.508 140.673 416.609 132.825Z" fill="#5E8BB8"/>
<path d="M408.24 97.679C403.449 95.7352 389.514 94.3185 389.448 108.433C389.355 127.686 413.952 140.008 418.776 128.714C424.031 116.373 420.181 102.542 408.24 97.679Z" fill="#79BFEA"/>
<path d="M408.551 104.743C408.558 102.404 408.392 99.6889 407.484 98.3315C411.719 99.88 415.197 102.503 417.225 106.252C416.947 106.72 415.973 108.301 414.442 110.192C413.163 107.985 411.295 106.087 408.551 104.743ZM415.025 119.621C415.522 119.812 416.013 120.023 416.47 120.247C416.304 117.618 415.907 114.95 414.807 112.545C413.779 113.355 412.772 114.113 411.944 114.719C413.282 116.116 414.323 117.915 415.025 119.621ZM408.518 106.245C408.379 109.355 407.875 112.103 407.875 112.103C407.875 112.103 407.895 112.189 407.955 112.36C407.961 112.36 407.961 112.36 407.961 112.36C409.088 112.584 410.108 113.131 411.023 113.876C412.103 112.881 413.064 111.846 413.892 110.864C412.713 109.046 411.003 107.451 408.518 106.245ZM415.376 112.096C416.463 114.739 416.9 117.678 417.073 120.57C418.564 121.4 419.339 121.895 420.081 122.679C420.24 118.475 420.214 113.816 418.59 109.322C417.662 110.225 416.523 111.181 415.376 112.096Z" fill="#E9EDF5"/>
<path d="M386.36 103.503C387.135 104.056 386.936 105.651 385.909 107.054C384.889 108.464 383.431 109.15 382.655 108.59C381.88 108.036 382.086 106.442 383.099 105.038C384.127 103.635 385.584 102.949 386.36 103.503Z" fill="#E9EDF5"/>
<path d="M382.436 109.407C382.781 109.592 382.788 110.244 382.45 110.863C382.112 111.483 381.562 111.839 381.217 111.654C380.873 111.476 380.873 110.824 381.204 110.198C381.542 109.579 382.092 109.229 382.436 109.407Z" fill="#E9EDF5"/>
<path d="M399.684 150.01C399.214 150.01 398.657 149.931 398.061 149.661C397.875 149.575 397.789 149.358 397.875 149.167C397.961 148.976 398.18 148.897 398.372 148.976C399.645 149.556 400.698 149.094 400.745 149.075C400.93 148.989 401.155 149.075 401.242 149.266C401.328 149.45 401.248 149.668 401.063 149.76C401.023 149.773 400.48 150.01 399.684 150.01Z" fill="#445971"/>
</g>
<line x1="367.407" y1="98" x2="430.108" y2="160.7" stroke="#1D3F52" stroke-width="3" stroke-linecap="round"/>
<line x1="1.5" y1="-1.5" x2="90.1713" y2="-1.5" transform="matrix(-0.707107 0.707107 0.707107 0.707107 436 98)" stroke="#1D3F52" stroke-width="3" stroke-linecap="round"/>
<rect width="80" height="80" transform="translate(450 90)" fill="white"/>
<g opacity="0.6" clip-path="url(#clip11_5589_117682)">
<path d="M490.865 165.898C490.712 165.891 490.593 165.799 490.6 165.687C490.646 163.637 489.162 162.188 487.85 160.903C486.591 159.664 485.497 158.597 486.498 157.437C487.353 156.442 489.414 155.987 491.6 155.506C494.576 154.847 497.385 154.228 496.961 152.35C496.636 150.907 493.515 149.985 490.567 149.708C490.421 149.688 490.315 149.583 490.335 149.471C490.348 149.352 490.487 149.273 490.626 149.286C493.674 149.569 497.08 150.505 497.478 152.278C497.988 154.531 494.814 155.236 491.739 155.915C489.745 156.356 487.677 156.811 486.929 157.681C486.193 158.537 486.915 159.322 488.261 160.639C489.559 161.911 491.17 163.493 491.13 165.693C491.123 165.812 491.011 165.898 490.865 165.898Z" fill="#445971"/>
<path d="M492.102 147.809C490.976 148.495 489.829 149.806 491.194 150.649C493.03 151.796 492.984 153.305 491.738 152.87C490.472 152.422 489.432 152.053 487.908 152.791C486.264 153.588 485.602 152.092 486.715 151.295C488.564 149.971 488.968 148.923 487.53 147.803C489.472 147.935 492.102 147.809 492.102 147.809Z" fill="#5E8BB8"/>
<path d="M492.328 148.139C501.658 145.312 513.088 133.353 512.167 116.59C511.206 99.0033 497.49 94.7861 490.161 94.7861C483.296 94.7861 467.87 99.7149 468.479 118.652C469.043 136.226 480.824 145.629 487.338 148.245C489.717 148.871 491.135 148.502 492.328 148.139Z" fill="#6BB0DC"/>
<path d="M506.609 132.825C500.592 142.755 486.683 143.302 479.255 134.584C471.834 125.88 470.515 117.215 470.515 117.215C470.515 117.215 469.852 131.25 480.474 141.7C491.097 152.158 503.508 140.673 506.609 132.825Z" fill="#5E8BB8"/>
<path d="M498.24 97.679C493.449 95.7352 479.514 94.3185 479.448 108.433C479.355 127.686 503.952 140.008 508.776 128.714C514.031 116.373 510.181 102.542 498.24 97.679Z" fill="#79BFEA"/>
<path d="M498.551 104.743C498.558 102.404 498.392 99.6889 497.484 98.3315C501.719 99.88 505.197 102.503 507.225 106.252C506.947 106.72 505.973 108.301 504.442 110.192C503.163 107.985 501.295 106.087 498.551 104.743ZM505.025 119.621C505.522 119.812 506.013 120.023 506.47 120.247C506.304 117.618 505.907 114.95 504.807 112.545C503.779 113.355 502.772 114.113 501.944 114.719C503.282 116.116 504.323 117.915 505.025 119.621ZM498.518 106.245C498.379 109.355 497.875 112.103 497.875 112.103C497.875 112.103 497.895 112.189 497.955 112.36C497.961 112.36 497.961 112.36 497.961 112.36C499.088 112.584 500.108 113.131 501.023 113.876C502.103 112.881 503.064 111.846 503.892 110.864C502.713 109.046 501.003 107.451 498.518 106.245ZM505.376 112.096C506.463 114.739 506.9 117.678 507.073 120.57C508.564 121.4 509.339 121.895 510.081 122.679C510.24 118.475 510.214 113.816 508.59 109.322C507.662 110.225 506.523 111.181 505.376 112.096Z" fill="#E9EDF5"/>
<path d="M476.36 103.503C477.135 104.056 476.936 105.651 475.909 107.054C474.889 108.464 473.431 109.15 472.655 108.59C471.88 108.036 472.086 106.442 473.099 105.038C474.127 103.635 475.584 102.949 476.36 103.503Z" fill="#E9EDF5"/>
<path d="M472.436 109.407C472.781 109.592 472.788 110.244 472.45 110.863C472.112 111.483 471.562 111.839 471.217 111.654C470.873 111.476 470.873 110.824 471.204 110.198C471.542 109.579 472.092 109.229 472.436 109.407Z" fill="#E9EDF5"/>
<path d="M489.684 150.01C489.214 150.01 488.657 149.931 488.061 149.661C487.875 149.575 487.789 149.358 487.875 149.167C487.961 148.976 488.18 148.897 488.372 148.976C489.645 149.556 490.698 149.094 490.745 149.075C490.93 148.989 491.155 149.075 491.242 149.266C491.328 149.45 491.248 149.668 491.063 149.76C491.023 149.773 490.48 150.01 489.684 150.01Z" fill="#445971"/>
</g>
<line x1="457.407" y1="98" x2="520.108" y2="160.7" stroke="#1D3F52" stroke-width="3" stroke-linecap="round"/>
<line x1="1.5" y1="-1.5" x2="90.1713" y2="-1.5" transform="matrix(-0.707107 0.707107 0.707107 0.707107 526 98)" stroke="#1D3F52" stroke-width="3" stroke-linecap="round"/>
<defs>
<clipPath id="clip0_5589_117682">
<rect width="43.7607" height="71.1111" fill="white" transform="translate(18.4609 4.78613)"/>
</clipPath>
<clipPath id="clip1_5589_117682">
<rect width="43.7607" height="71.1111" fill="white" transform="translate(108.461 4.78613)"/>
</clipPath>
<clipPath id="clip2_5589_117682">
<rect width="43.7607" height="71.1111" fill="white" transform="translate(198.461 4.78613)"/>
</clipPath>
<clipPath id="clip3_5589_117682">
<rect width="43.7607" height="71.1111" fill="white" transform="translate(288.461 4.78613)"/>
</clipPath>
<clipPath id="clip4_5589_117682">
<rect width="43.7607" height="71.1111" fill="white" transform="translate(378.461 4.78613)"/>
</clipPath>
<clipPath id="clip5_5589_117682">
<rect width="43.7607" height="71.1111" fill="white" transform="translate(468.461 4.78613)"/>
</clipPath>
<clipPath id="clip6_5589_117682">
<rect width="43.7607" height="71.1111" fill="white" transform="translate(18.4609 94.7861)"/>
</clipPath>
<clipPath id="clip7_5589_117682">
<rect width="43.7607" height="71.1111" fill="white" transform="translate(108.461 94.7861)"/>
</clipPath>
<clipPath id="clip8_5589_117682">
<rect width="43.7607" height="71.1111" fill="white" transform="translate(198.461 94.7861)"/>
</clipPath>
<clipPath id="clip9_5589_117682">
<rect width="43.7607" height="71.1111" fill="white" transform="translate(288.461 94.7861)"/>
</clipPath>
<clipPath id="clip10_5589_117682">
<rect width="43.7607" height="71.1111" fill="white" transform="translate(378.461 94.7861)"/>
</clipPath>
<clipPath id="clip11_5589_117682">
<rect width="43.7607" height="71.1111" fill="white" transform="translate(468.461 94.7861)"/>
</clipPath>
</defs>
</svg>
