<svg width="170" height="45" viewBox="0 0 170 45" fill="none" xmlns="http://www.w3.org/2000/svg">
<path d="M0 5C0 2.23858 2.23858 0 5 0H165C167.761 0 170 2.23858 170 5V40C170 42.7614 167.761 45 165 45H5C2.23858 45 0 42.7614 0 40V5Z" fill="#48B736"/>
<path d="M85.1399 21.3C86.4599 21.372 87.4619 21.732 88.1459 22.38C88.8419 23.016 89.1899 23.85 89.1899 24.882C89.1899 25.602 89.0159 26.244 88.6679 26.808C88.3199 27.36 87.8039 27.798 87.1199 28.122C86.4359 28.446 85.6019 28.608 84.6179 28.608C83.7059 28.608 82.8419 28.464 82.0259 28.176C81.2219 27.876 80.5739 27.48 80.0819 26.988L80.7119 25.962C81.1319 26.394 81.6899 26.748 82.3859 27.024C83.0819 27.288 83.8259 27.42 84.6179 27.42C85.6499 27.42 86.4479 27.198 87.0119 26.754C87.5759 26.298 87.8579 25.674 87.8579 24.882C87.8579 24.102 87.5759 23.49 87.0119 23.046C86.4479 22.602 85.5959 22.38 84.4559 22.38H83.5559V21.426L87.0479 17.052H80.6039V15.9H88.7039V16.818L85.1399 21.3Z" fill="white"/>
</svg>
