<svg width="570" height="210" viewBox="0 0 570 210" fill="none" xmlns="http://www.w3.org/2000/svg">
<rect x="0.5" y="0.5" width="269" height="209" rx="4.5" stroke="#D0D0D0"/>
<path d="M10 43C10 40.2386 12.2386 38 15 38H85C87.7614 38 90 40.2386 90 43V78C90 80.7614 87.7614 83 85 83H15C12.2386 83 10 80.7614 10 78V43Z" fill="#9DD765"/>
<path d="M35.1184 58.85C35.9464 58.85 36.6844 59.006 37.3324 59.318C37.9924 59.63 38.5084 60.08 38.8804 60.668C39.2524 61.244 39.4384 61.91 39.4384 62.666C39.4384 63.458 39.2404 64.154 38.8444 64.754C38.4604 65.354 37.9264 65.822 37.2424 66.158C36.5704 66.482 35.8144 66.644 34.9744 66.644C33.2824 66.644 31.9744 66.098 31.0504 65.006C30.1384 63.914 29.6824 62.366 29.6824 60.362C29.6824 58.958 29.9284 57.764 30.4204 56.78C30.9244 55.784 31.6204 55.034 32.5084 54.53C33.4084 54.014 34.4524 53.756 35.6404 53.756C36.2524 53.756 36.8284 53.822 37.3684 53.954C37.9084 54.074 38.3764 54.254 38.7724 54.494L38.0884 55.898C37.4884 55.502 36.6844 55.304 35.6764 55.304C34.3684 55.304 33.3424 55.712 32.5984 56.528C31.8544 57.332 31.4824 58.508 31.4824 60.056C31.4824 60.248 31.4884 60.398 31.5004 60.506C31.8604 59.966 32.3524 59.558 32.9764 59.282C33.6124 58.994 34.3264 58.85 35.1184 58.85ZM34.9024 65.186C35.7304 65.186 36.4024 64.964 36.9184 64.52C37.4344 64.076 37.6924 63.482 37.6924 62.738C37.6924 61.994 37.4284 61.406 36.9004 60.974C36.3844 60.53 35.6884 60.308 34.8124 60.308C34.2484 60.308 33.7444 60.416 33.3004 60.632C32.8684 60.848 32.5264 61.142 32.2744 61.514C32.0344 61.886 31.9144 62.3 31.9144 62.756C31.9144 63.2 32.0284 63.608 32.2564 63.98C32.4964 64.34 32.8384 64.634 33.2824 64.862C33.7384 65.078 34.2784 65.186 34.9024 65.186ZM45.9677 57.356H54.0317V58.778H45.9677V57.356ZM45.9677 61.622H54.0317V63.044H45.9677V61.622ZM66.3723 58.85C67.2003 58.85 67.9383 59.006 68.5863 59.318C69.2463 59.63 69.7623 60.08 70.1343 60.668C70.5063 61.244 70.6923 61.91 70.6923 62.666C70.6923 63.458 70.4943 64.154 70.0983 64.754C69.7143 65.354 69.1803 65.822 68.4963 66.158C67.8243 66.482 67.0683 66.644 66.2283 66.644C64.5363 66.644 63.2283 66.098 62.3043 65.006C61.3923 63.914 60.9363 62.366 60.9363 60.362C60.9363 58.958 61.1823 57.764 61.6743 56.78C62.1783 55.784 62.8743 55.034 63.7623 54.53C64.6623 54.014 65.7063 53.756 66.8943 53.756C67.5063 53.756 68.0823 53.822 68.6223 53.954C69.1623 54.074 69.6303 54.254 70.0263 54.494L69.3423 55.898C68.7423 55.502 67.9383 55.304 66.9303 55.304C65.6223 55.304 64.5963 55.712 63.8523 56.528C63.1083 57.332 62.7363 58.508 62.7363 60.056C62.7363 60.248 62.7423 60.398 62.7543 60.506C63.1143 59.966 63.6063 59.558 64.2303 59.282C64.8663 58.994 65.5803 58.85 66.3723 58.85ZM66.1563 65.186C66.9843 65.186 67.6563 64.964 68.1723 64.52C68.6883 64.076 68.9463 63.482 68.9463 62.738C68.9463 61.994 68.6823 61.406 68.1543 60.974C67.6383 60.53 66.9423 60.308 66.0663 60.308C65.5023 60.308 64.9983 60.416 64.5543 60.632C64.1223 60.848 63.7803 61.142 63.5283 61.514C63.2883 61.886 63.1683 62.3 63.1683 62.756C63.1683 63.2 63.2823 63.608 63.5103 63.98C63.7503 64.34 64.0923 64.634 64.5363 64.862C64.9923 65.078 65.5323 65.186 66.1563 65.186Z" fill="#205B64"/>
<path d="M15 39H85V37H15V39ZM89 43V78H91V43H89ZM85 82H15V84H85V82ZM11 78V43H9V78H11ZM15 82C12.7909 82 11 80.2091 11 78H9C9 81.3137 11.6863 84 15 84V82ZM89 78C89 80.2091 87.2091 82 85 82V84C88.3137 84 91 81.3137 91 78H89ZM85 39C87.2091 39 89 40.7909 89 43H91C91 39.6863 88.3137 37 85 37V39ZM15 37C11.6863 37 9 39.6863 9 43H11C11 40.7909 12.7909 39 15 39V37Z" fill="#9DD765"/>
<path d="M100 43C100 40.2386 102.239 38 105 38H175C177.761 38 180 40.2386 180 43V78C180 80.7614 177.761 83 175 83H105C102.239 83 100 80.7614 100 78V43Z" fill="#9DD765"/>
<path d="M117.19 53.9V55.124L112.096 66.5H110.188L115.174 55.466H109.414V57.716H107.686V53.9H117.19ZM123.944 57.356H132.008V58.778H123.944V57.356ZM123.944 61.622H132.008V63.044H123.944V61.622ZM146.617 59.894C147.337 60.17 147.889 60.566 148.273 61.082C148.657 61.598 148.849 62.216 148.849 62.936C148.849 63.692 148.645 64.352 148.237 64.916C147.829 65.468 147.247 65.894 146.491 66.194C145.735 66.494 144.847 66.644 143.827 66.644C142.819 66.644 141.937 66.494 141.181 66.194C140.437 65.894 139.861 65.468 139.453 64.916C139.045 64.352 138.841 63.692 138.841 62.936C138.841 62.216 139.027 61.598 139.399 61.082C139.783 60.566 140.335 60.17 141.055 59.894C140.479 59.618 140.041 59.252 139.741 58.796C139.441 58.34 139.291 57.8 139.291 57.176C139.291 56.48 139.477 55.874 139.849 55.358C140.233 54.842 140.767 54.446 141.451 54.17C142.135 53.894 142.927 53.756 143.827 53.756C144.739 53.756 145.537 53.894 146.221 54.17C146.917 54.446 147.451 54.842 147.823 55.358C148.207 55.874 148.399 56.48 148.399 57.176C148.399 57.788 148.243 58.328 147.931 58.796C147.631 59.252 147.193 59.618 146.617 59.894ZM143.827 55.214C142.975 55.214 142.303 55.4 141.811 55.772C141.319 56.132 141.073 56.624 141.073 57.248C141.073 57.872 141.313 58.364 141.793 58.724C142.285 59.084 142.963 59.264 143.827 59.264C144.703 59.264 145.387 59.084 145.879 58.724C146.383 58.364 146.635 57.872 146.635 57.248C146.635 56.624 146.377 56.132 145.861 55.772C145.357 55.4 144.679 55.214 143.827 55.214ZM143.827 65.186C144.823 65.186 145.609 64.982 146.185 64.574C146.761 64.154 147.049 63.59 147.049 62.882C147.049 62.186 146.761 61.64 146.185 61.244C145.609 60.836 144.823 60.632 143.827 60.632C142.831 60.632 142.051 60.836 141.487 61.244C140.923 61.64 140.641 62.186 140.641 62.882C140.641 63.59 140.923 64.154 141.487 64.574C142.051 64.982 142.831 65.186 143.827 65.186ZM155.493 60.812H160.335V62.306H155.493V60.812ZM170.961 53.9V66.5H169.179V55.466H166.335V53.9H170.961Z" fill="#205B64"/>
<path d="M105 39H175V37H105V39ZM179 43V78H181V43H179ZM175 82H105V84H175V82ZM101 78V43H99V78H101ZM105 82C102.791 82 101 80.2091 101 78H99C99 81.3137 101.686 84 105 84V82ZM179 78C179 80.2091 177.209 82 175 82V84C178.314 84 181 81.3137 181 78H179ZM175 39C177.209 39 179 40.7909 179 43H181C181 39.6863 178.314 37 175 37V39ZM105 37C101.686 37 99 39.6863 99 43H101C101 40.7909 102.791 39 105 39V37Z" fill="#9DD765"/>
<path d="M10 98C10 95.2386 12.2386 93 15 93H125C127.761 93 130 95.2386 130 98V133C130 135.761 127.761 138 125 138H15C12.2386 138 10 135.761 10 133V98Z" fill="#9DD765"/>
<path d="M25.0255 113.922C26.8255 113.922 28.1455 114.264 28.9855 114.948C29.8375 115.62 30.2635 116.544 30.2635 117.72C30.2635 118.464 30.0835 119.136 29.7235 119.736C29.3755 120.324 28.8415 120.792 28.1215 121.14C27.4135 121.476 26.5375 121.644 25.4935 121.644C24.6055 121.644 23.7475 121.512 22.9195 121.248C22.0915 120.972 21.4075 120.594 20.8675 120.114L21.6955 118.692C22.1275 119.1 22.6795 119.43 23.3515 119.682C24.0235 119.922 24.7315 120.042 25.4755 120.042C26.4235 120.042 27.1555 119.844 27.6715 119.448C28.1995 119.04 28.4635 118.488 28.4635 117.792C28.4635 117.036 28.1755 116.466 27.5995 116.082C27.0235 115.686 26.0395 115.488 24.6475 115.488H21.7855L22.4515 108.9H29.5615V110.466H23.9635L23.6215 113.922H25.0255ZM45.0014 115.92H41.7254V119.142H40.2134V115.92H36.9374V114.498H40.2134V111.258H41.7254V114.498H45.0014V115.92ZM60.762 119.934V121.5H51.708V120.276L56.838 115.326C57.462 114.726 57.882 114.21 58.098 113.778C58.314 113.334 58.422 112.89 58.422 112.446C58.422 111.786 58.188 111.276 57.72 110.916C57.264 110.544 56.604 110.358 55.74 110.358C54.348 110.358 53.274 110.814 52.518 111.726L51.294 110.664C51.786 110.064 52.428 109.596 53.22 109.26C54.024 108.924 54.918 108.756 55.902 108.756C57.222 108.756 58.272 109.074 59.052 109.71C59.832 110.334 60.222 111.186 60.222 112.266C60.222 112.938 60.078 113.574 59.79 114.174C59.502 114.774 58.956 115.458 58.152 116.226L54.3 119.934H60.762ZM67.4179 112.356H75.4819V113.778H67.4179V112.356ZM67.4179 116.622H75.4819V118.044H67.4179V116.622ZM86.2925 108.9V121.5H84.5105V110.466H81.6665V108.9H86.2925ZM102.289 115.92H99.0126V119.142H97.5006V115.92H94.2246V114.498H97.5006V111.258H99.0126V114.498H102.289V115.92ZM114.629 113.85C115.457 113.85 116.195 114.006 116.843 114.318C117.503 114.63 118.019 115.08 118.391 115.668C118.763 116.244 118.949 116.91 118.949 117.666C118.949 118.458 118.751 119.154 118.355 119.754C117.971 120.354 117.437 120.822 116.753 121.158C116.081 121.482 115.325 121.644 114.485 121.644C112.793 121.644 111.485 121.098 110.561 120.006C109.649 118.914 109.193 117.366 109.193 115.362C109.193 113.958 109.439 112.764 109.931 111.78C110.435 110.784 111.131 110.034 112.019 109.53C112.919 109.014 113.963 108.756 115.151 108.756C115.763 108.756 116.339 108.822 116.879 108.954C117.419 109.074 117.887 109.254 118.283 109.494L117.599 110.898C116.999 110.502 116.195 110.304 115.187 110.304C113.879 110.304 112.853 110.712 112.109 111.528C111.365 112.332 110.993 113.508 110.993 115.056C110.993 115.248 110.999 115.398 111.011 115.506C111.371 114.966 111.863 114.558 112.487 114.282C113.123 113.994 113.837 113.85 114.629 113.85ZM114.413 120.186C115.241 120.186 115.913 119.964 116.429 119.52C116.945 119.076 117.203 118.482 117.203 117.738C117.203 116.994 116.939 116.406 116.411 115.974C115.895 115.53 115.199 115.308 114.323 115.308C113.759 115.308 113.255 115.416 112.811 115.632C112.379 115.848 112.037 116.142 111.785 116.514C111.545 116.886 111.425 117.3 111.425 117.756C111.425 118.2 111.539 118.608 111.767 118.98C112.007 119.34 112.349 119.634 112.793 119.862C113.249 120.078 113.789 120.186 114.413 120.186Z" fill="#205B64"/>
<path d="M15 94H125V92H15V94ZM129 98V133H131V98H129ZM125 137H15V139H125V137ZM11 133V98H9V133H11ZM15 137C12.7909 137 11 135.209 11 133H9C9 136.314 11.6863 139 15 139V137ZM129 133C129 135.209 127.209 137 125 137V139C128.314 139 131 136.314 131 133H129ZM125 94C127.209 94 129 95.7909 129 98H131C131 94.6863 128.314 92 125 92V94ZM15 92C11.6863 92 9 94.6863 9 98H11C11 95.7909 12.7909 94 15 94V92Z" fill="#9DD765"/>
<path d="M140 98C140 95.2386 142.239 93 145 93H255C257.761 93 260 95.2386 260 98V133C260 135.761 257.761 138 255 138H145C142.239 138 140 135.761 140 133V98Z" fill="#9DD765"/>
<path d="M152.915 108.9V121.5H151.133V110.466H148.289V108.9H152.915ZM166.633 118.404H164.239V121.5H162.493V118.404H155.491V117.144L161.935 108.9H163.879L157.705 116.856H162.547V114.12H164.239V116.856H166.633V118.404ZM172.708 115.812H177.55V117.306H172.708V115.812ZM193.126 119.934V121.5H184.072V120.276L189.202 115.326C189.826 114.726 190.246 114.21 190.462 113.778C190.678 113.334 190.786 112.89 190.786 112.446C190.786 111.786 190.552 111.276 190.084 110.916C189.628 110.544 188.968 110.358 188.104 110.358C186.712 110.358 185.638 110.814 184.882 111.726L183.658 110.664C184.15 110.064 184.792 109.596 185.584 109.26C186.388 108.924 187.282 108.756 188.266 108.756C189.586 108.756 190.636 109.074 191.416 109.71C192.196 110.334 192.586 111.186 192.586 112.266C192.586 112.938 192.442 113.574 192.154 114.174C191.866 114.774 191.32 115.458 190.516 116.226L186.664 119.934H193.126ZM199.602 115.812H204.444V117.306H199.602V115.812ZM215.989 114.192C217.225 114.312 218.167 114.696 218.815 115.344C219.463 115.98 219.787 116.796 219.787 117.792C219.787 118.512 219.607 119.166 219.247 119.754C218.887 120.33 218.347 120.792 217.627 121.14C216.919 121.476 216.049 121.644 215.017 121.644C214.117 121.644 213.253 121.512 212.425 121.248C211.597 120.972 210.919 120.594 210.391 120.114L211.219 118.692C211.651 119.1 212.203 119.43 212.875 119.682C213.547 119.922 214.261 120.042 215.017 120.042C215.953 120.042 216.679 119.844 217.195 119.448C217.723 119.052 217.987 118.506 217.987 117.81C217.987 117.114 217.729 116.574 217.213 116.19C216.697 115.806 215.917 115.614 214.873 115.614H213.865V114.354L217.033 110.466H210.967V108.9H219.283V110.124L215.989 114.192ZM226.642 112.356H234.706V113.778H226.642V112.356ZM226.642 116.622H234.706V118.044H226.642V116.622ZM245.696 108.756C247.388 108.756 248.69 109.302 249.602 110.394C250.526 111.486 250.988 113.034 250.988 115.038C250.988 116.442 250.736 117.642 250.232 118.638C249.74 119.622 249.044 120.372 248.144 120.888C247.256 121.392 246.218 121.644 245.03 121.644C244.418 121.644 243.842 121.584 243.302 121.464C242.762 121.332 242.294 121.146 241.898 120.906L242.582 119.502C243.194 119.898 244.004 120.096 245.012 120.096C246.32 120.096 247.34 119.694 248.072 118.89C248.816 118.074 249.188 116.892 249.188 115.344V114.894C248.828 115.434 248.33 115.848 247.694 116.136C247.058 116.412 246.344 116.55 245.552 116.55C244.724 116.55 243.98 116.394 243.32 116.082C242.672 115.77 242.162 115.326 241.79 114.75C241.43 114.162 241.25 113.49 241.25 112.734C241.25 111.942 241.442 111.246 241.826 110.646C242.222 110.046 242.756 109.584 243.428 109.26C244.1 108.924 244.856 108.756 245.696 108.756ZM245.858 115.092C246.422 115.092 246.926 114.984 247.37 114.768C247.814 114.552 248.156 114.258 248.396 113.886C248.648 113.514 248.774 113.1 248.774 112.644C248.774 112.2 248.654 111.798 248.414 111.438C248.186 111.066 247.844 110.772 247.388 110.556C246.944 110.328 246.404 110.214 245.768 110.214C244.94 110.214 244.268 110.436 243.752 110.88C243.248 111.324 242.996 111.918 242.996 112.662C242.996 113.406 243.254 114 243.77 114.444C244.286 114.876 244.982 115.092 245.858 115.092Z" fill="#205B64"/>
<path d="M145 94H255V92H145V94ZM259 98V133H261V98H259ZM255 137H145V139H255V137ZM141 133V98H139V133H141ZM145 137C142.791 137 141 135.209 141 133H139C139 136.314 141.686 139 145 139V137ZM259 133C259 135.209 257.209 137 255 137V139C258.314 139 261 136.314 261 133H259ZM255 94C257.209 94 259 95.7909 259 98H261C261 94.6863 258.314 92 255 92V94ZM145 92C141.686 92 139 94.6863 139 98H141C141 95.7909 142.791 94 145 94V92Z" fill="#9DD765"/>
<path d="M10 153C10 150.239 12.2386 148 15 148H125C127.761 148 130 150.239 130 153V188C130 190.761 127.761 193 125 193H15C12.2386 193 10 190.761 10 188V153Z" fill="#9DD765"/>
<path d="M24.9371 169.894C25.6571 170.17 26.2091 170.566 26.5931 171.082C26.9771 171.598 27.1691 172.216 27.1691 172.936C27.1691 173.692 26.9651 174.352 26.5571 174.916C26.1491 175.468 25.5671 175.894 24.8111 176.194C24.0551 176.494 23.1671 176.644 22.1471 176.644C21.1391 176.644 20.2571 176.494 19.5011 176.194C18.7571 175.894 18.1811 175.468 17.7731 174.916C17.3651 174.352 17.1611 173.692 17.1611 172.936C17.1611 172.216 17.3471 171.598 17.7191 171.082C18.1031 170.566 18.6551 170.17 19.3751 169.894C18.7991 169.618 18.3611 169.252 18.0611 168.796C17.7611 168.34 17.6111 167.8 17.6111 167.176C17.6111 166.48 17.7971 165.874 18.1691 165.358C18.5531 164.842 19.0871 164.446 19.7711 164.17C20.4551 163.894 21.2471 163.756 22.1471 163.756C23.0591 163.756 23.8571 163.894 24.5411 164.17C25.2371 164.446 25.7711 164.842 26.1431 165.358C26.5271 165.874 26.7191 166.48 26.7191 167.176C26.7191 167.788 26.5631 168.328 26.2511 168.796C25.9511 169.252 25.5131 169.618 24.9371 169.894ZM22.1471 165.214C21.2951 165.214 20.6231 165.4 20.1311 165.772C19.6391 166.132 19.3931 166.624 19.3931 167.248C19.3931 167.872 19.6331 168.364 20.1131 168.724C20.6051 169.084 21.2831 169.264 22.1471 169.264C23.0231 169.264 23.7071 169.084 24.1991 168.724C24.7031 168.364 24.9551 167.872 24.9551 167.248C24.9551 166.624 24.6971 166.132 24.1811 165.772C23.6771 165.4 22.9991 165.214 22.1471 165.214ZM22.1471 175.186C23.1431 175.186 23.9291 174.982 24.5051 174.574C25.0811 174.154 25.3691 173.59 25.3691 172.882C25.3691 172.186 25.0811 171.64 24.5051 171.244C23.9291 170.836 23.1431 170.632 22.1471 170.632C21.1511 170.632 20.3711 170.836 19.8071 171.244C19.2431 171.64 18.9611 172.186 18.9611 172.882C18.9611 173.59 19.2431 174.154 19.8071 174.574C20.3711 174.982 21.1511 175.186 22.1471 175.186ZM42.0571 170.92H38.7811V174.142H37.2691V170.92H33.9931V169.498H37.2691V166.258H38.7811V169.498H42.0571V170.92ZM54.3977 168.85C55.2257 168.85 55.9637 169.006 56.6117 169.318C57.2717 169.63 57.7877 170.08 58.1597 170.668C58.5317 171.244 58.7177 171.91 58.7177 172.666C58.7177 173.458 58.5197 174.154 58.1237 174.754C57.7397 175.354 57.2057 175.822 56.5217 176.158C55.8497 176.482 55.0937 176.644 54.2537 176.644C52.5617 176.644 51.2537 176.098 50.3297 175.006C49.4177 173.914 48.9617 172.366 48.9617 170.362C48.9617 168.958 49.2077 167.764 49.6997 166.78C50.2037 165.784 50.8997 165.034 51.7877 164.53C52.6877 164.014 53.7317 163.756 54.9197 163.756C55.5317 163.756 56.1077 163.822 56.6477 163.954C57.1877 164.074 57.6557 164.254 58.0517 164.494L57.3677 165.898C56.7677 165.502 55.9637 165.304 54.9557 165.304C53.6477 165.304 52.6217 165.712 51.8777 166.528C51.1337 167.332 50.7617 168.508 50.7617 170.056C50.7617 170.248 50.7677 170.398 50.7797 170.506C51.1397 169.966 51.6317 169.558 52.2557 169.282C52.8917 168.994 53.6057 168.85 54.3977 168.85ZM54.1817 175.186C55.0097 175.186 55.6817 174.964 56.1977 174.52C56.7137 174.076 56.9717 173.482 56.9717 172.738C56.9717 171.994 56.7077 171.406 56.1797 170.974C55.6637 170.53 54.9677 170.308 54.0917 170.308C53.5277 170.308 53.0237 170.416 52.5797 170.632C52.1477 170.848 51.8057 171.142 51.5537 171.514C51.3137 171.886 51.1937 172.3 51.1937 172.756C51.1937 173.2 51.3077 173.608 51.5357 173.98C51.7757 174.34 52.1177 174.634 52.5617 174.862C53.0177 175.078 53.5577 175.186 54.1817 175.186ZM65.247 167.356H73.311V168.778H65.247V167.356ZM65.247 171.622H73.311V173.044H65.247V171.622ZM84.1216 163.9V176.5H82.3396V165.466H79.4956V163.9H84.1216ZM96.0577 163.9V165.124L90.9637 176.5H89.0557L94.0417 165.466H88.2817V167.716H86.5537V163.9H96.0577ZM102.631 170.812H107.473V172.306H102.631V170.812ZM119.018 169.192C120.254 169.312 121.196 169.696 121.844 170.344C122.492 170.98 122.816 171.796 122.816 172.792C122.816 173.512 122.636 174.166 122.276 174.754C121.916 175.33 121.376 175.792 120.656 176.14C119.948 176.476 119.078 176.644 118.046 176.644C117.146 176.644 116.282 176.512 115.454 176.248C114.626 175.972 113.948 175.594 113.42 175.114L114.248 173.692C114.68 174.1 115.232 174.43 115.904 174.682C116.576 174.922 117.29 175.042 118.046 175.042C118.982 175.042 119.708 174.844 120.224 174.448C120.752 174.052 121.016 173.506 121.016 172.81C121.016 172.114 120.758 171.574 120.242 171.19C119.726 170.806 118.946 170.614 117.902 170.614H116.894V169.354L120.062 165.466H113.996V163.9H122.312V165.124L119.018 169.192Z" fill="#205B64"/>
<path d="M15 149H125V147H15V149ZM129 153V188H131V153H129ZM125 192H15V194H125V192ZM11 188V153H9V188H11ZM15 192C12.7909 192 11 190.209 11 188H9C9 191.314 11.6863 194 15 194V192ZM129 188C129 190.209 127.209 192 125 192V194C128.314 194 131 191.314 131 188H129ZM125 149C127.209 149 129 150.791 129 153H131C131 149.686 128.314 147 125 147V149ZM15 147C11.6863 147 9 149.686 9 153H11C11 150.791 12.7909 149 15 149V147Z" fill="#9DD765"/>
<path d="M0 5C0 2.23858 2.23858 0 5 0H265C267.761 0 270 2.23858 270 5V28H0V5Z" fill="#205B64"/>
<path d="M115.812 10.912H112.228V8.8H121.988V10.912H118.404V20H115.812V10.912ZM125.403 12.528C125.702 12.112 126.102 11.7973 126.603 11.584C127.115 11.3707 127.702 11.264 128.363 11.264V13.568C128.086 13.5467 127.899 13.536 127.803 13.536C127.089 13.536 126.529 13.7387 126.123 14.144C125.718 14.5387 125.515 15.136 125.515 15.936V20H123.019V11.392H125.403V12.528ZM138.582 11.392V20H136.214V18.976C135.883 19.3493 135.488 19.6373 135.03 19.84C134.571 20.032 134.075 20.128 133.542 20.128C132.411 20.128 131.515 19.8027 130.854 19.152C130.192 18.5013 129.862 17.536 129.862 16.256V11.392H132.358V15.888C132.358 17.2747 132.939 17.968 134.102 17.968C134.699 17.968 135.179 17.776 135.542 17.392C135.904 16.9973 136.086 16.416 136.086 15.648V11.392H138.582ZM149.326 15.728C149.326 15.76 149.31 15.984 149.278 16.4H142.766C142.884 16.9333 143.161 17.3547 143.598 17.664C144.036 17.9733 144.58 18.128 145.23 18.128C145.678 18.128 146.073 18.064 146.414 17.936C146.766 17.7973 147.092 17.584 147.39 17.296L148.718 18.736C147.908 19.664 146.724 20.128 145.166 20.128C144.196 20.128 143.337 19.9413 142.59 19.568C141.844 19.184 141.268 18.656 140.862 17.984C140.457 17.312 140.254 16.5493 140.254 15.696C140.254 14.8533 140.452 14.096 140.846 13.424C141.252 12.7413 141.801 12.2133 142.494 11.84C143.198 11.456 143.982 11.264 144.846 11.264C145.689 11.264 146.452 11.4453 147.134 11.808C147.817 12.1707 148.35 12.6933 148.734 13.376C149.129 14.048 149.326 14.832 149.326 15.728ZM144.862 13.152C144.297 13.152 143.822 13.312 143.438 13.632C143.054 13.952 142.82 14.3893 142.734 14.944H146.974C146.889 14.4 146.654 13.968 146.27 13.648C145.886 13.3173 145.417 13.152 144.862 13.152Z" fill="white"/>
<rect x="300.5" y="0.5" width="269" height="209" rx="4.5" stroke="#D0D0D0"/>
<path d="M300 5C300 2.23858 302.239 0 305 0H565C567.761 0 570 2.23858 570 5V28H300V5Z" fill="#205B64"/>
<path d="M413.287 10.88V13.84H418.471V15.92H413.287V20H410.695V8.8H419.159V10.88H413.287ZM423.976 11.264C425.309 11.264 426.333 11.584 427.048 12.224C427.762 12.8533 428.12 13.808 428.12 15.088V20H425.784V18.928C425.314 19.728 424.44 20.128 423.16 20.128C422.498 20.128 421.922 20.016 421.432 19.792C420.952 19.568 420.584 19.2587 420.328 18.864C420.072 18.4693 419.944 18.0213 419.944 17.52C419.944 16.72 420.242 16.0907 420.84 15.632C421.448 15.1733 422.381 14.944 423.64 14.944H425.624C425.624 14.4 425.458 13.984 425.128 13.696C424.797 13.3973 424.301 13.248 423.64 13.248C423.181 13.248 422.728 13.3227 422.28 13.472C421.842 13.6107 421.469 13.8027 421.16 14.048L420.264 12.304C420.733 11.9733 421.293 11.7173 421.944 11.536C422.605 11.3547 423.282 11.264 423.976 11.264ZM423.784 18.448C424.21 18.448 424.589 18.352 424.92 18.16C425.25 17.9573 425.485 17.664 425.624 17.28V16.4H423.912C422.888 16.4 422.376 16.736 422.376 17.408C422.376 17.728 422.498 17.984 422.744 18.176C423 18.3573 423.346 18.448 423.784 18.448ZM430.379 8.128H432.875V20H430.379V8.128ZM438.087 20.128C437.372 20.128 436.674 20.0427 435.991 19.872C435.308 19.6907 434.764 19.4667 434.359 19.2L435.191 17.408C435.575 17.6533 436.039 17.856 436.583 18.016C437.127 18.1653 437.66 18.24 438.183 18.24C439.239 18.24 439.767 17.9787 439.767 17.456C439.767 17.2107 439.623 17.0347 439.335 16.928C439.047 16.8213 438.604 16.7307 438.007 16.656C437.303 16.5493 436.722 16.4267 436.263 16.288C435.804 16.1493 435.404 15.904 435.063 15.552C434.732 15.2 434.567 14.6987 434.567 14.048C434.567 13.504 434.722 13.024 435.031 12.608C435.351 12.1813 435.81 11.8507 436.407 11.616C437.015 11.3813 437.73 11.264 438.551 11.264C439.159 11.264 439.762 11.3333 440.359 11.472C440.967 11.6 441.468 11.7813 441.863 12.016L441.031 13.792C440.274 13.3653 439.447 13.152 438.551 13.152C438.018 13.152 437.618 13.2267 437.351 13.376C437.084 13.5253 436.951 13.7173 436.951 13.952C436.951 14.2187 437.095 14.4053 437.383 14.512C437.671 14.6187 438.13 14.72 438.759 14.816C439.463 14.9333 440.039 15.0613 440.487 15.2C440.935 15.328 441.324 15.568 441.655 15.92C441.986 16.272 442.151 16.7627 442.151 17.392C442.151 17.9253 441.991 18.4 441.671 18.816C441.351 19.232 440.882 19.5573 440.263 19.792C439.655 20.016 438.93 20.128 438.087 20.128ZM452.123 15.728C452.123 15.76 452.107 15.984 452.075 16.4H445.563C445.68 16.9333 445.958 17.3547 446.395 17.664C446.832 17.9733 447.376 18.128 448.027 18.128C448.475 18.128 448.87 18.064 449.211 17.936C449.563 17.7973 449.888 17.584 450.187 17.296L451.515 18.736C450.704 19.664 449.52 20.128 447.963 20.128C446.992 20.128 446.134 19.9413 445.387 19.568C444.64 19.184 444.064 18.656 443.659 17.984C443.254 17.312 443.051 16.5493 443.051 15.696C443.051 14.8533 443.248 14.096 443.643 13.424C444.048 12.7413 444.598 12.2133 445.291 11.84C445.995 11.456 446.779 11.264 447.643 11.264C448.486 11.264 449.248 11.4453 449.931 11.808C450.614 12.1707 451.147 12.6933 451.531 13.376C451.926 14.048 452.123 14.832 452.123 15.728ZM447.659 13.152C447.094 13.152 446.619 13.312 446.235 13.632C445.851 13.952 445.616 14.3893 445.531 14.944H449.771C449.686 14.4 449.451 13.968 449.067 13.648C448.683 13.3173 448.214 13.152 447.659 13.152Z" fill="white"/>
<path d="M310 43C310 40.2386 312.239 38 315 38H425C427.761 38 430 40.2386 430 43V78C430 80.7614 427.761 83 425 83H315C312.239 83 310 80.7614 310 78V43Z" fill="#9DD765"/>
<path d="M338.578 59.894C339.298 60.17 339.85 60.566 340.234 61.082C340.618 61.598 340.81 62.216 340.81 62.936C340.81 63.692 340.606 64.352 340.198 64.916C339.79 65.468 339.208 65.894 338.452 66.194C337.696 66.494 336.808 66.644 335.788 66.644C334.78 66.644 333.898 66.494 333.142 66.194C332.398 65.894 331.822 65.468 331.414 64.916C331.006 64.352 330.802 63.692 330.802 62.936C330.802 62.216 330.988 61.598 331.36 61.082C331.744 60.566 332.296 60.17 333.016 59.894C332.44 59.618 332.002 59.252 331.702 58.796C331.402 58.34 331.252 57.8 331.252 57.176C331.252 56.48 331.438 55.874 331.81 55.358C332.194 54.842 332.728 54.446 333.412 54.17C334.096 53.894 334.888 53.756 335.788 53.756C336.7 53.756 337.498 53.894 338.182 54.17C338.878 54.446 339.412 54.842 339.784 55.358C340.168 55.874 340.36 56.48 340.36 57.176C340.36 57.788 340.204 58.328 339.892 58.796C339.592 59.252 339.154 59.618 338.578 59.894ZM335.788 55.214C334.936 55.214 334.264 55.4 333.772 55.772C333.28 56.132 333.034 56.624 333.034 57.248C333.034 57.872 333.274 58.364 333.754 58.724C334.246 59.084 334.924 59.264 335.788 59.264C336.664 59.264 337.348 59.084 337.84 58.724C338.344 58.364 338.596 57.872 338.596 57.248C338.596 56.624 338.338 56.132 337.822 55.772C337.318 55.4 336.64 55.214 335.788 55.214ZM335.788 65.186C336.784 65.186 337.57 64.982 338.146 64.574C338.722 64.154 339.01 63.59 339.01 62.882C339.01 62.186 338.722 61.64 338.146 61.244C337.57 60.836 336.784 60.632 335.788 60.632C334.792 60.632 334.012 60.836 333.448 61.244C332.884 61.64 332.602 62.186 332.602 62.882C332.602 63.59 332.884 64.154 333.448 64.574C334.012 64.982 334.792 65.186 335.788 65.186ZM355.698 60.92H352.422V64.142H350.91V60.92H347.634V59.498H350.91V56.258H352.422V59.498H355.698V60.92ZM368.038 58.85C368.866 58.85 369.604 59.006 370.252 59.318C370.912 59.63 371.428 60.08 371.8 60.668C372.172 61.244 372.358 61.91 372.358 62.666C372.358 63.458 372.16 64.154 371.764 64.754C371.38 65.354 370.846 65.822 370.162 66.158C369.49 66.482 368.734 66.644 367.894 66.644C366.202 66.644 364.894 66.098 363.97 65.006C363.058 63.914 362.602 62.366 362.602 60.362C362.602 58.958 362.848 57.764 363.34 56.78C363.844 55.784 364.54 55.034 365.428 54.53C366.328 54.014 367.372 53.756 368.56 53.756C369.172 53.756 369.748 53.822 370.288 53.954C370.828 54.074 371.296 54.254 371.692 54.494L371.008 55.898C370.408 55.502 369.604 55.304 368.596 55.304C367.288 55.304 366.262 55.712 365.518 56.528C364.774 57.332 364.402 58.508 364.402 60.056C364.402 60.248 364.408 60.398 364.42 60.506C364.78 59.966 365.272 59.558 365.896 59.282C366.532 58.994 367.246 58.85 368.038 58.85ZM367.822 65.186C368.65 65.186 369.322 64.964 369.838 64.52C370.354 64.076 370.612 63.482 370.612 62.738C370.612 61.994 370.348 61.406 369.82 60.974C369.304 60.53 368.608 60.308 367.732 60.308C367.168 60.308 366.664 60.416 366.22 60.632C365.788 60.848 365.446 61.142 365.194 61.514C364.954 61.886 364.834 62.3 364.834 62.756C364.834 63.2 364.948 63.608 365.176 63.98C365.416 64.34 365.758 64.634 366.202 64.862C366.658 65.078 367.198 65.186 367.822 65.186ZM378.888 57.356H386.952V58.778H378.888V57.356ZM378.888 61.622H386.952V63.044H378.888V61.622ZM397.762 53.9V66.5H395.98V55.466H393.136V53.9H397.762ZM409.374 64.934V66.5H400.32V65.276L405.45 60.326C406.074 59.726 406.494 59.21 406.71 58.778C406.926 58.334 407.034 57.89 407.034 57.446C407.034 56.786 406.8 56.276 406.332 55.916C405.876 55.544 405.216 55.358 404.352 55.358C402.96 55.358 401.886 55.814 401.13 56.726L399.906 55.664C400.398 55.064 401.04 54.596 401.832 54.26C402.636 53.924 403.53 53.756 404.514 53.756C405.834 53.756 406.884 54.074 407.664 54.71C408.444 55.334 408.834 56.186 408.834 57.266C408.834 57.938 408.69 58.574 408.402 59.174C408.114 59.774 407.568 60.458 406.764 61.226L402.912 64.934H409.374Z" fill="#205B64"/>
<path d="M315 39H425V37H315V39ZM429 43V78H431V43H429ZM425 82H315V84H425V82ZM311 78V43H309V78H311ZM315 82C312.791 82 311 80.2091 311 78H309C309 81.3137 311.686 84 315 84V82ZM429 78C429 80.2091 427.209 82 425 82V84C428.314 84 431 81.3137 431 78H429ZM425 39C427.209 39 429 40.7909 429 43H431C431 39.6863 428.314 37 425 37V39ZM315 37C311.686 37 309 39.6863 309 43H311C311 40.7909 312.791 39 315 39V37Z" fill="#9DD765"/>
<path d="M440 43C440 40.2386 442.239 38 445 38H515C517.761 38 520 40.2386 520 43V78C520 80.7614 517.761 83 515 83H445C442.239 83 440 80.7614 440 78V43Z" fill="#9DD765"/>
<path d="M465.118 58.85C465.946 58.85 466.684 59.006 467.332 59.318C467.992 59.63 468.508 60.08 468.88 60.668C469.252 61.244 469.438 61.91 469.438 62.666C469.438 63.458 469.24 64.154 468.844 64.754C468.46 65.354 467.926 65.822 467.242 66.158C466.57 66.482 465.814 66.644 464.974 66.644C463.282 66.644 461.974 66.098 461.05 65.006C460.138 63.914 459.682 62.366 459.682 60.362C459.682 58.958 459.928 57.764 460.42 56.78C460.924 55.784 461.62 55.034 462.508 54.53C463.408 54.014 464.452 53.756 465.64 53.756C466.252 53.756 466.828 53.822 467.368 53.954C467.908 54.074 468.376 54.254 468.772 54.494L468.088 55.898C467.488 55.502 466.684 55.304 465.676 55.304C464.368 55.304 463.342 55.712 462.598 56.528C461.854 57.332 461.482 58.508 461.482 60.056C461.482 60.248 461.488 60.398 461.5 60.506C461.86 59.966 462.352 59.558 462.976 59.282C463.612 58.994 464.326 58.85 465.118 58.85ZM464.902 65.186C465.73 65.186 466.402 64.964 466.918 64.52C467.434 64.076 467.692 63.482 467.692 62.738C467.692 61.994 467.428 61.406 466.9 60.974C466.384 60.53 465.688 60.308 464.812 60.308C464.248 60.308 463.744 60.416 463.3 60.632C462.868 60.848 462.526 61.142 462.274 61.514C462.034 61.886 461.914 62.3 461.914 62.756C461.914 63.2 462.028 63.608 462.256 63.98C462.496 64.34 462.838 64.634 463.282 64.862C463.738 65.078 464.278 65.186 464.902 65.186ZM475.968 57.356H484.032V58.778H475.968V57.356ZM475.968 61.622H484.032V63.044H475.968V61.622ZM496.372 58.85C497.2 58.85 497.938 59.006 498.586 59.318C499.246 59.63 499.762 60.08 500.134 60.668C500.506 61.244 500.692 61.91 500.692 62.666C500.692 63.458 500.494 64.154 500.098 64.754C499.714 65.354 499.18 65.822 498.496 66.158C497.824 66.482 497.068 66.644 496.228 66.644C494.536 66.644 493.228 66.098 492.304 65.006C491.392 63.914 490.936 62.366 490.936 60.362C490.936 58.958 491.182 57.764 491.674 56.78C492.178 55.784 492.874 55.034 493.762 54.53C494.662 54.014 495.706 53.756 496.894 53.756C497.506 53.756 498.082 53.822 498.622 53.954C499.162 54.074 499.63 54.254 500.026 54.494L499.342 55.898C498.742 55.502 497.938 55.304 496.93 55.304C495.622 55.304 494.596 55.712 493.852 56.528C493.108 57.332 492.736 58.508 492.736 60.056C492.736 60.248 492.742 60.398 492.754 60.506C493.114 59.966 493.606 59.558 494.23 59.282C494.866 58.994 495.58 58.85 496.372 58.85ZM496.156 65.186C496.984 65.186 497.656 64.964 498.172 64.52C498.688 64.076 498.946 63.482 498.946 62.738C498.946 61.994 498.682 61.406 498.154 60.974C497.638 60.53 496.942 60.308 496.066 60.308C495.502 60.308 494.998 60.416 494.554 60.632C494.122 60.848 493.78 61.142 493.528 61.514C493.288 61.886 493.168 62.3 493.168 62.756C493.168 63.2 493.282 63.608 493.51 63.98C493.75 64.34 494.092 64.634 494.536 64.862C494.992 65.078 495.532 65.186 496.156 65.186Z" fill="#205B64"/>
<path d="M445 39H515V37H445V39ZM519 43V78H521V43H519ZM515 82H445V84H515V82ZM441 78V43H439V78H441ZM445 82C442.791 82 441 80.2091 441 78H439C439 81.3137 441.686 84 445 84V82ZM519 78C519 80.2091 517.209 82 515 82V84C518.314 84 521 81.3137 521 78H519ZM515 39C517.209 39 519 40.7909 519 43H521C521 39.6863 518.314 37 515 37V39ZM445 37C441.686 37 439 39.6863 439 43H441C441 40.7909 442.791 39 445 39V37Z" fill="#9DD765"/>
<path d="M440 43C440 40.2386 442.239 38 445 38H555C557.761 38 560 40.2386 560 43V78C560 80.7614 557.761 83 555 83H445C442.239 83 440 80.7614 440 78V43Z" fill="#9DD765"/>
<path d="M461.922 63.404H459.528V66.5H457.782V63.404H450.78V62.144L457.224 53.9H459.168L452.994 61.856H457.836V59.12H459.528V61.856H461.922V63.404ZM476.241 60.92H472.965V64.142H471.453V60.92H468.177V59.498H471.453V56.258H472.965V59.498H476.241V60.92ZM487.051 53.9V66.5H485.269V55.466H482.425V53.9H487.051ZM494.983 57.356H503.047V58.778H494.983V57.356ZM494.983 61.622H503.047V63.044H494.983V61.622ZM513.552 58.922C515.352 58.922 516.672 59.264 517.512 59.948C518.364 60.62 518.79 61.544 518.79 62.72C518.79 63.464 518.61 64.136 518.25 64.736C517.902 65.324 517.368 65.792 516.648 66.14C515.94 66.476 515.064 66.644 514.02 66.644C513.132 66.644 512.274 66.512 511.446 66.248C510.618 65.972 509.934 65.594 509.394 65.114L510.222 63.692C510.654 64.1 511.206 64.43 511.878 64.682C512.55 64.922 513.258 65.042 514.002 65.042C514.95 65.042 515.682 64.844 516.198 64.448C516.726 64.04 516.99 63.488 516.99 62.792C516.99 62.036 516.702 61.466 516.126 61.082C515.55 60.686 514.566 60.488 513.174 60.488H510.312L510.978 53.9H518.088V55.466H512.49L512.148 58.922H513.552ZM533.528 60.92H530.252V64.142H528.74V60.92H525.464V59.498H528.74V56.258H530.252V59.498H533.528V60.92ZM549.288 64.934V66.5H540.234V65.276L545.364 60.326C545.988 59.726 546.408 59.21 546.624 58.778C546.84 58.334 546.948 57.89 546.948 57.446C546.948 56.786 546.714 56.276 546.246 55.916C545.79 55.544 545.13 55.358 544.266 55.358C542.874 55.358 541.8 55.814 541.044 56.726L539.82 55.664C540.312 55.064 540.954 54.596 541.746 54.26C542.55 53.924 543.444 53.756 544.428 53.756C545.748 53.756 546.798 54.074 547.578 54.71C548.358 55.334 548.748 56.186 548.748 57.266C548.748 57.938 548.604 58.574 548.316 59.174C548.028 59.774 547.482 60.458 546.678 61.226L542.826 64.934H549.288Z" fill="#205B64"/>
<path d="M445 39H555V37H445V39ZM559 43V78H561V43H559ZM555 82H445V84H555V82ZM441 78V43H439V78H441ZM445 82C442.791 82 441 80.2091 441 78H439C439 81.3137 441.686 84 445 84V82ZM559 78C559 80.2091 557.209 82 555 82V84C558.314 84 561 81.3137 561 78H559ZM555 39C557.209 39 559 40.7909 559 43H561C561 39.6863 558.314 37 555 37V39ZM445 37C441.686 37 439 39.6863 439 43H441C441 40.7909 442.791 39 445 39V37Z" fill="#9DD765"/>
</svg>
