<svg width="155" height="155" viewBox="0 0 155 155" fill="none" xmlns="http://www.w3.org/2000/svg">
<rect width="155" height="155" rx="10" fill="white"/>
<g clip-path="url(#clip0_3091_8335)">
<path d="M77.8604 19.3926C56.4219 19.3926 37.4892 31.0863 27.1875 48.6269L77.8604 77.8613V19.3926Z" fill="#5C7BCB"/>
<path d="M77.8608 79.2529C77.5824 79.2529 77.304 79.2529 77.0255 78.9745L26.6311 50.0186C26.3527 49.7401 26.0742 49.4617 26.0742 49.1833C26.0742 48.9049 26.0742 48.348 26.0742 48.0696C36.6543 29.4153 56.7007 18 77.8608 18C78.6961 18 79.2529 18.5568 79.2529 19.3921V77.8608C79.2529 78.4176 78.9745 78.6961 78.4177 78.9745C78.4177 79.2529 78.1392 79.2529 77.8608 79.2529ZM29.1369 48.0696L76.4687 75.355V20.7842C57.2576 21.3411 39.1601 31.6427 29.1369 48.0696Z" fill="#3A59A9"/>
<path d="M128.811 48.6269C118.509 31.0863 99.5763 19.3926 77.8594 19.3926V77.8613L128.811 48.6269Z" fill="#5C7BCB"/>
<path d="M77.86 79.2529C77.5816 79.2529 77.3031 79.2529 77.0247 78.9745C76.4679 78.6961 76.1895 78.1392 76.1895 77.8608V19.3921C76.4679 18.5568 77.3031 18 77.86 18C99.2985 18 119.066 29.4153 129.925 48.0696C130.203 48.348 130.203 48.9049 129.925 49.1833C129.925 49.4617 129.647 49.7401 129.368 50.0186L78.6953 79.2529C78.4168 79.2529 78.1384 79.2529 77.86 79.2529ZM79.2521 20.7842V75.6334L126.584 48.348C116.839 31.6427 98.7417 21.3411 79.2521 20.7842Z" fill="#3A59A9"/>
<path d="M128.811 48.626L77.8594 77.8603L128.811 48.626Z" fill="#E5EAF9"/>
<path d="M77.8603 79.2525C77.3034 79.2525 77.025 78.9741 76.7466 78.4172C76.4682 77.8604 76.4682 77.0251 77.3034 76.4683L127.976 47.2339C128.533 46.9555 129.368 46.9555 129.925 47.7907C129.925 48.0692 130.204 48.3476 130.204 48.3476C130.204 48.9044 129.925 49.1829 129.368 49.4613L78.6955 79.2525H78.4171C78.4171 79.2525 78.1387 79.2525 77.8603 79.2525C78.1387 79.2525 78.1387 79.2525 77.8603 79.2525Z" fill="#3A59A9"/>
<path d="M27.1875 48.626L77.8604 77.8603L27.1875 48.626Z" fill="#E5EAF9"/>
<path d="M77.8599 79.2527C77.5815 79.2527 77.303 79.2527 77.0246 78.9743L26.6302 50.0183C26.0733 49.7399 25.7949 49.1831 25.7949 48.9047C25.7949 48.6262 25.7949 48.3478 26.0733 48.0694C26.3518 47.5125 27.187 47.2341 28.0223 47.5125L78.6951 76.7469C79.252 77.0253 79.5304 77.5821 79.5304 77.8606C79.5304 78.139 79.5304 78.4174 79.252 78.6958C78.9736 79.2527 78.4167 79.2527 77.8599 79.2527Z" fill="#3A59A9"/>
<path d="M128.813 107.374C133.824 98.7429 136.608 88.7197 136.608 78.1396C136.608 67.5596 133.824 57.5364 128.813 48.9053L77.8613 77.8612L128.813 107.374Z" fill="#F5F8FF"/>
<path d="M128.812 108.766C128.534 108.766 128.255 108.766 127.977 108.488L77.304 79.2532C76.7472 78.9748 76.4688 78.418 76.4688 78.1396C76.4688 77.5827 76.7472 77.3043 77.304 77.0259L127.977 47.7915C128.534 47.5131 129.369 47.5131 129.926 48.3484C135.216 57.5363 138 67.8379 138 78.418C138 88.998 135.216 99.2996 129.926 108.488C129.647 108.488 129.369 108.766 128.812 108.766ZM80.6451 77.8611L127.977 105.147C132.432 96.7938 134.937 87.3275 134.937 77.8611C134.937 68.3948 132.432 58.9284 127.977 50.5757L80.6451 77.8611Z" fill="#3A59A9"/>
<path d="M27.1884 48.626C22.1768 57.2571 19.3926 67.2803 19.3926 77.8603C19.3926 88.4404 22.1768 98.4636 27.1884 107.095L77.8613 77.8603L27.1884 48.626Z" fill="#5C7BCB"/>
<path d="M27.1879 108.765C26.6311 108.765 26.3527 108.487 26.0742 107.93C20.7842 99.0207 18 88.4406 18 77.8606C18 67.2805 20.7842 56.9789 26.0742 48.0694C26.3527 47.5125 27.1879 47.2341 28.0232 47.5125L78.6961 76.7469C79.2529 77.0253 79.5313 77.5822 79.5313 77.8606C79.5313 78.4174 79.2529 78.6958 78.6961 78.9743L28.0232 108.487C27.7448 108.765 27.4664 108.765 27.1879 108.765ZM27.7448 50.5752C23.29 58.9279 20.7842 68.3942 20.7842 77.8606C20.7842 87.3269 23.29 96.7933 27.7448 105.146L75.0766 77.8606L27.7448 50.5752Z" fill="#3A59A9"/>
<path d="M77.8613 77.8604L128.813 107.373L77.8613 77.8604Z" fill="#E5EAF9"/>
<path d="M128.813 108.766C128.534 108.766 128.256 108.766 127.978 108.487L77.3047 79.2529C76.7479 78.9744 76.4695 78.1392 76.7479 77.3039C76.7479 77.3039 76.7479 77.0255 77.0263 77.0255C77.3047 76.7471 77.5832 76.7471 77.8616 76.7471C78.14 76.7471 78.4184 76.7471 78.6969 76.7471C78.6969 76.7471 78.6969 76.7471 78.9753 76.7471L129.37 105.981C129.927 106.26 130.205 107.095 129.927 107.93C129.648 108.487 129.37 108.766 128.813 108.766Z" fill="#3A59A9"/>
<path d="M77.8613 136.607C99.5783 136.607 118.511 124.914 128.534 107.373L77.8613 77.8604V136.607Z" fill="#F5F8FF"/>
<path d="M77.8609 138C77.0256 138 76.4688 137.443 76.4688 136.608V78.1389C76.4688 77.5821 76.7472 77.3036 77.304 77.0252C77.8609 76.7468 78.1393 76.7468 78.6961 77.0252L129.369 105.981C129.647 106.26 129.926 106.538 129.926 106.816C129.926 107.095 129.926 107.652 129.926 107.93C119.346 126.584 99.2994 138 77.8609 138ZM79.253 80.3663V135.215C98.7425 134.659 116.562 124.357 126.585 107.93L79.253 80.3663Z" fill="#3A59A9"/>
<path d="M27.1875 107.374L77.8604 77.8613L27.1875 107.374Z" fill="#E5EAF9"/>
<path d="M27.187 108.766C26.6302 108.766 26.3518 108.488 26.0733 107.931C26.0733 107.652 25.7949 107.374 25.7949 107.096C25.7949 106.539 26.0733 106.26 26.6302 105.982L77.303 76.7476C77.8599 76.4692 78.6951 76.4691 79.252 77.3044C79.252 77.5828 79.5304 77.8613 79.5304 78.1397C79.5304 78.6965 79.252 78.975 78.6951 79.2534L28.0223 108.488C27.7439 108.766 27.4655 108.766 27.187 108.766Z" fill="#3A59A9"/>
<path d="M27.1875 107.373C37.4891 124.914 56.4218 136.607 77.8604 136.607V78.1387L27.1875 107.373Z" fill="#F5F8FF"/>
<path d="M77.861 138C56.4224 138 36.6545 126.584 25.796 107.93C25.5176 107.652 25.5176 107.095 25.5176 106.817C25.5176 106.538 25.796 106.26 26.0744 105.981L76.7473 76.7469C77.3041 76.4685 77.5825 76.4685 78.1394 76.7469C78.6962 77.0253 78.9746 77.5822 78.9746 77.8606V136.329C79.2531 137.443 78.6962 138 77.861 138ZM29.1371 107.93C39.1603 124.357 57.2577 134.937 76.4688 135.216V80.3664L29.1371 107.93Z" fill="#3A59A9"/>
</g>
<defs>
<clipPath id="clip0_3091_8335">
<rect width="120" height="120" fill="white" transform="translate(18 18)"/>
</clipPath>
</defs>
</svg>
