<svg width="100" height="100" viewBox="0 0 100 100" fill="none" xmlns="http://www.w3.org/2000/svg">
<circle cx="50" cy="50" r="45.5" fill="#6678D5" stroke="#3E50B0"/>
<mask id="path-2-inside-1_5611_100247" fill="white">
<path d="M50.8659 95.9912C38.6681 96.2208 26.8787 91.5954 18.0912 83.1326C9.30373 74.6698 4.23799 63.0628 4.0084 50.865C3.77881 38.6672 8.40419 26.8778 16.867 18.0903C25.3298 9.30279 36.9368 4.23705 49.1346 4.00746L50.0003 49.9993L50.8659 95.9912Z"/>
</mask>
<path d="M50.8659 95.9912C38.6681 96.2208 26.8787 91.5954 18.0912 83.1326C9.30373 74.6698 4.23799 63.0628 4.0084 50.865C3.77881 38.6672 8.40419 26.8778 16.867 18.0903C25.3298 9.30279 36.9368 4.23705 49.1346 4.00746L50.0003 49.9993L50.8659 95.9912Z" fill="#6678D5" stroke="#3E50B0" stroke-width="2" mask="url(#path-2-inside-1_5611_100247)"/>
<mask id="path-3-inside-2_5611_100247" fill="white">
<path d="M95.9922 49.0995C96.2305 61.2971 91.6136 73.0898 83.157 81.8834C74.7005 90.6769 63.0971 95.7509 50.8995 95.9892C38.7019 96.2275 26.9092 91.6106 18.1156 83.154C9.3221 74.6975 4.24806 63.0941 4.00976 50.8965L50.001 49.998L95.9922 49.0995Z"/>
</mask>
<path d="M95.9922 49.0995C96.2305 61.2971 91.6136 73.0898 83.157 81.8834C74.7005 90.6769 63.0971 95.7509 50.8995 95.9892C38.7019 96.2275 26.9092 91.6106 18.1156 83.154C9.3221 74.6975 4.24806 63.0941 4.00976 50.8965L50.001 49.998L95.9922 49.0995Z" stroke="#3E50B0" stroke-width="2" mask="url(#path-3-inside-2_5611_100247)"/>
</svg>
