<svg width="223" height="31" viewBox="0 0 223 31" fill="none" xmlns="http://www.w3.org/2000/svg">
<path d="M26.2709 20.186L26.2767 21.752L17.2228 21.7857L17.2183 20.5617L22.3298 15.5926C22.9516 14.9903 23.3696 14.4727 23.584 14.0399C23.7984 13.5951 23.9047 13.1507 23.9031 12.7067C23.9006 12.0467 23.6647 11.5376 23.1954 11.1794C22.738 10.8091 22.0773 10.6255 21.2133 10.6287C19.8213 10.6339 18.749 11.0939 17.9964 12.0087L16.7685 10.9513C17.2582 10.3495 17.8985 9.87907 18.6892 9.54013C19.492 9.20114 20.3853 9.02981 21.3693 9.02615C22.6893 9.02123 23.7405 9.33532 24.5229 9.96841C25.3052 10.5895 25.6984 11.44 25.7024 12.52C25.7049 13.192 25.5632 13.8286 25.2775 14.4296C24.9917 15.0307 24.4483 15.7167 23.6471 16.4877L19.809 20.21L26.2709 20.186ZM36.837 9.11257L36.8415 10.3366L31.7899 21.7314L29.8819 21.7385L34.8268 10.6861L29.0669 10.7075L29.0752 12.9575L27.3472 12.9639L27.333 9.14795L36.837 9.11257Z" fill="#2F2F2F"/>
<path d="M5.00369 1.83099L49.0034 1.6672L48.9959 -0.332788L4.99624 -0.168996L5.00369 1.83099ZM53.0182 5.65228L53.0927 25.6521L55.0927 25.6447L55.0182 5.64484L53.0182 5.65228ZM49.1076 29.667L5.10792 29.8308L5.11536 31.8308L49.1151 31.667L49.1076 29.667ZM1.09306 25.8457L1.01861 5.84585L-0.98138 5.8533L-0.90693 25.8532L1.09306 25.8457ZM5.10792 29.8308C2.8988 29.839 1.10128 28.0548 1.09306 25.8457L-0.90693 25.8532C-0.894594 29.1668 1.80168 31.8431 5.11536 31.8308L5.10792 29.8308ZM53.0927 25.6521C53.1009 27.8613 51.3167 29.6588 49.1076 29.667L49.1151 31.667C52.4287 31.6547 55.105 28.9584 55.0927 25.6447L53.0927 25.6521ZM49.0034 1.6672C51.2125 1.65897 53.01 3.44316 53.0182 5.65228L55.0182 5.64484C55.0059 2.33115 52.3096 -0.345124 48.9959 -0.332788L49.0034 1.6672ZM4.99624 -0.168996C1.68256 -0.156661 -0.993716 2.53961 -0.98138 5.8533L1.01861 5.84585C1.01038 3.63673 2.79456 1.83921 5.00369 1.83099L4.99624 -0.168996Z" fill="#2F2F2F"/>
<path d="M84.1113 5.64844C84.1113 2.88701 86.3499 0.648438 89.1113 0.648438H133.111C135.873 0.648438 138.111 2.88701 138.111 5.64844V25.6484C138.111 28.4099 135.873 30.6484 133.111 30.6484H89.1113C86.3499 30.6484 84.1113 28.4099 84.1113 25.6484V5.64844Z" fill="#369CB7"/>
<path d="M115.143 14.5744V16.1224L107.079 19.3084V17.8144L113.487 15.3484L107.079 12.8824V11.3884L115.143 14.5744Z" fill="white"/>
<path d="M89.1113 1.64844H133.111V-0.351562H89.1113V1.64844ZM137.111 5.64844V25.6484H139.111V5.64844H137.111ZM133.111 29.6484H89.1113V31.6484H133.111V29.6484ZM85.1113 25.6484V5.64844H83.1113V25.6484H85.1113ZM89.1113 29.6484C86.9022 29.6484 85.1113 27.8576 85.1113 25.6484H83.1113C83.1113 28.9621 85.7976 31.6484 89.1113 31.6484V29.6484ZM137.111 25.6484C137.111 27.8576 135.32 29.6484 133.111 29.6484V31.6484C136.425 31.6484 139.111 28.9621 139.111 25.6484H137.111ZM133.111 1.64844C135.32 1.64844 137.111 3.4393 137.111 5.64844H139.111C139.111 2.33473 136.425 -0.351562 133.111 -0.351562V1.64844ZM89.1113 -0.351562C85.7976 -0.351562 83.1113 2.33473 83.1113 5.64844H85.1113C85.1113 3.4393 86.9022 1.64844 89.1113 1.64844V-0.351562Z" fill="#369CB7"/>
<path d="M194.135 20.0824V21.6484H185.081V20.4244L190.211 15.4744C190.835 14.8744 191.255 14.3584 191.471 13.9264C191.687 13.4824 191.795 13.0384 191.795 12.5944C191.795 11.9344 191.561 11.4244 191.093 11.0644C190.637 10.6924 189.977 10.5064 189.113 10.5064C187.721 10.5064 186.647 10.9624 185.891 11.8744L184.667 10.8124C185.159 10.2124 185.801 9.74444 186.593 9.40844C187.397 9.07244 188.291 8.90444 189.275 8.90444C190.595 8.90444 191.645 9.22244 192.425 9.85844C193.205 10.4824 193.595 11.3344 193.595 12.4144C193.595 13.0864 193.451 13.7224 193.163 14.3224C192.875 14.9224 192.329 15.6064 191.525 16.3744L187.673 20.0824H194.135ZM200.998 13.9984C201.826 13.9984 202.564 14.1544 203.212 14.4664C203.872 14.7784 204.388 15.2284 204.76 15.8164C205.132 16.3924 205.318 17.0584 205.318 17.8144C205.318 18.6064 205.12 19.3024 204.724 19.9024C204.34 20.5024 203.806 20.9704 203.122 21.3064C202.45 21.6304 201.694 21.7924 200.854 21.7924C199.162 21.7924 197.854 21.2464 196.93 20.1544C196.018 19.0624 195.562 17.5144 195.562 15.5104C195.562 14.1064 195.808 12.9124 196.3 11.9284C196.804 10.9324 197.5 10.1824 198.388 9.67844C199.288 9.16244 200.332 8.90444 201.52 8.90444C202.132 8.90444 202.708 8.97044 203.248 9.10244C203.788 9.22244 204.256 9.40244 204.652 9.64244L203.968 11.0464C203.368 10.6504 202.564 10.4524 201.556 10.4524C200.248 10.4524 199.222 10.8604 198.478 11.6764C197.734 12.4804 197.362 13.6564 197.362 15.2044C197.362 15.3964 197.368 15.5464 197.38 15.6544C197.74 15.1144 198.232 14.7064 198.856 14.4304C199.492 14.1424 200.206 13.9984 200.998 13.9984ZM200.782 20.3344C201.61 20.3344 202.282 20.1124 202.798 19.6684C203.314 19.2244 203.572 18.6304 203.572 17.8864C203.572 17.1424 203.308 16.5544 202.78 16.1224C202.264 15.6784 201.568 15.4564 200.692 15.4564C200.128 15.4564 199.624 15.5644 199.18 15.7804C198.748 15.9964 198.406 16.2904 198.154 16.6624C197.914 17.0344 197.794 17.4484 197.794 17.9044C197.794 18.3484 197.908 18.7564 198.136 19.1284C198.376 19.4884 198.718 19.7824 199.162 20.0104C199.618 20.2264 200.158 20.3344 200.782 20.3344Z" fill="#2F2F2F"/>
<path d="M173.111 1.64844H217.111V-0.351562H173.111V1.64844ZM221.111 5.64844V25.6484H223.111V5.64844H221.111ZM217.111 29.6484H173.111V31.6484H217.111V29.6484ZM169.111 25.6484V5.64844H167.111V25.6484H169.111ZM173.111 29.6484C170.902 29.6484 169.111 27.8576 169.111 25.6484H167.111C167.111 28.9621 169.798 31.6484 173.111 31.6484V29.6484ZM221.111 25.6484C221.111 27.8576 219.32 29.6484 217.111 29.6484V31.6484C220.425 31.6484 223.111 28.9621 223.111 25.6484H221.111ZM217.111 1.64844C219.32 1.64844 221.111 3.4393 221.111 5.64844H223.111C223.111 2.33473 220.425 -0.351562 217.111 -0.351562V1.64844ZM173.111 -0.351562C169.798 -0.351562 167.111 2.33473 167.111 5.64844H169.111C169.111 3.4393 170.902 1.64844 173.111 1.64844V-0.351562Z" fill="#2F2F2F"/>
</svg>
