<svg width="685" height="63" viewBox="0 0 685 63" fill="none" xmlns="http://www.w3.org/2000/svg">
<path d="M609.199 0.400391H549.199V53.4004H609.199V0.400391Z" fill="#329CDE"/>
<path d="M609.199 0.400391H549.199V8.40039H609.199V0.400391Z" fill="#FFC555"/>
<path d="M570.076 17.6004V34.4004H566.188V20.7204H562.828V17.6004H570.076ZM579.475 17.6004V34.4004H575.587V20.7204H572.227V17.6004H579.475ZM588.297 17.3124C590.649 17.3124 592.489 18.0324 593.817 19.4724C595.145 20.8964 595.809 22.9524 595.809 25.6404C595.809 27.5444 595.449 29.1764 594.729 30.5364C594.025 31.8964 593.025 32.9284 591.729 33.6324C590.433 34.3364 588.937 34.6884 587.241 34.6884C586.345 34.6884 585.489 34.5924 584.673 34.4004C583.857 34.1924 583.161 33.9044 582.585 33.5364L584.025 30.6804C584.841 31.2404 585.889 31.5204 587.169 31.5204C588.593 31.5204 589.721 31.1044 590.553 30.2724C591.385 29.4244 591.833 28.2084 591.897 26.6244C590.889 27.6324 589.497 28.1364 587.721 28.1364C586.649 28.1364 585.673 27.9204 584.793 27.4884C583.913 27.0564 583.217 26.4484 582.705 25.6644C582.193 24.8644 581.937 23.9444 581.937 22.9044C581.937 21.7844 582.217 20.8004 582.777 19.9524C583.337 19.1044 584.097 18.4564 585.057 18.0084C586.033 17.5444 587.113 17.3124 588.297 17.3124ZM588.585 25.2324C589.433 25.2324 590.121 25.0004 590.649 24.5364C591.193 24.0564 591.465 23.4484 591.465 22.7124C591.465 21.9764 591.201 21.3764 590.673 20.9124C590.161 20.4484 589.449 20.2164 588.537 20.2164C587.705 20.2164 587.025 20.4404 586.497 20.8884C585.985 21.3364 585.729 21.9444 585.729 22.7124C585.729 23.4804 585.985 24.0964 586.497 24.5604C587.025 25.0084 587.721 25.2324 588.585 25.2324Z" fill="white"/>
<path d="M575.499 53.2008C575.499 58.4008 571.299 62.6008 566.099 62.6008C560.899 62.6008 556.699 58.4008 556.699 53.2008C556.699 48.0008 560.899 43.8008 566.099 43.8008C571.299 43.8008 575.499 48.0008 575.499 53.2008Z" fill="#3C3C3B"/>
<path d="M566.1 50.1006C567.8 50.1006 569.2 51.5006 569.2 53.2006C569.2 54.9006 567.8 56.3006 566.1 56.3006C564.4 56.3006 563 54.9006 563 53.2006C563 51.5006 564.4 50.1006 566.1 50.1006Z" fill="#868686"/>
<path d="M601.698 53.2008C601.698 58.4008 597.498 62.6008 592.298 62.6008C587.098 62.6008 582.898 58.4008 582.898 53.2008C582.898 48.0008 587.098 43.8008 592.298 43.8008C597.598 43.8008 601.698 48.0008 601.698 53.2008Z" fill="#3C3C3B"/>
<path d="M592.398 50.1006C594.098 50.1006 595.498 51.5006 595.498 53.2006C595.498 54.9006 594.098 56.3006 592.398 56.3006C590.698 56.3006 589.298 54.9006 589.298 53.2006C589.198 51.5006 590.698 50.1006 592.398 50.1006Z" fill="#868686"/>
<path d="M624.199 0.400391H684.199V53.4004H624.199V0.400391Z" fill="#329CDE"/>
<path d="M624.199 0.400391H684.199V8.40039H624.199V0.400391Z" fill="#FFC555"/>
<path d="M640.717 17.6004V34.4004H636.829V20.7204H633.469V17.6004H640.717ZM656.187 31.2324V34.4004H643.491V31.8804L649.971 25.7604C650.659 25.1044 651.123 24.5444 651.363 24.0804C651.603 23.6004 651.723 23.1284 651.723 22.6644C651.723 21.9924 651.491 21.4804 651.027 21.1284C650.579 20.7604 649.915 20.5764 649.035 20.5764C648.299 20.5764 647.635 20.7204 647.043 21.0084C646.451 21.2804 645.955 21.6964 645.555 22.2564L642.723 20.4324C643.379 19.4564 644.283 18.6964 645.435 18.1524C646.587 17.5924 647.907 17.3124 649.395 17.3124C650.643 17.3124 651.731 17.5204 652.659 17.9364C653.603 18.3364 654.331 18.9124 654.843 19.6644C655.371 20.4004 655.635 21.2724 655.635 22.2804C655.635 23.1924 655.443 24.0484 655.059 24.8484C654.675 25.6484 653.931 26.5604 652.827 27.5844L648.963 31.2324H656.187ZM664.945 34.6884C663.553 34.6884 662.313 34.3444 661.225 33.6564C660.137 32.9684 659.281 31.9764 658.657 30.6804C658.049 29.3684 657.745 27.8084 657.745 26.0004C657.745 24.1924 658.049 22.6404 658.657 21.3444C659.281 20.0324 660.137 19.0324 661.225 18.3444C662.313 17.6564 663.553 17.3124 664.945 17.3124C666.337 17.3124 667.577 17.6564 668.665 18.3444C669.753 19.0324 670.601 20.0324 671.209 21.3444C671.833 22.6404 672.145 24.1924 672.145 26.0004C672.145 27.8084 671.833 29.3684 671.209 30.6804C670.601 31.9764 669.753 32.9684 668.665 33.6564C667.577 34.3444 666.337 34.6884 664.945 34.6884ZM664.945 31.4004C665.969 31.4004 666.769 30.9604 667.345 30.0804C667.937 29.2004 668.233 27.8404 668.233 26.0004C668.233 24.1604 667.937 22.8004 667.345 21.9204C666.769 21.0404 665.969 20.6004 664.945 20.6004C663.937 20.6004 663.137 21.0404 662.545 21.9204C661.969 22.8004 661.681 24.1604 661.681 26.0004C661.681 27.8404 661.969 29.2004 662.545 30.0804C663.137 30.9604 663.937 31.4004 664.945 31.4004Z" fill="white"/>
<path d="M657.899 53.2008C657.899 58.4008 662.099 62.6008 667.299 62.6008C672.499 62.6008 676.699 58.4008 676.699 53.2008C676.699 48.0008 672.499 43.8008 667.299 43.8008C662.099 43.8008 657.899 48.0008 657.899 53.2008Z" fill="#3C3C3B"/>
<path d="M667.298 50.1006C665.598 50.1006 664.198 51.5006 664.198 53.2006C664.198 54.9006 665.598 56.3006 667.298 56.3006C668.998 56.3006 670.398 54.9006 670.398 53.2006C670.398 51.5006 668.998 50.1006 667.298 50.1006Z" fill="#868686"/>
<path d="M631.7 53.2008C631.7 58.4008 635.9 62.6008 641.1 62.6008C646.3 62.6008 650.5 58.4008 650.5 53.2008C650.5 48.0008 646.3 43.8008 641.1 43.8008C635.8 43.8008 631.7 48.0008 631.7 53.2008Z" fill="#3C3C3B"/>
<path d="M641.001 50.1006C639.301 50.1006 637.901 51.5006 637.901 53.2006C637.901 54.9006 639.301 56.3006 641.001 56.3006C642.701 56.3006 644.101 54.9006 644.101 53.2006C644.201 51.5006 642.701 50.1006 641.001 50.1006Z" fill="#868686"/>
<path d="M90.1992 0.400391H150.199V53.4004H90.1992V0.400391Z" fill="#329CDE"/>
<path d="M90.1992 0.400391H150.199V8.40039H90.1992V0.400391Z" fill="#FFC555"/>
<path d="M111.615 17.6004V34.4004H107.727V20.7204H104.367V17.6004H111.615ZM121.014 17.6004V34.4004H117.126V20.7204H113.766V17.6004H121.014ZM131.78 24.4404C133.252 24.6804 134.38 25.2324 135.164 26.0964C135.948 26.9444 136.34 28.0004 136.34 29.2644C136.34 30.2404 136.084 31.1444 135.572 31.9764C135.06 32.7924 134.276 33.4484 133.22 33.9444C132.18 34.4404 130.9 34.6884 129.38 34.6884C128.196 34.6884 127.028 34.5364 125.876 34.2324C124.74 33.9124 123.772 33.4644 122.972 32.8884L124.484 29.9124C125.124 30.3924 125.86 30.7684 126.692 31.0404C127.54 31.2964 128.404 31.4244 129.284 31.4244C130.26 31.4244 131.028 31.2404 131.588 30.8724C132.148 30.4884 132.428 29.9524 132.428 29.2644C132.428 27.8884 131.38 27.2004 129.284 27.2004H127.508V24.6324L130.964 20.7204H123.812V17.6004H135.572V20.1204L131.78 24.4404Z" fill="white"/>
<path d="M123.999 53.2008C123.999 58.4008 128.199 62.6008 133.399 62.6008C138.599 62.6008 142.799 58.4008 142.799 53.2008C142.799 48.0008 138.599 43.8008 133.399 43.8008C128.199 43.8008 123.999 48.0008 123.999 53.2008Z" fill="#3C3C3B"/>
<path d="M133.398 50.1006C131.698 50.1006 130.298 51.5006 130.298 53.2006C130.298 54.9006 131.698 56.3006 133.398 56.3006C135.098 56.3006 136.498 54.9006 136.498 53.2006C136.498 51.5006 135.098 50.1006 133.398 50.1006Z" fill="#868686"/>
<path d="M97.7996 53.2008C97.7996 58.4008 102 62.6008 107.2 62.6008C112.4 62.6008 116.6 58.4008 116.6 53.2008C116.6 48.0008 112.4 43.8008 107.2 43.8008C101.9 43.8008 97.7996 48.0008 97.7996 53.2008Z" fill="#3C3C3B"/>
<path d="M107.1 50.1006C105.4 50.1006 104 51.5006 104 53.2006C104 54.9006 105.4 56.3006 107.1 56.3006C108.8 56.3006 110.2 54.9006 110.2 53.2006C110.3 51.5006 108.8 50.1006 107.1 50.1006Z" fill="#868686"/>
<path d="M225.199 0.400391H165.199V53.4004H225.199V0.400391Z" fill="#329CDE"/>
<path d="M225.199 0.400391H165.199V8.40039H225.199V0.400391Z" fill="#FFC555"/>
<path d="M184.943 17.6004V34.4004H181.055V20.7204H177.695V17.6004H184.943ZM194.342 17.6004V34.4004H190.454V20.7204H187.094V17.6004H194.342ZM212.644 30.8724H209.908V34.4004H206.116V30.8724H197.068V28.2564L204.988 17.6004H209.068L201.724 27.7044H206.236V24.5604H209.908V27.7044H212.644V30.8724Z" fill="white"/>
<path d="M191.499 53.2008C191.499 58.4008 187.299 62.6008 182.099 62.6008C176.899 62.6008 172.699 58.4008 172.699 53.2008C172.699 48.0008 176.899 43.8008 182.099 43.8008C187.299 43.8008 191.499 48.0008 191.499 53.2008Z" fill="#3C3C3B"/>
<path d="M182.1 50.1006C183.8 50.1006 185.2 51.5006 185.2 53.2006C185.2 54.9006 183.8 56.3006 182.1 56.3006C180.4 56.3006 179 54.9006 179 53.2006C179 51.5006 180.4 50.1006 182.1 50.1006Z" fill="#868686"/>
<path d="M217.698 53.2008C217.698 58.4008 213.498 62.6008 208.298 62.6008C203.098 62.6008 198.898 58.4008 198.898 53.2008C198.898 48.0008 203.098 43.8008 208.298 43.8008C213.598 43.8008 217.698 48.0008 217.698 53.2008Z" fill="#3C3C3B"/>
<path d="M208.398 50.1006C210.098 50.1006 211.498 51.5006 211.498 53.2006C211.498 54.9006 210.098 56.3006 208.398 56.3006C206.698 56.3006 205.298 54.9006 205.298 53.2006C205.198 51.5006 206.698 50.1006 208.398 50.1006Z" fill="#868686"/>
<path d="M300.199 0.400391H240.199V53.4004H300.199V0.400391Z" fill="#329CDE"/>
<path d="M300.199 0.400391H240.199V8.40039H300.199V0.400391Z" fill="#FFC555"/>
<path d="M261.08 17.6004V34.4004H257.192V20.7204H253.832V17.6004H261.08ZM270.479 17.6004V34.4004H266.59V20.7204H263.231V17.6004H270.479ZM279.157 23.9124C281.525 23.9124 283.269 24.3844 284.389 25.3284C285.525 26.2724 286.093 27.5364 286.093 29.1204C286.093 30.1444 285.837 31.0804 285.325 31.9284C284.813 32.7604 284.029 33.4324 282.973 33.9444C281.933 34.4404 280.645 34.6884 279.109 34.6884C277.925 34.6884 276.757 34.5364 275.605 34.2324C274.469 33.9124 273.501 33.4644 272.701 32.8884L274.237 29.9124C274.877 30.3924 275.613 30.7684 276.445 31.0404C277.277 31.2964 278.133 31.4244 279.013 31.4244C279.989 31.4244 280.757 31.2324 281.317 30.8484C281.877 30.4644 282.157 29.9284 282.157 29.2404C282.157 28.5204 281.861 27.9764 281.269 27.6084C280.693 27.2404 279.685 27.0564 278.245 27.0564H273.949L274.813 17.6004H285.061V20.7204H278.053L277.789 23.9124H279.157Z" fill="white"/>
<path d="M266.499 53.2008C266.499 58.4008 262.299 62.6008 257.099 62.6008C251.899 62.6008 247.699 58.4008 247.699 53.2008C247.699 48.0008 251.899 43.8008 257.099 43.8008C262.299 43.8008 266.499 48.0008 266.499 53.2008Z" fill="#3C3C3B"/>
<path d="M257.1 50.1006C258.8 50.1006 260.2 51.5006 260.2 53.2006C260.2 54.9006 258.8 56.3006 257.1 56.3006C255.4 56.3006 254 54.9006 254 53.2006C254 51.5006 255.4 50.1006 257.1 50.1006Z" fill="#868686"/>
<path d="M292.698 53.2008C292.698 58.4008 288.498 62.6008 283.298 62.6008C278.098 62.6008 273.898 58.4008 273.898 53.2008C273.898 48.0008 278.098 43.8008 283.298 43.8008C288.598 43.8008 292.698 48.0008 292.698 53.2008Z" fill="#3C3C3B"/>
<path d="M283.398 50.1006C285.098 50.1006 286.498 51.5006 286.498 53.2006C286.498 54.9006 285.098 56.3006 283.398 56.3006C281.698 56.3006 280.298 54.9006 280.298 53.2006C280.198 51.5006 281.698 50.1006 283.398 50.1006Z" fill="#868686"/>
<path d="M323.199 0.400391H383.199V53.4004H323.199V0.400391Z" fill="#329CDE"/>
<path d="M323.199 0.400391H383.199V8.40039H323.199V0.400391Z" fill="#FFC555"/>
<path d="M344.076 17.6004V34.4004H340.188V20.7204H336.828V17.6004H344.076ZM353.475 17.6004V34.4004H349.587V20.7204H346.227V17.6004H353.475ZM364.481 23.8644C365.553 23.8644 366.529 24.0804 367.409 24.5124C368.289 24.9444 368.985 25.5604 369.497 26.3604C370.009 27.1444 370.265 28.0564 370.265 29.0964C370.265 30.2164 369.985 31.2004 369.425 32.0484C368.865 32.8964 368.097 33.5524 367.121 34.0164C366.161 34.4644 365.089 34.6884 363.905 34.6884C361.553 34.6884 359.713 33.9684 358.385 32.5284C357.057 31.0884 356.393 29.0324 356.393 26.3604C356.393 24.4564 356.753 22.8244 357.473 21.4644C358.193 20.1044 359.193 19.0724 360.473 18.3684C361.769 17.6644 363.265 17.3124 364.961 17.3124C365.857 17.3124 366.713 17.4164 367.529 17.6244C368.361 17.8164 369.065 18.0964 369.641 18.4644L368.201 21.3204C367.369 20.7604 366.321 20.4804 365.057 20.4804C363.633 20.4804 362.505 20.8964 361.673 21.7284C360.841 22.5604 360.393 23.7684 360.329 25.3524C361.321 24.3604 362.705 23.8644 364.481 23.8644ZM363.689 31.7844C364.521 31.7844 365.193 31.5604 365.705 31.1124C366.233 30.6644 366.497 30.0564 366.497 29.2884C366.497 28.5204 366.233 27.9124 365.705 27.4644C365.193 27.0004 364.505 26.7684 363.641 26.7684C362.793 26.7684 362.097 27.0084 361.553 27.4884C361.009 27.9524 360.737 28.5524 360.737 29.2884C360.737 30.0244 361.001 30.6244 361.529 31.0884C362.057 31.5524 362.777 31.7844 363.689 31.7844Z" fill="white"/>
<path d="M356.999 53.2008C356.999 58.4008 361.199 62.6008 366.399 62.6008C371.599 62.6008 375.799 58.4008 375.799 53.2008C375.799 48.0008 371.599 43.8008 366.399 43.8008C361.199 43.8008 356.999 48.0008 356.999 53.2008Z" fill="#3C3C3B"/>
<path d="M366.398 50.1006C364.698 50.1006 363.298 51.5006 363.298 53.2006C363.298 54.9006 364.698 56.3006 366.398 56.3006C368.098 56.3006 369.498 54.9006 369.498 53.2006C369.498 51.5006 368.098 50.1006 366.398 50.1006Z" fill="#868686"/>
<path d="M330.8 53.2008C330.8 58.4008 335 62.6008 340.2 62.6008C345.4 62.6008 349.6 58.4008 349.6 53.2008C349.6 48.0008 345.4 43.8008 340.2 43.8008C334.9 43.8008 330.8 48.0008 330.8 53.2008Z" fill="#3C3C3B"/>
<path d="M340.1 50.1006C338.4 50.1006 337 51.5006 337 53.2006C337 54.9006 338.4 56.3006 340.1 56.3006C341.8 56.3006 343.2 54.9006 343.2 53.2006C343.3 51.5006 341.8 50.1006 340.1 50.1006Z" fill="#868686"/>
<path d="M398.199 0.400391H458.199V53.4004H398.199V0.400391Z" fill="#329CDE"/>
<path d="M398.199 0.400391H458.199V8.40039H398.199V0.400391Z" fill="#FFC555"/>
<path d="M417.775 17.6004V34.4004H413.887V20.7204H410.527V17.6004H417.775ZM427.174 17.6004V34.4004H423.286V20.7204H419.926V17.6004H427.174ZM443.244 17.6004V20.1204L437.004 34.4004H432.78L438.804 20.7684H433.236V23.5044H429.78V17.6004H443.244Z" fill="white"/>
<path d="M431.999 53.2008C431.999 58.4008 436.199 62.6008 441.399 62.6008C446.599 62.6008 450.799 58.4008 450.799 53.2008C450.799 48.0008 446.599 43.8008 441.399 43.8008C436.199 43.8008 431.999 48.0008 431.999 53.2008Z" fill="#3C3C3B"/>
<path d="M441.398 50.1006C439.698 50.1006 438.298 51.5006 438.298 53.2006C438.298 54.9006 439.698 56.3006 441.398 56.3006C443.098 56.3006 444.498 54.9006 444.498 53.2006C444.498 51.5006 443.098 50.1006 441.398 50.1006Z" fill="#868686"/>
<path d="M405.8 53.2008C405.8 58.4008 410 62.6008 415.2 62.6008C420.4 62.6008 424.6 58.4008 424.6 53.2008C424.6 48.0008 420.4 43.8008 415.2 43.8008C409.9 43.8008 405.8 48.0008 405.8 53.2008Z" fill="#3C3C3B"/>
<path d="M415.1 50.1006C413.4 50.1006 412 51.5006 412 53.2006C412 54.9006 413.4 56.3006 415.1 56.3006C416.8 56.3006 418.2 54.9006 418.2 53.2006C418.3 51.5006 416.8 50.1006 415.1 50.1006Z" fill="#868686"/>
<path d="M533.199 0.400391H473.199V53.4004H533.199V0.400391Z" fill="#329CDE"/>
<path d="M533.199 0.400391H473.199V8.40039H533.199V0.400391Z" fill="#FFC555"/>
<path d="M493.795 17.6004V34.4004H489.907V20.7204H486.547V17.6004H493.795ZM503.193 17.6004V34.4004H499.305V20.7204H495.945V17.6004H503.193ZM517.608 25.5684C518.44 25.9844 519.072 26.5284 519.504 27.2004C519.952 27.8724 520.176 28.6484 520.176 29.5284C520.176 30.5684 519.88 31.4804 519.288 32.2644C518.696 33.0324 517.864 33.6324 516.792 34.0644C515.72 34.4804 514.48 34.6884 513.072 34.6884C511.664 34.6884 510.424 34.4804 509.352 34.0644C508.296 33.6324 507.472 33.0324 506.88 32.2644C506.304 31.4804 506.016 30.5684 506.016 29.5284C506.016 28.6484 506.232 27.8724 506.664 27.2004C507.112 26.5284 507.744 25.9844 508.56 25.5684C507.936 25.1844 507.456 24.7044 507.12 24.1284C506.784 23.5364 506.616 22.8644 506.616 22.1124C506.616 21.1364 506.888 20.2884 507.432 19.5684C507.976 18.8484 508.736 18.2964 509.712 17.9124C510.688 17.5124 511.808 17.3124 513.072 17.3124C514.352 17.3124 515.48 17.5124 516.456 17.9124C517.448 18.2964 518.216 18.8484 518.76 19.5684C519.304 20.2884 519.576 21.1364 519.576 22.1124C519.576 22.8644 519.408 23.5364 519.072 24.1284C518.736 24.7044 518.248 25.1844 517.608 25.5684ZM513.072 20.1684C512.288 20.1684 511.656 20.3604 511.176 20.7444C510.712 21.1124 510.48 21.6244 510.48 22.2804C510.48 22.9204 510.712 23.4244 511.176 23.7924C511.64 24.1604 512.272 24.3444 513.072 24.3444C513.872 24.3444 514.512 24.1604 514.992 23.7924C515.472 23.4244 515.712 22.9204 515.712 22.2804C515.712 21.6244 515.472 21.1124 514.992 20.7444C514.512 20.3604 513.872 20.1684 513.072 20.1684ZM513.072 31.8324C514.048 31.8324 514.816 31.6164 515.376 31.1844C515.952 30.7364 516.24 30.1444 516.24 29.4084C516.24 28.6724 515.952 28.0884 515.376 27.6564C514.816 27.2244 514.048 27.0084 513.072 27.0084C512.112 27.0084 511.352 27.2244 510.792 27.6564C510.232 28.0884 509.952 28.6724 509.952 29.4084C509.952 30.1604 510.232 30.7524 510.792 31.1844C511.352 31.6164 512.112 31.8324 513.072 31.8324Z" fill="white"/>
<path d="M499.499 53.2008C499.499 58.4008 495.299 62.6008 490.099 62.6008C484.899 62.6008 480.699 58.4008 480.699 53.2008C480.699 48.0008 484.899 43.8008 490.099 43.8008C495.299 43.8008 499.499 48.0008 499.499 53.2008Z" fill="#3C3C3B"/>
<path d="M490.1 50.1006C491.8 50.1006 493.2 51.5006 493.2 53.2006C493.2 54.9006 491.8 56.3006 490.1 56.3006C488.4 56.3006 487 54.9006 487 53.2006C487 51.5006 488.4 50.1006 490.1 50.1006Z" fill="#868686"/>
<path d="M525.698 53.2008C525.698 58.4008 521.498 62.6008 516.298 62.6008C511.098 62.6008 506.898 58.4008 506.898 53.2008C506.898 48.0008 511.098 43.8008 516.298 43.8008C521.598 43.8008 525.698 48.0008 525.698 53.2008Z" fill="#3C3C3B"/>
<path d="M516.398 50.1006C518.098 50.1006 519.498 51.5006 519.498 53.2006C519.498 54.9006 518.098 56.3006 516.398 56.3006C514.698 56.3006 513.298 54.9006 513.298 53.2006C513.198 51.5006 514.698 50.1006 516.398 50.1006Z" fill="#868686"/>
<path d="M13.3008 11.7002H20.8008V26.7002H13.3008V11.7002Z" fill="#ED5564"/>
<path d="M22.6992 11.7004C22.6992 13.8004 20.9992 15.5004 18.8992 15.5004H15.0992C12.9992 15.5004 11.2992 13.8004 11.2992 11.7004C11.2992 9.60039 12.9992 7.90039 15.0992 7.90039H18.8992C20.9992 7.90039 22.6992 9.60039 22.6992 11.7004Z" fill="#FFCD02"/>
<path d="M37.7 4.2002H71.5V52.9002H37.7V4.2002Z" fill="#305B83"/>
<path d="M37.7008 0.400391H71.5008C73.6008 0.400391 75.3008 2.10039 75.3008 4.20039C75.3008 6.30039 73.6008 8.00039 71.5008 8.00039H37.7008C35.6008 8.00039 33.9008 6.30039 33.9008 4.20039C34.0008 2.10039 35.6008 0.400391 37.7008 0.400391Z" fill="#ED5564"/>
<path d="M45.2 52.9C45.2 58.1 49.4 62.3 54.6 62.3C59.8 62.3 64 58.1 64 52.9C64 47.7 59.8 43.5 54.6 43.5C49.4 43.5 45.2 47.7 45.2 52.9Z" fill="#3C3C3B"/>
<path d="M54.5992 49.7998C52.8992 49.7998 51.4992 51.1998 51.4992 52.8998C51.4992 54.5998 52.8992 55.9998 54.5992 55.9998C56.2992 55.9998 57.6992 54.5998 57.6992 52.8998C57.6992 51.1998 56.2992 49.7998 54.5992 49.7998Z" fill="#868686"/>
<path d="M45.2 15.4004H64V30.4004H45.2V15.4004Z" fill="white"/>
<path d="M0.199219 22.9004H45.1992V52.9004H0.199219V22.9004Z" fill="#305B83"/>
<path d="M7.70001 52.9C7.70001 58.1 11.9 62.3 17.1 62.3C22.3 62.3 26.5 58.1 26.5 52.9C26.5 47.7 22.3 43.5 17.1 43.5C11.9 43.5 7.70001 47.7 7.70001 52.9Z" fill="#3C3C3B"/>
<path d="M17.0992 49.7998C15.3992 49.7998 13.9992 51.1998 13.9992 52.8998C13.9992 54.5998 15.3992 55.9998 17.0992 55.9998C18.7992 55.9998 20.1992 54.5998 20.1992 52.8998C20.1992 51.1998 18.7992 49.7998 17.0992 49.7998Z" fill="#868686"/>
</svg>
