<svg width="61" height="63" viewBox="0 0 61 63" fill="none" xmlns="http://www.w3.org/2000/svg">
<path opacity="0.3" d="M0.800781 0H60.8008V53H0.800781V0Z" fill="#329CDE"/>
<path d="M34.5008 52.8004C34.5008 58.0004 38.7008 62.2004 43.9008 62.2004C49.1008 62.2004 53.3008 58.0004 53.3008 52.8004C53.3008 47.6004 49.1008 43.4004 43.9008 43.4004C38.7008 43.4004 34.5008 47.6004 34.5008 52.8004Z" fill="#3C3C3B"/>
<path d="M43.901 49.7002C42.201 49.7002 40.801 51.1002 40.801 52.8002C40.801 54.5002 42.201 55.9002 43.901 55.9002C45.601 55.9002 47.001 54.5002 47.001 52.8002C47.001 51.1002 45.601 49.7002 43.901 49.7002Z" fill="#868686"/>
<path d="M8.30059 52.8004C8.30059 58.0004 12.5006 62.2004 17.7006 62.2004C22.9006 62.2004 27.1006 58.0004 27.1006 52.8004C27.1006 47.6004 22.9006 43.4004 17.7006 43.4004C12.4006 43.4004 8.30059 47.6004 8.30059 52.8004Z" fill="#3C3C3B"/>
<path d="M17.6003 49.7002C15.9003 49.7002 14.5003 51.1002 14.5003 52.8002C14.5003 54.5002 15.9003 55.9002 17.6003 55.9002C19.3003 55.9002 20.7003 54.5002 20.7003 52.8002C20.8003 51.1002 19.3003 49.7002 17.6003 49.7002Z" fill="#868686"/>
</svg>
