<svg width="60" height="63" viewBox="0 0 60 63" fill="none" xmlns="http://www.w3.org/2000/svg">
<path d="M60 0.200195H0V53.2002H60V0.200195Z" fill="#329CDE"/>
<path d="M60 0.200195H0V8.2002H60V0.200195Z" fill="#FFC555"/>
<path d="M20.5957 17.4002V34.2002H16.7077V20.5202H13.3477V17.4002H20.5957ZM29.9941 17.4002V34.2002H26.1061V20.5202H22.7461V17.4002H29.9941ZM44.4086 25.3682C45.2406 25.7842 45.8726 26.3282 46.3046 27.0002C46.7526 27.6722 46.9766 28.4482 46.9766 29.3282C46.9766 30.3682 46.6806 31.2802 46.0886 32.0642C45.4966 32.8322 44.6646 33.4322 43.5926 33.8642C42.5206 34.2802 41.2806 34.4882 39.8726 34.4882C38.4646 34.4882 37.2246 34.2802 36.1526 33.8642C35.0966 33.4322 34.2726 32.8322 33.6806 32.0642C33.1046 31.2802 32.8166 30.3682 32.8166 29.3282C32.8166 28.4482 33.0326 27.6722 33.4646 27.0002C33.9126 26.3282 34.5446 25.7842 35.3606 25.3682C34.7366 24.9842 34.2566 24.5042 33.9206 23.9282C33.5846 23.3362 33.4166 22.6642 33.4166 21.9122C33.4166 20.9362 33.6886 20.0882 34.2326 19.3682C34.7766 18.6482 35.5366 18.0962 36.5126 17.7122C37.4886 17.3122 38.6086 17.1122 39.8726 17.1122C41.1526 17.1122 42.2806 17.3122 43.2566 17.7122C44.2486 18.0962 45.0166 18.6482 45.5606 19.3682C46.1046 20.0882 46.3766 20.9362 46.3766 21.9122C46.3766 22.6642 46.2086 23.3362 45.8726 23.9282C45.5366 24.5042 45.0486 24.9842 44.4086 25.3682ZM39.8726 19.9682C39.0886 19.9682 38.4566 20.1602 37.9766 20.5442C37.5126 20.9122 37.2806 21.4242 37.2806 22.0802C37.2806 22.7202 37.5126 23.2242 37.9766 23.5922C38.4406 23.9602 39.0726 24.1442 39.8726 24.1442C40.6726 24.1442 41.3126 23.9602 41.7926 23.5922C42.2726 23.2242 42.5126 22.7202 42.5126 22.0802C42.5126 21.4242 42.2726 20.9122 41.7926 20.5442C41.3126 20.1602 40.6726 19.9682 39.8726 19.9682ZM39.8726 31.6322C40.8486 31.6322 41.6166 31.4162 42.1766 30.9842C42.7526 30.5362 43.0406 29.9442 43.0406 29.2082C43.0406 28.4722 42.7526 27.8882 42.1766 27.4562C41.6166 27.0242 40.8486 26.8082 39.8726 26.8082C38.9126 26.8082 38.1526 27.0242 37.5926 27.4562C37.0326 27.8882 36.7526 28.4722 36.7526 29.2082C36.7526 29.9602 37.0326 30.5522 37.5926 30.9842C38.1526 31.4162 38.9126 31.6322 39.8726 31.6322Z" fill="white"/>
<path d="M26.3 53.0006C26.3 58.2006 22.1 62.4006 16.9 62.4006C11.7 62.4006 7.5 58.2006 7.5 53.0006C7.5 47.8006 11.7 43.6006 16.9 43.6006C22.1 43.6006 26.3 47.8006 26.3 53.0006Z" fill="#3C3C3B"/>
<path d="M16.8998 49.9004C18.5998 49.9004 19.9998 51.3004 19.9998 53.0004C19.9998 54.7004 18.5998 56.1004 16.8998 56.1004C15.1998 56.1004 13.7998 54.7004 13.7998 53.0004C13.7998 51.3004 15.1998 49.9004 16.8998 49.9004Z" fill="#868686"/>
<path d="M52.5002 53.0006C52.5002 58.2006 48.3002 62.4006 43.1002 62.4006C37.9002 62.4006 33.7002 58.2006 33.7002 53.0006C33.7002 47.8006 37.9002 43.6006 43.1002 43.6006C48.4002 43.6006 52.5002 47.8006 52.5002 53.0006Z" fill="#3C3C3B"/>
<path d="M43.2004 49.9004C44.9004 49.9004 46.3004 51.3004 46.3004 53.0004C46.3004 54.7004 44.9004 56.1004 43.2004 56.1004C41.5004 56.1004 40.1004 54.7004 40.1004 53.0004C40.0004 51.3004 41.5004 49.9004 43.2004 49.9004Z" fill="#868686"/>
</svg>
