<svg width="60" height="63" viewBox="0 0 60 63" fill="none" xmlns="http://www.w3.org/2000/svg">
<path d="M60 0.200195H0V53.2002H60V0.200195Z" fill="#329CDE"/>
<path d="M60 0.200195H0V8.2002H60V0.200195Z" fill="#FFC555"/>
<path d="M21.4394 17.4002V34.2002H17.5514V20.5202H14.1914V17.4002H21.4394ZM36.9099 31.0322V34.2002H24.2139V31.6802L30.6939 25.5602C31.3819 24.9042 31.8459 24.3442 32.0859 23.8802C32.3259 23.4002 32.4459 22.9282 32.4459 22.4642C32.4459 21.7922 32.2139 21.2802 31.7499 20.9282C31.3019 20.5602 30.6379 20.3762 29.7579 20.3762C29.0219 20.3762 28.3579 20.5202 27.7659 20.8082C27.1739 21.0802 26.6779 21.4962 26.2779 22.0562L23.4459 20.2322C24.1019 19.2562 25.0059 18.4962 26.1579 17.9522C27.3099 17.3922 28.6299 17.1122 30.1179 17.1122C31.3659 17.1122 32.4539 17.3202 33.3819 17.7362C34.3259 18.1362 35.0539 18.7122 35.5659 19.4642C36.0939 20.2002 36.3579 21.0722 36.3579 22.0802C36.3579 22.9922 36.1659 23.8482 35.7819 24.6482C35.3979 25.4482 34.6539 26.3602 33.5499 27.3842L29.6859 31.0322H36.9099ZM44.9941 17.4002V34.2002H41.1061V20.5202H37.7461V17.4002H44.9941Z" fill="white"/>
<path d="M26.3 53.0006C26.3 58.2006 22.1 62.4006 16.9 62.4006C11.7 62.4006 7.5 58.2006 7.5 53.0006C7.5 47.8006 11.7 43.6006 16.9 43.6006C22.1 43.6006 26.3 47.8006 26.3 53.0006Z" fill="#3C3C3B"/>
<path d="M16.8998 49.9004C18.5998 49.9004 19.9998 51.3004 19.9998 53.0004C19.9998 54.7004 18.5998 56.1004 16.8998 56.1004C15.1998 56.1004 13.7998 54.7004 13.7998 53.0004C13.7998 51.3004 15.1998 49.9004 16.8998 49.9004Z" fill="#868686"/>
<path d="M52.5002 53.0006C52.5002 58.2006 48.3002 62.4006 43.1002 62.4006C37.9002 62.4006 33.7002 58.2006 33.7002 53.0006C33.7002 47.8006 37.9002 43.6006 43.1002 43.6006C48.4002 43.6006 52.5002 47.8006 52.5002 53.0006Z" fill="#3C3C3B"/>
<path d="M43.2004 49.9004C44.9004 49.9004 46.3004 51.3004 46.3004 53.0004C46.3004 54.7004 44.9004 56.1004 43.2004 56.1004C41.5004 56.1004 40.1004 54.7004 40.1004 53.0004C40.0004 51.3004 41.5004 49.9004 43.2004 49.9004Z" fill="#868686"/>
</svg>
