<svg width="76" height="62" viewBox="0 0 76 62" fill="none" xmlns="http://www.w3.org/2000/svg">
<path d="M13.1006 11.2998H20.6006V26.2998H13.1006V11.2998Z" fill="#ED5564"/>
<path d="M22.5 11.3C22.5 13.4 20.8 15.1 18.7 15.1H14.9C12.8 15.1 11.1 13.4 11.1 11.3C11.1 9.2 12.8 7.5 14.9 7.5H18.7C20.8 7.5 22.5 9.2 22.5 11.3Z" fill="#FFCD02"/>
<path d="M37.4998 3.7998H71.2998V52.4998H37.4998V3.7998Z" fill="#305B83"/>
<path d="M37.5006 0H71.3006C73.4006 0 75.1006 1.7 75.1006 3.8C75.1006 5.9 73.4006 7.6 71.3006 7.6H37.5006C35.4006 7.6 33.7006 5.9 33.7006 3.8C33.8006 1.7 35.4006 0 37.5006 0Z" fill="#ED5564"/>
<path d="M44.9998 52.4996C44.9998 57.6996 49.1998 61.8996 54.3998 61.8996C59.5998 61.8996 63.7998 57.6996 63.7998 52.4996C63.7998 47.2996 59.5998 43.0996 54.3998 43.0996C49.1998 43.0996 44.9998 47.2996 44.9998 52.4996Z" fill="#3C3C3B"/>
<path d="M54.4 49.3994C52.7 49.3994 51.3 50.7994 51.3 52.4994C51.3 54.1994 52.7 55.5994 54.4 55.5994C56.1 55.5994 57.5 54.1994 57.5 52.4994C57.5 50.7994 56.1 49.3994 54.4 49.3994Z" fill="#868686"/>
<path d="M44.9998 15H63.7998V30H44.9998V15Z" fill="white"/>
<path d="M0 22.5H45V52.5H0V22.5Z" fill="#305B83"/>
<path d="M7.49982 52.4996C7.49982 57.6996 11.6998 61.8996 16.8998 61.8996C22.0998 61.8996 26.2998 57.6996 26.2998 52.4996C26.2998 47.2996 22.0998 43.0996 16.8998 43.0996C11.6998 43.0996 7.49982 47.2996 7.49982 52.4996Z" fill="#3C3C3B"/>
<path d="M16.9 49.3994C15.2 49.3994 13.8 50.7994 13.8 52.4994C13.8 54.1994 15.2 55.5994 16.9 55.5994C18.6 55.5994 20 54.1994 20 52.4994C20 50.7994 18.6 49.3994 16.9 49.3994Z" fill="#868686"/>
</svg>
