<svg width="60" height="63" viewBox="0 0 60 63" fill="none" xmlns="http://www.w3.org/2000/svg">
<path d="M60 0.200195H0V53.2002H60V0.200195Z" fill="#329CDE"/>
<path d="M60 0.200195H0V8.2002H60V0.200195Z" fill="#FFC555"/>
<path d="M19.7441 17.4002V34.2002H15.8561V20.5202H12.4961V17.4002H19.7441ZM29.1426 17.4002V34.2002H25.2546V20.5202H21.8946V17.4002H29.1426ZM47.445 30.6722H44.709V34.2002H40.917V30.6722H31.869V28.0562L39.789 17.4002H43.869L36.525 27.5042H41.037V24.3602H44.709V27.5042H47.445V30.6722Z" fill="white"/>
<path d="M26.3 53.0006C26.3 58.2006 22.1 62.4006 16.9 62.4006C11.7 62.4006 7.5 58.2006 7.5 53.0006C7.5 47.8006 11.7 43.6006 16.9 43.6006C22.1 43.6006 26.3 47.8006 26.3 53.0006Z" fill="#3C3C3B"/>
<path d="M16.8998 49.9004C18.5998 49.9004 19.9998 51.3004 19.9998 53.0004C19.9998 54.7004 18.5998 56.1004 16.8998 56.1004C15.1998 56.1004 13.7998 54.7004 13.7998 53.0004C13.7998 51.3004 15.1998 49.9004 16.8998 49.9004Z" fill="#868686"/>
<path d="M52.5002 53.0006C52.5002 58.2006 48.3002 62.4006 43.1002 62.4006C37.9002 62.4006 33.7002 58.2006 33.7002 53.0006C33.7002 47.8006 37.9002 43.6006 43.1002 43.6006C48.4002 43.6006 52.5002 47.8006 52.5002 53.0006Z" fill="#3C3C3B"/>
<path d="M43.2004 49.9004C44.9004 49.9004 46.3004 51.3004 46.3004 53.0004C46.3004 54.7004 44.9004 56.1004 43.2004 56.1004C41.5004 56.1004 40.1004 54.7004 40.1004 53.0004C40.0004 51.3004 41.5004 49.9004 43.2004 49.9004Z" fill="#868686"/>
</svg>
