<svg width="60" height="63" viewBox="0 0 60 63" fill="none" xmlns="http://www.w3.org/2000/svg">
<path d="M60 0.200195H0V53.2002H60V0.200195Z" fill="#329CDE"/>
<path d="M60 0.200195H0V8.2002H60V0.200195Z" fill="#FFC555"/>
<path d="M20.8769 17.4002V34.2002H16.9889V20.5202H13.6289V17.4002H20.8769ZM30.2754 17.4002V34.2002H26.3874V20.5202H23.0274V17.4002H30.2754ZM39.0978 17.1122C41.4498 17.1122 43.2898 17.8322 44.6178 19.2722C45.9458 20.6962 46.6098 22.7522 46.6098 25.4402C46.6098 27.3442 46.2498 28.9762 45.5298 30.3362C44.8258 31.6962 43.8258 32.7282 42.5298 33.4322C41.2338 34.1362 39.7378 34.4882 38.0418 34.4882C37.1458 34.4882 36.2898 34.3922 35.4738 34.2002C34.6578 33.9922 33.9618 33.7042 33.3858 33.3362L34.8258 30.4802C35.6418 31.0402 36.6898 31.3202 37.9698 31.3202C39.3938 31.3202 40.5218 30.9042 41.3538 30.0722C42.1858 29.2242 42.6338 28.0082 42.6978 26.4242C41.6898 27.4322 40.2978 27.9362 38.5218 27.9362C37.4498 27.9362 36.4738 27.7202 35.5938 27.2882C34.7138 26.8562 34.0178 26.2482 33.5058 25.4642C32.9938 24.6642 32.7378 23.7442 32.7378 22.7042C32.7378 21.5842 33.0178 20.6002 33.5778 19.7522C34.1378 18.9042 34.8978 18.2562 35.8578 17.8082C36.8338 17.3442 37.9138 17.1122 39.0978 17.1122ZM39.3858 25.0322C40.2338 25.0322 40.9218 24.8002 41.4498 24.3362C41.9938 23.8562 42.2658 23.2482 42.2658 22.5122C42.2658 21.7762 42.0018 21.1762 41.4738 20.7122C40.9618 20.2482 40.2498 20.0162 39.3378 20.0162C38.5058 20.0162 37.8258 20.2402 37.2978 20.6882C36.7858 21.1362 36.5298 21.7442 36.5298 22.5122C36.5298 23.2802 36.7858 23.8962 37.2978 24.3602C37.8258 24.8082 38.5218 25.0322 39.3858 25.0322Z" fill="white"/>
<path d="M26.3 53.0006C26.3 58.2006 22.1 62.4006 16.9 62.4006C11.7 62.4006 7.5 58.2006 7.5 53.0006C7.5 47.8006 11.7 43.6006 16.9 43.6006C22.1 43.6006 26.3 47.8006 26.3 53.0006Z" fill="#3C3C3B"/>
<path d="M16.8998 49.9004C18.5998 49.9004 19.9998 51.3004 19.9998 53.0004C19.9998 54.7004 18.5998 56.1004 16.8998 56.1004C15.1998 56.1004 13.7998 54.7004 13.7998 53.0004C13.7998 51.3004 15.1998 49.9004 16.8998 49.9004Z" fill="#868686"/>
<path d="M52.5002 53.0006C52.5002 58.2006 48.3002 62.4006 43.1002 62.4006C37.9002 62.4006 33.7002 58.2006 33.7002 53.0006C33.7002 47.8006 37.9002 43.6006 43.1002 43.6006C48.4002 43.6006 52.5002 47.8006 52.5002 53.0006Z" fill="#3C3C3B"/>
<path d="M43.2004 49.9004C44.9004 49.9004 46.3004 51.3004 46.3004 53.0004C46.3004 54.7004 44.9004 56.1004 43.2004 56.1004C41.5004 56.1004 40.1004 54.7004 40.1004 53.0004C40.0004 51.3004 41.5004 49.9004 43.2004 49.9004Z" fill="#868686"/>
</svg>
