<svg width="60" height="63" viewBox="0 0 60 63" fill="none" xmlns="http://www.w3.org/2000/svg">
<path d="M0 0H60V53H0V0Z" fill="#329CDE"/>
<path d="M0 0H60V8H0V0Z" fill="#FFC555"/>
<path d="M20.8769 17.2V34H16.9889V20.32H13.6289V17.2H20.8769ZM30.2754 17.2V34H26.3874V20.32H23.0274V17.2H30.2754ZM41.2818 23.464C42.3538 23.464 43.3298 23.68 44.2098 24.112C45.0898 24.544 45.7858 25.16 46.2978 25.96C46.8098 26.744 47.0658 27.656 47.0658 28.696C47.0658 29.816 46.7858 30.8 46.2258 31.648C45.6658 32.496 44.8978 33.152 43.9218 33.616C42.9618 34.064 41.8898 34.288 40.7058 34.288C38.3538 34.288 36.5138 33.568 35.1858 32.128C33.8578 30.688 33.1938 28.632 33.1938 25.96C33.1938 24.056 33.5538 22.424 34.2738 21.064C34.9938 19.704 35.9938 18.672 37.2738 17.968C38.5698 17.264 40.0658 16.912 41.7618 16.912C42.6578 16.912 43.5138 17.016 44.3298 17.224C45.1618 17.416 45.8658 17.696 46.4418 18.064L45.0018 20.92C44.1698 20.36 43.1218 20.08 41.8578 20.08C40.4338 20.08 39.3058 20.496 38.4738 21.328C37.6418 22.16 37.1938 23.368 37.1298 24.952C38.1218 23.96 39.5058 23.464 41.2818 23.464ZM40.4898 31.384C41.3218 31.384 41.9938 31.16 42.5058 30.712C43.0338 30.264 43.2978 29.656 43.2978 28.888C43.2978 28.12 43.0338 27.512 42.5058 27.064C41.9938 26.6 41.3058 26.368 40.4418 26.368C39.5938 26.368 38.8978 26.608 38.3538 27.088C37.8098 27.552 37.5378 28.152 37.5378 28.888C37.5378 29.624 37.8018 30.224 38.3298 30.688C38.8578 31.152 39.5778 31.384 40.4898 31.384Z" fill="white"/>
<path d="M33.7996 52.8004C33.7996 58.0004 37.9996 62.2004 43.1996 62.2004C48.3996 62.2004 52.5996 58.0004 52.5996 52.8004C52.5996 47.6004 48.3996 43.4004 43.1996 43.4004C37.9996 43.4004 33.7996 47.6004 33.7996 52.8004Z" fill="#3C3C3B"/>
<path d="M43.1998 49.7002C41.4998 49.7002 40.0998 51.1002 40.0998 52.8002C40.0998 54.5002 41.4998 55.9002 43.1998 55.9002C44.8998 55.9002 46.2998 54.5002 46.2998 52.8002C46.2998 51.1002 44.8998 49.7002 43.1998 49.7002Z" fill="#868686"/>
<path d="M7.59941 52.8004C7.59941 58.0004 11.7994 62.2004 16.9994 62.2004C22.1994 62.2004 26.3994 58.0004 26.3994 52.8004C26.3994 47.6004 22.1994 43.4004 16.9994 43.4004C11.6994 43.4004 7.59941 47.6004 7.59941 52.8004Z" fill="#3C3C3B"/>
<path d="M16.8992 49.7002C15.1992 49.7002 13.7992 51.1002 13.7992 52.8002C13.7992 54.5002 15.1992 55.9002 16.8992 55.9002C18.5992 55.9002 19.9992 54.5002 19.9992 52.8002C20.0992 51.1002 18.5992 49.7002 16.8992 49.7002Z" fill="#868686"/>
</svg>
