<svg width="60" height="63" viewBox="0 0 60 63" fill="none" xmlns="http://www.w3.org/2000/svg">
<path d="M0 0H60V53H0V0Z" fill="#329CDE"/>
<path d="M0 0H60V8H0V0Z" fill="#FFC555"/>
<path d="M21.416 17.2V34H17.528V20.32H14.168V17.2H21.416ZM30.8144 17.2V34H26.9264V20.32H23.5664V17.2H30.8144ZM41.5809 24.04C43.0529 24.28 44.1809 24.832 44.9649 25.696C45.7489 26.544 46.1409 27.6 46.1409 28.864C46.1409 29.84 45.8849 30.744 45.3729 31.576C44.8609 32.392 44.0769 33.048 43.0209 33.544C41.9809 34.04 40.7009 34.288 39.1809 34.288C37.9969 34.288 36.8289 34.136 35.6769 33.832C34.5409 33.512 33.5729 33.064 32.7729 32.488L34.2849 29.512C34.9249 29.992 35.6609 30.368 36.4929 30.64C37.3409 30.896 38.2049 31.024 39.0849 31.024C40.0609 31.024 40.8289 30.84 41.3889 30.472C41.9489 30.088 42.2289 29.552 42.2289 28.864C42.2289 27.488 41.1809 26.8 39.0849 26.8H37.3089V24.232L40.7649 20.32H33.6129V17.2H45.3729V19.72L41.5809 24.04Z" fill="white"/>
<path d="M33.7996 52.8004C33.7996 58.0004 37.9996 62.2004 43.1996 62.2004C48.3996 62.2004 52.5996 58.0004 52.5996 52.8004C52.5996 47.6004 48.3996 43.4004 43.1996 43.4004C37.9996 43.4004 33.7996 47.6004 33.7996 52.8004Z" fill="#3C3C3B"/>
<path d="M43.1998 49.7002C41.4998 49.7002 40.0998 51.1002 40.0998 52.8002C40.0998 54.5002 41.4998 55.9002 43.1998 55.9002C44.8998 55.9002 46.2998 54.5002 46.2998 52.8002C46.2998 51.1002 44.8998 49.7002 43.1998 49.7002Z" fill="#868686"/>
<path d="M7.59941 52.8004C7.59941 58.0004 11.7994 62.2004 16.9994 62.2004C22.1994 62.2004 26.3994 58.0004 26.3994 52.8004C26.3994 47.6004 22.1994 43.4004 16.9994 43.4004C11.6994 43.4004 7.59941 47.6004 7.59941 52.8004Z" fill="#3C3C3B"/>
<path d="M16.8992 49.7002C15.1992 49.7002 13.7992 51.1002 13.7992 52.8002C13.7992 54.5002 15.1992 55.9002 16.8992 55.9002C18.5992 55.9002 19.9992 54.5002 19.9992 52.8002C20.0992 51.1002 18.5992 49.7002 16.8992 49.7002Z" fill="#868686"/>
</svg>
