<svg width="60" height="63" viewBox="0 0 60 63" fill="none" xmlns="http://www.w3.org/2000/svg">
<path d="M60 0H0V53H60V0Z" fill="#329CDE"/>
<path d="M60 0H0V8H60V0Z" fill="#FFC555"/>
<path d="M20.8808 17.2V34H16.9928V20.32H13.6328V17.2H20.8808ZM30.2793 17.2V34H26.3913V20.32H23.0313V17.2H30.2793ZM38.9577 23.512C41.3257 23.512 43.0697 23.984 44.1897 24.928C45.3257 25.872 45.8937 27.136 45.8937 28.72C45.8937 29.744 45.6377 30.68 45.1257 31.528C44.6137 32.36 43.8297 33.032 42.7737 33.544C41.7337 34.04 40.4457 34.288 38.9097 34.288C37.7257 34.288 36.5577 34.136 35.4057 33.832C34.2697 33.512 33.3017 33.064 32.5017 32.488L34.0377 29.512C34.6777 29.992 35.4137 30.368 36.2457 30.64C37.0777 30.896 37.9337 31.024 38.8137 31.024C39.7897 31.024 40.5577 30.832 41.1177 30.448C41.6777 30.064 41.9577 29.528 41.9577 28.84C41.9577 28.12 41.6617 27.576 41.0697 27.208C40.4937 26.84 39.4857 26.656 38.0457 26.656H33.7497L34.6137 17.2H44.8617V20.32H37.8537L37.5897 23.512H38.9577Z" fill="white"/>
<path d="M26.3 52.8004C26.3 58.0004 22.1 62.2004 16.9 62.2004C11.7 62.2004 7.5 58.0004 7.5 52.8004C7.5 47.6004 11.7 43.4004 16.9 43.4004C22.1 43.4004 26.3 47.6004 26.3 52.8004Z" fill="#3C3C3B"/>
<path d="M16.8998 49.7002C18.5998 49.7002 19.9998 51.1002 19.9998 52.8002C19.9998 54.5002 18.5998 55.9002 16.8998 55.9002C15.1998 55.9002 13.7998 54.5002 13.7998 52.8002C13.7998 51.1002 15.1998 49.7002 16.8998 49.7002Z" fill="#868686"/>
<path d="M52.5002 52.8004C52.5002 58.0004 48.3002 62.2004 43.1002 62.2004C37.9002 62.2004 33.7002 58.0004 33.7002 52.8004C33.7002 47.6004 37.9002 43.4004 43.1002 43.4004C48.4002 43.4004 52.5002 47.6004 52.5002 52.8004Z" fill="#3C3C3B"/>
<path d="M43.2004 49.7002C44.9004 49.7002 46.3004 51.1002 46.3004 52.8002C46.3004 54.5002 44.9004 55.9002 43.2004 55.9002C41.5004 55.9002 40.1004 54.5002 40.1004 52.8002C40.0004 51.1002 41.5004 49.7002 43.2004 49.7002Z" fill="#868686"/>
</svg>
