<svg width="60" height="63" viewBox="0 0 60 63" fill="none" xmlns="http://www.w3.org/2000/svg">
<path d="M0 0H60V53H0V0Z" fill="#329CDE"/>
<path d="M0 0H60V8H0V0Z" fill="#FFC555"/>
<path d="M16.5176 17.2V34H12.6296V20.32H9.26956V17.2H16.5176ZM31.988 30.832V34H19.292V31.48L25.772 25.36C26.46 24.704 26.924 24.144 27.164 23.68C27.404 23.2 27.524 22.728 27.524 22.264C27.524 21.592 27.292 21.08 26.828 20.728C26.38 20.36 25.716 20.176 24.836 20.176C24.1 20.176 23.436 20.32 22.844 20.608C22.252 20.88 21.756 21.296 21.356 21.856L18.524 20.032C19.18 19.056 20.084 18.296 21.236 17.752C22.388 17.192 23.708 16.912 25.196 16.912C26.444 16.912 27.532 17.12 28.46 17.536C29.404 17.936 30.132 18.512 30.644 19.264C31.172 20 31.436 20.872 31.436 21.88C31.436 22.792 31.244 23.648 30.86 24.448C30.476 25.248 29.732 26.16 28.628 27.184L24.764 30.832H31.988ZM40.7454 34.288C39.3534 34.288 38.1134 33.944 37.0254 33.256C35.9374 32.568 35.0814 31.576 34.4574 30.28C33.8494 28.968 33.5454 27.408 33.5454 25.6C33.5454 23.792 33.8494 22.24 34.4574 20.944C35.0814 19.632 35.9374 18.632 37.0254 17.944C38.1134 17.256 39.3534 16.912 40.7454 16.912C42.1374 16.912 43.3774 17.256 44.4654 17.944C45.5534 18.632 46.4014 19.632 47.0094 20.944C47.6334 22.24 47.9454 23.792 47.9454 25.6C47.9454 27.408 47.6334 28.968 47.0094 30.28C46.4014 31.576 45.5534 32.568 44.4654 33.256C43.3774 33.944 42.1374 34.288 40.7454 34.288ZM40.7454 31C41.7694 31 42.5694 30.56 43.1454 29.68C43.7374 28.8 44.0334 27.44 44.0334 25.6C44.0334 23.76 43.7374 22.4 43.1454 21.52C42.5694 20.64 41.7694 20.2 40.7454 20.2C39.7374 20.2 38.9374 20.64 38.3454 21.52C37.7694 22.4 37.4814 23.76 37.4814 25.6C37.4814 27.44 37.7694 28.8 38.3454 29.68C38.9374 30.56 39.7374 31 40.7454 31Z" fill="white"/>
<path d="M33.7 52.8004C33.7 58.0004 37.9 62.2004 43.1 62.2004C48.3 62.2004 52.5 58.0004 52.5 52.8004C52.5 47.6004 48.3 43.4004 43.1 43.4004C37.9 43.4004 33.7 47.6004 33.7 52.8004Z" fill="#3C3C3B"/>
<path d="M43.1002 49.7002C41.4002 49.7002 40.0002 51.1002 40.0002 52.8002C40.0002 54.5002 41.4002 55.9002 43.1002 55.9002C44.8002 55.9002 46.2002 54.5002 46.2002 52.8002C46.2002 51.1002 44.8002 49.7002 43.1002 49.7002Z" fill="#868686"/>
<path d="M7.49981 52.8004C7.49981 58.0004 11.6998 62.2004 16.8998 62.2004C22.0998 62.2004 26.2998 58.0004 26.2998 52.8004C26.2998 47.6004 22.0998 43.4004 16.8998 43.4004C11.5998 43.4004 7.49981 47.6004 7.49981 52.8004Z" fill="#3C3C3B"/>
<path d="M16.7996 49.7002C15.0996 49.7002 13.6996 51.1002 13.6996 52.8002C13.6996 54.5002 15.0996 55.9002 16.7996 55.9002C18.4996 55.9002 19.8996 54.5002 19.8996 52.8002C19.9996 51.1002 18.4996 49.7002 16.7996 49.7002Z" fill="#868686"/>
</svg>
