<svg width="60" height="63" viewBox="0 0 60 63" fill="none" xmlns="http://www.w3.org/2000/svg">
<path d="M0 0H60V53H0V0Z" fill="#329CDE"/>
<path d="M0 0H60V8H0V0Z" fill="#FFC555"/>
<path d="M19.5762 17.2V34H15.6882V20.32H12.3282V17.2H19.5762ZM28.9746 17.2V34H25.0866V20.32H21.7266V17.2H28.9746ZM45.045 17.2V19.72L38.805 34H34.581L40.605 20.368H35.037V23.104H31.581V17.2H45.045Z" fill="white"/>
<path d="M33.7996 52.8004C33.7996 58.0004 37.9996 62.2004 43.1996 62.2004C48.3996 62.2004 52.5996 58.0004 52.5996 52.8004C52.5996 47.6004 48.3996 43.4004 43.1996 43.4004C37.9996 43.4004 33.7996 47.6004 33.7996 52.8004Z" fill="#3C3C3B"/>
<path d="M43.1998 49.7002C41.4998 49.7002 40.0998 51.1002 40.0998 52.8002C40.0998 54.5002 41.4998 55.9002 43.1998 55.9002C44.8998 55.9002 46.2998 54.5002 46.2998 52.8002C46.2998 51.1002 44.8998 49.7002 43.1998 49.7002Z" fill="#868686"/>
<path d="M7.59942 52.8004C7.59942 58.0004 11.7994 62.2004 16.9994 62.2004C22.1994 62.2004 26.3994 58.0004 26.3994 52.8004C26.3994 47.6004 22.1994 43.4004 16.9994 43.4004C11.6994 43.4004 7.59942 47.6004 7.59942 52.8004Z" fill="#3C3C3B"/>
<path d="M16.8992 49.7002C15.1992 49.7002 13.7992 51.1002 13.7992 52.8002C13.7992 54.5002 15.1992 55.9002 16.8992 55.9002C18.5992 55.9002 19.9992 54.5002 19.9992 52.8002C20.0992 51.1002 18.5992 49.7002 16.8992 49.7002Z" fill="#868686"/>
</svg>
