<svg width="252" height="30" viewBox="0 0 252 30" fill="none" xmlns="http://www.w3.org/2000/svg">
<path d="M5.28887 8.256C6.98087 8.256 8.28287 8.802 9.19487 9.894C10.1189 10.986 10.5809 12.534 10.5809 14.538C10.5809 15.942 10.3289 17.142 9.82487 18.138C9.33287 19.122 8.63687 19.872 7.73687 20.388C6.84887 20.892 5.81087 21.144 4.62287 21.144C4.01087 21.144 3.43487 21.084 2.89487 20.964C2.35487 20.832 1.88687 20.646 1.49087 20.406L2.17487 19.002C2.78687 19.398 3.59687 19.596 4.60487 19.596C5.91287 19.596 6.93287 19.194 7.66487 18.39C8.40887 17.574 8.78087 16.392 8.78087 14.844V14.394C8.42087 14.934 7.92287 15.348 7.28687 15.636C6.65087 15.912 5.93687 16.05 5.14487 16.05C4.31687 16.05 3.57287 15.894 2.91287 15.582C2.26487 15.27 1.75487 14.826 1.38287 14.25C1.02287 13.662 0.842867 12.99 0.842867 12.234C0.842867 11.442 1.03487 10.746 1.41887 10.146C1.81487 9.546 2.34887 9.084 3.02087 8.76C3.69287 8.424 4.44887 8.256 5.28887 8.256ZM5.45087 14.592C6.01487 14.592 6.51887 14.484 6.96287 14.268C7.40687 14.052 7.74887 13.758 7.98887 13.386C8.24087 13.014 8.36687 12.6 8.36687 12.144C8.36687 11.7 8.24687 11.298 8.00687 10.938C7.77887 10.566 7.43687 10.272 6.98087 10.056C6.53687 9.828 5.99687 9.714 5.36087 9.714C4.53287 9.714 3.86087 9.936 3.34487 10.38C2.84087 10.824 2.58887 11.418 2.58887 12.162C2.58887 12.906 2.84687 13.5 3.36287 13.944C3.87887 14.376 4.57487 14.592 5.45087 14.592ZM25.5522 15.42H22.2762V18.642H20.7642V15.42H17.4882V13.998H20.7642V10.758H22.2762V13.998H25.5522V15.42ZM41.6368 8.4V9.624L36.5428 21H34.6348L39.6208 9.966H33.8608V12.216H32.1328V8.4H41.6368ZM48.3906 11.856H56.4546V13.278H48.3906V11.856ZM48.3906 16.122H56.4546V17.544H48.3906V16.122Z" fill="#2F2F2F"/>
<path d="M83.8843 8.4V21H82.1023V9.966H79.2583V8.4H83.8843ZM92.0764 13.35C92.9044 13.35 93.6424 13.506 94.2904 13.818C94.9504 14.13 95.4664 14.58 95.8384 15.168C96.2104 15.744 96.3964 16.41 96.3964 17.166C96.3964 17.958 96.1984 18.654 95.8024 19.254C95.4184 19.854 94.8844 20.322 94.2004 20.658C93.5284 20.982 92.7724 21.144 91.9324 21.144C90.2404 21.144 88.9324 20.598 88.0084 19.506C87.0964 18.414 86.6404 16.866 86.6404 14.862C86.6404 13.458 86.8864 12.264 87.3784 11.28C87.8824 10.284 88.5784 9.534 89.4664 9.03C90.3664 8.514 91.4104 8.256 92.5984 8.256C93.2104 8.256 93.7864 8.322 94.3264 8.454C94.8664 8.574 95.3344 8.754 95.7304 8.994L95.0464 10.398C94.4464 10.002 93.6424 9.804 92.6344 9.804C91.3264 9.804 90.3004 10.212 89.5564 11.028C88.8124 11.832 88.4404 13.008 88.4404 14.556C88.4404 14.748 88.4464 14.898 88.4584 15.006C88.8184 14.466 89.3104 14.058 89.9344 13.782C90.5704 13.494 91.2844 13.35 92.0764 13.35ZM91.8604 19.686C92.6884 19.686 93.3604 19.464 93.8764 19.02C94.3924 18.576 94.6504 17.982 94.6504 17.238C94.6504 16.494 94.3864 15.906 93.8584 15.474C93.3424 15.03 92.6464 14.808 91.7704 14.808C91.2064 14.808 90.7024 14.916 90.2584 15.132C89.8264 15.348 89.4844 15.642 89.2324 16.014C88.9924 16.386 88.8724 16.8 88.8724 17.256C88.8724 17.7 88.9864 18.108 89.2144 18.48C89.4544 18.84 89.7964 19.134 90.2404 19.362C90.6964 19.578 91.2364 19.686 91.8604 19.686Z" fill="#2F2F2F"/>
<path d="M68 1H108V-1H68V1ZM112 5V25H114V5H112ZM108 29H68V31H108V29ZM64 25V5H62V25H64ZM68 29C65.7909 29 64 27.2091 64 25H62C62 28.3137 64.6863 31 68 31V29ZM112 25C112 27.2091 110.209 29 108 29V31C111.314 31 114 28.3137 114 25H112ZM108 1C110.209 1 112 2.79086 112 5H114C114 1.68629 111.314 -1 108 -1V1ZM68 -1C64.6863 -1 62 1.68629 62 5H64C64 2.79086 65.7909 1 68 1V-1Z" fill="#2F2F2F"/>
<path d="M148.082 8.256C149.774 8.256 151.076 8.802 151.988 9.894C152.912 10.986 153.374 12.534 153.374 14.538C153.374 15.942 153.122 17.142 152.618 18.138C152.126 19.122 151.43 19.872 150.53 20.388C149.642 20.892 148.604 21.144 147.416 21.144C146.804 21.144 146.228 21.084 145.688 20.964C145.148 20.832 144.68 20.646 144.284 20.406L144.968 19.002C145.58 19.398 146.39 19.596 147.398 19.596C148.706 19.596 149.726 19.194 150.458 18.39C151.202 17.574 151.574 16.392 151.574 14.844V14.394C151.214 14.934 150.716 15.348 150.08 15.636C149.444 15.912 148.73 16.05 147.938 16.05C147.11 16.05 146.366 15.894 145.706 15.582C145.058 15.27 144.548 14.826 144.176 14.25C143.816 13.662 143.636 12.99 143.636 12.234C143.636 11.442 143.828 10.746 144.212 10.146C144.608 9.546 145.142 9.084 145.814 8.76C146.486 8.424 147.242 8.256 148.082 8.256ZM148.244 14.592C148.808 14.592 149.312 14.484 149.756 14.268C150.2 14.052 150.542 13.758 150.782 13.386C151.034 13.014 151.16 12.6 151.16 12.144C151.16 11.7 151.04 11.298 150.8 10.938C150.572 10.566 150.23 10.272 149.774 10.056C149.33 9.828 148.79 9.714 148.154 9.714C147.326 9.714 146.654 9.936 146.138 10.38C145.634 10.824 145.382 11.418 145.382 12.162C145.382 12.906 145.64 13.5 146.156 13.944C146.672 14.376 147.368 14.592 148.244 14.592ZM160.101 15.312H164.943V16.806H160.101V15.312ZM180.844 8.4V9.624L175.75 21H173.842L178.828 9.966H173.068V12.216H171.34V8.4H180.844ZM187.598 11.856H195.662V13.278H187.598V11.856ZM187.598 16.122H195.662V17.544H187.598V16.122Z" fill="#2F2F2F"/>
<path d="M231.552 19.434V21H222.498V19.776L227.628 14.826C228.252 14.226 228.672 13.71 228.888 13.278C229.104 12.834 229.212 12.39 229.212 11.946C229.212 11.286 228.978 10.776 228.51 10.416C228.054 10.044 227.394 9.858 226.53 9.858C225.138 9.858 224.064 10.314 223.308 11.226L222.084 10.164C222.576 9.564 223.218 9.096 224.01 8.76C224.814 8.424 225.708 8.256 226.692 8.256C228.012 8.256 229.062 8.574 229.842 9.21C230.622 9.834 231.012 10.686 231.012 11.766C231.012 12.438 230.868 13.074 230.58 13.674C230.292 14.274 229.746 14.958 228.942 15.726L225.09 19.434H231.552Z" fill="#2F2F2F"/>
<path d="M207 1H247V-1H207V1ZM251 5V25H253V5H251ZM247 29H207V31H247V29ZM203 25V5H201V25H203ZM207 29C204.791 29 203 27.2091 203 25H201C201 28.3137 203.686 31 207 31V29ZM251 25C251 27.2091 249.209 29 247 29V31C250.314 31 253 28.3137 253 25H251ZM247 1C249.209 1 251 2.79086 251 5H253C253 1.68629 250.314 -1 247 -1V1ZM207 -1C203.686 -1 201 1.68629 201 5H203C203 2.79086 204.791 1 207 1V-1Z" fill="#2F2F2F"/>
</svg>
