<svg width="466" height="328" viewBox="0 0 466 328" fill="none" xmlns="http://www.w3.org/2000/svg">
<path d="M283.878 10.176C284.496 10.3787 284.987 10.72 285.35 11.2C285.712 11.6693 285.894 12.256 285.894 12.96C285.894 13.9307 285.52 14.6827 284.774 15.216C284.027 15.7387 282.939 16 281.51 16H275.942V4.8H281.19C282.512 4.8 283.531 5.06133 284.246 5.584C284.96 6.096 285.318 6.80533 285.318 7.712C285.318 8.26667 285.19 8.75733 284.934 9.184C284.678 9.61067 284.326 9.94133 283.878 10.176ZM278.022 6.432V9.52H280.966C281.691 9.52 282.246 9.392 282.63 9.136C283.024 8.86933 283.222 8.48533 283.222 7.984C283.222 7.472 283.024 7.088 282.63 6.832C282.246 6.56533 281.691 6.432 280.966 6.432H278.022ZM281.382 14.368C282.992 14.368 283.798 13.8293 283.798 12.752C283.798 11.6747 282.992 11.136 281.382 11.136H278.022V14.368H281.382ZM287.921 4.128H289.921V16H287.921V4.128ZM300.818 7.456V16H298.914V14.912C298.594 15.296 298.194 15.5947 297.714 15.808C297.234 16.0107 296.717 16.112 296.162 16.112C295.021 16.112 294.12 15.7973 293.458 15.168C292.808 14.528 292.482 13.584 292.482 12.336V7.456H294.482V12.064C294.482 12.832 294.653 13.408 294.994 13.792C295.346 14.1653 295.842 14.352 296.482 14.352C297.197 14.352 297.762 14.1333 298.178 13.696C298.605 13.248 298.818 12.608 298.818 11.776V7.456H300.818ZM311.469 11.776C311.469 11.9147 311.458 12.112 311.437 12.368H304.733C304.85 12.9973 305.154 13.4987 305.645 13.872C306.146 14.2347 306.765 14.416 307.501 14.416C308.44 14.416 309.213 14.1067 309.821 13.488L310.893 14.72C310.509 15.1787 310.024 15.5253 309.437 15.76C308.85 15.9947 308.189 16.112 307.453 16.112C306.514 16.112 305.688 15.9253 304.973 15.552C304.258 15.1787 303.704 14.6613 303.309 14C302.925 13.328 302.733 12.5707 302.733 11.728C302.733 10.896 302.92 10.1493 303.293 9.488C303.677 8.816 304.205 8.29333 304.877 7.92C305.549 7.54667 306.306 7.36 307.149 7.36C307.981 7.36 308.722 7.54667 309.373 7.92C310.034 8.28267 310.546 8.8 310.909 9.472C311.282 10.1333 311.469 10.9013 311.469 11.776ZM307.149 8.96C306.509 8.96 305.965 9.152 305.517 9.536C305.08 9.90933 304.813 10.4107 304.717 11.04H309.565C309.48 10.4213 309.218 9.92 308.781 9.536C308.344 9.152 307.8 8.96 307.149 8.96ZM320.452 16.112C319.759 16.112 319.081 16.0213 318.42 15.84C317.759 15.6587 317.231 15.4293 316.836 15.152L317.604 13.632C317.988 13.888 318.447 14.096 318.98 14.256C319.524 14.4053 320.057 14.48 320.58 14.48C321.775 14.48 322.372 14.1653 322.372 13.536C322.372 13.2373 322.217 13.0293 321.908 12.912C321.609 12.7947 321.124 12.6827 320.452 12.576C319.748 12.4693 319.172 12.3467 318.724 12.208C318.287 12.0693 317.903 11.8293 317.572 11.488C317.252 11.136 317.092 10.6507 317.092 10.032C317.092 9.22133 317.428 8.576 318.1 8.096C318.783 7.60533 319.7 7.36 320.852 7.36C321.439 7.36 322.025 7.42933 322.612 7.568C323.199 7.696 323.679 7.872 324.052 8.096L323.284 9.616C322.559 9.18933 321.743 8.976 320.836 8.976C320.249 8.976 319.801 9.06667 319.492 9.248C319.193 9.41867 319.044 9.648 319.044 9.936C319.044 10.256 319.204 10.4853 319.524 10.624C319.855 10.752 320.361 10.8747 321.044 10.992C321.727 11.0987 322.287 11.2213 322.724 11.36C323.161 11.4987 323.535 11.7333 323.844 12.064C324.164 12.3947 324.324 12.864 324.324 13.472C324.324 14.272 323.977 14.912 323.284 15.392C322.591 15.872 321.647 16.112 320.452 16.112ZM330.894 7.36C331.972 7.36 332.836 7.67467 333.486 8.304C334.137 8.93333 334.462 9.86667 334.462 11.104V16H332.462V11.36C332.462 10.6133 332.286 10.0533 331.934 9.68C331.582 9.296 331.081 9.104 330.43 9.104C329.694 9.104 329.113 9.328 328.686 9.776C328.26 10.2133 328.046 10.848 328.046 11.68V16H326.046V4.128H328.046V8.448C328.377 8.096 328.782 7.82933 329.262 7.648C329.753 7.456 330.297 7.36 330.894 7.36ZM340.264 7.36C341.522 7.36 342.482 7.664 343.144 8.272C343.816 8.86933 344.152 9.776 344.152 10.992V16H342.264V14.96C342.018 15.3333 341.666 15.6213 341.208 15.824C340.76 16.016 340.216 16.112 339.576 16.112C338.936 16.112 338.376 16.0053 337.896 15.792C337.416 15.568 337.042 15.264 336.776 14.88C336.52 14.4853 336.392 14.0427 336.392 13.552C336.392 12.784 336.674 12.1707 337.24 11.712C337.816 11.2427 338.717 11.008 339.944 11.008H342.152V10.88C342.152 10.2827 341.97 9.824 341.608 9.504C341.256 9.184 340.728 9.024 340.024 9.024C339.544 9.024 339.069 9.09867 338.6 9.248C338.141 9.39733 337.752 9.60533 337.432 9.872L336.648 8.416C337.096 8.07467 337.634 7.81333 338.264 7.632C338.893 7.45067 339.56 7.36 340.264 7.36ZM339.992 14.656C340.493 14.656 340.936 14.544 341.32 14.32C341.714 14.0853 341.992 13.7547 342.152 13.328V12.336H340.088C338.936 12.336 338.36 12.7147 338.36 13.472C338.36 13.8347 338.504 14.1227 338.792 14.336C339.08 14.5493 339.48 14.656 339.992 14.656ZM351.454 7.36C352.286 7.36 353.028 7.54133 353.678 7.904C354.34 8.26667 354.857 8.77867 355.23 9.44C355.604 10.1013 355.79 10.864 355.79 11.728C355.79 12.592 355.604 13.36 355.23 14.032C354.857 14.6933 354.34 15.2053 353.678 15.568C353.028 15.9307 352.286 16.112 351.454 16.112C350.302 16.112 349.39 15.728 348.718 14.96V19.104H346.718V7.456H348.622V8.576C348.953 8.17067 349.358 7.86667 349.838 7.664C350.329 7.46133 350.868 7.36 351.454 7.36ZM351.23 14.4C351.966 14.4 352.569 14.1547 353.038 13.664C353.518 13.1733 353.758 12.528 353.758 11.728C353.758 10.928 353.518 10.2827 353.038 9.792C352.569 9.30133 351.966 9.056 351.23 9.056C350.75 9.056 350.318 9.168 349.934 9.392C349.55 9.60533 349.246 9.91467 349.022 10.32C348.798 10.7253 348.686 11.1947 348.686 11.728C348.686 12.2613 348.798 12.7307 349.022 13.136C349.246 13.5413 349.55 13.856 349.934 14.08C350.318 14.2933 350.75 14.4 351.23 14.4ZM365.719 11.776C365.719 11.9147 365.708 12.112 365.687 12.368H358.983C359.1 12.9973 359.404 13.4987 359.895 13.872C360.396 14.2347 361.015 14.416 361.751 14.416C362.69 14.416 363.463 14.1067 364.071 13.488L365.143 14.72C364.759 15.1787 364.274 15.5253 363.687 15.76C363.1 15.9947 362.439 16.112 361.703 16.112C360.764 16.112 359.938 15.9253 359.223 15.552C358.508 15.1787 357.954 14.6613 357.559 14C357.175 13.328 356.983 12.5707 356.983 11.728C356.983 10.896 357.17 10.1493 357.543 9.488C357.927 8.816 358.455 8.29333 359.127 7.92C359.799 7.54667 360.556 7.36 361.399 7.36C362.231 7.36 362.972 7.54667 363.623 7.92C364.284 8.28267 364.796 8.8 365.159 9.472C365.532 10.1333 365.719 10.9013 365.719 11.776ZM361.399 8.96C360.759 8.96 360.215 9.152 359.767 9.536C359.33 9.90933 359.063 10.4107 358.967 11.04H363.815C363.73 10.4213 363.468 9.92 363.031 9.536C362.594 9.152 362.05 8.96 361.399 8.96ZM370.28 16.112C369.587 16.112 368.909 16.0213 368.248 15.84C367.587 15.6587 367.059 15.4293 366.664 15.152L367.432 13.632C367.816 13.888 368.275 14.096 368.808 14.256C369.352 14.4053 369.885 14.48 370.408 14.48C371.603 14.48 372.2 14.1653 372.2 13.536C372.2 13.2373 372.045 13.0293 371.736 12.912C371.437 12.7947 370.952 12.6827 370.28 12.576C369.576 12.4693 369 12.3467 368.552 12.208C368.115 12.0693 367.731 11.8293 367.4 11.488C367.08 11.136 366.92 10.6507 366.92 10.032C366.92 9.22133 367.256 8.576 367.928 8.096C368.611 7.60533 369.528 7.36 370.68 7.36C371.267 7.36 371.853 7.42933 372.44 7.568C373.027 7.696 373.507 7.872 373.88 8.096L373.112 9.616C372.387 9.18933 371.571 8.976 370.664 8.976C370.077 8.976 369.629 9.06667 369.32 9.248C369.021 9.41867 368.872 9.648 368.872 9.936C368.872 10.256 369.032 10.4853 369.352 10.624C369.683 10.752 370.189 10.8747 370.872 10.992C371.555 11.0987 372.115 11.2213 372.552 11.36C372.989 11.4987 373.363 11.7333 373.672 12.064C373.992 12.3947 374.152 12.864 374.152 13.472C374.152 14.272 373.805 14.912 373.112 15.392C372.419 15.872 371.475 16.112 370.28 16.112Z" fill="#2F2F2F"/>
<path d="M87.9981 6.544V9.952H93.4061V11.712H87.9981V16H85.9181V4.8H94.0941V6.544H87.9981ZM99.5192 16.112C98.6552 16.112 97.8765 15.9253 97.1832 15.552C96.4899 15.1787 95.9459 14.6613 95.5512 14C95.1672 13.328 94.9752 12.5707 94.9752 11.728C94.9752 10.8853 95.1672 10.1333 95.5512 9.472C95.9459 8.81067 96.4899 8.29333 97.1832 7.92C97.8765 7.54667 98.6552 7.36 99.5192 7.36C100.394 7.36 101.178 7.54667 101.871 7.92C102.565 8.29333 103.103 8.81067 103.487 9.472C103.882 10.1333 104.079 10.8853 104.079 11.728C104.079 12.5707 103.882 13.328 103.487 14C103.103 14.6613 102.565 15.1787 101.871 15.552C101.178 15.9253 100.394 16.112 99.5192 16.112ZM99.5192 14.4C100.255 14.4 100.863 14.1547 101.343 13.664C101.823 13.1733 102.063 12.528 102.063 11.728C102.063 10.928 101.823 10.2827 101.343 9.792C100.863 9.30133 100.255 9.056 99.5192 9.056C98.7832 9.056 98.1752 9.30133 97.6952 9.792C97.2259 10.2827 96.9912 10.928 96.9912 11.728C96.9912 12.528 97.2259 13.1733 97.6952 13.664C98.1752 14.1547 98.7832 14.4 99.5192 14.4ZM114.264 7.456V16H112.36V14.912C112.04 15.296 111.64 15.5947 111.16 15.808C110.68 16.0107 110.162 16.112 109.608 16.112C108.466 16.112 107.565 15.7973 106.904 15.168C106.253 14.528 105.928 13.584 105.928 12.336V7.456H107.928V12.064C107.928 12.832 108.098 13.408 108.44 13.792C108.792 14.1653 109.288 14.352 109.928 14.352C110.642 14.352 111.208 14.1333 111.624 13.696C112.05 13.248 112.264 12.608 112.264 11.776V7.456H114.264ZM118.786 8.704C119.362 7.808 120.376 7.36 121.826 7.36V9.264C121.656 9.232 121.501 9.216 121.362 9.216C120.584 9.216 119.976 9.44533 119.538 9.904C119.101 10.352 118.882 11.0027 118.882 11.856V16H116.882V7.456H118.786V8.704ZM123.044 10.72H127.444V12.384H123.044V10.72ZM132.272 16.112C131.579 16.112 130.902 16.0213 130.24 15.84C129.579 15.6587 129.051 15.4293 128.656 15.152L129.424 13.632C129.808 13.888 130.267 14.096 130.8 14.256C131.344 14.4053 131.878 14.48 132.4 14.48C133.595 14.48 134.192 14.1653 134.192 13.536C134.192 13.2373 134.038 13.0293 133.728 12.912C133.43 12.7947 132.944 12.6827 132.272 12.576C131.568 12.4693 130.992 12.3467 130.544 12.208C130.107 12.0693 129.723 11.8293 129.392 11.488C129.072 11.136 128.912 10.6507 128.912 10.032C128.912 9.22133 129.248 8.576 129.92 8.096C130.603 7.60533 131.52 7.36 132.672 7.36C133.259 7.36 133.846 7.42933 134.432 7.568C135.019 7.696 135.499 7.872 135.872 8.096L135.104 9.616C134.379 9.18933 133.563 8.976 132.656 8.976C132.07 8.976 131.622 9.06667 131.312 9.248C131.014 9.41867 130.864 9.648 130.864 9.936C130.864 10.256 131.024 10.4853 131.344 10.624C131.675 10.752 132.182 10.8747 132.864 10.992C133.547 11.0987 134.107 11.2213 134.544 11.36C134.982 11.4987 135.355 11.7333 135.664 12.064C135.984 12.3947 136.144 12.864 136.144 13.472C136.144 14.272 135.798 14.912 135.104 15.392C134.411 15.872 133.467 16.112 132.272 16.112ZM137.867 7.456H139.867V16H137.867V7.456ZM138.875 6.048C138.512 6.048 138.208 5.936 137.963 5.712C137.717 5.47733 137.595 5.18933 137.595 4.848C137.595 4.50667 137.717 4.224 137.963 4C138.208 3.76533 138.512 3.648 138.875 3.648C139.237 3.648 139.541 3.76 139.787 3.984C140.032 4.19733 140.155 4.46933 140.155 4.8C140.155 5.152 140.032 5.45067 139.787 5.696C139.552 5.93067 139.248 6.048 138.875 6.048ZM150.86 4.128V16H148.94V14.896C148.609 15.3013 148.198 15.6053 147.708 15.808C147.228 16.0107 146.694 16.112 146.108 16.112C145.286 16.112 144.545 15.9307 143.884 15.568C143.233 15.2053 142.721 14.6933 142.348 14.032C141.974 13.36 141.788 12.592 141.788 11.728C141.788 10.864 141.974 10.1013 142.348 9.44C142.721 8.77867 143.233 8.26667 143.884 7.904C144.545 7.54133 145.286 7.36 146.108 7.36C146.673 7.36 147.19 7.456 147.66 7.648C148.129 7.84 148.529 8.128 148.86 8.512V4.128H150.86ZM146.348 14.4C146.828 14.4 147.26 14.2933 147.644 14.08C148.028 13.856 148.332 13.5413 148.556 13.136C148.78 12.7307 148.892 12.2613 148.892 11.728C148.892 11.1947 148.78 10.7253 148.556 10.32C148.332 9.91467 148.028 9.60533 147.644 9.392C147.26 9.168 146.828 9.056 146.348 9.056C145.868 9.056 145.436 9.168 145.052 9.392C144.668 9.60533 144.364 9.91467 144.14 10.32C143.916 10.7253 143.804 11.1947 143.804 11.728C143.804 12.2613 143.916 12.7307 144.14 13.136C144.364 13.5413 144.668 13.856 145.052 14.08C145.436 14.2933 145.868 14.4 146.348 14.4ZM161.508 11.776C161.508 11.9147 161.497 12.112 161.476 12.368H154.772C154.889 12.9973 155.193 13.4987 155.684 13.872C156.185 14.2347 156.804 14.416 157.54 14.416C158.479 14.416 159.252 14.1067 159.86 13.488L160.932 14.72C160.548 15.1787 160.063 15.5253 159.476 15.76C158.889 15.9947 158.228 16.112 157.492 16.112C156.553 16.112 155.727 15.9253 155.012 15.552C154.297 15.1787 153.743 14.6613 153.348 14C152.964 13.328 152.772 12.5707 152.772 11.728C152.772 10.896 152.959 10.1493 153.332 9.488C153.716 8.816 154.244 8.29333 154.916 7.92C155.588 7.54667 156.345 7.36 157.188 7.36C158.02 7.36 158.761 7.54667 159.412 7.92C160.073 8.28267 160.585 8.8 160.948 9.472C161.321 10.1333 161.508 10.9013 161.508 11.776ZM157.188 8.96C156.548 8.96 156.004 9.152 155.556 9.536C155.119 9.90933 154.852 10.4107 154.756 11.04H159.604C159.519 10.4213 159.257 9.92 158.82 9.536C158.383 9.152 157.839 8.96 157.188 8.96ZM171.797 4.128V16H169.877V14.896C169.547 15.3013 169.136 15.6053 168.645 15.808C168.165 16.0107 167.632 16.112 167.045 16.112C166.224 16.112 165.483 15.9307 164.821 15.568C164.171 15.2053 163.659 14.6933 163.285 14.032C162.912 13.36 162.725 12.592 162.725 11.728C162.725 10.864 162.912 10.1013 163.285 9.44C163.659 8.77867 164.171 8.26667 164.821 7.904C165.483 7.54133 166.224 7.36 167.045 7.36C167.611 7.36 168.128 7.456 168.597 7.648C169.067 7.84 169.467 8.128 169.797 8.512V4.128H171.797ZM167.285 14.4C167.765 14.4 168.197 14.2933 168.581 14.08C168.965 13.856 169.269 13.5413 169.493 13.136C169.717 12.7307 169.829 12.2613 169.829 11.728C169.829 11.1947 169.717 10.7253 169.493 10.32C169.269 9.91467 168.965 9.60533 168.581 9.392C168.197 9.168 167.765 9.056 167.285 9.056C166.805 9.056 166.373 9.168 165.989 9.392C165.605 9.60533 165.301 9.91467 165.077 10.32C164.853 10.7253 164.741 11.1947 164.741 11.728C164.741 12.2613 164.853 12.7307 165.077 13.136C165.301 13.5413 165.605 13.856 165.989 14.08C166.373 14.2933 166.805 14.4 167.285 14.4ZM181.475 16.112C180.782 16.112 180.105 16.0213 179.443 15.84C178.782 15.6587 178.254 15.4293 177.859 15.152L178.627 13.632C179.011 13.888 179.47 14.096 180.003 14.256C180.547 14.4053 181.081 14.48 181.603 14.48C182.798 14.48 183.395 14.1653 183.395 13.536C183.395 13.2373 183.241 13.0293 182.931 12.912C182.633 12.7947 182.147 12.6827 181.475 12.576C180.771 12.4693 180.195 12.3467 179.747 12.208C179.31 12.0693 178.926 11.8293 178.595 11.488C178.275 11.136 178.115 10.6507 178.115 10.032C178.115 9.22133 178.451 8.576 179.123 8.096C179.806 7.60533 180.723 7.36 181.875 7.36C182.462 7.36 183.049 7.42933 183.635 7.568C184.222 7.696 184.702 7.872 185.075 8.096L184.307 9.616C183.582 9.18933 182.766 8.976 181.859 8.976C181.273 8.976 180.825 9.06667 180.515 9.248C180.217 9.41867 180.067 9.648 180.067 9.936C180.067 10.256 180.227 10.4853 180.547 10.624C180.878 10.752 181.385 10.8747 182.067 10.992C182.75 11.0987 183.31 11.2213 183.747 11.36C184.185 11.4987 184.558 11.7333 184.867 12.064C185.187 12.3947 185.347 12.864 185.347 13.472C185.347 14.272 185.001 14.912 184.307 15.392C183.614 15.872 182.67 16.112 181.475 16.112ZM191.918 7.36C192.995 7.36 193.859 7.67467 194.51 8.304C195.16 8.93333 195.486 9.86667 195.486 11.104V16H193.486V11.36C193.486 10.6133 193.31 10.0533 192.958 9.68C192.606 9.296 192.104 9.104 191.454 9.104C190.718 9.104 190.136 9.328 189.71 9.776C189.283 10.2133 189.07 10.848 189.07 11.68V16H187.07V4.128H189.07V8.448C189.4 8.096 189.806 7.82933 190.286 7.648C190.776 7.456 191.32 7.36 191.918 7.36ZM201.287 7.36C202.546 7.36 203.506 7.664 204.167 8.272C204.839 8.86933 205.175 9.776 205.175 10.992V16H203.287V14.96C203.042 15.3333 202.69 15.6213 202.231 15.824C201.783 16.016 201.239 16.112 200.599 16.112C199.959 16.112 199.399 16.0053 198.919 15.792C198.439 15.568 198.066 15.264 197.799 14.88C197.543 14.4853 197.415 14.0427 197.415 13.552C197.415 12.784 197.698 12.1707 198.263 11.712C198.839 11.2427 199.74 11.008 200.967 11.008H203.175V10.88C203.175 10.2827 202.994 9.824 202.631 9.504C202.279 9.184 201.751 9.024 201.047 9.024C200.567 9.024 200.092 9.09867 199.623 9.248C199.164 9.39733 198.775 9.60533 198.455 9.872L197.671 8.416C198.119 8.07467 198.658 7.81333 199.287 7.632C199.916 7.45067 200.583 7.36 201.287 7.36ZM201.015 14.656C201.516 14.656 201.959 14.544 202.343 14.32C202.738 14.0853 203.015 13.7547 203.175 13.328V12.336H201.111C199.959 12.336 199.383 12.7147 199.383 13.472C199.383 13.8347 199.527 14.1227 199.815 14.336C200.103 14.5493 200.503 14.656 201.015 14.656ZM212.478 7.36C213.31 7.36 214.051 7.54133 214.702 7.904C215.363 8.26667 215.88 8.77867 216.254 9.44C216.627 10.1013 216.814 10.864 216.814 11.728C216.814 12.592 216.627 13.36 216.254 14.032C215.88 14.6933 215.363 15.2053 214.702 15.568C214.051 15.9307 213.31 16.112 212.478 16.112C211.326 16.112 210.414 15.728 209.742 14.96V19.104H207.742V7.456H209.646V8.576C209.976 8.17067 210.382 7.86667 210.862 7.664C211.352 7.46133 211.891 7.36 212.478 7.36ZM212.254 14.4C212.99 14.4 213.592 14.1547 214.062 13.664C214.542 13.1733 214.782 12.528 214.782 11.728C214.782 10.928 214.542 10.2827 214.062 9.792C213.592 9.30133 212.99 9.056 212.254 9.056C211.774 9.056 211.342 9.168 210.958 9.392C210.574 9.60533 210.27 9.91467 210.046 10.32C209.822 10.7253 209.71 11.1947 209.71 11.728C209.71 12.2613 209.822 12.7307 210.046 13.136C210.27 13.5413 210.574 13.856 210.958 14.08C211.342 14.2933 211.774 14.4 212.254 14.4ZM226.742 11.776C226.742 11.9147 226.732 12.112 226.71 12.368H220.006C220.124 12.9973 220.428 13.4987 220.918 13.872C221.42 14.2347 222.038 14.416 222.774 14.416C223.713 14.416 224.486 14.1067 225.094 13.488L226.166 14.72C225.782 15.1787 225.297 15.5253 224.71 15.76C224.124 15.9947 223.462 16.112 222.726 16.112C221.788 16.112 220.961 15.9253 220.246 15.552C219.532 15.1787 218.977 14.6613 218.582 14C218.198 13.328 218.006 12.5707 218.006 11.728C218.006 10.896 218.193 10.1493 218.566 9.488C218.95 8.816 219.478 8.29333 220.15 7.92C220.822 7.54667 221.58 7.36 222.422 7.36C223.254 7.36 223.996 7.54667 224.646 7.92C225.308 8.28267 225.82 8.8 226.182 9.472C226.556 10.1333 226.742 10.9013 226.742 11.776ZM222.422 8.96C221.782 8.96 221.238 9.152 220.79 9.536C220.353 9.90933 220.086 10.4107 219.99 11.04H224.838C224.753 10.4213 224.492 9.92 224.054 9.536C223.617 9.152 223.073 8.96 222.422 8.96ZM231.304 16.112C230.61 16.112 229.933 16.0213 229.272 15.84C228.61 15.6587 228.082 15.4293 227.688 15.152L228.456 13.632C228.84 13.888 229.298 14.096 229.832 14.256C230.376 14.4053 230.909 14.48 231.432 14.48C232.626 14.48 233.224 14.1653 233.224 13.536C233.224 13.2373 233.069 13.0293 232.76 12.912C232.461 12.7947 231.976 12.6827 231.304 12.576C230.6 12.4693 230.024 12.3467 229.576 12.208C229.138 12.0693 228.754 11.8293 228.424 11.488C228.104 11.136 227.944 10.6507 227.944 10.032C227.944 9.22133 228.28 8.576 228.952 8.096C229.634 7.60533 230.552 7.36 231.704 7.36C232.29 7.36 232.877 7.42933 233.464 7.568C234.05 7.696 234.53 7.872 234.904 8.096L234.136 9.616C233.41 9.18933 232.594 8.976 231.688 8.976C231.101 8.976 230.653 9.06667 230.344 9.248C230.045 9.41867 229.896 9.648 229.896 9.936C229.896 10.256 230.056 10.4853 230.376 10.624C230.706 10.752 231.213 10.8747 231.896 10.992C232.578 11.0987 233.138 11.2213 233.576 11.36C234.013 11.4987 234.386 11.7333 234.696 12.064C235.016 12.3947 235.176 12.864 235.176 13.472C235.176 14.272 234.829 14.912 234.136 15.392C233.442 15.872 232.498 16.112 231.304 16.112Z" fill="#2F2F2F"/>
<circle cx="150.5" cy="177.5" r="150" stroke="#A1A6D9"/>
<circle cx="315.5" cy="177.5" r="150" stroke="#A1A6D9"/>
<path d="M28 222.437L78 213V239.214L28 249V222.437Z" fill="#FFD83A"/>
<rect x="104" y="215" width="42" height="42" fill="#719B4C"/>
<rect x="53" y="145" width="50" height="38" fill="#719B4C"/>
<rect x="82" y="67" width="50" height="38" fill="#F46B79"/>
<path d="M363 236L386.776 253.275L377.695 281.225H348.305L339.224 253.275L363 236Z" fill="#369CB7"/>
<g clip-path="url(#clip0_3_275)">
<path d="M419 236L440.651 198.5H397.349L419 236Z" fill="#369CB7"/>
</g>
<circle cx="354" cy="91" r="23" fill="#369CB7"/>
<rect x="201" y="113" width="50" height="50" fill="#369CB7"/>
<defs>
<clipPath id="clip0_3_275">
<rect width="50" height="50" fill="white" transform="translate(394 190)"/>
</clipPath>
</defs>
</svg>
