<svg width="398" height="210" viewBox="0 0 398 210" fill="none" xmlns="http://www.w3.org/2000/svg">
<path d="M5.46125 208.95C2.47194 208.946 0.00300178 206.529 0.00676443 203.482L0.0499034 168.551C0.0535951 165.561 2.47108 163.092 5.51787 163.096L32.709 163.13C33.0804 141.688 37.475 120.94 45.8349 101.29C54.1948 81.5252 66.1739 63.8341 81.4267 48.619C96.6794 33.4039 114.4 21.4685 134.186 13.1574C154.662 4.55967 176.397 0.217524 198.759 0.245141C221.121 0.272757 242.846 4.66857 263.301 13.3743C283.066 21.7343 300.757 33.7134 315.972 48.9661C331.187 64.2189 343.122 81.9395 351.433 101.725C359.687 121.338 364.088 142.154 364.407 163.597L391.598 163.63C394.587 163.634 397.056 166.052 397.052 169.098L397.009 204.03C397.005 207.019 394.588 209.488 391.541 209.484L5.46117 209.008L5.46125 208.95ZM304.563 163.523C303.196 106.437 255.999 60.1594 198.685 60.0887C141.371 60.0179 94.0601 106.179 92.5525 163.261L304.563 163.523Z" fill="#239AD6" fill-opacity="0.6"/>
<path d="M5.46019 208.449C3.21822 208.446 1.38092 206.604 1.38369 204.362L1.42784 168.608C1.43061 166.366 3.27245 164.529 5.51443 164.531L34.0853 164.567C34.2846 142.837 38.6795 121.802 47.0971 101.922C55.3994 82.3295 67.2634 64.7533 82.4009 49.7104C97.5386 34.6102 115.144 22.7896 134.7 14.5357C155.003 5.8803 176.566 1.59543 198.756 1.62283C220.946 1.65024 242.498 6.04584 262.78 14.6364C282.373 22.9387 299.949 34.8026 314.992 49.9402C330.092 65.0778 341.913 82.6834 350.166 102.239C358.535 122.14 362.878 143.243 363.024 164.915L391.594 164.951C393.836 164.953 395.674 166.795 395.671 169.037L395.627 204.792C395.624 207.034 393.782 208.871 391.54 208.868L5.46026 208.391L5.46019 208.449ZM305.939 164.845C305.264 106.323 257.322 58.7219 198.685 58.6495C140.049 58.5771 91.9316 106.059 91.1695 164.58L305.939 164.845Z" fill="#7CCED6" fill-opacity="0.6"/>
<path opacity="0.4" d="M362.219 166.296C361.931 166.296 361.702 166.065 361.702 165.778C361.672 143.933 357.386 122.773 348.96 102.814C340.764 83.3737 329.001 65.9407 314.073 50.9183C299.144 35.9533 281.683 24.147 262.263 15.9024C242.153 7.36952 220.773 3.03162 198.756 3.00443C176.739 2.97724 155.348 7.26232 135.217 15.7455C115.777 23.9421 98.3439 35.7053 83.3214 50.6333C68.3564 65.5613 56.5501 83.0227 48.3055 102.443C39.7727 122.553 35.4348 143.875 35.4076 165.892L5.51462 165.855C4.01997 165.854 2.81126 167.059 2.80942 168.554L2.76628 203.485C2.76443 204.98 3.97016 206.189 5.46481 206.191L391.545 206.667C393.039 206.669 394.248 205.464 394.25 203.969L394.293 169.037C394.295 167.543 393.089 166.334 391.594 166.332L362.219 166.296ZM89.79 165.96C89.864 106.001 138.73 57.2552 198.689 57.3292C258.647 57.4033 307.393 106.27 307.319 166.228L89.79 165.96Z" fill="#46A2DA" fill-opacity="0.6"/>
<circle cx="374.621" cy="187.804" r="10.9304" fill="#38A2C4"/>
<g clip-path="url(#clip0_3091_8506)">
<path d="M381.651 182.325C381.326 182.295 381.039 182.535 381.009 182.86L380.931 183.719C379.602 181.632 377.295 180.237 374.622 180.237C371.746 180.237 369.212 181.878 367.954 184.341C367.805 184.632 367.921 184.988 368.212 185.137C368.502 185.285 368.858 185.17 369.007 184.879C370.072 182.794 372.21 181.419 374.622 181.419C376.82 181.419 378.804 182.564 379.941 184.358L379.098 183.756C378.832 183.566 378.463 183.627 378.273 183.893C378.084 184.159 378.145 184.528 378.411 184.718L380.967 186.543C381.342 186.81 381.858 186.566 381.899 186.116L382.186 182.967C382.216 182.642 381.977 182.354 381.651 182.325Z" fill="white"/>
<path d="M381.032 190.471C380.741 190.323 380.385 190.438 380.236 190.729C379.172 192.814 377.034 194.189 374.621 194.189C372.423 194.189 370.439 193.044 369.302 191.251L370.145 191.853C370.411 192.042 370.78 191.981 370.97 191.715C371.16 191.449 371.098 191.08 370.832 190.89L368.276 189.065C367.906 188.8 367.385 189.038 367.344 189.492L367.057 192.641C367.027 192.966 367.267 193.254 367.592 193.284C367.917 193.313 368.205 193.073 368.234 192.748L368.313 191.889C369.641 193.976 371.948 195.371 374.621 195.371C377.497 195.371 380.031 193.73 381.289 191.267C381.438 190.976 381.322 190.62 381.032 190.471Z" fill="white"/>
</g>
<circle opacity="0.8" cx="22.8615" cy="187.804" r="10.9304" fill="#7CCED6"/>
<g clip-path="url(#clip1_3091_8506)">
<path d="M29.8917 182.325C29.5665 182.295 29.2789 182.535 29.2493 182.86L29.1709 183.719C27.842 181.632 25.535 180.237 22.862 180.237C19.9864 180.237 17.4523 181.878 16.1943 184.341C16.0458 184.632 16.1611 184.988 16.4519 185.137C16.7427 185.285 17.0988 185.17 17.2473 184.879C18.3119 182.794 20.4499 181.419 22.862 181.419C25.0605 181.419 27.0446 182.564 28.1813 184.358L27.3384 183.756C27.0727 183.566 26.7034 183.627 26.5137 183.893C26.3239 184.159 26.3855 184.528 26.6512 184.718L29.2073 186.543C29.582 186.81 30.0987 186.566 30.1397 186.116L30.4267 182.967C30.4564 182.642 30.2168 182.354 29.8917 182.325Z" fill="white"/>
<path d="M29.2719 190.471C28.9811 190.323 28.625 190.438 28.4765 190.729C27.4119 192.814 25.2739 194.189 22.8618 194.189C20.6632 194.189 18.6791 193.044 17.5425 191.251L18.3854 191.853C18.6511 192.042 19.0203 191.981 19.2101 191.715C19.3998 191.449 19.3383 191.08 19.0726 190.89L16.5165 189.065C16.1464 188.8 15.6255 189.038 15.5841 189.492L15.2971 192.641C15.2674 192.966 15.507 193.254 15.8321 193.284C16.1577 193.313 16.4449 193.073 16.4745 192.748L16.5529 191.889C17.8818 193.976 20.1888 195.371 22.8618 195.371C25.7374 195.371 28.2715 193.73 29.5295 191.267C29.678 190.976 29.5627 190.62 29.2719 190.471Z" fill="white"/>
</g>
<circle opacity="0.8" cx="198.741" cy="188.798" r="11.9241" fill="#7CCED6"/>
<g clip-path="url(#clip2_3091_8506)">
<path d="M196.4 183.925L198.342 183.925L198.333 186.356H199.532L199.523 183.925L201.464 183.925L198.932 181.393L196.4 183.925ZM193.868 191.521L193.868 189.58L196.299 189.588V188.39L193.868 188.398L193.868 186.457L191.336 188.989L193.868 191.521ZM201.464 194.053L199.523 194.053L199.532 191.622H198.333L198.342 194.053L196.4 194.053L198.932 196.585L201.464 194.053ZM203.996 186.457L203.996 188.398L201.566 188.39V189.588L203.996 189.58L203.996 191.521L206.528 188.989L203.996 186.457Z" fill="white"/>
</g>
<path d="M38.8145 151.532L38.7485 152.277L49.5708 153.237L49.6369 152.493L38.8145 151.532Z" fill="white"/>
<path d="M43.7458 124.047L43.5515 124.768L54.0423 127.593L54.2366 126.871L43.7458 124.047Z" fill="white"/>
<path d="M53.3872 97.7787L53.0706 98.4556L62.9117 103.059L63.2283 102.382L53.3872 97.7787Z" fill="white"/>
<path d="M67.4626 73.6084L67.0332 74.2201L75.9259 80.4631L76.3553 79.8515L67.4626 73.6084Z" fill="white"/>
<path d="M85.5054 52.2548L84.9763 52.7826L92.6493 60.4746L93.1784 59.9468L85.5054 52.2548Z" fill="white"/>
<path d="M107.003 34.3569L106.391 34.7848L112.612 43.6929L113.224 43.265L107.003 34.3569Z" fill="white"/>
<path d="M131.263 20.4624L130.585 20.7773L135.165 30.6298L135.842 30.3148L131.263 20.4624Z" fill="white"/>
<path d="M157.591 10.9703L156.868 11.1628L159.667 21.6606L160.389 21.4681L157.591 10.9703Z" fill="white"/>
<path d="M185.171 6.24926L184.427 6.31348L185.36 17.1381L186.105 17.0739L185.171 6.24926Z" fill="white"/>
<path d="M212.354 6.29667L211.393 17.119L212.137 17.1852L213.099 6.36282L212.354 6.29667Z" fill="white"/>
<path d="M239.93 11.112L237.102 21.6028L237.824 21.7973L240.652 11.3065L239.93 11.112Z" fill="white"/>
<path d="M266.181 20.6179L261.574 30.4579L262.251 30.7748L266.858 20.9348L266.181 20.6179Z" fill="white"/>
<path d="M290.423 34.5831L284.178 43.4736L284.79 43.9032L291.035 35.0126L290.423 34.5831Z" fill="white"/>
<path d="M311.85 52.5223L304.158 60.1953L304.686 60.7244L312.378 53.0514L311.85 52.5223Z" fill="white"/>
<path d="M329.857 73.914L320.95 80.1361L321.378 80.7488L330.285 74.5266L329.857 73.914Z" fill="white"/>
<path d="M343.875 98.143L334.023 102.726L334.338 103.403L344.19 98.8206L343.875 98.143Z" fill="white"/>
<path d="M353.444 124.423L342.946 127.225L343.139 127.947L353.637 125.145L353.444 124.423Z" fill="white"/>
<path d="M358.339 151.965L347.515 152.9L347.579 153.645L358.404 152.71L358.339 151.965Z" fill="white"/>
<path d="M51.6765 165.395L38.1099 165.378L38.1085 166.471L51.6751 166.487L51.6765 165.395Z" fill="white"/>
<path d="M40.7072 137.499L40.5161 138.575L53.8736 140.948L54.0646 139.872L40.7072 137.499Z" fill="white"/>
<path d="M48.0562 110.545L47.6814 111.571L60.4242 116.227L60.799 115.201L48.0562 110.545Z" fill="white"/>
<path d="M60.0007 85.261L59.4534 86.2062L71.1937 93.004L71.741 92.0588L60.0007 85.261Z" fill="white"/>
<path d="M76.1169 62.423L75.4138 63.2588L85.7951 71.9922L86.4982 71.1565L76.1169 62.423Z" fill="white"/>
<path d="M96.0196 42.7278L95.1821 43.4288L103.89 53.8316L104.727 53.1306L96.0196 42.7278Z" fill="white"/>
<path d="M118.979 26.8264L118.033 27.3713L124.802 39.1284L125.748 38.5835L118.979 26.8264Z" fill="white"/>
<path d="M144.365 15.1278L143.338 15.5001L147.963 28.2544L148.989 27.8821L144.365 15.1278Z" fill="white"/>
<path d="M171.402 7.97384L170.326 8.16223L172.666 21.5255L173.742 21.3371L171.402 7.97384Z" fill="white"/>
<path d="M199.27 5.70704L198.178 5.70569L198.161 19.2723L199.253 19.2736L199.27 5.70704Z" fill="white"/>
<path d="M226.068 8.06427L223.694 21.4218L224.769 21.6129L227.143 8.25542L226.068 8.06427Z" fill="white"/>
<path d="M253.112 15.2623L248.458 28.0051L249.483 28.3798L254.138 15.637L253.112 15.2623Z" fill="white"/>
<path d="M278.42 26.9899L271.624 38.7316L272.569 39.2787L279.366 27.5371L278.42 26.9899Z" fill="white"/>
<path d="M301.375 43.0314L292.644 53.4154L293.48 54.1183L302.211 43.7343L301.375 43.0314Z" fill="white"/>
<path d="M321.213 62.745L310.807 71.4501L311.508 72.2878L321.913 63.5827L321.213 62.745Z" fill="white"/>
<path d="M337.301 85.6278L325.543 92.3953L326.088 93.3419L337.846 86.5745L337.301 85.6278Z" fill="white"/>
<path d="M349.153 110.934L336.399 115.557L336.771 116.583L349.525 111.961L349.153 110.934Z" fill="white"/>
<path d="M356.431 137.945L343.068 140.286L343.256 141.362L356.619 139.021L356.431 137.945Z" fill="white"/>
<path d="M358.943 165.774L345.376 165.758L345.375 166.85L358.941 166.867L358.943 165.774Z" fill="white"/>
<path d="M43.5711 165.615L38.11 165.608L38.1093 166.126L43.5705 166.132L43.5711 165.615Z" fill="white"/>
<path d="M38.1531 162.876L38.1434 163.393L43.6034 163.495L43.613 162.978L38.1531 162.876Z" fill="white"/>
<path d="M38.2372 160.032L38.2185 160.549L43.6761 160.746L43.6948 160.229L38.2372 160.032Z" fill="white"/>
<path d="M38.3511 157.242L38.3234 157.759L43.7765 158.051L43.8042 157.535L38.3511 157.242Z" fill="white"/>
<path d="M38.5283 154.439L38.4916 154.955L43.9391 155.343L43.9758 154.827L38.5283 154.439Z" fill="white"/>
<path d="M38.7892 151.696L38.7435 152.211L44.1833 152.694L44.229 152.179L38.7892 151.696Z" fill="white"/>
<path d="M39.0421 148.879L38.9874 149.393L44.4178 149.97L44.4725 149.456L39.0421 148.879Z" fill="white"/>
<path d="M39.3964 146.137L39.3326 146.65L44.752 147.323L44.8157 146.809L39.3964 146.137Z" fill="white"/>
<path d="M39.7563 143.314L39.6837 143.827L45.0909 144.594L45.1635 144.081L39.7563 143.314Z" fill="white"/>
<path d="M40.1963 140.556L40.1147 141.067L45.5077 141.928L45.5893 141.417L40.1963 140.556Z" fill="white"/>
<path d="M40.6207 137.785L40.5302 138.294L45.9071 139.249L45.9976 138.74L40.6207 137.785Z" fill="white"/>
<path d="M41.1296 135.069L41.0303 135.577L46.3897 136.625L46.489 136.118L41.1296 135.069Z" fill="white"/>
<path d="M41.6922 132.297L41.584 132.802L46.9242 133.944L47.0324 133.439L41.6922 132.297Z" fill="white"/>
<path d="M42.357 129.598L42.24 130.102L47.5598 131.337L47.6768 130.833L42.357 129.598Z" fill="white"/>
<path d="M42.9838 126.876L42.858 127.378L48.1554 128.706L48.2811 128.204L42.9838 126.876Z" fill="white"/>
<path d="M43.7081 124.175L43.5735 124.674L48.8467 126.094L48.9812 125.594L43.7081 124.175Z" fill="white"/>
<path d="M44.4813 121.466L44.3381 121.963L49.586 123.475L49.7292 122.978L44.4813 121.466Z" fill="white"/>
<path d="M45.2837 118.771L45.1318 119.266L50.3523 120.869L50.5042 120.374L45.2837 118.771Z" fill="white"/>
<path d="M46.1112 116.11L45.9508 116.602L51.1428 118.296L51.3032 117.804L46.1112 116.11Z" fill="white"/>
<path d="M47.0196 113.482L46.8506 113.971L52.0119 115.755L52.181 115.267L47.0196 113.482Z" fill="white"/>
<path d="M47.9689 110.841L47.7914 111.327L52.9209 113.201L53.0984 112.715L47.9689 110.841Z" fill="white"/>
<path d="M48.9571 108.207L48.771 108.69L53.8671 110.654L54.0532 110.171L48.9571 108.207Z" fill="white"/>
<path d="M49.9724 105.567L49.778 106.046L54.839 108.098L55.0334 107.619L49.9724 105.567Z" fill="white"/>
<path d="M51.0543 103.009L50.8516 103.485L55.876 105.625L56.0787 105.149L51.0543 103.009Z" fill="white"/>
<path d="M52.1658 100.448L51.9548 100.92L56.9408 103.148L57.1518 102.675L52.1658 100.448Z" fill="white"/>
<path d="M53.3204 97.8859L53.1012 98.3545L58.0477 100.668L58.2669 100.2L53.3204 97.8859Z" fill="white"/>
<path d="M54.5583 95.3519L54.3309 95.8167L59.2364 98.2169L59.4638 97.7521L54.5583 95.3519Z" fill="white"/>
<path d="M55.7934 92.8577L55.558 93.3184L60.4208 95.8037L60.6563 95.343L55.7934 92.8577Z" fill="white"/>
<path d="M57.1119 90.4002L56.8685 90.8567L61.6869 93.4266L61.9304 92.9702L57.1119 90.4002Z" fill="white"/>
<path d="M58.4634 87.934L58.212 88.3862L62.985 91.0397L63.2364 90.5875L58.4634 87.934Z" fill="white"/>
<path d="M59.8158 85.5213L59.5565 85.969L64.2825 88.7054L64.5418 88.2577L59.8158 85.5213Z" fill="white"/>
<path d="M61.2787 83.0782L61.0117 83.5214L65.6896 86.3396L65.9566 85.8965L61.2787 83.0782Z" fill="white"/>
<path d="M62.7421 80.6929L62.4674 81.1313L67.0954 84.0309L67.3701 83.5925L62.7421 80.6929Z" fill="white"/>
<path d="M64.2457 78.3837L63.9634 78.8173L68.54 81.7971L68.8223 81.3635L64.2457 78.3837Z" fill="white"/>
<path d="M65.8096 76.0296L65.5198 76.4581L70.0433 79.5176L70.3331 79.089L65.8096 76.0296Z" fill="white"/>
<path d="M67.3801 73.7111L67.0828 74.1345L71.5527 77.2726L71.85 76.8491L67.3801 73.7111Z" fill="white"/>
<path d="M69.0123 71.4273L68.7077 71.8455L73.1218 75.061L73.4264 74.6428L69.0123 71.4273Z" fill="white"/>
<path d="M70.6866 69.2186L70.3747 69.6313L74.7319 72.9232L75.0438 72.5105L70.6866 69.2186Z" fill="white"/>
<path d="M72.3899 67.0082L72.0709 67.4155L76.3701 70.7827L76.6891 70.3754L72.3899 67.0082Z" fill="white"/>
<path d="M74.1297 64.7986L73.8036 65.2002L78.0432 68.6427L78.3693 68.241L74.1297 64.7986Z" fill="white"/>
<path d="M75.9731 62.6526L75.64 63.0485L79.8189 66.564L80.152 66.1681L75.9731 62.6526Z" fill="white"/>
<path d="M77.773 60.5096L77.4331 60.8997L81.5502 64.4878L81.8901 64.0978L77.773 60.5096Z" fill="white"/>
<path d="M79.5984 58.4368L79.2517 58.8209L83.306 62.48L83.6526 62.0959L79.5984 58.4368Z" fill="white"/>
<path d="M81.5367 56.3662L81.1834 56.7441L85.173 60.4736L85.5264 60.0956L81.5367 56.3662Z" fill="white"/>
<path d="M83.455 54.3221L83.0951 54.6938L87.0192 58.492L87.379 58.1203L83.455 54.3221Z" fill="white"/>
<path d="M85.409 52.3656L85.0427 52.731L88.8995 56.5973L89.2658 56.2319L85.409 52.3656Z" fill="white"/>
<path d="M87.4281 50.4427L87.0554 50.8016L90.8439 54.7351L91.2165 54.3762L87.4281 50.4427Z" fill="white"/>
<path d="M89.4745 48.4995L89.0956 48.8519L92.8152 52.8508L93.194 52.4984L89.4745 48.4995Z" fill="white"/>
<path d="M91.5487 46.5657L91.1638 46.9114L94.8128 50.9746L95.1977 50.6289L91.5487 46.5657Z" fill="white"/>
<path d="M93.6009 44.7299L93.21 45.0688L96.788 49.1948L97.1789 48.8558L93.6009 44.7299Z" fill="white"/>
<path d="M95.7613 42.9001L95.3646 43.2322L98.8699 47.4197L99.2666 47.0877L95.7613 42.9001Z" fill="white"/>
<path d="M97.9504 41.1417L97.548 41.4668L100.98 45.7149L101.382 45.3898L97.9504 41.1417Z" fill="white"/>
<path d="M100.114 39.4216L99.7061 39.7396L103.063 44.0471L103.471 43.7292L100.114 39.4216Z" fill="white"/>
<path d="M102.346 37.7278L101.932 38.0387L105.213 42.404L105.627 42.0932L102.346 37.7278Z" fill="white"/>
<path d="M104.644 36.0718L104.225 36.3754L107.429 40.7974L107.848 40.4938L104.644 36.0718Z" fill="white"/>
<path d="M106.929 34.4405L106.505 34.7367L109.632 39.2143L110.056 38.9181L106.929 34.4405Z" fill="white"/>
<path d="M109.213 32.8821L108.783 33.1709L111.832 37.702L112.261 37.4132L109.213 32.8821Z" fill="white"/>
<path d="M111.542 31.3173L111.107 31.5985L114.076 36.1824L114.51 35.9012L111.542 31.3173Z" fill="white"/>
<path d="M113.885 29.816L113.446 30.0896L116.334 34.7248L116.773 34.4511L113.885 29.816Z" fill="white"/>
<path d="M116.283 28.3601L115.839 28.626L118.646 33.3107L119.09 33.0448L116.283 28.3601Z" fill="white"/>
<path d="M118.691 26.961L118.242 27.2191L120.967 31.9518L121.415 31.6937L118.691 26.961Z" fill="white"/>
<path d="M121.163 25.6089L120.71 25.8591L123.352 30.6387L123.805 30.3884L121.163 25.6089Z" fill="white"/>
<path d="M123.617 24.2705L123.16 24.5128L125.718 29.3376L126.175 29.0953L123.617 24.2705Z" fill="white"/>
<path d="M126.138 22.9797L125.677 23.214L128.15 28.0829L128.611 27.8486L126.138 22.9797Z" fill="white"/>
<path d="M128.64 21.6966L128.175 21.9229L130.563 26.8343L131.028 26.608L128.64 21.6966Z" fill="white"/>
<path d="M131.172 20.5411L130.703 20.7592L133.005 25.7114L133.474 25.4934L131.172 20.5411Z" fill="white"/>
<path d="M133.685 19.398L133.212 19.6078L135.427 24.5993L135.9 24.3894L133.685 19.398Z" fill="white"/>
<path d="M136.266 18.2858L135.789 18.4873L137.917 23.5169L138.393 23.3154L136.266 18.2858Z" fill="white"/>
<path d="M138.834 17.1953L138.354 17.3885L140.393 22.4546L140.873 22.2614L138.834 17.1953Z" fill="white"/>
<path d="M141.478 16.1897L140.995 16.3745L142.946 21.4754L143.429 21.2906L141.478 16.1897Z" fill="white"/>
<path d="M144.103 15.2051L143.617 15.3815L145.478 20.5156L145.965 20.3393L144.103 15.2051Z" fill="white"/>
<path d="M146.735 14.2704L146.245 14.4382L148.017 19.6039L148.507 19.4361L146.735 14.2704Z" fill="white"/>
<path d="M149.382 13.4153L148.89 13.5746L150.571 18.7708L151.063 18.6115L149.382 13.4153Z" fill="white"/>
<path d="M152.055 12.5293L151.56 12.6799L153.15 17.9044L153.645 17.7537L152.055 12.5293Z" fill="white"/>
<path d="M154.764 11.7854L154.266 11.9274L155.765 17.179L156.262 17.037L154.764 11.7854Z" fill="white"/>
<path d="M157.443 11.0329L156.943 11.1661L158.35 16.4428L158.85 16.3095L157.443 11.0329Z" fill="white"/>
<path d="M160.14 10.346L159.638 10.4706L160.952 15.7712L161.455 15.6466L160.14 10.346Z" fill="white"/>
<path d="M162.897 9.69574L162.393 9.81152L163.615 15.1344L164.119 15.0186L162.897 9.69574Z" fill="white"/>
<path d="M165.638 9.12512L165.131 9.23206L166.26 14.575L166.766 14.4681L165.638 9.12512Z" fill="white"/>
<path d="M168.385 8.54156L167.877 8.63965L168.912 14.0016L169.42 13.9035L168.385 8.54156Z" fill="white"/>
<path d="M171.136 8.0166L170.627 8.10583L171.568 13.4851L172.078 13.3959L171.136 8.0166Z" fill="white"/>
<path d="M173.89 7.56102L173.379 7.64136L174.227 13.0364L174.738 12.956L173.89 7.56102Z" fill="white"/>
<path d="M176.644 7.16336L176.132 7.23474L176.885 12.6438L177.398 12.5725L176.644 7.16336Z" fill="white"/>
<path d="M179.44 6.8205L178.926 6.88293L179.585 12.3039L180.099 12.2415L179.44 6.8205Z" fill="white"/>
<path d="M182.195 6.54899L181.681 6.60242L182.245 12.0342L182.759 11.9808L182.195 6.54899Z" fill="white"/>
<path d="M185.006 6.254L184.49 6.29846L184.96 11.7394L185.475 11.695L185.006 6.254Z" fill="white"/>
<path d="M187.818 6.02645L187.301 6.06189L187.675 11.5104L188.192 11.4749L187.818 6.02645Z" fill="white"/>
<path d="M190.612 5.85945L190.096 5.88586L190.375 11.3397L190.891 11.3133L190.612 5.85945Z" fill="white"/>
<path d="M193.37 5.75199L192.853 5.76941L193.037 11.2275L193.554 11.2101L193.37 5.75199Z" fill="white"/>
<path d="M196.165 5.70072L195.648 5.70911L195.737 11.1693L196.254 11.1609L196.165 5.70072Z" fill="white"/>
<path d="M198.982 5.70657L198.465 5.70593L198.458 11.1671L198.975 11.1677L198.982 5.70657Z" fill="white"/>
<path d="M201.296 5.71635L201.193 11.1763L201.71 11.186L201.813 5.72606L201.296 5.71635Z" fill="white"/>
<path d="M204.081 5.76662L203.882 11.2242L204.399 11.2431L204.598 5.78548L204.081 5.76662Z" fill="white"/>
<path d="M206.874 5.88366L206.58 11.3368L207.096 11.3647L207.391 5.91158L206.874 5.88366Z" fill="white"/>
<path d="M209.673 6.03877L209.287 11.4863L209.803 11.5228L210.189 6.07527L209.673 6.03877Z" fill="white"/>
<path d="M212.48 6.24819L211.998 11.688L212.514 11.7336L212.995 6.29379L212.48 6.24819Z" fill="white"/>
<path d="M215.233 6.5491L214.655 11.9795L215.169 12.0342L215.747 6.60385L215.233 6.5491Z" fill="white"/>
<path d="M218.039 6.847L217.366 12.2664L217.88 12.3301L218.553 6.91076L218.039 6.847Z" fill="white"/>
<path d="M220.798 7.23004L220.029 12.6367L220.541 12.7096L221.31 7.3029L220.798 7.23004Z" fill="white"/>
<path d="M223.575 7.60733L222.714 13.0002L223.225 13.0817L224.085 7.68883L223.575 7.60733Z" fill="white"/>
<path d="M226.354 8.06934L225.397 13.4463L225.907 13.5369L226.863 8.15999L226.354 8.06934Z" fill="white"/>
<path d="M229.102 8.5915L228.055 13.9514L228.563 14.0506L229.61 8.69069L229.102 8.5915Z" fill="white"/>
<path d="M231.834 9.15156L230.691 14.4917L231.197 14.5999L232.34 9.2598L231.834 9.15156Z" fill="white"/>
<path d="M234.539 9.74L233.306 15.0598L233.81 15.1766L235.043 9.85682L234.539 9.74Z" fill="white"/>
<path d="M237.31 10.412L235.981 15.7094L236.483 15.8352L237.812 10.5379L237.31 10.412Z" fill="white"/>
<path d="M240.021 11.0937L238.601 16.3668L239.101 16.5013L240.521 11.2282L240.021 11.0937Z" fill="white"/>
<path d="M242.683 11.8314L241.171 17.0793L241.669 17.2225L243.18 11.9746L242.683 11.8314Z" fill="white"/>
<path d="M245.386 12.6213L243.785 17.8424L244.279 17.9941L245.881 12.7731L245.386 12.6213Z" fill="white"/>
<path d="M248.025 13.4926L246.333 18.6852L246.825 18.8454L248.517 13.6529L248.025 13.4926Z" fill="white"/>
<path d="M250.742 14.3608L248.959 19.5227L249.448 19.6917L251.231 14.5298L250.742 14.3608Z" fill="white"/>
<path d="M253.383 15.3197L251.51 20.4492L251.996 20.6267L253.869 15.4972L253.383 15.3197Z" fill="white"/>
<path d="M255.969 16.2571L254.005 21.3531L254.488 21.5392L256.451 16.4431L255.969 16.2571Z" fill="white"/>
<path d="M258.585 17.324L256.53 22.3839L257.01 22.5786L259.064 17.5186L258.585 17.324Z" fill="white"/>
<path d="M261.145 18.4021L259.006 23.427L259.482 23.6296L261.621 18.6047L261.145 18.4021Z" fill="white"/>
<path d="M263.708 19.5069L261.478 24.4918L261.95 24.7031L264.18 19.7182L263.708 19.5069Z" fill="white"/>
<path d="M266.272 20.6531L263.957 25.5991L264.426 25.8184L266.741 20.8724L266.272 20.6531Z" fill="white"/>
<path d="M268.82 21.8702L266.419 26.7751L266.883 27.0026L269.285 22.0977L268.82 21.8702Z" fill="white"/>
<path d="M271.324 23.0983L268.837 27.9606L269.298 28.1962L271.785 23.3339L271.324 23.0983Z" fill="white"/>
<path d="M273.787 24.4161L271.215 29.234L271.672 29.4776L274.243 24.6597L273.787 24.4161Z" fill="white"/>
<path d="M276.259 25.7192L273.609 30.4939L274.061 30.745L276.712 25.9703L276.259 25.7192Z" fill="white"/>
<path d="M278.718 27.146L275.981 31.8719L276.429 32.1312L279.165 27.4052L278.718 27.146Z" fill="white"/>
<path d="M281.117 28.559L278.301 33.2379L278.744 33.5048L281.561 28.8258L281.117 28.559Z" fill="white"/>
<path d="M283.494 30.0129L280.593 34.6393L281.031 34.9142L283.933 30.2878L283.494 30.0129Z" fill="white"/>
<path d="M285.898 31.4873L282.917 36.0634L283.351 36.3458L286.332 31.7697L285.898 31.4873Z" fill="white"/>
<path d="M288.212 33.0212L285.151 37.5442L285.58 37.8341L288.64 33.3112L288.212 33.0212Z" fill="white"/>
<path d="M290.49 34.632L287.354 39.1024L287.777 39.3995L290.914 34.9291L290.49 34.632Z" fill="white"/>
<path d="M292.776 36.2633L289.56 40.6763L289.978 40.981L293.194 36.568L292.776 36.2633Z" fill="white"/>
<path d="M295.041 37.9526L291.75 42.3109L292.163 42.6227L295.454 38.2644L295.041 37.9526Z" fill="white"/>
<path d="M297.27 39.6703L293.904 43.9706L294.311 44.2895L297.677 39.9892L297.27 39.6703Z" fill="white"/>
<path d="M299.443 41.3535L296.002 45.5947L296.404 45.9206L299.844 41.6794L299.443 41.3535Z" fill="white"/>
<path d="M301.635 43.1371L298.119 47.316L298.515 47.6491L302.031 43.4703L301.635 43.1371Z" fill="white"/>
<path d="M303.743 44.9726L300.155 49.0897L300.545 49.4297L304.133 45.3126L303.743 44.9726Z" fill="white"/>
<path d="M305.863 46.834L302.205 50.8888L302.589 51.2354L306.247 47.1806L305.863 46.834Z" fill="white"/>
<path d="M307.902 48.7163L304.174 52.707L304.552 53.0602L308.28 49.0695L307.902 48.7163Z" fill="white"/>
<path d="M309.933 50.6336L306.136 54.5593L306.508 54.919L310.305 50.9933L309.933 50.6336Z" fill="white"/>
<path d="M311.96 52.6148L308.094 56.4716L308.459 56.8379L312.326 52.9811L311.96 52.6148Z" fill="white"/>
<path d="M313.928 54.6044L309.993 58.3912L310.352 58.764L314.287 54.9772L313.928 54.6044Z" fill="white"/>
<path d="M315.874 56.6328L311.874 60.3513L312.227 60.7303L316.226 57.0118L315.874 56.6328Z" fill="white"/>
<path d="M317.712 58.7078L313.648 62.3563L313.994 62.7413L318.057 59.0928L317.712 58.7078Z" fill="white"/>
<path d="M319.606 60.7923L315.48 64.3702L315.819 64.7611L319.945 61.1832L319.606 60.7923Z" fill="white"/>
<path d="M321.412 62.9048L317.225 66.4106L317.557 66.8074L321.744 63.3016L321.412 62.9048Z" fill="white"/>
<path d="M323.16 65.0831L318.911 68.5129L319.235 68.9155L323.485 65.4857L323.16 65.0831Z" fill="white"/>
<path d="M324.9 67.2583L320.592 70.6138L320.91 71.022L325.218 67.6665L324.9 67.2583Z" fill="white"/>
<path d="M326.595 69.4613L322.228 72.7413L322.539 73.155L326.906 69.875L326.595 69.4613Z" fill="white"/>
<path d="M328.314 71.7377L323.893 74.944L324.196 75.3628L328.617 72.1566L328.314 71.7377Z" fill="white"/>
<path d="M329.935 74.0128L325.457 77.1382L325.753 77.5624L330.232 74.4371L329.935 74.0128Z" fill="white"/>
<path d="M331.514 76.2963L326.983 79.3457L327.272 79.7749L331.803 76.7255L331.514 76.2963Z" fill="white"/>
<path d="M333.051 78.6443L328.468 81.6139L328.749 82.0481L333.332 79.0785L333.051 78.6443Z" fill="white"/>
<path d="M334.576 81.0339L329.943 83.9242L330.217 84.3632L334.85 81.4728L334.576 81.0339Z" fill="white"/>
<path d="M336.064 83.4422L331.378 86.2473L331.644 86.6912L336.33 83.8862L336.064 83.4422Z" fill="white"/>
<path d="M337.459 85.8515L332.726 88.5757L332.984 89.0241L337.717 86.2999L337.459 85.8515Z" fill="white"/>
<path d="M338.833 88.2361L334.052 90.875L334.302 91.328L339.083 88.689L338.833 88.2361Z" fill="white"/>
<path d="M340.191 90.7241L335.367 93.2832L335.609 93.7402L340.434 91.1811L340.191 90.7241Z" fill="white"/>
<path d="M341.492 93.1815L336.624 95.6565L336.858 96.1177L341.726 93.6427L341.492 93.1815Z" fill="white"/>
<path d="M342.722 95.7348L337.811 98.124L338.037 98.5893L342.948 96.2001L342.722 95.7348Z" fill="white"/>
<path d="M343.928 98.2262L338.976 100.529L339.194 100.998L344.146 98.6953L343.928 98.2262Z" fill="white"/>
<path d="M345.117 100.793L340.127 103.011L340.337 103.484L345.328 101.266L345.117 100.793Z" fill="white"/>
<path d="M346.229 103.362L341.199 105.489L341.4 105.965L346.43 103.839L346.229 103.362Z" fill="white"/>
<path d="M347.285 105.941L342.22 107.983L342.414 108.463L347.479 106.421L347.285 105.941Z" fill="white"/>
<path d="M348.331 108.504L343.23 110.455L343.415 110.939L348.515 108.988L348.331 108.504Z" fill="white"/>
<path d="M349.253 111.154L344.118 113.015L344.295 113.502L349.429 111.641L349.253 111.154Z" fill="white"/>
<path d="M350.195 113.782L345.029 115.552L345.197 116.041L350.363 114.271L350.195 113.782Z" fill="white"/>
<path d="M351.147 116.462L345.95 118.141L346.109 118.634L351.306 116.955L351.147 116.462Z" fill="white"/>
<path d="M351.958 119.105L346.733 120.694L346.884 121.189L352.109 119.6L351.958 119.105Z" fill="white"/>
<path d="M352.775 121.78L347.523 123.278L347.665 123.775L352.916 122.277L352.775 121.78Z" fill="white"/>
<path d="M353.468 124.48L348.191 125.886L348.324 126.386L353.601 124.98L353.468 124.48Z" fill="white"/>
<path d="M354.209 127.233L348.908 128.548L349.033 129.051L354.334 127.735L354.209 127.233Z" fill="white"/>
<path d="M354.809 129.925L349.486 131.145L349.602 131.649L354.925 130.429L354.809 129.925Z" fill="white"/>
<path d="M355.465 132.65L350.122 133.779L350.229 134.285L355.572 133.156L355.465 132.65Z" fill="white"/>
<path d="M356.019 135.41L350.656 136.445L350.754 136.953L356.117 135.918L356.019 135.41Z" fill="white"/>
<path d="M356.553 138.157L351.174 139.101L351.263 139.61L356.642 138.667L356.553 138.157Z" fill="white"/>
<path d="M356.993 140.919L351.598 141.766L351.678 142.277L357.073 141.43L356.993 140.919Z" fill="white"/>
<path d="M357.406 143.736L351.997 144.491L352.069 145.004L357.477 144.248L357.406 143.736Z" fill="white"/>
<path d="M357.748 146.484L352.327 147.143L352.389 147.657L357.81 146.997L357.748 146.484Z" fill="white"/>
<path d="M358.112 149.27L352.681 149.834L352.734 150.349L358.166 149.784L358.112 149.27Z" fill="white"/>
<path d="M358.347 152.027L352.906 152.496L352.95 153.011L358.391 152.543L358.347 152.027Z" fill="white"/>
<path d="M358.588 154.835L353.139 155.207L353.175 155.723L358.623 155.352L358.588 154.835Z" fill="white"/>
<path d="M358.759 157.638L353.305 157.919L353.331 158.436L358.785 158.155L358.759 157.638Z" fill="white"/>
<path d="M358.888 160.449L353.43 160.634L353.448 161.151L358.906 160.966L358.888 160.449Z" fill="white"/>
<path d="M358.925 163.247L353.465 163.337L353.473 163.854L358.933 163.764L358.925 163.247Z" fill="white"/>
<path d="M358.424 166.579L353.538 166.573L353.539 165.998L359 166.005C358.942 166.349 358.712 166.579 358.424 166.579Z" fill="white"/>
<path d="M336.411 163.792L336.412 162.815L339.574 162.818C339.919 162.819 340.321 162.819 340.781 162.877C340.781 162.877 340.666 162.82 340.551 162.705C340.436 162.59 340.207 162.359 339.862 162.072L340.495 161.497L341.815 162.936L341.814 163.856L336.411 163.849L336.411 163.792Z" fill="white"/>
<path d="M341.926 166.385C341.926 166.788 341.81 167.133 341.58 167.42C341.35 167.649 341.005 167.821 340.602 167.821C340.373 167.821 340.143 167.763 339.913 167.648C339.683 167.532 339.511 167.302 339.339 167.072C339.108 167.417 338.878 167.589 338.648 167.761C338.418 167.876 338.13 167.933 337.901 167.932C337.441 167.932 337.096 167.817 336.809 167.529C336.522 167.241 336.407 166.896 336.408 166.436C336.408 165.976 336.524 165.574 336.811 165.344C337.042 165.057 337.444 164.943 337.904 164.943C338.192 164.944 338.479 165.001 338.709 165.117C338.939 165.232 339.168 165.462 339.34 165.75C339.571 165.52 339.743 165.29 339.973 165.176C340.203 165.061 340.433 165.004 340.663 165.004C341.066 165.005 341.411 165.12 341.64 165.408C341.755 165.638 341.927 165.983 341.926 166.385ZM337.846 165.863C337.616 165.863 337.443 165.92 337.328 165.977C337.213 166.092 337.155 166.207 337.155 166.379C337.155 166.552 337.212 166.724 337.327 166.782C337.442 166.897 337.614 166.897 337.844 166.898C338.017 166.898 338.132 166.841 338.304 166.783C338.419 166.726 338.592 166.554 338.765 166.381L338.822 166.324C338.707 166.151 338.593 166.036 338.42 165.979C338.248 165.921 338.075 165.863 337.846 165.863ZM341.122 166.384C341.122 166.269 341.064 166.154 340.95 166.039C340.835 165.982 340.72 165.924 340.49 165.924C340.317 165.923 340.202 165.981 340.087 166.038C339.972 166.096 339.857 166.21 339.684 166.383C339.799 166.555 339.914 166.67 340.086 166.728C340.201 166.786 340.374 166.843 340.546 166.844C340.891 166.844 341.121 166.672 341.122 166.384Z" fill="white"/>
<path d="M339.103 171.383C338.125 171.382 337.436 171.266 336.976 171.035C336.517 170.805 336.345 170.402 336.345 169.885C336.346 169.368 336.576 168.966 337.036 168.736C337.497 168.507 338.187 168.393 339.164 168.394C340.141 168.395 340.831 168.511 341.29 168.741C341.75 168.972 341.979 169.375 341.979 169.892C341.978 170.409 341.748 170.811 341.345 171.041C340.827 171.27 340.08 171.384 339.103 171.383ZM339.105 169.429C338.358 169.428 337.84 169.484 337.553 169.542C337.265 169.599 337.15 169.714 337.15 169.886C337.15 170.001 337.207 170.116 337.322 170.174C337.437 170.231 337.609 170.289 337.897 170.347C338.184 170.405 338.587 170.405 339.104 170.406C339.851 170.407 340.369 170.35 340.656 170.293C340.944 170.236 341.059 170.121 341.059 169.891C341.059 169.718 340.944 169.603 340.657 169.545C340.37 169.488 339.852 169.429 339.105 169.429Z" fill="white"/>
<path d="M333.91 139.932L333.739 138.955L336.902 138.384C337.247 138.327 337.649 138.27 338.109 138.213C338.109 138.213 337.994 138.155 337.879 138.04C337.764 137.925 337.477 137.752 337.075 137.522L337.593 136.832L339.144 138.042L339.315 138.904L333.91 139.932Z" fill="white"/>
<path d="M334.139 141.37L338.852 142.066L338.509 140.226L339.372 140.054L339.886 142.929L339.196 143.043L334.368 142.405L334.139 141.37Z" fill="white"/>
<path d="M337.869 146.893C336.892 147.064 336.202 147.063 335.685 146.89C335.225 146.717 334.938 146.372 334.824 145.855C334.709 145.337 334.882 144.935 335.285 144.648C335.688 144.361 336.378 144.132 337.298 143.961C338.275 143.789 338.965 143.79 339.482 143.963C339.942 144.136 340.229 144.482 340.343 144.942C340.458 145.459 340.285 145.861 339.882 146.148C339.594 146.493 338.904 146.722 337.869 146.893ZM337.584 144.996C336.837 145.11 336.319 145.224 336.089 145.339C335.859 145.453 335.744 145.568 335.744 145.798C335.743 145.913 335.858 146.028 335.973 146.028C336.088 146.086 336.318 146.086 336.548 146.087C336.835 146.087 337.18 146.03 337.755 145.916C338.503 145.802 338.963 145.687 339.25 145.573C339.481 145.458 339.596 145.286 339.596 145.113C339.539 144.941 339.424 144.825 339.136 144.825C338.791 144.825 338.274 144.882 337.584 144.996Z" fill="white"/>
<path d="M327.328 116.814L326.984 115.894L329.975 114.805C330.32 114.691 330.665 114.576 331.125 114.462C331.068 114.462 331.01 114.404 330.838 114.346C330.665 114.289 330.378 114.173 329.976 114.001L330.379 113.254L332.103 114.176L332.389 115.038L327.328 116.814Z" fill="white"/>
<path d="M329.858 117.047C330.893 116.646 331.698 116.532 332.33 116.705C332.905 116.878 333.364 117.281 333.593 117.914C333.65 118.029 333.65 118.144 333.708 118.259C333.707 118.374 333.765 118.432 333.765 118.489L332.96 118.775C332.96 118.603 332.903 118.431 332.845 118.258C332.731 117.97 332.616 117.798 332.444 117.683C332.271 117.567 332.041 117.51 331.754 117.509C331.467 117.509 331.122 117.566 330.719 117.68L330.719 117.738C330.949 117.738 331.121 117.796 331.294 117.911C331.466 118.026 331.581 118.141 331.638 118.371C331.753 118.717 331.695 119.004 331.522 119.349C331.292 119.636 330.946 119.865 330.429 120.095C329.911 120.266 329.394 120.323 328.991 120.208C328.589 120.092 328.302 119.804 328.13 119.344C327.958 118.884 328.016 118.482 328.304 118.08C328.592 117.62 329.11 117.334 329.858 117.047ZM328.935 118.943C328.993 119.058 329.108 119.173 329.28 119.173C329.452 119.231 329.74 119.174 330.028 119.059C330.315 118.945 330.488 118.83 330.603 118.715C330.718 118.6 330.776 118.428 330.718 118.313C330.661 118.198 330.546 118.083 330.374 118.082C330.201 118.025 330.029 118.082 329.799 118.139C329.454 118.254 329.224 118.368 329.051 118.541C328.936 118.656 328.878 118.828 328.935 118.943Z" fill="white"/>
<path d="M332.436 123.028C331.516 123.372 330.826 123.486 330.309 123.428C329.792 123.37 329.505 123.082 329.275 122.565C329.103 122.047 329.161 121.645 329.507 121.3C329.852 120.956 330.485 120.612 331.405 120.268C332.325 119.924 333.015 119.81 333.533 119.868C334.05 119.926 334.394 120.214 334.566 120.732C334.738 121.249 334.68 121.652 334.335 121.996C334.047 122.341 333.414 122.685 332.436 123.028ZM331.749 121.188C331.059 121.475 330.541 121.646 330.311 121.819C330.081 121.991 330.023 122.106 330.08 122.278C330.138 122.393 330.195 122.451 330.368 122.509C330.483 122.509 330.713 122.509 330.943 122.452C331.173 122.395 331.575 122.28 332.093 122.108C332.783 121.879 333.243 121.65 333.473 121.478C333.703 121.305 333.818 121.133 333.704 120.961C333.646 120.788 333.474 120.73 333.187 120.73C332.957 120.787 332.497 120.902 331.749 121.188Z" fill="white"/>
<path d="M316.777 95.1862L316.261 94.3233L319.022 92.7171C319.31 92.545 319.655 92.373 320.058 92.1435C320 92.1435 319.943 92.1434 319.77 92.0857C319.598 92.028 319.31 91.9702 318.851 91.8546L319.082 91.0501L320.978 91.6273L321.437 92.4327L316.777 95.1862Z" fill="white"/>
<path d="M321.089 95.8236C321.318 96.1688 321.318 96.5137 321.202 96.8584C321.087 97.2032 320.799 97.4903 320.396 97.7772C319.879 98.064 319.419 98.1784 318.959 98.0629C318.499 97.9473 318.155 97.6595 317.925 97.1993C317.696 96.7966 317.581 96.3941 317.582 96.0492L318.387 95.5903C318.387 95.7627 318.387 95.9352 318.444 96.1077C318.501 96.3377 318.558 96.5103 318.616 96.6253C318.903 97.0855 319.305 97.1435 319.823 96.8567C320.34 96.5699 320.456 96.2252 320.169 95.7649C320.054 95.5923 319.939 95.4197 319.767 95.2471L319.825 94.8447L322.298 93.6406L323.446 95.654L322.64 96.1129L321.895 94.8473L320.859 95.3634C320.859 95.5358 320.974 95.651 321.089 95.8236Z" fill="white"/>
<path d="M322.922 100.425C322.059 100.941 321.369 101.17 320.909 101.17C320.392 101.169 320.047 100.939 319.761 100.536C319.474 100.076 319.474 99.6157 319.762 99.2137C320.05 98.8116 320.568 98.3524 321.431 97.8361C322.294 97.3198 322.984 97.0907 323.444 97.0912C323.961 97.0919 324.306 97.3222 324.593 97.725C324.88 98.1852 324.879 98.5876 324.591 99.0472C324.361 99.4493 323.785 99.9085 322.922 100.425ZM321.947 98.699C321.314 99.1006 320.854 99.3875 320.681 99.5597C320.509 99.732 320.451 99.9043 320.508 100.077C320.566 100.192 320.681 100.25 320.796 100.25C320.911 100.25 321.141 100.193 321.371 100.078C321.601 99.9632 321.946 99.7912 322.406 99.5044C323.039 99.1027 323.499 98.8734 323.672 98.6436C323.902 98.4715 323.902 98.299 323.845 98.1265C323.73 97.9539 323.558 97.9537 323.328 98.0109C323.04 98.1255 322.58 98.3549 321.947 98.699Z" fill="white"/>
<path d="M302.66 75.7382L302.028 74.9901L304.503 72.9237C304.79 72.6941 305.078 72.4645 305.481 72.1776C305.423 72.1775 305.366 72.1774 305.193 72.1772C305.021 72.177 304.733 72.1767 304.274 72.1186L304.39 71.3139L306.344 71.5463L306.918 72.2368L302.66 75.7382Z" fill="white"/>
<path d="M306.278 78.2719L305.933 77.869L305.07 78.6153L304.439 77.8672L305.302 77.1209L304.154 75.7399L304.787 75.2233L308.525 74.2506L309.213 75.0563L306.566 77.295L306.911 77.6978L306.278 78.2719ZM305.935 76.5469L306.798 75.8006L307.201 75.5137L307.604 75.2268C307.316 75.3414 307.086 75.3986 306.856 75.4558L305.361 75.8563L305.935 76.5469Z" fill="white"/>
<path d="M309.61 79.8278C308.862 80.4593 308.229 80.8034 307.769 80.9178C307.309 81.0322 306.849 80.8592 306.505 80.4563C306.16 80.0535 306.103 79.5936 306.276 79.1914C306.449 78.7892 306.91 78.2149 307.715 77.5836C308.464 76.9521 309.096 76.608 309.614 76.4937C310.131 76.3793 310.534 76.5523 310.878 76.9551C311.222 77.3579 311.279 77.7604 311.106 78.2201C310.876 78.6222 310.415 79.1965 309.61 79.8278ZM308.347 78.3317C307.771 78.8483 307.369 79.1927 307.253 79.4225C307.081 79.6523 307.08 79.8247 307.195 79.9398C307.253 80.0549 307.368 80.055 307.54 80.0552C307.655 80.0554 307.828 79.9406 308.058 79.8259C308.288 79.6537 308.576 79.4242 308.978 79.0797C309.554 78.6206 309.899 78.2186 310.072 77.9889C310.245 77.7591 310.245 77.5867 310.13 77.4141C310.015 77.299 309.843 77.2413 309.555 77.4134C309.383 77.5281 308.922 77.815 308.347 78.3317Z" fill="white"/>
<path d="M285.377 59.0457L284.63 58.4124L286.703 55.9431C286.933 55.6559 287.221 55.3689 287.508 55.0818C287.451 55.0817 287.393 55.0816 287.221 55.1389C287.048 55.1387 286.761 55.1958 286.301 55.2528L286.245 54.3904L288.199 54.2778L288.888 54.8535L285.377 59.0457Z" fill="white"/>
<path d="M291.124 58.3039C290.894 58.591 290.664 58.7057 290.376 58.8203C290.088 58.8775 289.801 58.8771 289.514 58.7043C289.743 58.992 289.858 59.2221 289.858 59.5095C289.857 59.7969 289.742 60.0842 289.512 60.3714C289.166 60.7733 288.821 60.9454 288.361 61.0023C287.959 61.0018 287.499 60.8863 287.097 60.5408C286.753 60.253 286.466 59.9077 286.351 59.5627L286.927 58.8736C286.984 59.0461 287.099 59.2187 287.156 59.3912C287.271 59.5638 287.386 59.6789 287.5 59.794C287.73 59.9668 287.902 60.082 288.132 60.0822C288.305 60.0825 288.535 59.9678 288.708 59.738C289.053 59.3361 288.996 58.8761 288.479 58.4731L288.25 58.3003L288.71 57.726L288.94 57.8988C289.17 58.0715 289.399 58.1868 289.572 58.187C289.802 58.1873 289.974 58.0725 290.147 57.8428C290.262 57.6705 290.378 57.4982 290.32 57.3831C290.32 57.2107 290.263 57.0956 290.091 56.9804C289.861 56.8077 289.574 56.6924 289.229 56.7494L289.287 55.9447C289.805 55.8878 290.264 56.0609 290.724 56.4064C291.068 56.6942 291.298 57.0394 291.297 57.3843C291.47 57.672 291.354 58.0167 291.124 58.3039Z" fill="white"/>
<path d="M292.962 61.8146C292.328 62.5611 291.753 63.0203 291.293 63.1922C290.833 63.3641 290.373 63.306 289.971 62.9606C289.569 62.6152 289.397 62.2126 289.513 61.7529C289.628 61.2931 289.974 60.6612 290.607 59.9147C291.24 59.1681 291.816 58.709 292.276 58.5371C292.736 58.3652 293.196 58.4232 293.54 58.7686C293.942 59.114 294.114 59.5166 293.999 59.9763C293.998 60.4362 293.595 61.0681 292.962 61.8146ZM291.469 60.5481C290.951 61.1223 290.663 61.5243 290.547 61.8116C290.432 62.0414 290.432 62.2139 290.604 62.3291C290.719 62.3867 290.834 62.4443 290.949 62.387C291.064 62.3296 291.237 62.2149 291.409 62.0426C291.582 61.8704 291.87 61.5833 292.215 61.1813C292.676 60.6071 293.021 60.2051 293.136 59.9178C293.252 59.688 293.252 59.4581 293.137 59.3429C293.022 59.2278 292.792 59.2275 292.562 59.3997C292.275 59.6293 291.929 59.9738 291.469 60.5481Z" fill="white"/>
<path d="M265.503 45.5689L264.641 45.0505L266.254 42.2932C266.427 42.006 266.658 41.6613 266.888 41.2592C266.888 41.2592 266.773 41.3166 266.6 41.3738C266.428 41.4311 266.14 41.4882 265.68 41.6601L265.509 40.8551L267.406 40.3976L268.211 40.8585L265.503 45.5689Z" fill="white"/>
<path d="M268.949 47.5847L266.422 46.1444L266.825 45.5126L268.32 44.8246C268.723 44.6526 269.011 44.4805 269.241 44.3659C269.413 44.2511 269.586 44.1363 269.701 44.0215C269.816 43.9067 269.931 43.7344 270.047 43.6195C270.162 43.4472 270.162 43.2748 270.162 43.1598C270.162 43.0448 270.047 42.9297 269.933 42.8146C269.818 42.757 269.703 42.6993 269.588 42.6992C269.473 42.6991 269.243 42.7563 269.013 42.8135L268.841 42.0084C269.186 41.8939 269.531 41.8368 269.761 41.8371C269.991 41.8374 270.221 41.9527 270.451 42.0679C270.853 42.2984 271.083 42.5861 271.14 42.9311C271.197 43.276 271.139 43.6209 270.908 44.023C270.793 44.1953 270.678 44.3676 270.563 44.4825C270.448 44.5973 270.275 44.7695 270.102 44.8843C269.93 44.9991 269.757 45.1138 269.527 45.2285C269.297 45.3432 268.779 45.5725 267.917 45.9163L269.468 46.7805L268.949 47.5847Z" fill="white"/>
<path d="M273.434 47.0157C272.916 47.8773 272.455 48.4516 272.053 48.6811C271.65 48.968 271.19 48.9674 270.731 48.6794C270.271 48.3914 270.042 48.0462 270.1 47.5289C270.1 47.0116 270.389 46.3796 270.849 45.5179C271.368 44.6562 271.828 44.1394 272.231 43.8525C272.634 43.5656 273.094 43.5661 273.553 43.8541C274.013 44.1421 274.242 44.4873 274.184 45.0046C274.184 45.4645 273.895 46.154 273.434 47.0157ZM271.711 46.0363C271.308 46.6681 271.077 47.1278 271.02 47.4151C270.962 47.7025 270.962 47.8749 271.134 47.9326C271.249 47.9902 271.364 47.9904 271.479 47.933C271.594 47.8757 271.709 47.7034 271.882 47.5311C272.054 47.3014 272.227 46.9567 272.515 46.4972C272.919 45.8653 273.092 45.4057 273.207 45.1184C273.265 44.831 273.265 44.6586 273.093 44.6009C272.92 44.4857 272.748 44.543 272.575 44.7727C272.402 44.9449 272.114 45.4045 271.711 46.0363Z" fill="white"/>
<path d="M243.556 35.7695L242.636 35.4235L243.732 32.4356C243.848 32.0908 244.02 31.7461 244.193 31.3439C244.193 31.3439 244.078 31.4013 243.963 31.5161C243.791 31.5734 243.561 31.7455 243.101 31.9174L242.757 31.1697L244.597 30.4247L245.459 30.7131L243.556 35.7695Z" fill="white"/>
<path d="M246.83 36.9806L245.911 36.6346L247.007 33.6466C247.122 33.3019 247.295 32.9572 247.468 32.555C247.468 32.555 247.353 32.6123 247.238 32.7272C247.065 32.7844 246.835 32.9566 246.375 33.1285L246.031 32.3808L247.872 31.6357L248.734 31.9242L246.83 36.9806Z" fill="white"/>
<path d="M251.603 35.8365C251.257 36.7559 250.912 37.3878 250.566 37.7323C250.221 38.0768 249.761 38.1337 249.244 37.9606C248.727 37.7875 248.497 37.4423 248.383 36.9248C248.326 36.4073 248.442 35.7177 248.788 34.7983C249.134 33.879 249.48 33.2471 249.882 32.9026C250.285 32.5582 250.688 32.5012 251.147 32.6743C251.665 32.8474 251.894 33.1925 252.008 33.6526C252.065 34.17 251.949 34.9172 251.603 35.8365ZM249.765 35.1444C249.476 35.8339 249.361 36.3511 249.303 36.6385C249.303 36.9259 249.36 37.0984 249.532 37.1561C249.647 37.2138 249.762 37.1564 249.877 37.0991C249.992 37.0417 250.107 36.8694 250.223 36.6396C250.338 36.4098 250.511 36.0076 250.684 35.548C250.915 34.8584 251.088 34.3413 251.088 34.0538C251.089 33.7664 251.031 33.5939 250.859 33.5362C250.687 33.4785 250.514 33.5358 250.341 33.7655C250.226 33.9953 249.996 34.4549 249.765 35.1444Z" fill="white"/>
<path d="M220.223 29.9345L219.246 29.7608L219.825 26.5998C219.883 26.255 219.998 25.8527 220.114 25.4505C220.114 25.4505 219.999 25.5078 219.884 25.6226C219.769 25.7375 219.481 25.9096 219.136 26.1966L218.677 25.5062L220.345 24.416L221.207 24.5895L220.223 29.9345Z" fill="white"/>
<path d="M224.71 27.9855C224.536 28.9626 224.305 29.6521 223.96 29.9966C223.672 30.3987 223.212 30.5131 222.694 30.4549C222.177 30.3393 221.833 30.0515 221.718 29.5914C221.546 29.1313 221.605 28.3841 221.778 27.4071C221.952 26.43 222.183 25.7405 222.528 25.3385C222.816 24.9365 223.276 24.7646 223.736 24.8801C224.253 24.9957 224.598 25.2261 224.712 25.7436C224.884 26.2612 224.883 27.0085 224.71 27.9855ZM222.755 27.6382C222.64 28.3854 222.581 28.9027 222.581 29.1901C222.581 29.4775 222.696 29.5927 222.868 29.6504C222.983 29.6505 223.098 29.6506 223.156 29.5357C223.271 29.4209 223.328 29.2485 223.386 29.0186C223.444 28.7888 223.559 28.3865 223.617 27.8692C223.733 27.122 223.791 26.6047 223.792 26.3173C223.792 26.0299 223.677 25.8573 223.505 25.8571C223.333 25.7994 223.16 25.9141 223.045 26.2014C223.044 26.3739 222.929 26.8911 222.755 27.6382Z" fill="white"/>
<path d="M228.158 28.6219C227.984 29.5989 227.753 30.2885 227.408 30.633C227.12 31.035 226.66 31.1494 226.143 31.0913C225.626 30.9757 225.281 30.6878 225.167 30.2278C224.995 29.7677 225.053 29.0205 225.227 28.0434C225.4 27.0664 225.631 26.3768 225.977 25.9749C226.265 25.5728 226.725 25.4009 227.184 25.5165C227.702 25.6321 228.046 25.8624 228.161 26.38C228.39 26.8976 228.332 27.5874 228.158 28.6219ZM226.261 28.2746C226.145 29.0218 226.087 29.5391 226.087 29.8265C226.086 30.114 226.201 30.2291 226.374 30.2868C226.489 30.2869 226.604 30.2871 226.661 30.1722C226.776 30.0573 226.834 29.8849 226.892 29.6551C226.95 29.4252 227.065 29.0229 227.123 28.5056C227.239 27.7585 227.297 27.2412 227.298 26.9537C227.298 26.6663 227.183 26.4937 227.011 26.4935C226.838 26.4358 226.666 26.5506 226.55 26.8378C226.493 27.0102 226.377 27.5275 226.261 28.2746Z" fill="white"/>
<path d="M197.803 30.1948C197.797 34.7936 196.242 37.0336 193.196 37.0299C192.678 37.0292 192.276 36.9713 191.931 36.9133L191.933 35.0738C192.278 35.1892 192.623 35.2471 192.968 35.2475C193.888 35.2487 194.578 34.9621 195.038 34.3303C195.499 33.6986 195.788 32.7217 195.847 31.3421L195.789 31.342C195.616 31.7442 195.386 32.0888 195.041 32.3183C194.696 32.5478 194.351 32.6624 193.891 32.6618C193.086 32.6608 192.454 32.3151 191.995 31.6822C191.536 30.9918 191.307 30.1293 191.308 28.9796C191.31 27.7149 191.599 26.6805 192.174 25.9914C192.75 25.2448 193.555 24.9008 194.533 24.902C195.567 24.9033 196.429 25.3643 196.945 26.2847C197.519 27.1477 197.805 28.4702 197.803 30.1948ZM194.53 26.7416C194.185 26.7412 193.955 26.9133 193.725 27.258C193.552 27.6027 193.436 28.1774 193.435 28.9247C193.435 29.557 193.492 30.017 193.664 30.3621C193.836 30.7072 194.065 30.88 194.41 30.8804C194.698 30.8808 194.985 30.7087 195.216 30.364C195.446 30.0194 195.562 29.6171 195.562 29.1573C195.563 28.4674 195.449 27.8924 195.277 27.4323C195.105 26.9722 194.875 26.742 194.53 26.7416Z" fill="white"/>
<path d="M205.562 31.0086C205.56 33.1356 205.27 34.6873 204.752 35.6639C204.233 36.6406 203.428 37.0995 202.278 37.098C201.128 37.0966 200.324 36.6357 199.808 35.6578C199.292 34.6799 199.064 33.1276 199.067 31.0006C199.069 28.8736 199.358 27.3219 199.877 26.3452C200.396 25.3686 201.201 24.9097 202.351 24.9112C203.5 24.9126 204.305 25.3734 204.821 26.3513C205.28 27.2142 205.565 28.8241 205.562 31.0086ZM201.251 31.0033C201.249 32.6704 201.305 33.7627 201.477 34.3377C201.591 34.9127 201.878 35.2005 202.281 35.201C202.568 35.2014 202.741 35.0866 202.913 34.7994C203.086 34.5697 203.144 34.1098 203.26 33.5351C203.318 32.9603 203.377 32.0981 203.378 30.9484C203.38 29.3388 203.324 28.189 203.152 27.614C202.98 27.0389 202.751 26.6937 202.349 26.6932C201.946 26.6927 201.658 26.9798 201.543 27.5545C201.312 28.244 201.253 29.3362 201.251 31.0033Z" fill="white"/>
<path d="M171.825 25.2173C172.228 25.1603 172.572 25.2182 172.86 25.391C173.147 25.5638 173.319 25.9089 173.376 26.3114C173.433 26.5414 173.375 26.8288 173.318 27.0012C173.26 27.231 173.087 27.4608 172.857 27.6904C173.202 27.8633 173.489 28.0361 173.661 28.2663C173.833 28.4964 173.948 28.7265 174.005 29.014C174.062 29.474 174.004 29.8188 173.774 30.1634C173.543 30.4506 173.198 30.6801 172.796 30.7371C172.336 30.794 171.933 30.736 171.646 30.5632C171.359 30.3329 171.129 30.0452 171.072 29.5853C171.015 29.2978 171.016 29.0103 171.131 28.723C171.246 28.4358 171.362 28.206 171.649 27.9764C171.362 27.8036 171.132 27.6308 171.018 27.4582C170.845 27.2855 170.788 27.0555 170.731 26.768C170.674 26.3656 170.732 26.0207 170.962 25.7336C171.077 25.5038 171.423 25.3317 171.825 25.2173ZM171.939 26.0222C171.824 26.0221 171.709 26.1369 171.651 26.2518C171.594 26.3667 171.594 26.5392 171.593 26.7116C171.593 26.8841 171.65 26.9991 171.765 27.1142C171.823 27.2293 171.995 27.3445 172.167 27.4596C172.282 27.2873 172.398 27.1725 172.455 27.0001C172.513 26.8852 172.513 26.7127 172.456 26.5402C172.399 26.1377 172.227 25.9651 171.939 26.0222ZM171.992 29.3564C172.05 29.5865 172.107 29.759 172.222 29.8741C172.337 29.9892 172.452 30.0468 172.624 29.9896C172.797 29.9323 172.912 29.875 172.969 29.7026C173.027 29.5877 173.027 29.3577 173.027 29.1853C173.028 29.0128 172.913 28.8977 172.855 28.7827C172.741 28.6675 172.568 28.5524 172.339 28.3796L172.281 28.3221C172.166 28.4944 172.051 28.6092 171.993 28.7816C171.935 28.954 171.935 29.1264 171.992 29.3564Z" fill="white"/>
<path d="M177.227 27.1218C177.398 28.0993 177.397 28.7891 177.224 29.3063C177.051 29.766 176.706 30.053 176.188 30.1673C175.671 30.2816 175.269 30.1087 174.982 29.7059C174.695 29.3032 174.466 28.6131 174.294 27.6931C174.123 26.7156 174.124 26.0258 174.297 25.5086C174.47 25.0489 174.815 24.7619 175.275 24.6475C175.793 24.5332 176.195 24.7062 176.482 25.1089C176.826 25.4543 177.056 26.1444 177.227 27.1218ZM175.272 27.4643C175.386 28.2118 175.5 28.7293 175.615 28.9594C175.73 29.1895 175.844 29.3046 176.074 29.3049C176.189 29.305 176.304 29.1902 176.305 29.0752C176.362 28.9603 176.363 28.7304 176.363 28.5004C176.363 28.213 176.306 27.868 176.192 27.293C176.078 26.5456 175.963 26.0855 175.849 25.798C175.734 25.5679 175.562 25.4527 175.389 25.4525C175.217 25.5098 175.102 25.6246 175.101 25.912C175.101 26.1994 175.158 26.7169 175.272 27.4643Z" fill="white"/>
<path d="M148.585 37.5483L148.476 32.7769L146.693 33.407L146.407 32.5444L149.167 31.5705L149.396 32.2032L149.62 37.1472L148.585 37.5483Z" fill="white"/>
<path d="M153.419 32.956C153.763 33.8762 153.877 34.5662 153.819 35.0835C153.761 35.6008 153.473 35.8879 152.956 36.1172C152.438 36.289 152.036 36.231 151.691 35.8857C151.347 35.5403 151.003 34.9075 150.659 33.9874C150.315 33.0672 150.201 32.3772 150.259 31.8599C150.317 31.3426 150.605 30.998 151.123 30.8262C151.64 30.6544 152.043 30.7124 152.387 31.0577C152.732 31.3456 153.076 31.9783 153.419 32.956ZM151.579 33.5861C151.866 34.2763 152.038 34.7939 152.21 35.024C152.382 35.2542 152.497 35.3118 152.669 35.2545C152.784 35.1972 152.842 35.1398 152.9 34.9674C152.9 34.8524 152.9 34.6225 152.843 34.3924C152.786 34.1624 152.671 33.7599 152.499 33.2423C152.27 32.5522 152.041 32.092 151.869 31.8619C151.697 31.6317 151.524 31.5165 151.352 31.6313C151.179 31.6886 151.121 31.861 151.121 32.1484C151.178 32.4359 151.293 32.8959 151.579 33.5861Z" fill="white"/>
<path d="M126.097 46.2582C125.524 45.2802 125.295 44.5326 125.353 43.9004C125.411 43.2681 125.699 42.8086 126.332 42.4644C126.447 42.4071 126.505 42.3497 126.62 42.2923C126.735 42.235 126.792 42.2351 126.85 42.1776L127.251 42.9254C127.079 42.9827 126.906 43.04 126.791 43.1548C126.561 43.2695 126.388 43.4418 126.273 43.6716C126.158 43.8439 126.158 44.0738 126.215 44.3613C126.272 44.6488 126.387 44.9364 126.558 45.339L126.616 45.3391C126.616 45.1091 126.616 44.9367 126.674 44.7643C126.732 44.5919 126.904 44.4771 127.077 44.3624C127.365 44.1903 127.71 44.1907 128.054 44.3061C128.399 44.479 128.686 44.7668 128.973 45.227C129.26 45.7447 129.374 46.2048 129.316 46.6071C129.258 47.0094 129.028 47.354 128.625 47.5835C128.223 47.8129 127.763 47.8124 127.36 47.6394C126.901 47.4089 126.499 46.9485 126.097 46.2582ZM128.166 46.8356C128.281 46.7783 128.339 46.6059 128.339 46.4334C128.339 46.261 128.225 46.0309 128.053 45.6858C127.938 45.4557 127.766 45.283 127.593 45.1678C127.421 45.0526 127.306 45.0525 127.134 45.1672C127.019 45.2246 126.961 45.3395 126.961 45.5694C126.96 45.7419 127.018 45.9144 127.132 46.1445C127.304 46.4321 127.477 46.6623 127.649 46.7775C127.879 46.8927 128.051 46.893 128.166 46.8356Z" fill="white"/>
<path d="M131.506 42.6445C132.022 43.5074 132.252 44.1975 132.251 44.6574C132.25 45.1748 132.02 45.5194 131.617 45.8063C131.157 46.0932 130.697 46.0926 130.295 45.8047C129.893 45.5168 129.434 44.9988 128.917 44.1359C128.401 43.273 128.172 42.5829 128.173 42.123C128.173 41.6056 128.404 41.261 128.806 40.974C129.267 40.6872 129.669 40.6877 130.129 40.9757C130.588 41.2062 131.047 41.7816 131.506 42.6445ZM129.838 43.6197C130.239 44.2525 130.526 44.7127 130.699 44.8854C130.871 45.0581 131.043 45.1158 131.216 45.0585C131.331 45.0012 131.388 44.8863 131.389 44.7713C131.389 44.6563 131.332 44.4263 131.217 44.1962C131.102 43.9661 130.93 43.621 130.643 43.1608C130.242 42.5279 130.012 42.0678 129.783 41.895C129.61 41.6649 129.438 41.6647 129.265 41.7219C129.093 41.8367 129.093 42.0091 129.15 42.2392C129.207 42.5267 129.436 42.9868 129.838 43.6197Z" fill="white"/>
<path d="M106.364 59.055C106.652 58.7679 106.997 58.7109 107.399 58.7689C107.744 58.8268 108.088 59.0571 108.433 59.46C108.835 59.9203 109.007 60.3804 108.949 60.7828C108.948 61.2427 108.718 61.6448 108.315 61.9892C107.97 62.2762 107.624 62.4482 107.279 62.5053L106.648 61.7572C106.82 61.7574 106.993 61.7001 107.166 61.6429C107.338 61.5856 107.511 61.4708 107.683 61.3561C108.086 61.0117 108.087 60.6093 107.685 60.1489C107.34 59.6886 106.938 59.6306 106.535 59.975C106.363 60.0898 106.247 60.2621 106.132 60.4919L105.73 60.4914L104.123 58.3049L105.907 56.8125L106.481 57.503L105.387 58.4215L106.076 59.3421C106.134 59.2847 106.249 59.1698 106.364 59.055Z" fill="white"/>
<path d="M110.621 56.4161C111.252 57.1642 111.597 57.7969 111.711 58.257C111.825 58.717 111.652 59.1767 111.25 59.5211C110.847 59.8655 110.444 59.9225 109.985 59.7495C109.525 59.5764 109.008 59.1159 108.377 58.3103C107.745 57.5622 107.401 56.9295 107.287 56.412C107.173 55.8944 107.346 55.4923 107.748 55.1478C108.151 54.8034 108.554 54.7464 109.013 54.9195C109.415 55.1499 109.932 55.6104 110.621 56.4161ZM109.067 57.6788C109.584 58.2543 109.928 58.6572 110.101 58.7724C110.331 58.9451 110.503 58.9453 110.618 58.8305C110.733 58.7731 110.733 58.6582 110.733 58.4857C110.734 58.3707 110.619 58.1981 110.504 57.968C110.332 57.7379 110.102 57.4502 109.758 57.0474C109.299 56.4719 108.897 56.1265 108.667 55.9538C108.437 55.781 108.265 55.7808 108.092 55.8956C107.977 56.0104 107.92 56.1828 108.092 56.4704C108.321 56.7007 108.608 57.1034 109.067 57.6788Z" fill="white"/>
<path d="M91.9108 76.9132L91.5654 77.3152L92.4268 78.0636L91.7935 78.8101L90.9322 78.0617L89.7807 79.44L89.149 78.9218L87.5438 75.4132L88.2346 74.6093L90.8762 76.8545L91.2216 76.4525L91.9108 76.9132ZM90.3005 77.5436L89.4391 76.7952L89.0371 76.4498L88.6926 76.1044C88.8648 76.3346 88.9795 76.5647 89.0942 76.7948L89.7248 78.1752L90.3005 77.5436Z" fill="white"/>
<path d="M92.893 73.3505C93.6395 73.9837 94.0987 74.5592 94.2706 75.0193C94.4424 75.4794 94.3844 75.9392 94.039 76.3412C93.6936 76.7431 93.291 76.9151 92.8312 76.7995C92.3715 76.684 91.7396 76.3383 90.993 75.7051C90.2465 75.0718 89.7873 74.4964 89.6154 74.0363C89.4435 73.5762 89.5016 73.1164 89.8469 72.7719C90.1923 72.3699 90.595 72.1979 91.0547 72.3135C91.5146 72.314 92.1464 72.7172 92.893 73.3505ZM91.6264 74.8435C92.2006 75.3616 92.6027 75.6496 92.89 75.7649C93.1198 75.8801 93.2922 75.8803 93.4074 75.708C93.465 75.5931 93.5227 75.4782 93.4653 75.3632C93.408 75.2481 93.2932 75.0756 93.121 74.9029C92.9487 74.7302 92.6617 74.4424 92.2597 74.097C91.6854 73.6364 91.2834 73.291 90.9961 73.1757C90.7663 73.0604 90.5364 73.0601 90.4213 73.175C90.3062 73.2898 90.3059 73.5197 90.4781 73.7499C90.6502 73.9801 91.0521 74.383 91.6264 74.8435Z" fill="white"/>
<path d="M75.2188 95.5207C75.5061 95.6935 75.7357 95.9237 75.8504 96.1538C75.965 96.4414 75.9647 96.7288 75.9068 97.0162C76.1371 96.729 76.3672 96.6143 76.6547 96.5572C76.9422 96.5001 77.2296 96.5579 77.5743 96.7308C78.0339 96.9613 78.2634 97.3065 78.3779 97.7091C78.4923 98.1116 78.3768 98.5713 78.1463 99.0309C77.9158 99.4331 77.628 99.7776 77.3403 99.9497L76.5361 99.4888C76.7087 99.3741 76.8813 99.2593 76.9964 99.1445C77.169 99.0297 77.2842 98.8574 77.3419 98.685C77.5147 98.4553 77.5149 98.2254 77.5152 97.9954C77.4579 97.8229 77.3432 97.6503 77.056 97.4775C76.5964 97.1895 76.1938 97.3614 75.8482 97.9359L75.6754 98.2231L75.0435 97.8199L75.2163 97.5902C75.389 97.3605 75.3893 97.1305 75.3896 96.9006C75.3324 96.6705 75.2176 96.498 74.9878 96.3827C74.8155 96.2675 74.6431 96.2098 74.4706 96.2671C74.2981 96.3244 74.183 96.3817 74.1253 96.5541C74.0101 96.7839 73.9522 97.0712 74.0093 97.4162L73.2044 97.4727C73.0901 96.9552 73.1482 96.4954 73.4362 95.9784C73.6667 95.5763 73.9544 95.3467 74.2994 95.2321C74.5293 95.2899 74.8741 95.3478 75.2188 95.5207Z" fill="white"/>
<path d="M78.382 93.1081C79.2436 93.6265 79.8179 94.0871 80.0473 94.4898C80.3343 94.8925 80.3337 95.3524 80.0457 95.8119C79.7577 96.2715 79.4125 96.501 78.8952 96.4429C78.3778 96.4422 77.7458 96.154 76.8841 95.6931C76.0225 95.1746 75.5057 94.7141 75.2188 94.3114C74.9318 93.9086 74.9324 93.4487 75.2204 92.9892C75.5084 92.5297 75.8536 92.3001 76.3709 92.3583C76.8308 92.3588 77.5203 92.5896 78.382 93.1081ZM77.4026 94.7739C78.0345 95.1771 78.4941 95.4076 78.7814 95.4655C79.0688 95.5233 79.2413 95.5235 79.299 95.3511C79.3566 95.2362 79.3567 95.1213 79.2994 95.0062C79.242 94.8912 79.0697 94.776 78.8975 94.6033C78.6677 94.4306 78.323 94.2577 77.8635 93.9697C77.2317 93.5665 76.772 93.3935 76.4847 93.2782C76.1974 93.2203 76.0249 93.2201 75.9672 93.3925C75.852 93.5648 75.9093 93.7374 76.139 93.9101C76.3112 94.1402 76.7707 94.4282 77.4026 94.7739Z" fill="white"/>
<path d="M68.8666 119.37L67.886 122.128L67.1964 121.897L66.2209 120.516C65.934 120.113 65.7618 119.883 65.647 119.711C65.5323 119.538 65.3599 119.423 65.2451 119.308C65.1303 119.193 64.9579 119.135 64.7855 119.077C64.6131 119.019 64.4407 119.019 64.3257 119.019C64.2107 119.076 64.0955 119.191 64.0379 119.306C63.9803 119.421 63.9801 119.536 64.0374 119.709C64.0373 119.824 64.152 119.996 64.2667 120.226L63.519 120.57C63.347 120.225 63.2323 119.938 63.1751 119.708C63.1754 119.478 63.1758 119.19 63.291 118.96C63.464 118.558 63.6943 118.271 63.9819 118.099C64.327 117.984 64.6719 117.985 65.1316 118.1C65.304 118.158 65.4763 118.273 65.6487 118.388C65.821 118.504 65.9358 118.619 66.108 118.791C66.2803 118.964 66.395 119.137 66.5673 119.309C66.682 119.482 67.0263 120 67.4852 120.805L68.1196 119.139L68.8666 119.37Z" fill="white"/>
<path d="M67.5479 115.057C68.4673 115.403 69.0992 115.749 69.4436 116.151C69.7881 116.497 69.845 116.957 69.6719 117.474C69.4988 117.991 69.1536 118.221 68.6361 118.335C68.1187 118.392 67.429 118.276 66.5097 117.93C65.5903 117.584 64.9584 117.238 64.614 116.835C64.2696 116.432 64.2126 116.03 64.3856 115.57C64.5587 115.053 64.9039 114.824 65.3639 114.709C65.8814 114.595 66.5711 114.711 67.5479 115.057ZM66.8558 116.896C67.5453 117.184 68.0625 117.299 68.3499 117.357C68.6373 117.358 68.8099 117.3 68.8676 117.128C68.9252 117.013 68.8678 116.898 68.8105 116.783C68.7532 116.668 68.5808 116.553 68.351 116.437C68.1212 116.322 67.7191 116.149 67.2594 115.976C66.5698 115.745 66.0527 115.572 65.7652 115.572C65.4778 115.572 65.3053 115.629 65.2476 115.801C65.1899 115.974 65.2472 116.146 65.4769 116.319C65.7067 116.434 66.1663 116.665 66.8558 116.896Z" fill="white"/>
<path d="M62.6275 143.104L62.4538 144.081L59.2928 143.502C58.948 143.445 58.5457 143.329 58.1435 143.214C58.1435 143.214 58.2008 143.329 58.3157 143.444C58.4305 143.559 58.6026 143.847 58.8896 144.192L58.1992 144.651L57.109 142.982L57.2825 142.12L62.6275 143.104Z" fill="white"/>
<path d="M60.678 138.618C61.655 138.792 62.3446 139.022 62.6891 139.368C63.0911 139.656 63.2055 140.116 63.1474 140.633C63.0318 141.15 62.7439 141.495 62.2839 141.609C61.8238 141.781 61.0766 141.723 60.0995 141.549C59.1225 141.375 58.4329 141.144 58.031 140.799C57.6289 140.511 57.457 140.051 57.5726 139.591C57.6882 139.074 57.9185 138.729 58.4361 138.615C58.9536 138.443 59.701 138.444 60.678 138.618ZM60.3307 140.514C61.0779 140.63 61.5952 140.688 61.8826 140.689C62.1701 140.689 62.2852 140.574 62.3429 140.402C62.343 140.287 62.3432 140.172 62.2283 140.114C62.1134 139.999 61.941 139.942 61.7112 139.884C61.4813 139.826 61.079 139.711 60.5617 139.652C59.8146 139.537 59.2973 139.478 59.0098 139.478C58.7224 139.478 58.5498 139.592 58.5496 139.765C58.4919 139.937 58.6067 140.11 58.894 140.225C59.0663 140.283 59.5836 140.399 60.3307 140.514Z" fill="white"/>
<path d="M58.002 164.598C58.9792 164.599 59.6689 164.715 60.1285 164.945C60.5881 165.176 60.7601 165.578 60.7595 166.096C60.7588 166.613 60.5284 167.015 60.0682 167.245C59.608 167.474 58.9181 167.588 57.9408 167.587C56.9636 167.586 56.2739 167.47 55.8143 167.239C55.3547 167.009 55.1252 166.606 55.1259 166.089C55.1265 165.571 55.3569 165.169 55.7596 164.94C56.2773 164.711 56.9672 164.597 58.002 164.598ZM57.9996 166.552C58.7469 166.553 59.2643 166.496 59.5518 166.439C59.8393 166.382 59.9544 166.267 59.9547 166.095C59.9548 165.98 59.8975 165.865 59.7826 165.807C59.6677 165.75 59.4953 165.692 59.2079 165.634C58.9206 165.576 58.5182 165.576 58.0008 165.575C57.2535 165.574 56.736 165.631 56.4485 165.688C56.161 165.745 56.0459 165.86 56.0456 166.09C56.0454 166.262 56.1602 166.378 56.4476 166.435C56.735 166.493 57.2523 166.551 57.9996 166.552Z" fill="white"/>
<path d="M219.294 37.6942C219.696 37.7522 220.041 37.9251 220.213 38.2127C220.443 38.5004 220.5 38.8454 220.442 39.2477C220.384 39.4776 220.326 39.7075 220.153 39.8797C219.981 40.052 219.751 40.2241 219.463 40.3388C219.75 40.6265 219.922 40.8567 219.979 41.1442C220.094 41.3743 220.094 41.6617 220.036 41.9491C219.978 42.4089 219.748 42.696 219.46 42.9256C219.172 43.1552 218.77 43.2122 218.31 43.1541C217.85 43.0961 217.505 42.8657 217.276 42.578C217.046 42.2903 216.989 41.8878 217.047 41.428C217.105 41.1406 217.22 40.8534 217.393 40.6236C217.566 40.3939 217.796 40.2217 218.084 40.1071C217.854 39.8769 217.739 39.6468 217.625 39.4167C217.567 39.1867 217.568 38.9568 217.568 38.6693C217.626 38.267 217.799 37.9798 218.144 37.7503C218.489 37.6932 218.891 37.6362 219.294 37.6942ZM218.024 41.6592C217.966 41.889 218.024 42.0616 218.081 42.1766C218.138 42.2916 218.253 42.4068 218.426 42.407C218.598 42.4647 218.771 42.4074 218.886 42.2926C219.001 42.1777 219.059 42.0053 219.116 41.7755C219.117 41.603 219.117 41.4881 219.059 41.3155C219.002 41.143 218.887 40.9704 218.715 40.7977L218.658 40.7402C218.485 40.8549 218.313 40.9697 218.197 41.0845C218.14 41.2569 218.082 41.4293 218.024 41.6592ZM219.12 38.4988C219.005 38.4987 218.89 38.4985 218.775 38.6133C218.66 38.7282 218.603 38.8431 218.602 39.0155C218.602 39.188 218.602 39.303 218.602 39.4754C218.659 39.5905 218.716 39.763 218.889 39.9357C219.061 39.8209 219.176 39.7061 219.291 39.6487C219.349 39.5338 219.407 39.4189 219.464 39.2465C219.522 38.7867 219.408 38.5566 219.12 38.4988Z" fill="white"/>
<path d="M223.716 41.3214C223.542 42.2984 223.311 42.9879 222.966 43.3324C222.678 43.7345 222.218 43.8489 221.701 43.7908C221.183 43.6751 220.839 43.3873 220.725 42.9273C220.553 42.4672 220.611 41.7199 220.785 40.7429C220.958 39.7658 221.189 39.0763 221.535 38.6743C221.823 38.2723 222.283 38.1004 222.742 38.2159C223.26 38.3315 223.604 38.5619 223.719 39.0794C223.89 39.597 223.889 40.3443 223.716 41.3214ZM221.762 40.974C221.646 41.7212 221.588 42.2385 221.587 42.5259C221.587 42.8134 221.702 42.9285 221.874 42.9862C221.989 42.9863 222.104 42.9864 222.162 42.8715C222.277 42.7567 222.335 42.5843 222.392 42.3545C222.45 42.1246 222.566 41.7223 222.624 41.205C222.74 40.4579 222.798 39.9406 222.798 39.6531C222.798 39.3657 222.684 39.1931 222.511 39.1929C222.339 39.1352 222.166 39.25 222.051 39.5372C222.051 39.7672 221.935 40.2269 221.762 40.974Z" fill="white"/>
<path d="M238.309 48.0646L241.303 44.3317L239.522 43.6971L239.81 42.8352L242.569 43.8159L242.338 44.4479L239.286 48.4107L238.309 48.0646Z" fill="white"/>
<path d="M244.978 47.6129C244.632 48.5322 244.286 49.1641 243.883 49.5085C243.538 49.853 243.078 49.9099 242.561 49.7368C242.044 49.5637 241.814 49.2185 241.7 48.701C241.643 48.1836 241.759 47.4939 242.105 46.5746C242.451 45.6552 242.797 45.0233 243.2 44.6789C243.602 44.3345 244.005 44.2775 244.465 44.4505C244.982 44.6236 245.211 44.9688 245.326 45.4288C245.497 45.9464 245.324 46.636 244.978 47.6129ZM243.139 46.9207C242.851 47.6102 242.735 48.1274 242.678 48.4148C242.677 48.7022 242.735 48.8748 242.907 48.9325C243.022 48.9901 243.137 48.9327 243.252 48.8754C243.367 48.8181 243.482 48.6457 243.597 48.4159C243.713 48.1861 243.886 47.784 244.059 47.3243C244.289 46.6347 244.463 46.1176 244.463 45.8302C244.463 45.5427 244.406 45.3702 244.234 45.3125C244.061 45.2548 243.889 45.3121 243.716 45.5418C243.601 45.7716 243.428 46.2313 243.139 46.9207Z" fill="white"/>
<path d="M259.054 54.5865C259.63 53.61 260.148 53.0358 260.723 52.7491C261.298 52.4623 261.873 52.5205 262.448 52.8662C262.562 52.9238 262.62 52.9813 262.735 53.039C262.85 53.0966 262.907 53.1542 262.907 53.2116L262.504 53.9585C262.389 53.8433 262.217 53.7282 262.102 53.6705C261.872 53.5553 261.642 53.44 261.412 53.4972C261.182 53.4969 261.009 53.6117 260.779 53.7839C260.549 53.956 260.376 54.2433 260.089 54.5878L260.146 54.5879C260.319 54.4731 260.491 54.3584 260.664 54.3586C260.836 54.3588 261.009 54.359 261.181 54.4742C261.468 54.647 261.64 54.9346 261.697 55.2796C261.697 55.6245 261.581 56.0268 261.351 56.5439C261.063 57.0609 260.717 57.3479 260.315 57.5199C259.912 57.6918 259.51 57.6338 259.108 57.4034C258.706 57.173 258.476 56.8278 258.477 56.3104C258.477 55.8505 258.651 55.2759 259.054 54.5865ZM259.569 56.6567C259.684 56.7143 259.856 56.7145 260.029 56.5997C260.201 56.485 260.374 56.3127 260.547 56.0255C260.662 55.7957 260.777 55.5659 260.777 55.3935C260.778 55.221 260.72 55.106 260.605 54.9909C260.49 54.9332 260.318 54.933 260.203 54.9904C260.03 55.0476 259.915 55.2199 259.8 55.3923C259.627 55.6795 259.512 55.9668 259.512 56.1967C259.396 56.4265 259.454 56.5415 259.569 56.6567Z" fill="white"/>
<path d="M264.856 57.4678C264.338 58.3295 263.877 58.9038 263.474 59.1332C263.072 59.4201 262.612 59.4196 262.152 59.1316C261.693 58.8436 261.463 58.4984 261.521 57.9811C261.522 57.4637 261.81 56.8317 262.271 55.97C262.789 55.1084 263.25 54.5916 263.653 54.3046C264.055 54.0177 264.515 54.0183 264.975 54.3063C265.434 54.5943 265.664 54.9395 265.606 55.4568C265.605 55.9166 265.374 56.6062 264.856 57.4678ZM263.19 56.4885C262.787 57.1204 262.556 57.58 262.499 57.8673C262.441 58.1547 262.441 58.3271 262.613 58.3848C262.728 58.4425 262.843 58.4426 262.958 58.3853C263.073 58.3279 263.188 58.1556 263.361 57.9834C263.533 57.7536 263.706 57.4089 263.994 56.9494C264.398 56.3176 264.571 55.8579 264.686 55.5706C264.744 55.2832 264.744 55.1108 264.572 55.0531C264.399 54.9379 264.227 54.9952 264.054 55.2249C263.824 55.3971 263.536 55.8566 263.19 56.4885Z" fill="white"/>
<path d="M278.699 66.6833C278.986 66.9711 279.158 67.2588 279.157 67.6612C279.157 68.0061 278.984 68.4083 278.696 68.8103C278.293 69.2697 277.89 69.4991 277.488 69.5561C277.028 69.613 276.626 69.4976 276.224 69.1522C275.879 68.8643 275.65 68.5191 275.535 68.1741L276.168 67.4275C276.226 67.6 276.283 67.7726 276.398 67.9452C276.512 68.1178 276.627 68.2904 276.742 68.4055C277.144 68.7509 277.546 68.6939 277.949 68.2345C278.295 67.7751 278.295 67.4301 277.893 67.0847C277.721 66.9696 277.549 66.8544 277.319 66.7391L277.204 66.3366L279.104 64.3844L280.884 65.8812L280.308 66.5703L279.217 65.6492L278.411 66.5105C278.411 66.5105 278.584 66.5682 278.699 66.6833Z" fill="white"/>
<path d="M282.028 70.3661C281.395 71.1127 280.82 71.5718 280.36 71.7437C279.899 71.9156 279.44 71.8576 279.038 71.5121C278.636 71.1667 278.464 70.7641 278.579 70.3044C278.695 69.8446 279.041 69.2127 279.674 68.4662C280.307 67.7197 280.883 67.2605 281.343 67.0886C281.803 66.9167 282.263 66.9748 282.607 67.3201C283.009 67.6655 283.181 68.0681 283.065 68.5279C283.065 68.9877 282.662 69.6196 282.028 70.3661ZM280.535 69.0996C280.017 69.6738 279.729 70.0759 279.614 70.3631C279.499 70.5929 279.499 70.7654 279.671 70.8806C279.786 70.9382 279.901 70.9958 280.016 70.9385C280.131 70.8812 280.303 70.7664 280.476 70.5941C280.649 70.4219 280.936 70.1348 281.282 69.7329C281.742 69.1586 282.088 68.7566 282.203 68.4693C282.318 68.2395 282.319 68.0096 282.204 67.8945C282.089 67.7793 281.859 67.7791 281.629 67.9512C281.341 68.1808 280.996 68.5253 280.535 69.0996Z" fill="white"/>
<path d="M294.657 85.1559L294.313 84.7531L293.45 85.4993L292.818 84.7512L293.682 84.005L292.534 82.6239L293.167 82.1073L296.904 81.1347L297.593 81.9403L294.946 84.179L295.291 84.5818L294.657 85.1559ZM294.315 83.4309L295.178 82.6846L295.581 82.3977L295.983 82.1108C295.696 82.2254 295.466 82.2826 295.236 82.3398L293.741 82.7404L294.315 83.4309Z" fill="white"/>
<path d="M298.047 86.7122C297.298 87.3437 296.666 87.6878 296.206 87.8022C295.746 87.9166 295.286 87.7436 294.942 87.3407C294.597 86.9379 294.54 86.5355 294.713 86.0758C294.886 85.6161 295.347 85.0993 296.152 84.468C296.9 83.8365 297.533 83.4924 298.051 83.3781C298.568 83.2637 298.97 83.4367 299.315 83.8395C299.659 84.2423 299.716 84.6448 299.543 85.1045C299.255 85.5065 298.795 86.0808 298.047 86.7122ZM296.784 85.2161C296.208 85.7327 295.805 86.0771 295.69 86.2494C295.517 86.4792 295.517 86.6516 295.632 86.7667C295.689 86.8818 295.804 86.8819 295.977 86.8821C296.092 86.8823 296.264 86.7675 296.495 86.6528C296.725 86.4807 297.012 86.2511 297.415 85.9067C297.991 85.4475 298.336 85.0455 298.509 84.8158C298.682 84.586 298.682 84.4136 298.567 84.241C298.452 84.1259 298.28 84.0682 297.992 84.2403C297.762 84.4125 297.359 84.6994 296.784 85.2161Z" fill="white"/>
<path d="M309.757 101.214C309.469 101.386 309.181 101.443 308.894 101.442C308.607 101.442 308.377 101.269 308.147 101.039C308.262 101.384 308.261 101.672 308.204 101.901C308.088 102.189 307.916 102.418 307.57 102.591C307.11 102.82 306.708 102.877 306.305 102.761C305.903 102.646 305.559 102.358 305.272 101.898C305.042 101.495 304.928 101.093 304.871 100.748L305.676 100.289C305.676 100.461 305.676 100.691 305.733 100.864C305.79 101.036 305.848 101.209 305.905 101.381C306.077 101.611 306.192 101.784 306.422 101.842C306.594 101.899 306.824 101.842 307.054 101.728C307.514 101.441 307.572 101.038 307.286 100.463L307.114 100.176L307.746 99.7739L307.919 100.004C308.091 100.234 308.263 100.407 308.435 100.465C308.608 100.522 308.838 100.523 309.068 100.35C309.24 100.236 309.356 100.121 309.413 99.9484C309.471 99.8335 309.414 99.661 309.356 99.4885C309.242 99.2584 308.954 99.0856 308.667 98.9703L309.013 98.2234C309.53 98.339 309.932 98.6844 310.162 99.1446C310.391 99.5473 310.448 99.8922 310.39 100.237C310.332 100.754 310.102 101.042 309.757 101.214Z" fill="white"/>
<path d="M310.326 105.181C309.463 105.697 308.773 105.927 308.313 105.926C307.796 105.925 307.451 105.695 307.164 105.292C306.878 104.832 306.878 104.372 307.166 103.97C307.454 103.568 307.972 103.109 308.835 102.592C309.698 102.076 310.388 101.847 310.848 101.848C311.365 101.848 311.71 102.079 311.997 102.481C312.284 102.942 312.283 103.344 311.995 103.804C311.707 104.206 311.189 104.665 310.326 105.181ZM309.294 103.513C308.661 103.914 308.201 104.201 308.028 104.373C307.855 104.546 307.797 104.718 307.855 104.891C307.912 105.006 308.027 105.063 308.142 105.063C308.257 105.064 308.487 105.006 308.717 104.892C308.947 104.777 309.292 104.605 309.752 104.318C310.385 103.917 310.846 103.687 311.018 103.457C311.248 103.285 311.249 103.113 311.191 102.94C311.077 102.768 310.904 102.767 310.674 102.825C310.444 102.882 309.984 103.111 309.294 103.513Z" fill="white"/>
<path d="M315.421 123.065L314.447 120.305L315.137 120.076L316.746 120.538C317.206 120.653 317.493 120.711 317.723 120.769C317.953 120.826 318.125 120.827 318.298 120.769C318.47 120.77 318.643 120.712 318.815 120.655C318.988 120.598 319.16 120.483 319.218 120.368C319.276 120.253 319.276 120.138 319.218 119.966C319.161 119.851 319.104 119.736 318.989 119.678C318.874 119.62 318.702 119.505 318.472 119.39L318.818 118.643C319.163 118.758 319.45 118.931 319.622 119.104C319.794 119.277 319.909 119.507 320.024 119.737C320.196 120.139 320.195 120.542 320.022 120.829C319.849 121.174 319.562 121.403 319.159 121.518C318.987 121.575 318.757 121.632 318.584 121.632C318.412 121.632 318.182 121.632 318.009 121.631C317.779 121.631 317.607 121.573 317.32 121.516C317.09 121.458 316.515 121.285 315.653 120.996L316.283 122.664L315.421 123.065Z" fill="white"/>
<path d="M319.155 125.542C318.234 125.885 317.544 126 317.027 125.941C316.51 125.883 316.223 125.596 315.993 125.078C315.822 124.56 315.88 124.158 316.225 123.813C316.57 123.469 317.203 123.125 318.123 122.781C319.043 122.437 319.733 122.323 320.251 122.381C320.768 122.439 321.113 122.727 321.284 123.245C321.456 123.762 321.398 124.165 321.053 124.509C320.765 124.796 320.132 125.198 319.155 125.542ZM318.525 123.644C317.834 123.93 317.317 124.102 317.087 124.274C316.856 124.447 316.799 124.562 316.856 124.734C316.913 124.849 316.971 124.907 317.143 124.964C317.258 124.964 317.488 124.965 317.718 124.908C317.948 124.85 318.351 124.736 318.868 124.564C319.558 124.335 320.019 124.106 320.249 123.933C320.479 123.761 320.594 123.589 320.479 123.416C320.422 123.244 320.25 123.186 319.962 123.186C319.732 123.3 319.215 123.415 318.525 123.644Z" fill="white"/>
<path d="M321.029 143.538L320.858 142.561L324.02 141.99C324.365 141.933 324.768 141.876 325.228 141.819C325.228 141.819 325.113 141.761 324.998 141.646C324.883 141.531 324.596 141.358 324.194 141.128L324.712 140.438L326.263 141.647L326.434 142.51L321.029 143.538Z" fill="white"/>
<path d="M324.417 147.106C323.439 147.277 322.749 147.277 322.232 147.103C321.773 146.93 321.486 146.585 321.371 146.068C321.257 145.55 321.43 145.148 321.833 144.861C322.235 144.574 322.925 144.345 323.845 144.174C324.823 144.002 325.513 144.003 326.03 144.176C326.49 144.349 326.777 144.695 326.891 145.155C327.005 145.672 326.832 146.074 326.43 146.361C326.084 146.648 325.394 146.935 324.417 147.106ZM324.074 145.151C323.327 145.265 322.809 145.38 322.579 145.494C322.349 145.609 322.234 145.724 322.234 145.954C322.233 146.069 322.348 146.184 322.463 146.184C322.578 146.242 322.808 146.242 323.038 146.242C323.325 146.243 323.67 146.185 324.245 146.071C324.993 145.957 325.453 145.843 325.741 145.728C325.971 145.613 326.086 145.441 326.086 145.269C326.029 145.096 325.914 144.981 325.626 144.981C325.282 144.98 324.822 145.037 324.074 145.151Z" fill="white"/>
<path d="M325.77 167.63C324.793 167.629 324.103 167.513 323.644 167.283C323.184 167.052 323.012 166.65 323.013 166.132C323.014 165.615 323.244 165.213 323.704 164.983C324.164 164.754 324.854 164.64 325.832 164.641C326.809 164.642 327.498 164.758 327.958 164.989C328.418 165.219 328.647 165.622 328.646 166.139C328.646 166.657 328.415 167.059 328.013 167.288C327.495 167.517 326.805 167.632 325.77 167.63ZM325.773 165.618C325.025 165.617 324.508 165.674 324.221 165.731C323.933 165.789 323.818 165.903 323.818 166.076C323.818 166.191 323.875 166.306 323.99 166.363C324.105 166.421 324.277 166.479 324.564 166.537C324.852 166.594 325.254 166.595 325.772 166.596C326.519 166.597 327.036 166.54 327.324 166.483C327.611 166.425 327.726 166.311 327.727 166.081C327.727 165.908 327.612 165.793 327.325 165.735C327.037 165.677 326.52 165.619 325.773 165.618Z" fill="white"/>
<path d="M74.0356 168.412L74.0344 169.389L70.8727 169.385C70.5278 169.385 70.1254 169.384 69.6655 169.326C69.6655 169.326 69.7804 169.384 69.8953 169.499C70.0101 169.614 70.2398 169.845 70.5843 170.132L69.9513 170.706L68.6309 169.268L68.632 168.348L74.0357 168.355L74.0356 168.412Z" fill="white"/>
<path d="M68.5199 165.818C68.5204 165.416 68.6358 165.071 68.8661 164.784C69.0964 164.497 69.4415 164.382 69.8439 164.382C70.0738 164.383 70.3037 164.441 70.5335 164.556C70.7633 164.671 70.9354 164.901 71.1076 165.131C71.338 164.787 71.5681 164.615 71.7983 164.442C72.0284 164.328 72.3159 164.271 72.5458 164.271C73.0057 164.271 73.3505 164.387 73.6376 164.675C73.9246 164.962 74.0392 165.307 74.0386 165.767C74.038 166.227 73.9226 166.629 73.6349 166.859C73.4046 167.146 73.002 167.261 72.5421 167.26C72.2547 167.26 71.9673 167.202 71.7375 167.087C71.5077 166.971 71.2781 166.741 71.106 166.454C70.8758 166.683 70.703 166.913 70.4729 167.028C70.2428 167.142 70.0128 167.199 69.7829 167.199C69.3805 167.199 69.0357 167.083 68.8061 166.796C68.634 166.565 68.5194 166.22 68.5199 165.818ZM69.3247 165.819C69.3246 165.934 69.3819 166.049 69.4967 166.164C69.6116 166.222 69.7265 166.279 69.9565 166.28C70.1289 166.28 70.244 166.223 70.359 166.165C70.4741 166.108 70.5892 165.993 70.7619 165.821C70.6471 165.648 70.5323 165.533 70.3599 165.475C70.245 165.418 70.0726 165.36 69.9001 165.36C69.4977 165.417 69.3251 165.532 69.3247 165.819ZM72.6008 166.34C72.8307 166.341 73.0032 166.283 73.1183 166.226C73.2334 166.111 73.291 165.996 73.2912 165.824C73.2914 165.651 73.2342 165.479 73.1193 165.421C73.0044 165.306 72.832 165.306 72.602 165.306C72.4296 165.305 72.3145 165.363 72.142 165.42C72.027 165.477 71.8543 165.65 71.6816 165.822L71.6241 165.879C71.7388 166.052 71.8537 166.167 72.026 166.225C72.1984 166.34 72.3708 166.34 72.6008 166.34Z" fill="white"/>
<path d="M71.2856 160.82C72.2628 160.821 72.9525 160.937 73.4121 161.168C73.8717 161.398 74.0437 161.801 74.043 162.318C74.0424 162.836 73.812 163.238 73.3518 163.467C72.8916 163.696 72.2017 163.811 71.2244 163.809C70.2471 163.808 69.5575 163.692 69.0979 163.462C68.6383 163.231 68.4088 162.829 68.4094 162.311C68.4101 161.794 68.6405 161.392 69.0432 161.162C69.5609 160.933 70.3083 160.819 71.2856 160.82ZM71.2832 162.775C72.0305 162.776 72.5479 162.719 72.8354 162.662C73.1229 162.605 73.238 162.49 73.2382 162.317C73.2384 162.202 73.181 162.087 73.0661 162.03C72.9512 161.972 72.7789 161.914 72.4915 161.856C72.2041 161.799 71.8017 161.798 71.2844 161.797C70.5371 161.797 70.0196 161.853 69.7321 161.911C69.4446 161.968 69.3295 162.082 69.3292 162.312C69.329 162.485 69.4438 162.6 69.7312 162.658C70.0185 162.716 70.5358 162.774 71.2832 162.775Z" fill="white"/>
<path d="M75.5003 146.741L75.3266 147.718L72.1656 147.139C71.8208 147.082 71.4185 146.966 71.0163 146.851C71.0163 146.851 71.0736 146.966 71.1884 147.081C71.3033 147.196 71.4754 147.483 71.7624 147.829L71.072 148.288L69.9818 146.619L70.1553 145.757L75.5003 146.741Z" fill="white"/>
<path d="M75.7893 145.304L71.5957 142.999L71.2485 144.839L70.3865 144.665L70.9074 141.791L71.5971 141.907L76.0206 144.212L75.7893 145.304Z" fill="white"/>
<path d="M74.1864 138.807C75.1634 138.98 75.853 139.211 76.1974 139.557C76.5995 139.845 76.7139 140.305 76.6558 140.822C76.5402 141.339 76.2523 141.684 75.7923 141.798C75.3322 141.97 74.5849 141.912 73.6079 141.738C72.6308 141.564 71.9413 141.333 71.5393 140.988C71.1373 140.7 70.9654 140.24 71.0809 139.78C71.1965 139.263 71.4269 138.918 71.9444 138.804C72.462 138.632 73.1518 138.633 74.1864 138.807ZM73.8391 140.703C74.5863 140.819 75.1036 140.877 75.391 140.878C75.6784 140.878 75.7936 140.763 75.8513 140.591C75.8514 140.476 75.8515 140.361 75.7366 140.303C75.6218 140.188 75.4494 140.131 75.2195 140.073C74.9897 140.015 74.5874 139.9 74.0701 139.841C73.3229 139.726 72.8057 139.667 72.5182 139.667C72.2308 139.667 72.0582 139.781 72.058 139.954C72.0003 140.126 72.115 140.299 72.4023 140.414C72.5747 140.472 73.0919 140.588 73.8391 140.703Z" fill="white"/>
<path d="M80.7569 125.65L80.4109 126.569L77.423 125.473C77.0782 125.358 76.7335 125.185 76.3313 125.012C76.3313 125.012 76.3886 125.127 76.5035 125.242C76.5607 125.415 76.7329 125.645 76.9048 126.105L76.1571 126.449L75.412 124.609L75.7005 123.747L80.7569 125.65Z" fill="white"/>
<path d="M78.9188 123.865C77.8846 123.461 77.1953 123.058 76.7935 122.54C76.4492 122.022 76.3925 121.447 76.6232 120.815C76.6808 120.7 76.6809 120.586 76.7385 120.528C76.7961 120.413 76.8537 120.356 76.8538 120.298L77.6582 120.587C77.543 120.759 77.4854 120.874 77.4277 121.046C77.3124 121.334 77.3121 121.564 77.3693 121.736C77.4265 121.966 77.5413 122.139 77.771 122.311C77.9433 122.484 78.288 122.657 78.6902 122.83L78.6902 122.772C78.518 122.6 78.4032 122.427 78.346 122.255C78.2887 122.082 78.2889 121.91 78.4042 121.68C78.5196 121.335 78.7498 121.105 79.0948 121.048C79.4398 120.934 79.8996 120.992 80.4167 121.222C80.9339 121.396 81.3359 121.683 81.5654 122.086C81.7949 122.431 81.7944 122.834 81.6789 123.294C81.5058 123.753 81.2181 124.04 80.7581 124.097C80.2981 124.212 79.6658 124.153 78.9188 123.865ZM80.8744 123.005C80.932 122.89 80.8748 122.718 80.7599 122.603C80.6451 122.487 80.4154 122.315 80.0706 122.199C79.7833 122.084 79.6109 122.084 79.3809 122.083C79.2085 122.083 79.0934 122.198 79.0357 122.37C78.978 122.485 79.0353 122.658 79.1501 122.773C79.265 122.888 79.4373 123.003 79.6671 123.119C80.0118 123.234 80.2992 123.292 80.4717 123.292C80.7017 123.235 80.8168 123.12 80.8744 123.005Z" fill="white"/>
<path d="M80.7665 117.602C81.6858 117.948 82.3178 118.293 82.6622 118.639C83.0067 118.984 83.0636 119.444 82.8905 119.961C82.7174 120.478 82.3723 120.708 81.8547 120.822C81.3373 120.879 80.6476 120.763 79.7283 120.417C78.8089 120.071 78.177 119.725 77.8326 119.323C77.4882 118.92 77.4312 118.517 77.6042 118.058C77.7773 117.541 78.1225 117.311 78.5825 117.197C79.1575 117.14 79.8471 117.256 80.7665 117.602ZM80.1319 119.44C80.8213 119.729 81.3386 119.844 81.6259 119.902C81.9134 119.903 82.0859 119.845 82.1436 119.673C82.2012 119.558 82.1439 119.443 82.0865 119.328C82.0292 119.213 81.8569 119.098 81.6271 118.982C81.3973 118.867 80.9951 118.694 80.5354 118.521C79.8459 118.29 79.3287 118.117 79.0413 118.117C78.7539 118.117 78.5813 118.174 78.5236 118.346C78.4659 118.519 78.5232 118.691 78.7529 118.864C78.9252 118.979 79.3848 119.21 80.1319 119.44Z" fill="white"/>
<path d="M89.5774 105.828L89.059 106.69L86.3017 105.077C86.0145 104.904 85.6698 104.674 85.2677 104.443C85.2677 104.443 85.3251 104.558 85.3823 104.731C85.4396 104.903 85.4967 105.191 85.6686 105.651L84.8636 105.822L84.4061 103.925L84.8669 103.12L89.5774 105.828Z" fill="white"/>
<path d="M87.9733 101.802C88.2037 101.458 88.4914 101.228 88.8364 101.171C89.1814 101.114 89.5837 101.172 90.0432 101.46C90.5602 101.748 90.9047 102.093 91.0191 102.553C91.1336 102.956 91.0756 103.416 90.845 103.875C90.6146 104.277 90.3268 104.564 90.0392 104.736L89.2349 104.276C89.35 104.218 89.5226 104.104 89.6952 103.989C89.8678 103.874 89.983 103.702 90.0406 103.587C90.3286 103.127 90.1566 102.725 89.6396 102.437C89.1226 102.149 88.7776 102.206 88.4896 102.665C88.3744 102.837 88.3167 103.067 88.2589 103.297L87.9138 103.469L85.6162 101.972L86.7684 99.9611L87.5726 100.422L86.8237 101.686L87.8002 102.319C87.8005 102.089 87.8581 101.974 87.9733 101.802Z" fill="white"/>
<path d="M91.0245 97.8969C91.8862 98.4153 92.4605 98.8759 92.6899 99.2786C92.9768 99.6814 92.9763 100.141 92.6883 100.601C92.4003 101.06 92.0551 101.29 91.5378 101.232C91.0204 101.231 90.3884 100.943 89.5267 100.482C88.6651 99.9635 88.1483 99.5029 87.8613 99.1002C87.5744 98.6974 87.575 98.2375 87.863 97.778C88.151 97.3185 88.4962 97.089 89.0135 97.1471C89.4733 97.1477 90.1054 97.3784 91.0245 97.8969ZM89.9877 99.6202C90.6195 100.023 91.0791 100.254 91.3665 100.312C91.6538 100.37 91.8263 100.37 91.884 100.197C91.9416 100.082 91.9417 99.9675 91.8844 99.8525C91.8271 99.7374 91.6547 99.6222 91.4825 99.4496C91.2528 99.2768 90.9081 99.1039 90.4485 98.8159C89.8167 98.4128 89.357 98.2397 89.0697 98.1244C88.7824 98.0666 88.6099 98.0664 88.5522 98.2387C88.437 98.4111 88.4943 98.5836 88.724 98.7563C88.9538 98.9291 89.3558 99.217 89.9877 99.6202Z" fill="white"/>
<path d="M101.672 87.7929L101.038 88.5394L98.5691 86.4669C98.2819 86.2366 97.9949 85.9488 97.7078 85.6611C97.7077 85.7185 97.7076 85.776 97.7649 85.9485C97.7647 86.121 97.8218 86.4085 97.8788 86.8685L97.0164 86.9249L96.9038 84.9702L97.4795 84.2811L101.672 87.7929Z" fill="white"/>
<path d="M103.516 83.8286L103.171 84.2306L104.032 84.979L103.399 85.7255L102.537 84.9771L101.386 86.3554L100.754 85.8372L99.1491 82.3286L99.8399 81.5247L102.481 83.7699L102.827 83.3679L103.516 83.8286ZM101.906 84.459L101.044 83.7106L100.642 83.3652L100.298 83.0198C100.47 83.25 100.585 83.4801 100.699 83.7102L101.33 85.0906L101.906 84.459Z" fill="white"/>
<path d="M104.498 80.2656C105.244 80.8989 105.704 81.4743 105.875 81.9344C106.047 82.3945 105.989 82.8543 105.644 83.2563C105.298 83.6583 104.896 83.8302 104.436 83.7147C103.976 83.5992 103.344 83.2535 102.598 82.6202C101.851 81.9869 101.392 81.4115 101.22 80.9514C101.048 80.4913 101.106 80.0315 101.452 79.687C101.797 79.285 102.2 79.1131 102.66 79.2286C103.062 79.2291 103.694 79.6323 104.498 80.2656ZM103.231 81.7587C103.806 82.2768 104.208 82.5647 104.495 82.68C104.725 82.7953 104.897 82.7955 105.012 82.6232C105.07 82.5083 105.128 82.3934 105.07 82.2783C105.013 82.1633 104.898 81.9907 104.726 81.818C104.554 81.6454 104.267 81.3576 103.865 81.0122C103.29 80.5516 102.888 80.2062 102.601 80.0908C102.371 79.9756 102.141 79.9753 102.026 80.0901C101.911 80.205 101.911 80.4349 102.083 80.6651C102.255 80.9527 102.657 81.2981 103.231 81.7587Z" fill="white"/>
<path d="M116.753 72.1741L116.005 72.8055L113.939 70.3311C113.709 70.0433 113.48 69.7556 113.193 69.3529C113.193 69.4104 113.193 69.4678 113.192 69.6403C113.192 69.8128 113.192 70.1002 113.134 70.56L112.329 70.444L112.561 68.4898L113.252 67.9158L116.753 72.1741Z" fill="white"/>
<path d="M117.048 66.4834C117.277 66.7711 117.392 67.0012 117.392 67.2886C117.391 67.576 117.333 67.8634 117.161 68.0931C117.448 67.921 117.736 67.8639 118.023 67.8642C118.311 67.9221 118.54 68.0948 118.77 68.325C119.114 68.7279 119.229 69.1304 119.171 69.5327C119.113 69.9351 118.883 70.3372 118.48 70.6816C118.134 70.9686 117.732 71.198 117.387 71.2551L116.813 70.5646C116.985 70.5073 117.215 70.5076 117.388 70.3928C117.56 70.3355 117.733 70.2208 117.848 70.1059C118.078 69.9338 118.193 69.704 118.194 69.5315C118.194 69.3591 118.137 69.129 117.965 68.8989C117.62 68.4961 117.16 68.4955 116.7 68.8973L116.47 69.0695L116.01 68.4941L116.241 68.3219C116.471 68.1497 116.586 67.9199 116.644 67.7475C116.702 67.5177 116.587 67.3451 116.415 67.1149C116.3 66.9423 116.127 66.8846 116.013 66.827C115.84 66.8268 115.725 66.8841 115.552 66.9989C115.322 67.1711 115.207 67.4583 115.149 67.8032L114.345 67.5723C114.403 67.055 114.633 66.5954 115.036 66.2509C115.381 65.9639 115.726 65.7919 116.071 65.8498C116.474 65.9653 116.761 66.1381 117.048 66.4834Z" fill="white"/>
<path d="M120.786 65.2233C121.417 65.9714 121.761 66.6042 121.876 67.0642C121.99 67.5242 121.817 67.9839 121.414 68.3283C121.011 68.6728 120.609 68.7297 120.149 68.5567C119.69 68.3837 119.173 67.9232 118.541 67.1176C117.91 66.3695 117.566 65.7367 117.451 65.2192C117.337 64.7017 117.51 64.2995 117.913 63.9551C118.316 63.6107 118.718 63.5537 119.178 63.7267C119.637 64.0147 120.154 64.4752 120.786 65.2233ZM119.289 66.4862C119.806 67.0617 120.151 67.4645 120.38 67.5797C120.61 67.7525 120.783 67.7527 120.898 67.6379C121.013 67.5805 121.013 67.4656 121.013 67.3506C121.013 67.2356 120.898 67.063 120.784 66.8329C120.611 66.6028 120.382 66.3151 120.037 65.9122C119.578 65.3368 119.176 64.9914 118.947 64.8187C118.717 64.6459 118.544 64.6457 118.372 64.7605C118.257 64.8753 118.199 65.0477 118.371 65.3353C118.543 65.508 118.83 65.9107 119.289 66.4862Z" fill="white"/>
<path d="M134.302 59.4343L133.439 59.9506L131.833 57.1893C131.66 56.9016 131.488 56.5565 131.259 56.1538C131.259 56.2113 131.259 56.2688 131.201 56.4412C131.143 56.6136 131.086 56.9009 130.97 57.3607L130.166 57.1297L130.743 55.2334L131.548 54.7745L134.302 59.4343Z" fill="white"/>
<path d="M137.754 57.4266L135.223 58.8606L134.821 58.2277L134.996 56.5609C135.054 56.101 135.054 55.7561 135.054 55.5837C135.055 55.3537 134.997 55.1812 134.997 55.0088C134.94 54.8362 134.883 54.6637 134.826 54.5487C134.711 54.3761 134.596 54.2609 134.481 54.2033C134.366 54.1457 134.194 54.203 134.079 54.2603C133.964 54.3176 133.848 54.4325 133.791 54.5474C133.733 54.6623 133.676 54.8347 133.618 55.0645L132.813 54.8336C132.871 54.4313 132.987 54.144 133.159 53.9717C133.274 53.7419 133.505 53.5698 133.677 53.455C134.08 53.2256 134.425 53.1685 134.77 53.2839C135.114 53.3993 135.402 53.6296 135.631 54.0323C135.746 54.2049 135.803 54.3774 135.86 54.5499C135.918 54.7225 135.975 54.9525 135.975 55.1249C135.974 55.3549 135.974 55.5848 135.974 55.8148C135.973 56.0447 135.858 56.6194 135.742 57.539L137.295 56.6787L137.754 57.4266Z" fill="white"/>
<path d="M139.483 53.2895C139.999 54.1524 140.228 54.8425 140.228 55.3024C140.227 55.8198 139.997 56.1644 139.594 56.4513C139.134 56.7382 138.674 56.7376 138.272 56.4497C137.87 56.1618 137.411 55.6438 136.894 54.7809C136.378 53.918 136.149 53.2279 136.149 52.768C136.15 52.2506 136.38 51.906 136.783 51.6191C137.243 51.3322 137.646 51.3327 138.105 51.6207C138.565 51.8512 139.024 52.4266 139.483 53.2895ZM137.815 54.2647C138.216 54.8975 138.503 55.3578 138.675 55.5304C138.848 55.7031 139.02 55.7608 139.192 55.7035C139.308 55.6462 139.365 55.5313 139.365 55.4163C139.365 55.3013 139.308 55.0713 139.194 54.8412C139.079 54.6112 138.907 54.266 138.62 53.8058C138.218 53.173 137.989 52.7128 137.759 52.54C137.587 52.3099 137.415 52.3097 137.242 52.3669C137.069 52.4817 137.069 52.6542 137.126 52.8842C137.184 53.1142 137.413 53.5744 137.815 54.2647Z" fill="white"/>
<path d="M153.802 49.8579L152.882 50.2017L151.793 47.2111C151.679 46.8661 151.564 46.521 151.45 46.061C151.45 46.1185 151.392 46.1759 151.335 46.3483C151.277 46.5206 151.161 46.8079 150.989 47.2101L150.242 46.8068L151.164 45.0834L152.026 44.797L153.802 49.8579Z" fill="white"/>
<path d="M157.081 48.6548L156.16 48.9986L155.072 46.008C154.957 45.6629 154.843 45.3179 154.728 44.8578C154.728 44.9153 154.671 44.9727 154.613 45.1451C154.555 45.3175 154.44 45.6048 154.267 46.007L153.52 45.6037L154.442 43.8802L155.305 43.5939L157.081 48.6548Z" fill="white"/>
<path d="M160.016 44.7491C160.36 45.6693 160.474 46.3593 160.416 46.8766C160.358 47.3939 160.07 47.6809 159.553 47.9103C159.035 48.0821 158.633 48.0241 158.288 47.6787C157.944 47.3334 157.6 46.7006 157.256 45.7804C156.912 44.8602 156.798 44.1703 156.856 43.653C156.914 43.1357 157.202 42.7911 157.72 42.6193C158.237 42.4475 158.64 42.5055 158.984 42.8508C159.329 43.1387 159.673 43.7714 160.016 44.7491ZM158.176 45.3792C158.463 46.0694 158.634 46.5869 158.807 46.8171C158.979 47.0473 159.094 47.1049 159.266 47.0476C159.381 46.9903 159.439 46.9329 159.497 46.7605C159.497 46.6455 159.497 46.4156 159.44 46.1855C159.383 45.9555 159.268 45.553 159.096 45.0354C158.867 44.3453 158.638 43.8851 158.466 43.655C158.293 43.4248 158.121 43.3096 157.949 43.4244C157.776 43.4817 157.718 43.654 157.718 43.9415C157.775 44.1715 157.89 44.689 158.176 45.3792Z" fill="white"/>
<path d="M174.388 43.9035L173.411 44.0747L172.84 40.9123C172.783 40.5673 172.726 40.1648 172.669 39.7049C172.669 39.7049 172.611 39.8198 172.496 39.9346C172.381 40.0494 172.208 40.3366 171.978 40.7388L171.289 40.2205L172.498 38.6699L173.36 38.4985L174.388 43.9035Z" fill="white"/>
<path d="M177.899 40.5172C178.071 41.4947 178.07 42.1845 177.897 42.7017C177.724 43.1613 177.378 43.4483 176.861 43.5627C176.343 43.677 175.941 43.5041 175.654 43.1013C175.367 42.6985 175.138 42.0084 174.967 41.0885C174.796 40.111 174.796 39.4212 174.97 38.904C175.143 38.4443 175.488 38.1573 175.948 38.0429C176.465 37.9286 176.868 38.1015 177.155 38.5043C177.499 38.8496 177.728 39.5397 177.899 40.5172ZM176.002 40.8598C176.116 41.6072 176.23 42.1248 176.345 42.3548C176.46 42.5849 176.574 42.7 176.804 42.7003C176.919 42.7005 177.035 42.5856 177.035 42.4707C177.092 42.3558 177.093 42.1258 177.093 41.8959C177.093 41.6085 177.036 41.2635 176.922 40.6885C176.808 39.941 176.693 39.481 176.579 39.1934C176.464 38.9633 176.292 38.8481 176.119 38.8479C175.947 38.9052 175.832 39.02 175.831 39.3075C175.774 39.5948 175.83 40.1123 176.002 40.8598Z" fill="white"/>
<path d="M181.406 39.9467C181.578 40.9241 181.577 41.614 181.404 42.1311C181.231 42.5908 180.885 42.8778 180.368 42.9921C179.85 43.1065 179.448 42.9335 179.161 42.5307C178.874 42.128 178.645 41.4379 178.474 40.5179C178.303 39.5404 178.303 38.8506 178.477 38.3334C178.65 37.8738 178.995 37.5868 179.455 37.4724C179.972 37.358 180.375 37.531 180.661 37.9337C181.006 38.2791 181.235 38.9117 181.406 39.9467ZM179.451 40.2892C179.565 41.0366 179.68 41.5541 179.794 41.7842C179.909 42.0143 180.024 42.1294 180.254 42.1297C180.369 42.1298 180.484 42.015 180.484 41.9C180.542 41.7851 180.542 41.5552 180.542 41.3253C180.543 41.0378 180.486 40.6928 180.371 40.1178C180.257 39.3704 180.143 38.9104 180.028 38.6228C179.914 38.3927 179.741 38.2775 179.569 38.2773C179.396 38.3346 179.281 38.4494 179.281 38.7368C179.28 39.0243 179.337 39.5417 179.451 40.2892Z" fill="white"/>
<path d="M86.5133 165.553L75.6485 165.54L75.6475 166.344L86.5123 166.358L86.5133 165.553Z" fill="white"/>
<path d="M77.6286 144.198L77.4879 144.99L88.1852 146.89L88.3259 146.097L77.6286 144.198Z" fill="white"/>
<path d="M83.2703 123.546L82.9941 124.302L93.1991 128.03L93.4753 127.274L83.2703 123.546Z" fill="white"/>
<path d="M92.3836 104.2L91.9804 104.896L101.383 110.34L101.786 109.644L92.3836 104.2Z" fill="white"/>
<path d="M104.77 86.6575L104.252 87.2734L112.567 94.2676L113.085 93.6517L104.77 86.6575Z" fill="white"/>
<path d="M119.936 71.6015L119.319 72.118L126.292 80.4491L126.909 79.9325L119.936 71.6015Z" fill="white"/>
<path d="M137.561 59.3986L136.864 59.8002L142.284 69.2158L142.982 68.8142L137.561 59.3986Z" fill="white"/>
<path d="M157.041 50.4571L156.285 50.7314L159.988 60.9457L160.744 60.6714L157.041 50.4571Z" fill="white"/>
<path d="M177.741 44.9631L176.948 45.1018L178.821 55.8038L179.613 55.665L177.741 44.9631Z" fill="white"/>
<path d="M199.108 43.1878L198.303 43.1868L198.29 54.0516L199.095 54.0525L199.108 43.1878Z" fill="white"/>
<path d="M199.789 163.658L197.796 163.655L197.784 173.258L199.777 173.26L199.789 163.658Z" fill="white"/>
<path d="M219.635 45.0389L217.734 55.7362L218.526 55.8771L220.427 45.1797L219.635 45.0389Z" fill="white"/>
<path d="M240.342 50.5348L236.615 60.741L237.371 61.0171L241.098 50.8109L240.342 50.5348Z" fill="white"/>
<path d="M259.78 59.5569L254.336 68.9591L255.032 69.3624L260.476 59.9602L259.78 59.5569Z" fill="white"/>
<path d="M277.354 71.7786L270.363 80.0957L270.979 80.6135L277.97 72.2965L277.354 71.7786Z" fill="white"/>
<path d="M292.515 86.9554L284.181 93.9258L284.697 94.5431L293.031 87.5728L292.515 86.9554Z" fill="white"/>
<path d="M304.834 104.418L295.418 109.839L295.82 110.536L305.235 105.115L304.834 104.418Z" fill="white"/>
<path d="M313.903 123.825L303.688 127.527L303.963 128.283L314.177 124.581L313.903 123.825Z" fill="white"/>
<path d="M319.497 144.509L308.795 146.384L308.934 147.177L319.635 145.302L319.497 144.509Z" fill="white"/>
<path d="M321.404 165.843L310.539 165.83L310.538 166.634L321.403 166.648L321.404 165.843Z" fill="white"/>
<defs>
<clipPath id="clip0_3091_8506">
<rect width="15.1345" height="15.1345" fill="white" transform="translate(367.054 180.237)"/>
</clipPath>
<clipPath id="clip1_3091_8506">
<rect width="15.1345" height="15.1345" fill="white" transform="translate(15.2945 180.237)"/>
</clipPath>
<clipPath id="clip2_3091_8506">
<rect width="14.3231" height="14.3231" fill="white" transform="translate(188.804 188.989) rotate(-45)"/>
</clipPath>
</defs>
</svg>
