<svg width="240" height="90" viewBox="0 0 240 90" fill="none" xmlns="http://www.w3.org/2000/svg">
<path d="M8.42241 8.4V21H6.08241V10.362H3.41841V8.4H8.42241ZM15.1699 8.22C16.8979 8.22 18.2359 8.76 19.1839 9.84C20.1439 10.92 20.6239 12.468 20.6239 14.484C20.6239 15.9 20.3659 17.112 19.8499 18.12C19.3339 19.116 18.6079 19.878 17.6719 20.406C16.7479 20.922 15.6739 21.18 14.4499 21.18C13.8019 21.18 13.1899 21.114 12.6139 20.982C12.0499 20.838 11.5579 20.634 11.1379 20.37L12.0019 18.606C12.6259 19.014 13.4239 19.218 14.3959 19.218C15.6079 19.218 16.5559 18.846 17.2399 18.102C17.9239 17.358 18.2659 16.284 18.2659 14.88V14.862C17.8939 15.294 17.4199 15.624 16.8439 15.852C16.2679 16.068 15.6199 16.176 14.8999 16.176C14.0719 16.176 13.3279 16.02 12.6679 15.708C12.0079 15.384 11.4919 14.928 11.1199 14.34C10.7479 13.752 10.5619 13.074 10.5619 12.306C10.5619 11.49 10.7659 10.776 11.1739 10.164C11.5819 9.54 12.1339 9.06 12.8299 8.724C13.5259 8.388 14.3059 8.22 15.1699 8.22ZM15.3499 14.34C16.1059 14.34 16.7179 14.136 17.1859 13.728C17.6659 13.32 17.9059 12.804 17.9059 12.18C17.9059 11.568 17.6719 11.064 17.2039 10.668C16.7479 10.26 16.1119 10.056 15.2959 10.056C14.5639 10.056 13.9699 10.254 13.5139 10.65C13.0579 11.034 12.8299 11.55 12.8299 12.198C12.8299 12.858 13.0579 13.38 13.5139 13.764C13.9699 14.148 14.5819 14.34 15.3499 14.34ZM27.455 11.856H35.519V13.278H27.455V11.856ZM27.455 16.122H35.519V17.544H27.455V16.122Z" fill="#2F2F2F"/>
<path d="M63.4389 8.4V21H61.6569V9.966H58.8129V8.4H63.4389Z" fill="#2F2F2F"/>
<path d="M47 1H77V-1H47V1ZM81 5V25H83V5H81ZM77 29H47V31H77V29ZM43 25V5H41V25H43ZM47 29C44.7909 29 43 27.2091 43 25H41C41 28.3137 43.6863 31 47 31V29ZM81 25C81 27.2091 79.2091 29 77 29V31C80.3137 31 83 28.3137 83 25H81ZM77 1C79.2091 1 81 2.79086 81 5H83C83 1.68629 80.3137 -1 77 -1V1ZM47 -1C43.6863 -1 41 1.68629 41 5H43C43 2.79086 44.7909 1 47 1V-1Z" fill="#2F2F2F"/>
<path d="M94.2881 20.442C94.0361 20.658 93.7241 20.826 93.3521 20.946C92.9801 21.054 92.5961 21.108 92.2001 21.108C91.2401 21.108 90.4961 20.85 89.9681 20.334C89.4401 19.818 89.1761 19.08 89.1761 18.12V12.882H87.5561V11.46H89.1761V9.372H90.9041V11.46H93.6401V12.882H90.9041V18.048C90.9041 18.564 91.0301 18.96 91.2821 19.236C91.5461 19.512 91.9181 19.65 92.3981 19.65C92.9261 19.65 93.3761 19.5 93.7481 19.2L94.2881 20.442ZM104.683 16.284C104.683 16.416 104.671 16.59 104.647 16.806H96.9069C97.0149 17.646 97.3809 18.324 98.0049 18.84C98.6409 19.344 99.4269 19.596 100.363 19.596C101.503 19.596 102.421 19.212 103.117 18.444L104.071 19.56C103.639 20.064 103.099 20.448 102.451 20.712C101.815 20.976 101.101 21.108 100.309 21.108C99.3009 21.108 98.4069 20.904 97.6269 20.496C96.8469 20.076 96.2409 19.494 95.8089 18.75C95.3889 18.006 95.1789 17.166 95.1789 16.23C95.1789 15.306 95.3829 14.472 95.7909 13.728C96.2109 12.984 96.7809 12.408 97.5009 12C98.2329 11.58 99.0549 11.37 99.9669 11.37C100.879 11.37 101.689 11.58 102.397 12C103.117 12.408 103.675 12.984 104.071 13.728C104.479 14.472 104.683 15.324 104.683 16.284ZM99.9669 12.828C99.1389 12.828 98.4429 13.08 97.8789 13.584C97.3269 14.088 97.0029 14.748 96.9069 15.564H103.027C102.931 14.76 102.601 14.106 102.037 13.602C101.485 13.086 100.795 12.828 99.9669 12.828ZM112.176 11.37C113.388 11.37 114.348 11.724 115.056 12.432C115.776 13.128 116.136 14.154 116.136 15.51V21H114.408V15.708C114.408 14.784 114.186 14.088 113.742 13.62C113.298 13.152 112.662 12.918 111.834 12.918C110.898 12.918 110.16 13.194 109.62 13.746C109.08 14.286 108.81 15.066 108.81 16.086V21H107.082V11.46H108.738V12.9C109.086 12.408 109.554 12.03 110.142 11.766C110.742 11.502 111.42 11.37 112.176 11.37ZM122.07 21.108C121.29 21.108 120.54 21.006 119.82 20.802C119.1 20.586 118.536 20.316 118.128 19.992L118.848 18.624C119.268 18.924 119.778 19.164 120.378 19.344C120.978 19.524 121.584 19.614 122.196 19.614C123.708 19.614 124.464 19.182 124.464 18.318C124.464 18.03 124.362 17.802 124.158 17.634C123.954 17.466 123.696 17.346 123.384 17.274C123.084 17.19 122.652 17.1 122.088 17.004C121.32 16.884 120.69 16.746 120.198 16.59C119.718 16.434 119.304 16.17 118.956 15.798C118.608 15.426 118.434 14.904 118.434 14.232C118.434 13.368 118.794 12.678 119.514 12.162C120.234 11.634 121.2 11.37 122.412 11.37C123.048 11.37 123.684 11.448 124.32 11.604C124.956 11.76 125.478 11.97 125.886 12.234L125.148 13.602C124.368 13.098 123.45 12.846 122.394 12.846C121.662 12.846 121.104 12.966 120.72 13.206C120.336 13.446 120.144 13.764 120.144 14.16C120.144 14.472 120.252 14.718 120.468 14.898C120.684 15.078 120.948 15.21 121.26 15.294C121.584 15.378 122.034 15.474 122.61 15.582C123.378 15.714 123.996 15.858 124.464 16.014C124.944 16.158 125.352 16.41 125.688 16.77C126.024 17.13 126.192 17.634 126.192 18.282C126.192 19.146 125.82 19.836 125.076 20.352C124.344 20.856 123.342 21.108 122.07 21.108Z" fill="#2F2F2F"/>
<path d="M141.532 15.42H138.256V18.642H136.744V15.42H133.468V13.998H136.744V10.758H138.256V13.998H141.532V15.42Z" fill="#2F2F2F"/>
<path d="M167.395 8.256C169.087 8.256 170.389 8.802 171.301 9.894C172.225 10.986 172.687 12.534 172.687 14.538C172.687 15.942 172.435 17.142 171.931 18.138C171.439 19.122 170.743 19.872 169.843 20.388C168.955 20.892 167.917 21.144 166.729 21.144C166.117 21.144 165.541 21.084 165.001 20.964C164.461 20.832 163.993 20.646 163.597 20.406L164.281 19.002C164.893 19.398 165.703 19.596 166.711 19.596C168.019 19.596 169.039 19.194 169.771 18.39C170.515 17.574 170.887 16.392 170.887 14.844V14.394C170.527 14.934 170.029 15.348 169.393 15.636C168.757 15.912 168.043 16.05 167.251 16.05C166.423 16.05 165.679 15.894 165.019 15.582C164.371 15.27 163.861 14.826 163.489 14.25C163.129 13.662 162.949 12.99 162.949 12.234C162.949 11.442 163.141 10.746 163.525 10.146C163.921 9.546 164.455 9.084 165.127 8.76C165.799 8.424 166.555 8.256 167.395 8.256ZM167.557 14.592C168.121 14.592 168.625 14.484 169.069 14.268C169.513 14.052 169.855 13.758 170.095 13.386C170.347 13.014 170.473 12.6 170.473 12.144C170.473 11.7 170.353 11.298 170.113 10.938C169.885 10.566 169.543 10.272 169.087 10.056C168.643 9.828 168.103 9.714 167.467 9.714C166.639 9.714 165.967 9.936 165.451 10.38C164.947 10.824 164.695 11.418 164.695 12.162C164.695 12.906 164.953 13.5 165.469 13.944C165.985 14.376 166.681 14.592 167.557 14.592Z" fill="#2F2F2F"/>
<path d="M153 1H183V-1H153V1ZM187 5V25H189V5H187ZM183 29H153V31H183V29ZM149 25V5H147V25H149ZM153 29C150.791 29 149 27.2091 149 25H147C147 28.3137 149.686 31 153 31V29ZM187 25C187 27.2091 185.209 29 183 29V31C186.314 31 189 28.3137 189 25H187ZM183 1C185.209 1 187 2.79086 187 5H189C189 1.68629 186.314 -1 183 -1V1ZM153 -1C149.686 -1 147 1.68629 147 5H149C149 2.79086 150.791 1 153 1V-1Z" fill="#2F2F2F"/>
<path d="M198.839 21.108C197.891 21.108 197.039 20.898 196.283 20.478C195.527 20.058 194.933 19.482 194.501 18.75C194.081 18.006 193.871 17.166 193.871 16.23C193.871 15.294 194.081 14.46 194.501 13.728C194.933 12.984 195.527 12.408 196.283 12C197.039 11.58 197.891 11.37 198.839 11.37C199.787 11.37 200.633 11.58 201.377 12C202.133 12.408 202.721 12.984 203.141 13.728C203.573 14.46 203.789 15.294 203.789 16.23C203.789 17.166 203.573 18.006 203.141 18.75C202.721 19.482 202.133 20.058 201.377 20.478C200.633 20.898 199.787 21.108 198.839 21.108ZM198.839 19.596C199.451 19.596 199.997 19.458 200.477 19.182C200.969 18.894 201.353 18.498 201.629 17.994C201.905 17.478 202.043 16.89 202.043 16.23C202.043 15.57 201.905 14.988 201.629 14.484C201.353 13.968 200.969 13.572 200.477 13.296C199.997 13.02 199.451 12.882 198.839 12.882C198.227 12.882 197.675 13.02 197.183 13.296C196.703 13.572 196.319 13.968 196.031 14.484C195.755 14.988 195.617 15.57 195.617 16.23C195.617 16.89 195.755 17.478 196.031 17.994C196.319 18.498 196.703 18.894 197.183 19.182C197.675 19.458 198.227 19.596 198.839 19.596ZM211.273 11.37C212.485 11.37 213.445 11.724 214.153 12.432C214.873 13.128 215.233 14.154 215.233 15.51V21H213.505V15.708C213.505 14.784 213.283 14.088 212.839 13.62C212.395 13.152 211.759 12.918 210.931 12.918C209.995 12.918 209.257 13.194 208.717 13.746C208.177 14.286 207.907 15.066 207.907 16.086V21H206.179V11.46H207.835V12.9C208.183 12.408 208.651 12.03 209.239 11.766C209.839 11.502 210.517 11.37 211.273 11.37ZM227.106 16.284C227.106 16.416 227.094 16.59 227.07 16.806H219.33C219.438 17.646 219.804 18.324 220.428 18.84C221.064 19.344 221.85 19.596 222.786 19.596C223.926 19.596 224.844 19.212 225.54 18.444L226.494 19.56C226.062 20.064 225.522 20.448 224.874 20.712C224.238 20.976 223.524 21.108 222.732 21.108C221.724 21.108 220.83 20.904 220.05 20.496C219.27 20.076 218.664 19.494 218.232 18.75C217.812 18.006 217.602 17.166 217.602 16.23C217.602 15.306 217.806 14.472 218.214 13.728C218.634 12.984 219.204 12.408 219.924 12C220.656 11.58 221.478 11.37 222.39 11.37C223.302 11.37 224.112 11.58 224.82 12C225.54 12.408 226.098 12.984 226.494 13.728C226.902 14.472 227.106 15.324 227.106 16.284ZM222.39 12.828C221.562 12.828 220.866 13.08 220.302 13.584C219.75 14.088 219.426 14.748 219.33 15.564H225.45C225.354 14.76 225.024 14.106 224.46 13.602C223.908 13.086 223.218 12.828 222.39 12.828ZM232.241 21.108C231.461 21.108 230.711 21.006 229.991 20.802C229.271 20.586 228.707 20.316 228.299 19.992L229.019 18.624C229.439 18.924 229.949 19.164 230.549 19.344C231.149 19.524 231.755 19.614 232.367 19.614C233.879 19.614 234.635 19.182 234.635 18.318C234.635 18.03 234.533 17.802 234.329 17.634C234.125 17.466 233.867 17.346 233.555 17.274C233.255 17.19 232.823 17.1 232.259 17.004C231.491 16.884 230.861 16.746 230.369 16.59C229.889 16.434 229.475 16.17 229.127 15.798C228.779 15.426 228.605 14.904 228.605 14.232C228.605 13.368 228.965 12.678 229.685 12.162C230.405 11.634 231.371 11.37 232.583 11.37C233.219 11.37 233.855 11.448 234.491 11.604C235.127 11.76 235.649 11.97 236.057 12.234L235.319 13.602C234.539 13.098 233.621 12.846 232.565 12.846C231.833 12.846 231.275 12.966 230.891 13.206C230.507 13.446 230.315 13.764 230.315 14.16C230.315 14.472 230.423 14.718 230.639 14.898C230.855 15.078 231.119 15.21 231.431 15.294C231.755 15.378 232.205 15.474 232.781 15.582C233.549 15.714 234.167 15.858 234.635 16.014C235.115 16.158 235.523 16.41 235.859 16.77C236.195 17.13 236.363 17.634 236.363 18.282C236.363 19.146 235.991 19.836 235.247 20.352C234.515 20.856 233.513 21.108 232.241 21.108Z" fill="#2F2F2F"/>
<path d="M9.38197 74.376C10.042 74.676 10.546 75.084 10.894 75.6C11.254 76.104 11.434 76.698 11.434 77.382C11.434 78.15 11.218 78.822 10.786 79.398C10.366 79.974 9.76597 80.418 8.98597 80.73C8.20597 81.03 7.29997 81.18 6.26797 81.18C5.23597 81.18 4.32997 81.03 3.54997 80.73C2.78197 80.418 2.18797 79.974 1.76797 79.398C1.34797 78.822 1.13797 78.15 1.13797 77.382C1.13797 76.698 1.31197 76.104 1.65997 75.6C2.00797 75.084 2.50597 74.676 3.15397 74.376C2.64997 74.1 2.25997 73.74 1.98397 73.296C1.71997 72.84 1.58797 72.318 1.58797 71.73C1.58797 71.022 1.77997 70.404 2.16397 69.876C2.55997 69.348 3.11197 68.94 3.81997 68.652C4.52797 68.364 5.34397 68.22 6.26797 68.22C7.20397 68.22 8.02597 68.364 8.73397 68.652C9.44197 68.94 9.99397 69.348 10.39 69.876C10.786 70.404 10.984 71.022 10.984 71.73C10.984 72.318 10.846 72.834 10.57 73.278C10.294 73.722 9.89797 74.088 9.38197 74.376ZM6.26797 70.056C5.53597 70.056 4.95397 70.212 4.52197 70.524C4.10197 70.836 3.89197 71.274 3.89197 71.838C3.89197 72.378 4.10197 72.81 4.52197 73.134C4.95397 73.446 5.53597 73.602 6.26797 73.602C7.01197 73.602 7.59997 73.446 8.03197 73.134C8.46397 72.81 8.67997 72.378 8.67997 71.838C8.67997 71.274 8.45797 70.836 8.01397 70.524C7.58197 70.212 6.99997 70.056 6.26797 70.056ZM6.26797 79.344C7.13197 79.344 7.81597 79.164 8.31997 78.804C8.82397 78.444 9.07597 77.946 9.07597 77.31C9.07597 76.686 8.82397 76.194 8.31997 75.834C7.81597 75.474 7.13197 75.294 6.26797 75.294C5.40397 75.294 4.72597 75.474 4.23397 75.834C3.74197 76.194 3.49597 76.686 3.49597 77.31C3.49597 77.946 3.74197 78.444 4.23397 78.804C4.72597 79.164 5.40397 79.344 6.26797 79.344ZM18.2082 81.18C17.2002 81.18 16.3002 80.928 15.5082 80.424C14.7162 79.908 14.0922 79.164 13.6362 78.192C13.1802 77.208 12.9522 76.044 12.9522 74.7C12.9522 73.356 13.1802 72.198 13.6362 71.226C14.0922 70.242 14.7162 69.498 15.5082 68.994C16.3002 68.478 17.2002 68.22 18.2082 68.22C19.2162 68.22 20.1162 68.478 20.9082 68.994C21.7122 69.498 22.3422 70.242 22.7982 71.226C23.2542 72.198 23.4822 73.356 23.4822 74.7C23.4822 76.044 23.2542 77.208 22.7982 78.192C22.3422 79.164 21.7122 79.908 20.9082 80.424C20.1162 80.928 19.2162 81.18 18.2082 81.18ZM18.2082 79.146C19.1082 79.146 19.8162 78.774 20.3322 78.03C20.8602 77.286 21.1242 76.176 21.1242 74.7C21.1242 73.224 20.8602 72.114 20.3322 71.37C19.8162 70.626 19.1082 70.254 18.2082 70.254C17.3202 70.254 16.6122 70.626 16.0842 71.37C15.5682 72.114 15.3102 73.224 15.3102 74.7C15.3102 76.176 15.5682 77.286 16.0842 78.03C16.6122 78.774 17.3202 79.146 18.2082 79.146ZM30.3115 71.856H38.3755V73.278H30.3115V71.856ZM30.3115 76.122H38.3755V77.544H30.3115V76.122Z" fill="#2F2F2F"/>
<path d="M67.776 74.394C68.496 74.67 69.048 75.066 69.432 75.582C69.816 76.098 70.008 76.716 70.008 77.436C70.008 78.192 69.804 78.852 69.396 79.416C68.988 79.968 68.406 80.394 67.65 80.694C66.894 80.994 66.006 81.144 64.986 81.144C63.978 81.144 63.096 80.994 62.34 80.694C61.596 80.394 61.02 79.968 60.612 79.416C60.204 78.852 60 78.192 60 77.436C60 76.716 60.186 76.098 60.558 75.582C60.942 75.066 61.494 74.67 62.214 74.394C61.638 74.118 61.2 73.752 60.9 73.296C60.6 72.84 60.45 72.3 60.45 71.676C60.45 70.98 60.636 70.374 61.008 69.858C61.392 69.342 61.926 68.946 62.61 68.67C63.294 68.394 64.086 68.256 64.986 68.256C65.898 68.256 66.696 68.394 67.38 68.67C68.076 68.946 68.61 69.342 68.982 69.858C69.366 70.374 69.558 70.98 69.558 71.676C69.558 72.288 69.402 72.828 69.09 73.296C68.79 73.752 68.352 74.118 67.776 74.394ZM64.986 69.714C64.134 69.714 63.462 69.9 62.97 70.272C62.478 70.632 62.232 71.124 62.232 71.748C62.232 72.372 62.472 72.864 62.952 73.224C63.444 73.584 64.122 73.764 64.986 73.764C65.862 73.764 66.546 73.584 67.038 73.224C67.542 72.864 67.794 72.372 67.794 71.748C67.794 71.124 67.536 70.632 67.02 70.272C66.516 69.9 65.838 69.714 64.986 69.714ZM64.986 79.686C65.982 79.686 66.768 79.482 67.344 79.074C67.92 78.654 68.208 78.09 68.208 77.382C68.208 76.686 67.92 76.14 67.344 75.744C66.768 75.336 65.982 75.132 64.986 75.132C63.99 75.132 63.21 75.336 62.646 75.744C62.082 76.14 61.8 76.686 61.8 77.382C61.8 78.09 62.082 78.654 62.646 79.074C63.21 79.482 63.99 79.686 64.986 79.686Z" fill="#2F2F2F"/>
<path d="M50 61H80V59H50V61ZM84 65V85H86V65H84ZM80 89H50V91H80V89ZM46 85V65H44V85H46ZM50 89C47.7909 89 46 87.2091 46 85H44C44 88.3137 46.6863 91 50 91V89ZM84 85C84 87.2091 82.2091 89 80 89V91C83.3137 91 86 88.3137 86 85H84ZM80 61C82.2091 61 84 62.7909 84 65H86C86 61.6863 83.3137 59 80 59V61ZM50 59C46.6863 59 44 61.6863 44 65H46C46 62.7909 47.7909 61 50 61V59Z" fill="#2F2F2F"/>
<path d="M97.2881 80.442C97.0361 80.658 96.7241 80.826 96.3521 80.946C95.9801 81.054 95.5961 81.108 95.2001 81.108C94.2401 81.108 93.4961 80.85 92.9681 80.334C92.4401 79.818 92.1761 79.08 92.1761 78.12V72.882H90.5561V71.46H92.1761V69.372H93.9041V71.46H96.6401V72.882H93.9041V78.048C93.9041 78.564 94.0301 78.96 94.2821 79.236C94.5461 79.512 94.9181 79.65 95.3981 79.65C95.9261 79.65 96.3761 79.5 96.7481 79.2L97.2881 80.442ZM107.683 76.284C107.683 76.416 107.671 76.59 107.647 76.806H99.9069C100.015 77.646 100.381 78.324 101.005 78.84C101.641 79.344 102.427 79.596 103.363 79.596C104.503 79.596 105.421 79.212 106.117 78.444L107.071 79.56C106.639 80.064 106.099 80.448 105.451 80.712C104.815 80.976 104.101 81.108 103.309 81.108C102.301 81.108 101.407 80.904 100.627 80.496C99.8469 80.076 99.2409 79.494 98.8089 78.75C98.3889 78.006 98.1789 77.166 98.1789 76.23C98.1789 75.306 98.3829 74.472 98.7909 73.728C99.2109 72.984 99.7809 72.408 100.501 72C101.233 71.58 102.055 71.37 102.967 71.37C103.879 71.37 104.689 71.58 105.397 72C106.117 72.408 106.675 72.984 107.071 73.728C107.479 74.472 107.683 75.324 107.683 76.284ZM102.967 72.828C102.139 72.828 101.443 73.08 100.879 73.584C100.327 74.088 100.003 74.748 99.9069 75.564H106.027C105.931 74.76 105.601 74.106 105.037 73.602C104.485 73.086 103.795 72.828 102.967 72.828ZM115.176 71.37C116.388 71.37 117.348 71.724 118.056 72.432C118.776 73.128 119.136 74.154 119.136 75.51V81H117.408V75.708C117.408 74.784 117.186 74.088 116.742 73.62C116.298 73.152 115.662 72.918 114.834 72.918C113.898 72.918 113.16 73.194 112.62 73.746C112.08 74.286 111.81 75.066 111.81 76.086V81H110.082V71.46H111.738V72.9C112.086 72.408 112.554 72.03 113.142 71.766C113.742 71.502 114.42 71.37 115.176 71.37ZM125.07 81.108C124.29 81.108 123.54 81.006 122.82 80.802C122.1 80.586 121.536 80.316 121.128 79.992L121.848 78.624C122.268 78.924 122.778 79.164 123.378 79.344C123.978 79.524 124.584 79.614 125.196 79.614C126.708 79.614 127.464 79.182 127.464 78.318C127.464 78.03 127.362 77.802 127.158 77.634C126.954 77.466 126.696 77.346 126.384 77.274C126.084 77.19 125.652 77.1 125.088 77.004C124.32 76.884 123.69 76.746 123.198 76.59C122.718 76.434 122.304 76.17 121.956 75.798C121.608 75.426 121.434 74.904 121.434 74.232C121.434 73.368 121.794 72.678 122.514 72.162C123.234 71.634 124.2 71.37 125.412 71.37C126.048 71.37 126.684 71.448 127.32 71.604C127.956 71.76 128.478 71.97 128.886 72.234L128.148 73.602C127.368 73.098 126.45 72.846 125.394 72.846C124.662 72.846 124.104 72.966 123.72 73.206C123.336 73.446 123.144 73.764 123.144 74.16C123.144 74.472 123.252 74.718 123.468 74.898C123.684 75.078 123.948 75.21 124.26 75.294C124.584 75.378 125.034 75.474 125.61 75.582C126.378 75.714 126.996 75.858 127.464 76.014C127.944 76.158 128.352 76.41 128.688 76.77C129.024 77.13 129.192 77.634 129.192 78.282C129.192 79.146 128.82 79.836 128.076 80.352C127.344 80.856 126.342 81.108 125.07 81.108Z" fill="#2F2F2F"/>
<path d="M144.532 75.42H141.256V78.642H139.744V75.42H136.468V73.998H139.744V70.758H141.256V73.998H144.532V75.42Z" fill="#2F2F2F"/>
<path d="M171.009 81.144C170.013 81.144 169.125 80.892 168.345 80.388C167.577 79.872 166.971 79.128 166.527 78.156C166.083 77.184 165.861 76.032 165.861 74.7C165.861 73.368 166.083 72.216 166.527 71.244C166.971 70.272 167.577 69.534 168.345 69.03C169.125 68.514 170.013 68.256 171.009 68.256C171.993 68.256 172.869 68.514 173.637 69.03C174.417 69.534 175.029 70.272 175.473 71.244C175.917 72.216 176.139 73.368 176.139 74.7C176.139 76.032 175.917 77.184 175.473 78.156C175.029 79.128 174.417 79.872 173.637 80.388C172.869 80.892 171.993 81.144 171.009 81.144ZM171.009 79.542C172.017 79.542 172.821 79.128 173.421 78.3C174.033 77.472 174.339 76.272 174.339 74.7C174.339 73.128 174.033 71.928 173.421 71.1C172.821 70.272 172.017 69.858 171.009 69.858C169.989 69.858 169.173 70.272 168.561 71.1C167.961 71.928 167.661 73.128 167.661 74.7C167.661 76.272 167.961 77.472 168.561 78.3C169.173 79.128 169.989 79.542 171.009 79.542Z" fill="#2F2F2F"/>
<path d="M156 61H186V59H156V61ZM190 65V85H192V65H190ZM186 89H156V91H186V89ZM152 85V65H150V85H152ZM156 89C153.791 89 152 87.2091 152 85H150C150 88.3137 152.686 91 156 91V89ZM190 85C190 87.2091 188.209 89 186 89V91C189.314 91 192 88.3137 192 85H190ZM186 61C188.209 61 190 62.7909 190 65H192C192 61.6863 189.314 59 186 59V61ZM156 59C152.686 59 150 61.6863 150 65H152C152 62.7909 153.791 61 156 61V59Z" fill="#2F2F2F"/>
<path d="M201.839 81.108C200.891 81.108 200.039 80.898 199.283 80.478C198.527 80.058 197.933 79.482 197.501 78.75C197.081 78.006 196.871 77.166 196.871 76.23C196.871 75.294 197.081 74.46 197.501 73.728C197.933 72.984 198.527 72.408 199.283 72C200.039 71.58 200.891 71.37 201.839 71.37C202.787 71.37 203.633 71.58 204.377 72C205.133 72.408 205.721 72.984 206.141 73.728C206.573 74.46 206.789 75.294 206.789 76.23C206.789 77.166 206.573 78.006 206.141 78.75C205.721 79.482 205.133 80.058 204.377 80.478C203.633 80.898 202.787 81.108 201.839 81.108ZM201.839 79.596C202.451 79.596 202.997 79.458 203.477 79.182C203.969 78.894 204.353 78.498 204.629 77.994C204.905 77.478 205.043 76.89 205.043 76.23C205.043 75.57 204.905 74.988 204.629 74.484C204.353 73.968 203.969 73.572 203.477 73.296C202.997 73.02 202.451 72.882 201.839 72.882C201.227 72.882 200.675 73.02 200.183 73.296C199.703 73.572 199.319 73.968 199.031 74.484C198.755 74.988 198.617 75.57 198.617 76.23C198.617 76.89 198.755 77.478 199.031 77.994C199.319 78.498 199.703 78.894 200.183 79.182C200.675 79.458 201.227 79.596 201.839 79.596ZM214.273 71.37C215.485 71.37 216.445 71.724 217.153 72.432C217.873 73.128 218.233 74.154 218.233 75.51V81H216.505V75.708C216.505 74.784 216.283 74.088 215.839 73.62C215.395 73.152 214.759 72.918 213.931 72.918C212.995 72.918 212.257 73.194 211.717 73.746C211.177 74.286 210.907 75.066 210.907 76.086V81H209.179V71.46H210.835V72.9C211.183 72.408 211.651 72.03 212.239 71.766C212.839 71.502 213.517 71.37 214.273 71.37ZM230.106 76.284C230.106 76.416 230.094 76.59 230.07 76.806H222.33C222.438 77.646 222.804 78.324 223.428 78.84C224.064 79.344 224.85 79.596 225.786 79.596C226.926 79.596 227.844 79.212 228.54 78.444L229.494 79.56C229.062 80.064 228.522 80.448 227.874 80.712C227.238 80.976 226.524 81.108 225.732 81.108C224.724 81.108 223.83 80.904 223.05 80.496C222.27 80.076 221.664 79.494 221.232 78.75C220.812 78.006 220.602 77.166 220.602 76.23C220.602 75.306 220.806 74.472 221.214 73.728C221.634 72.984 222.204 72.408 222.924 72C223.656 71.58 224.478 71.37 225.39 71.37C226.302 71.37 227.112 71.58 227.82 72C228.54 72.408 229.098 72.984 229.494 73.728C229.902 74.472 230.106 75.324 230.106 76.284ZM225.39 72.828C224.562 72.828 223.866 73.08 223.302 73.584C222.75 74.088 222.426 74.748 222.33 75.564H228.45C228.354 74.76 228.024 74.106 227.46 73.602C226.908 73.086 226.218 72.828 225.39 72.828ZM235.241 81.108C234.461 81.108 233.711 81.006 232.991 80.802C232.271 80.586 231.707 80.316 231.299 79.992L232.019 78.624C232.439 78.924 232.949 79.164 233.549 79.344C234.149 79.524 234.755 79.614 235.367 79.614C236.879 79.614 237.635 79.182 237.635 78.318C237.635 78.03 237.533 77.802 237.329 77.634C237.125 77.466 236.867 77.346 236.555 77.274C236.255 77.19 235.823 77.1 235.259 77.004C234.491 76.884 233.861 76.746 233.369 76.59C232.889 76.434 232.475 76.17 232.127 75.798C231.779 75.426 231.605 74.904 231.605 74.232C231.605 73.368 231.965 72.678 232.685 72.162C233.405 71.634 234.371 71.37 235.583 71.37C236.219 71.37 236.855 71.448 237.491 71.604C238.127 71.76 238.649 71.97 239.057 72.234L238.319 73.602C237.539 73.098 236.621 72.846 235.565 72.846C234.833 72.846 234.275 72.966 233.891 73.206C233.507 73.446 233.315 73.764 233.315 74.16C233.315 74.472 233.423 74.718 233.639 74.898C233.855 75.078 234.119 75.21 234.431 75.294C234.755 75.378 235.205 75.474 235.781 75.582C236.549 75.714 237.167 75.858 237.635 76.014C238.115 76.158 238.523 76.41 238.859 76.77C239.195 77.13 239.363 77.634 239.363 78.282C239.363 79.146 238.991 79.836 238.247 80.352C237.515 80.856 236.513 81.108 235.241 81.108Z" fill="#2F2F2F"/>
</svg>
