<svg width="92" height="48" viewBox="0 0 92 48" fill="none" xmlns="http://www.w3.org/2000/svg">
<path d="M32.9678 22.52H41.0378V25.01H32.9678V22.52Z" fill="#2F2F2F"/>
<path d="M78.2795 18.76H91.7195V21.13H78.2795V18.76ZM78.2795 25.87H91.7195V28.24H78.2795V25.87Z" fill="#2F2F2F"/>
<path d="M16.964 10.376C17.624 10.676 18.128 11.084 18.476 11.6C18.836 12.104 19.016 12.698 19.016 13.382C19.016 14.15 18.8 14.822 18.368 15.398C17.948 15.974 17.348 16.418 16.568 16.73C15.788 17.03 14.882 17.18 13.85 17.18C12.818 17.18 11.912 17.03 11.132 16.73C10.364 16.418 9.77 15.974 9.35 15.398C8.93 14.822 8.72 14.15 8.72 13.382C8.72 12.698 8.894 12.104 9.242 11.6C9.59 11.084 10.088 10.676 10.736 10.376C10.232 10.1 9.842 9.74001 9.566 9.29601C9.302 8.84001 9.17 8.31801 9.17 7.73001C9.17 7.02201 9.362 6.40402 9.746 5.87601C10.142 5.34801 10.694 4.94001 11.402 4.65201C12.11 4.36401 12.926 4.22001 13.85 4.22001C14.786 4.22001 15.608 4.36401 16.316 4.65201C17.024 4.94001 17.576 5.34801 17.972 5.87601C18.368 6.40402 18.566 7.02201 18.566 7.73001C18.566 8.31801 18.428 8.83401 18.152 9.27801C17.876 9.72201 17.48 10.088 16.964 10.376ZM13.85 6.05601C13.118 6.05601 12.536 6.21201 12.104 6.52401C11.684 6.83601 11.474 7.27401 11.474 7.83802C11.474 8.37802 11.684 8.81002 12.104 9.13402C12.536 9.44602 13.118 9.60202 13.85 9.60202C14.594 9.60202 15.182 9.44602 15.614 9.13402C16.046 8.81002 16.262 8.37802 16.262 7.83802C16.262 7.27401 16.04 6.83601 15.596 6.52401C15.164 6.21201 14.582 6.05601 13.85 6.05601ZM13.85 15.344C14.714 15.344 15.398 15.164 15.902 14.804C16.406 14.444 16.658 13.946 16.658 13.31C16.658 12.686 16.406 12.194 15.902 11.834C15.398 11.474 14.714 11.294 13.85 11.294C12.986 11.294 12.308 11.474 11.816 11.834C11.324 12.194 11.078 12.686 11.078 13.31C11.078 13.946 11.324 14.444 11.816 14.804C12.308 15.164 12.986 15.344 13.85 15.344Z" fill="#2F2F2F"/>
<line x1="0.5" y1="23.5" x2="26.5" y2="23.5" stroke="#2F2F2F" stroke-linecap="round"/>
<path d="M12.04 30.22C13.768 30.22 15.106 30.76 16.054 31.84C17.014 32.92 17.494 34.468 17.494 36.484C17.494 37.9 17.236 39.112 16.72 40.12C16.204 41.116 15.478 41.878 14.542 42.406C13.618 42.922 12.544 43.18 11.32 43.18C10.672 43.18 10.06 43.114 9.484 42.982C8.92 42.838 8.428 42.634 8.008 42.37L8.872 40.606C9.496 41.014 10.294 41.218 11.266 41.218C12.478 41.218 13.426 40.846 14.11 40.102C14.794 39.358 15.136 38.284 15.136 36.88V36.862C14.764 37.294 14.29 37.624 13.714 37.852C13.138 38.068 12.49 38.176 11.77 38.176C10.942 38.176 10.198 38.02 9.538 37.708C8.878 37.384 8.362 36.928 7.99 36.34C7.618 35.752 7.432 35.074 7.432 34.306C7.432 33.49 7.636 32.776 8.044 32.164C8.452 31.54 9.004 31.06 9.7 30.724C10.396 30.388 11.176 30.22 12.04 30.22ZM12.22 36.34C12.976 36.34 13.588 36.136 14.056 35.728C14.536 35.32 14.776 34.804 14.776 34.18C14.776 33.568 14.542 33.064 14.074 32.668C13.618 32.26 12.982 32.056 12.166 32.056C11.434 32.056 10.84 32.254 10.384 32.65C9.928 33.034 9.7 33.55 9.7 34.198C9.7 34.858 9.928 35.38 10.384 35.764C10.84 36.148 11.452 36.34 12.22 36.34Z" fill="#2F2F2F"/>
<path d="M64.918 15.02V17H55.63V15.434L60.634 10.682C61.198 10.142 61.576 9.67401 61.768 9.27801C61.972 8.87001 62.074 8.46801 62.074 8.07201C62.074 7.48401 61.876 7.03401 61.48 6.72201C61.084 6.41001 60.502 6.25402 59.734 6.25402C58.45 6.25402 57.466 6.69201 56.782 7.56801L55.144 6.30801C55.636 5.64801 56.296 5.13801 57.124 4.77801C57.964 4.40601 58.9 4.22001 59.932 4.22001C61.3 4.22001 62.392 4.54401 63.208 5.19201C64.024 5.84001 64.432 6.72201 64.432 7.83802C64.432 8.52201 64.288 9.16401 64 9.76402C63.712 10.364 63.16 11.048 62.344 11.816L58.978 15.02H64.918Z" fill="#2F2F2F"/>
<line x1="47.5" y1="23.5" x2="73.5" y2="23.5" stroke="#2F2F2F" stroke-linecap="round"/>
<path d="M60.156 35.602C61.32 35.746 62.208 36.142 62.82 36.79C63.432 37.438 63.738 38.248 63.738 39.22C63.738 39.952 63.552 40.618 63.18 41.218C62.808 41.818 62.244 42.298 61.488 42.658C60.744 43.006 59.832 43.18 58.752 43.18C57.852 43.18 56.982 43.054 56.142 42.802C55.314 42.538 54.606 42.178 54.018 41.722L55.026 39.904C55.482 40.288 56.034 40.594 56.682 40.822C57.342 41.038 58.02 41.146 58.716 41.146C59.544 41.146 60.192 40.978 60.66 40.642C61.14 40.294 61.38 39.826 61.38 39.238C61.38 38.65 61.152 38.194 60.696 37.87C60.252 37.534 59.568 37.366 58.644 37.366H57.492V35.764L60.354 32.362H54.63V30.4H63.216V31.966L60.156 35.602Z" fill="#2F2F2F"/>
</svg>
