<svg width="520" height="45" viewBox="0 0 520 45" fill="none" xmlns="http://www.w3.org/2000/svg">
<path d="M0 5C0 2.23858 2.23858 0 5 0H75C77.7614 0 80 2.23858 80 5V40C80 42.7614 77.7614 45 75 45H5C2.23858 45 0 42.7614 0 40V5Z" fill="#9DD765"/>
<path d="M31.9215 21.894C32.6415 22.17 33.1935 22.566 33.5775 23.082C33.9615 23.598 34.1535 24.216 34.1535 24.936C34.1535 25.692 33.9495 26.352 33.5415 26.916C33.1335 27.468 32.5515 27.894 31.7955 28.194C31.0395 28.494 30.1515 28.644 29.1315 28.644C28.1235 28.644 27.2415 28.494 26.4855 28.194C25.7415 27.894 25.1655 27.468 24.7575 26.916C24.3495 26.352 24.1455 25.692 24.1455 24.936C24.1455 24.216 24.3315 23.598 24.7035 23.082C25.0875 22.566 25.6395 22.17 26.3595 21.894C25.7835 21.618 25.3455 21.252 25.0455 20.796C24.7455 20.34 24.5955 19.8 24.5955 19.176C24.5955 18.48 24.7815 17.874 25.1535 17.358C25.5375 16.842 26.0715 16.446 26.7555 16.17C27.4395 15.894 28.2315 15.756 29.1315 15.756C30.0435 15.756 30.8415 15.894 31.5255 16.17C32.2215 16.446 32.7555 16.842 33.1275 17.358C33.5115 17.874 33.7035 18.48 33.7035 19.176C33.7035 19.788 33.5475 20.328 33.2355 20.796C32.9355 21.252 32.4975 21.618 31.9215 21.894ZM29.1315 17.214C28.2795 17.214 27.6075 17.4 27.1155 17.772C26.6235 18.132 26.3775 18.624 26.3775 19.248C26.3775 19.872 26.6175 20.364 27.0975 20.724C27.5895 21.084 28.2675 21.264 29.1315 21.264C30.0075 21.264 30.6915 21.084 31.1835 20.724C31.6875 20.364 31.9395 19.872 31.9395 19.248C31.9395 18.624 31.6815 18.132 31.1655 17.772C30.6615 17.4 29.9835 17.214 29.1315 17.214ZM29.1315 27.186C30.1275 27.186 30.9135 26.982 31.4895 26.574C32.0655 26.154 32.3535 25.59 32.3535 24.882C32.3535 24.186 32.0655 23.64 31.4895 23.244C30.9135 22.836 30.1275 22.632 29.1315 22.632C28.1355 22.632 27.3555 22.836 26.7915 23.244C26.2275 23.64 25.9455 24.186 25.9455 24.882C25.9455 25.59 26.2275 26.154 26.7915 26.574C27.3555 26.982 28.1355 27.186 29.1315 27.186ZM44.2075 22.92H40.9315V26.142H39.4195V22.92H36.1435V21.498H39.4195V18.258H40.9315V21.498H44.2075V22.92ZM51.8371 20.85C52.6651 20.85 53.4031 21.006 54.0511 21.318C54.7111 21.63 55.2271 22.08 55.5991 22.668C55.9711 23.244 56.1571 23.91 56.1571 24.666C56.1571 25.458 55.9591 26.154 55.5631 26.754C55.1791 27.354 54.6451 27.822 53.9611 28.158C53.2891 28.482 52.5331 28.644 51.6931 28.644C50.0011 28.644 48.6931 28.098 47.7691 27.006C46.8571 25.914 46.4011 24.366 46.4011 22.362C46.4011 20.958 46.6471 19.764 47.1391 18.78C47.6431 17.784 48.3391 17.034 49.2271 16.53C50.1271 16.014 51.1711 15.756 52.3591 15.756C52.9711 15.756 53.5471 15.822 54.0871 15.954C54.6271 16.074 55.0951 16.254 55.4911 16.494L54.8071 17.898C54.2071 17.502 53.4031 17.304 52.3951 17.304C51.0871 17.304 50.0611 17.712 49.3171 18.528C48.5731 19.332 48.2011 20.508 48.2011 22.056C48.2011 22.248 48.2071 22.398 48.2191 22.506C48.5791 21.966 49.0711 21.558 49.6951 21.282C50.3311 20.994 51.0451 20.85 51.8371 20.85ZM51.6211 27.186C52.4491 27.186 53.1211 26.964 53.6371 26.52C54.1531 26.076 54.4111 25.482 54.4111 24.738C54.4111 23.994 54.1471 23.406 53.6191 22.974C53.1031 22.53 52.4071 22.308 51.5311 22.308C50.9671 22.308 50.4631 22.416 50.0191 22.632C49.5871 22.848 49.2451 23.142 48.9931 23.514C48.7531 23.886 48.6331 24.3 48.6331 24.756C48.6331 25.2 48.7471 25.608 48.9751 25.98C49.2151 26.34 49.5571 26.634 50.0011 26.862C50.4571 27.078 50.9971 27.186 51.6211 27.186Z" fill="#205B64"/>
<path d="M110 5C110 2.23858 112.239 0 115 0H185C187.761 0 190 2.23858 190 5V40C190 42.7614 187.761 45 185 45H115C112.239 45 110 42.7614 110 40V5Z" fill="#9DD765"/>
<path d="M138.795 21.192C140.031 21.312 140.973 21.696 141.621 22.344C142.269 22.98 142.593 23.796 142.593 24.792C142.593 25.512 142.413 26.166 142.053 26.754C141.693 27.33 141.153 27.792 140.433 28.14C139.725 28.476 138.855 28.644 137.823 28.644C136.923 28.644 136.059 28.512 135.231 28.248C134.403 27.972 133.725 27.594 133.197 27.114L134.025 25.692C134.457 26.1 135.009 26.43 135.681 26.682C136.353 26.922 137.067 27.042 137.823 27.042C138.759 27.042 139.485 26.844 140.001 26.448C140.529 26.052 140.793 25.506 140.793 24.81C140.793 24.114 140.535 23.574 140.019 23.19C139.503 22.806 138.723 22.614 137.679 22.614H136.671V21.354L139.839 17.466H133.773V15.9H142.089V17.124L138.795 21.192ZM152.678 22.92H149.402V26.142H147.89V22.92H144.614V21.498H147.89V18.258H149.402V21.498H152.678V22.92ZM158.338 15.9V28.5H156.556V17.466H153.712V15.9H158.338ZM165 15.9V28.5H163.218V17.466H160.374V15.9H165Z" fill="#205B64"/>
<path d="M220 5C220 2.23858 222.239 0 225 0H295C297.761 0 300 2.23858 300 5V40C300 42.7614 297.761 45 295 45H225C222.239 45 220 42.7614 220 40V5Z" fill="#9DD765"/>
<path d="M241.225 21.894C241.945 22.17 242.497 22.566 242.881 23.082C243.265 23.598 243.457 24.216 243.457 24.936C243.457 25.692 243.253 26.352 242.845 26.916C242.437 27.468 241.855 27.894 241.099 28.194C240.343 28.494 239.455 28.644 238.435 28.644C237.427 28.644 236.545 28.494 235.789 28.194C235.045 27.894 234.469 27.468 234.061 26.916C233.653 26.352 233.449 25.692 233.449 24.936C233.449 24.216 233.635 23.598 234.007 23.082C234.391 22.566 234.943 22.17 235.663 21.894C235.087 21.618 234.649 21.252 234.349 20.796C234.049 20.34 233.899 19.8 233.899 19.176C233.899 18.48 234.085 17.874 234.457 17.358C234.841 16.842 235.375 16.446 236.059 16.17C236.743 15.894 237.535 15.756 238.435 15.756C239.347 15.756 240.145 15.894 240.829 16.17C241.525 16.446 242.059 16.842 242.431 17.358C242.815 17.874 243.007 18.48 243.007 19.176C243.007 19.788 242.851 20.328 242.539 20.796C242.239 21.252 241.801 21.618 241.225 21.894ZM238.435 17.214C237.583 17.214 236.911 17.4 236.419 17.772C235.927 18.132 235.681 18.624 235.681 19.248C235.681 19.872 235.921 20.364 236.401 20.724C236.893 21.084 237.571 21.264 238.435 21.264C239.311 21.264 239.995 21.084 240.487 20.724C240.991 20.364 241.243 19.872 241.243 19.248C241.243 18.624 240.985 18.132 240.469 17.772C239.965 17.4 239.287 17.214 238.435 17.214ZM238.435 27.186C239.431 27.186 240.217 26.982 240.793 26.574C241.369 26.154 241.657 25.59 241.657 24.882C241.657 24.186 241.369 23.64 240.793 23.244C240.217 22.836 239.431 22.632 238.435 22.632C237.439 22.632 236.659 22.836 236.095 23.244C235.531 23.64 235.249 24.186 235.249 24.882C235.249 25.59 235.531 26.154 236.095 26.574C236.659 26.982 237.439 27.186 238.435 27.186ZM253.511 22.92H250.235V26.142H248.723V22.92H245.447V21.498H248.723V18.258H250.235V21.498H253.511V22.92ZM264.209 26.934V28.5H255.155V27.276L260.285 22.326C260.909 21.726 261.329 21.21 261.545 20.778C261.761 20.334 261.869 19.89 261.869 19.446C261.869 18.786 261.635 18.276 261.167 17.916C260.711 17.544 260.051 17.358 259.187 17.358C257.795 17.358 256.721 17.814 255.965 18.726L254.741 17.664C255.233 17.064 255.875 16.596 256.667 16.26C257.471 15.924 258.365 15.756 259.349 15.756C260.669 15.756 261.719 16.074 262.499 16.71C263.279 17.334 263.669 18.186 263.669 19.266C263.669 19.938 263.525 20.574 263.237 21.174C262.949 21.774 262.403 22.458 261.599 23.226L257.747 26.934H264.209ZM273.972 22.92H270.696V26.142H269.184V22.92H265.908V21.498H269.184V18.258H270.696V21.498H273.972V22.92ZM287.128 25.404H284.734V28.5H282.988V25.404H275.986V24.144L282.43 15.9H284.374L278.2 23.856H283.042V21.12H284.734V23.856H287.128V25.404Z" fill="#205B64"/>
<path d="M330 5C330 2.23858 332.239 0 335 0H405C407.761 0 410 2.23858 410 5V40C410 42.7614 407.761 45 405 45H335C332.239 45 330 42.7614 330 40V5Z" fill="#9DD765"/>
<path d="M361.304 25.404H358.91V28.5H357.164V25.404H350.162V24.144L356.606 15.9H358.55L352.376 23.856H357.218V21.12H358.91V23.856H361.304V25.404ZM370.964 22.92H367.688V26.142H366.176V22.92H362.9V21.498H366.176V18.258H367.688V21.498H370.964V22.92ZM376.624 15.9V28.5H374.842V17.466H371.998V15.9H376.624ZM384.529 28.644C383.533 28.644 382.645 28.392 381.865 27.888C381.097 27.372 380.491 26.628 380.047 25.656C379.603 24.684 379.381 23.532 379.381 22.2C379.381 20.868 379.603 19.716 380.047 18.744C380.491 17.772 381.097 17.034 381.865 16.53C382.645 16.014 383.533 15.756 384.529 15.756C385.513 15.756 386.389 16.014 387.157 16.53C387.937 17.034 388.549 17.772 388.993 18.744C389.437 19.716 389.659 20.868 389.659 22.2C389.659 23.532 389.437 24.684 388.993 25.656C388.549 26.628 387.937 27.372 387.157 27.888C386.389 28.392 385.513 28.644 384.529 28.644ZM384.529 27.042C385.537 27.042 386.341 26.628 386.941 25.8C387.553 24.972 387.859 23.772 387.859 22.2C387.859 20.628 387.553 19.428 386.941 18.6C386.341 17.772 385.537 17.358 384.529 17.358C383.509 17.358 382.693 17.772 382.081 18.6C381.481 19.428 381.181 20.628 381.181 22.2C381.181 23.772 381.481 24.972 382.081 25.8C382.693 26.628 383.509 27.042 384.529 27.042Z" fill="#205B64"/>
<path d="M440 5C440 2.23858 442.239 0 445 0H515C517.761 0 520 2.23858 520 5V40C520 42.7614 517.761 45 515 45H445C442.239 45 440 42.7614 440 40V5Z" fill="#9DD765"/>
<path d="M468.928 15.756C470.62 15.756 471.922 16.302 472.834 17.394C473.758 18.486 474.22 20.034 474.22 22.038C474.22 23.442 473.968 24.642 473.464 25.638C472.972 26.622 472.276 27.372 471.376 27.888C470.488 28.392 469.45 28.644 468.262 28.644C467.65 28.644 467.074 28.584 466.534 28.464C465.994 28.332 465.526 28.146 465.13 27.906L465.814 26.502C466.426 26.898 467.236 27.096 468.244 27.096C469.552 27.096 470.572 26.694 471.304 25.89C472.048 25.074 472.42 23.892 472.42 22.344V21.894C472.06 22.434 471.562 22.848 470.926 23.136C470.29 23.412 469.576 23.55 468.784 23.55C467.956 23.55 467.212 23.394 466.552 23.082C465.904 22.77 465.394 22.326 465.022 21.75C464.662 21.162 464.482 20.49 464.482 19.734C464.482 18.942 464.674 18.246 465.058 17.646C465.454 17.046 465.988 16.584 466.66 16.26C467.332 15.924 468.088 15.756 468.928 15.756ZM469.09 22.092C469.654 22.092 470.158 21.984 470.602 21.768C471.046 21.552 471.388 21.258 471.628 20.886C471.88 20.514 472.006 20.1 472.006 19.644C472.006 19.2 471.886 18.798 471.646 18.438C471.418 18.066 471.076 17.772 470.62 17.556C470.176 17.328 469.636 17.214 469 17.214C468.172 17.214 467.5 17.436 466.984 17.88C466.48 18.324 466.228 18.918 466.228 19.662C466.228 20.406 466.486 21 467.002 21.444C467.518 21.876 468.214 22.092 469.09 22.092ZM484.48 22.92H481.204V26.142H479.692V22.92H476.416V21.498H479.692V18.258H481.204V21.498H484.48V22.92ZM490.151 20.922C491.951 20.922 493.271 21.264 494.111 21.948C494.963 22.62 495.389 23.544 495.389 24.72C495.389 25.464 495.209 26.136 494.849 26.736C494.501 27.324 493.967 27.792 493.247 28.14C492.539 28.476 491.663 28.644 490.619 28.644C489.731 28.644 488.873 28.512 488.045 28.248C487.217 27.972 486.533 27.594 485.993 27.114L486.821 25.692C487.253 26.1 487.805 26.43 488.477 26.682C489.149 26.922 489.857 27.042 490.601 27.042C491.549 27.042 492.281 26.844 492.797 26.448C493.325 26.04 493.589 25.488 493.589 24.792C493.589 24.036 493.301 23.466 492.725 23.082C492.149 22.686 491.165 22.488 489.773 22.488H486.911L487.577 15.9H494.687V17.466H489.089L488.747 20.922H490.151Z" fill="#205B64"/>
</svg>
