<svg width="789" height="212" viewBox="0 0 789 212" fill="none" xmlns="http://www.w3.org/2000/svg">
<g filter="url(#filter0_d_5636_112948)">
<rect x="19" y="19" width="170" height="170" rx="10" fill="white"/>
<rect x="20" y="20" width="168" height="168" rx="9" stroke="#369CB7" stroke-width="2"/>
</g>
<g clip-path="url(#clip0_5636_112948)">
<path d="M81.782 120.266H65.7637V124.986H81.782V120.266Z" fill="#878787"/>
<path d="M142.981 120.266H126.963V124.986H142.981V120.266Z" fill="#878787"/>
<path d="M141.848 122.236H66.3875C62.8609 122.236 60 119.244 60 115.544V81.6912C60 77.9912 62.8609 75 66.3875 75H141.862C145.374 75 148.235 77.9912 148.235 81.6912V115.544C148.235 119.244 145.374 122.236 141.848 122.236Z" fill="#00C9DC"/>
<path d="M141.975 83.4637V113.248C141.975 114.808 140.771 116.069 139.284 116.069H69.9566C68.4695 116.069 67.2656 114.808 67.2656 113.248V83.4637C67.2656 81.9043 68.4695 80.6426 69.9566 80.6426H139.298C140.771 80.6426 141.975 81.9043 141.975 83.4637Z" fill="#081D4F"/>
<path d="M139.285 116.139H69.9571C68.4275 116.139 67.1953 114.849 67.1953 113.247V83.4623C67.1953 81.8745 68.4417 80.5703 69.9571 80.5703H139.299C140.829 80.5703 142.061 81.8604 142.061 83.4623V113.247C142.047 114.849 140.814 116.139 139.285 116.139ZM69.9571 80.7121C68.5125 80.7121 67.337 81.9454 67.337 83.4623V113.247C67.337 114.764 68.5125 115.997 69.9571 115.997H139.299C140.744 115.997 141.919 114.764 141.919 113.247V83.4623C141.919 81.9454 140.744 80.7121 139.299 80.7121H69.9571Z" fill="#021438"/>
<g opacity="0.13">
<path opacity="0.3" d="M119.286 80.6426L80.7062 116.069H70.4239C68.866 116.069 67.6055 114.808 67.6055 113.248V105.182C74.7719 98.0937 84.0204 88.9074 92.334 80.6426H119.286Z" fill="white"/>
</g>
<g opacity="0.13">
<path opacity="0.3" d="M141.975 83.4637V99.5254C137.74 103.707 130.46 110.299 123.931 116.069H99.2734C107.19 108.045 124.271 90.7645 134.468 80.6426H139.284C140.771 80.6426 141.975 81.9043 141.975 83.4637Z" fill="white"/>
</g>
<path d="M72.0519 108.649L73.9301 106.679H78.4343L80.2031 108.649H72.0519ZM71.5048 99.6952L73.4742 101.592V106.059L71.5048 107.846V99.6952ZM80.7867 107.846L78.8172 105.968V101.482L80.7867 99.6952V107.846ZM72.0337 90.1216H80.1849L78.3796 92.091H73.9119L72.0337 90.1216ZM71.4501 99.057V90.9057L73.4195 92.6746V97.197L71.4501 99.057ZM80.7319 90.9057V99.057L78.7625 97.2881V92.784L80.7319 90.9057ZM86.6914 108.649L88.5331 106.679H93.0555L94.8244 108.649H86.6914ZM95.3897 107.846L93.4385 105.968V101.482L95.3897 99.6952V107.846ZM88.2231 100.352C87.8098 100.011 87.3843 99.677 86.9467 99.3487L88.2231 98.3823H93.2014L94.4779 99.3487L93.2014 100.352H88.2231ZM86.6367 90.1216H94.8061L93.0191 92.091H88.5149L86.6367 90.1216ZM95.335 90.9057V99.057L93.3838 97.2881V92.784L95.335 90.9057ZM104.139 99.5128H106.437V101.792H104.139V99.5128ZM104.139 94.0969H106.437V96.4311H104.139V94.0969Z" fill="white"/>
<path d="M113.113 108.649L114.955 106.679H119.477L121.246 108.649H113.113ZM121.811 107.846L119.86 105.968V101.482L121.811 99.6952V107.846ZM114.645 100.352C114.231 100.011 113.806 99.677 113.368 99.3487L114.645 98.3823H119.623L120.899 99.3487L119.623 100.352H114.645ZM113.058 90.1216H121.228L119.441 92.091H114.936L113.058 90.1216ZM121.756 90.9057V99.057L119.805 97.2881V92.784L121.756 90.9057ZM127.643 108.649L129.521 106.679H134.025L135.794 108.649H127.643ZM127.096 99.6952L129.065 101.592V106.059L127.096 107.846V99.6952ZM136.378 107.846L134.408 105.968V101.482L136.378 99.6952V107.846ZM127.625 90.1216H135.776L133.971 92.091H129.503L127.625 90.1216ZM127.041 99.057V90.9057L129.011 92.6746V97.197L127.041 99.057ZM136.323 90.9057V99.057L134.354 97.2881V92.784L136.323 90.9057Z" fill="white"/>
</g>
<rect x="219" y="19" width="170" height="170" rx="10" fill="white"/>
<path d="M303.999 61.293H303.604V65.9196H303.999V61.293Z" fill="black"/>
<path d="M303.999 141.765H303.604V146.391H303.999V141.765Z" fill="black"/>
<path d="M284.663 71.103L285.006 70.9053L282.693 66.8986L282.35 67.0963L284.663 71.103Z" fill="black"/>
<path d="M324.896 140.755L325.238 140.558L322.925 136.551L322.582 136.749L324.896 140.755Z" fill="black"/>
<path d="M270.847 85.0514L271.045 84.709L267.038 82.3956L266.841 82.7381L270.847 85.0514Z" fill="black"/>
<path d="M340.558 125.286L340.756 124.943L336.749 122.63L336.551 122.972L340.558 125.286Z" fill="black"/>
<path d="M265.879 103.644H261.252V104.039H265.879V103.644Z" fill="black"/>
<path d="M346.351 103.645H341.725V104.04H346.351V103.645Z" fill="black"/>
<path d="M271.061 122.965L270.863 122.622L266.857 124.935L267.054 125.278L271.061 122.965Z" fill="black"/>
<path d="M340.739 82.7526L340.541 82.4102L336.534 84.7235L336.732 85.0659L340.739 82.7526Z" fill="black"/>
<path d="M285.001 136.785L284.658 136.587L282.345 140.594L282.687 140.791L285.001 136.785Z" fill="black"/>
<path d="M325.253 67.0835L324.91 66.8857L322.597 70.8924L322.939 71.0902L325.253 67.0835Z" fill="black"/>
<path d="M299.449 57.9345V57.0645H300.595V52.7146C300.161 52.9124 299.765 53.0705 299.33 53.2287V52.161C299.765 52.0424 300.24 51.8051 300.714 51.5283H301.703V57.0645H302.85V57.9345H299.449Z" fill="black"/>
<path d="M306.367 51.4468C306.961 51.4468 307.435 51.6445 307.791 52.0004C308.147 52.3563 308.305 52.8704 308.305 53.5426C308.305 53.7008 308.305 53.8194 308.265 53.9381C308.226 54.0567 308.226 54.1753 308.186 54.294C308.147 54.4126 308.107 54.4917 308.028 54.6103C307.949 54.7289 307.91 54.808 307.87 54.8871C307.83 54.9662 307.751 55.0453 307.672 55.1639C307.593 55.2826 307.514 55.3616 307.475 55.4012C307.435 55.4407 307.356 55.5198 307.237 55.6385L305.972 56.983H308.305V57.8925H304.588V57.1016L306.446 55.0453C306.605 54.8871 306.684 54.7685 306.763 54.6894C306.802 54.6103 306.881 54.5312 307 54.4126C307.079 54.294 307.158 54.1753 307.198 54.1358C307.237 54.0567 307.277 53.9776 307.277 53.859C307.316 53.7403 307.316 53.6612 307.316 53.5426C307.316 53.4635 307.316 53.3449 307.277 53.1867C307.237 53.0285 307.198 52.8704 307.158 52.7913C307.079 52.6726 307.04 52.5936 306.921 52.5145C306.842 52.4354 306.723 52.3958 306.644 52.3958C306.565 52.3563 306.446 52.3563 306.328 52.3563C306.249 52.3563 306.17 52.3563 306.091 52.3958C306.011 52.3958 305.932 52.4354 305.853 52.4354C305.774 52.4749 305.695 52.4749 305.616 52.5145C305.537 52.554 305.458 52.554 305.379 52.5936C305.3 52.6331 305.26 52.6726 305.181 52.6726C305.102 52.7122 305.062 52.7517 305.023 52.7517C304.983 52.7913 304.944 52.7913 304.904 52.8308C304.865 52.8704 304.825 52.8704 304.825 52.8704H304.786L304.43 52.0004C304.469 52.0004 304.469 51.9608 304.509 51.9213C304.548 51.8818 304.627 51.8422 304.786 51.7631C304.944 51.684 305.062 51.6445 305.221 51.5654C305.379 51.5259 305.576 51.4468 305.774 51.4072C305.932 51.4468 306.13 51.4468 306.367 51.4468Z" fill="black"/>
<path d="M303.562 156.556C303.048 156.556 302.613 156.437 302.257 156.16C301.901 155.883 301.624 155.527 301.466 155.053C301.308 154.578 301.229 154.025 301.229 153.392C301.229 152.917 301.268 152.482 301.387 152.048C301.505 151.652 301.664 151.257 301.861 150.94C302.059 150.624 302.336 150.387 302.692 150.189C303.008 149.991 303.403 149.912 303.799 149.912C304.471 149.912 305.025 150.11 305.42 150.466L305.064 151.296C304.669 150.98 304.273 150.861 303.799 150.861C303.403 150.861 303.087 151.059 302.81 151.415C302.533 151.81 302.415 152.285 302.375 152.838C302.692 152.403 303.127 152.166 303.641 152.166C304.273 152.166 304.788 152.364 305.143 152.759C305.499 153.155 305.697 153.669 305.697 154.302C305.697 154.934 305.499 155.448 305.104 155.883C304.708 156.358 304.194 156.556 303.562 156.556ZM303.522 155.606C303.838 155.606 304.076 155.488 304.273 155.251C304.471 155.013 304.55 154.737 304.55 154.381C304.55 154.025 304.471 153.708 304.273 153.511C304.115 153.273 303.838 153.155 303.522 153.155C303.166 153.155 302.889 153.273 302.692 153.511C302.494 153.748 302.375 154.025 302.375 154.42C302.375 154.618 302.415 154.776 302.454 154.934C302.533 155.092 302.613 155.211 302.692 155.33C302.81 155.448 302.929 155.488 303.048 155.567C303.245 155.567 303.403 155.606 303.522 155.606Z" fill="black"/>
<path d="M255.358 106.927C254.884 106.927 254.33 106.769 253.697 106.492L254.093 105.583C254.488 105.82 254.844 105.978 255.239 105.978C255.437 105.978 255.635 105.939 255.793 105.859C255.951 105.78 256.109 105.662 256.268 105.543C256.386 105.385 256.505 105.187 256.584 104.95C256.663 104.713 256.703 104.396 256.703 104.08V103.961C256.426 104.357 255.991 104.554 255.437 104.554C254.804 104.554 254.33 104.357 253.934 103.961C253.579 103.566 253.381 103.091 253.381 102.459C253.381 101.826 253.579 101.312 253.974 100.916C254.369 100.521 254.923 100.323 255.556 100.323C256.268 100.323 256.821 100.6 257.217 101.114C257.612 101.628 257.81 102.419 257.81 103.447C257.81 104.119 257.731 104.752 257.533 105.266C257.335 105.78 257.058 106.215 256.703 106.492C256.307 106.808 255.872 106.927 255.358 106.927ZM255.516 103.645C255.872 103.645 256.149 103.526 256.347 103.329C256.544 103.131 256.663 102.815 256.663 102.38C256.663 102.063 256.584 101.826 256.386 101.589C256.188 101.391 255.951 101.272 255.595 101.272C255.239 101.272 255.002 101.391 254.765 101.589C254.567 101.826 254.449 102.103 254.449 102.459C254.449 102.815 254.528 103.091 254.725 103.289C254.923 103.526 255.2 103.645 255.516 103.645Z" fill="black"/>
<path d="M352.517 106.967C352.279 106.967 352.042 106.967 351.805 106.927C351.568 106.888 351.41 106.848 351.251 106.809C351.093 106.769 350.975 106.69 350.856 106.65C350.737 106.611 350.658 106.532 350.619 106.532L350.54 106.492L350.895 105.662C350.935 105.701 351.014 105.741 351.133 105.78C351.251 105.82 351.41 105.899 351.686 105.978C351.924 106.057 352.161 106.097 352.398 106.097C352.794 106.097 353.11 106.018 353.308 105.82C353.505 105.622 353.624 105.385 353.624 105.069C353.624 104.752 353.466 104.475 353.189 104.317C352.912 104.159 352.517 104.08 352.003 104.08H351.845H351.568V103.131H351.884C352.438 103.131 352.833 103.052 353.07 102.894C353.308 102.735 353.426 102.498 353.426 102.103C353.426 101.865 353.308 101.668 353.11 101.549C352.873 101.43 352.635 101.351 352.359 101.351C352.24 101.351 352.082 101.351 351.963 101.391C351.845 101.43 351.726 101.43 351.607 101.47C351.489 101.51 351.41 101.549 351.37 101.589C351.291 101.628 351.251 101.668 351.172 101.707C351.093 101.747 351.054 101.786 351.014 101.786L350.5 100.996C350.856 100.758 351.133 100.6 351.41 100.521C351.686 100.442 352.042 100.402 352.477 100.402C352.754 100.402 352.991 100.442 353.229 100.521C353.466 100.6 353.703 100.679 353.901 100.837C354.099 100.956 354.257 101.154 354.375 101.351C354.494 101.549 354.534 101.826 354.534 102.103C354.534 102.34 354.494 102.538 354.415 102.735C354.336 102.933 354.217 103.131 354.019 103.289C353.822 103.447 353.624 103.566 353.347 103.605C353.782 103.685 354.099 103.843 354.336 104.159C354.573 104.436 354.692 104.792 354.692 105.148C354.692 105.424 354.652 105.701 354.534 105.939C354.415 106.176 354.257 106.374 354.059 106.532C353.861 106.69 353.624 106.809 353.387 106.888C353.07 106.927 352.794 106.967 352.517 106.967Z" fill="black"/>
<path d="M327.369 65.5639V64.6939H328.515V60.344C328.08 60.5418 327.685 60.6999 327.25 60.8581V59.83C327.685 59.7113 328.16 59.4741 328.634 59.1973H329.623V64.7335H330.769V65.6034H327.369V65.5639Z" fill="black"/>
<path d="M344.57 74.3423C345.164 74.3423 345.638 74.54 345.994 74.8959C346.35 75.2518 346.508 75.7659 346.508 76.4381C346.508 76.5963 346.508 76.7149 346.469 76.8336C346.429 76.9522 346.429 77.0708 346.39 77.1895C346.35 77.3081 346.31 77.3872 346.231 77.5058C346.152 77.6244 346.113 77.7035 346.073 77.7826C346.034 77.8617 345.955 77.9408 345.875 78.0594C345.796 78.1781 345.717 78.2572 345.678 78.2967C345.638 78.3362 345.559 78.4153 345.44 78.534L344.175 79.8785H346.508V80.788H342.791V79.9971L344.65 77.9408C344.808 77.7826 344.887 77.664 344.966 77.5849C345.005 77.5058 345.085 77.4267 345.203 77.3081C345.282 77.1895 345.361 77.0708 345.401 77.0313C345.44 76.9522 345.48 76.8731 345.48 76.7545C345.52 76.6358 345.52 76.5568 345.52 76.4381C345.52 76.359 345.52 76.2404 345.48 76.0822C345.44 75.924 345.401 75.7659 345.361 75.6868C345.282 75.5681 345.243 75.4891 345.124 75.41C345.045 75.3309 344.926 75.2913 344.847 75.2913C344.768 75.2518 344.65 75.2518 344.531 75.2518C344.452 75.2518 344.373 75.2518 344.294 75.2913C344.215 75.2913 344.135 75.3309 344.056 75.3309C343.977 75.3704 343.898 75.3704 343.819 75.41C343.74 75.4495 343.661 75.4495 343.582 75.4891C343.503 75.5286 343.463 75.5681 343.384 75.5681C343.305 75.6077 343.266 75.6472 343.226 75.6472C343.186 75.6868 343.147 75.6868 343.107 75.7263C343.068 75.7659 343.028 75.7659 343.028 75.7659H342.989L342.633 74.8959C342.672 74.8959 342.672 74.8564 342.712 74.8168C342.751 74.7773 342.831 74.7377 342.989 74.6586C343.147 74.5795 343.266 74.54 343.424 74.4609C343.582 74.4214 343.78 74.3423 343.977 74.3027C344.135 74.3818 344.333 74.3423 344.57 74.3423Z" fill="black"/>
<path d="M345.441 133.185V131.524H342.752V130.694L345.322 126.818H346.588V130.654H347.576V131.524H346.588V133.185H345.441ZM343.938 130.615H345.441V128.202C345.362 128.321 344.887 129.112 343.938 130.615Z" fill="black"/>
<path d="M328.989 148.725C328.634 148.725 328.278 148.646 327.922 148.488C327.566 148.33 327.249 148.132 326.973 147.855L327.566 147.025C327.764 147.262 328.001 147.46 328.238 147.578C328.475 147.697 328.752 147.776 328.989 147.776C329.306 147.776 329.583 147.657 329.82 147.46C330.057 147.262 330.176 146.946 330.176 146.55C330.176 146.234 330.097 145.957 329.938 145.759C329.78 145.522 329.583 145.443 329.306 145.443C328.95 145.443 328.713 145.522 328.554 145.72L327.447 145.561V142.279H331.006V143.228H328.436L328.396 144.85C328.594 144.573 328.989 144.454 329.543 144.454C330.018 144.454 330.453 144.652 330.808 145.087C331.164 145.482 331.323 145.996 331.323 146.629C331.323 146.906 331.283 147.183 331.204 147.42C331.125 147.657 331.006 147.855 330.848 148.013C330.69 148.171 330.532 148.33 330.334 148.448C330.136 148.567 329.938 148.646 329.701 148.725C329.464 148.685 329.227 148.725 328.989 148.725Z" fill="black"/>
<path d="M276.357 148.607L278.769 143.15H275.605V142.24H280.034V143.11L277.504 148.646H276.357V148.607Z" fill="black"/>
<path d="M262.872 133.383C262.437 133.383 262.081 133.304 261.765 133.185C261.449 133.027 261.172 132.829 260.974 132.552C260.776 132.275 260.697 131.959 260.697 131.564C260.697 131.208 260.776 130.891 260.974 130.615C261.172 130.338 261.449 130.101 261.765 129.942C261.132 129.586 260.816 129.072 260.816 128.479C260.816 127.965 261.014 127.53 261.37 127.253C261.765 126.937 262.239 126.818 262.833 126.818C263.465 126.818 263.979 126.977 264.335 127.293C264.691 127.609 264.889 128.044 264.889 128.558C264.889 129.191 264.573 129.705 263.94 129.982C264.256 130.14 264.494 130.377 264.691 130.654C264.889 130.971 265.008 131.287 265.008 131.603C265.008 131.959 264.889 132.315 264.691 132.592C264.494 132.869 264.217 133.066 263.9 133.225C263.624 133.343 263.268 133.383 262.872 133.383ZM262.872 132.434C263.189 132.434 263.465 132.355 263.624 132.196C263.821 132.038 263.9 131.801 263.9 131.485C263.9 131.247 263.821 131.01 263.624 130.773C263.426 130.536 263.189 130.417 262.912 130.338C262.595 130.417 262.358 130.536 262.16 130.773C261.963 130.971 261.844 131.247 261.844 131.524C261.844 131.801 261.923 132.038 262.121 132.196C262.279 132.355 262.556 132.434 262.872 132.434ZM262.872 129.547C263.149 129.468 263.386 129.349 263.544 129.151C263.703 128.993 263.782 128.756 263.782 128.519C263.782 128.281 263.703 128.123 263.505 128.005C263.347 127.886 263.109 127.807 262.833 127.807C262.556 127.807 262.319 127.886 262.16 128.005C262.002 128.123 261.923 128.321 261.923 128.598C261.923 128.835 262.002 129.033 262.16 129.231C262.358 129.31 262.556 129.468 262.872 129.547Z" fill="black"/>
<path d="M256.861 81.1449V80.275H258.008V75.9251C257.573 76.1228 257.177 76.281 256.742 76.4392V75.411C257.177 75.2924 257.652 75.0551 258.126 74.7783H259.115V80.3145H260.262V81.1845H256.861V81.1449Z" fill="black"/>
<path d="M263.979 81.2635C263.267 81.2635 262.713 80.9472 262.318 80.354C261.922 79.7609 261.725 78.9304 261.725 77.9023C261.725 76.8741 261.922 76.0833 262.318 75.4901C262.713 74.9365 263.267 74.6201 263.979 74.6201C264.69 74.6201 265.244 74.8969 265.639 75.4901C266.035 76.0833 266.233 76.8741 266.233 77.8627C266.233 78.535 266.154 79.1282 265.995 79.6027C265.837 80.1168 265.56 80.4727 265.244 80.789C264.849 81.1054 264.453 81.2635 263.979 81.2635ZM263.979 80.2749C264.69 80.2749 265.086 79.4841 265.086 77.8627C265.086 77.5464 265.086 77.2696 265.046 76.9928C265.007 76.716 264.967 76.4787 264.888 76.281C264.809 76.0437 264.69 75.8855 264.532 75.7669C264.374 75.6483 264.216 75.5692 264.018 75.5692C263.82 75.5692 263.623 75.6483 263.465 75.7669C263.306 75.8855 263.188 76.0833 263.109 76.281C263.03 76.5182 262.95 76.7555 262.911 76.9928C262.871 77.2696 262.871 77.5464 262.871 77.8627C262.871 78.2186 262.871 78.535 262.911 78.8118C262.95 79.0886 262.99 79.3259 263.109 79.5631C263.188 79.8004 263.306 79.9586 263.465 80.0772C263.583 80.2354 263.781 80.2749 263.979 80.2749Z" fill="black"/>
<path d="M274.539 65.0497V64.1797H275.685V59.8299C275.25 60.0276 274.855 60.1858 274.42 60.344V59.2763C274.855 59.1576 275.329 58.9204 275.804 58.6436H276.793V64.1797H277.939V65.0497H274.539Z" fill="black"/>
<path d="M280.154 65.0497V64.1797H281.301V59.8299C280.866 60.0276 280.47 60.1858 280.035 60.344V59.2763C280.47 59.1576 280.945 58.9204 281.419 58.6436H282.408V64.1797H283.555V65.0497H280.154Z" fill="black"/>
<path d="M303.798 106.492C305.261 106.492 306.447 105.306 306.447 103.843C306.447 102.38 305.261 101.193 303.798 101.193C302.335 101.193 301.148 102.38 301.148 103.843C301.148 105.306 302.335 106.492 303.798 106.492Z" fill="url(#paint0_radial_5636_112948)"/>
<path d="M313.331 104.122C313.331 104.755 312.777 105.229 312.105 105.229L283 105.215L283.001 103L312.106 103.015C312.778 103.015 313.331 103.49 313.331 104.122Z" fill="black"/>
<path d="M303.477 69.252L303.187 69.2588L303.189 69.5491L303.508 111.91C303.508 111.911 303.508 111.912 303.508 111.913C303.505 112.443 303.978 112.739 304.404 112.743C304.866 112.747 305.301 112.387 305.305 111.887L305.305 111.887L305.305 111.882L304.986 69.5162L304.984 69.2165L304.684 69.2235L303.477 69.252Z" fill="#0E80A4" stroke="#0E80A4" stroke-width="0.59"/>
<path d="M303.8 105.702C304.826 105.702 305.659 104.869 305.659 103.843C305.659 102.816 304.826 101.984 303.8 101.984C302.774 101.984 301.941 102.816 301.941 103.843C301.941 104.869 302.774 105.702 303.8 105.702Z" fill="#0E80A4"/>
<path d="M304 163C336.585 163 363 136.585 363 104C363 71.4152 336.585 45 304 45C271.415 45 245 71.4152 245 104C245 136.585 271.415 163 304 163Z" stroke="#0E80A4" stroke-width="5.9" stroke-miterlimit="10"/>
<g filter="url(#filter1_d_5636_112948)">
<rect x="419" y="19" width="170" height="170" rx="10" fill="white"/>
<rect x="420" y="20" width="168" height="168" rx="9" stroke="#369CB7" stroke-width="2"/>
</g>
<path d="M503.999 61.293H503.604V65.9196H503.999V61.293Z" fill="black"/>
<path d="M503.999 141.765H503.604V146.391H503.999V141.765Z" fill="black"/>
<path d="M484.663 71.103L485.006 70.9053L482.693 66.8986L482.35 67.0963L484.663 71.103Z" fill="black"/>
<path d="M524.896 140.755L525.238 140.558L522.925 136.551L522.582 136.749L524.896 140.755Z" fill="black"/>
<path d="M470.847 85.0514L471.045 84.709L467.038 82.3956L466.841 82.7381L470.847 85.0514Z" fill="black"/>
<path d="M540.558 125.286L540.756 124.943L536.749 122.63L536.551 122.972L540.558 125.286Z" fill="black"/>
<path d="M465.879 103.644H461.252V104.039H465.879V103.644Z" fill="black"/>
<path d="M546.351 103.645H541.725V104.04H546.351V103.645Z" fill="black"/>
<path d="M471.061 122.965L470.863 122.622L466.857 124.935L467.054 125.278L471.061 122.965Z" fill="black"/>
<path d="M540.739 82.7526L540.541 82.4102L536.534 84.7235L536.732 85.0659L540.739 82.7526Z" fill="black"/>
<path d="M485.001 136.785L484.658 136.587L482.345 140.594L482.687 140.791L485.001 136.785Z" fill="black"/>
<path d="M525.253 67.0835L524.91 66.8857L522.597 70.8924L522.939 71.0902L525.253 67.0835Z" fill="black"/>
<path d="M499.449 57.9345V57.0645H500.595V52.7146C500.161 52.9124 499.765 53.0705 499.33 53.2287V52.161C499.765 52.0424 500.24 51.8051 500.714 51.5283H501.703V57.0645H502.85V57.9345H499.449Z" fill="black"/>
<path d="M506.367 51.4468C506.961 51.4468 507.435 51.6445 507.791 52.0004C508.147 52.3563 508.305 52.8704 508.305 53.5426C508.305 53.7008 508.305 53.8194 508.265 53.9381C508.226 54.0567 508.226 54.1753 508.186 54.294C508.147 54.4126 508.107 54.4917 508.028 54.6103C507.949 54.7289 507.91 54.808 507.87 54.8871C507.83 54.9662 507.751 55.0453 507.672 55.1639C507.593 55.2826 507.514 55.3616 507.475 55.4012C507.435 55.4407 507.356 55.5198 507.237 55.6385L505.972 56.983H508.305V57.8925H504.588V57.1016L506.446 55.0453C506.605 54.8871 506.684 54.7685 506.763 54.6894C506.802 54.6103 506.881 54.5312 507 54.4126C507.079 54.294 507.158 54.1753 507.198 54.1358C507.237 54.0567 507.277 53.9776 507.277 53.859C507.316 53.7403 507.316 53.6612 507.316 53.5426C507.316 53.4635 507.316 53.3449 507.277 53.1867C507.237 53.0285 507.198 52.8704 507.158 52.7913C507.079 52.6726 507.04 52.5936 506.921 52.5145C506.842 52.4354 506.723 52.3958 506.644 52.3958C506.565 52.3563 506.446 52.3563 506.328 52.3563C506.249 52.3563 506.17 52.3563 506.091 52.3958C506.011 52.3958 505.932 52.4354 505.853 52.4354C505.774 52.4749 505.695 52.4749 505.616 52.5145C505.537 52.554 505.458 52.554 505.379 52.5936C505.3 52.6331 505.26 52.6726 505.181 52.6726C505.102 52.7122 505.062 52.7517 505.023 52.7517C504.983 52.7913 504.944 52.7913 504.904 52.8308C504.865 52.8704 504.825 52.8704 504.825 52.8704H504.786L504.43 52.0004C504.469 52.0004 504.469 51.9608 504.509 51.9213C504.548 51.8818 504.627 51.8422 504.786 51.7631C504.944 51.684 505.062 51.6445 505.221 51.5654C505.379 51.5259 505.576 51.4468 505.774 51.4072C505.932 51.4468 506.13 51.4468 506.367 51.4468Z" fill="black"/>
<path d="M503.562 156.556C503.048 156.556 502.613 156.437 502.257 156.16C501.901 155.883 501.624 155.527 501.466 155.053C501.308 154.578 501.229 154.025 501.229 153.392C501.229 152.917 501.268 152.482 501.387 152.048C501.505 151.652 501.664 151.257 501.861 150.94C502.059 150.624 502.336 150.387 502.692 150.189C503.008 149.991 503.403 149.912 503.799 149.912C504.471 149.912 505.025 150.11 505.42 150.466L505.064 151.296C504.669 150.98 504.273 150.861 503.799 150.861C503.403 150.861 503.087 151.059 502.81 151.415C502.533 151.81 502.415 152.285 502.375 152.838C502.692 152.403 503.127 152.166 503.641 152.166C504.273 152.166 504.788 152.364 505.143 152.759C505.499 153.155 505.697 153.669 505.697 154.302C505.697 154.934 505.499 155.448 505.104 155.883C504.708 156.358 504.194 156.556 503.562 156.556ZM503.522 155.606C503.838 155.606 504.076 155.488 504.273 155.251C504.471 155.013 504.55 154.737 504.55 154.381C504.55 154.025 504.471 153.708 504.273 153.511C504.115 153.273 503.838 153.155 503.522 153.155C503.166 153.155 502.889 153.273 502.692 153.511C502.494 153.748 502.375 154.025 502.375 154.42C502.375 154.618 502.415 154.776 502.454 154.934C502.533 155.092 502.613 155.211 502.692 155.33C502.81 155.448 502.929 155.488 503.048 155.567C503.245 155.567 503.403 155.606 503.522 155.606Z" fill="black"/>
<path d="M455.358 106.927C454.884 106.927 454.33 106.769 453.697 106.492L454.093 105.583C454.488 105.82 454.844 105.978 455.239 105.978C455.437 105.978 455.635 105.939 455.793 105.859C455.951 105.78 456.109 105.662 456.268 105.543C456.386 105.385 456.505 105.187 456.584 104.95C456.663 104.713 456.703 104.396 456.703 104.08V103.961C456.426 104.357 455.991 104.554 455.437 104.554C454.804 104.554 454.33 104.357 453.934 103.961C453.579 103.566 453.381 103.091 453.381 102.459C453.381 101.826 453.579 101.312 453.974 100.916C454.369 100.521 454.923 100.323 455.556 100.323C456.268 100.323 456.821 100.6 457.217 101.114C457.612 101.628 457.81 102.419 457.81 103.447C457.81 104.119 457.731 104.752 457.533 105.266C457.335 105.78 457.058 106.215 456.703 106.492C456.307 106.808 455.872 106.927 455.358 106.927ZM455.516 103.645C455.872 103.645 456.149 103.526 456.347 103.329C456.544 103.131 456.663 102.815 456.663 102.38C456.663 102.063 456.584 101.826 456.386 101.589C456.188 101.391 455.951 101.272 455.595 101.272C455.239 101.272 455.002 101.391 454.765 101.589C454.567 101.826 454.449 102.103 454.449 102.459C454.449 102.815 454.528 103.091 454.725 103.289C454.923 103.526 455.2 103.645 455.516 103.645Z" fill="black"/>
<path d="M552.517 106.967C552.279 106.967 552.042 106.967 551.805 106.927C551.568 106.888 551.41 106.848 551.251 106.809C551.093 106.769 550.975 106.69 550.856 106.65C550.737 106.611 550.658 106.532 550.619 106.532L550.54 106.492L550.895 105.662C550.935 105.701 551.014 105.741 551.133 105.78C551.251 105.82 551.41 105.899 551.686 105.978C551.924 106.057 552.161 106.097 552.398 106.097C552.794 106.097 553.11 106.018 553.308 105.82C553.505 105.622 553.624 105.385 553.624 105.069C553.624 104.752 553.466 104.475 553.189 104.317C552.912 104.159 552.517 104.08 552.003 104.08H551.845H551.568V103.131H551.884C552.438 103.131 552.833 103.052 553.07 102.894C553.308 102.735 553.426 102.498 553.426 102.103C553.426 101.865 553.308 101.668 553.11 101.549C552.873 101.43 552.635 101.351 552.359 101.351C552.24 101.351 552.082 101.351 551.963 101.391C551.845 101.43 551.726 101.43 551.607 101.47C551.489 101.51 551.41 101.549 551.37 101.589C551.291 101.628 551.251 101.668 551.172 101.707C551.093 101.747 551.054 101.786 551.014 101.786L550.5 100.996C550.856 100.758 551.133 100.6 551.41 100.521C551.686 100.442 552.042 100.402 552.477 100.402C552.754 100.402 552.991 100.442 553.229 100.521C553.466 100.6 553.703 100.679 553.901 100.837C554.099 100.956 554.257 101.154 554.375 101.351C554.494 101.549 554.534 101.826 554.534 102.103C554.534 102.34 554.494 102.538 554.415 102.735C554.336 102.933 554.217 103.131 554.019 103.289C553.822 103.447 553.624 103.566 553.347 103.605C553.782 103.685 554.099 103.843 554.336 104.159C554.573 104.436 554.692 104.792 554.692 105.148C554.692 105.424 554.652 105.701 554.534 105.939C554.415 106.176 554.257 106.374 554.059 106.532C553.861 106.69 553.624 106.809 553.387 106.888C553.07 106.927 552.794 106.967 552.517 106.967Z" fill="black"/>
<path d="M527.369 65.5639V64.6939H528.515V60.344C528.08 60.5418 527.685 60.6999 527.25 60.8581V59.83C527.685 59.7113 528.16 59.4741 528.634 59.1973H529.623V64.7335H530.769V65.6034H527.369V65.5639Z" fill="black"/>
<path d="M544.57 74.3423C545.164 74.3423 545.638 74.54 545.994 74.8959C546.35 75.2518 546.508 75.7659 546.508 76.4381C546.508 76.5963 546.508 76.7149 546.469 76.8336C546.429 76.9522 546.429 77.0708 546.39 77.1895C546.35 77.3081 546.31 77.3872 546.231 77.5058C546.152 77.6244 546.113 77.7035 546.073 77.7826C546.034 77.8617 545.955 77.9408 545.875 78.0594C545.796 78.1781 545.717 78.2572 545.678 78.2967C545.638 78.3362 545.559 78.4153 545.44 78.534L544.175 79.8785H546.508V80.788H542.791V79.9971L544.65 77.9408C544.808 77.7826 544.887 77.664 544.966 77.5849C545.005 77.5058 545.085 77.4267 545.203 77.3081C545.282 77.1895 545.361 77.0708 545.401 77.0313C545.44 76.9522 545.48 76.8731 545.48 76.7545C545.52 76.6358 545.52 76.5568 545.52 76.4381C545.52 76.359 545.52 76.2404 545.48 76.0822C545.44 75.924 545.401 75.7659 545.361 75.6868C545.282 75.5681 545.243 75.4891 545.124 75.41C545.045 75.3309 544.926 75.2913 544.847 75.2913C544.768 75.2518 544.65 75.2518 544.531 75.2518C544.452 75.2518 544.373 75.2518 544.294 75.2913C544.215 75.2913 544.135 75.3309 544.056 75.3309C543.977 75.3704 543.898 75.3704 543.819 75.41C543.74 75.4495 543.661 75.4495 543.582 75.4891C543.503 75.5286 543.463 75.5681 543.384 75.5681C543.305 75.6077 543.266 75.6472 543.226 75.6472C543.186 75.6868 543.147 75.6868 543.107 75.7263C543.068 75.7659 543.028 75.7659 543.028 75.7659H542.989L542.633 74.8959C542.672 74.8959 542.672 74.8564 542.712 74.8168C542.751 74.7773 542.831 74.7377 542.989 74.6586C543.147 74.5795 543.266 74.54 543.424 74.4609C543.582 74.4214 543.78 74.3423 543.977 74.3027C544.135 74.3818 544.333 74.3423 544.57 74.3423Z" fill="black"/>
<path d="M545.441 133.185V131.524H542.752V130.694L545.322 126.818H546.588V130.654H547.576V131.524H546.588V133.185H545.441ZM543.938 130.615H545.441V128.202C545.362 128.321 544.887 129.112 543.938 130.615Z" fill="black"/>
<path d="M528.989 148.725C528.634 148.725 528.278 148.646 527.922 148.488C527.566 148.33 527.249 148.132 526.973 147.855L527.566 147.025C527.764 147.262 528.001 147.46 528.238 147.578C528.475 147.697 528.752 147.776 528.989 147.776C529.306 147.776 529.583 147.657 529.82 147.46C530.057 147.262 530.176 146.946 530.176 146.55C530.176 146.234 530.097 145.957 529.938 145.759C529.78 145.522 529.583 145.443 529.306 145.443C528.95 145.443 528.713 145.522 528.554 145.72L527.447 145.561V142.279H531.006V143.228H528.436L528.396 144.85C528.594 144.573 528.989 144.454 529.543 144.454C530.018 144.454 530.453 144.652 530.808 145.087C531.164 145.482 531.323 145.996 531.323 146.629C531.323 146.906 531.283 147.183 531.204 147.42C531.125 147.657 531.006 147.855 530.848 148.013C530.69 148.171 530.532 148.33 530.334 148.448C530.136 148.567 529.938 148.646 529.701 148.725C529.464 148.685 529.227 148.725 528.989 148.725Z" fill="black"/>
<path d="M476.357 148.607L478.769 143.15H475.605V142.24H480.034V143.11L477.504 148.646H476.357V148.607Z" fill="black"/>
<path d="M462.872 133.383C462.437 133.383 462.081 133.304 461.765 133.185C461.449 133.027 461.172 132.829 460.974 132.552C460.776 132.275 460.697 131.959 460.697 131.564C460.697 131.208 460.776 130.891 460.974 130.615C461.172 130.338 461.449 130.101 461.765 129.942C461.132 129.586 460.816 129.072 460.816 128.479C460.816 127.965 461.014 127.53 461.37 127.253C461.765 126.937 462.239 126.818 462.833 126.818C463.465 126.818 463.979 126.977 464.335 127.293C464.691 127.609 464.889 128.044 464.889 128.558C464.889 129.191 464.573 129.705 463.94 129.982C464.256 130.14 464.494 130.377 464.691 130.654C464.889 130.971 465.008 131.287 465.008 131.603C465.008 131.959 464.889 132.315 464.691 132.592C464.494 132.869 464.217 133.066 463.9 133.225C463.624 133.343 463.268 133.383 462.872 133.383ZM462.872 132.434C463.189 132.434 463.465 132.355 463.624 132.196C463.821 132.038 463.9 131.801 463.9 131.485C463.9 131.247 463.821 131.01 463.624 130.773C463.426 130.536 463.189 130.417 462.912 130.338C462.595 130.417 462.358 130.536 462.16 130.773C461.963 130.971 461.844 131.247 461.844 131.524C461.844 131.801 461.923 132.038 462.121 132.196C462.279 132.355 462.556 132.434 462.872 132.434ZM462.872 129.547C463.149 129.468 463.386 129.349 463.544 129.151C463.703 128.993 463.782 128.756 463.782 128.519C463.782 128.281 463.703 128.123 463.505 128.005C463.347 127.886 463.109 127.807 462.833 127.807C462.556 127.807 462.319 127.886 462.16 128.005C462.002 128.123 461.923 128.321 461.923 128.598C461.923 128.835 462.002 129.033 462.16 129.231C462.358 129.31 462.556 129.468 462.872 129.547Z" fill="black"/>
<path d="M456.861 81.1449V80.275H458.008V75.9251C457.573 76.1228 457.177 76.281 456.742 76.4392V75.411C457.177 75.2924 457.652 75.0551 458.126 74.7783H459.115V80.3145H460.262V81.1845H456.861V81.1449Z" fill="black"/>
<path d="M463.979 81.2635C463.267 81.2635 462.713 80.9472 462.318 80.354C461.922 79.7609 461.725 78.9304 461.725 77.9023C461.725 76.8741 461.922 76.0833 462.318 75.4901C462.713 74.9365 463.267 74.6201 463.979 74.6201C464.69 74.6201 465.244 74.8969 465.639 75.4901C466.035 76.0833 466.233 76.8741 466.233 77.8627C466.233 78.535 466.154 79.1282 465.995 79.6027C465.837 80.1168 465.56 80.4727 465.244 80.789C464.849 81.1054 464.453 81.2635 463.979 81.2635ZM463.979 80.2749C464.69 80.2749 465.086 79.4841 465.086 77.8627C465.086 77.5464 465.086 77.2696 465.046 76.9928C465.007 76.716 464.967 76.4787 464.888 76.281C464.809 76.0437 464.69 75.8855 464.532 75.7669C464.374 75.6483 464.216 75.5692 464.018 75.5692C463.82 75.5692 463.623 75.6483 463.465 75.7669C463.306 75.8855 463.188 76.0833 463.109 76.281C463.03 76.5182 462.95 76.7555 462.911 76.9928C462.871 77.2696 462.871 77.5464 462.871 77.8627C462.871 78.2186 462.871 78.535 462.911 78.8118C462.95 79.0886 462.99 79.3259 463.109 79.5631C463.188 79.8004 463.306 79.9586 463.465 80.0772C463.583 80.2354 463.781 80.2749 463.979 80.2749Z" fill="black"/>
<path d="M474.539 65.0497V64.1797H475.685V59.8299C475.25 60.0276 474.855 60.1858 474.42 60.344V59.2763C474.855 59.1576 475.329 58.9204 475.804 58.6436H476.793V64.1797H477.939V65.0497H474.539Z" fill="black"/>
<path d="M480.154 65.0497V64.1797H481.301V59.8299C480.866 60.0276 480.47 60.1858 480.035 60.344V59.2763C480.47 59.1576 480.945 58.9204 481.419 58.6436H482.408V64.1797H483.555V65.0497H480.154Z" fill="black"/>
<path d="M503.798 106.492C505.261 106.492 506.447 105.306 506.447 103.843C506.447 102.38 505.261 101.193 503.798 101.193C502.335 101.193 501.148 102.38 501.148 103.843C501.148 105.306 502.335 106.492 503.798 106.492Z" fill="url(#paint1_radial_5636_112948)"/>
<path d="M497.072 102.513C497.119 101.882 497.707 101.45 498.377 101.5L527.4 103.677L527.235 105.885L498.212 103.709C497.541 103.658 497.025 103.144 497.072 102.513Z" fill="black"/>
<path d="M501.749 138.394L501.459 138.381L501.468 138.09L502.745 95.7476C502.745 95.7467 502.745 95.7459 502.745 95.745C502.754 95.2145 503.234 94.9295 503.659 94.9353C504.121 94.9416 504.548 95.3108 504.541 95.8114L504.541 95.8114L504.541 95.8163L503.264 138.164L503.255 138.464L502.955 138.45L501.749 138.394Z" fill="#0E80A4" stroke="#0E80A4" stroke-width="0.59"/>
<path d="M503.8 105.702C504.826 105.702 505.659 104.869 505.659 103.843C505.659 102.816 504.826 101.984 503.8 101.984C502.774 101.984 501.941 102.816 501.941 103.843C501.941 104.869 502.774 105.702 503.8 105.702Z" fill="#0E80A4"/>
<path d="M504 163C536.585 163 563 136.585 563 104C563 71.4152 536.585 45 504 45C471.415 45 445 71.4152 445 104C445 136.585 471.415 163 504 163Z" stroke="#0E80A4" stroke-width="5.9" stroke-miterlimit="10"/>
<rect x="619" y="19" width="170" height="170" rx="10" fill="white"/>
<g clip-path="url(#clip1_5636_112948)">
<path d="M681.782 120.266H665.764V124.986H681.782V120.266Z" fill="#878787"/>
<path d="M742.981 120.266H726.963V124.986H742.981V120.266Z" fill="#878787"/>
<path d="M741.848 122.236H666.387C662.861 122.236 660 119.244 660 115.544V81.6912C660 77.9912 662.861 75 666.387 75H741.862C745.374 75 748.235 77.9912 748.235 81.6912V115.544C748.235 119.244 745.374 122.236 741.848 122.236Z" fill="#00C9DC"/>
<path d="M741.975 83.4637V113.248C741.975 114.808 740.771 116.069 739.284 116.069H669.957C668.469 116.069 667.266 114.808 667.266 113.248V83.4637C667.266 81.9043 668.469 80.6426 669.957 80.6426H739.298C740.771 80.6426 741.975 81.9043 741.975 83.4637Z" fill="#081D4F"/>
<path d="M739.285 116.139H669.957C668.427 116.139 667.195 114.849 667.195 113.247V83.4623C667.195 81.8745 668.442 80.5703 669.957 80.5703H739.299C740.829 80.5703 742.061 81.8604 742.061 83.4623V113.247C742.047 114.849 740.814 116.139 739.285 116.139ZM669.957 80.7121C668.512 80.7121 667.337 81.9454 667.337 83.4623V113.247C667.337 114.764 668.512 115.997 669.957 115.997H739.299C740.744 115.997 741.919 114.764 741.919 113.247V83.4623C741.919 81.9454 740.744 80.7121 739.299 80.7121H669.957Z" fill="#021438"/>
<g opacity="0.13">
<path opacity="0.3" d="M719.286 80.6426L680.706 116.069H670.424C668.866 116.069 667.605 114.808 667.605 113.248V105.182C674.772 98.0937 684.02 88.9074 692.334 80.6426H719.286Z" fill="white"/>
</g>
<g opacity="0.13">
<path opacity="0.3" d="M741.975 83.4637V99.5254C737.74 103.707 730.46 110.299 723.931 116.069H699.273C707.19 108.045 724.271 90.7645 734.468 80.6426H739.284C740.771 80.6426 741.975 81.9043 741.975 83.4637Z" fill="white"/>
</g>
<path d="M672.052 108.649L673.93 106.679H678.434L680.203 108.649H672.052ZM671.505 99.6952L673.474 101.592V106.059L671.505 107.846V99.6952ZM680.787 107.846L678.817 105.968V101.482L680.787 99.6952V107.846ZM672.034 90.1216H680.185L678.38 92.091H673.912L672.034 90.1216ZM671.45 99.057V90.9057L673.42 92.6746V97.197L671.45 99.057ZM680.732 90.9057V99.057L678.763 97.2881V92.784L680.732 90.9057ZM686.637 108.649L688.515 106.679H693.019L694.788 108.649H686.637ZM695.371 107.846L693.402 105.968V101.482L695.371 99.6952V107.846ZM688.205 100.352C687.779 100.011 687.348 99.677 686.91 99.3487L688.205 98.3823H693.183L694.46 99.3487L693.183 100.352H688.205ZM686.618 90.1216H694.77L692.964 92.091H688.497L686.618 90.1216ZM686.035 99.057V90.9057L688.004 92.6746V97.197L686.035 99.057ZM704.139 99.5128H706.437V101.792H704.139V99.5128ZM704.139 94.0969H706.437V96.4311H704.139V94.0969Z" fill="white"/>
<path d="M713.113 108.649L714.955 106.679H719.477L721.246 108.649H713.113ZM721.811 107.846L719.86 105.968V101.482L721.811 99.6952V107.846ZM714.645 100.352C714.231 100.011 713.806 99.677 713.368 99.3487L714.645 98.3823H719.623L720.899 99.3487L719.623 100.352H714.645ZM713.058 90.1216H721.228L719.441 92.091H714.936L713.058 90.1216ZM721.756 90.9057V99.057L719.805 97.2881V92.784L721.756 90.9057ZM727.643 108.649L729.521 106.679H734.025L735.794 108.649H727.643ZM727.096 99.6952L729.065 101.592V106.059L727.096 107.846V99.6952ZM736.378 107.846L734.408 105.968V101.482L736.378 99.6952V107.846ZM727.625 90.1216H735.776L733.971 92.091H729.503L727.625 90.1216ZM727.041 99.057V90.9057L729.011 92.6746V97.197L727.041 99.057ZM736.323 90.9057V99.057L734.354 97.2881V92.784L736.323 90.9057Z" fill="white"/>
</g>
<defs>
<filter id="filter0_d_5636_112948" x="0" y="0" width="212" height="212" filterUnits="userSpaceOnUse" color-interpolation-filters="sRGB">
<feFlood flood-opacity="0" result="BackgroundImageFix"/>
<feColorMatrix in="SourceAlpha" type="matrix" values="0 0 0 0 0 0 0 0 0 0 0 0 0 0 0 0 0 0 127 0" result="hardAlpha"/>
<feMorphology radius="1" operator="dilate" in="SourceAlpha" result="effect1_dropShadow_5636_112948"/>
<feOffset dx="2" dy="2"/>
<feGaussianBlur stdDeviation="10"/>
<feColorMatrix type="matrix" values="0 0 0 0 0.211765 0 0 0 0 0.611765 0 0 0 0 0.717647 0 0 0 0.29 0"/>
<feBlend mode="normal" in2="BackgroundImageFix" result="effect1_dropShadow_5636_112948"/>
<feBlend mode="normal" in="SourceGraphic" in2="effect1_dropShadow_5636_112948" result="shape"/>
</filter>
<filter id="filter1_d_5636_112948" x="400" y="0" width="212" height="212" filterUnits="userSpaceOnUse" color-interpolation-filters="sRGB">
<feFlood flood-opacity="0" result="BackgroundImageFix"/>
<feColorMatrix in="SourceAlpha" type="matrix" values="0 0 0 0 0 0 0 0 0 0 0 0 0 0 0 0 0 0 127 0" result="hardAlpha"/>
<feMorphology radius="1" operator="dilate" in="SourceAlpha" result="effect1_dropShadow_5636_112948"/>
<feOffset dx="2" dy="2"/>
<feGaussianBlur stdDeviation="10"/>
<feColorMatrix type="matrix" values="0 0 0 0 0.211765 0 0 0 0 0.611765 0 0 0 0 0.717647 0 0 0 0.29 0"/>
<feBlend mode="normal" in2="BackgroundImageFix" result="effect1_dropShadow_5636_112948"/>
<feBlend mode="normal" in="SourceGraphic" in2="effect1_dropShadow_5636_112948" result="shape"/>
</filter>
<radialGradient id="paint0_radial_5636_112948" cx="0" cy="0" r="1" gradientUnits="userSpaceOnUse" gradientTransform="translate(303.798 103.83) scale(2.63716)">
<stop/>
<stop offset="0.3022" stop-color="#050505"/>
<stop offset="0.6568" stop-color="#131312"/>
<stop offset="1" stop-color="#282826"/>
</radialGradient>
<radialGradient id="paint1_radial_5636_112948" cx="0" cy="0" r="1" gradientUnits="userSpaceOnUse" gradientTransform="translate(503.798 103.83) scale(2.63716)">
<stop/>
<stop offset="0.3022" stop-color="#050505"/>
<stop offset="0.6568" stop-color="#131312"/>
<stop offset="1" stop-color="#282826"/>
</radialGradient>
<clipPath id="clip0_5636_112948">
<rect width="88.2353" height="50" fill="white" transform="translate(60 75)"/>
</clipPath>
<clipPath id="clip1_5636_112948">
<rect width="88.2353" height="50" fill="white" transform="translate(660 75)"/>
</clipPath>
</defs>
</svg>
