<svg width="89" height="50" viewBox="0 0 89 50" fill="none" xmlns="http://www.w3.org/2000/svg">
<g clip-path="url(#clip0_5611_99945)">
<path d="M21.782 45.2656H5.76367V49.9864H21.782V45.2656Z" fill="#878787"/>
<path d="M82.9812 45.2656H66.9629V49.9864H82.9812V45.2656Z" fill="#878787"/>
<path d="M81.8478 47.2356H6.3875C2.86092 47.2356 0 44.2444 0 40.5444V6.69124C0 2.99121 2.86092 0 6.3875 0H81.8619C85.3744 0 88.2353 2.99121 88.2353 6.69124V40.5444C88.2353 44.2444 85.3744 47.2356 81.8478 47.2356Z" fill="#00C9DC"/>
<path d="M81.9743 8.46368V38.2482C81.9743 39.8076 80.7704 41.0693 79.2833 41.0693H9.95562C8.4685 41.0693 7.26465 39.8076 7.26465 38.2482V8.46368C7.26465 6.90427 8.4685 5.64258 9.95562 5.64258H79.2975C80.7705 5.64258 81.9743 6.90427 81.9743 8.46368Z" fill="#081D4F"/>
<path d="M79.2838 41.1387H9.95612C8.42652 41.1387 7.19434 39.8487 7.19434 38.2469V8.46229C7.19434 6.87454 8.44068 5.57031 9.95612 5.57031H79.298C80.8276 5.57031 82.0598 6.86036 82.0598 8.46229V38.2469C82.0456 39.8487 80.8134 41.1387 79.2838 41.1387ZM9.95612 5.71208C8.5115 5.71208 7.33597 6.94543 7.33597 8.46229V38.2469C7.33597 39.7637 8.5115 40.9971 9.95612 40.9971H79.298C80.7426 40.9971 81.9182 39.7637 81.9182 38.2469V8.46229C81.9182 6.94543 80.7426 5.71208 79.298 5.71208H9.95612Z" fill="#021438"/>
<g opacity="0.13">
<path opacity="0.3" d="M59.2862 5.64258L20.7062 41.0693H10.4239C8.86598 41.0693 7.60547 39.8076 7.60547 38.2482V30.1818C14.7719 23.0937 24.0204 13.9074 32.334 5.64258H59.2862Z" fill="white"/>
</g>
<g opacity="0.13">
<path opacity="0.3" d="M81.9757 8.46368V24.5254C77.741 28.7075 70.4612 35.2995 63.9321 41.0693H39.2744C47.1914 33.0455 64.272 15.7645 74.4693 5.64258H79.2847C80.7719 5.64258 81.9757 6.90427 81.9757 8.46368Z" fill="white"/>
</g>
<path d="M12.0509 33.6488L13.9292 31.6794H18.4333L20.2021 33.6488H12.0509ZM11.5038 24.6952L13.4733 26.5917V31.0594L11.5038 32.8464V24.6952ZM20.7857 32.8464L18.8163 30.9682V26.4823L20.7857 24.6952V32.8464ZM12.0327 15.1216H20.1839L18.3786 17.091H13.9109L12.0327 15.1216ZM11.4491 24.057V15.9057L13.4186 17.6746V22.197L11.4491 24.057ZM20.731 15.9057V24.057L18.7615 22.2881V17.784L20.731 15.9057ZM26.6904 33.6488L28.5322 31.6794H33.0545L34.8234 33.6488H26.6904ZM35.3887 32.8464L33.4375 30.9682V26.4823L35.3887 24.6952V32.8464ZM28.2222 25.3517C27.8088 25.0113 27.3833 24.677 26.9457 24.3487L28.2222 23.3823H33.2004L34.4769 24.3487L33.2004 25.3517H28.2222ZM26.6357 15.1216H34.8051L33.0181 17.091H28.5139L26.6357 15.1216ZM35.334 15.9057V24.057L33.3828 22.2881V17.784L35.334 15.9057ZM44.1381 24.5128H46.4358V26.7923H44.1381V24.5128ZM44.1381 19.0969H46.4358V21.4311H44.1381V19.0969Z" fill="white"/>
<path d="M53.1128 33.6488L54.9546 31.6794H59.477L61.2458 33.6488H53.1128ZM61.8111 32.8464L59.8599 30.9682V26.4823L61.8111 24.6952V32.8464ZM54.6446 25.3517C54.2313 25.0113 53.8058 24.677 53.3681 24.3487L54.6446 23.3823H59.6229L60.8994 24.3487L59.6229 25.3517H54.6446ZM53.0581 15.1216H61.2276L59.4405 17.091H54.9364L53.0581 15.1216ZM61.7564 15.9057V24.057L59.8052 22.2881V17.784L61.7564 15.9057ZM67.6429 33.6488L69.5211 31.6794H74.0253L75.7941 33.6488H67.6429ZM67.0958 24.6952L69.0653 26.5917V31.0594L67.0958 32.8464V24.6952ZM76.3777 32.8464L74.4082 30.9682V26.4823L76.3777 24.6952V32.8464ZM67.6247 15.1216H75.7759L73.9706 17.091H69.5029L67.6247 15.1216ZM67.0411 24.057V15.9057L69.0106 17.6746V22.197L67.0411 24.057ZM76.323 15.9057V24.057L74.3535 22.2881V17.784L76.323 15.9057Z" fill="white"/>
</g>
<defs>
<clipPath id="clip0_5611_99945">
<rect width="88.2353" height="50" fill="white"/>
</clipPath>
</defs>
</svg>
