<svg width="293" height="44" viewBox="0 0 293 44" fill="none" xmlns="http://www.w3.org/2000/svg">
<path d="M29.552 26.434V28H20.498V26.776L25.628 21.826C26.252 21.226 26.672 20.71 26.888 20.278C27.104 19.834 27.212 19.39 27.212 18.946C27.212 18.286 26.978 17.776 26.51 17.416C26.054 17.044 25.394 16.858 24.53 16.858C23.138 16.858 22.064 17.314 21.308 18.226L20.084 17.164C20.576 16.564 21.218 16.096 22.01 15.76C22.814 15.424 23.708 15.256 24.692 15.256C26.012 15.256 27.062 15.574 27.842 16.21C28.622 16.834 29.012 17.686 29.012 18.766C29.012 19.438 28.868 20.074 28.58 20.674C28.292 21.274 27.746 21.958 26.942 22.726L23.09 26.434H29.552Z" fill="#2F2F2F"/>
<path d="M5 8H45V6H5V8ZM49 12V32H51V12H49ZM45 36H5V38H45V36ZM1 32V12H-1V32H1ZM5 36C2.79086 36 1 34.2091 1 32H-1C-1 35.3137 1.68629 38 5 38V36ZM49 32C49 34.2091 47.2091 36 45 36V38C48.3137 38 51 35.3137 51 32H49ZM45 8C47.2091 8 49 9.79086 49 12H51C51 8.68629 48.3137 6 45 6V8ZM5 6C1.68629 6 -1 8.68629 -1 12H1C1 9.79086 2.79086 8 5 8V6Z" fill="#2F2F2F"/>
<path d="M73.5634 23.84H67.0114V30.284H63.9874V23.84H57.4354V20.996H63.9874V14.516H67.0114V20.996H73.5634V23.84Z" fill="#2F2F2F"/>
<path d="M111.805 24.904H109.411V28H107.665V24.904H100.663V23.644L107.107 15.4H109.051L102.877 23.356H107.719V20.62H109.411V23.356H111.805V24.904Z" fill="#2F2F2F"/>
<path d="M86 8H126V6H86V8ZM130 12V32H132V12H130ZM126 36H86V38H126V36ZM82 32V12H80V32H82ZM86 36C83.7909 36 82 34.2091 82 32H80C80 35.3137 82.6863 38 86 38V36ZM130 32C130 34.2091 128.209 36 126 36V38C129.314 38 132 35.3137 132 32H130ZM126 8C128.209 8 130 9.79086 130 12H132C132 8.68629 129.314 6 126 6V8ZM86 6C82.6863 6 80 8.68629 80 12H82C82 9.79086 83.7909 8 86 8V6Z" fill="#2F2F2F"/>
<path d="M154.563 23.84H148.011V30.284H144.987V23.84H138.435V20.996H144.987V14.516H148.011V20.996H154.563V23.84Z" fill="#2F2F2F"/>
<path d="M186.296 20.422C188.096 20.422 189.416 20.764 190.256 21.448C191.108 22.12 191.534 23.044 191.534 24.22C191.534 24.964 191.354 25.636 190.994 26.236C190.646 26.824 190.112 27.292 189.392 27.64C188.684 27.976 187.808 28.144 186.764 28.144C185.876 28.144 185.018 28.012 184.19 27.748C183.362 27.472 182.678 27.094 182.138 26.614L182.966 25.192C183.398 25.6 183.95 25.93 184.622 26.182C185.294 26.422 186.002 26.542 186.746 26.542C187.694 26.542 188.426 26.344 188.942 25.948C189.47 25.54 189.734 24.988 189.734 24.292C189.734 23.536 189.446 22.966 188.87 22.582C188.294 22.186 187.31 21.988 185.918 21.988H183.056L183.722 15.4H190.832V16.966H185.234L184.892 20.422H186.296Z" fill="#2F2F2F"/>
<path d="M167 8H207V6H167V8ZM211 12V32H213V12H211ZM207 36H167V38H207V36ZM163 32V12H161V32H163ZM167 36C164.791 36 163 34.2091 163 32H161C161 35.3137 163.686 38 167 38V36ZM211 32C211 34.2091 209.209 36 207 36V38C210.314 38 213 35.3137 213 32H211ZM207 8C209.209 8 211 9.79086 211 12H213C213 8.68629 210.314 6 207 6V8ZM167 6C163.686 6 161 8.68629 161 12H163C163 9.79086 164.791 8 167 8V6Z" fill="#2F2F2F"/>
<path d="M219.435 16.712H235.563V19.556H219.435V16.712ZM219.435 25.244H235.563V28.088H219.435V25.244Z" fill="#2F2F2F"/>
<path d="M266.108 15.4V28H264.326V16.966H261.482V15.4H266.108ZM272.77 15.4V28H270.988V16.966H268.144V15.4H272.77Z" fill="#2F2F2F"/>
<path d="M248 8H288V6H248V8ZM292 12V32H294V12H292ZM288 36H248V38H288V36ZM244 32V12H242V32H244ZM248 36C245.791 36 244 34.2091 244 32H242C242 35.3137 244.686 38 248 38V36ZM292 32C292 34.2091 290.209 36 288 36V38C291.314 38 294 35.3137 294 32H292ZM288 8C290.209 8 292 9.79086 292 12H294C294 8.68629 291.314 6 288 6V8ZM248 6C244.686 6 242 8.68629 242 12H244C244 9.79086 245.791 8 248 8V6Z" fill="#2F2F2F"/>
</svg>
