<svg width="117" height="30" viewBox="0 0 117 30" fill="none" xmlns="http://www.w3.org/2000/svg">
<path d="M9.90066 18.434V20H0.846664V18.776L5.97666 13.826C6.60066 13.226 7.02066 12.71 7.23666 12.278C7.45266 11.834 7.56066 11.39 7.56066 10.946C7.56066 10.286 7.32666 9.776 6.85866 9.416C6.40266 9.044 5.74266 8.858 4.87866 8.858C3.48666 8.858 2.41266 9.314 1.65666 10.226L0.432664 9.164C0.924664 8.564 1.56666 8.096 2.35866 7.76C3.16266 7.424 4.05666 7.256 5.04066 7.256C6.36066 7.256 7.41066 7.574 8.19066 8.21C8.97066 8.834 9.36066 9.686 9.36066 10.766C9.36066 11.438 9.21666 12.074 8.92866 12.674C8.64066 13.274 8.09466 13.958 7.29066 14.726L3.43866 18.434H9.90066ZM23.0726 20L20.3186 16.346L17.5286 20H15.6026L19.3646 15.122L15.7826 10.46H17.7086L20.3366 13.898L22.9466 10.46H24.8366L21.2366 15.122L25.0346 20H23.0726ZM39.8362 18.434V20H30.7822V18.776L35.9122 13.826C36.5362 13.226 36.9562 12.71 37.1722 12.278C37.3882 11.834 37.4962 11.39 37.4962 10.946C37.4962 10.286 37.2622 9.776 36.7942 9.416C36.3382 9.044 35.6782 8.858 34.8142 8.858C33.4222 8.858 32.3482 9.314 31.5922 10.226L30.3682 9.164C30.8602 8.564 31.5022 8.096 32.2942 7.76C33.0982 7.424 33.9922 7.256 34.9762 7.256C36.2962 7.256 37.3462 7.574 38.1262 8.21C38.9062 8.834 39.2962 9.686 39.2962 10.766C39.2962 11.438 39.1522 12.074 38.8642 12.674C38.5762 13.274 38.0302 13.958 37.2262 14.726L33.3742 18.434H39.8362ZM46.6994 12.35C47.5274 12.35 48.2654 12.506 48.9134 12.818C49.5734 13.13 50.0894 13.58 50.4614 14.168C50.8334 14.744 51.0194 15.41 51.0194 16.166C51.0194 16.958 50.8214 17.654 50.4254 18.254C50.0414 18.854 49.5074 19.322 48.8234 19.658C48.1514 19.982 47.3954 20.144 46.5554 20.144C44.8634 20.144 43.5554 19.598 42.6314 18.506C41.7194 17.414 41.2634 15.866 41.2634 13.862C41.2634 12.458 41.5094 11.264 42.0014 10.28C42.5054 9.284 43.2014 8.534 44.0894 8.03C44.9894 7.514 46.0334 7.256 47.2214 7.256C47.8334 7.256 48.4094 7.322 48.9494 7.454C49.4894 7.574 49.9574 7.754 50.3534 7.994L49.6694 9.398C49.0694 9.002 48.2654 8.804 47.2574 8.804C45.9494 8.804 44.9234 9.212 44.1794 10.028C43.4354 10.832 43.0634 12.008 43.0634 13.556C43.0634 13.748 43.0694 13.898 43.0814 14.006C43.4414 13.466 43.9334 13.058 44.5574 12.782C45.1934 12.494 45.9074 12.35 46.6994 12.35ZM46.4834 18.686C47.3114 18.686 47.9834 18.464 48.4994 18.02C49.0154 17.576 49.2734 16.982 49.2734 16.238C49.2734 15.494 49.0094 14.906 48.4814 14.474C47.9654 14.03 47.2694 13.808 46.3934 13.808C45.8294 13.808 45.3254 13.916 44.8814 14.132C44.4494 14.348 44.1074 14.642 43.8554 15.014C43.6154 15.386 43.4954 15.8 43.4954 16.256C43.4954 16.7 43.6094 17.108 43.8374 17.48C44.0774 17.84 44.4194 18.134 44.8634 18.362C45.3194 18.578 45.8594 18.686 46.4834 18.686ZM57.5488 10.856H65.6128V12.278H57.5488V10.856ZM57.5488 15.122H65.6128V16.544H57.5488V15.122Z" fill="#2F2F2F"/>
<path d="M77 5C77 2.23858 79.2386 0 82 0H112C114.761 0 117 2.23858 117 5V25C117 27.7614 114.761 30 112 30H82C79.2386 30 77 27.7614 77 25V5Z" fill="#9DD765"/>
<path d="M91.172 13.422C92.972 13.422 94.292 13.764 95.132 14.448C95.984 15.12 96.41 16.044 96.41 17.22C96.41 17.964 96.23 18.636 95.87 19.236C95.522 19.824 94.988 20.292 94.268 20.64C93.56 20.976 92.684 21.144 91.64 21.144C90.752 21.144 89.894 21.012 89.066 20.748C88.238 20.472 87.554 20.094 87.014 19.614L87.842 18.192C88.274 18.6 88.826 18.93 89.498 19.182C90.17 19.422 90.878 19.542 91.622 19.542C92.57 19.542 93.302 19.344 93.818 18.948C94.346 18.54 94.61 17.988 94.61 17.292C94.61 16.536 94.322 15.966 93.746 15.582C93.17 15.186 92.186 14.988 90.794 14.988H87.932L88.598 8.4H95.708V9.966H90.11L89.768 13.422H91.172ZM106.676 19.434V21H97.6221V19.776L102.752 14.826C103.376 14.226 103.796 13.71 104.012 13.278C104.228 12.834 104.336 12.39 104.336 11.946C104.336 11.286 104.102 10.776 103.634 10.416C103.178 10.044 102.518 9.858 101.654 9.858C100.262 9.858 99.1881 10.314 98.4321 11.226L97.2081 10.164C97.7001 9.564 98.3421 9.096 99.1341 8.76C99.9381 8.424 100.832 8.256 101.816 8.256C103.136 8.256 104.186 8.574 104.966 9.21C105.746 9.834 106.136 10.686 106.136 11.766C106.136 12.438 105.992 13.074 105.704 13.674C105.416 14.274 104.87 14.958 104.066 15.726L100.214 19.434H106.676Z" fill="#065B5B"/>
</svg>
