<svg width="514" height="105" viewBox="0 0 514 105" fill="none" xmlns="http://www.w3.org/2000/svg">
<path d="M19.2925 39.4831C28.2906 39.4831 35.5851 38.0318 35.5851 36.2416C35.5851 34.4513 28.2906 33 19.2925 33C10.2944 33 3 34.4513 3 36.2416C3 38.0318 10.2944 39.4831 19.2925 39.4831Z" fill="#6387E1"/>
<path d="M19.2925 39.4837C10.2825 39.4837 3 38.0318 3 36.2422V68.7253C3 70.5149 10.2825 71.9669 19.2925 71.9669C28.3025 71.9669 35.5851 70.5149 35.5851 68.7253V36.2422C35.5851 38.0318 28.3025 39.4837 19.2925 39.4837Z" fill="#3259BC"/>
<path d="M19.2921 38.6729C9.63852 38.6729 4.15122 37.0859 3.8125 36.2079C4.18509 35.3976 9.63852 33.8105 19.2921 33.8105C28.9457 33.8105 34.433 35.3976 34.7717 36.2755C34.433 37.0859 28.9457 38.6729 19.2921 38.6729Z" fill="#264CAD"/>
<path d="M6.62402 37.4578C9.19831 38.0993 13.5001 38.6734 19.2922 38.6734C25.0844 38.6734 29.3861 38.0993 31.9604 37.4578C29.3861 36.8162 25.0844 36.2422 19.2922 36.2422C13.5001 36.2422 9.19831 36.8162 6.62402 37.4578Z" fill="#3F3128"/>
<path d="M27.4561 69.9071C31.0465 69.4681 33.2821 68.8265 33.9595 68.3538V39.3486C32.1304 40.024 29.7932 40.4292 27.4561 40.6993V69.9071Z" fill="#264CAD"/>
<path d="M6.25184 39.8551C5.67602 39.7201 5.13406 39.5512 4.62598 39.3486V68.3538C4.93083 68.5564 5.47278 68.759 6.25184 68.9954V39.8551Z" fill="#6387E1"/>
<path d="M35.585 41.1377V44.3793C40.09 44.3793 43.7482 48.026 43.7482 52.5169C43.7482 57.0078 40.09 60.6546 35.585 60.6546V63.8961C41.8852 63.8961 46.9999 58.7974 46.9999 52.5169C46.9999 46.2364 41.8852 41.1377 35.585 41.1377Z" fill="#3259BC"/>
<path d="M74.2925 39.4831C83.2906 39.4831 90.5851 38.0318 90.5851 36.2416C90.5851 34.4513 83.2906 33 74.2925 33C65.2944 33 58 34.4513 58 36.2416C58 38.0318 65.2944 39.4831 74.2925 39.4831Z" fill="#6387E1"/>
<path d="M74.2925 39.4837C65.2825 39.4837 58 38.0318 58 36.2422V68.7253C58 70.5149 65.2825 71.9669 74.2925 71.9669C83.3025 71.9669 90.5851 70.5149 90.5851 68.7253V36.2422C90.5851 38.0318 83.3025 39.4837 74.2925 39.4837Z" fill="#3259BC"/>
<path d="M74.2921 38.6729C64.6385 38.6729 59.1512 37.0859 58.8125 36.2079C59.1851 35.3976 64.6385 33.8105 74.2921 33.8105C83.9457 33.8105 89.433 35.3976 89.7717 36.2755C89.433 37.0859 83.9457 38.6729 74.2921 38.6729Z" fill="#264CAD"/>
<path d="M61.624 37.4578C64.1983 38.0993 68.5001 38.6734 74.2922 38.6734C80.0844 38.6734 84.3861 38.0993 86.9604 37.4578C84.3861 36.8162 80.0844 36.2422 74.2922 36.2422C68.5001 36.2422 64.1983 36.8162 61.624 37.4578Z" fill="#3F3128"/>
<path d="M82.4561 69.9071C86.0465 69.4681 88.2821 68.8265 88.9595 68.3538V39.3486C87.1304 40.024 84.7932 40.4292 82.4561 40.6993V69.9071Z" fill="#264CAD"/>
<path d="M61.2518 39.8551C60.676 39.7201 60.1341 39.5512 59.626 39.3486V68.3538C59.9308 68.5564 60.4728 68.759 61.2518 68.9954V39.8551Z" fill="#6387E1"/>
<path d="M90.585 41.1377V44.3793C95.09 44.3793 98.7482 48.026 98.7482 52.5169C98.7482 57.0078 95.09 60.6546 90.585 60.6546V63.8961C96.8852 63.8961 102 58.7974 102 52.5169C102 46.2364 96.8852 41.1377 90.585 41.1377Z" fill="#3259BC"/>
<path d="M133.563 54.34H127.011V60.784H123.987V54.34H117.435V51.496H123.987V45.016H127.011V51.496H133.563V54.34Z" fill="#2F2F2F"/>
<path d="M165.293 11.4831C174.291 11.4831 181.585 10.0318 181.585 8.24156C181.585 6.4513 174.291 5 165.293 5C156.294 5 149 6.4513 149 8.24156C149 10.0318 156.294 11.4831 165.293 11.4831Z" fill="#F37A7A"/>
<path d="M165.293 11.4837C156.283 11.4837 149 10.0318 149 8.24219V40.7253C149 42.5149 156.283 43.9669 165.293 43.9669C174.303 43.9669 181.585 42.5149 181.585 40.7253V8.24219C181.585 10.0318 174.303 11.4837 165.293 11.4837Z" fill="#D33A3A"/>
<path d="M165.292 10.6729C155.639 10.6729 150.151 9.08587 149.812 8.20795C150.185 7.39756 155.639 5.81055 165.292 5.81055C174.946 5.81055 180.433 7.39756 180.772 8.27548C180.433 9.08587 174.946 10.6729 165.292 10.6729Z" fill="#AB2222"/>
<path d="M152.624 9.45777C155.198 10.0993 159.5 10.6734 165.292 10.6734C171.084 10.6734 175.386 10.0993 177.96 9.45777C175.386 8.81621 171.084 8.24219 165.292 8.24219C159.5 8.24219 155.198 8.81621 152.624 9.45777Z" fill="#3F3128"/>
<path d="M173.456 41.9071C177.047 41.4681 179.282 40.8265 179.96 40.3538V11.3486C178.13 12.024 175.793 12.4292 173.456 12.6993V41.9071Z" fill="#AB2222"/>
<path d="M152.252 11.8551C151.676 11.7201 151.134 11.5512 150.626 11.3486V40.3538C150.931 40.5564 151.473 40.759 152.252 40.9954V11.8551Z" fill="#F37A7A"/>
<path d="M181.585 13.1377V16.3793C186.09 16.3793 189.748 20.026 189.748 24.5169C189.748 29.0078 186.09 32.6546 181.585 32.6546V35.8961C187.885 35.8961 193 30.7974 193 24.5169C193 18.2364 187.885 13.1377 181.585 13.1377Z" fill="#D33A3A"/>
<path d="M220.293 11.4831C229.291 11.4831 236.585 10.0318 236.585 8.24156C236.585 6.4513 229.291 5 220.293 5C211.294 5 204 6.4513 204 8.24156C204 10.0318 211.294 11.4831 220.293 11.4831Z" fill="#F37A7A"/>
<path d="M220.293 11.4837C211.283 11.4837 204 10.0318 204 8.24219V40.7253C204 42.5149 211.283 43.9669 220.293 43.9669C229.303 43.9669 236.585 42.5149 236.585 40.7253V8.24219C236.585 10.0318 229.303 11.4837 220.293 11.4837Z" fill="#D33A3A"/>
<path d="M220.292 10.6729C210.639 10.6729 205.151 9.08587 204.812 8.20795C205.185 7.39756 210.639 5.81055 220.292 5.81055C229.946 5.81055 235.433 7.39756 235.772 8.27548C235.433 9.08587 229.946 10.6729 220.292 10.6729Z" fill="#AB2222"/>
<path d="M207.624 9.45777C210.198 10.0993 214.5 10.6734 220.292 10.6734C226.084 10.6734 230.386 10.0993 232.96 9.45777C230.386 8.81621 226.084 8.24219 220.292 8.24219C214.5 8.24219 210.198 8.81621 207.624 9.45777Z" fill="#3F3128"/>
<path d="M228.456 41.9071C232.047 41.4681 234.282 40.8265 234.96 40.3538V11.3486C233.13 12.024 230.793 12.4292 228.456 12.6993V41.9071Z" fill="#AB2222"/>
<path d="M207.252 11.8551C206.676 11.7201 206.134 11.5512 205.626 11.3486V40.3538C205.931 40.5564 206.473 40.759 207.252 40.9954V11.8551Z" fill="#F37A7A"/>
<path d="M236.585 13.1377V16.3793C241.09 16.3793 244.748 20.026 244.748 24.5169C244.748 29.0078 241.09 32.6546 236.585 32.6546V35.8961C242.885 35.8961 248 30.7974 248 24.5169C248 18.2364 242.885 13.1377 236.585 13.1377Z" fill="#D33A3A"/>
<path d="M165.293 66.4831C174.291 66.4831 181.585 65.0318 181.585 63.2416C181.585 61.4513 174.291 60 165.293 60C156.294 60 149 61.4513 149 63.2416C149 65.0318 156.294 66.4831 165.293 66.4831Z" fill="#F37A7A"/>
<path d="M165.293 66.4837C156.283 66.4837 149 65.0318 149 63.2422V95.7253C149 97.5149 156.283 98.9669 165.293 98.9669C174.303 98.9669 181.585 97.5149 181.585 95.7253V63.2422C181.585 65.0318 174.303 66.4837 165.293 66.4837Z" fill="#D33A3A"/>
<path d="M165.292 65.6729C155.639 65.6729 150.151 64.0859 149.812 63.2079C150.185 62.3976 155.639 60.8105 165.292 60.8105C174.946 60.8105 180.433 62.3976 180.772 63.2755C180.433 64.0859 174.946 65.6729 165.292 65.6729Z" fill="#AB2222"/>
<path d="M152.624 64.4578C155.198 65.0993 159.5 65.6734 165.292 65.6734C171.084 65.6734 175.386 65.0993 177.96 64.4578C175.386 63.8162 171.084 63.2422 165.292 63.2422C159.5 63.2422 155.198 63.8162 152.624 64.4578Z" fill="#3F3128"/>
<path d="M173.456 96.9071C177.047 96.4681 179.282 95.8265 179.96 95.3538V66.3486C178.13 67.024 175.793 67.4292 173.456 67.6993V96.9071Z" fill="#AB2222"/>
<path d="M152.252 66.8551C151.676 66.7201 151.134 66.5512 150.626 66.3486V95.3538C150.931 95.5564 151.473 95.759 152.252 95.9954V66.8551Z" fill="#F37A7A"/>
<path d="M181.585 68.1377V71.3793C186.09 71.3793 189.748 75.026 189.748 79.5169C189.748 84.0078 186.09 87.6546 181.585 87.6546V90.8961C187.885 90.8961 193 85.7974 193 79.5169C193 73.2364 187.885 68.1377 181.585 68.1377Z" fill="#D33A3A"/>
<path d="M220.293 66.4831C229.291 66.4831 236.585 65.0318 236.585 63.2416C236.585 61.4513 229.291 60 220.293 60C211.294 60 204 61.4513 204 63.2416C204 65.0318 211.294 66.4831 220.293 66.4831Z" fill="#F37A7A"/>
<path d="M220.293 66.4837C211.283 66.4837 204 65.0318 204 63.2422V95.7253C204 97.5149 211.283 98.9669 220.293 98.9669C229.303 98.9669 236.585 97.5149 236.585 95.7253V63.2422C236.585 65.0318 229.303 66.4837 220.293 66.4837Z" fill="#D33A3A"/>
<path d="M220.292 65.6729C210.639 65.6729 205.151 64.0859 204.812 63.2079C205.185 62.3976 210.639 60.8105 220.292 60.8105C229.946 60.8105 235.433 62.3976 235.772 63.2755C235.433 64.0859 229.946 65.6729 220.292 65.6729Z" fill="#AB2222"/>
<path d="M207.624 64.4578C210.198 65.0993 214.5 65.6734 220.292 65.6734C226.084 65.6734 230.386 65.0993 232.96 64.4578C230.386 63.8162 226.084 63.2422 220.292 63.2422C214.5 63.2422 210.198 63.8162 207.624 64.4578Z" fill="#3F3128"/>
<path d="M228.456 96.9071C232.047 96.4681 234.282 95.8265 234.96 95.3538V66.3486C233.13 67.024 230.793 67.4292 228.456 67.6993V96.9071Z" fill="#AB2222"/>
<path d="M207.252 66.8551C206.676 66.7201 206.134 66.5512 205.626 66.3486V95.3538C205.931 95.5564 206.473 95.759 207.252 95.9954V66.8551Z" fill="#F37A7A"/>
<path d="M236.585 68.1377V71.3793C241.09 71.3793 244.748 75.026 244.748 79.5169C244.748 84.0078 241.09 87.6546 236.585 87.6546V90.8961C242.885 90.8961 248 85.7974 248 79.5169C248 73.2364 242.885 68.1377 236.585 68.1377Z" fill="#D33A3A"/>
<path d="M279.563 54.34H273.011V60.784H269.987V54.34H263.435V51.496H269.987V45.016H273.011V51.496H279.563V54.34Z" fill="#2F2F2F"/>
<path d="M339.293 11.4831C348.291 11.4831 355.585 10.0318 355.585 8.24156C355.585 6.4513 348.291 5 339.293 5C330.294 5 323 6.4513 323 8.24156C323 10.0318 330.294 11.4831 339.293 11.4831Z" fill="#FBCC54"/>
<path d="M339.293 11.4837C330.283 11.4837 323 10.0318 323 8.24219V40.7253C323 42.5149 330.283 43.9669 339.293 43.9669C348.303 43.9669 355.585 42.5149 355.585 40.7253V8.24219C355.585 10.0318 348.303 11.4837 339.293 11.4837Z" fill="#EEB219"/>
<path d="M339.292 10.6729C329.639 10.6729 324.151 9.08587 323.812 8.20795C324.185 7.39756 329.639 5.81055 339.292 5.81055C348.946 5.81055 354.433 7.39756 354.772 8.27548C354.433 9.08587 348.946 10.6729 339.292 10.6729Z" fill="#CC9B1F"/>
<path d="M326.624 9.45777C329.198 10.0993 333.5 10.6734 339.292 10.6734C345.084 10.6734 349.386 10.0993 351.96 9.45777C349.386 8.81621 345.084 8.24219 339.292 8.24219C333.5 8.24219 329.198 8.81621 326.624 9.45777Z" fill="#3F3128"/>
<path d="M347.456 41.9071C351.047 41.4681 353.282 40.8265 353.96 40.3538V11.3486C352.13 12.024 349.793 12.4292 347.456 12.6993V41.9071Z" fill="#CC9B1F"/>
<path d="M326.252 11.8551C325.676 11.7201 325.134 11.5512 324.626 11.3486V40.3538C324.931 40.5564 325.473 40.759 326.252 40.9954V11.8551Z" fill="#FBCC54"/>
<path d="M355.585 13.1377V16.3793C360.09 16.3793 363.748 20.026 363.748 24.5169C363.748 29.0078 360.09 32.6546 355.585 32.6546V35.8961C361.885 35.8961 367 30.7974 367 24.5169C367 18.2364 361.885 13.1377 355.585 13.1377Z" fill="#EEB219"/>
<path d="M394.293 11.4831C403.291 11.4831 410.585 10.0318 410.585 8.24156C410.585 6.4513 403.291 5 394.293 5C385.294 5 378 6.4513 378 8.24156C378 10.0318 385.294 11.4831 394.293 11.4831Z" fill="#FBCC54"/>
<path d="M394.293 11.4837C385.283 11.4837 378 10.0318 378 8.24219V40.7253C378 42.5149 385.283 43.9669 394.293 43.9669C403.303 43.9669 410.585 42.5149 410.585 40.7253V8.24219C410.585 10.0318 403.303 11.4837 394.293 11.4837Z" fill="#EEB219"/>
<path d="M394.292 10.6729C384.639 10.6729 379.151 9.08587 378.812 8.20795C379.185 7.39756 384.639 5.81055 394.292 5.81055C403.946 5.81055 409.433 7.39756 409.772 8.27548C409.433 9.08587 403.946 10.6729 394.292 10.6729Z" fill="#CC9B1F"/>
<path d="M381.624 9.45777C384.198 10.0993 388.5 10.6734 394.292 10.6734C400.084 10.6734 404.386 10.0993 406.96 9.45777C404.386 8.81621 400.084 8.24219 394.292 8.24219C388.5 8.24219 384.198 8.81621 381.624 9.45777Z" fill="#3F3128"/>
<path d="M402.456 41.9071C406.047 41.4681 408.282 40.8265 408.96 40.3538V11.3486C407.13 12.024 404.793 12.4292 402.456 12.6993V41.9071Z" fill="#CC9B1F"/>
<path d="M381.252 11.8551C380.676 11.7201 380.134 11.5512 379.626 11.3486V40.3538C379.931 40.5564 380.473 40.759 381.252 40.9954V11.8551Z" fill="#FBCC54"/>
<path d="M410.585 13.1377V16.3793C415.09 16.3793 418.748 20.026 418.748 24.5169C418.748 29.0078 415.09 32.6546 410.585 32.6546V35.8961C416.885 35.8961 422 30.7974 422 24.5169C422 18.2364 416.885 13.1377 410.585 13.1377Z" fill="#EEB219"/>
<path d="M311.293 66.4831C320.291 66.4831 327.585 65.0318 327.585 63.2416C327.585 61.4513 320.291 60 311.293 60C302.294 60 295 61.4513 295 63.2416C295 65.0318 302.294 66.4831 311.293 66.4831Z" fill="#FBCC54"/>
<path d="M311.293 66.4837C302.283 66.4837 295 65.0318 295 63.2422V95.7253C295 97.5149 302.283 98.9669 311.293 98.9669C320.303 98.9669 327.585 97.5149 327.585 95.7253V63.2422C327.585 65.0318 320.303 66.4837 311.293 66.4837Z" fill="#EEB219"/>
<path d="M311.292 65.6729C301.639 65.6729 296.151 64.0859 295.812 63.2079C296.185 62.3976 301.639 60.8105 311.292 60.8105C320.946 60.8105 326.433 62.3976 326.772 63.2755C326.433 64.0859 320.946 65.6729 311.292 65.6729Z" fill="#CC9B1F"/>
<path d="M298.624 64.4578C301.198 65.0993 305.5 65.6734 311.292 65.6734C317.084 65.6734 321.386 65.0993 323.96 64.4578C321.386 63.8162 317.084 63.2422 311.292 63.2422C305.5 63.2422 301.198 63.8162 298.624 64.4578Z" fill="#3F3128"/>
<path d="M319.456 96.9071C323.047 96.4681 325.282 95.8265 325.96 95.3538V66.3486C324.13 67.024 321.793 67.4292 319.456 67.6993V96.9071Z" fill="#CC9B1F"/>
<path d="M298.252 66.8551C297.676 66.7201 297.134 66.5512 296.626 66.3486V95.3538C296.931 95.5564 297.473 95.759 298.252 95.9954V66.8551Z" fill="#FBCC54"/>
<path d="M327.585 68.1377V71.3793C332.09 71.3793 335.748 75.026 335.748 79.5169C335.748 84.0078 332.09 87.6546 327.585 87.6546V90.8961C333.885 90.8961 339 85.7974 339 79.5169C339 73.2364 333.885 68.1377 327.585 68.1377Z" fill="#EEB219"/>
<path d="M367.293 66.4831C376.291 66.4831 383.585 65.0318 383.585 63.2416C383.585 61.4513 376.291 60 367.293 60C358.294 60 351 61.4513 351 63.2416C351 65.0318 358.294 66.4831 367.293 66.4831Z" fill="#FBCC54"/>
<path d="M367.293 66.4837C358.283 66.4837 351 65.0318 351 63.2422V95.7253C351 97.5149 358.283 98.9669 367.293 98.9669C376.303 98.9669 383.585 97.5149 383.585 95.7253V63.2422C383.585 65.0318 376.303 66.4837 367.293 66.4837Z" fill="#EEB219"/>
<path d="M367.292 65.6729C357.639 65.6729 352.151 64.0859 351.812 63.2079C352.185 62.3976 357.639 60.8105 367.292 60.8105C376.946 60.8105 382.433 62.3976 382.772 63.2755C382.433 64.0859 376.946 65.6729 367.292 65.6729Z" fill="#CC9B1F"/>
<path d="M354.624 64.4578C357.198 65.0993 361.5 65.6734 367.292 65.6734C373.084 65.6734 377.386 65.0993 379.96 64.4578C377.386 63.8162 373.084 63.2422 367.292 63.2422C361.5 63.2422 357.198 63.8162 354.624 64.4578Z" fill="#3F3128"/>
<path d="M375.456 96.9071C379.047 96.4681 381.282 95.8265 381.96 95.3538V66.3486C380.13 67.024 377.793 67.4292 375.456 67.6993V96.9071Z" fill="#CC9B1F"/>
<path d="M354.252 66.8551C353.676 66.7201 353.134 66.5512 352.626 66.3486V95.3538C352.931 95.5564 353.473 95.759 354.252 95.9954V66.8551Z" fill="#FBCC54"/>
<path d="M383.585 68.1377V71.3793C388.09 71.3793 391.748 75.026 391.748 79.5169C391.748 84.0078 388.09 87.6546 383.585 87.6546V90.8961C389.885 90.8961 395 85.7974 395 79.5169C395 73.2364 389.885 68.1377 383.585 68.1377Z" fill="#EEB219"/>
<path d="M422.293 66.4831C431.291 66.4831 438.585 65.0318 438.585 63.2416C438.585 61.4513 431.291 60 422.293 60C413.294 60 406 61.4513 406 63.2416C406 65.0318 413.294 66.4831 422.293 66.4831Z" fill="#FBCC54"/>
<path d="M422.293 66.4837C413.283 66.4837 406 65.0318 406 63.2422V95.7253C406 97.5149 413.283 98.9669 422.293 98.9669C431.303 98.9669 438.585 97.5149 438.585 95.7253V63.2422C438.585 65.0318 431.303 66.4837 422.293 66.4837Z" fill="#EEB219"/>
<path d="M422.292 65.6729C412.639 65.6729 407.151 64.0859 406.812 63.2079C407.185 62.3976 412.639 60.8105 422.292 60.8105C431.946 60.8105 437.433 62.3976 437.772 63.2755C437.433 64.0859 431.946 65.6729 422.292 65.6729Z" fill="#CC9B1F"/>
<path d="M409.624 64.4578C412.198 65.0993 416.5 65.6734 422.292 65.6734C428.084 65.6734 432.386 65.0993 434.96 64.4578C432.386 63.8162 428.084 63.2422 422.292 63.2422C416.5 63.2422 412.198 63.8162 409.624 64.4578Z" fill="#3F3128"/>
<path d="M430.456 96.9071C434.047 96.4681 436.282 95.8265 436.96 95.3538V66.3486C435.13 67.024 432.793 67.4292 430.456 67.6993V96.9071Z" fill="#CC9B1F"/>
<path d="M409.252 66.8551C408.676 66.7201 408.134 66.5512 407.626 66.3486V95.3538C407.931 95.5564 408.473 95.759 409.252 95.9954V66.8551Z" fill="#FBCC54"/>
<path d="M438.585 68.1377V71.3793C443.09 71.3793 446.748 75.026 446.748 79.5169C446.748 84.0078 443.09 87.6546 438.585 87.6546V90.8961C444.885 90.8961 450 85.7974 450 79.5169C450 73.2364 444.885 68.1377 438.585 68.1377Z" fill="#EEB219"/>
<path d="M464.783 47.212H480.911V50.056H464.783V47.212ZM464.783 55.744H480.911V58.588H464.783V55.744ZM501.2 57.544C501.2 56.584 501.356 55.744 501.668 55.024C502.004 54.28 502.4 53.656 502.856 53.152C503.336 52.648 503.96 52.048 504.728 51.352C505.688 50.512 506.396 49.792 506.852 49.192C507.308 48.568 507.536 47.824 507.536 46.96C507.536 45.784 507.08 44.848 506.168 44.152C505.256 43.432 503.996 43.072 502.388 43.072C499.58 43.072 497.432 44.02 495.944 45.916L493.316 44.044C494.324 42.748 495.608 41.752 497.168 41.056C498.752 40.36 500.576 40.012 502.64 40.012C505.256 40.012 507.332 40.588 508.868 41.74C510.404 42.868 511.172 44.428 511.172 46.42C511.172 47.404 511.004 48.28 510.668 49.048C510.356 49.792 509.972 50.416 509.516 50.92C509.06 51.424 508.448 52.024 507.68 52.72C506.696 53.608 505.964 54.388 505.484 55.06C505.028 55.732 504.8 56.56 504.8 57.544H501.2ZM503.036 65.716C502.364 65.716 501.8 65.5 501.344 65.068C500.912 64.612 500.696 64.06 500.696 63.412C500.696 62.764 500.912 62.224 501.344 61.792C501.8 61.336 502.364 61.108 503.036 61.108C503.708 61.108 504.26 61.336 504.692 61.792C505.124 62.224 505.34 62.764 505.34 63.412C505.34 64.06 505.112 64.612 504.656 65.068C504.224 65.5 503.684 65.716 503.036 65.716Z" fill="#2F2F2F"/>
</svg>
