<svg width="93" height="48" viewBox="0 0 93 48" fill="none" xmlns="http://www.w3.org/2000/svg">
<path d="M80.6236 18.808H91.3756V20.704H80.6236V18.808ZM80.6236 24.496H91.3756V26.392H80.6236V24.496Z" fill="#2F2F2F"/>
<path d="M33.7743 23.416H40.2303V25.408H33.7743V23.416Z" fill="#2F2F2F"/>
<path d="M17.918 15.02V17H8.63V15.434L13.634 10.682C14.198 10.142 14.576 9.674 14.768 9.278C14.972 8.87 15.074 8.468 15.074 8.072C15.074 7.484 14.876 7.034 14.48 6.722C14.084 6.41 13.502 6.254 12.734 6.254C11.45 6.254 10.466 6.692 9.782 7.568L8.144 6.308C8.636 5.648 9.296 5.138 10.124 4.778C10.964 4.406 11.9 4.22 12.932 4.22C14.3 4.22 15.392 4.544 16.208 5.192C17.024 5.84 17.432 6.722 17.432 7.838C17.432 8.522 17.288 9.164 17 9.764C16.712 10.364 16.16 11.048 15.344 11.816L11.978 15.02H17.918Z" fill="#2F2F2F"/>
<line x1="0.5" y1="23.5" x2="26.5" y2="23.5" stroke="#2F2F2F" stroke-linecap="round"/>
<path d="M13.156 35.602C14.32 35.746 15.208 36.142 15.82 36.79C16.432 37.438 16.738 38.248 16.738 39.22C16.738 39.952 16.552 40.618 16.18 41.218C15.808 41.818 15.244 42.298 14.488 42.658C13.744 43.006 12.832 43.18 11.752 43.18C10.852 43.18 9.982 43.054 9.142 42.802C8.314 42.538 7.606 42.178 7.018 41.722L8.026 39.904C8.482 40.288 9.034 40.594 9.682 40.822C10.342 41.038 11.02 41.146 11.716 41.146C12.544 41.146 13.192 40.978 13.66 40.642C14.14 40.294 14.38 39.826 14.38 39.238C14.38 38.65 14.152 38.194 13.696 37.87C13.252 37.534 12.568 37.366 11.644 37.366H10.492V35.764L13.354 32.362H7.63V30.4H16.216V31.966L13.156 35.602Z" fill="#2F2F2F"/>
<path d="M60.148 4.4V17H57.808V6.362H55.144V4.4H60.148Z" fill="#2F2F2F"/>
<line x1="47.5" y1="23.5" x2="73.5" y2="23.5" stroke="#2F2F2F" stroke-linecap="round"/>
<path d="M60.156 35.602C61.32 35.746 62.208 36.142 62.82 36.79C63.432 37.438 63.738 38.248 63.738 39.22C63.738 39.952 63.552 40.618 63.18 41.218C62.808 41.818 62.244 42.298 61.488 42.658C60.744 43.006 59.832 43.18 58.752 43.18C57.852 43.18 56.982 43.054 56.142 42.802C55.314 42.538 54.606 42.178 54.018 41.722L55.026 39.904C55.482 40.288 56.034 40.594 56.682 40.822C57.342 41.038 58.02 41.146 58.716 41.146C59.544 41.146 60.192 40.978 60.66 40.642C61.14 40.294 61.38 39.826 61.38 39.238C61.38 38.65 61.152 38.194 60.696 37.87C60.252 37.534 59.568 37.366 58.644 37.366H57.492V35.764L60.354 32.362H54.63V30.4H63.216V31.966L60.156 35.602Z" fill="#2F2F2F"/>
</svg>
