<svg width="70" height="45" viewBox="0 0 70 45" fill="none" xmlns="http://www.w3.org/2000/svg">
<path d="M0 5C0 2.23858 2.23858 0 5 0H65C67.7614 0 70 2.23858 70 5V40C70 42.7614 67.7614 45 65 45H5C2.23858 45 0 42.7614 0 40V5Z" fill="#9DD765"/>
<path d="M35.5376 21.192C36.7736 21.312 37.7156 21.696 38.3636 22.344C39.0116 22.98 39.3356 23.796 39.3356 24.792C39.3356 25.512 39.1556 26.166 38.7956 26.754C38.4356 27.33 37.8956 27.792 37.1756 28.14C36.4676 28.476 35.5976 28.644 34.5656 28.644C33.6656 28.644 32.8016 28.512 31.9736 28.248C31.1456 27.972 30.4676 27.594 29.9396 27.114L30.7676 25.692C31.1996 26.1 31.7516 26.43 32.4236 26.682C33.0956 26.922 33.8096 27.042 34.5656 27.042C35.5016 27.042 36.2276 26.844 36.7436 26.448C37.2716 26.052 37.5356 25.506 37.5356 24.81C37.5356 24.114 37.2776 23.574 36.7616 23.19C36.2456 22.806 35.4656 22.614 34.4216 22.614H33.4136V21.354L36.5816 17.466H30.5156V15.9H38.8316V17.124L35.5376 21.192Z" fill="#065B5B"/>
</svg>
