<svg width="571" height="78" viewBox="0 0 571 78" fill="none" xmlns="http://www.w3.org/2000/svg">
<path d="M531.352 62.3471V73H529.374V64.0059H527.122V62.3471H531.352ZM541.181 71.326V73H533.329V71.676L537.559 67.6583C538.036 67.2018 538.356 66.8061 538.518 66.4713C538.691 66.1263 538.777 65.7865 538.777 65.4517C538.777 64.9545 538.61 64.5741 538.275 64.3103C537.94 64.0465 537.448 63.9146 536.799 63.9146C535.713 63.9146 534.881 64.2849 534.303 65.0255L532.918 63.9603C533.334 63.4022 533.892 62.9711 534.592 62.6667C535.302 62.3522 536.093 62.1949 536.966 62.1949C538.123 62.1949 539.046 62.4688 539.736 63.0167C540.426 63.5646 540.771 64.3103 540.771 65.2538C540.771 65.8321 540.649 66.3749 540.405 66.8822C540.162 67.3895 539.695 67.9678 539.005 68.6171L536.159 71.326H541.181Z" fill="#5D8C30"/>
<path d="M431.352 63.3471V74H429.374V65.0059H427.122V63.3471H431.352ZM437.909 74.1522C437.057 74.1522 436.296 73.9391 435.627 73.513C434.957 73.0767 434.43 72.4477 434.044 71.6259C433.658 70.794 433.466 69.8099 433.466 68.6736C433.466 67.5372 433.658 66.5582 434.044 65.7364C434.43 64.9045 434.957 64.2754 435.627 63.8493C436.296 63.413 437.057 63.1949 437.909 63.1949C438.762 63.1949 439.523 63.413 440.192 63.8493C440.872 64.2754 441.405 64.9045 441.79 65.7364C442.176 66.5582 442.368 67.5372 442.368 68.6736C442.368 69.8099 442.176 70.794 441.79 71.6259C441.405 72.4477 440.872 73.0767 440.192 73.513C439.523 73.9391 438.762 74.1522 437.909 74.1522ZM437.909 72.4325C438.67 72.4325 439.269 72.118 439.705 71.489C440.152 70.8599 440.375 69.9215 440.375 68.6736C440.375 67.4256 440.152 66.4872 439.705 65.8581C439.269 65.2291 438.67 64.9146 437.909 64.9146C437.159 64.9146 436.56 65.2291 436.114 65.8581C435.677 66.4872 435.459 67.4256 435.459 68.6736C435.459 69.9215 435.677 70.8599 436.114 71.489C436.56 72.118 437.159 72.4325 437.909 72.4325Z" fill="#5D8C30"/>
<path d="M338.579 68.3996C339.137 68.6533 339.563 68.9982 339.857 69.4345C340.161 69.8606 340.314 70.3628 340.314 70.9411C340.314 71.5904 340.131 72.1586 339.766 72.6456C339.411 73.1325 338.903 73.5079 338.244 73.7717C337.585 74.0254 336.819 74.1522 335.946 74.1522C335.073 74.1522 334.307 74.0254 333.648 73.7717C332.999 73.5079 332.496 73.1325 332.141 72.6456C331.786 72.1586 331.609 71.5904 331.609 70.9411C331.609 70.3628 331.756 69.8606 332.05 69.4345C332.344 68.9982 332.765 68.6533 333.313 68.3996C332.887 68.1663 332.557 67.8619 332.324 67.4865C332.101 67.101 331.989 66.6596 331.989 66.1625C331.989 65.5639 332.152 65.0414 332.476 64.595C332.811 64.1486 333.278 63.8037 333.876 63.5602C334.475 63.3167 335.165 63.1949 335.946 63.1949C336.737 63.1949 337.432 63.3167 338.031 63.5602C338.63 63.8037 339.096 64.1486 339.431 64.595C339.766 65.0414 339.933 65.5639 339.933 66.1625C339.933 66.6596 339.817 67.0959 339.583 67.4713C339.35 67.8467 339.015 68.1561 338.579 68.3996ZM335.946 64.7472C335.327 64.7472 334.835 64.8791 334.47 65.1429C334.115 65.4067 333.937 65.777 333.937 66.2538C333.937 66.7104 334.115 67.0756 334.47 67.3495C334.835 67.6133 335.327 67.7452 335.946 67.7452C336.575 67.7452 337.072 67.6133 337.437 67.3495C337.803 67.0756 337.985 66.7104 337.985 66.2538C337.985 65.777 337.798 65.4067 337.422 65.1429C337.057 64.8791 336.565 64.7472 335.946 64.7472ZM335.946 72.5999C336.676 72.5999 337.255 72.4477 337.681 72.1434C338.107 71.839 338.32 71.4179 338.32 70.8802C338.32 70.3527 338.107 69.9367 337.681 69.6323C337.255 69.3279 336.676 69.1758 335.946 69.1758C335.216 69.1758 334.642 69.3279 334.226 69.6323C333.81 69.9367 333.602 70.3527 333.602 70.8802C333.602 71.4179 333.81 71.839 334.226 72.1434C334.642 72.4477 335.216 72.5999 335.946 72.5999Z" fill="#5D8C30"/>
<path d="M38.3854 72.326V74H30.5326V72.676L34.7634 68.6583C35.2402 68.2018 35.5598 67.8061 35.7221 67.4713C35.8946 67.1263 35.9808 66.7865 35.9808 66.4517C35.9808 65.9545 35.8134 65.5741 35.4786 65.3103C35.1438 65.0465 34.6518 64.9146 34.0024 64.9146C32.9169 64.9146 32.0849 65.2849 31.5066 66.0255L30.1217 64.9603C30.5377 64.4022 31.0957 63.9711 31.7958 63.6667C32.506 63.3522 33.2973 63.1949 34.1698 63.1949C35.3264 63.1949 36.2497 63.4688 36.9396 64.0167C37.6295 64.5646 37.9745 65.3103 37.9745 66.2538C37.9745 66.8321 37.8527 67.3749 37.6092 67.8822C37.3657 68.3895 36.899 68.9678 36.2091 69.6171L33.3633 72.326H38.3854Z" fill="#5D8C30"/>
<path d="M138.166 71.5803H136.279V74H134.361V71.5803H128.517V70.2106L133.768 63.3471H135.883L130.937 69.9062H134.422V67.7604H136.279V69.9062H138.166V71.5803Z" fill="#5D8C30"/>
<path d="M235.509 67.4256C236.209 67.4256 236.838 67.5626 237.396 67.8365C237.954 68.1003 238.39 68.4808 238.705 68.9779C239.019 69.4751 239.177 70.0483 239.177 70.6976C239.177 71.3875 239.004 71.9962 238.659 72.5238C238.314 73.0412 237.848 73.442 237.259 73.7261C236.671 74.0101 236.011 74.1522 235.281 74.1522C233.82 74.1522 232.684 73.6956 231.872 72.7825C231.07 71.8694 230.67 70.5606 230.67 68.8562C230.67 67.659 230.888 66.6394 231.324 65.7973C231.76 64.945 232.369 64.3008 233.15 63.8645C233.942 63.4181 234.855 63.1949 235.89 63.1949C236.437 63.1949 236.95 63.2558 237.427 63.3775C237.914 63.4891 238.335 63.6565 238.69 63.8797L237.959 65.3712C237.432 65.0262 236.757 64.8537 235.935 64.8537C234.91 64.8537 234.109 65.1682 233.531 65.7973C232.952 66.4263 232.663 67.3343 232.663 68.5214V68.5366C232.978 68.1713 233.378 67.8974 233.865 67.7148C234.352 67.522 234.9 67.4256 235.509 67.4256ZM235.174 72.5999C235.793 72.5999 236.295 72.4376 236.681 72.1129C237.066 71.7781 237.259 71.3368 237.259 70.7889C237.259 70.2309 237.066 69.7896 236.681 69.4649C236.295 69.1402 235.778 68.9779 235.129 68.9779C234.489 68.9779 233.967 69.1504 233.561 69.4953C233.165 69.8403 232.968 70.2766 232.968 70.8041C232.968 71.3216 233.16 71.7527 233.546 72.0977C233.942 72.4325 234.484 72.5999 235.174 72.5999Z" fill="#5D8C30"/>
<path d="M0.384857 48.6495C0.0451225 48.9892 0.0451225 49.5401 0.384857 49.8798L5.92115 55.4161C6.26088 55.7558 6.8117 55.7558 7.15143 55.4161C7.49117 55.0763 7.49117 54.5255 7.15143 54.1858L2.23029 49.2646L7.15143 44.3435C7.49117 44.0038 7.49117 43.453 7.15143 43.1132C6.8117 42.7735 6.26088 42.7735 5.92115 43.1132L0.384857 48.6495ZM570.615 49.8798C570.955 49.5401 570.955 48.9892 570.615 48.6495L565.079 43.1132C564.739 42.7735 564.188 42.7735 563.849 43.1132C563.509 43.453 563.509 44.0038 563.849 44.3435L568.77 49.2646L563.849 54.1858C563.509 54.5255 563.509 55.0763 563.849 55.4161C564.188 55.7558 564.739 55.7558 565.079 55.4161L570.615 49.8798ZM1 50.1346H570V48.3947H1V50.1346Z" fill="#888888"/>
<line x1="33.8699" y1="44.8699" x2="33.8699" y2="55.8121" stroke="#5D8C30" stroke-width="1.73989" stroke-linecap="round"/>
<line x1="234.16" y1="45.1599" x2="234.16" y2="55.5221" stroke="#5D8C30" stroke-width="2.31985" stroke-linecap="round"/>
<line x1="134.16" y1="45.1599" x2="134.16" y2="55.5221" stroke="#5D8C30" stroke-width="2.31985" stroke-linecap="round"/>
<line x1="334.16" y1="44.1599" x2="334.16" y2="54.5221" stroke="#5D8C30" stroke-width="2.31985" stroke-linecap="round"/>
<line x1="433.87" y1="44.8699" x2="433.87" y2="55.8121" stroke="#5D8C30" stroke-width="1.73989" stroke-linecap="round"/>
<line x1="534.16" y1="45.1599" x2="534.16" y2="55.5221" stroke="#5D8C30" stroke-width="2.31985" stroke-linecap="round"/>
<path d="M432.017 41.814C431.915 42.3567 432.271 42.8798 432.814 42.9826L441.657 44.6564C442.2 44.7591 442.723 44.4025 442.826 43.8598C442.928 43.3172 442.572 42.794 442.029 42.6913L434.169 41.2034L435.656 33.343C435.759 32.8004 435.402 32.2772 434.86 32.1745C434.317 32.0718 433.794 32.4284 433.691 32.971L432.017 41.814ZM534 42C534.649 41.2389 534.649 41.2388 534.649 41.2388C534.649 41.2388 534.648 41.2388 534.648 41.2387C534.648 41.2387 534.648 41.2387 534.648 41.2386C534.648 41.2385 534.648 41.2384 534.648 41.2383C534.648 41.2381 534.647 41.2378 534.647 41.2375C534.646 41.2369 534.645 41.2361 534.644 41.2351C534.642 41.2332 534.639 41.2305 534.635 41.2271C534.627 41.2204 534.615 41.2108 534.601 41.1985C534.571 41.174 534.528 41.1384 534.472 41.0926C534.36 41.0008 534.195 40.8676 533.979 40.6979L532.745 42.272C532.95 42.4328 533.104 42.5572 533.206 42.6403C533.256 42.6819 533.294 42.7131 533.318 42.7335C533.331 42.7436 533.34 42.7511 533.345 42.7557C533.348 42.758 533.35 42.7597 533.351 42.7606C533.351 42.761 533.352 42.7613 533.352 42.7614C533.352 42.7614 533.352 42.7614 533.352 42.7614C533.352 42.7614 533.352 42.7614 533.352 42.7613C533.352 42.7613 533.352 42.7613 533.352 42.7612C533.352 42.7612 533.351 42.7612 533.351 42.7612C533.351 42.7612 533.351 42.7611 534 42ZM532.58 39.6447C532.174 39.3488 531.709 39.0187 531.187 38.6606L530.055 40.309C530.561 40.6566 531.011 40.9763 531.404 41.2621L532.58 39.6447ZM529.761 37.7055C529.305 37.4085 528.82 37.099 528.305 36.7794L527.25 38.4785C527.752 38.79 528.225 39.0915 528.668 39.3806L529.761 37.7055ZM526.843 35.8927C526.372 35.6139 525.881 35.3297 525.371 35.0415L524.387 36.783C524.885 37.0643 525.364 37.3417 525.824 37.6137L526.843 35.8927ZM523.868 34.213C523.372 33.9459 522.861 33.6767 522.333 33.4064L521.421 35.1861C521.936 35.4501 522.436 35.7131 522.92 35.974L523.868 34.213ZM520.821 32.6494C520.316 32.4029 519.799 32.1563 519.27 31.9105L518.428 33.7245C518.945 33.9647 519.45 34.2056 519.943 34.4464L520.821 32.6494ZM517.707 31.2032C517.195 30.9774 516.672 30.753 516.14 30.5306L515.369 32.376C515.889 32.5934 516.4 32.8127 516.9 33.0333L517.707 31.2032ZM514.539 29.8804C514.02 29.6754 513.491 29.4726 512.954 29.2727L512.257 31.147C512.781 31.3423 513.297 31.5404 513.805 31.7408L514.539 29.8804ZM511.327 28.6852C510.799 28.5006 510.264 28.3191 509.721 28.141L509.098 30.0415C509.628 30.2154 510.151 30.3927 510.667 30.5731L511.327 28.6852ZM508.073 27.6192C507.537 27.4554 506.994 27.2952 506.444 27.1392L505.898 29.0631C506.435 29.2155 506.965 29.3719 507.488 29.5319L508.073 27.6192ZM504.776 26.6838C504.233 26.5417 503.684 26.4038 503.13 26.2704L502.662 28.2149C503.204 28.3451 503.739 28.4798 504.269 28.6186L504.776 26.6838ZM501.447 25.8842C500.897 25.764 500.342 25.6484 499.781 25.5378L499.394 27.5C499.941 27.6079 500.483 27.7207 501.02 27.838L501.447 25.8842ZM498.089 25.2224C497.533 25.1246 496.971 25.0319 496.404 24.9445L496.099 26.9211C496.652 27.0064 497.2 27.0969 497.743 27.1922L498.089 25.2224ZM494.706 24.701C494.143 24.6262 493.575 24.5568 493.002 24.4931L492.781 26.4809C493.339 26.543 493.894 26.6107 494.443 26.6836L494.706 24.701ZM491.303 24.3223C490.733 24.2711 490.159 24.2256 489.58 24.1861L489.444 26.1815C490.008 26.22 490.568 26.2643 491.124 26.3143L491.303 24.3223ZM487.883 24.0883C487.314 24.0616 486.74 24.0407 486.162 24.026L486.111 26.0253C486.675 26.0397 487.234 26.06 487.789 26.0861L487.883 24.0883ZM484.453 24.0007C483.886 23.9983 483.315 24.002 482.741 24.0119L482.776 26.0116C483.335 26.002 483.892 25.9984 484.445 26.0007L484.453 24.0007ZM481.016 24.0603C480.453 24.0822 479.887 24.1101 479.318 24.1444L479.438 26.1408C479.993 26.1074 480.545 26.0802 481.094 26.0588L481.016 24.0603ZM477.6 24.266C477.035 24.3121 476.467 24.3645 475.896 24.4233L476.101 26.4128C476.658 26.3554 477.212 26.3044 477.763 26.2594L477.6 24.266ZM474.199 24.6162C473.63 24.6869 473.059 24.7641 472.485 24.8478L472.774 26.8269C473.334 26.7451 473.891 26.6699 474.446 26.601L474.199 24.6162ZM470.807 25.1106C470.247 25.2042 469.684 25.3041 469.119 25.4106L469.49 27.376C470.041 27.2721 470.59 27.1745 471.136 27.0832L470.807 25.1106ZM467.426 25.7482C466.876 25.8637 466.324 25.9855 465.769 26.1136L466.22 28.0622C466.761 27.9371 467.3 27.8182 467.837 27.7055L467.426 25.7482ZM464.1 26.5175C463.547 26.6571 462.993 26.8032 462.436 26.9558L462.964 28.8847C463.508 28.7356 464.05 28.5929 464.59 28.4566L464.1 26.5175ZM460.803 27.4203C460.257 27.5815 459.709 27.7489 459.16 27.9229L459.763 29.8297C460.3 29.6597 460.836 29.496 461.369 29.3385L460.803 27.4203ZM457.525 28.4575C456.993 28.6373 456.459 28.8232 455.924 29.0153L456.599 30.8978C457.123 30.7099 457.645 30.5281 458.165 30.3524L457.525 28.4575ZM454.313 29.6104C453.779 29.8131 453.244 30.0221 452.708 30.2374L453.453 32.0935C453.978 31.8828 454.501 31.6783 455.023 31.48L454.313 29.6104ZM451.144 30.8813C450.621 31.102 450.097 31.3287 449.571 31.5617L450.382 33.3901C450.896 33.162 451.41 32.94 451.922 32.7239L451.144 30.8813ZM447.993 32.2781C447.487 32.5131 446.979 32.7539 446.471 33.0005L447.344 34.8C447.842 34.5582 448.339 34.3223 448.835 34.092L447.993 32.2781ZM444.942 33.758C444.432 34.0164 443.92 34.2807 443.407 34.5511L444.339 36.3204C444.842 36.0552 445.344 35.796 445.845 35.5426L444.942 33.758ZM441.91 35.3552C441.417 35.625 440.924 35.9004 440.429 36.1814L441.417 37.9203C441.903 37.6444 442.387 37.3741 442.871 37.1094L441.91 35.3552ZM438.943 37.0417C438.45 37.3318 437.956 37.6277 437.462 37.9292L438.503 39.6367C438.989 39.3405 439.474 39.0499 439.958 38.7649L438.943 37.0417ZM436.032 38.8156C435.555 39.1164 435.077 39.4226 434.598 39.7343L435.688 41.4107C436.159 41.1043 436.629 40.8033 437.099 40.5077L436.032 38.8156ZM433.158 40.6856C432.918 40.8469 432.677 41.0096 432.437 41.1737L433.563 42.8263C433.8 42.6649 434.037 42.5048 434.273 42.3462L433.158 40.6856Z" fill="#3C5F1B"/>
<g clip-path="url(#clip0_5595_118228)">
<path d="M540.894 45.1205C540.894 45.1205 539.848 47.2221 535.197 47.1579C530.547 47.0937 529.097 45.7542 529.097 45.7542L527.473 45.8985L527.021 45.9387L521.761 48.1285C521.761 48.1285 521.507 48.1766 521.111 48.2167C520.897 48.2408 520.652 48.2568 520.366 48.2568C520.255 48.2568 520.137 48.2568 520.018 48.2568C520.01 48.2568 519.994 48.2568 519.986 48.2568C519.978 48.2568 519.978 48.2568 519.97 48.2568C519.962 48.2568 519.962 48.2568 519.954 48.2568C519.939 48.2568 519.915 48.2568 519.899 48.2568H519.891C519.867 48.2568 519.844 48.2568 519.828 48.2568C519.804 48.2568 519.78 48.2568 519.756 48.2568C519.733 48.2568 519.709 48.2568 519.685 48.2568C519.677 48.2568 519.669 48.2568 519.653 48.2568C519.638 48.2568 519.614 48.2568 519.598 48.2568H519.59C519.566 48.2568 519.535 48.2568 519.511 48.2488C519.487 48.2488 519.455 48.2408 519.432 48.2408H519.424C519.4 48.2408 519.376 48.2328 519.352 48.2328C519.321 48.2328 519.297 48.2248 519.265 48.2248C519.241 48.2248 519.218 48.2167 519.194 48.2167C519.162 48.2167 519.13 48.2087 519.099 48.2087C519.075 48.2087 519.051 48.2007 519.027 48.2007C519.004 48.2007 518.972 48.1927 518.948 48.1927H518.94C518.917 48.1927 518.893 48.1846 518.861 48.1766C518.853 48.1766 518.853 48.1766 518.845 48.1766C518.822 48.1766 518.798 48.1686 518.774 48.1606C518.75 48.1526 518.719 48.1526 518.695 48.1445C518.679 48.1445 518.663 48.1365 518.655 48.1365C518.639 48.1365 518.623 48.1285 518.616 48.1285C518.6 48.1285 518.584 48.1205 518.568 48.1205C518.552 48.1205 518.544 48.1124 518.528 48.1124C518.513 48.1124 518.497 48.1044 518.489 48.1044C518.457 48.0964 518.433 48.0884 518.402 48.0884C518.314 48.0643 518.227 48.0483 518.148 48.0242C518.14 48.0242 518.124 48.0162 518.116 48.0162C518.085 48.0082 518.053 48.0002 518.021 47.9841C518.005 47.9841 517.998 47.9761 517.99 47.9761C517.958 47.9681 517.934 47.96 517.91 47.952C517.895 47.944 517.887 47.944 517.871 47.936C517.855 47.928 517.847 47.928 517.831 47.9199H517.823C517.815 47.9199 517.799 47.9119 517.792 47.9119C517.776 47.9039 517.768 47.9039 517.752 47.8959C517.744 47.8959 517.728 47.8879 517.72 47.8798C517.704 47.8718 517.689 47.8638 517.673 47.8638C517.665 47.8558 517.649 47.8558 517.641 47.8477C517.578 47.8237 517.522 47.7996 517.459 47.7675C517.451 47.7595 517.443 47.7595 517.435 47.7515C517.419 47.7435 517.411 47.7354 517.395 47.7354C517.086 47.583 516.223 47.8237 515.74 47.8718C515.732 47.8718 515.732 47.8718 515.724 47.8718C515.716 47.8718 515.708 47.8718 515.692 47.8718C515.684 47.8718 515.676 47.8718 515.66 47.8718C515.652 47.8718 515.637 47.8718 515.629 47.8718C515.502 47.8718 515.359 47.8638 515.209 47.8317C515.185 47.8237 515.161 47.8237 515.145 47.8157C515.09 47.7996 515.027 47.7836 514.971 47.7675C514.963 47.7675 514.947 47.7595 514.939 47.7595C514.9 47.7435 514.86 47.7274 514.821 47.7114C514.797 47.7034 514.781 47.6953 514.757 47.6873C514.741 47.6793 514.718 47.6713 514.702 47.6633C514.694 47.6552 514.678 47.6552 514.67 47.6472C514.464 47.551 514.266 47.4146 514.108 47.2461C513.886 47.0055 513.751 46.6927 513.799 46.2996C513.949 44.8718 515.122 44.3344 516.08 44.6231C516.437 44.7274 516.952 45.1766 517.356 45.5055C517.53 45.6499 517.689 45.7702 517.799 45.8264C518.481 46.1873 519.273 46.452 519.978 46.5483C521.008 46.6927 521.84 46.4921 521.856 45.7702C521.856 45.682 521.832 45.5777 521.777 45.4654C521.642 45.1686 521.341 44.7916 520.937 44.3745C519.432 42.8103 516.508 40.6686 515.47 39.9707C511.715 37.452 511.39 33.698 512.888 32.1338C514.155 30.8103 516.017 30.7782 517.736 31.1953C519.772 31.6927 521.61 32.8157 522.078 33.1927C522.767 33.7381 523.052 34.2114 523.052 34.2114L523.203 33.0322L524.32 24.3691L538.652 24.9547L538.992 36.4734L540.894 45.1205Z" fill="#78B715"/>
<path d="M520.714 47.0212C520.714 47.0212 520.627 47.6309 520.374 48.2565C519.494 48.2726 518.345 48.1763 517.355 47.7031C517.046 47.5507 516.183 47.7913 515.699 47.8394C515.414 47.8715 515.01 47.7993 514.638 47.6228C515.034 46.925 516.088 46.58 517.72 46.8849C519.724 47.2539 520.714 47.0212 520.714 47.0212Z" fill="#5C9100"/>
<path d="M524.106 42.9223C523.401 41.8154 522.545 40.8288 521.808 40.0667C520.366 38.5667 519.035 37.5801 519.027 37.5721C518.885 37.4678 518.853 37.2673 518.956 37.1149C519.059 36.9705 519.257 36.9384 519.408 37.0427C519.463 37.0828 520.786 38.0614 522.268 39.6015C522.664 40.0106 523.036 40.4197 523.377 40.8368C523.646 41.5507 523.915 42.2726 524.106 42.9223Z" fill="#5C9100"/>
<path d="M521.372 47.9837C521.293 48.0639 521.198 48.1361 521.111 48.2083C520.825 48.4248 520.493 48.6093 520.136 48.7617C519.122 49.1869 517.878 49.3633 516.935 49.2831C515.858 49.1869 515.161 48.7457 515.604 47.9596C515.628 47.9195 515.652 47.8794 515.684 47.8393C516.23 47.1013 517.537 47.2778 518.583 47.3821C518.758 47.3981 518.924 47.4142 519.082 47.4302C519.344 47.4462 519.597 47.4222 519.819 47.366C520.263 47.2698 520.611 47.0853 520.714 47.0291C520.738 47.0131 520.754 47.0051 520.754 47.0051C520.754 47.0051 523.194 46.2511 521.372 47.9837Z" fill="#84C11B"/>
<path d="M527.473 45.8912L527.021 45.9313L521.761 48.1212C521.761 48.1212 521.507 48.1693 521.111 48.2094C520.826 48.426 520.493 48.6105 520.136 48.7629C520.121 48.7228 520.105 48.6746 520.089 48.6265C520.041 48.4982 520.01 48.3698 519.97 48.2495C519.875 47.9126 519.827 47.6238 519.812 47.3591C519.804 47.2629 519.804 47.1746 519.812 47.0864C519.827 46.8698 519.867 46.6773 519.93 46.5089C520.96 46.6532 521.792 46.4527 521.808 45.7308C521.808 45.6425 521.784 45.5383 521.729 45.426C522.141 45.3698 524.145 45.7629 524.32 44.5115C524.518 43.0516 522.814 39.803 522.339 38.0623C521.697 35.7361 521.935 33.5302 522.03 33.1372C522.173 32.5676 522.331 32.2949 522.331 32.2949C522.331 32.2949 522.656 32.4553 523.147 32.9767C524.137 34.0195 525.809 36.5062 526.926 42.0169C527.275 43.7415 527.441 44.9928 527.473 45.8912Z" fill="#5C9100"/>
<path d="M556.896 48.2408C556.817 48.4975 556.659 48.682 556.461 48.8103C556.033 49.0911 555.415 49.1151 555.019 49.075C553.87 48.9467 552.357 47.6071 551.438 47.5189C550.725 47.4467 549.632 47.3344 548.546 47.182C547.508 47.0376 546.486 46.8611 545.813 46.6766C544.442 46.2836 541.218 46.059 541.218 46.059L541.337 39.9467L541.44 34.7327C541.44 34.7327 541.614 34.6044 541.923 34.3958C542.105 34.2675 542.343 34.1151 542.62 33.9386C543.69 33.2488 545.377 32.2541 547.168 31.5242C549.227 30.6819 551.43 30.1846 552.983 30.9065C556.548 32.567 548.586 42.4493 547.397 44.3504C547.31 44.4948 547.263 44.5911 547.255 44.6312C547.168 45.313 549.473 45.9306 551.921 46.1552C552.246 46.1873 552.579 46.1312 552.911 46.051C553.926 45.8023 554.987 45.2729 556.096 45.8665C556.817 46.2515 557.198 47.2943 556.896 48.2408Z" fill="#78B715"/>
<path d="M547.405 37.5074C546.28 38.3416 545.218 40.1144 544.339 42.617C543.983 43.6358 543.721 44.5823 543.555 45.2561C543.531 45.2481 543.507 45.24 543.483 45.232C543.269 45.1438 543.103 45.0315 542.992 44.8791C543.159 44.2133 543.412 43.347 543.737 42.4005C544.141 41.2454 544.593 40.2267 545.068 39.3844C545.678 38.3096 546.336 37.4994 547.025 36.986C547.167 36.8818 547.365 36.9138 547.476 37.0582C547.579 37.2026 547.548 37.4031 547.405 37.5074Z" fill="#5C9100"/>
<path d="M548.555 47.1822C547.517 47.0378 546.495 46.8614 545.822 46.6769C544.451 46.2838 541.227 46.0592 541.227 46.0592L541.345 39.9469L541.932 34.4042L542.066 33.0967C542.066 33.0967 542.352 33.1689 542.621 33.9469C542.859 34.6288 543.096 35.856 543.12 38.0539C543.183 42.7464 541.987 44.6394 543.477 45.241C544.942 45.8186 547.747 43.5325 548.555 47.1822Z" fill="#5C9100"/>
<path d="M523.916 24.0645L526.839 44.8318L531.981 46.8452L535.459 47.3104L540.49 45.4896L539.65 28.1393L523.916 24.0645Z" fill="#87CB29"/>
<path d="M547.73 16.6524C548.086 17.5107 548.308 18.377 548.395 19.2273C548.491 20.1578 548.419 21.0802 548.189 21.9626C548.15 22.115 548.11 22.2594 548.063 22.4037C547.643 23.6952 546.882 24.8503 545.797 25.8449C544.64 26.9037 543.167 27.738 541.424 28.3155C539.689 28.893 537.763 29.1979 535.711 29.2219C535.632 29.2219 535.561 29.2219 535.482 29.2219C533.43 29.2219 531.33 28.9412 529.247 28.3797C527.084 27.8021 525.048 26.9599 523.218 25.877C521.443 24.8342 519.914 23.607 518.686 22.2353C517.45 20.8556 516.579 19.3957 516.087 17.8957C515.58 16.3316 515.509 14.7914 515.897 13.3235C516.19 12.2005 516.737 11.1578 517.529 10.2353C517.569 10.1872 517.616 10.139 517.664 10.0829C518.448 9.20053 519.447 8.44652 520.627 7.82888C520.516 7.34759 520.461 6.85829 520.461 6.36096C520.461 5.50267 520.627 4.66845 520.952 3.88235C521.269 3.12032 521.72 2.4385 522.299 1.86096C522.877 1.2754 523.55 0.818182 524.295 0.497326C525.072 0.168449 525.895 0 526.743 0C527.591 0 528.415 0.168449 529.191 0.497326C529.944 0.818182 530.617 1.2754 531.188 1.86096C531.766 2.44652 532.218 3.12834 532.535 3.88235C532.859 4.66845 533.026 5.50267 533.026 6.36096C533.026 6.39305 533.026 6.42513 533.026 6.45722C533.153 6.45722 533.287 6.44118 533.446 6.43316C534.024 6.38503 534.816 6.31283 536.005 6.70588C537.161 7.09091 537.637 7.49198 538.025 7.81283C538.175 7.94118 538.318 8.0615 538.492 8.16578C539.047 7.34759 539.784 6.66578 540.631 6.19251C541.558 5.67112 542.612 5.39037 543.682 5.39037C544.529 5.39037 545.353 5.55882 546.13 5.8877C546.882 6.20856 547.556 6.66578 548.126 7.25134C548.704 7.8369 549.156 8.51872 549.473 9.27273C549.798 10.0588 549.964 10.893 549.964 11.7513C549.964 12.746 549.742 13.7005 549.307 14.5829C548.95 15.385 548.395 16.0909 547.73 16.6524Z" fill="#87CB29"/>
<path d="M547.73 16.6524C548.086 17.5107 548.308 18.377 548.395 19.2273C548.491 20.1578 548.419 21.0802 548.189 21.9626C548.15 22.115 548.11 22.2594 548.063 22.4037C547.643 23.6952 546.882 24.8503 545.797 25.8449C544.791 26.7674 543.539 27.5214 542.081 28.0829L538.651 25.7246C538.651 25.7246 524.152 22.8128 522.124 25.1952C522.172 25.2273 522.211 25.2513 522.259 25.2834C520.888 24.377 519.692 23.3583 518.686 22.2353C517.45 20.8556 516.579 19.3957 516.087 17.8957C515.58 16.3316 515.509 14.7914 515.897 13.3235C516.19 12.2005 516.737 11.1578 517.529 10.2353C517.569 10.1872 517.616 10.139 517.664 10.0829C518.448 9.20053 519.447 8.44652 520.627 7.82888C520.516 7.34759 520.461 6.85829 520.461 6.36096C520.461 5.50267 520.627 4.66845 520.952 3.88235C521.269 3.12032 521.72 2.4385 522.299 1.86096C522.877 1.2754 523.55 0.818182 524.295 0.497326C525.072 0.168449 525.895 0 526.743 0C527.591 0 528.415 0.168449 529.191 0.497326C529.944 0.818182 530.617 1.2754 531.188 1.86096C531.766 2.44652 532.218 3.12834 532.535 3.88235C532.859 4.66845 533.026 5.50267 533.026 6.36096C533.026 6.39305 533.026 6.42513 533.026 6.45722C533.153 6.45722 533.287 6.44118 533.446 6.43316C534.024 6.38503 534.816 6.31283 536.005 6.70588C537.161 7.09091 537.637 7.49198 538.025 7.81283C538.175 7.94118 538.318 8.0615 538.492 8.16578C539.047 7.34759 539.784 6.66578 540.631 6.19251C541.558 5.67112 542.612 5.39037 543.682 5.39037C544.529 5.39037 545.353 5.55882 546.13 5.8877C546.882 6.20856 547.556 6.66578 548.126 7.25134C548.704 7.8369 549.156 8.51872 549.473 9.27273C549.798 10.0588 549.964 10.893 549.964 11.7513C549.964 12.746 549.742 13.7005 549.307 14.5829C548.95 15.385 548.395 16.0909 547.73 16.6524Z" fill="#87CB29"/>
<path d="M547.73 16.6524C548.086 17.5107 548.308 18.377 548.395 19.2273C548.491 20.1578 548.419 21.0802 548.189 21.9626C548.15 22.115 548.11 22.2594 548.063 22.4037C547.643 23.6952 546.882 24.8503 545.797 25.8449C544.64 26.9037 543.167 27.738 541.424 28.3155C539.689 28.893 537.763 29.1979 535.711 29.2219C535.632 29.2219 535.561 29.2219 535.482 29.2219C533.43 29.2219 531.33 28.9412 529.247 28.3797C527.084 27.8021 525.048 26.9599 523.218 25.877C521.443 24.8342 519.914 23.607 518.686 22.2353C517.45 20.8556 516.579 19.3957 516.087 17.8957C515.58 16.3316 515.509 14.7914 515.897 13.3235C516.19 12.2005 516.737 11.1578 517.529 10.2353C517.569 10.1872 517.616 10.139 517.664 10.0829C518.448 9.20053 519.447 8.44652 520.627 7.82888C520.516 7.34759 520.461 6.85829 520.461 6.36096C520.461 5.50267 520.627 4.66845 520.952 3.88235C521.269 3.12032 521.72 2.4385 522.299 1.86096C522.877 1.2754 523.55 0.818182 524.295 0.497326C525.072 0.168449 525.895 0 526.743 0C527.591 0 528.415 0.168449 529.191 0.497326C529.944 0.818182 530.617 1.2754 531.188 1.86096C531.766 2.44652 532.218 3.12834 532.535 3.88235C532.859 4.66845 533.026 5.50267 533.026 6.36096C533.026 6.39305 533.026 6.42513 533.026 6.45722C533.153 6.45722 533.287 6.44118 533.446 6.43316C534.024 6.38503 534.816 6.31283 536.005 6.70588C537.161 7.09091 537.637 7.49198 538.025 7.81283C538.175 7.94118 538.318 8.0615 538.492 8.16578C539.047 7.34759 539.784 6.66578 540.631 6.19251C541.558 5.67112 542.612 5.39037 543.682 5.39037C544.529 5.39037 545.353 5.55882 546.13 5.8877C546.882 6.20856 547.556 6.66578 548.126 7.25134C548.704 7.8369 549.156 8.51872 549.473 9.27273C549.798 10.0588 549.964 10.893 549.964 11.7513C549.964 12.746 549.742 13.7005 549.307 14.5829C548.95 15.385 548.395 16.0909 547.73 16.6524Z" fill="#87CB29"/>
<path d="M540.259 45.9547C539.411 46.9895 538.73 45.7703 536.868 48.1045C536.551 48.3451 536.25 48.5617 536.02 48.6098C535.505 48.7141 534.428 48.3852 534.333 47.4547C534.333 47.4708 534.325 47.4868 534.325 47.5029C534.008 48.7783 531.615 48.2489 530.784 47.4788C529.968 46.7328 528.557 45.9788 528.272 46.2756C528.232 46.3157 528.209 46.3719 528.185 46.436C527.369 45.7221 526.482 44.7596 526.426 43.4601C526.41 43.1473 526.426 42.666 526.458 42.0724C526.632 38.6633 527.401 31.6045 527.401 31.6045C527.401 31.6045 527.472 31.6526 527.591 31.805C527.908 32.2141 528.534 33.3692 528.977 36.4093C529.587 40.6045 529.041 41.8318 529.5 43.2676C529.96 44.7034 531.188 43.5403 533.2 44.3424C535.212 45.1446 537.597 44.8719 537.581 43.5564C537.565 42.2569 533.818 37.781 536.409 32.4066C536.432 32.3585 536.456 32.3024 536.488 32.2542C537.843 29.559 539.57 38.7275 539.918 40.5644C540.037 41.174 540.203 41.8638 540.354 42.5537C540.639 43.9093 540.821 45.2569 540.259 45.9547Z" fill="#75B214"/>
<path d="M524.454 13.2035C524.406 13.3559 524.319 13.4842 524.208 13.6045C524.169 13.6446 524.129 13.6767 524.089 13.7168C524.058 13.7409 524.026 13.765 523.986 13.789C523.757 13.9414 523.463 14.0377 523.115 14.0858C522.964 14.1099 522.806 14.1179 522.639 14.1179C522.125 14.1179 521.546 14.0136 520.984 13.8211C520.239 13.5644 519.573 13.1794 519.13 12.7302C518.813 12.4093 518.623 12.0805 518.559 11.7676C518.52 11.5751 518.528 11.3906 518.591 11.2141C518.599 11.1821 518.615 11.15 518.631 11.1179C518.686 10.9815 518.773 10.8692 518.884 10.7649C519.098 10.5644 519.399 10.428 519.779 10.3559C519.827 10.3478 519.875 10.3398 519.93 10.3318C520.556 10.2436 521.316 10.3398 522.061 10.5965C522.069 10.5965 522.085 10.6045 522.093 10.6045C522.83 10.8612 523.471 11.2462 523.915 11.6874C524.295 12.0724 524.501 12.4735 524.509 12.8505C524.509 12.9628 524.493 13.0831 524.454 13.2035Z" fill="#F980B2"/>
<path d="M524.509 12.8427C524.462 12.955 524.391 13.0593 524.303 13.1475C524.264 13.1876 524.224 13.2197 524.185 13.2598C524.153 13.2839 524.121 13.3079 524.082 13.332C523.852 13.4844 523.559 13.5807 523.21 13.6288C523.06 13.6529 522.901 13.6609 522.735 13.6609C522.22 13.6609 521.641 13.5566 521.079 13.3641C520.334 13.1074 519.669 12.7224 519.225 12.2732C518.908 11.9523 518.718 11.6234 518.655 11.3106C518.639 11.2464 518.631 11.1742 518.631 11.1101C518.686 10.9737 518.773 10.8614 518.884 10.7571C519.098 10.5566 519.399 10.4202 519.78 10.348C519.827 10.34 519.875 10.332 519.93 10.324C520.556 10.2357 521.317 10.332 522.061 10.5887C522.069 10.5887 522.085 10.5967 522.093 10.5967C522.83 10.8534 523.472 11.2384 523.915 11.6796C524.295 12.0646 524.501 12.4657 524.509 12.8427Z" fill="#FCAECC"/>
<path d="M534.357 47.1662C534.357 47.2625 534.35 47.3587 534.326 47.455C534.326 47.471 534.318 47.4871 534.318 47.5031C534.041 48.594 532.258 48.3614 531.22 47.7919C531.046 47.6956 530.895 47.5914 530.776 47.4791C529.96 46.7331 528.55 45.9791 528.265 46.2758C528.225 46.316 528.202 46.3721 528.178 46.4363C528.075 46.8373 528.392 47.6395 529.01 48.3293C529.081 48.4095 529.144 48.4897 529.2 48.586C529.715 49.4684 529.572 50.9924 527.837 50.9523C526.237 50.9122 525.872 49.4122 526.379 48.586C526.427 48.5138 526.475 48.4416 526.538 48.3855C527.148 47.7518 527.029 46.6528 526.657 46.4523C526.284 46.2598 524.462 47.1582 523.567 47.447C522.965 47.6395 522.355 48.3293 521.689 48.5539C521.372 48.6582 521.04 48.6582 520.691 48.4416C519.653 47.8079 519.946 46.1315 521.262 45.9389C521.729 45.8668 522.038 46.0192 522.355 46.1395C522.561 46.2197 522.767 46.2758 523.02 46.2518C523.662 46.1876 525.857 45.3935 525.857 44.5753C525.857 43.7571 522.442 39.3694 522.204 33.2491C522.062 29.6876 522.703 27.2812 523.266 25.8935C523.353 25.6689 523.448 25.4684 523.527 25.2999C523.741 24.8587 523.916 24.586 523.987 24.4817C524.011 24.4496 524.026 24.4336 524.026 24.4336L527.6 31.7972L527.655 31.9095C529.366 38.086 527.837 43.6127 528.043 44.2304C528.178 44.6234 529.604 45.7143 530.998 45.9951C531.6 46.1154 532.195 45.8427 532.67 45.7063C532.836 45.6582 532.987 45.6261 533.122 45.6341C533.866 45.6823 534.326 46.3561 534.381 47.0138C534.357 47.07 534.365 47.1181 534.357 47.1662Z" fill="#87CB29"/>
<path d="M546.011 48.6337C545.536 48.5534 545.219 48.1283 544.886 47.7032C544.672 47.4224 544.45 47.1497 544.173 46.9732C543.199 46.3476 542.018 46.4358 541.844 46.6684C541.511 47.1256 541.986 48.3529 542.232 48.5855C542.272 48.6176 542.303 48.6577 542.335 48.6978C542.977 49.4438 542.977 50.8636 541.456 50.9919C539.871 51.1283 539.515 49.9732 539.887 49.0748C539.911 49.0107 539.942 48.9465 539.974 48.8903C540.109 48.6497 540.473 47.4545 539.99 47.1256C539.388 46.7165 537.883 47.3903 537.692 47.5026C537.423 47.6631 537.13 47.8957 536.853 48.1042C536.829 48.1203 536.813 48.1363 536.789 48.1524C536.496 48.377 536.219 48.5615 536.005 48.6096C535.49 48.7139 534.413 48.385 534.317 47.4545C534.31 47.3823 534.31 47.3182 534.317 47.2379C534.317 47.2139 534.317 47.1898 534.325 47.1657C534.333 47.1176 534.341 47.0695 534.349 47.0214C534.428 46.6524 534.674 46.2674 535.149 46.1149C535.26 46.0829 535.387 46.0668 535.522 46.0668C535.989 46.0748 536.591 46.2513 537.146 46.1871C538.089 46.0748 538.944 45.5615 539.071 45.401C539.293 45.1123 538.295 43.3556 537.13 40.4198C536.219 38.1176 535.95 35.0454 536.401 32.3984C536.417 32.3021 536.433 32.1978 536.457 32.1016L539.467 28.0909L540.37 26.8877C540.37 26.8877 540.584 27.2005 540.885 27.8102C540.972 27.9866 541.06 28.1791 541.155 28.4037C541.788 29.8797 542.565 32.4144 542.533 35.8636C542.47 41.631 541.369 44.5428 541.836 44.9358C542.295 45.3289 544.268 45.9625 545.06 45.7379C545.354 45.6577 545.71 45.5775 546.067 45.5775C546.677 45.5695 547.287 45.77 547.564 46.4839C548.008 47.6069 547.413 48.8743 546.011 48.6337Z" fill="#87CB29"/>
<path d="M549.037 11.7914C549.037 12.5213 548.895 13.2272 548.617 13.901C548.348 14.5427 547.96 15.1203 547.469 15.6176C546.977 16.1149 546.407 16.508 545.773 16.7807C545.116 17.0614 544.41 17.2058 543.69 17.2058C542.969 17.2058 542.271 17.0614 541.606 16.7807C540.972 16.508 540.402 16.1149 539.91 15.6176C539.419 15.1203 539.031 14.5427 538.762 13.901C538.484 13.2352 538.342 12.5213 538.342 11.7914C538.342 11.0614 538.484 10.3556 538.762 9.68177C539.031 9.04005 539.419 8.46252 539.91 7.96519C540.402 7.46786 540.972 7.07481 541.606 6.80209C542.263 6.52134 542.969 6.37695 543.69 6.37695C544.41 6.37695 545.108 6.52134 545.773 6.80209C546.407 7.07481 546.977 7.46786 547.469 7.96519C547.96 8.46252 548.348 9.04005 548.617 9.68177C548.895 10.3556 549.037 11.0614 549.037 11.7914Z" fill="white"/>
<path d="M545.196 9.26439C544.76 8.75102 544.174 8.4061 543.524 8.2938C543.389 8.26974 543.247 8.26172 543.104 8.26172C542.565 8.26172 542.058 8.43017 541.622 8.71894C540.767 9.29648 540.188 10.3553 540.188 11.5585C540.188 13.3794 541.496 14.8553 543.104 14.8553C543.468 14.8553 543.825 14.7751 544.142 14.6387C544.467 14.4623 544.76 14.2136 545.013 13.9008C545.544 13.243 545.837 12.3767 545.837 11.4542C545.837 10.6601 545.615 9.89006 545.196 9.26439ZM544.348 10.0344C544.348 10.6681 543.738 11.1815 542.993 11.1815C542.248 11.1815 541.638 10.6681 541.638 10.0344C541.638 9.40076 542.248 8.88739 542.993 8.88739C543.738 8.88739 544.348 9.40076 544.348 10.0344Z" fill="#161415"/>
<path d="M533.913 24.1518C533.897 24.1518 533.889 24.1518 533.873 24.1518C532.431 24.1438 530.807 23.7989 529.041 23.117C527.274 22.4352 525.848 21.6251 524.81 20.6866C523.962 19.9245 523.36 19.0903 523.027 18.1919C522.449 16.6438 522.877 15.4646 522.893 15.4165C522.893 15.4165 523.059 15.1357 523.321 15.24C523.558 15.3283 523.495 15.6491 523.495 15.6491C523.495 15.6491 523.4 15.9058 523.376 16.3309C523.352 16.716 523.376 17.3176 523.645 18.0154C524.335 19.8122 526.284 21.3684 529.27 22.5154C532.265 23.6625 534.832 23.8149 536.686 22.9325C537.407 22.5876 537.89 22.1545 538.159 21.8497C538.46 21.5208 538.587 21.2641 538.587 21.2641C538.666 21.1037 538.857 21.0395 539.015 21.1197C539.174 21.1999 539.237 21.3924 539.158 21.5529C539.134 21.601 538.556 22.74 536.995 23.494C536.107 23.9272 535.07 24.1518 533.913 24.1518Z" fill="black"/>
<path opacity="0.2" d="M549.038 11.7922C549.038 12.5221 548.895 13.228 548.618 13.9018C548.348 14.5435 547.96 15.121 547.469 15.6184C547.295 15.7948 547.105 15.9633 546.906 16.1157C546.986 15.8269 547.081 15.4499 547.152 15.0087C547.493 13.0595 547.517 9.99537 544.553 9.18521C541.979 8.48735 540.252 9.34564 539.253 10.2039C538.841 10.5569 538.556 10.9018 538.382 11.1424C538.39 11.0702 538.398 10.998 538.414 10.9259C538.485 10.5007 538.596 10.0916 538.762 9.69056C539.031 9.04885 539.42 8.47131 539.911 7.97398C540.402 7.47665 540.973 7.0836 541.606 6.81088C542.264 6.53013 542.969 6.38574 543.69 6.38574C544.411 6.38574 545.108 6.53013 545.774 6.81088C546.407 7.0836 546.978 7.47665 547.469 7.97398C547.659 8.16649 547.841 8.37505 548 8.59965C548.245 8.93655 548.451 9.30553 548.618 9.69056C548.895 10.3563 549.038 11.0622 549.038 11.7922Z" fill="black"/>
<path d="M532.147 6.47303C532.147 7.20298 532.004 7.90886 531.727 8.58266C531.457 9.22437 531.069 9.80191 530.578 10.2992C530.087 10.7966 529.516 11.1896 528.883 11.4623C528.225 11.7431 527.52 11.8875 526.799 11.8875C526.078 11.8875 525.381 11.7431 524.715 11.4623C524.081 11.1896 523.511 10.7966 523.02 10.2992C522.529 9.80191 522.14 9.22437 521.871 8.58266C521.594 7.91688 521.451 7.20298 521.451 6.47303C521.451 5.74309 521.594 5.0372 521.871 4.36341C522.14 3.7217 522.529 3.14416 523.02 2.64683C523.511 2.1495 524.081 1.75645 524.715 1.48373C525.373 1.20298 526.078 1.05859 526.799 1.05859C527.52 1.05859 528.217 1.20298 528.883 1.48373C529.516 1.75645 530.087 2.1495 530.578 2.64683C531.069 3.14416 531.457 3.7217 531.727 4.36341C532.004 5.02918 532.147 5.74309 532.147 6.47303Z" fill="white"/>
<path d="M528.312 3.94603C527.876 3.43266 527.29 3.08774 526.64 2.97544C526.505 2.95138 526.363 2.94336 526.22 2.94336C525.681 2.94336 525.174 3.11181 524.739 3.40058C523.883 3.97812 523.305 5.03694 523.305 6.24015C523.305 8.06101 524.612 9.53694 526.22 9.53694C526.585 9.53694 526.941 9.45673 527.258 9.32037C527.583 9.14389 527.876 8.89523 528.13 8.5824C528.66 7.92464 528.953 7.05833 528.953 6.13587C528.953 5.33373 528.724 4.56368 528.312 3.94603ZM527.464 4.70807C527.464 5.34176 526.854 5.85512 526.109 5.85512C525.365 5.85512 524.755 5.34176 524.755 4.70807C524.755 4.07438 525.365 3.56101 526.109 3.56101C526.854 3.56101 527.464 4.07438 527.464 4.70807Z" fill="#161415"/>
<path opacity="0.2" d="M532.147 6.4738C532.147 7.20374 532.004 7.90963 531.727 8.58342C531.458 9.22513 531.07 9.80267 530.578 10.3C530.404 10.4765 530.214 10.6449 530.016 10.7973C530.095 10.5086 530.19 10.1316 530.261 9.69038C530.602 7.74118 530.626 4.67701 527.663 3.86685C525.088 3.16899 523.361 4.02728 522.363 4.88556C521.951 5.23851 521.666 5.58342 521.491 5.82407C521.499 5.75187 521.507 5.67968 521.523 5.60749C521.594 5.18236 521.705 4.77326 521.871 4.3722C522.141 3.73048 522.529 3.15294 523.02 2.65562C523.511 2.15829 524.082 1.76524 524.716 1.49252C525.373 1.21177 526.078 1.06738 526.799 1.06738C527.52 1.06738 528.217 1.21177 528.883 1.49252C529.517 1.76524 530.087 2.15829 530.578 2.65562C530.768 2.84813 530.951 3.05669 531.109 3.28129C531.355 3.61818 531.561 3.98717 531.727 4.3722C532.004 5.02995 532.147 5.74385 532.147 6.4738Z" fill="black"/>
<path d="M545.187 20.3265C545.14 20.4789 545.052 20.6072 544.942 20.7276C544.902 20.7677 544.862 20.7997 544.823 20.8399C544.791 20.8639 544.759 20.888 544.72 20.9121C544.49 21.0645 544.197 21.1607 543.848 21.2088C543.698 21.2329 543.539 21.2409 543.373 21.2409C542.858 21.2409 542.28 21.1366 541.717 20.9441C540.972 20.6875 540.307 20.3024 539.863 19.8532C539.546 19.5324 539.356 19.2035 539.293 18.8907C539.253 18.6982 539.261 18.5137 539.324 18.3372C539.332 18.3051 539.348 18.273 539.364 18.2409C539.42 18.1046 539.507 17.9923 539.618 17.888C539.831 17.6875 540.133 17.5511 540.513 17.4789C540.56 17.4709 540.608 17.4629 540.663 17.4548C541.289 17.3666 542.05 17.4629 542.795 17.7195C542.802 17.7195 542.818 17.7276 542.826 17.7276C543.563 17.9842 544.205 18.3693 544.648 18.8104C545.029 19.1955 545.235 19.5965 545.243 19.9735C545.243 20.0939 545.227 20.2142 545.187 20.3265Z" fill="#F980B2"/>
<path d="M545.243 19.9735C545.195 20.0858 545.124 20.1901 545.037 20.2784C544.997 20.3185 544.958 20.3506 544.918 20.3907C544.886 20.4147 544.855 20.4388 544.815 20.4629C544.585 20.6153 544.292 20.7115 543.943 20.7596C543.793 20.7837 543.635 20.7917 543.468 20.7917C542.953 20.7917 542.375 20.6875 541.812 20.4949C541.068 20.2383 540.402 19.8532 539.958 19.404C539.642 19.0832 539.451 18.7543 539.388 18.4415C539.372 18.3773 539.364 18.3051 539.364 18.2409C539.42 18.1046 539.507 17.9923 539.618 17.888C539.832 17.6875 540.133 17.5511 540.513 17.4789C540.561 17.4709 540.608 17.4629 540.664 17.4548C541.289 17.3666 542.05 17.4629 542.795 17.7195C542.803 17.7195 542.818 17.7276 542.826 17.7276C543.563 17.9842 544.205 18.3693 544.649 18.8104C545.029 19.1875 545.227 19.5885 545.243 19.9735Z" fill="#FCAECC"/>
<path d="M541.163 28.4038C541.297 28.7247 541.44 29.0856 541.583 29.5028C539.705 30.0482 536.211 30.6498 531.061 29.968C526.324 29.3423 524.01 27.9546 522.909 26.8958C523.02 26.5188 523.139 26.1899 523.258 25.9092C525.08 26.976 527.1 27.8102 529.247 28.3878C531.339 28.9493 533.43 29.23 535.482 29.23C535.561 29.23 535.633 29.23 535.712 29.23C537.661 29.1979 539.491 28.9252 541.163 28.4038Z" fill="#75B214"/>
<path opacity="0.21" d="M547.406 44.3504C547.897 42.5135 552.737 35.6953 551.581 33.1204C550.844 31.476 548.911 31.3076 547.176 31.5242C549.236 30.6819 551.438 30.1846 552.991 30.9065C556.556 32.567 548.594 42.4494 547.406 44.3504Z" fill="white"/>
<path opacity="0.21" d="M520.889 44.3339C519.384 42.7697 516.46 40.628 515.422 39.9301C511.667 37.4114 511.342 33.6574 512.84 32.0932C514.107 30.7697 515.969 30.7376 517.688 31.1547C516.302 31.4034 514.21 32.1975 514.107 34.7804C513.957 38.6146 519.907 42.1761 520.889 44.3339Z" fill="white"/>
<path opacity="0.21" d="M517.308 45.4733C516.31 45.1204 514.44 44.8076 514.06 47.214C513.838 46.9733 513.703 46.6605 513.751 46.2675C513.901 44.8396 515.074 44.3022 516.032 44.591C516.397 44.6953 516.912 45.1445 517.308 45.4733Z" fill="white"/>
<path opacity="0.21" d="M518.583 47.3828C517.387 47.9603 517.023 48.7224 516.935 49.2839C515.858 49.1876 515.161 48.7464 515.604 47.9603C515.628 47.9202 515.652 47.8801 515.684 47.84C516.23 47.094 517.53 47.2705 518.583 47.3828Z" fill="white"/>
<path opacity="0.21" d="M556.896 48.2401C556.817 48.4968 556.658 48.6813 556.46 48.8096C555.842 47.077 554.147 46.3551 552.919 46.0583C553.933 45.8096 554.995 45.2802 556.104 45.8738C556.817 46.2508 557.197 47.2936 556.896 48.2401Z" fill="white"/>
<path opacity="0.21" d="M521.689 48.5614C521.372 48.6657 521.04 48.6657 520.691 48.4491C519.653 47.8154 519.946 46.1389 521.262 45.9464C521.729 45.8742 522.038 46.0266 522.355 46.1469C521.681 46.4197 520.525 47.1255 521.689 48.5614Z" fill="white"/>
<path opacity="0.21" d="M529.199 48.5938C529.714 49.4761 529.572 51.0001 527.837 50.96C526.236 50.9199 525.872 49.4199 526.379 48.5938C526.442 49.083 526.72 49.7969 527.797 49.9814C528.803 50.1579 529.112 49.3076 529.199 48.5938Z" fill="white"/>
<path opacity="0.21" d="M534.357 47.1659C534.357 47.2622 534.349 47.3584 534.325 47.4547C534.325 47.4707 534.317 47.4868 534.317 47.5028C534.04 48.5937 532.258 48.3611 531.22 47.7916C531.972 47.8397 532.923 47.6953 532.955 46.6766C532.963 46.2755 532.844 45.9627 532.646 45.714C532.812 45.6659 532.963 45.6338 533.097 45.6419C533.842 45.69 534.302 46.3638 534.357 47.0215C534.357 47.0697 534.365 47.1178 534.357 47.1659Z" fill="white"/>
<path opacity="0.21" d="M536.805 48.1529C536.512 48.3775 536.234 48.562 536.021 48.6101C535.506 48.7144 534.428 48.3855 534.333 47.4551C534.325 47.3829 534.325 47.3187 534.333 47.2385C534.333 47.2144 534.333 47.1904 534.341 47.1663C534.349 47.1182 534.357 47.07 534.365 47.0219C534.444 46.6529 534.69 46.2679 535.165 46.1155C535.276 46.0834 535.403 46.0674 535.537 46.0674C535.426 46.5005 535.07 46.661 535.22 47.3749C535.331 47.9684 536.147 48.1449 536.805 48.1529Z" fill="white"/>
<path opacity="0.21" d="M542.343 48.6982C542.985 49.4442 542.985 50.864 541.464 50.9923C539.879 51.1287 539.523 49.9736 539.895 49.0752C540.093 49.3801 540.473 49.725 541.186 49.6849C541.963 49.6367 542.24 49.1073 542.343 48.6982Z" fill="white"/>
<path opacity="0.21" d="M546.012 48.6337C545.536 48.5535 545.219 48.1284 544.887 47.7033C545.33 47.8477 546.043 47.9038 546.527 47.1177C546.939 46.4439 546.622 45.8904 546.067 45.5696C546.677 45.5615 547.287 45.7621 547.565 46.476C548.008 47.607 547.414 48.8744 546.012 48.6337Z" fill="white"/>
</g>
<defs>
<clipPath id="clip0_5595_118228">
<rect width="45" height="51" fill="white" transform="translate(512)"/>
</clipPath>
</defs>
</svg>
