<svg width="100" height="52" viewBox="0 0 100 52" fill="none" xmlns="http://www.w3.org/2000/svg">
<g filter="url(#filter0_d_15_626)">
<path d="M84.6236 18.808H95.3756V20.704H84.6236V18.808ZM84.6236 24.496H95.3756V26.392H84.6236V24.496Z" fill="#2F2F2F"/>
</g>
<g filter="url(#filter1_d_15_626)">
<path d="M37.7743 23.416H44.2303V25.408H37.7743V23.416Z" fill="#2F2F2F"/>
</g>
<g filter="url(#filter2_d_15_626)">
<path d="M18.156 9.602C19.32 9.746 20.208 10.142 20.82 10.79C21.432 11.438 21.738 12.248 21.738 13.22C21.738 13.952 21.552 14.618 21.18 15.218C20.808 15.818 20.244 16.298 19.488 16.658C18.744 17.006 17.832 17.18 16.752 17.18C15.852 17.18 14.982 17.054 14.142 16.802C13.314 16.538 12.606 16.178 12.018 15.722L13.026 13.904C13.482 14.288 14.034 14.594 14.682 14.822C15.342 15.038 16.02 15.146 16.716 15.146C17.544 15.146 18.192 14.978 18.66 14.642C19.14 14.294 19.38 13.826 19.38 13.238C19.38 12.65 19.152 12.194 18.696 11.87C18.252 11.534 17.568 11.366 16.644 11.366H15.492V9.764L18.354 6.362H12.63V4.4H21.216V5.966L18.156 9.602Z" fill="#2F2F2F"/>
</g>
<g filter="url(#filter3_d_15_626)">
<line x1="4.5" y1="23.5" x2="30.5" y2="23.5" stroke="#2F2F2F" stroke-linecap="round"/>
</g>
<g filter="url(#filter4_d_15_626)">
<path d="M15.734 35.278C17.51 35.278 18.824 35.626 19.676 36.322C20.528 37.006 20.954 37.942 20.954 39.13C20.954 39.886 20.768 40.57 20.396 41.182C20.024 41.794 19.466 42.28 18.722 42.64C17.978 43 17.06 43.18 15.968 43.18C15.068 43.18 14.198 43.054 13.358 42.802C12.518 42.538 11.81 42.178 11.234 41.722L12.224 39.904C12.692 40.288 13.25 40.594 13.898 40.822C14.558 41.038 15.236 41.146 15.932 41.146C16.76 41.146 17.408 40.978 17.876 40.642C18.356 40.294 18.596 39.82 18.596 39.22C18.596 38.572 18.338 38.086 17.822 37.762C17.318 37.426 16.448 37.258 15.212 37.258H12.17L12.818 30.4H20.216V32.362H14.798L14.528 35.278H15.734Z" fill="#2F2F2F"/>
</g>
<g filter="url(#filter5_d_15_626)">
<path d="M65.156 9.602C66.32 9.746 67.208 10.142 67.82 10.79C68.432 11.438 68.738 12.248 68.738 13.22C68.738 13.952 68.552 14.618 68.18 15.218C67.808 15.818 67.244 16.298 66.488 16.658C65.744 17.006 64.832 17.18 63.752 17.18C62.852 17.18 61.982 17.054 61.142 16.802C60.314 16.538 59.606 16.178 59.018 15.722L60.026 13.904C60.482 14.288 61.034 14.594 61.682 14.822C62.342 15.038 63.02 15.146 63.716 15.146C64.544 15.146 65.192 14.978 65.66 14.642C66.14 14.294 66.38 13.826 66.38 13.238C66.38 12.65 66.152 12.194 65.696 11.87C65.252 11.534 64.568 11.366 63.644 11.366H62.492V9.764L65.354 6.362H59.63V4.4H68.216V5.966L65.156 9.602Z" fill="#2F2F2F"/>
</g>
<g filter="url(#filter6_d_15_626)">
<line x1="51.5" y1="23.5" x2="77.5" y2="23.5" stroke="#2F2F2F" stroke-linecap="round"/>
</g>
<g filter="url(#filter7_d_15_626)">
<path d="M60.148 30.4V43H57.808V32.362H55.144V30.4H60.148ZM67.9035 43.18C66.8955 43.18 65.9955 42.928 65.2035 42.424C64.4115 41.908 63.7875 41.164 63.3315 40.192C62.8755 39.208 62.6475 38.044 62.6475 36.7C62.6475 35.356 62.8755 34.198 63.3315 33.226C63.7875 32.242 64.4115 31.498 65.2035 30.994C65.9955 30.478 66.8955 30.22 67.9035 30.22C68.9115 30.22 69.8115 30.478 70.6035 30.994C71.4075 31.498 72.0375 32.242 72.4935 33.226C72.9495 34.198 73.1775 35.356 73.1775 36.7C73.1775 38.044 72.9495 39.208 72.4935 40.192C72.0375 41.164 71.4075 41.908 70.6035 42.424C69.8115 42.928 68.9115 43.18 67.9035 43.18ZM67.9035 41.146C68.8035 41.146 69.5115 40.774 70.0275 40.03C70.5555 39.286 70.8195 38.176 70.8195 36.7C70.8195 35.224 70.5555 34.114 70.0275 33.37C69.5115 32.626 68.8035 32.254 67.9035 32.254C67.0155 32.254 66.3075 32.626 65.7795 33.37C65.2635 34.114 65.0055 35.224 65.0055 36.7C65.0055 38.176 65.2635 39.286 65.7795 40.03C66.3075 40.774 67.0155 41.146 67.9035 41.146Z" fill="#2F2F2F"/>
</g>
<defs>
<filter id="filter0_d_15_626" x="80.6236" y="18.8081" width="18.752" height="15.584" filterUnits="userSpaceOnUse" color-interpolation-filters="sRGB">
<feFlood flood-opacity="0" result="BackgroundImageFix"/>
<feColorMatrix in="SourceAlpha" type="matrix" values="0 0 0 0 0 0 0 0 0 0 0 0 0 0 0 0 0 0 127 0" result="hardAlpha"/>
<feOffset dy="4"/>
<feGaussianBlur stdDeviation="2"/>
<feComposite in2="hardAlpha" operator="out"/>
<feColorMatrix type="matrix" values="0 0 0 0 0 0 0 0 0 0 0 0 0 0 0 0 0 0 0.25 0"/>
<feBlend mode="normal" in2="BackgroundImageFix" result="effect1_dropShadow_15_626"/>
<feBlend mode="normal" in="SourceGraphic" in2="effect1_dropShadow_15_626" result="shape"/>
</filter>
<filter id="filter1_d_15_626" x="33.7742" y="23.416" width="14.456" height="9.99194" filterUnits="userSpaceOnUse" color-interpolation-filters="sRGB">
<feFlood flood-opacity="0" result="BackgroundImageFix"/>
<feColorMatrix in="SourceAlpha" type="matrix" values="0 0 0 0 0 0 0 0 0 0 0 0 0 0 0 0 0 0 127 0" result="hardAlpha"/>
<feOffset dy="4"/>
<feGaussianBlur stdDeviation="2"/>
<feComposite in2="hardAlpha" operator="out"/>
<feColorMatrix type="matrix" values="0 0 0 0 0 0 0 0 0 0 0 0 0 0 0 0 0 0 0.25 0"/>
<feBlend mode="normal" in2="BackgroundImageFix" result="effect1_dropShadow_15_626"/>
<feBlend mode="normal" in="SourceGraphic" in2="effect1_dropShadow_15_626" result="shape"/>
</filter>
<filter id="filter2_d_15_626" x="8.01801" y="4.3999" width="17.72" height="20.78" filterUnits="userSpaceOnUse" color-interpolation-filters="sRGB">
<feFlood flood-opacity="0" result="BackgroundImageFix"/>
<feColorMatrix in="SourceAlpha" type="matrix" values="0 0 0 0 0 0 0 0 0 0 0 0 0 0 0 0 0 0 127 0" result="hardAlpha"/>
<feOffset dy="4"/>
<feGaussianBlur stdDeviation="2"/>
<feComposite in2="hardAlpha" operator="out"/>
<feColorMatrix type="matrix" values="0 0 0 0 0 0 0 0 0 0 0 0 0 0 0 0 0 0 0.25 0"/>
<feBlend mode="normal" in2="BackgroundImageFix" result="effect1_dropShadow_15_626"/>
<feBlend mode="normal" in="SourceGraphic" in2="effect1_dropShadow_15_626" result="shape"/>
</filter>
<filter id="filter3_d_15_626" x="0" y="23" width="35" height="9" filterUnits="userSpaceOnUse" color-interpolation-filters="sRGB">
<feFlood flood-opacity="0" result="BackgroundImageFix"/>
<feColorMatrix in="SourceAlpha" type="matrix" values="0 0 0 0 0 0 0 0 0 0 0 0 0 0 0 0 0 0 127 0" result="hardAlpha"/>
<feOffset dy="4"/>
<feGaussianBlur stdDeviation="2"/>
<feComposite in2="hardAlpha" operator="out"/>
<feColorMatrix type="matrix" values="0 0 0 0 0 0 0 0 0 0 0 0 0 0 0 0 0 0 0.25 0"/>
<feBlend mode="normal" in2="BackgroundImageFix" result="effect1_dropShadow_15_626"/>
<feBlend mode="normal" in="SourceGraphic" in2="effect1_dropShadow_15_626" result="shape"/>
</filter>
<filter id="filter4_d_15_626" x="7.23399" y="30.3999" width="17.72" height="20.78" filterUnits="userSpaceOnUse" color-interpolation-filters="sRGB">
<feFlood flood-opacity="0" result="BackgroundImageFix"/>
<feColorMatrix in="SourceAlpha" type="matrix" values="0 0 0 0 0 0 0 0 0 0 0 0 0 0 0 0 0 0 127 0" result="hardAlpha"/>
<feOffset dy="4"/>
<feGaussianBlur stdDeviation="2"/>
<feComposite in2="hardAlpha" operator="out"/>
<feColorMatrix type="matrix" values="0 0 0 0 0 0 0 0 0 0 0 0 0 0 0 0 0 0 0.25 0"/>
<feBlend mode="normal" in2="BackgroundImageFix" result="effect1_dropShadow_15_626"/>
<feBlend mode="normal" in="SourceGraphic" in2="effect1_dropShadow_15_626" result="shape"/>
</filter>
<filter id="filter5_d_15_626" x="55.018" y="4.3999" width="17.72" height="20.78" filterUnits="userSpaceOnUse" color-interpolation-filters="sRGB">
<feFlood flood-opacity="0" result="BackgroundImageFix"/>
<feColorMatrix in="SourceAlpha" type="matrix" values="0 0 0 0 0 0 0 0 0 0 0 0 0 0 0 0 0 0 127 0" result="hardAlpha"/>
<feOffset dy="4"/>
<feGaussianBlur stdDeviation="2"/>
<feComposite in2="hardAlpha" operator="out"/>
<feColorMatrix type="matrix" values="0 0 0 0 0 0 0 0 0 0 0 0 0 0 0 0 0 0 0.25 0"/>
<feBlend mode="normal" in2="BackgroundImageFix" result="effect1_dropShadow_15_626"/>
<feBlend mode="normal" in="SourceGraphic" in2="effect1_dropShadow_15_626" result="shape"/>
</filter>
<filter id="filter6_d_15_626" x="47" y="23" width="35" height="9" filterUnits="userSpaceOnUse" color-interpolation-filters="sRGB">
<feFlood flood-opacity="0" result="BackgroundImageFix"/>
<feColorMatrix in="SourceAlpha" type="matrix" values="0 0 0 0 0 0 0 0 0 0 0 0 0 0 0 0 0 0 127 0" result="hardAlpha"/>
<feOffset dy="4"/>
<feGaussianBlur stdDeviation="2"/>
<feComposite in2="hardAlpha" operator="out"/>
<feColorMatrix type="matrix" values="0 0 0 0 0 0 0 0 0 0 0 0 0 0 0 0 0 0 0.25 0"/>
<feBlend mode="normal" in2="BackgroundImageFix" result="effect1_dropShadow_15_626"/>
<feBlend mode="normal" in="SourceGraphic" in2="effect1_dropShadow_15_626" result="shape"/>
</filter>
<filter id="filter7_d_15_626" x="51.144" y="30.22" width="26.0335" height="20.96" filterUnits="userSpaceOnUse" color-interpolation-filters="sRGB">
<feFlood flood-opacity="0" result="BackgroundImageFix"/>
<feColorMatrix in="SourceAlpha" type="matrix" values="0 0 0 0 0 0 0 0 0 0 0 0 0 0 0 0 0 0 127 0" result="hardAlpha"/>
<feOffset dy="4"/>
<feGaussianBlur stdDeviation="2"/>
<feComposite in2="hardAlpha" operator="out"/>
<feColorMatrix type="matrix" values="0 0 0 0 0 0 0 0 0 0 0 0 0 0 0 0 0 0 0.25 0"/>
<feBlend mode="normal" in2="BackgroundImageFix" result="effect1_dropShadow_15_626"/>
<feBlend mode="normal" in="SourceGraphic" in2="effect1_dropShadow_15_626" result="shape"/>
</filter>
</defs>
</svg>
