<svg width="93" height="48" viewBox="0 0 93 48" fill="none" xmlns="http://www.w3.org/2000/svg">
<path d="M80.6236 18.808H91.3756V20.704H80.6236V18.808ZM80.6236 24.496H91.3756V26.392H80.6236V24.496Z" fill="#2F2F2F"/>
<path d="M33.7743 23.416H40.2303V25.408H33.7743V23.416Z" fill="#2F2F2F"/>
<path d="M20.024 14.138H17.792V17H15.524V14.138H8.612V12.518L14.822 4.4H17.324L11.474 12.158H15.596V9.62H17.792V12.158H20.024V14.138Z" fill="#2F2F2F"/>
<line x1="0.5" y1="23.5" x2="26.5" y2="23.5" stroke="#2F2F2F" stroke-linecap="round"/>
<path d="M13.516 35.224C14.344 35.224 15.088 35.386 15.748 35.71C16.408 36.022 16.924 36.472 17.296 37.06C17.668 37.648 17.854 38.326 17.854 39.094C17.854 39.91 17.65 40.63 17.242 41.254C16.834 41.866 16.282 42.34 15.586 42.676C14.89 43.012 14.11 43.18 13.246 43.18C11.518 43.18 10.174 42.64 9.214 41.56C8.266 40.48 7.792 38.932 7.792 36.916C7.792 35.5 8.05 34.294 8.566 33.298C9.082 32.29 9.802 31.528 10.726 31.012C11.662 30.484 12.742 30.22 13.966 30.22C14.614 30.22 15.22 30.292 15.784 30.436C16.36 30.568 16.858 30.766 17.278 31.03L16.414 32.794C15.79 32.386 14.992 32.182 14.02 32.182C12.808 32.182 11.86 32.554 11.176 33.298C10.492 34.042 10.15 35.116 10.15 36.52V36.538C10.522 36.106 10.996 35.782 11.572 35.566C12.148 35.338 12.796 35.224 13.516 35.224ZM13.12 41.344C13.852 41.344 14.446 41.152 14.902 40.768C15.358 40.372 15.586 39.85 15.586 39.202C15.586 38.542 15.358 38.02 14.902 37.636C14.446 37.252 13.834 37.06 13.066 37.06C12.31 37.06 11.692 37.264 11.212 37.672C10.744 38.08 10.51 38.596 10.51 39.22C10.51 39.832 10.738 40.342 11.194 40.75C11.662 41.146 12.304 41.344 13.12 41.344Z" fill="#2F2F2F"/>
<path d="M60.148 4.4V17H57.808V6.362H55.144V4.4H60.148Z" fill="#2F2F2F"/>
<line x1="47.5" y1="23.5" x2="73.5" y2="23.5" stroke="#2F2F2F" stroke-linecap="round"/>
<path d="M60.516 35.224C61.344 35.224 62.088 35.386 62.748 35.71C63.408 36.022 63.924 36.472 64.296 37.06C64.668 37.648 64.854 38.326 64.854 39.094C64.854 39.91 64.65 40.63 64.242 41.254C63.834 41.866 63.282 42.34 62.586 42.676C61.89 43.012 61.11 43.18 60.246 43.18C58.518 43.18 57.174 42.64 56.214 41.56C55.266 40.48 54.792 38.932 54.792 36.916C54.792 35.5 55.05 34.294 55.566 33.298C56.082 32.29 56.802 31.528 57.726 31.012C58.662 30.484 59.742 30.22 60.966 30.22C61.614 30.22 62.22 30.292 62.784 30.436C63.36 30.568 63.858 30.766 64.278 31.03L63.414 32.794C62.79 32.386 61.992 32.182 61.02 32.182C59.808 32.182 58.86 32.554 58.176 33.298C57.492 34.042 57.15 35.116 57.15 36.52V36.538C57.522 36.106 57.996 35.782 58.572 35.566C59.148 35.338 59.796 35.224 60.516 35.224ZM60.12 41.344C60.852 41.344 61.446 41.152 61.902 40.768C62.358 40.372 62.586 39.85 62.586 39.202C62.586 38.542 62.358 38.02 61.902 37.636C61.446 37.252 60.834 37.06 60.066 37.06C59.31 37.06 58.692 37.264 58.212 37.672C57.744 38.08 57.51 38.596 57.51 39.22C57.51 39.832 57.738 40.342 58.194 40.75C58.662 41.146 59.304 41.344 60.12 41.344Z" fill="#2F2F2F"/>
</svg>
