<svg width="368" height="345" viewBox="0 0 368 345" fill="none" xmlns="http://www.w3.org/2000/svg">
<line x1="52.9561" y1="266.247" x2="354.362" y2="266.247" stroke="#A1B9BC" stroke-width="1.08811" stroke-dasharray="2.18 2.18"/>
<line x1="52.9561" y1="224.899" x2="354.362" y2="224.899" stroke="#A1B9BC" stroke-width="1.08811" stroke-dasharray="2.18 2.18"/>
<line x1="52.9561" y1="183.55" x2="354.362" y2="183.55" stroke="#A1B9BC" stroke-width="1.08811" stroke-dasharray="2.18 2.18"/>
<line x1="52.9561" y1="142.203" x2="354.362" y2="142.203" stroke="#A1B9BC" stroke-width="1.08811" stroke-dasharray="2.18 2.18"/>
<line x1="52.9561" y1="100.854" x2="354.362" y2="100.854" stroke="#A1B9BC" stroke-width="1.08811" stroke-dasharray="2.18 2.18"/>
<line x1="52.9561" y1="58.4193" x2="354.362" y2="58.4193" stroke="#A1B9BC" stroke-width="1.08811" stroke-dasharray="2.18 2.18"/>
<line x1="52.9561" y1="17.0702" x2="354.362" y2="17.0702" stroke="#A1B9BC" stroke-width="1.08811" stroke-dasharray="2.18 2.18"/>
<path d="M50.0478 308.2C50.0478 309.645 49.7761 310.737 49.2328 311.474C48.694 312.206 47.8721 312.572 46.767 312.572C45.6803 312.572 44.8607 312.215 44.3081 311.501C43.7602 310.783 43.4793 309.721 43.4655 308.317V306.577C43.4655 305.131 43.7349 304.046 44.2736 303.323C44.8169 302.6 45.6435 302.239 46.7532 302.239C47.8537 302.239 48.6733 302.591 49.2121 303.296C49.7554 304 50.034 305.055 50.0478 306.459V308.2ZM48.3694 306.321C48.3694 305.377 48.2405 304.686 47.9826 304.249C47.7248 303.807 47.315 303.586 46.7532 303.586C46.2052 303.586 45.8023 303.795 45.5445 304.214C45.2866 304.629 45.1508 305.278 45.137 306.162V308.441C45.137 309.381 45.2682 310.081 45.5307 310.541C45.7931 311.002 46.2052 311.232 46.767 311.232C47.3057 311.232 47.704 311.02 47.9619 310.596C48.2198 310.168 48.3556 309.5 48.3694 308.593V306.321Z" fill="#637173"/>
<path d="M29.3045 260.909V271H27.64V262.884L25.1742 263.72V262.346L29.1042 260.909H29.3045ZM39.3541 265.129V266.773C39.3541 267.56 39.2758 268.233 39.1193 268.79C38.9673 269.342 38.7463 269.791 38.4562 270.137C38.1661 270.482 37.8185 270.735 37.4133 270.896C37.0127 271.058 36.5637 271.138 36.0664 271.138C35.6704 271.138 35.302 271.087 34.9613 270.986C34.6252 270.885 34.3213 270.726 34.0496 270.51C33.7779 270.293 33.5454 270.015 33.352 269.674C33.1632 269.329 33.0159 268.916 32.9099 268.438C32.8086 267.959 32.758 267.404 32.758 266.773V265.129C32.758 264.337 32.8363 263.669 32.9928 263.126C33.1494 262.578 33.3727 262.134 33.6628 261.793C33.9529 261.448 34.2982 261.197 34.6988 261.04C35.104 260.884 35.5553 260.805 36.0526 260.805C36.4532 260.805 36.8216 260.856 37.1577 260.957C37.4985 261.054 37.8024 261.208 38.0694 261.42C38.3411 261.632 38.5713 261.908 38.7601 262.249C38.9535 262.585 39.1009 262.993 39.2022 263.471C39.3035 263.946 39.3541 264.498 39.3541 265.129ZM37.6895 267.008V264.88C37.6895 264.48 37.6665 264.128 37.6205 263.824C37.5744 263.515 37.5054 263.255 37.4133 263.043C37.3258 262.827 37.2153 262.652 37.0817 262.518C36.9482 262.38 36.7962 262.281 36.6259 262.221C36.4555 262.157 36.2644 262.125 36.0526 262.125C35.7947 262.125 35.5645 262.175 35.3619 262.277C35.1593 262.373 34.9889 262.53 34.8508 262.746C34.7127 262.963 34.6067 263.248 34.5331 263.603C34.464 263.953 34.4295 264.379 34.4295 264.88V267.008C34.4295 267.413 34.4525 267.77 34.4985 268.078C34.5446 268.387 34.6137 268.652 34.7057 268.873C34.7978 269.089 34.9084 269.269 35.0373 269.411C35.1708 269.55 35.3228 269.651 35.4931 269.715C35.6681 269.78 35.8592 269.812 36.0664 269.812C36.3289 269.812 36.5614 269.761 36.764 269.66C36.9666 269.559 37.137 269.398 37.2751 269.177C37.4133 268.951 37.5169 268.659 37.5859 268.299C37.655 267.94 37.6895 267.51 37.6895 267.008ZM47.3938 265.129V266.773C47.3938 267.56 47.3155 268.233 47.1589 268.79C47.007 269.342 46.786 269.791 46.4959 270.137C46.2058 270.482 45.8581 270.735 45.4529 270.896C45.0523 271.058 44.6034 271.138 44.1061 271.138C43.7101 271.138 43.3417 271.087 43.001 270.986C42.6648 270.885 42.3609 270.726 42.0893 270.51C41.8176 270.293 41.5851 270.015 41.3917 269.674C41.2029 269.329 41.0555 268.916 40.9496 268.438C40.8483 267.959 40.7977 267.404 40.7977 266.773V265.129C40.7977 264.337 40.8759 263.669 41.0325 263.126C41.1891 262.578 41.4124 262.134 41.7025 261.793C41.9926 261.448 42.3379 261.197 42.7385 261.04C43.1437 260.884 43.595 260.805 44.0923 260.805C44.4929 260.805 44.8612 260.856 45.1974 260.957C45.5381 261.054 45.842 261.208 46.1091 261.42C46.3808 261.632 46.611 261.908 46.7998 262.249C46.9932 262.585 47.1405 262.993 47.2418 263.471C47.3431 263.946 47.3938 264.498 47.3938 265.129ZM45.7292 267.008V264.88C45.7292 264.48 45.7062 264.128 45.6601 263.824C45.6141 263.515 45.545 263.255 45.4529 263.043C45.3654 262.827 45.2549 262.652 45.1214 262.518C44.9879 262.38 44.8359 262.281 44.6655 262.221C44.4952 262.157 44.3041 262.125 44.0923 262.125C43.8344 262.125 43.6042 262.175 43.4016 262.277C43.199 262.373 43.0286 262.53 42.8905 262.746C42.7523 262.963 42.6464 263.248 42.5727 263.603C42.5037 263.953 42.4691 264.379 42.4691 264.88V267.008C42.4691 267.413 42.4922 267.77 42.5382 268.078C42.5843 268.387 42.6533 268.652 42.7454 268.873C42.8375 269.089 42.948 269.269 43.077 269.411C43.2105 269.55 43.3624 269.651 43.5328 269.715C43.7078 269.78 43.8989 269.812 44.1061 269.812C44.3685 269.812 44.6011 269.761 44.8037 269.66C45.0063 269.559 45.1767 269.398 45.3148 269.177C45.4529 268.951 45.5565 268.659 45.6256 268.299C45.6947 267.94 45.7292 267.51 45.7292 267.008Z" fill="#637173"/>
<path d="M31.5009 228.674V230H24.7598V228.86L28.0336 225.289C28.3928 224.884 28.676 224.534 28.8832 224.24C29.0904 223.945 29.2355 223.68 29.3183 223.445C29.4058 223.206 29.4496 222.973 29.4496 222.748C29.4496 222.43 29.3897 222.151 29.27 221.912C29.1549 221.668 28.9845 221.477 28.7589 221.339C28.5333 221.196 28.2593 221.125 27.937 221.125C27.564 221.125 27.2509 221.205 26.9976 221.366C26.7444 221.527 26.5533 221.751 26.4243 222.036C26.2954 222.317 26.2309 222.64 26.2309 223.003H24.5664C24.5664 222.418 24.6999 221.884 24.967 221.401C25.234 220.913 25.6208 220.526 26.1273 220.241C26.6338 219.95 27.244 219.805 27.9577 219.805C28.6299 219.805 29.2009 219.918 29.6706 220.144C30.1403 220.369 30.4971 220.689 30.7412 221.104C30.9898 221.518 31.1141 222.009 31.1141 222.575C31.1141 222.888 31.0635 223.199 30.9622 223.507C30.8609 223.816 30.7158 224.125 30.5271 224.433C30.3429 224.737 30.1241 225.043 29.8709 225.352C29.6176 225.656 29.3391 225.964 29.0352 226.277L26.8595 228.674H31.5009ZM39.3541 224.129V225.773C39.3541 226.56 39.2758 227.233 39.1193 227.79C38.9673 228.342 38.7463 228.791 38.4562 229.137C38.1661 229.482 37.8185 229.735 37.4133 229.896C37.0127 230.058 36.5637 230.138 36.0664 230.138C35.6704 230.138 35.302 230.087 34.9613 229.986C34.6252 229.885 34.3213 229.726 34.0496 229.51C33.7779 229.293 33.5454 229.015 33.352 228.674C33.1632 228.329 33.0159 227.916 32.9099 227.438C32.8086 226.959 32.758 226.404 32.758 225.773V224.129C32.758 223.337 32.8363 222.669 32.9928 222.126C33.1494 221.578 33.3727 221.134 33.6628 220.793C33.9529 220.448 34.2982 220.197 34.6988 220.04C35.104 219.884 35.5553 219.805 36.0526 219.805C36.4532 219.805 36.8216 219.856 37.1577 219.957C37.4985 220.054 37.8024 220.208 38.0694 220.42C38.3411 220.632 38.5713 220.908 38.7601 221.249C38.9535 221.585 39.1009 221.993 39.2022 222.471C39.3035 222.946 39.3541 223.498 39.3541 224.129ZM37.6895 226.008V223.88C37.6895 223.48 37.6665 223.128 37.6205 222.824C37.5744 222.515 37.5054 222.255 37.4133 222.043C37.3258 221.827 37.2153 221.652 37.0817 221.518C36.9482 221.38 36.7962 221.281 36.6259 221.221C36.4555 221.157 36.2644 221.125 36.0526 221.125C35.7947 221.125 35.5645 221.175 35.3619 221.277C35.1593 221.373 34.9889 221.53 34.8508 221.746C34.7127 221.963 34.6067 222.248 34.5331 222.603C34.464 222.953 34.4295 223.379 34.4295 223.88V226.008C34.4295 226.413 34.4525 226.77 34.4985 227.078C34.5446 227.387 34.6137 227.652 34.7057 227.873C34.7978 228.089 34.9084 228.269 35.0373 228.411C35.1708 228.55 35.3228 228.651 35.4931 228.715C35.6681 228.78 35.8592 228.812 36.0664 228.812C36.3289 228.812 36.5614 228.761 36.764 228.66C36.9666 228.559 37.137 228.398 37.2751 228.177C37.4133 227.951 37.5169 227.659 37.5859 227.299C37.655 226.94 37.6895 226.51 37.6895 226.008ZM47.3938 224.129V225.773C47.3938 226.56 47.3155 227.233 47.1589 227.79C47.007 228.342 46.786 228.791 46.4959 229.137C46.2058 229.482 45.8581 229.735 45.4529 229.896C45.0523 230.058 44.6034 230.138 44.1061 230.138C43.7101 230.138 43.3417 230.087 43.001 229.986C42.6648 229.885 42.3609 229.726 42.0893 229.51C41.8176 229.293 41.5851 229.015 41.3917 228.674C41.2029 228.329 41.0555 227.916 40.9496 227.438C40.8483 226.959 40.7977 226.404 40.7977 225.773V224.129C40.7977 223.337 40.8759 222.669 41.0325 222.126C41.1891 221.578 41.4124 221.134 41.7025 220.793C41.9926 220.448 42.3379 220.197 42.7385 220.04C43.1437 219.884 43.595 219.805 44.0923 219.805C44.4929 219.805 44.8612 219.856 45.1974 219.957C45.5381 220.054 45.842 220.208 46.1091 220.42C46.3808 220.632 46.611 220.908 46.7998 221.249C46.9932 221.585 47.1405 221.993 47.2418 222.471C47.3431 222.946 47.3938 223.498 47.3938 224.129ZM45.7292 226.008V223.88C45.7292 223.48 45.7062 223.128 45.6601 222.824C45.6141 222.515 45.545 222.255 45.4529 222.043C45.3654 221.827 45.2549 221.652 45.1214 221.518C44.9879 221.38 44.8359 221.281 44.6655 221.221C44.4952 221.157 44.3041 221.125 44.0923 221.125C43.8344 221.125 43.6042 221.175 43.4016 221.277C43.199 221.373 43.0286 221.53 42.8905 221.746C42.7523 221.963 42.6464 222.248 42.5727 222.603C42.5037 222.953 42.4691 223.379 42.4691 223.88V226.008C42.4691 226.413 42.4922 226.77 42.5382 227.078C42.5843 227.387 42.6533 227.652 42.7454 227.873C42.8375 228.089 42.948 228.269 43.077 228.411C43.2105 228.55 43.3624 228.651 43.5328 228.715C43.7078 228.78 43.8989 228.812 44.1061 228.812C44.3685 228.812 44.6011 228.761 44.8037 228.66C45.0063 228.559 45.1767 228.398 45.3148 228.177C45.4529 227.951 45.5565 227.659 45.6256 227.299C45.6947 226.94 45.7292 226.51 45.7292 226.008Z" fill="#637173"/>
<path d="M26.7144 182.219H27.709C28.0958 182.219 28.4158 182.152 28.6691 182.019C28.9269 181.885 29.118 181.701 29.2424 181.466C29.3667 181.231 29.4289 180.962 29.4289 180.658C29.4289 180.34 29.3713 180.069 29.2562 179.843C29.1457 179.613 28.9753 179.435 28.7451 179.311C28.5194 179.187 28.2316 179.125 27.8817 179.125C27.587 179.125 27.3199 179.184 27.0805 179.304C26.8457 179.419 26.6592 179.585 26.521 179.801C26.3829 180.013 26.3138 180.267 26.3138 180.561H24.6423C24.6423 180.027 24.7828 179.553 25.0637 179.138C25.3445 178.724 25.7267 178.399 26.2102 178.165C26.6983 177.925 27.2463 177.805 27.8541 177.805C28.5033 177.805 29.0697 177.914 29.5532 178.13C30.0413 178.342 30.4211 178.66 30.6928 179.083C30.9645 179.507 31.1003 180.032 31.1003 180.658C31.1003 180.943 31.0336 181.234 30.9 181.528C30.7665 181.823 30.5685 182.092 30.306 182.336C30.0436 182.576 29.7166 182.771 29.3252 182.923C28.9339 183.071 28.4803 183.144 27.9646 183.144H26.7144V182.219ZM26.7144 183.517V182.606H27.9646C28.554 182.606 29.0559 182.675 29.4703 182.813C29.8893 182.951 30.2301 183.142 30.4925 183.386C30.755 183.626 30.9461 183.9 31.0658 184.208C31.1901 184.517 31.2523 184.844 31.2523 185.189C31.2523 185.659 31.1671 186.078 30.9967 186.446C30.831 186.81 30.5938 187.118 30.2853 187.371C29.9768 187.625 29.6153 187.816 29.2009 187.945C28.7911 188.074 28.3445 188.138 27.861 188.138C27.4281 188.138 27.0137 188.078 26.6177 187.959C26.2217 187.839 25.8672 187.662 25.5541 187.427C25.2409 187.187 24.9923 186.89 24.8081 186.536C24.6285 186.177 24.5387 185.762 24.5387 185.292H26.2033C26.2033 185.592 26.2724 185.857 26.4105 186.087C26.5533 186.312 26.7513 186.49 27.0045 186.619C27.2624 186.748 27.5571 186.812 27.8886 186.812C28.2386 186.812 28.5402 186.75 28.7934 186.626C29.0467 186.501 29.2401 186.317 29.3736 186.073C29.5117 185.829 29.5808 185.534 29.5808 185.189C29.5808 184.797 29.5048 184.48 29.3529 184.236C29.2009 183.992 28.9845 183.812 28.7036 183.697C28.4227 183.577 28.0912 183.517 27.709 183.517H26.7144ZM39.3541 182.129V183.773C39.3541 184.56 39.2758 185.233 39.1193 185.79C38.9673 186.342 38.7463 186.791 38.4562 187.137C38.1661 187.482 37.8185 187.735 37.4133 187.896C37.0127 188.058 36.5637 188.138 36.0664 188.138C35.6704 188.138 35.302 188.087 34.9613 187.986C34.6252 187.885 34.3213 187.726 34.0496 187.51C33.7779 187.293 33.5454 187.015 33.352 186.674C33.1632 186.329 33.0159 185.916 32.9099 185.438C32.8086 184.959 32.758 184.404 32.758 183.773V182.129C32.758 181.337 32.8363 180.669 32.9928 180.126C33.1494 179.578 33.3727 179.134 33.6628 178.793C33.9529 178.448 34.2982 178.197 34.6988 178.04C35.104 177.884 35.5553 177.805 36.0526 177.805C36.4532 177.805 36.8216 177.856 37.1577 177.957C37.4985 178.054 37.8024 178.208 38.0694 178.42C38.3411 178.632 38.5713 178.908 38.7601 179.249C38.9535 179.585 39.1009 179.993 39.2022 180.471C39.3035 180.946 39.3541 181.498 39.3541 182.129ZM37.6895 184.008V181.88C37.6895 181.48 37.6665 181.128 37.6205 180.824C37.5744 180.515 37.5054 180.255 37.4133 180.043C37.3258 179.827 37.2153 179.652 37.0817 179.518C36.9482 179.38 36.7962 179.281 36.6259 179.221C36.4555 179.157 36.2644 179.125 36.0526 179.125C35.7947 179.125 35.5645 179.175 35.3619 179.277C35.1593 179.373 34.9889 179.53 34.8508 179.746C34.7127 179.963 34.6067 180.248 34.5331 180.603C34.464 180.953 34.4295 181.379 34.4295 181.88V184.008C34.4295 184.413 34.4525 184.77 34.4985 185.078C34.5446 185.387 34.6137 185.652 34.7057 185.873C34.7978 186.089 34.9084 186.269 35.0373 186.411C35.1708 186.55 35.3228 186.651 35.4931 186.715C35.6681 186.78 35.8592 186.812 36.0664 186.812C36.3289 186.812 36.5614 186.761 36.764 186.66C36.9666 186.559 37.137 186.398 37.2751 186.177C37.4133 185.951 37.5169 185.659 37.5859 185.299C37.655 184.94 37.6895 184.51 37.6895 184.008ZM47.3938 182.129V183.773C47.3938 184.56 47.3155 185.233 47.1589 185.79C47.007 186.342 46.786 186.791 46.4959 187.137C46.2058 187.482 45.8581 187.735 45.4529 187.896C45.0523 188.058 44.6034 188.138 44.1061 188.138C43.7101 188.138 43.3417 188.087 43.001 187.986C42.6648 187.885 42.3609 187.726 42.0893 187.51C41.8176 187.293 41.5851 187.015 41.3917 186.674C41.2029 186.329 41.0555 185.916 40.9496 185.438C40.8483 184.959 40.7977 184.404 40.7977 183.773V182.129C40.7977 181.337 40.8759 180.669 41.0325 180.126C41.1891 179.578 41.4124 179.134 41.7025 178.793C41.9926 178.448 42.3379 178.197 42.7385 178.04C43.1437 177.884 43.595 177.805 44.0923 177.805C44.4929 177.805 44.8612 177.856 45.1974 177.957C45.5381 178.054 45.842 178.208 46.1091 178.42C46.3808 178.632 46.611 178.908 46.7998 179.249C46.9932 179.585 47.1405 179.993 47.2418 180.471C47.3431 180.946 47.3938 181.498 47.3938 182.129ZM45.7292 184.008V181.88C45.7292 181.48 45.7062 181.128 45.6601 180.824C45.6141 180.515 45.545 180.255 45.4529 180.043C45.3654 179.827 45.2549 179.652 45.1214 179.518C44.9879 179.38 44.8359 179.281 44.6655 179.221C44.4952 179.157 44.3041 179.125 44.0923 179.125C43.8344 179.125 43.6042 179.175 43.4016 179.277C43.199 179.373 43.0286 179.53 42.8905 179.746C42.7523 179.963 42.6464 180.248 42.5727 180.603C42.5037 180.953 42.4691 181.379 42.4691 181.88V184.008C42.4691 184.413 42.4922 184.77 42.5382 185.078C42.5843 185.387 42.6533 185.652 42.7454 185.873C42.8375 186.089 42.948 186.269 43.077 186.411C43.2105 186.55 43.3624 186.651 43.5328 186.715C43.7078 186.78 43.8989 186.812 44.1061 186.812C44.3685 186.812 44.6011 186.761 44.8037 186.66C45.0063 186.559 45.1767 186.398 45.3148 186.177C45.4529 185.951 45.5565 185.659 45.6256 185.299C45.6947 184.94 45.7292 184.51 45.7292 184.008Z" fill="#637173"/>
<path d="M31.6874 143.415V144.741H24.4351L24.3799 143.74L28.7174 136.944H30.0505L28.6069 139.416L26.1135 143.415H31.6874ZM30.4304 136.944V147H28.7658V136.944H30.4304ZM39.3541 141.129V142.773C39.3541 143.56 39.2758 144.233 39.1193 144.79C38.9673 145.342 38.7463 145.791 38.4562 146.137C38.1661 146.482 37.8185 146.735 37.4133 146.896C37.0127 147.058 36.5637 147.138 36.0664 147.138C35.6704 147.138 35.302 147.087 34.9613 146.986C34.6252 146.885 34.3213 146.726 34.0496 146.51C33.7779 146.293 33.5454 146.015 33.352 145.674C33.1632 145.329 33.0159 144.916 32.9099 144.438C32.8086 143.959 32.758 143.404 32.758 142.773V141.129C32.758 140.337 32.8363 139.669 32.9928 139.126C33.1494 138.578 33.3727 138.134 33.6628 137.793C33.9529 137.448 34.2982 137.197 34.6988 137.04C35.104 136.884 35.5553 136.805 36.0526 136.805C36.4532 136.805 36.8216 136.856 37.1577 136.957C37.4985 137.054 37.8024 137.208 38.0694 137.42C38.3411 137.632 38.5713 137.908 38.7601 138.249C38.9535 138.585 39.1009 138.993 39.2022 139.471C39.3035 139.946 39.3541 140.498 39.3541 141.129ZM37.6895 143.008V140.88C37.6895 140.48 37.6665 140.128 37.6205 139.824C37.5744 139.515 37.5054 139.255 37.4133 139.043C37.3258 138.827 37.2153 138.652 37.0817 138.518C36.9482 138.38 36.7962 138.281 36.6259 138.221C36.4555 138.157 36.2644 138.125 36.0526 138.125C35.7947 138.125 35.5645 138.175 35.3619 138.277C35.1593 138.373 34.9889 138.53 34.8508 138.746C34.7127 138.963 34.6067 139.248 34.5331 139.603C34.464 139.953 34.4295 140.379 34.4295 140.88V143.008C34.4295 143.413 34.4525 143.77 34.4985 144.078C34.5446 144.387 34.6137 144.652 34.7057 144.873C34.7978 145.089 34.9084 145.269 35.0373 145.411C35.1708 145.55 35.3228 145.651 35.4931 145.715C35.6681 145.78 35.8592 145.812 36.0664 145.812C36.3289 145.812 36.5614 145.761 36.764 145.66C36.9666 145.559 37.137 145.398 37.2751 145.177C37.4133 144.951 37.5169 144.659 37.5859 144.299C37.655 143.94 37.6895 143.51 37.6895 143.008ZM47.3938 141.129V142.773C47.3938 143.56 47.3155 144.233 47.1589 144.79C47.007 145.342 46.786 145.791 46.4959 146.137C46.2058 146.482 45.8581 146.735 45.4529 146.896C45.0523 147.058 44.6034 147.138 44.1061 147.138C43.7101 147.138 43.3417 147.087 43.001 146.986C42.6648 146.885 42.3609 146.726 42.0893 146.51C41.8176 146.293 41.5851 146.015 41.3917 145.674C41.2029 145.329 41.0555 144.916 40.9496 144.438C40.8483 143.959 40.7977 143.404 40.7977 142.773V141.129C40.7977 140.337 40.8759 139.669 41.0325 139.126C41.1891 138.578 41.4124 138.134 41.7025 137.793C41.9926 137.448 42.3379 137.197 42.7385 137.04C43.1437 136.884 43.595 136.805 44.0923 136.805C44.4929 136.805 44.8612 136.856 45.1974 136.957C45.5381 137.054 45.842 137.208 46.1091 137.42C46.3808 137.632 46.611 137.908 46.7998 138.249C46.9932 138.585 47.1405 138.993 47.2418 139.471C47.3431 139.946 47.3938 140.498 47.3938 141.129ZM45.7292 143.008V140.88C45.7292 140.48 45.7062 140.128 45.6601 139.824C45.6141 139.515 45.545 139.255 45.4529 139.043C45.3654 138.827 45.2549 138.652 45.1214 138.518C44.9879 138.38 44.8359 138.281 44.6655 138.221C44.4952 138.157 44.3041 138.125 44.0923 138.125C43.8344 138.125 43.6042 138.175 43.4016 138.277C43.199 138.373 43.0286 138.53 42.8905 138.746C42.7523 138.963 42.6464 139.248 42.5727 139.603C42.5037 139.953 42.4691 140.379 42.4691 140.88V143.008C42.4691 143.413 42.4922 143.77 42.5382 144.078C42.5843 144.387 42.6533 144.652 42.7454 144.873C42.8375 145.089 42.948 145.269 43.077 145.411C43.2105 145.55 43.3624 145.651 43.5328 145.715C43.7078 145.78 43.8989 145.812 44.1061 145.812C44.3685 145.812 44.6011 145.761 44.8037 145.66C45.0063 145.559 45.1767 145.398 45.3148 145.177C45.4529 144.951 45.5565 144.659 45.6256 144.299C45.6947 143.94 45.7292 143.51 45.7292 143.008Z" fill="#637173"/>
<path d="M26.5072 101.324L25.1811 100.999L25.7267 95.9435H31.1487V97.3525H27.1081L26.8318 99.8183C26.9884 99.7262 27.2048 99.6364 27.4811 99.5489C27.7574 99.4568 28.0728 99.4108 28.4273 99.4108C28.9016 99.4108 29.3252 99.4891 29.6982 99.6456C30.0758 99.7976 30.3958 100.021 30.6583 100.316C30.9207 100.606 31.121 100.96 31.2592 101.379C31.3973 101.794 31.4664 102.261 31.4664 102.781C31.4664 103.246 31.3973 103.682 31.2592 104.087C31.1257 104.492 30.9231 104.849 30.6514 105.157C30.3797 105.466 30.0367 105.708 29.6222 105.883C29.2124 106.053 28.7266 106.138 28.1649 106.138C27.7459 106.138 27.343 106.078 26.9562 105.959C26.574 105.834 26.2309 105.652 25.927 105.413C25.6231 105.169 25.3791 104.87 25.1949 104.515C25.0107 104.156 24.9048 103.744 24.8772 103.279H26.5072C26.5487 103.606 26.6384 103.884 26.7766 104.114C26.9193 104.34 27.1081 104.513 27.343 104.632C27.5778 104.752 27.8495 104.812 28.158 104.812C28.4389 104.812 28.6806 104.764 28.8832 104.667C29.0858 104.566 29.2539 104.423 29.3874 104.239C29.5255 104.05 29.6268 103.829 29.6913 103.576C29.7604 103.322 29.7949 103.042 29.7949 102.733C29.7949 102.438 29.7558 102.169 29.6775 101.925C29.6038 101.681 29.491 101.469 29.3391 101.289C29.1917 101.11 29.0052 100.972 28.7796 100.875C28.554 100.774 28.2938 100.723 27.9991 100.723C27.6031 100.723 27.2992 100.781 27.0874 100.896C26.8802 101.011 26.6868 101.154 26.5072 101.324ZM39.3541 100.129V101.773C39.3541 102.56 39.2758 103.233 39.1193 103.79C38.9673 104.342 38.7463 104.791 38.4562 105.137C38.1661 105.482 37.8185 105.735 37.4133 105.896C37.0127 106.058 36.5637 106.138 36.0664 106.138C35.6704 106.138 35.302 106.087 34.9613 105.986C34.6252 105.885 34.3213 105.726 34.0496 105.51C33.7779 105.293 33.5454 105.015 33.352 104.674C33.1632 104.329 33.0159 103.916 32.9099 103.438C32.8086 102.959 32.758 102.404 32.758 101.773V100.129C32.758 99.3371 32.8363 98.6694 32.9928 98.1261C33.1494 97.5781 33.3727 97.1338 33.6628 96.7931C33.9529 96.4477 34.2982 96.1968 34.6988 96.0402C35.104 95.8836 35.5553 95.8054 36.0526 95.8054C36.4532 95.8054 36.8216 95.856 37.1577 95.9573C37.4985 96.054 37.8024 96.2083 38.0694 96.4201C38.3411 96.6319 38.5713 96.9082 38.7601 97.2489C38.9535 97.5851 39.1009 97.9926 39.2022 98.4714C39.3035 98.9457 39.3541 99.4983 39.3541 100.129ZM37.6895 102.008V99.8805C37.6895 99.4799 37.6665 99.1276 37.6205 98.8237C37.5744 98.5152 37.5054 98.255 37.4133 98.0432C37.3258 97.8268 37.2153 97.6518 37.0817 97.5183C36.9482 97.3801 36.7962 97.2811 36.6259 97.2213C36.4555 97.1568 36.2644 97.1246 36.0526 97.1246C35.7947 97.1246 35.5645 97.1752 35.3619 97.2765C35.1593 97.3732 34.9889 97.5298 34.8508 97.7462C34.7127 97.9626 34.6067 98.2481 34.5331 98.6027C34.464 98.9526 34.4295 99.3786 34.4295 99.8805V102.008C34.4295 102.413 34.4525 102.77 34.4985 103.078C34.5446 103.387 34.6137 103.652 34.7057 103.873C34.7978 104.089 34.9084 104.269 35.0373 104.411C35.1708 104.55 35.3228 104.651 35.4931 104.715C35.6681 104.78 35.8592 104.812 36.0664 104.812C36.3289 104.812 36.5614 104.761 36.764 104.66C36.9666 104.559 37.137 104.398 37.2751 104.177C37.4133 103.951 37.5169 103.659 37.5859 103.299C37.655 102.94 37.6895 102.51 37.6895 102.008ZM47.3938 100.129V101.773C47.3938 102.56 47.3155 103.233 47.1589 103.79C47.007 104.342 46.786 104.791 46.4959 105.137C46.2058 105.482 45.8581 105.735 45.4529 105.896C45.0523 106.058 44.6034 106.138 44.1061 106.138C43.7101 106.138 43.3417 106.087 43.001 105.986C42.6648 105.885 42.3609 105.726 42.0893 105.51C41.8176 105.293 41.5851 105.015 41.3917 104.674C41.2029 104.329 41.0555 103.916 40.9496 103.438C40.8483 102.959 40.7977 102.404 40.7977 101.773V100.129C40.7977 99.3371 40.8759 98.6694 41.0325 98.1261C41.1891 97.5781 41.4124 97.1338 41.7025 96.7931C41.9926 96.4477 42.3379 96.1968 42.7385 96.0402C43.1437 95.8836 43.595 95.8054 44.0923 95.8054C44.4929 95.8054 44.8612 95.856 45.1974 95.9573C45.5381 96.054 45.842 96.2083 46.1091 96.4201C46.3808 96.6319 46.611 96.9082 46.7998 97.2489C46.9932 97.5851 47.1405 97.9926 47.2418 98.4714C47.3431 98.9457 47.3938 99.4983 47.3938 100.129ZM45.7292 102.008V99.8805C45.7292 99.4799 45.7062 99.1276 45.6601 98.8237C45.6141 98.5152 45.545 98.255 45.4529 98.0432C45.3654 97.8268 45.2549 97.6518 45.1214 97.5183C44.9879 97.3801 44.8359 97.2811 44.6655 97.2213C44.4952 97.1568 44.3041 97.1246 44.0923 97.1246C43.8344 97.1246 43.6042 97.1752 43.4016 97.2765C43.199 97.3732 43.0286 97.5298 42.8905 97.7462C42.7523 97.9626 42.6464 98.2481 42.5727 98.6027C42.5037 98.9526 42.4691 99.3786 42.4691 99.8805V102.008C42.4691 102.413 42.4922 102.77 42.5382 103.078C42.5843 103.387 42.6533 103.652 42.7454 103.873C42.8375 104.089 42.948 104.269 43.077 104.411C43.2105 104.55 43.3624 104.651 43.5328 104.715C43.7078 104.78 43.8989 104.812 44.1061 104.812C44.3685 104.812 44.6011 104.761 44.8037 104.66C45.0063 104.559 45.1767 104.398 45.3148 104.177C45.4529 103.951 45.5565 103.659 45.6256 103.299C45.6947 102.94 45.7292 102.51 45.7292 102.008Z" fill="#637173"/>
<path d="M29.788 52.8813H29.9952V54.242H29.8778C29.2838 54.242 28.7704 54.3341 28.3376 54.5183C27.9093 54.7025 27.5571 54.9557 27.2808 55.278C27.0045 55.6004 26.7973 55.978 26.6592 56.4108C26.5256 56.839 26.4589 57.2949 26.4589 57.7784V59.36C26.4589 59.7606 26.5026 60.1152 26.5901 60.4237C26.6776 60.7276 26.7996 60.9832 26.9562 61.1904C27.1173 61.393 27.3015 61.5472 27.5087 61.6531C27.7159 61.7591 27.9393 61.812 28.1787 61.812C28.4273 61.812 28.653 61.7614 28.8556 61.6601C29.0582 61.5541 29.2309 61.4091 29.3736 61.2249C29.5163 61.0407 29.6245 60.822 29.6982 60.5688C29.7719 60.3155 29.8087 60.0392 29.8087 59.7399C29.8087 59.4544 29.7719 59.1874 29.6982 58.9387C29.6292 58.6855 29.5255 58.4644 29.3874 58.2757C29.2493 58.0823 29.0766 57.9326 28.8694 57.8267C28.6668 57.7162 28.4319 57.6609 28.1649 57.6609C27.8333 57.6609 27.5317 57.7392 27.2601 57.8958C26.993 58.0523 26.7766 58.2572 26.6108 58.5105C26.4497 58.7591 26.3622 59.0239 26.3484 59.3048L25.7129 59.0976C25.7498 58.6694 25.8442 58.2849 25.9961 57.9441C26.1527 57.6034 26.3576 57.3133 26.6108 57.0739C26.8641 56.8344 27.1565 56.6525 27.488 56.5282C27.8241 56.3993 28.1925 56.3348 28.5931 56.3348C29.0812 56.3348 29.5048 56.4269 29.864 56.6111C30.2231 56.7953 30.5201 57.0462 30.755 57.3639C30.9944 57.6771 31.1717 58.0362 31.2868 58.4414C31.4065 58.842 31.4664 59.261 31.4664 59.6985C31.4664 60.182 31.3927 60.6332 31.2454 61.0522C31.098 61.4667 30.8816 61.8304 30.5961 62.1435C30.3152 62.4567 29.9722 62.7007 29.567 62.8757C29.1664 63.0507 28.7105 63.1381 28.1994 63.1381C27.6607 63.1381 27.1795 63.0345 26.7559 62.8273C26.3368 62.6201 25.98 62.3346 25.6853 61.9709C25.3952 61.6071 25.1742 61.1881 25.0222 60.7138C24.8703 60.2395 24.7943 59.7376 24.7943 59.2081V58.5174C24.7943 57.753 24.891 57.0324 25.0844 56.3555C25.2778 55.674 25.5748 55.0731 25.9754 54.5528C26.3806 54.0325 26.8986 53.625 27.5294 53.3303C28.1603 53.031 28.9131 52.8813 29.788 52.8813ZM39.3541 57.1291V58.773C39.3541 59.5603 39.2758 60.2326 39.1193 60.7898C38.9673 61.3423 38.7463 61.7913 38.4562 62.1366C38.1661 62.482 37.8185 62.7352 37.4133 62.8964C37.0127 63.0576 36.5637 63.1381 36.0664 63.1381C35.6704 63.1381 35.302 63.0875 34.9613 62.9862C34.6252 62.8849 34.3213 62.726 34.0496 62.5096C33.7779 62.2932 33.5454 62.0146 33.352 61.6739C33.1632 61.3285 33.0159 60.9164 32.9099 60.4375C32.8086 59.9586 32.758 59.4038 32.758 58.773V57.1291C32.758 56.3371 32.8363 55.6694 32.9928 55.1261C33.1494 54.5781 33.3727 54.1338 33.6628 53.7931C33.9529 53.4477 34.2982 53.1968 34.6988 53.0402C35.104 52.8836 35.5553 52.8054 36.0526 52.8054C36.4532 52.8054 36.8216 52.856 37.1577 52.9573C37.4985 53.054 37.8024 53.2083 38.0694 53.4201C38.3411 53.6319 38.5713 53.9082 38.7601 54.2489C38.9535 54.5851 39.1009 54.9926 39.2022 55.4714C39.3035 55.9457 39.3541 56.4983 39.3541 57.1291ZM37.6895 59.0078V56.8805C37.6895 56.4799 37.6665 56.1276 37.6205 55.8237C37.5744 55.5152 37.5054 55.255 37.4133 55.0432C37.3258 54.8268 37.2153 54.6518 37.0817 54.5183C36.9482 54.3801 36.7962 54.2811 36.6259 54.2213C36.4555 54.1568 36.2644 54.1246 36.0526 54.1246C35.7947 54.1246 35.5645 54.1752 35.3619 54.2765C35.1593 54.3732 34.9889 54.5298 34.8508 54.7462C34.7127 54.9626 34.6067 55.2481 34.5331 55.6027C34.464 55.9526 34.4295 56.3786 34.4295 56.8805V59.0078C34.4295 59.413 34.4525 59.7699 34.4985 60.0784C34.5446 60.3869 34.6137 60.6516 34.7057 60.8727C34.7978 61.0891 34.9084 61.2687 35.0373 61.4114C35.1708 61.5495 35.3228 61.6508 35.4931 61.7153C35.6681 61.7798 35.8592 61.812 36.0664 61.812C36.3289 61.812 36.5614 61.7614 36.764 61.6601C36.9666 61.5588 37.137 61.3976 37.2751 61.1766C37.4133 60.9509 37.5169 60.6585 37.5859 60.2994C37.655 59.9402 37.6895 59.5097 37.6895 59.0078ZM47.3938 57.1291V58.773C47.3938 59.5603 47.3155 60.2326 47.1589 60.7898C47.007 61.3423 46.786 61.7913 46.4959 62.1366C46.2058 62.482 45.8581 62.7352 45.4529 62.8964C45.0523 63.0576 44.6034 63.1381 44.1061 63.1381C43.7101 63.1381 43.3417 63.0875 43.001 62.9862C42.6648 62.8849 42.3609 62.726 42.0893 62.5096C41.8176 62.2932 41.5851 62.0146 41.3917 61.6739C41.2029 61.3285 41.0555 60.9164 40.9496 60.4375C40.8483 59.9586 40.7977 59.4038 40.7977 58.773V57.1291C40.7977 56.3371 40.8759 55.6694 41.0325 55.1261C41.1891 54.5781 41.4124 54.1338 41.7025 53.7931C41.9926 53.4477 42.3379 53.1968 42.7385 53.0402C43.1437 52.8836 43.595 52.8054 44.0923 52.8054C44.4929 52.8054 44.8612 52.856 45.1974 52.9573C45.5381 53.054 45.842 53.2083 46.1091 53.4201C46.3808 53.6319 46.611 53.9082 46.7998 54.2489C46.9932 54.5851 47.1405 54.9926 47.2418 55.4714C47.3431 55.9457 47.3938 56.4983 47.3938 57.1291ZM45.7292 59.0078V56.8805C45.7292 56.4799 45.7062 56.1276 45.6601 55.8237C45.6141 55.5152 45.545 55.255 45.4529 55.0432C45.3654 54.8268 45.2549 54.6518 45.1214 54.5183C44.9879 54.3801 44.8359 54.2811 44.6655 54.2213C44.4952 54.1568 44.3041 54.1246 44.0923 54.1246C43.8344 54.1246 43.6042 54.1752 43.4016 54.2765C43.199 54.3732 43.0286 54.5298 42.8905 54.7462C42.7523 54.9626 42.6464 55.2481 42.5727 55.6027C42.5037 55.9526 42.4691 56.3786 42.4691 56.8805V59.0078C42.4691 59.413 42.4922 59.7699 42.5382 60.0784C42.5843 60.3869 42.6533 60.6516 42.7454 60.8727C42.8375 61.0891 42.948 61.2687 43.077 61.4114C43.2105 61.5495 43.3624 61.6508 43.5328 61.7153C43.7078 61.7798 43.8989 61.812 44.1061 61.812C44.3685 61.812 44.6011 61.7614 44.8037 61.6601C45.0063 61.5588 45.1767 61.3976 45.3148 61.1766C45.4529 60.9509 45.5565 60.6585 45.6256 60.2994C45.6947 59.9402 45.7292 59.5097 45.7292 59.0078Z" fill="#637173"/>
<path d="M31.4388 11.9435V12.8552L27.4189 22H25.6646L29.6775 13.2696H24.4697V11.9435H31.4388ZM39.3541 16.1291V17.773C39.3541 18.5603 39.2758 19.2326 39.1193 19.7898C38.9673 20.3423 38.7463 20.7913 38.4562 21.1366C38.1661 21.482 37.8185 21.7352 37.4133 21.8964C37.0127 22.0576 36.5637 22.1381 36.0664 22.1381C35.6704 22.1381 35.302 22.0875 34.9613 21.9862C34.6252 21.8849 34.3213 21.726 34.0496 21.5096C33.7779 21.2932 33.5454 21.0146 33.352 20.6739C33.1632 20.3285 33.0159 19.9164 32.9099 19.4375C32.8086 18.9586 32.758 18.4038 32.758 17.773V16.1291C32.758 15.3371 32.8363 14.6694 32.9928 14.1261C33.1494 13.5781 33.3727 13.1338 33.6628 12.7931C33.9529 12.4477 34.2982 12.1968 34.6988 12.0402C35.104 11.8836 35.5553 11.8054 36.0526 11.8054C36.4532 11.8054 36.8216 11.856 37.1577 11.9573C37.4985 12.054 37.8024 12.2083 38.0694 12.4201C38.3411 12.6319 38.5713 12.9082 38.7601 13.2489C38.9535 13.5851 39.1009 13.9926 39.2022 14.4714C39.3035 14.9457 39.3541 15.4983 39.3541 16.1291ZM37.6895 18.0078V15.8805C37.6895 15.4799 37.6665 15.1276 37.6205 14.8237C37.5744 14.5152 37.5054 14.255 37.4133 14.0432C37.3258 13.8268 37.2153 13.6518 37.0817 13.5183C36.9482 13.3801 36.7962 13.2811 36.6259 13.2213C36.4555 13.1568 36.2644 13.1246 36.0526 13.1246C35.7947 13.1246 35.5645 13.1752 35.3619 13.2765C35.1593 13.3732 34.9889 13.5298 34.8508 13.7462C34.7127 13.9626 34.6067 14.2481 34.5331 14.6027C34.464 14.9526 34.4295 15.3786 34.4295 15.8805V18.0078C34.4295 18.413 34.4525 18.7699 34.4985 19.0784C34.5446 19.3869 34.6137 19.6516 34.7057 19.8727C34.7978 20.0891 34.9084 20.2687 35.0373 20.4114C35.1708 20.5495 35.3228 20.6508 35.4931 20.7153C35.6681 20.7798 35.8592 20.812 36.0664 20.812C36.3289 20.812 36.5614 20.7614 36.764 20.6601C36.9666 20.5588 37.137 20.3976 37.2751 20.1766C37.4133 19.9509 37.5169 19.6585 37.5859 19.2994C37.655 18.9402 37.6895 18.5097 37.6895 18.0078ZM47.3938 16.1291V17.773C47.3938 18.5603 47.3155 19.2326 47.1589 19.7898C47.007 20.3423 46.786 20.7913 46.4959 21.1366C46.2058 21.482 45.8581 21.7352 45.4529 21.8964C45.0523 22.0576 44.6034 22.1381 44.1061 22.1381C43.7101 22.1381 43.3417 22.0875 43.001 21.9862C42.6648 21.8849 42.3609 21.726 42.0893 21.5096C41.8176 21.2932 41.5851 21.0146 41.3917 20.6739C41.2029 20.3285 41.0555 19.9164 40.9496 19.4375C40.8483 18.9586 40.7977 18.4038 40.7977 17.773V16.1291C40.7977 15.3371 40.8759 14.6694 41.0325 14.1261C41.1891 13.5781 41.4124 13.1338 41.7025 12.7931C41.9926 12.4477 42.3379 12.1968 42.7385 12.0402C43.1437 11.8836 43.595 11.8054 44.0923 11.8054C44.4929 11.8054 44.8612 11.856 45.1974 11.9573C45.5381 12.054 45.842 12.2083 46.1091 12.4201C46.3808 12.6319 46.611 12.9082 46.7998 13.2489C46.9932 13.5851 47.1405 13.9926 47.2418 14.4714C47.3431 14.9457 47.3938 15.4983 47.3938 16.1291ZM45.7292 18.0078V15.8805C45.7292 15.4799 45.7062 15.1276 45.6601 14.8237C45.6141 14.5152 45.545 14.255 45.4529 14.0432C45.3654 13.8268 45.2549 13.6518 45.1214 13.5183C44.9879 13.3801 44.8359 13.2811 44.6655 13.2213C44.4952 13.1568 44.3041 13.1246 44.0923 13.1246C43.8344 13.1246 43.6042 13.1752 43.4016 13.2765C43.199 13.3732 43.0286 13.5298 42.8905 13.7462C42.7523 13.9626 42.6464 14.2481 42.5727 14.6027C42.5037 14.9526 42.4691 15.3786 42.4691 15.8805V18.0078C42.4691 18.413 42.4922 18.7699 42.5382 19.0784C42.5843 19.3869 42.6533 19.6516 42.7454 19.8727C42.8375 20.0891 42.948 20.2687 43.077 20.4114C43.2105 20.5495 43.3624 20.6508 43.5328 20.7153C43.7078 20.7798 43.8989 20.812 44.1061 20.812C44.3685 20.812 44.6011 20.7614 44.8037 20.6601C45.0063 20.5588 45.1767 20.3976 45.3148 20.1766C45.4529 19.9509 45.5565 19.6585 45.6256 19.2994C45.6947 18.9402 45.7292 18.5097 45.7292 18.0078Z" fill="#637173"/>
<path d="M11.0538 198.288C10.8972 198.288 10.7568 198.311 10.6324 198.357C10.5035 198.403 10.3838 198.488 10.2733 198.612C10.1628 198.737 10.0523 198.916 9.94175 199.151C9.82663 199.381 9.70691 199.685 9.58259 200.063C9.43524 200.505 9.26947 200.931 9.08529 201.341C8.8965 201.751 8.67778 202.117 8.42913 202.439C8.17587 202.761 7.88118 203.017 7.54504 203.206C7.2043 203.394 6.8083 203.489 6.35705 203.489C5.92421 203.489 5.53512 203.392 5.18978 203.199C4.83982 203.005 4.54283 202.736 4.29878 202.391C4.05013 202.041 3.86134 201.631 3.73241 201.161C3.59888 200.691 3.53211 200.178 3.53211 199.621C3.53211 198.884 3.66104 198.235 3.9189 197.673C4.17215 197.107 4.53362 196.665 5.00329 196.347C5.46835 196.025 6.01861 195.864 6.65405 195.864L6.65405 198.274C6.40079 198.274 6.17747 198.327 5.98407 198.433C5.79068 198.534 5.63873 198.688 5.52821 198.896C5.4177 199.103 5.36245 199.363 5.36245 199.676C5.36245 199.98 5.40849 200.236 5.50059 200.443C5.59268 200.65 5.717 200.807 5.87356 200.912C6.02551 201.018 6.19358 201.071 6.37777 201.071C6.52972 201.071 6.66786 201.03 6.79218 200.947C6.9119 200.86 7.02472 200.738 7.13062 200.581C7.23653 200.42 7.33783 200.226 7.43453 200.001C7.53123 199.771 7.62562 199.513 7.71771 199.227C7.88808 198.693 8.07918 198.219 8.29099 197.804C8.4982 197.385 8.73533 197.033 9.0024 196.748C9.26487 196.458 9.56417 196.239 9.9003 196.091C10.2364 195.94 10.6163 195.864 11.0399 195.864C11.4912 195.864 11.8918 195.951 12.2418 196.126C12.5917 196.301 12.8887 196.552 13.1327 196.879C13.3722 197.206 13.5541 197.597 13.6784 198.053C13.8027 198.509 13.8649 199.018 13.8649 199.579C13.8649 200.095 13.8004 200.604 13.6715 201.106C13.538 201.603 13.3354 202.054 13.0637 202.46C12.7874 202.865 12.4351 203.189 12.0069 203.434C11.5741 203.673 11.0607 203.793 10.4667 203.793V201.361C10.7614 201.361 11.01 201.322 11.2126 201.244C11.4152 201.166 11.5787 201.051 11.703 200.899C11.8227 200.747 11.9102 200.56 11.9655 200.339C12.0161 200.118 12.0415 199.865 12.0415 199.579C12.0415 199.271 11.9977 199.022 11.9102 198.834C11.8181 198.645 11.6984 198.507 11.5511 198.419C11.3991 198.332 11.2333 198.288 11.0538 198.288ZM6.25344 190.787H7.86967V195.29H6.25344V190.787ZM4.39548 194.344L4.39548 192.016H11.2886C11.4866 192.016 11.6409 191.993 11.7514 191.947C11.8573 191.901 11.9332 191.823 11.9793 191.712C12.0207 191.597 12.0415 191.445 12.0415 191.257C12.0415 191.123 12.0392 191.013 12.0345 190.925C12.0253 190.838 12.0138 190.755 12 190.676H13.6646C13.729 190.874 13.7774 191.082 13.8096 191.298C13.8465 191.514 13.8649 191.745 13.8649 191.989C13.8649 192.486 13.7866 192.912 13.63 193.267C13.4735 193.616 13.2271 193.884 12.891 194.068C12.5549 194.252 12.1174 194.344 11.5787 194.344H4.39548ZM11.9102 185.496H6.25344V183.162H13.7267V185.344L11.9102 185.496ZM10.3907 185.275L10.3769 184.667C10.8788 184.667 11.3439 184.727 11.7721 184.847C12.1957 184.967 12.5641 185.144 12.8772 185.379C13.1903 185.609 13.4344 185.895 13.6093 186.235C13.7797 186.571 13.8649 186.96 13.8649 187.403C13.8649 187.771 13.8142 188.109 13.7129 188.418C13.607 188.722 13.4436 188.984 13.2225 189.205C12.9969 189.426 12.7091 189.599 12.3592 189.723C12.0046 189.843 11.581 189.903 11.0883 189.903H6.25344V187.575H11.1021C11.2679 187.575 11.4106 187.554 11.5303 187.513C11.6501 187.472 11.7514 187.412 11.8342 187.333C11.9125 187.255 11.9724 187.158 12.0138 187.043C12.0507 186.924 12.0691 186.788 12.0691 186.636C12.0691 186.286 11.9954 186.012 11.8481 185.814C11.7007 185.616 11.5004 185.478 11.2472 185.4C10.9939 185.317 10.7084 185.275 10.3907 185.275ZM12.0138 177.581H3.11769V175.239H13.7267V177.339L12.0138 177.581ZM10.0799 182.167H9.93484C9.36847 182.167 8.85275 182.105 8.38769 181.981C7.91801 181.856 7.51511 181.672 7.17897 181.428C6.83823 181.184 6.57577 180.88 6.39158 180.516C6.2074 180.153 6.1153 179.734 6.1153 179.259C6.1153 178.836 6.2143 178.465 6.4123 178.147C6.6057 177.83 6.87737 177.558 7.22732 177.332C7.57727 177.107 7.98708 176.922 8.45675 176.78C8.92182 176.637 9.42373 176.529 9.96247 176.455H10.1351C10.6416 176.529 11.1205 176.637 11.5718 176.78C12.0184 176.922 12.4144 177.107 12.7598 177.332C13.1051 177.558 13.3768 177.832 13.5748 178.154C13.7682 178.472 13.8649 178.845 13.8649 179.273C13.8649 179.747 13.7705 180.166 13.5817 180.53C13.3929 180.889 13.1281 181.191 12.7874 181.435C12.4467 181.674 12.0461 181.856 11.5856 181.981C11.1251 182.105 10.6232 182.167 10.0799 182.167ZM9.93484 179.839H10.0799C10.3608 179.839 10.6209 179.821 10.8604 179.784C11.0998 179.747 11.3116 179.685 11.4958 179.598C11.6754 179.506 11.8158 179.386 11.9171 179.239C12.0184 179.087 12.0691 178.9 12.0691 178.679C12.0691 178.38 11.9977 178.133 11.855 177.94C11.7122 177.742 11.5096 177.597 11.2472 177.505C10.9847 177.408 10.6762 177.367 10.3216 177.381H9.77598C9.47207 177.371 9.20501 177.392 8.97477 177.443C8.73994 177.493 8.54424 177.574 8.38769 177.684C8.23113 177.79 8.11371 177.926 8.03543 178.092C7.95255 178.253 7.91111 178.444 7.91111 178.665C7.91111 178.882 7.96176 179.066 8.06306 179.218C8.16436 179.365 8.3071 179.485 8.49129 179.577C8.67087 179.669 8.88498 179.736 9.13363 179.777C9.37768 179.819 9.64475 179.839 9.93484 179.839ZM13.8649 170.301C13.8649 170.909 13.7705 171.452 13.5817 171.931C13.3883 172.41 13.1235 172.815 12.7874 173.147C12.4513 173.474 12.0645 173.725 11.627 173.899C11.1896 174.07 10.7268 174.155 10.2387 174.155H9.97628C9.42833 174.155 8.92182 174.079 8.45675 173.927C7.98708 173.775 7.57727 173.55 7.22732 173.25C6.87737 172.951 6.6057 172.576 6.4123 172.124C6.2143 171.673 6.1153 171.148 6.1153 170.55C6.1153 170.02 6.20049 169.546 6.37086 169.127C6.54123 168.708 6.78528 168.353 7.103 168.063C7.42071 167.768 7.8052 167.545 8.25645 167.393C8.70771 167.237 9.21422 167.158 9.77598 167.158H10.7222V173.264H9.26487V169.431H9.08529C8.83664 169.426 8.62482 169.47 8.44985 169.562C8.27487 169.649 8.14134 169.778 8.04925 169.949C7.95715 170.119 7.91111 170.326 7.91111 170.57C7.91111 170.824 7.96636 171.033 8.07687 171.199C8.18738 171.36 8.33934 171.487 8.53273 171.579C8.72152 171.666 8.94024 171.728 9.18889 171.765C9.43754 171.802 9.7 171.82 9.97628 171.82H10.2387C10.515 171.82 10.766 171.784 10.9916 171.71C11.2172 171.632 11.4106 171.521 11.5718 171.378C11.7283 171.231 11.8504 171.056 11.9378 170.854C12.0253 170.646 12.0691 170.411 12.0691 170.149C12.0691 169.831 12.0092 169.518 11.8895 169.21C11.7698 168.901 11.5718 168.636 11.2955 168.415L12.5526 167.359C12.769 167.511 12.9785 167.727 13.1811 168.008C13.3837 168.284 13.5495 168.616 13.6784 169.002C13.8027 169.389 13.8649 169.822 13.8649 170.301ZM7.84894 163.926H13.7267V166.254H6.25344V164.071L7.84894 163.926ZM9.73454 164.202L9.74835 164.748C9.17738 164.748 8.66857 164.679 8.22192 164.541C7.77067 164.402 7.38848 164.207 7.07537 163.953C6.76225 163.7 6.52512 163.399 6.36395 163.049C6.19819 162.694 6.1153 162.3 6.1153 161.868C6.1153 161.522 6.16596 161.207 6.26726 160.921C6.36856 160.631 6.53202 160.383 6.75765 160.175C6.98328 159.964 7.28258 159.802 7.65555 159.692C8.02392 159.577 8.47978 159.519 9.02312 159.519H13.7267L13.7267 161.861H9.01622C8.71692 161.861 8.48899 161.902 8.33243 161.985C8.17127 162.068 8.06076 162.188 8.0009 162.344C7.94104 162.501 7.91111 162.692 7.91111 162.917C7.91111 163.157 7.95715 163.359 8.04925 163.525C8.14134 163.691 8.27027 163.825 8.43603 163.926C8.5972 164.023 8.78829 164.094 9.00931 164.14C9.23033 164.181 9.47207 164.202 9.73454 164.202ZM6.25344 154.291H7.86967V158.794H6.25344V154.291ZM4.39548 157.848L4.39548 155.52H11.2886C11.4866 155.52 11.6409 155.497 11.7514 155.451C11.8573 155.405 11.9332 155.327 11.9793 155.216C12.0207 155.101 12.0415 154.949 12.0415 154.76C12.0415 154.627 12.0392 154.516 12.0345 154.429C12.0253 154.341 12.0138 154.258 12 154.18H13.6646C13.729 154.378 13.7774 154.585 13.8096 154.802C13.8465 155.018 13.8649 155.248 13.8649 155.492C13.8649 155.99 13.7866 156.416 13.63 156.77C13.4735 157.12 13.2271 157.387 12.891 157.571C12.5549 157.756 12.1174 157.848 11.5787 157.848H4.39548ZM11.627 149.449C11.4981 149.449 11.3876 149.493 11.2955 149.58C11.1988 149.663 11.1113 149.81 11.033 150.022C10.9502 150.234 10.8673 150.531 10.7844 150.913C10.7061 151.277 10.6025 151.62 10.4736 151.942C10.3447 152.26 10.1881 152.539 10.0039 152.778C9.81972 153.018 9.601 153.206 9.34775 153.344C9.0945 153.478 8.8044 153.545 8.47748 153.545C8.15976 153.545 7.86046 153.478 7.57957 153.344C7.29409 153.206 7.04314 153.006 6.82672 152.744C6.6057 152.476 6.43302 152.152 6.3087 151.77C6.17977 151.387 6.1153 150.952 6.1153 150.464C6.1153 149.792 6.21891 149.212 6.42612 148.724C6.62872 148.236 6.91421 147.86 7.28258 147.598C7.64634 147.331 8.06766 147.197 8.54655 147.197V149.525C8.35776 149.525 8.19659 149.557 8.06306 149.622C7.92953 149.681 7.82822 149.78 7.75915 149.919C7.68548 150.057 7.64864 150.241 7.64864 150.471C7.64864 150.632 7.67857 150.78 7.73843 150.913C7.79829 151.042 7.88118 151.146 7.98708 151.224C8.09299 151.302 8.21731 151.341 8.36006 151.341C8.46136 151.341 8.55345 151.318 8.63634 151.272C8.71461 151.222 8.78829 151.146 8.85736 151.044C8.92182 150.943 8.98168 150.814 9.03694 150.658C9.08759 150.501 9.13363 150.312 9.17508 150.091C9.26717 149.589 9.3984 149.12 9.56877 148.682C9.73914 148.245 9.98089 147.89 10.294 147.619C10.6071 147.342 11.0284 147.204 11.558 147.204C11.8895 147.204 12.1957 147.28 12.4766 147.432C12.7529 147.584 12.9969 147.803 13.2087 148.088C13.4159 148.374 13.5771 148.717 13.6922 149.117C13.8073 149.518 13.8649 149.969 13.8649 150.471C13.8649 151.185 13.7383 151.788 13.485 152.281C13.2271 152.773 12.9048 153.146 12.518 153.4C12.1266 153.648 11.7306 153.773 11.33 153.773V151.604C11.5603 151.595 11.7491 151.539 11.8964 151.438C12.0438 151.332 12.152 151.192 12.221 151.017C12.2901 150.842 12.3246 150.639 12.3246 150.409C12.3246 150.197 12.2947 150.022 12.2348 149.884C12.175 149.741 12.0944 149.633 11.9931 149.559C11.8872 149.486 11.7652 149.449 11.627 149.449Z" fill="#637173"/>
<path d="M64.6195 321.205H65.9456C65.8765 321.84 65.6947 322.409 65.4 322.911C65.1053 323.413 64.6886 323.811 64.1498 324.106C63.6111 324.396 62.9388 324.541 62.133 324.541C61.5436 324.541 61.0072 324.43 60.5237 324.209C60.0448 323.988 59.6327 323.675 59.2873 323.27C58.942 322.86 58.6749 322.37 58.4861 321.799C58.3019 321.223 58.2098 320.583 58.2098 319.879V318.877C58.2098 318.173 58.3019 317.535 58.4861 316.964C58.6749 316.388 58.9443 315.896 59.2942 315.486C59.6488 315.076 60.0747 314.761 60.572 314.54C61.0693 314.319 61.6288 314.208 62.2504 314.208C63.0102 314.208 63.6525 314.351 64.1774 314.636C64.7024 314.922 65.1099 315.318 65.4 315.824C65.6947 316.326 65.8765 316.909 65.9456 317.572H64.6195C64.555 317.102 64.4353 316.699 64.2603 316.363C64.0853 316.022 63.8367 315.76 63.5144 315.576C63.192 315.392 62.7707 315.299 62.2504 315.299C61.8038 315.299 61.4101 315.385 61.0693 315.555C60.7332 315.725 60.45 315.967 60.2198 316.28C59.9941 316.593 59.8238 316.969 59.7087 317.406C59.5935 317.844 59.536 318.329 59.536 318.863V319.879C59.536 320.371 59.5866 320.834 59.6879 321.267C59.7938 321.7 59.9527 322.08 60.1645 322.407C60.3763 322.734 60.6457 322.992 60.9726 323.18C61.2995 323.364 61.6863 323.457 62.133 323.457C62.6994 323.457 63.1506 323.367 63.4867 323.187C63.8229 323.008 64.0761 322.75 64.2465 322.414C64.4215 322.077 64.5458 321.675 64.6195 321.205ZM67.2303 320.749V320.59C67.2303 320.051 67.3086 319.552 67.4651 319.091C67.6217 318.626 67.8473 318.223 68.142 317.883C68.4367 317.537 68.7936 317.27 69.2126 317.081C69.6316 316.888 70.1013 316.791 70.6216 316.791C71.1465 316.791 71.6185 316.888 72.0375 317.081C72.4612 317.27 72.8203 317.537 73.115 317.883C73.4143 318.223 73.6422 318.626 73.7988 319.091C73.9554 319.552 74.0336 320.051 74.0336 320.59V320.749C74.0336 321.288 73.9554 321.787 73.7988 322.248C73.6422 322.708 73.4143 323.111 73.115 323.457C72.8203 323.797 72.4635 324.064 72.0444 324.258C71.63 324.447 71.1603 324.541 70.6354 324.541C70.1105 324.541 69.6385 324.447 69.2195 324.258C68.8005 324.064 68.4413 323.797 68.142 323.457C67.8473 323.111 67.6217 322.708 67.4651 322.248C67.3086 321.787 67.2303 321.288 67.2303 320.749ZM68.5081 320.59V320.749C68.5081 321.122 68.5518 321.474 68.6393 321.806C68.7268 322.133 68.858 322.423 69.033 322.676C69.2126 322.929 69.4359 323.13 69.703 323.277C69.9701 323.42 70.2809 323.491 70.6354 323.491C70.9854 323.491 71.2916 323.42 71.554 323.277C71.8211 323.13 72.0421 322.929 72.2171 322.676C72.3921 322.423 72.5233 322.133 72.6108 321.806C72.7029 321.474 72.7489 321.122 72.7489 320.749V320.59C72.7489 320.222 72.7029 319.874 72.6108 319.547C72.5233 319.216 72.3898 318.923 72.2102 318.67C72.0352 318.412 71.8142 318.21 71.5471 318.062C71.2847 317.915 70.9762 317.841 70.6216 317.841C70.2717 317.841 69.9631 317.915 69.6961 318.062C69.4336 318.21 69.2126 318.412 69.033 318.67C68.858 318.923 68.7268 319.216 68.6393 319.547C68.5518 319.874 68.5081 320.222 68.5081 320.59ZM77.0243 313.794V324.403H75.7396V313.794H77.0243ZM78.7373 320.749V320.59C78.7373 320.051 78.8155 319.552 78.9721 319.091C79.1286 318.626 79.3543 318.223 79.649 317.883C79.9437 317.537 80.3005 317.27 80.7195 317.081C81.1386 316.888 81.6082 316.791 82.1286 316.791C82.6535 316.791 83.1255 316.888 83.5445 317.081C83.9681 317.27 84.3273 317.537 84.622 317.883C84.9213 318.223 85.1492 318.626 85.3058 319.091C85.4623 319.552 85.5406 320.051 85.5406 320.59V320.749C85.5406 321.288 85.4623 321.787 85.3058 322.248C85.1492 322.708 84.9213 323.111 84.622 323.457C84.3273 323.797 83.9704 324.064 83.5514 324.258C83.137 324.447 82.6673 324.541 82.1424 324.541C81.6174 324.541 81.1455 324.447 80.7265 324.258C80.3074 324.064 79.9483 323.797 79.649 323.457C79.3543 323.111 79.1286 322.708 78.9721 322.248C78.8155 321.787 78.7373 321.288 78.7373 320.749ZM80.015 320.59V320.749C80.015 321.122 80.0588 321.474 80.1463 321.806C80.2338 322.133 80.365 322.423 80.54 322.676C80.7195 322.929 80.9429 323.13 81.2099 323.277C81.477 323.42 81.7878 323.491 82.1424 323.491C82.4923 323.491 82.7985 323.42 83.061 323.277C83.3281 323.13 83.5491 322.929 83.7241 322.676C83.899 322.423 84.0303 322.133 84.1178 321.806C84.2099 321.474 84.2559 321.122 84.2559 320.749V320.59C84.2559 320.222 84.2099 319.874 84.1178 319.547C84.0303 319.216 83.8967 318.923 83.7172 318.67C83.5422 318.412 83.3212 318.21 83.0541 318.062C82.7916 317.915 82.4831 317.841 82.1286 317.841C81.7786 317.841 81.4701 317.915 81.203 318.062C80.9406 318.21 80.7195 318.412 80.54 318.67C80.365 318.923 80.2338 319.216 80.1463 319.547C80.0588 319.874 80.015 320.222 80.015 320.59ZM88.4139 318.415V324.403H87.1292V316.93H88.3448L88.4139 318.415ZM88.1514 320.383L87.5574 320.362C87.562 319.851 87.6288 319.379 87.7577 318.946C87.8866 318.509 88.0777 318.129 88.331 317.807C88.5842 317.484 88.8997 317.236 89.2772 317.061C89.6548 316.881 90.0923 316.791 90.5896 316.791C90.9395 316.791 91.2618 316.842 91.5565 316.943C91.8512 317.04 92.1068 317.194 92.3232 317.406C92.5396 317.618 92.7077 317.89 92.8274 318.221C92.9471 318.553 93.007 318.953 93.007 319.423V324.403H91.7292V319.485C91.7292 319.094 91.6624 318.781 91.5289 318.546C91.4 318.311 91.2158 318.141 90.9763 318.035C90.7369 317.924 90.456 317.869 90.1337 317.869C89.7561 317.869 89.4407 317.936 89.1874 318.069C88.9342 318.203 88.7316 318.387 88.5796 318.622C88.4277 318.857 88.3172 319.126 88.2481 319.43C88.1836 319.729 88.1514 320.047 88.1514 320.383ZM92.9932 319.678L92.1367 319.941C92.1413 319.531 92.2081 319.137 92.337 318.76C92.4705 318.382 92.6616 318.046 92.9103 317.751C93.1635 317.457 93.4744 317.224 93.8427 317.054C94.2111 316.879 94.6324 316.791 95.1067 316.791C95.5073 316.791 95.8618 316.844 96.1704 316.95C96.4835 317.056 96.7459 317.22 96.9577 317.441C97.1742 317.657 97.3376 317.936 97.4481 318.276C97.5587 318.617 97.6139 319.022 97.6139 319.492V324.403H96.3292V319.478C96.3292 319.059 96.2624 318.735 96.1289 318.504C96 318.269 95.8158 318.106 95.5764 318.014C95.3415 317.917 95.0606 317.869 94.7337 317.869C94.4528 317.869 94.2042 317.917 93.9878 318.014C93.7713 318.111 93.5895 318.244 93.4421 318.415C93.2948 318.58 93.182 318.771 93.1037 318.988C93.03 319.204 92.9932 319.434 92.9932 319.678ZM99.5409 313.794H100.826V322.952L100.715 324.403H99.5409V313.794ZM105.875 320.604V320.749C105.875 321.292 105.81 321.797 105.681 322.262C105.552 322.722 105.363 323.123 105.115 323.463C104.866 323.804 104.562 324.069 104.203 324.258C103.844 324.447 103.432 324.541 102.967 324.541C102.493 324.541 102.076 324.46 101.717 324.299C101.362 324.133 101.063 323.896 100.819 323.588C100.575 323.279 100.379 322.906 100.232 322.469C100.089 322.031 99.9899 321.539 99.9346 320.991V320.355C99.9899 319.803 100.089 319.308 100.232 318.87C100.379 318.433 100.575 318.06 100.819 317.751C101.063 317.438 101.362 317.201 101.717 317.04C102.071 316.874 102.483 316.791 102.953 316.791C103.423 316.791 103.839 316.883 104.203 317.068C104.567 317.247 104.871 317.505 105.115 317.841C105.363 318.177 105.552 318.58 105.681 319.05C105.81 319.515 105.875 320.033 105.875 320.604ZM104.59 320.749V320.604C104.59 320.231 104.555 319.881 104.486 319.554C104.417 319.223 104.307 318.933 104.155 318.684C104.003 318.431 103.803 318.233 103.554 318.09C103.305 317.943 102.999 317.869 102.635 317.869C102.313 317.869 102.032 317.924 101.793 318.035C101.558 318.145 101.357 318.295 101.192 318.484C101.026 318.668 100.89 318.88 100.784 319.119C100.683 319.354 100.607 319.598 100.556 319.851V321.516C100.63 321.838 100.75 322.149 100.915 322.448C101.086 322.743 101.311 322.985 101.592 323.173C101.878 323.362 102.23 323.457 102.649 323.457C102.994 323.457 103.289 323.388 103.533 323.249C103.782 323.107 103.982 322.911 104.134 322.662C104.291 322.414 104.406 322.126 104.479 321.799C104.553 321.472 104.59 321.122 104.59 320.749ZM108.879 316.93V324.403H107.594V316.93H108.879ZM107.498 314.947C107.498 314.74 107.56 314.565 107.684 314.422C107.813 314.28 108.002 314.208 108.251 314.208C108.495 314.208 108.681 314.28 108.81 314.422C108.944 314.565 109.01 314.74 109.01 314.947C109.01 315.145 108.944 315.316 108.81 315.458C108.681 315.596 108.495 315.666 108.251 315.666C108.002 315.666 107.813 315.596 107.684 315.458C107.56 315.316 107.498 315.145 107.498 314.947ZM115.337 323.125V319.278C115.337 318.983 115.277 318.728 115.158 318.511C115.042 318.29 114.867 318.12 114.633 318C114.398 317.88 114.108 317.821 113.762 317.821C113.44 317.821 113.157 317.876 112.913 317.986C112.673 318.097 112.485 318.242 112.346 318.421C112.213 318.601 112.146 318.794 112.146 319.002H110.868C110.868 318.735 110.937 318.47 111.076 318.207C111.214 317.945 111.412 317.708 111.67 317.496C111.932 317.279 112.245 317.109 112.609 316.985C112.977 316.856 113.387 316.791 113.838 316.791C114.382 316.791 114.861 316.883 115.275 317.068C115.694 317.252 116.021 317.53 116.256 317.903C116.495 318.272 116.615 318.735 116.615 319.292V322.773C116.615 323.021 116.636 323.286 116.677 323.567C116.723 323.848 116.79 324.09 116.877 324.292V324.403H115.544C115.48 324.255 115.429 324.06 115.392 323.816C115.356 323.567 115.337 323.337 115.337 323.125ZM115.558 319.872L115.572 320.77H114.28C113.917 320.77 113.592 320.8 113.306 320.86C113.021 320.915 112.782 321 112.588 321.115C112.395 321.23 112.247 321.375 112.146 321.55C112.045 321.721 111.994 321.921 111.994 322.151C111.994 322.386 112.047 322.6 112.153 322.794C112.259 322.987 112.418 323.141 112.63 323.256C112.846 323.367 113.111 323.422 113.424 323.422C113.815 323.422 114.161 323.339 114.46 323.173C114.759 323.008 114.996 322.805 115.171 322.566C115.351 322.326 115.448 322.094 115.461 321.868L116.007 322.483C115.975 322.676 115.887 322.89 115.745 323.125C115.602 323.36 115.411 323.586 115.171 323.802C114.936 324.014 114.656 324.191 114.329 324.334C114.006 324.472 113.643 324.541 113.237 324.541C112.731 324.541 112.287 324.442 111.904 324.244C111.527 324.046 111.232 323.781 111.02 323.45C110.813 323.114 110.709 322.738 110.709 322.324C110.709 321.923 110.788 321.571 110.944 321.267C111.101 320.959 111.326 320.703 111.621 320.5C111.916 320.293 112.27 320.137 112.685 320.031C113.099 319.925 113.562 319.872 114.073 319.872H115.558ZM119.903 318.525V324.403H118.625V316.93H119.834L119.903 318.525ZM119.599 320.383L119.067 320.362C119.071 319.851 119.147 319.379 119.295 318.946C119.442 318.509 119.649 318.129 119.916 317.807C120.183 317.484 120.501 317.236 120.87 317.061C121.243 316.881 121.655 316.791 122.106 316.791C122.474 316.791 122.806 316.842 123.1 316.943C123.395 317.04 123.646 317.197 123.853 317.413C124.065 317.629 124.226 317.91 124.337 318.256C124.447 318.596 124.503 319.013 124.503 319.506V324.403H123.218V319.492C123.218 319.101 123.16 318.787 123.045 318.553C122.93 318.313 122.762 318.141 122.541 318.035C122.32 317.924 122.048 317.869 121.726 317.869C121.408 317.869 121.118 317.936 120.856 318.069C120.598 318.203 120.375 318.387 120.186 318.622C120.002 318.857 119.857 319.126 119.751 319.43C119.649 319.729 119.599 320.047 119.599 320.383Z" fill="#637173"/>
<path d="M163.285 313.944V324H161.945L156.883 316.244V324H155.549V313.944H156.883L161.966 321.721V313.944H163.285ZM168.555 324.138C168.035 324.138 167.563 324.051 167.139 323.876C166.72 323.696 166.359 323.445 166.055 323.123C165.756 322.8 165.525 322.418 165.364 321.976C165.203 321.534 165.123 321.051 165.123 320.526V320.236C165.123 319.628 165.212 319.087 165.392 318.613C165.571 318.134 165.816 317.729 166.124 317.397C166.433 317.065 166.782 316.814 167.174 316.644C167.565 316.474 167.97 316.389 168.389 316.389C168.924 316.389 169.384 316.481 169.771 316.665C170.162 316.849 170.482 317.107 170.731 317.438C170.98 317.765 171.164 318.152 171.283 318.599C171.403 319.041 171.463 319.524 171.463 320.049V320.623H165.882V319.58H170.185V319.483C170.167 319.151 170.098 318.829 169.978 318.516C169.863 318.203 169.679 317.945 169.426 317.742C169.172 317.54 168.827 317.438 168.389 317.438C168.099 317.438 167.832 317.501 167.588 317.625C167.344 317.745 167.135 317.924 166.96 318.164C166.785 318.403 166.649 318.695 166.552 319.041C166.456 319.386 166.407 319.784 166.407 320.236V320.526C166.407 320.88 166.456 321.214 166.552 321.527C166.654 321.836 166.799 322.108 166.987 322.342C167.181 322.577 167.413 322.761 167.685 322.895C167.961 323.028 168.274 323.095 168.624 323.095C169.076 323.095 169.458 323.003 169.771 322.819C170.084 322.635 170.358 322.388 170.593 322.08L171.366 322.695C171.205 322.939 171 323.171 170.752 323.392C170.503 323.613 170.197 323.793 169.833 323.931C169.474 324.069 169.048 324.138 168.555 324.138ZM174.847 322.674L176.768 316.527H177.61L177.444 317.749L175.49 324H174.668L174.847 322.674ZM173.556 316.527L175.193 322.743L175.31 324H174.447L172.278 316.527H173.556ZM179.447 322.695L181.008 316.527H182.279L180.111 324H179.254L179.447 322.695ZM177.797 316.527L179.675 322.57L179.89 324H179.075L177.065 317.735L176.899 316.527H177.797ZM142.889 330.944H144.215V337.747C144.215 338.502 144.047 339.131 143.711 339.632C143.375 340.134 142.928 340.512 142.371 340.765C141.819 341.014 141.218 341.138 140.568 341.138C139.887 341.138 139.27 341.014 138.717 340.765C138.169 340.512 137.734 340.134 137.412 339.632C137.094 339.131 136.935 338.502 136.935 337.747V330.944H138.255V337.747C138.255 338.272 138.351 338.705 138.545 339.045C138.738 339.386 139.007 339.639 139.353 339.805C139.703 339.971 140.108 340.054 140.568 340.054C141.033 340.054 141.439 339.971 141.784 339.805C142.134 339.639 142.406 339.386 142.599 339.045C142.792 338.705 142.889 338.272 142.889 337.747V330.944ZM147.392 335.122V341H146.115V333.527H147.323L147.392 335.122ZM147.089 336.98L146.557 336.959C146.561 336.448 146.637 335.976 146.785 335.544C146.932 335.106 147.139 334.726 147.406 334.404C147.673 334.082 147.991 333.833 148.359 333.658C148.732 333.478 149.144 333.389 149.596 333.389C149.964 333.389 150.296 333.439 150.59 333.541C150.885 333.637 151.136 333.794 151.343 334.01C151.555 334.227 151.716 334.507 151.827 334.853C151.937 335.194 151.992 335.61 151.992 336.103V341H150.708V336.089C150.708 335.698 150.65 335.385 150.535 335.15C150.42 334.91 150.252 334.738 150.031 334.632C149.81 334.521 149.538 334.466 149.216 334.466C148.898 334.466 148.608 334.533 148.346 334.666C148.088 334.8 147.864 334.984 147.676 335.219C147.491 335.454 147.346 335.723 147.24 336.027C147.139 336.326 147.089 336.644 147.089 336.98ZM155.322 333.527V341H154.037V333.527H155.322ZM153.94 331.544C153.94 331.337 154.002 331.162 154.127 331.019C154.256 330.877 154.444 330.805 154.693 330.805C154.937 330.805 155.124 330.877 155.253 331.019C155.386 331.162 155.453 331.337 155.453 331.544C155.453 331.742 155.386 331.913 155.253 332.056C155.124 332.194 154.937 332.263 154.693 332.263C154.444 332.263 154.256 332.194 154.127 332.056C154.002 331.913 153.94 331.742 153.94 331.544ZM159.645 339.847L161.69 333.527H162.995L160.308 341H159.452L159.645 339.847ZM157.939 333.527L160.046 339.881L160.191 341H159.334L156.627 333.527H157.939ZM167.229 341.138C166.709 341.138 166.237 341.051 165.813 340.876C165.394 340.696 165.033 340.445 164.729 340.123C164.43 339.8 164.199 339.418 164.038 338.976C163.877 338.534 163.796 338.051 163.796 337.526V337.236C163.796 336.628 163.886 336.087 164.066 335.613C164.245 335.134 164.489 334.729 164.798 334.397C165.106 334.065 165.456 333.814 165.848 333.644C166.239 333.474 166.644 333.389 167.063 333.389C167.597 333.389 168.058 333.481 168.445 333.665C168.836 333.849 169.156 334.107 169.405 334.438C169.653 334.765 169.838 335.152 169.957 335.599C170.077 336.041 170.137 336.524 170.137 337.049V337.623H164.556V336.58H168.859V336.483C168.841 336.151 168.772 335.829 168.652 335.516C168.537 335.203 168.353 334.945 168.099 334.742C167.846 334.54 167.501 334.438 167.063 334.438C166.773 334.438 166.506 334.501 166.262 334.625C166.018 334.745 165.809 334.924 165.634 335.164C165.459 335.403 165.323 335.695 165.226 336.041C165.129 336.386 165.081 336.784 165.081 337.236V337.526C165.081 337.88 165.129 338.214 165.226 338.527C165.327 338.836 165.472 339.108 165.661 339.342C165.855 339.577 166.087 339.761 166.359 339.895C166.635 340.028 166.948 340.095 167.298 340.095C167.749 340.095 168.132 340.003 168.445 339.819C168.758 339.635 169.032 339.388 169.267 339.08L170.04 339.695C169.879 339.939 169.674 340.171 169.426 340.392C169.177 340.613 168.871 340.793 168.507 340.931C168.148 341.069 167.722 341.138 167.229 341.138ZM172.907 334.701V341H171.629V333.527H172.872L172.907 334.701ZM175.241 333.485L175.234 334.673C175.128 334.65 175.027 334.636 174.93 334.632C174.838 334.623 174.732 334.618 174.613 334.618C174.318 334.618 174.058 334.664 173.832 334.756C173.607 334.848 173.415 334.977 173.259 335.143C173.102 335.309 172.978 335.507 172.886 335.737C172.798 335.963 172.741 336.211 172.713 336.483L172.354 336.69C172.354 336.239 172.398 335.815 172.485 335.419C172.577 335.023 172.718 334.673 172.907 334.369C173.095 334.061 173.335 333.821 173.625 333.651C173.92 333.476 174.27 333.389 174.675 333.389C174.767 333.389 174.873 333.4 174.993 333.423C175.112 333.442 175.195 333.462 175.241 333.485ZM180.774 339.018C180.774 338.834 180.732 338.663 180.649 338.507C180.571 338.345 180.408 338.2 180.159 338.071C179.915 337.938 179.546 337.823 179.054 337.726C178.639 337.639 178.264 337.535 177.928 337.415C177.596 337.296 177.313 337.151 177.078 336.98C176.848 336.81 176.671 336.609 176.547 336.379C176.422 336.149 176.36 335.88 176.36 335.571C176.36 335.276 176.425 334.998 176.553 334.735C176.687 334.473 176.874 334.24 177.113 334.038C177.357 333.835 177.649 333.676 177.99 333.561C178.331 333.446 178.711 333.389 179.13 333.389C179.728 333.389 180.239 333.494 180.663 333.706C181.087 333.918 181.411 334.201 181.637 334.556C181.863 334.906 181.975 335.295 181.975 335.723H180.698C180.698 335.516 180.635 335.316 180.511 335.122C180.391 334.924 180.214 334.761 179.979 334.632C179.749 334.503 179.466 334.438 179.13 334.438C178.775 334.438 178.487 334.494 178.266 334.604C178.05 334.71 177.891 334.846 177.79 335.012C177.693 335.177 177.645 335.352 177.645 335.537C177.645 335.675 177.668 335.799 177.714 335.91C177.765 336.015 177.852 336.114 177.976 336.207C178.101 336.294 178.276 336.377 178.501 336.455C178.727 336.534 179.015 336.612 179.365 336.69C179.977 336.828 180.481 336.994 180.877 337.187C181.273 337.381 181.568 337.618 181.761 337.899C181.955 338.18 182.051 338.52 182.051 338.921C182.051 339.248 181.982 339.547 181.844 339.819C181.711 340.091 181.515 340.325 181.257 340.523C181.004 340.717 180.7 340.869 180.345 340.979C179.995 341.085 179.602 341.138 179.164 341.138C178.506 341.138 177.949 341.021 177.493 340.786C177.037 340.551 176.692 340.247 176.457 339.874C176.222 339.501 176.105 339.108 176.105 338.693H177.389C177.408 339.043 177.509 339.322 177.693 339.529C177.877 339.731 178.103 339.876 178.37 339.964C178.637 340.047 178.902 340.088 179.164 340.088C179.514 340.088 179.807 340.042 180.041 339.95C180.281 339.858 180.463 339.731 180.587 339.57C180.711 339.409 180.774 339.225 180.774 339.018ZM185.118 333.527V341H183.833V333.527H185.118ZM183.737 331.544C183.737 331.337 183.799 331.162 183.923 331.019C184.052 330.877 184.241 330.805 184.49 330.805C184.734 330.805 184.92 330.877 185.049 331.019C185.183 331.162 185.249 331.337 185.249 331.544C185.249 331.742 185.183 331.913 185.049 332.056C184.92 332.194 184.734 332.263 184.49 332.263C184.241 332.263 184.052 332.194 183.923 332.056C183.799 331.913 183.737 331.742 183.737 331.544ZM190.298 333.527V334.507H186.258V333.527H190.298ZM187.625 331.71H188.903V339.149C188.903 339.402 188.942 339.593 189.021 339.722C189.099 339.851 189.2 339.936 189.324 339.978C189.449 340.019 189.582 340.04 189.725 340.04C189.831 340.04 189.941 340.031 190.057 340.012C190.176 339.989 190.266 339.971 190.326 339.957L190.333 341C190.232 341.032 190.098 341.062 189.932 341.09C189.771 341.122 189.575 341.138 189.345 341.138C189.032 341.138 188.744 341.076 188.482 340.952C188.219 340.827 188.01 340.62 187.853 340.33C187.701 340.035 187.625 339.639 187.625 339.142V331.71ZM193.897 340.226L195.976 333.527H197.343L194.346 342.153C194.277 342.338 194.185 342.536 194.069 342.747C193.959 342.964 193.816 343.169 193.641 343.362C193.466 343.556 193.254 343.712 193.006 343.832C192.762 343.956 192.469 344.018 192.129 344.018C192.027 344.018 191.898 344.005 191.742 343.977C191.585 343.949 191.475 343.926 191.41 343.908L191.403 342.872C191.44 342.876 191.498 342.881 191.576 342.886C191.659 342.895 191.717 342.899 191.749 342.899C192.039 342.899 192.285 342.86 192.488 342.782C192.69 342.708 192.861 342.582 192.999 342.402C193.142 342.227 193.264 341.985 193.365 341.677L193.897 340.226ZM192.37 333.527L194.311 339.329L194.643 340.675L193.724 341.145L190.975 333.527H192.37Z" fill="#637173"/>
<path d="M227.665 322.916V324H222.34V322.916H227.665ZM222.609 313.944V324H221.276V313.944H222.609ZM226.961 318.267V319.352H222.34V318.267H226.961ZM227.596 313.944V315.035H222.34V313.944H227.596ZM233.529 322.722V318.875C233.529 318.58 233.469 318.325 233.35 318.108C233.234 317.887 233.059 317.717 232.825 317.597C232.59 317.478 232.3 317.418 231.954 317.418C231.632 317.418 231.349 317.473 231.105 317.583C230.865 317.694 230.677 317.839 230.538 318.019C230.405 318.198 230.338 318.392 230.338 318.599H229.06C229.06 318.332 229.129 318.067 229.268 317.804C229.406 317.542 229.604 317.305 229.862 317.093C230.124 316.877 230.437 316.706 230.801 316.582C231.169 316.453 231.579 316.389 232.03 316.389C232.574 316.389 233.053 316.481 233.467 316.665C233.886 316.849 234.213 317.128 234.448 317.501C234.687 317.869 234.807 318.332 234.807 318.889V322.37C234.807 322.619 234.828 322.883 234.869 323.164C234.915 323.445 234.982 323.687 235.069 323.889V324H233.736C233.672 323.853 233.621 323.657 233.584 323.413C233.548 323.164 233.529 322.934 233.529 322.722ZM233.75 319.469L233.764 320.367H232.472C232.109 320.367 231.784 320.397 231.498 320.457C231.213 320.512 230.974 320.597 230.78 320.712C230.587 320.827 230.439 320.972 230.338 321.147C230.237 321.318 230.186 321.518 230.186 321.748C230.186 321.983 230.239 322.197 230.345 322.391C230.451 322.584 230.61 322.738 230.822 322.853C231.038 322.964 231.303 323.019 231.616 323.019C232.007 323.019 232.353 322.936 232.652 322.771C232.951 322.605 233.188 322.402 233.363 322.163C233.543 321.923 233.64 321.691 233.653 321.465L234.199 322.08C234.167 322.273 234.079 322.487 233.937 322.722C233.794 322.957 233.603 323.183 233.363 323.399C233.128 323.611 232.848 323.788 232.521 323.931C232.198 324.069 231.835 324.138 231.429 324.138C230.923 324.138 230.479 324.039 230.096 323.841C229.719 323.643 229.424 323.378 229.212 323.047C229.005 322.711 228.901 322.335 228.901 321.921C228.901 321.52 228.98 321.168 229.136 320.864C229.293 320.556 229.518 320.3 229.813 320.098C230.108 319.89 230.462 319.734 230.877 319.628C231.291 319.522 231.754 319.469 232.265 319.469H233.75ZM241.168 322.018C241.168 321.834 241.127 321.663 241.044 321.507C240.966 321.345 240.802 321.2 240.553 321.071C240.309 320.938 239.941 320.823 239.448 320.726C239.034 320.639 238.659 320.535 238.323 320.415C237.991 320.296 237.708 320.151 237.473 319.98C237.243 319.81 237.065 319.609 236.941 319.379C236.817 319.149 236.755 318.88 236.755 318.571C236.755 318.276 236.819 317.998 236.948 317.735C237.082 317.473 237.268 317.24 237.507 317.038C237.752 316.835 238.044 316.676 238.385 316.561C238.725 316.446 239.105 316.389 239.524 316.389C240.123 316.389 240.634 316.494 241.058 316.706C241.481 316.918 241.806 317.201 242.032 317.556C242.257 317.906 242.37 318.295 242.37 318.723H241.092C241.092 318.516 241.03 318.316 240.906 318.122C240.786 317.924 240.609 317.761 240.374 317.632C240.144 317.503 239.86 317.438 239.524 317.438C239.17 317.438 238.882 317.494 238.661 317.604C238.445 317.71 238.286 317.846 238.184 318.012C238.088 318.177 238.039 318.352 238.039 318.537C238.039 318.675 238.062 318.799 238.108 318.91C238.159 319.015 238.247 319.114 238.371 319.207C238.495 319.294 238.67 319.377 238.896 319.455C239.121 319.534 239.409 319.612 239.759 319.69C240.372 319.828 240.876 319.994 241.272 320.187C241.668 320.381 241.962 320.618 242.156 320.899C242.349 321.18 242.446 321.52 242.446 321.921C242.446 322.248 242.377 322.547 242.239 322.819C242.105 323.091 241.91 323.325 241.652 323.523C241.398 323.717 241.094 323.869 240.74 323.979C240.39 324.085 239.996 324.138 239.559 324.138C238.9 324.138 238.343 324.021 237.887 323.786C237.432 323.551 237.086 323.247 236.851 322.874C236.616 322.501 236.499 322.108 236.499 321.693H237.784C237.802 322.043 237.903 322.322 238.088 322.529C238.272 322.731 238.497 322.876 238.765 322.964C239.032 323.047 239.296 323.088 239.559 323.088C239.909 323.088 240.201 323.042 240.436 322.95C240.675 322.858 240.857 322.731 240.982 322.57C241.106 322.409 241.168 322.225 241.168 322.018ZM247.253 316.527V317.507H243.213V316.527H247.253ZM244.58 314.71H245.858V322.149C245.858 322.402 245.897 322.593 245.975 322.722C246.054 322.851 246.155 322.936 246.279 322.978C246.404 323.019 246.537 323.04 246.68 323.04C246.786 323.04 246.896 323.031 247.011 323.012C247.131 322.989 247.221 322.971 247.281 322.957L247.288 324C247.186 324.032 247.053 324.062 246.887 324.09C246.726 324.122 246.53 324.138 246.3 324.138C245.987 324.138 245.699 324.076 245.437 323.952C245.174 323.827 244.965 323.62 244.808 323.33C244.656 323.035 244.58 322.639 244.58 322.142V314.71ZM251.853 324.138C251.333 324.138 250.861 324.051 250.437 323.876C250.018 323.696 249.657 323.445 249.353 323.123C249.054 322.8 248.823 322.418 248.662 321.976C248.501 321.534 248.42 321.051 248.42 320.526V320.236C248.42 319.628 248.51 319.087 248.69 318.613C248.869 318.134 249.113 317.729 249.422 317.397C249.73 317.065 250.08 316.814 250.472 316.644C250.863 316.474 251.268 316.389 251.687 316.389C252.222 316.389 252.682 316.481 253.069 316.665C253.46 316.849 253.78 317.107 254.029 317.438C254.278 317.765 254.462 318.152 254.581 318.599C254.701 319.041 254.761 319.524 254.761 320.049V320.623H249.18V319.58H253.483V319.483C253.465 319.151 253.396 318.829 253.276 318.516C253.161 318.203 252.977 317.945 252.723 317.742C252.47 317.54 252.125 317.438 251.687 317.438C251.397 317.438 251.13 317.501 250.886 317.625C250.642 317.745 250.433 317.924 250.258 318.164C250.083 318.403 249.947 318.695 249.85 319.041C249.753 319.386 249.705 319.784 249.705 320.236V320.526C249.705 320.88 249.753 321.214 249.85 321.527C249.951 321.836 250.097 322.108 250.285 322.342C250.479 322.577 250.711 322.761 250.983 322.895C251.259 323.028 251.572 323.095 251.922 323.095C252.374 323.095 252.756 323.003 253.069 322.819C253.382 322.635 253.656 322.388 253.891 322.08L254.664 322.695C254.503 322.939 254.298 323.171 254.05 323.392C253.801 323.613 253.495 323.793 253.131 323.931C252.772 324.069 252.346 324.138 251.853 324.138ZM257.531 317.701V324H256.253V316.527H257.496L257.531 317.701ZM259.865 316.485L259.858 317.673C259.752 317.65 259.651 317.636 259.554 317.632C259.462 317.623 259.356 317.618 259.237 317.618C258.942 317.618 258.682 317.664 258.456 317.756C258.231 317.848 258.039 317.977 257.883 318.143C257.726 318.309 257.602 318.507 257.51 318.737C257.422 318.963 257.365 319.211 257.337 319.483L256.978 319.69C256.978 319.239 257.022 318.815 257.109 318.419C257.201 318.023 257.342 317.673 257.531 317.369C257.719 317.061 257.959 316.821 258.249 316.651C258.544 316.476 258.894 316.389 259.299 316.389C259.391 316.389 259.497 316.4 259.617 316.423C259.736 316.442 259.819 316.462 259.865 316.485ZM262.324 318.122V324H261.046V316.527H262.255L262.324 318.122ZM262.02 319.98L261.488 319.959C261.493 319.448 261.569 318.976 261.716 318.544C261.864 318.106 262.071 317.726 262.338 317.404C262.605 317.082 262.923 316.833 263.291 316.658C263.664 316.478 264.076 316.389 264.527 316.389C264.896 316.389 265.227 316.439 265.522 316.541C265.817 316.637 266.068 316.794 266.275 317.01C266.487 317.227 266.648 317.507 266.758 317.853C266.869 318.194 266.924 318.61 266.924 319.103V324H265.639V319.089C265.639 318.698 265.582 318.385 265.467 318.15C265.352 317.91 265.184 317.738 264.963 317.632C264.742 317.521 264.47 317.466 264.148 317.466C263.83 317.466 263.54 317.533 263.277 317.666C263.019 317.8 262.796 317.984 262.607 318.219C262.423 318.454 262.278 318.723 262.172 319.027C262.071 319.326 262.02 319.644 262.02 319.98ZM218.389 330.944H219.715V337.747C219.715 338.502 219.547 339.131 219.211 339.632C218.875 340.134 218.428 340.512 217.871 340.765C217.319 341.014 216.718 341.138 216.068 341.138C215.387 341.138 214.77 341.014 214.217 340.765C213.669 340.512 213.234 340.134 212.912 339.632C212.594 339.131 212.435 338.502 212.435 337.747V330.944H213.755V337.747C213.755 338.272 213.851 338.705 214.045 339.045C214.238 339.386 214.507 339.639 214.853 339.805C215.203 339.971 215.608 340.054 216.068 340.054C216.533 340.054 216.939 339.971 217.284 339.805C217.634 339.639 217.906 339.386 218.099 339.045C218.292 338.705 218.389 338.272 218.389 337.747V330.944ZM222.892 335.122V341H221.615V333.527H222.823L222.892 335.122ZM222.589 336.98L222.057 336.959C222.061 336.448 222.137 335.976 222.285 335.544C222.432 335.106 222.639 334.726 222.906 334.404C223.173 334.082 223.491 333.833 223.859 333.658C224.232 333.478 224.644 333.389 225.096 333.389C225.464 333.389 225.796 333.439 226.09 333.541C226.385 333.637 226.636 333.794 226.843 334.01C227.055 334.227 227.216 334.507 227.327 334.853C227.437 335.194 227.492 335.61 227.492 336.103V341H226.208V336.089C226.208 335.698 226.15 335.385 226.035 335.15C225.92 334.91 225.752 334.738 225.531 334.632C225.31 334.521 225.038 334.466 224.716 334.466C224.398 334.466 224.108 334.533 223.846 334.666C223.588 334.8 223.364 334.984 223.176 335.219C222.991 335.454 222.846 335.723 222.74 336.027C222.639 336.326 222.589 336.644 222.589 336.98ZM230.822 333.527V341H229.537V333.527H230.822ZM229.44 331.544C229.44 331.337 229.502 331.162 229.627 331.019C229.756 330.877 229.944 330.805 230.193 330.805C230.437 330.805 230.624 330.877 230.753 331.019C230.886 331.162 230.953 331.337 230.953 331.544C230.953 331.742 230.886 331.913 230.753 332.056C230.624 332.194 230.437 332.263 230.193 332.263C229.944 332.263 229.756 332.194 229.627 332.056C229.502 331.913 229.44 331.742 229.44 331.544ZM235.145 339.847L237.19 333.527H238.495L235.808 341H234.952L235.145 339.847ZM233.439 333.527L235.546 339.881L235.691 341H234.834L232.127 333.527H233.439ZM242.729 341.138C242.209 341.138 241.737 341.051 241.313 340.876C240.894 340.696 240.533 340.445 240.229 340.123C239.93 339.8 239.699 339.418 239.538 338.976C239.377 338.534 239.296 338.051 239.296 337.526V337.236C239.296 336.628 239.386 336.087 239.566 335.613C239.745 335.134 239.989 334.729 240.298 334.397C240.606 334.065 240.956 333.814 241.348 333.644C241.739 333.474 242.144 333.389 242.563 333.389C243.097 333.389 243.558 333.481 243.945 333.665C244.336 333.849 244.656 334.107 244.905 334.438C245.153 334.765 245.338 335.152 245.457 335.599C245.577 336.041 245.637 336.524 245.637 337.049V337.623H240.056V336.58H244.359V336.483C244.341 336.151 244.272 335.829 244.152 335.516C244.037 335.203 243.853 334.945 243.599 334.742C243.346 334.54 243.001 334.438 242.563 334.438C242.273 334.438 242.006 334.501 241.762 334.625C241.518 334.745 241.309 334.924 241.134 335.164C240.959 335.403 240.823 335.695 240.726 336.041C240.629 336.386 240.581 336.784 240.581 337.236V337.526C240.581 337.88 240.629 338.214 240.726 338.527C240.827 338.836 240.972 339.108 241.161 339.342C241.355 339.577 241.587 339.761 241.859 339.895C242.135 340.028 242.448 340.095 242.798 340.095C243.249 340.095 243.632 340.003 243.945 339.819C244.258 339.635 244.532 339.388 244.767 339.08L245.54 339.695C245.379 339.939 245.174 340.171 244.926 340.392C244.677 340.613 244.371 340.793 244.007 340.931C243.648 341.069 243.222 341.138 242.729 341.138ZM248.407 334.701V341H247.129V333.527H248.372L248.407 334.701ZM250.741 333.485L250.734 334.673C250.628 334.65 250.527 334.636 250.43 334.632C250.338 334.623 250.232 334.618 250.113 334.618C249.818 334.618 249.558 334.664 249.332 334.756C249.107 334.848 248.915 334.977 248.759 335.143C248.602 335.309 248.478 335.507 248.386 335.737C248.298 335.963 248.241 336.211 248.213 336.483L247.854 336.69C247.854 336.239 247.898 335.815 247.985 335.419C248.077 335.023 248.218 334.673 248.407 334.369C248.595 334.061 248.835 333.821 249.125 333.651C249.42 333.476 249.77 333.389 250.175 333.389C250.267 333.389 250.373 333.4 250.493 333.423C250.612 333.442 250.695 333.462 250.741 333.485ZM256.274 339.018C256.274 338.834 256.232 338.663 256.149 338.507C256.071 338.345 255.908 338.2 255.659 338.071C255.415 337.938 255.046 337.823 254.554 337.726C254.139 337.639 253.764 337.535 253.428 337.415C253.096 337.296 252.813 337.151 252.578 336.98C252.348 336.81 252.171 336.609 252.047 336.379C251.922 336.149 251.86 335.88 251.86 335.571C251.86 335.276 251.925 334.998 252.053 334.735C252.187 334.473 252.374 334.24 252.613 334.038C252.857 333.835 253.149 333.676 253.49 333.561C253.831 333.446 254.211 333.389 254.63 333.389C255.228 333.389 255.739 333.494 256.163 333.706C256.587 333.918 256.911 334.201 257.137 334.556C257.363 334.906 257.475 335.295 257.475 335.723H256.198C256.198 335.516 256.135 335.316 256.011 335.122C255.891 334.924 255.714 334.761 255.479 334.632C255.249 334.503 254.966 334.438 254.63 334.438C254.275 334.438 253.987 334.494 253.766 334.604C253.55 334.71 253.391 334.846 253.29 335.012C253.193 335.177 253.145 335.352 253.145 335.537C253.145 335.675 253.168 335.799 253.214 335.91C253.265 336.015 253.352 336.114 253.476 336.207C253.601 336.294 253.776 336.377 254.001 336.455C254.227 336.534 254.515 336.612 254.865 336.69C255.477 336.828 255.981 336.994 256.377 337.187C256.773 337.381 257.068 337.618 257.261 337.899C257.455 338.18 257.551 338.52 257.551 338.921C257.551 339.248 257.482 339.547 257.344 339.819C257.211 340.091 257.015 340.325 256.757 340.523C256.504 340.717 256.2 340.869 255.845 340.979C255.495 341.085 255.102 341.138 254.664 341.138C254.006 341.138 253.449 341.021 252.993 340.786C252.537 340.551 252.192 340.247 251.957 339.874C251.722 339.501 251.605 339.108 251.605 338.693H252.889C252.908 339.043 253.009 339.322 253.193 339.529C253.377 339.731 253.603 339.876 253.87 339.964C254.137 340.047 254.402 340.088 254.664 340.088C255.014 340.088 255.307 340.042 255.541 339.95C255.781 339.858 255.963 339.731 256.087 339.57C256.211 339.409 256.274 339.225 256.274 339.018ZM260.618 333.527V341H259.333V333.527H260.618ZM259.237 331.544C259.237 331.337 259.299 331.162 259.423 331.019C259.552 330.877 259.741 330.805 259.99 330.805C260.234 330.805 260.42 330.877 260.549 331.019C260.683 331.162 260.749 331.337 260.749 331.544C260.749 331.742 260.683 331.913 260.549 332.056C260.42 332.194 260.234 332.263 259.99 332.263C259.741 332.263 259.552 332.194 259.423 332.056C259.299 331.913 259.237 331.742 259.237 331.544ZM265.798 333.527V334.507H261.758V333.527H265.798ZM263.125 331.71H264.403V339.149C264.403 339.402 264.442 339.593 264.521 339.722C264.599 339.851 264.7 339.936 264.824 339.978C264.949 340.019 265.082 340.04 265.225 340.04C265.331 340.04 265.441 340.031 265.557 340.012C265.676 339.989 265.766 339.971 265.826 339.957L265.833 341C265.732 341.032 265.598 341.062 265.432 341.09C265.271 341.122 265.075 341.138 264.845 341.138C264.532 341.138 264.244 341.076 263.982 340.952C263.719 340.827 263.51 340.62 263.353 340.33C263.201 340.035 263.125 339.639 263.125 339.142V331.71ZM269.397 340.226L271.476 333.527H272.843L269.846 342.153C269.777 342.338 269.685 342.536 269.569 342.747C269.459 342.964 269.316 343.169 269.141 343.362C268.966 343.556 268.754 343.712 268.506 343.832C268.262 343.956 267.969 344.018 267.629 344.018C267.527 344.018 267.398 344.005 267.242 343.977C267.085 343.949 266.975 343.926 266.91 343.908L266.903 342.872C266.94 342.876 266.998 342.881 267.076 342.886C267.159 342.895 267.217 342.899 267.249 342.899C267.539 342.899 267.785 342.86 267.988 342.782C268.19 342.708 268.361 342.582 268.499 342.402C268.642 342.227 268.764 341.985 268.865 341.677L269.397 340.226ZM267.87 333.527L269.811 339.329L270.143 340.675L269.224 341.145L266.475 333.527H267.87Z" fill="#637173"/>
<rect x="65" y="225" width="52" height="83" fill="#B5D94A"/>
<rect x="141" y="267" width="52" height="41" fill="#87D7E3"/>
<path d="M303.65 314.834L300.321 324H298.96L302.793 313.944H303.671L303.65 314.834ZM306.44 324L303.104 314.834L303.083 313.944H303.961L307.808 324H306.44ZM306.268 320.277V321.368H300.618V320.277H306.268ZM311.973 313.944V324H310.66V313.944H311.973ZM315.205 313.944V315.035H307.435V313.944H315.205ZM323.652 314.834L320.323 324H318.962L322.796 313.944H323.673L323.652 314.834ZM326.443 324L323.107 314.834L323.086 313.944H323.963L327.81 324H326.443ZM326.27 320.277V321.368H320.62V320.277H326.27ZM335.256 322.916V324H330.228V322.916H335.256ZM330.49 313.944V324H329.157V313.944H330.49ZM342.881 322.916V324H337.853V322.916H342.881ZM338.115 313.944V324H336.782V313.944H338.115Z" fill="#637173"/>
<rect x="296" y="18" width="53" height="290" fill="#138DFD"/>
<path d="M53.3408 0.908112C53.1283 0.695646 52.7839 0.695646 52.5714 0.908112L49.1091 4.37045C48.8966 4.58292 48.8966 4.92739 49.1091 5.13986C49.3215 5.35232 49.666 5.35232 49.8785 5.13986L52.9561 2.06222L56.0337 5.13986C56.2462 5.35232 56.5907 5.35232 56.8031 5.13986C57.0156 4.92739 57.0156 4.58292 56.8031 4.37045L53.3408 0.908112ZM53.5002 308.139L53.5002 1.29282L52.412 1.29282L52.4121 308.139L53.5002 308.139Z" fill="#637173"/>
<path d="M367.804 308.524C368.016 308.311 368.016 307.967 367.804 307.754L364.342 304.292C364.129 304.08 363.785 304.08 363.572 304.292C363.36 304.505 363.36 304.849 363.572 305.062L366.65 308.139L363.572 311.217C363.36 311.429 363.36 311.774 363.572 311.986C363.785 312.199 364.129 312.199 364.342 311.986L367.804 308.524ZM52.9561 308.683L367.419 308.683L367.419 307.595L52.9561 307.595L52.9561 308.683Z" fill="#637173"/>
</svg>
