<svg width="212" height="45" viewBox="0 0 212 45" fill="none" xmlns="http://www.w3.org/2000/svg">
<path d="M24.296 20.4845C26.096 20.4845 27.416 20.8265 28.256 21.5105C29.108 22.1825 29.534 23.1065 29.534 24.2825C29.534 25.0265 29.354 25.6985 28.994 26.2985C28.646 26.8865 28.112 27.3545 27.392 27.7025C26.684 28.0385 25.808 28.2065 24.764 28.2065C23.876 28.2065 23.018 28.0745 22.19 27.8105C21.362 27.5345 20.678 27.1565 20.138 26.6765L20.966 25.2545C21.398 25.6625 21.95 25.9925 22.622 26.2445C23.294 26.4845 24.002 26.6045 24.746 26.6045C25.694 26.6045 26.426 26.4065 26.942 26.0105C27.47 25.6025 27.734 25.0505 27.734 24.3545C27.734 23.5985 27.446 23.0285 26.87 22.6445C26.294 22.2485 25.31 22.0505 23.918 22.0505H21.056L21.722 15.4625H28.832V17.0285H23.234L22.892 20.4845H24.296Z" fill="#2F2F2F"/>
<path d="M5 8.0625H45V6.0625H5V8.0625ZM49 12.0625V32.0625H51V12.0625H49ZM45 36.0625H5V38.0625H45V36.0625ZM1 32.0625V12.0625H-1V32.0625H1ZM5 36.0625C2.79086 36.0625 1 34.2716 1 32.0625H-1C-1 35.3762 1.68629 38.0625 5 38.0625V36.0625ZM49 32.0625C49 34.2716 47.2091 36.0625 45 36.0625V38.0625C48.3137 38.0625 51 35.3762 51 32.0625H49ZM45 8.0625C47.2091 8.0625 49 9.85336 49 12.0625H51C51 8.74879 48.3137 6.0625 45 6.0625V8.0625ZM5 6.0625C1.68629 6.0625 -1 8.74879 -1 12.0625H1C1 9.85336 2.79086 8.0625 5 8.0625V6.0625Z" fill="#2F2F2F"/>
<path d="M73.5634 23.9025H67.0114V30.3465H63.9874V23.9025H57.4354V21.0585H63.9874V14.5785H67.0114V21.0585H73.5634V23.9025Z" fill="#2F2F2F"/>
<path d="M111.805 24.9665H109.411V28.0625H107.665V24.9665H100.663V23.7065L107.107 15.4625H109.051L102.877 23.4185H107.719V20.6825H109.411V23.4185H111.805V24.9665Z" fill="#2F2F2F"/>
<path d="M86 8.0625H126V6.0625H86V8.0625ZM130 12.0625V32.0625H132V12.0625H130ZM126 36.0625H86V38.0625H126V36.0625ZM82 32.0625V12.0625H80V32.0625H82ZM86 36.0625C83.7909 36.0625 82 34.2716 82 32.0625H80C80 35.3762 82.6863 38.0625 86 38.0625V36.0625ZM130 32.0625C130 34.2716 128.209 36.0625 126 36.0625V38.0625C129.314 38.0625 132 35.3762 132 32.0625H130ZM126 8.0625C128.209 8.0625 130 9.85336 130 12.0625H132C132 8.74879 129.314 6.0625 126 6.0625V8.0625ZM86 6.0625C82.6863 6.0625 80 8.74879 80 12.0625H82C82 9.85336 83.7909 8.0625 86 8.0625V6.0625Z" fill="#2F2F2F"/>
<path d="M138.435 16.7745H154.563V19.6185H138.435V16.7745ZM138.435 25.3065H154.563V28.1505H138.435V25.3065Z" fill="#2F2F2F"/>
<path d="M186.395 15.3185C188.087 15.3185 189.389 15.8645 190.301 16.9565C191.225 18.0485 191.687 19.5965 191.687 21.6005C191.687 23.0045 191.435 24.2045 190.931 25.2005C190.439 26.1845 189.743 26.9345 188.843 27.4505C187.955 27.9545 186.917 28.2065 185.729 28.2065C185.117 28.2065 184.541 28.1465 184.001 28.0265C183.461 27.8945 182.993 27.7085 182.597 27.4685L183.281 26.0645C183.893 26.4605 184.703 26.6585 185.711 26.6585C187.019 26.6585 188.039 26.2565 188.771 25.4525C189.515 24.6365 189.887 23.4545 189.887 21.9065V21.4565C189.527 21.9965 189.029 22.4105 188.393 22.6985C187.757 22.9745 187.043 23.1125 186.251 23.1125C185.423 23.1125 184.679 22.9565 184.019 22.6445C183.371 22.3325 182.861 21.8885 182.489 21.3125C182.129 20.7245 181.949 20.0525 181.949 19.2965C181.949 18.5045 182.141 17.8085 182.525 17.2085C182.921 16.6085 183.455 16.1465 184.127 15.8225C184.799 15.4865 185.555 15.3185 186.395 15.3185ZM186.557 21.6545C187.121 21.6545 187.625 21.5465 188.069 21.3305C188.513 21.1145 188.855 20.8205 189.095 20.4485C189.347 20.0765 189.473 19.6625 189.473 19.2065C189.473 18.7625 189.353 18.3605 189.113 18.0005C188.885 17.6285 188.543 17.3345 188.087 17.1185C187.643 16.8905 187.103 16.7765 186.467 16.7765C185.639 16.7765 184.967 16.9985 184.451 17.4425C183.947 17.8865 183.695 18.4805 183.695 19.2245C183.695 19.9685 183.953 20.5625 184.469 21.0065C184.985 21.4385 185.681 21.6545 186.557 21.6545Z" fill="#2F2F2F"/>
<path d="M167 8.0625H207V6.0625H167V8.0625ZM211 12.0625V32.0625H213V12.0625H211ZM207 36.0625H167V38.0625H207V36.0625ZM163 32.0625V12.0625H161V32.0625H163ZM167 36.0625C164.791 36.0625 163 34.2716 163 32.0625H161C161 35.3762 163.686 38.0625 167 38.0625V36.0625ZM211 32.0625C211 34.2716 209.209 36.0625 207 36.0625V38.0625C210.314 38.0625 213 35.3762 213 32.0625H211ZM207 8.0625C209.209 8.0625 211 9.85336 211 12.0625H213C213 8.74879 210.314 6.0625 207 6.0625V8.0625ZM167 6.0625C163.686 6.0625 161 8.74879 161 12.0625H163C163 9.85336 164.791 8.0625 167 8.0625V6.0625Z" fill="#2F2F2F"/>
</svg>
