<svg width="144" height="85" viewBox="0 0 144 85" fill="none" xmlns="http://www.w3.org/2000/svg">
<g clip-path="url(#clip0_5619_100467)">
<path d="M2.52976 62.2326L2.65625 63.371C3.1622 66.0273 5.18601 67.5451 5.94494 67.9246L6.32441 68.0511L7.58929 68.81L33.6458 83.4826L34.9107 84.2415C38.8318 86.2654 41.6146 83.7356 42.5 82.5972L60.3348 55.4023C61.7262 52.746 61.9792 50.5957 61.9792 50.5957L64.6354 27.1954L64.7619 25.8041C64.7619 23.7802 64.3824 20.618 60.5878 18.4677L29.2188 0.379947C27.8274 -0.126005 24.1592 -0.758445 21.6295 3.41566C21.6295 3.54215 21.6295 3.54215 21.503 3.79513L1.77083 33.8993C0.885417 35.5436 0 38.0734 0 40.6032L0.126488 41.868V41.9945L2.52976 62.2326C2.52976 62.1061 2.52976 62.1061 2.52976 62.2326Z" fill="#1B99F4"/>
<path d="M3.28869 63.4972L1.26488 44.3975C1.39137 39.2115 6.32441 41.8677 6.32441 41.8677L32.8869 57.6787C39.3378 61.5999 38.9583 66.1534 38.9583 66.1534L38.5789 81.079C37.6935 85.2531 33.5193 83.2293 33.5193 83.2293L34.7842 83.9883C38.7054 86.0121 41.4881 83.4823 42.3735 82.3439L60.2083 55.149C61.5997 52.4927 61.8527 50.3424 61.8527 50.3424L64.5089 26.9421L64.6354 25.5507C64.6354 23.7799 63.9304 20.73 60.5152 18.5797C61.6536 19.3386 63.497 20.7442 62.2321 23.1475L44.7768 51.1013C44.7768 51.1013 40.2232 59.0701 33.0134 54.896L6.83036 40.2234C6.83036 40.2234 0.126488 37.1876 4.42708 31.3692L23.2738 2.15045C23.2738 2.15045 24.6652 -0.252829 27.8274 0.000147438C26.0565 -0.126341 23.6533 0.126635 21.756 3.41533C21.756 3.54181 21.756 3.54181 21.6295 3.79479L1.77083 33.899C0.885417 35.5433 0 38.0731 0 40.6028L0.126488 41.8677V41.9942L2.52976 62.1058C2.52976 62.1058 2.52976 62.1058 2.52976 62.2323L2.65625 63.3707C3.1622 66.0269 5.18601 67.5448 5.94494 67.9243L6.32441 68.0507L7.08333 68.4302C3.79464 66.4064 3.28869 63.4972 3.28869 63.4972ZM44.1443 55.7814C44.1443 55.7814 59.8289 30.3573 62.7381 26.1832C65.3943 22.2621 64.3824 28.5865 64.3824 28.5865L64.256 29.3454C64.256 29.3454 62.2321 47.9391 61.8527 50.5954C61.3467 53.6311 60.0819 55.4019 60.0819 55.4019L43.7649 80.0671C40.8557 84.8737 41.1086 81.4585 41.1086 81.4585V65.9005C40.7292 61.2204 44.1443 55.7814 44.1443 55.7814Z" fill="url(#paint0_radial_5619_100467)"/>
<path d="M40.7291 81.5847C40.7291 81.5847 40.6026 84.9999 43.3853 80.1933L59.5758 55.5282C59.5758 55.5282 60.9672 53.7573 61.3466 50.7216C61.7261 48.0654 63.7499 29.4716 63.7499 29.4716L63.8764 28.7127C63.8764 28.7127 65.1413 22.3883 62.232 26.3094C59.4493 30.357 43.7648 55.7811 43.7648 55.7811C43.7648 55.7811 40.3496 61.2201 40.4761 65.9002L40.7291 81.5847Z" fill="url(#paint1_radial_5619_100467)"/>
<g opacity="0.5">
<path opacity="0.5" d="M17.962 67.1642C15.8117 65.1403 14.9262 62.6106 15.9381 61.5987C17.0765 60.4603 19.7328 61.2192 21.8831 62.9901C24.0334 64.7609 24.9188 67.5436 23.9069 68.5555C22.895 69.8204 20.1122 69.0615 17.962 67.1642Z" fill="white"/>
</g>
<path d="M64.5086 25.678L63.3703 37.8208L64.6351 27.1958L64.7616 25.8045C64.7616 23.7806 64.3822 20.6184 60.5875 18.4681L38.7051 5.81934C39.464 6.1988 57.4253 16.6973 60.8405 18.9741C64.7616 21.6303 64.5086 25.678 64.5086 25.678Z" fill="url(#paint2_linear_5619_100467)"/>
<path opacity="0.75" d="M30.7368 54.6437C33.2666 56.035 40.0969 58.9442 31.4957 54.2642L12.2695 43.5127C12.396 43.5127 16.6966 47.3073 30.7368 54.6437Z" fill="url(#paint3_radial_5619_100467)"/>
<g opacity="0.5">
<path opacity="0.5" d="M45.4087 60.2093C44.6497 59.8298 45.2822 57.5531 46.6735 54.7703C48.0649 52.2406 49.7092 50.4697 50.4682 50.5962C51.2271 50.9757 50.5947 53.2525 49.2033 56.0352C47.6854 58.8179 45.9146 60.5888 45.4087 60.2093Z" fill="#00FFFF"/>
<path opacity="0.9" d="M45.4086 60.0832C44.9026 59.7037 45.4086 57.4269 46.7999 54.8972C48.1913 52.3674 49.8356 50.5966 50.3416 50.976C50.8475 51.3555 50.3416 53.6323 48.9502 56.162C47.5589 58.6918 45.9145 60.4626 45.4086 60.0832Z" fill="url(#paint4_linear_5619_100467)"/>
</g>
<g opacity="0.5">
<path opacity="0.5" d="M49.8354 59.5754C49.0764 59.1959 49.8354 56.9191 51.2267 54.3893C52.6181 51.8596 54.5154 50.0888 55.1479 50.4682C55.9068 50.8477 55.1479 53.1245 53.7565 55.6542C52.2386 58.0575 50.3413 59.9548 49.8354 59.5754Z" fill="#00FFFF"/>
<path opacity="0.9" d="M49.8356 59.3224C49.3296 58.943 49.9621 56.6662 51.4799 54.1364C52.8713 51.6067 54.5157 49.8358 55.2746 50.2153C55.7805 50.5947 55.1481 52.8715 53.6302 55.4013C52.2389 57.931 50.3415 59.7019 49.8356 59.3224Z" fill="url(#paint5_linear_5619_100467)"/>
</g>
<g opacity="0.5">
<path opacity="0.5" d="M54.3901 59.1966C53.6311 58.8171 54.3901 56.5403 55.7814 54.1371C57.1728 51.6073 58.8171 49.963 59.5761 50.3424C60.335 50.7219 59.5761 52.9987 58.1847 55.4019C56.6668 57.6787 54.896 59.5761 54.3901 59.1966Z" fill="#00FFFF"/>
<path opacity="0.5" d="M54.3901 59.1966C53.6311 58.8171 54.3901 56.5403 55.7814 54.1371C57.1728 51.6073 58.8171 49.963 59.5761 50.3424C60.335 50.7219 59.5761 52.9987 58.1847 55.4019C56.6668 57.6787 54.896 59.5761 54.3901 59.1966Z" fill="#00FFFF"/>
<path opacity="0.9" d="M54.3895 58.9425C53.8836 58.5631 54.516 56.4128 55.7809 54.136C57.1722 51.7327 58.8166 49.9619 59.3225 50.3414C59.8285 50.7208 59.1961 52.8711 57.9312 55.1479C56.5398 57.6777 54.8955 59.322 54.3895 58.9425Z" fill="url(#paint6_linear_5619_100467)"/>
</g>
<path d="M42.5004 26.0575C29.3457 29.0932 16.0644 32.1289 3.03613 35.7971C3.4156 38.8328 6.83078 40.4771 6.83078 40.4771L32.8873 55.2762C40.0971 59.4503 44.6507 51.4816 44.6507 51.4816L62.2326 23.5277C62.612 22.7688 62.7385 22.1363 62.7385 21.5039C56.0346 22.7688 49.3308 24.4131 42.5004 26.0575Z" fill="url(#paint7_radial_5619_100467)"/>
<path opacity="0.9" d="M42.4994 26.0575C29.3447 29.0932 16.0634 32.1289 3.03516 35.7971C3.41462 38.8328 6.8298 40.4771 6.8298 40.4771L32.8863 55.2762C40.0962 59.4503 44.6497 51.4816 44.6497 51.4816L62.2316 23.5277C62.611 22.7688 62.7375 22.1363 62.7375 21.5039C56.0337 22.7688 49.3298 24.4131 42.4994 26.0575Z" fill="url(#paint8_radial_5619_100467)"/>
<path d="M29.7246 32.2548C27.3214 30.484 27.0684 27.1953 28.8392 24.6656C30.6101 22.2623 34.2782 21.7563 36.555 23.5272C38.9583 25.298 39.2113 28.5867 37.4404 31.1165C35.4166 33.5197 32.0014 34.1522 29.7246 32.2548Z" fill="white"/>
<path d="M40.8556 63.4966C40.8556 63.4966 40.0967 58.9431 47.686 49.8359C47.686 49.8359 38.5789 58.0577 40.8556 63.4966Z" fill="url(#paint9_radial_5619_100467)"/>
<path d="M38.1986 62.7385C38.1986 62.7385 36.8072 58.4379 25.8027 53.5049C25.8027 53.6314 37.8191 56.6671 38.1986 62.7385Z" fill="url(#paint10_radial_5619_100467)"/>
<path d="M0.505906 40.0959L1.6443 52.2388L0.379418 41.6138L0.25293 40.2224C0.25293 38.1986 0.632394 35.6688 4.04757 30.9887L14.5461 15.1777C13.7872 15.5572 6.32436 28.712 3.41513 32.8861C0.379418 36.6807 0.505906 40.0959 0.505906 40.0959Z" fill="url(#paint11_linear_5619_100467)"/>
<path d="M38.8319 65.9004L38.7055 80.1936C38.7055 79.9406 38.579 74.3751 38.8319 65.9004Z" fill="url(#paint12_linear_5619_100467)"/>
<path d="M26.3106 18.5937C23.9073 16.8229 23.6543 13.5342 25.4252 11.0044C27.449 8.60115 30.8642 8.0952 33.1409 9.86604C35.5442 11.6369 35.7972 14.9256 34.0264 17.4553C32.0025 19.8586 28.5874 20.2381 26.3106 18.5937Z" fill="white"/>
<path d="M32.8868 45.789C30.4835 44.0182 30.2305 40.7295 32.0013 38.1997C34.0251 35.7965 37.4403 35.2905 39.7171 37.0613C42.1204 38.8322 42.3734 42.1209 40.6025 44.6506C38.7052 47.0539 35.29 47.6864 32.8868 45.789Z" fill="white"/>
<path d="M13.6602 35.7951C11.2569 34.0242 11.0039 30.7355 12.7748 28.2058C14.5456 25.676 18.2138 25.2965 20.4905 27.0674C22.8938 28.8382 23.1468 32.1269 21.376 34.6567C19.6051 37.06 16.0635 37.5659 13.6602 35.7951Z" fill="white"/>
<path d="M45.6621 28.3339C43.2589 26.5631 43.0059 23.2744 44.7767 20.7447C46.8005 18.3414 50.2157 17.8354 52.4925 19.6063C54.8958 21.3771 55.1487 24.6658 53.3779 27.1956C51.4806 29.8518 48.0654 30.1048 45.6621 28.3339Z" fill="white"/>
</g>
<g clip-path="url(#clip1_5619_100467)">
<path d="M80.9751 62.2326L81.1016 63.371C81.6075 66.0273 83.6313 67.5451 84.3903 67.9246L84.7697 68.0511L86.0346 68.81L112.091 83.4826L113.356 84.2415C117.277 86.2654 120.06 83.7356 120.945 82.5972L138.78 55.4023C140.172 52.746 140.424 50.5957 140.424 50.5957L143.081 27.1954L143.207 25.8041C143.207 23.7802 142.828 20.618 139.033 18.4677L107.664 0.379947C106.273 -0.126005 102.605 -0.758445 100.075 3.41566C100.075 3.54215 100.075 3.54215 99.9483 3.79513L80.2161 33.8993C79.3307 35.5436 78.4453 38.0734 78.4453 40.6032L78.5718 41.868V41.9945L80.9751 62.2326C80.9751 62.1061 80.9751 62.1061 80.9751 62.2326Z" fill="#1B99F4"/>
<path d="M81.734 63.4972L79.7102 44.3975C79.8367 39.2115 84.7697 41.8677 84.7697 41.8677L111.332 57.6787C117.783 61.5999 117.404 66.1534 117.404 66.1534L117.024 81.079C116.139 85.2531 111.965 83.2293 111.965 83.2293L113.23 83.9883C117.151 86.0121 119.933 83.4823 120.819 82.3439L138.654 55.149C140.045 52.4927 140.298 50.3424 140.298 50.3424L142.954 26.9421L143.081 25.5507C143.081 23.7799 142.376 20.73 138.961 18.5797C140.099 19.3386 141.942 20.7442 140.677 23.1475L123.222 51.1013C123.222 51.1013 118.669 59.0701 111.459 54.896L85.2757 40.2234C85.2757 40.2234 78.5718 37.1876 82.8724 31.3692L101.719 2.15045C101.719 2.15045 103.11 -0.252829 106.273 0.000147438C104.502 -0.126341 102.099 0.126635 100.201 3.41533C100.201 3.54181 100.201 3.54181 100.075 3.79479L80.2161 33.899C79.3307 35.5433 78.4453 38.0731 78.4453 40.6028L78.5718 41.8677V41.9942L80.9751 62.1058C80.9751 62.1058 80.9751 62.1058 80.9751 62.2323L81.1016 63.3707C81.6075 66.0269 83.6313 67.5448 84.3903 67.9243L84.7697 68.0507L85.5286 68.4302C82.24 66.4064 81.734 63.4972 81.734 63.4972ZM122.59 55.7814C122.59 55.7814 138.274 30.3573 141.183 26.1832C143.84 22.2621 142.828 28.5865 142.828 28.5865L142.701 29.3454C142.701 29.3454 140.677 47.9391 140.298 50.5954C139.792 53.6311 138.527 55.4019 138.527 55.4019L122.21 80.0671C119.301 84.8737 119.554 81.4585 119.554 81.4585V65.9005C119.174 61.2204 122.59 55.7814 122.59 55.7814Z" fill="url(#paint13_radial_5619_100467)"/>
<path d="M119.174 81.5847C119.174 81.5847 119.048 84.9999 121.831 80.1933L138.021 55.5282C138.021 55.5282 139.412 53.7573 139.792 50.7216C140.171 48.0654 142.195 29.4716 142.195 29.4716L142.322 28.7127C142.322 28.7127 143.587 22.3883 140.677 26.3094C137.895 30.357 122.21 55.7811 122.21 55.7811C122.21 55.7811 118.795 61.2201 118.921 65.9002L119.174 81.5847Z" fill="url(#paint14_radial_5619_100467)"/>
<g opacity="0.5">
<path opacity="0.5" d="M96.4073 67.1642C94.257 65.1403 93.3715 62.6106 94.3835 61.5987C95.5218 60.4603 98.1781 61.2192 100.328 62.9901C102.479 64.7609 103.364 67.5436 102.352 68.5555C101.34 69.8204 98.5576 69.0615 96.4073 67.1642Z" fill="white"/>
</g>
<path d="M142.954 25.678L141.816 37.8208L143.08 27.1958L143.207 25.8045C143.207 23.7806 142.827 20.6184 139.033 18.4681L117.15 5.81934C117.909 6.1988 135.871 16.6973 139.286 18.9741C143.207 21.6303 142.954 25.678 142.954 25.678Z" fill="url(#paint15_linear_5619_100467)"/>
<path opacity="0.75" d="M109.182 54.6437C111.712 56.035 118.542 58.9442 109.941 54.2642L90.7148 43.5127C90.8413 43.5127 95.1419 47.3073 109.182 54.6437Z" fill="url(#paint16_radial_5619_100467)"/>
<g opacity="0.5">
<path opacity="0.5" d="M123.854 60.2093C123.095 59.8298 123.727 57.5531 125.119 54.7703C126.51 52.2406 128.155 50.4697 128.913 50.5962C129.672 50.9757 129.04 53.2525 127.649 56.0352C126.131 58.8179 124.36 60.5888 123.854 60.2093Z" fill="#00FFFF"/>
<path opacity="0.9" d="M123.854 60.0832C123.348 59.7037 123.854 57.4269 125.245 54.8972C126.637 52.3674 128.281 50.5966 128.787 50.976C129.293 51.3555 128.787 53.6323 127.396 56.162C126.004 58.6918 124.36 60.4626 123.854 60.0832Z" fill="url(#paint17_linear_5619_100467)"/>
</g>
<g opacity="0.5">
<path opacity="0.5" d="M128.281 59.5754C127.522 59.1959 128.281 56.9191 129.672 54.3893C131.063 51.8596 132.961 50.0888 133.593 50.4682C134.352 50.8477 133.593 53.1245 132.202 55.6542C130.684 58.0575 128.787 59.9548 128.281 59.5754Z" fill="#00FFFF"/>
<path opacity="0.9" d="M128.281 59.3224C127.775 58.943 128.407 56.6662 129.925 54.1364C131.317 51.6067 132.961 49.8358 133.72 50.2153C134.226 50.5947 133.593 52.8715 132.076 55.4013C130.684 57.931 128.787 59.7019 128.281 59.3224Z" fill="url(#paint18_linear_5619_100467)"/>
</g>
<g opacity="0.5">
<path opacity="0.5" d="M132.835 59.1966C132.076 58.8171 132.835 56.5403 134.227 54.1371C135.618 51.6073 137.262 49.963 138.021 50.3424C138.78 50.7219 138.021 52.9987 136.63 55.4019C135.112 57.6787 133.341 59.5761 132.835 59.1966Z" fill="#00FFFF"/>
<path opacity="0.5" d="M132.835 59.1966C132.076 58.8171 132.835 56.5403 134.227 54.1371C135.618 51.6073 137.262 49.963 138.021 50.3424C138.78 50.7219 138.021 52.9987 136.63 55.4019C135.112 57.6787 133.341 59.5761 132.835 59.1966Z" fill="#00FFFF"/>
<path opacity="0.9" d="M132.835 58.9425C132.329 58.5631 132.961 56.4128 134.226 54.136C135.618 51.7327 137.262 49.9619 137.768 50.3414C138.274 50.7208 137.641 52.8711 136.376 55.1479C134.985 57.6777 133.341 59.322 132.835 58.9425Z" fill="url(#paint19_linear_5619_100467)"/>
</g>
<path d="M120.946 26.0575C107.791 29.0932 94.5097 32.1289 81.4814 35.7971C81.8609 38.8328 85.2761 40.4771 85.2761 40.4771L111.333 55.2762C118.542 59.4503 123.096 51.4816 123.096 51.4816L140.678 23.5277C141.057 22.7688 141.184 22.1363 141.184 21.5039C134.48 22.7688 127.776 24.4131 120.946 26.0575Z" fill="url(#paint20_radial_5619_100467)"/>
<path opacity="0.9" d="M120.945 26.0575C107.79 29.0932 94.5087 32.1289 81.4805 35.7971C81.8599 38.8328 85.2751 40.4771 85.2751 40.4771L111.332 55.2762C118.541 59.4503 123.095 51.4816 123.095 51.4816L140.677 23.5277C141.056 22.7688 141.183 22.1363 141.183 21.5039C134.479 22.7688 127.775 24.4131 120.945 26.0575Z" fill="url(#paint21_radial_5619_100467)"/>
<path d="M119.301 63.4966C119.301 63.4966 118.542 58.9431 126.131 49.8359C126.131 49.8359 117.024 58.0577 119.301 63.4966Z" fill="url(#paint22_radial_5619_100467)"/>
<path d="M116.644 62.7385C116.644 62.7385 115.253 58.4379 104.248 53.5049C104.248 53.6314 116.264 56.6671 116.644 62.7385Z" fill="url(#paint23_radial_5619_100467)"/>
<path d="M78.9512 40.0959L80.0896 52.2388L78.8247 41.6138L78.6982 40.2224C78.6982 38.1986 79.0777 35.6688 82.4929 30.9887L92.9914 15.1777C92.2325 15.5572 84.7697 28.712 81.8604 32.8861C78.8247 36.6807 78.9512 40.0959 78.9512 40.0959Z" fill="url(#paint24_linear_5619_100467)"/>
<path d="M117.277 65.9004L117.151 80.1936C117.151 79.9406 117.024 74.3751 117.277 65.9004Z" fill="url(#paint25_linear_5619_100467)"/>
<path d="M104.756 18.5937C102.353 16.8229 102.1 13.5342 103.87 11.0044C105.894 8.60115 109.309 8.0952 111.586 9.86604C113.99 11.6369 114.243 14.9256 112.472 17.4553C110.448 19.8586 107.033 20.2381 104.756 18.5937Z" fill="white"/>
<path d="M111.332 45.789C108.929 44.0182 108.676 40.7295 110.447 38.1997C112.47 35.7965 115.886 35.2905 118.162 37.0613C120.566 38.8322 120.819 42.1209 119.048 44.6506C117.151 47.0539 113.735 47.6864 111.332 45.789Z" fill="white"/>
<path d="M92.1055 35.7951C89.7022 34.0242 89.4493 30.7355 91.2201 28.2058C92.9909 25.676 96.6591 25.2965 98.9359 27.0674C101.339 28.8382 101.592 32.1269 99.8213 34.6567C98.0504 37.06 94.5088 37.5659 92.1055 35.7951Z" fill="white"/>
<path d="M124.107 28.3339C121.704 26.5631 121.451 23.2744 123.222 20.7447C125.246 18.3414 128.661 17.8354 130.938 19.6063C133.341 21.3771 133.594 24.6658 131.823 27.1956C129.926 29.8518 126.511 30.1048 124.107 28.3339Z" fill="white"/>
</g>
<defs>
<radialGradient id="paint0_radial_5619_100467" cx="0" cy="0" r="1" gradientUnits="userSpaceOnUse" gradientTransform="translate(43.2642 25.9374) rotate(-0.147531) scale(72.8503 71.3567)">
<stop stop-color="#0CAADC"/>
<stop offset="0.3069" stop-color="#4FC7F7"/>
<stop offset="0.452" stop-color="#20BBFA"/>
<stop offset="0.5261" stop-color="#00B6FF"/>
<stop offset="0.5842" stop-color="#38C6FF"/>
<stop offset="0.6339" stop-color="#00B6FF"/>
<stop offset="0.6779" stop-color="#00B6FF"/>
<stop offset="0.6848" stop-color="#00B6FF"/>
<stop offset="0.7992" stop-color="#0A93CB"/>
<stop offset="0.9338" stop-color="#048CC7"/>
<stop offset="0.9939" stop-color="#0771A0"/>
</radialGradient>
<radialGradient id="paint1_radial_5619_100467" cx="0" cy="0" r="1" gradientUnits="userSpaceOnUse" gradientTransform="translate(18.2832 36.1168) rotate(-0.147496) scale(72.8184 71.3255)">
<stop stop-color="#057ACE"/>
<stop offset="0.1022" stop-color="#0D6AD8"/>
<stop offset="0.3658" stop-color="#3657C9"/>
<stop offset="0.666667" stop-color="#0C76AF"/>
<stop offset="0.8487" stop-color="#0982CC"/>
<stop offset="0.9018" stop-color="#0E74B9"/>
</radialGradient>
<linearGradient id="paint2_linear_5619_100467" x1="62.8923" y1="12.7391" x2="57.4263" y2="16.9003" gradientUnits="userSpaceOnUse">
<stop stop-color="#00EEFF"/>
<stop offset="0.1022" stop-color="#00E0FF"/>
<stop offset="0.3658" stop-color="#00C2FF"/>
<stop offset="0.5137" stop-color="#00B6FF"/>
<stop offset="0.5994" stop-color="#00B6FF"/>
<stop offset="0.7282" stop-color="#00B6FF"/>
<stop offset="0.8834" stop-color="#00B6FF"/>
<stop offset="0.9018" stop-color="#00B6FF"/>
</linearGradient>
<radialGradient id="paint3_radial_5619_100467" cx="0" cy="0" r="1" gradientUnits="userSpaceOnUse" gradientTransform="translate(27.8054 48.1045) rotate(120.478) scale(17.2856 17.461)">
<stop offset="0.2945" stop-color="#00DBFF"/>
<stop offset="0.4113" stop-color="#00D3FF"/>
<stop offset="0.5905" stop-color="#00BEFF"/>
<stop offset="0.6442" stop-color="#00B6FF"/>
</radialGradient>
<linearGradient id="paint4_linear_5619_100467" x1="49.9714" y1="56.306" x2="46.5991" y2="54.9795" gradientUnits="userSpaceOnUse">
<stop offset="0.0429448" stop-color="#00A3FF"/>
<stop offset="0.2817" stop-color="#00B2FF"/>
<stop offset="0.5206" stop-color="#00A3FF"/>
<stop offset="0.6612" stop-color="#00A3FF"/>
</linearGradient>
<linearGradient id="paint5_linear_5619_100467" x1="54.6131" y1="55.6257" x2="51.2734" y2="54.2203" gradientUnits="userSpaceOnUse">
<stop offset="0.0429448" stop-color="#00C2FF"/>
<stop offset="0.1629" stop-color="#00A3FF"/>
<stop offset="0.3577" stop-color="#00C2FF"/>
<stop offset="0.5302" stop-color="#0085FF"/>
<stop offset="0.6612" stop-color="#0094FF"/>
</linearGradient>
<linearGradient id="paint6_linear_5619_100467" x1="58.8919" y1="55.5218" x2="55.6839" y2="54.1619" gradientUnits="userSpaceOnUse">
<stop offset="0.0429448" stop-color="#00A3FF"/>
<stop offset="0.2817" stop-color="#00A3FF"/>
<stop offset="0.5206" stop-color="#00A3FF"/>
</linearGradient>
<radialGradient id="paint7_radial_5619_100467" cx="0" cy="0" r="1" gradientUnits="userSpaceOnUse" gradientTransform="translate(36.5123 64.1436) rotate(-0.14753) scale(95.4475 93.4906)">
<stop stop-color="white"/>
<stop offset="0.5539"/>
</radialGradient>
<radialGradient id="paint8_radial_5619_100467" cx="0" cy="0" r="1" gradientUnits="userSpaceOnUse" gradientTransform="translate(36.5114 64.1436) rotate(-0.14753) scale(95.4475 93.4906)">
<stop stop-color="#1865DA"/>
<stop offset="0.557292" stop-color="#0482F5"/>
<stop offset="0.807292" stop-color="#4EA7FA"/>
</radialGradient>
<radialGradient id="paint9_radial_5619_100467" cx="0" cy="0" r="1" gradientUnits="userSpaceOnUse" gradientTransform="translate(46.668 57.8474) rotate(124.375) scale(12.1846 13.4641)">
<stop offset="0.0122699" stop-color="#00A3FF"/>
<stop offset="0.416667" stop-color="#60E2FF"/>
<stop offset="0.5951" stop-color="#00B6FF"/>
</radialGradient>
<radialGradient id="paint10_radial_5619_100467" cx="0" cy="0" r="1" gradientUnits="userSpaceOnUse" gradientTransform="translate(30.4136 60.2209) rotate(28.7209) scale(12.3008 13.3431)">
<stop offset="0.0122699" stop-color="#00FFFF"/>
<stop offset="0.0534677" stop-color="#00FFFF"/>
<stop offset="0.1328" stop-color="#00FFFF"/>
<stop offset="0.2077" stop-color="#00FFFF"/>
<stop offset="0.2762" stop-color="#00FFFF"/>
<stop offset="0.3359" stop-color="#00F4FF"/>
<stop offset="0.3804" stop-color="#00EEFF"/>
<stop offset="0.4108" stop-color="#00E4FF"/>
<stop offset="0.5301" stop-color="#00C3FF"/>
<stop offset="0.5951" stop-color="#00B6FF"/>
</radialGradient>
<linearGradient id="paint11_linear_5619_100467" x1="-4.77902" y1="30.2034" x2="3.7502" y2="32.4515" gradientUnits="userSpaceOnUse">
<stop stop-color="#00EEFF"/>
<stop offset="0.1022" stop-color="#00E0FF"/>
<stop offset="0.3658" stop-color="#00C2FF"/>
<stop offset="0.5137" stop-color="#00B6FF"/>
<stop offset="0.5994" stop-color="#00B6FF"/>
<stop offset="0.7282" stop-color="#00B6FF"/>
<stop offset="0.8834" stop-color="#00B6FF"/>
<stop offset="0.9018" stop-color="#00B6FF"/>
</linearGradient>
<linearGradient id="paint12_linear_5619_100467" x1="34.1754" y1="71.7565" x2="37.9602" y2="72.7542" gradientUnits="userSpaceOnUse">
<stop stop-color="#00EEFF"/>
<stop offset="0.1022" stop-color="#00E0FF"/>
<stop offset="0.3658" stop-color="#00C2FF"/>
<stop offset="0.5137" stop-color="#00B6FF"/>
<stop offset="0.5994" stop-color="#00B6FF"/>
<stop offset="0.7282" stop-color="#00B6FF"/>
<stop offset="0.8834" stop-color="#00B6FF"/>
<stop offset="0.9018" stop-color="#00B6FF"/>
</linearGradient>
<radialGradient id="paint13_radial_5619_100467" cx="0" cy="0" r="1" gradientUnits="userSpaceOnUse" gradientTransform="translate(121.709 25.9374) rotate(-0.147531) scale(72.8503 71.3567)">
<stop stop-color="#0CAADC"/>
<stop offset="0.3069" stop-color="#4FC7F7"/>
<stop offset="0.452" stop-color="#20BBFA"/>
<stop offset="0.5261" stop-color="#00B6FF"/>
<stop offset="0.5842" stop-color="#38C6FF"/>
<stop offset="0.6339" stop-color="#00B6FF"/>
<stop offset="0.6779" stop-color="#00B6FF"/>
<stop offset="0.6848" stop-color="#00B6FF"/>
<stop offset="0.7992" stop-color="#0A93CB"/>
<stop offset="0.9338" stop-color="#048CC7"/>
<stop offset="0.9939" stop-color="#0771A0"/>
</radialGradient>
<radialGradient id="paint14_radial_5619_100467" cx="0" cy="0" r="1" gradientUnits="userSpaceOnUse" gradientTransform="translate(96.7285 36.1168) rotate(-0.147496) scale(72.8184 71.3255)">
<stop stop-color="#057ACE"/>
<stop offset="0.1022" stop-color="#0D6AD8"/>
<stop offset="0.3658" stop-color="#3657C9"/>
<stop offset="0.666667" stop-color="#0C76AF"/>
<stop offset="0.8487" stop-color="#0982CC"/>
<stop offset="0.9018" stop-color="#0E74B9"/>
</radialGradient>
<linearGradient id="paint15_linear_5619_100467" x1="141.338" y1="12.7391" x2="135.872" y2="16.9003" gradientUnits="userSpaceOnUse">
<stop stop-color="#00EEFF"/>
<stop offset="0.1022" stop-color="#00E0FF"/>
<stop offset="0.3658" stop-color="#00C2FF"/>
<stop offset="0.5137" stop-color="#00B6FF"/>
<stop offset="0.5994" stop-color="#00B6FF"/>
<stop offset="0.7282" stop-color="#00B6FF"/>
<stop offset="0.8834" stop-color="#00B6FF"/>
<stop offset="0.9018" stop-color="#00B6FF"/>
</linearGradient>
<radialGradient id="paint16_radial_5619_100467" cx="0" cy="0" r="1" gradientUnits="userSpaceOnUse" gradientTransform="translate(106.251 48.1045) rotate(120.478) scale(17.2856 17.461)">
<stop offset="0.2945" stop-color="#00DBFF"/>
<stop offset="0.4113" stop-color="#00D3FF"/>
<stop offset="0.5905" stop-color="#00BEFF"/>
<stop offset="0.6442" stop-color="#00B6FF"/>
</radialGradient>
<linearGradient id="paint17_linear_5619_100467" x1="128.417" y1="56.306" x2="125.044" y2="54.9795" gradientUnits="userSpaceOnUse">
<stop offset="0.0429448" stop-color="#00A3FF"/>
<stop offset="0.2817" stop-color="#00B2FF"/>
<stop offset="0.5206" stop-color="#00A3FF"/>
<stop offset="0.6612" stop-color="#00A3FF"/>
</linearGradient>
<linearGradient id="paint18_linear_5619_100467" x1="133.058" y1="55.6257" x2="129.719" y2="54.2203" gradientUnits="userSpaceOnUse">
<stop offset="0.0429448" stop-color="#00C2FF"/>
<stop offset="0.1629" stop-color="#00A3FF"/>
<stop offset="0.3577" stop-color="#00C2FF"/>
<stop offset="0.5302" stop-color="#0085FF"/>
<stop offset="0.6612" stop-color="#0094FF"/>
</linearGradient>
<linearGradient id="paint19_linear_5619_100467" x1="137.337" y1="55.5218" x2="134.129" y2="54.1619" gradientUnits="userSpaceOnUse">
<stop offset="0.0429448" stop-color="#00A3FF"/>
<stop offset="0.2817" stop-color="#00A3FF"/>
<stop offset="0.5206" stop-color="#00A3FF"/>
</linearGradient>
<radialGradient id="paint20_radial_5619_100467" cx="0" cy="0" r="1" gradientUnits="userSpaceOnUse" gradientTransform="translate(114.958 64.1436) rotate(-0.14753) scale(95.4475 93.4906)">
<stop stop-color="white"/>
<stop offset="0.5539"/>
</radialGradient>
<radialGradient id="paint21_radial_5619_100467" cx="0" cy="0" r="1" gradientUnits="userSpaceOnUse" gradientTransform="translate(114.957 64.1436) rotate(-0.14753) scale(95.4475 93.4906)">
<stop stop-color="#1865DA"/>
<stop offset="0.557292" stop-color="#0482F5"/>
<stop offset="0.807292" stop-color="#4EA7FA"/>
</radialGradient>
<radialGradient id="paint22_radial_5619_100467" cx="0" cy="0" r="1" gradientUnits="userSpaceOnUse" gradientTransform="translate(125.113 57.8474) rotate(124.375) scale(12.1846 13.4641)">
<stop offset="0.0122699" stop-color="#00A3FF"/>
<stop offset="0.416667" stop-color="#60E2FF"/>
<stop offset="0.5951" stop-color="#00B6FF"/>
</radialGradient>
<radialGradient id="paint23_radial_5619_100467" cx="0" cy="0" r="1" gradientUnits="userSpaceOnUse" gradientTransform="translate(108.859 60.2209) rotate(28.7209) scale(12.3008 13.3431)">
<stop offset="0.0122699" stop-color="#00FFFF"/>
<stop offset="0.0534677" stop-color="#00FFFF"/>
<stop offset="0.1328" stop-color="#00FFFF"/>
<stop offset="0.2077" stop-color="#00FFFF"/>
<stop offset="0.2762" stop-color="#00FFFF"/>
<stop offset="0.3359" stop-color="#00F4FF"/>
<stop offset="0.3804" stop-color="#00EEFF"/>
<stop offset="0.4108" stop-color="#00E4FF"/>
<stop offset="0.5301" stop-color="#00C3FF"/>
<stop offset="0.5951" stop-color="#00B6FF"/>
</radialGradient>
<linearGradient id="paint24_linear_5619_100467" x1="73.6663" y1="30.2034" x2="82.1955" y2="32.4515" gradientUnits="userSpaceOnUse">
<stop stop-color="#00EEFF"/>
<stop offset="0.1022" stop-color="#00E0FF"/>
<stop offset="0.3658" stop-color="#00C2FF"/>
<stop offset="0.5137" stop-color="#00B6FF"/>
<stop offset="0.5994" stop-color="#00B6FF"/>
<stop offset="0.7282" stop-color="#00B6FF"/>
<stop offset="0.8834" stop-color="#00B6FF"/>
<stop offset="0.9018" stop-color="#00B6FF"/>
</linearGradient>
<linearGradient id="paint25_linear_5619_100467" x1="112.621" y1="71.7565" x2="116.405" y2="72.7542" gradientUnits="userSpaceOnUse">
<stop stop-color="#00EEFF"/>
<stop offset="0.1022" stop-color="#00E0FF"/>
<stop offset="0.3658" stop-color="#00C2FF"/>
<stop offset="0.5137" stop-color="#00B6FF"/>
<stop offset="0.5994" stop-color="#00B6FF"/>
<stop offset="0.7282" stop-color="#00B6FF"/>
<stop offset="0.8834" stop-color="#00B6FF"/>
<stop offset="0.9018" stop-color="#00B6FF"/>
</linearGradient>
<clipPath id="clip0_5619_100467">
<rect width="64.7619" height="85" fill="white"/>
</clipPath>
<clipPath id="clip1_5619_100467">
<rect width="64.7619" height="85" fill="white" transform="translate(78.4453)"/>
</clipPath>
</defs>
</svg>
