<svg width="108" height="48" viewBox="0 0 108 48" fill="none" xmlns="http://www.w3.org/2000/svg">
<path d="M6.82517 20.896C9.22517 20.896 10.9852 21.352 12.1052 22.264C13.2412 23.16 13.8092 24.392 13.8092 25.96C13.8092 26.952 13.5692 27.848 13.0892 28.648C12.6252 29.432 11.9132 30.056 10.9532 30.52C10.0092 30.968 8.84117 31.192 7.44917 31.192C6.26517 31.192 5.12117 31.016 4.01717 30.664C2.91317 30.296 2.00117 29.792 1.28117 29.152L2.38517 27.256C2.96117 27.8 3.69717 28.24 4.59317 28.576C5.48917 28.896 6.43317 29.056 7.42517 29.056C8.68917 29.056 9.66517 28.792 10.3532 28.264C11.0572 27.72 11.4092 26.984 11.4092 26.056C11.4092 25.048 11.0252 24.288 10.2572 23.776C9.48917 23.248 8.17717 22.984 6.32117 22.984H2.50517L3.39317 14.2H12.8732V16.288H5.40917L4.95317 20.896H6.82517Z" fill="#2F2F2F"/>
<path d="M94.1215 17.76H107.561V20.13H94.1215V17.76ZM94.1215 24.87H107.561V27.24H94.1215V24.87Z" fill="#2F2F2F"/>
<path d="M29.462 23L33.332 26.9L31.712 28.64L27.782 24.68L23.852 28.64L22.262 26.9L26.132 23L22.262 19.1L23.852 17.36L27.782 21.32L31.712 17.36L33.332 19.1L29.462 23Z" fill="#2F2F2F"/>
<path d="M57.0409 26.872H53.8489V31H51.5209V26.872H42.1849V25.192L50.7769 14.2H53.3689L45.1369 24.808H51.5929V21.16H53.8489V24.808H57.0409V26.872Z" fill="#2F2F2F"/>
<path d="M79.1124 4.4V5.966L74.2164 17H71.7144L76.4484 6.38H71.4984V8.522H69.3204V4.4H79.1124Z" fill="#2F2F2F"/>
<line x1="61.3086" y1="23.5" x2="87.3317" y2="23.5" stroke="#2F2F2F" stroke-linecap="round"/>
<path d="M76.7804 36.376C77.4404 36.676 77.9444 37.084 78.2924 37.6C78.6524 38.104 78.8324 38.698 78.8324 39.382C78.8324 40.15 78.6164 40.822 78.1844 41.398C77.7644 41.974 77.1644 42.418 76.3844 42.73C75.6044 43.03 74.6984 43.18 73.6664 43.18C72.6344 43.18 71.7284 43.03 70.9484 42.73C70.1804 42.418 69.5864 41.974 69.1664 41.398C68.7464 40.822 68.5364 40.15 68.5364 39.382C68.5364 38.698 68.7104 38.104 69.0584 37.6C69.4064 37.084 69.9044 36.676 70.5524 36.376C70.0484 36.1 69.6584 35.74 69.3824 35.296C69.1184 34.84 68.9864 34.318 68.9864 33.73C68.9864 33.022 69.1784 32.404 69.5624 31.876C69.9584 31.348 70.5104 30.94 71.2184 30.652C71.9264 30.364 72.7424 30.22 73.6664 30.22C74.6024 30.22 75.4244 30.364 76.1324 30.652C76.8404 30.94 77.3924 31.348 77.7884 31.876C78.1844 32.404 78.3824 33.022 78.3824 33.73C78.3824 34.318 78.2444 34.834 77.9684 35.278C77.6924 35.722 77.2964 36.088 76.7804 36.376ZM73.6664 32.056C72.9344 32.056 72.3524 32.212 71.9204 32.524C71.5004 32.836 71.2904 33.274 71.2904 33.838C71.2904 34.378 71.5004 34.81 71.9204 35.134C72.3524 35.446 72.9344 35.602 73.6664 35.602C74.4104 35.602 74.9984 35.446 75.4304 35.134C75.8624 34.81 76.0784 34.378 76.0784 33.838C76.0784 33.274 75.8564 32.836 75.4124 32.524C74.9804 32.212 74.3984 32.056 73.6664 32.056ZM73.6664 41.344C74.5304 41.344 75.2144 41.164 75.7184 40.804C76.2224 40.444 76.4744 39.946 76.4744 39.31C76.4744 38.686 76.2224 38.194 75.7184 37.834C75.2144 37.474 74.5304 37.294 73.6664 37.294C72.8024 37.294 72.1244 37.474 71.6324 37.834C71.1404 38.194 70.8944 38.686 70.8944 39.31C70.8944 39.946 71.1404 40.444 71.6324 40.804C72.1244 41.164 72.8024 41.344 73.6664 41.344Z" fill="#2F2F2F"/>
</svg>
