<svg width="109" height="48" viewBox="0 0 109 48" fill="none" xmlns="http://www.w3.org/2000/svg">
<path d="M16.2479 26.872H13.0559V31H10.7279V26.872H1.39192V25.192L9.98392 14.2H12.5759L4.34392 24.808H10.7999V21.16H13.0559V24.808H16.2479V26.872Z" fill="#2F2F2F"/>
<path d="M94.3675 17.76H107.808V20.13H94.3675V17.76ZM94.3675 24.87H107.808V27.24H94.3675V24.87Z" fill="#2F2F2F"/>
<path d="M29.7042 23L33.5742 26.9L31.9542 28.64L28.0242 24.68L24.0942 28.64L22.5042 26.9L26.3742 23L22.5042 19.1L24.0942 17.36L28.0242 21.32L31.9542 17.36L33.5742 19.1L29.7042 23Z" fill="#2F2F2F"/>
<path d="M57.2831 26.872H54.0911V31H51.7631V26.872H42.4271V25.192L51.0191 14.2H53.6111L45.3791 24.808H51.8351V21.16H54.0911V24.808H57.2831V26.872Z" fill="#2F2F2F"/>
<path d="M74.2066 4.4V17H71.8666V6.362H69.2026V4.4H74.2066Z" fill="#2F2F2F"/>
<line x1="61.5508" y1="23.5" x2="87.5739" y2="23.5" stroke="#2F2F2F" stroke-linecap="round"/>
<path d="M74.5746 35.224C75.4026 35.224 76.1466 35.386 76.8066 35.71C77.4666 36.022 77.9826 36.472 78.3546 37.06C78.7266 37.648 78.9126 38.326 78.9126 39.094C78.9126 39.91 78.7086 40.63 78.3006 41.254C77.8926 41.866 77.3406 42.34 76.6446 42.676C75.9486 43.012 75.1686 43.18 74.3046 43.18C72.5766 43.18 71.2326 42.64 70.2726 41.56C69.3246 40.48 68.8506 38.932 68.8506 36.916C68.8506 35.5 69.1086 34.294 69.6246 33.298C70.1406 32.29 70.8606 31.528 71.7846 31.012C72.7206 30.484 73.8006 30.22 75.0246 30.22C75.6726 30.22 76.2786 30.292 76.8426 30.436C77.4186 30.568 77.9166 30.766 78.3366 31.03L77.4726 32.794C76.8486 32.386 76.0506 32.182 75.0786 32.182C73.8666 32.182 72.9186 32.554 72.2346 33.298C71.5506 34.042 71.2086 35.116 71.2086 36.52V36.538C71.5806 36.106 72.0546 35.782 72.6306 35.566C73.2066 35.338 73.8546 35.224 74.5746 35.224ZM74.1786 41.344C74.9106 41.344 75.5046 41.152 75.9606 40.768C76.4166 40.372 76.6446 39.85 76.6446 39.202C76.6446 38.542 76.4166 38.02 75.9606 37.636C75.5046 37.252 74.8926 37.06 74.1246 37.06C73.3686 37.06 72.7506 37.264 72.2706 37.672C71.8026 38.08 71.5686 38.596 71.5686 39.22C71.5686 39.832 71.7966 40.342 72.2526 40.75C72.7206 41.146 73.3626 41.344 74.1786 41.344Z" fill="#2F2F2F"/>
</svg>
