<svg width="339" height="30" viewBox="0 0 339 30" fill="none" xmlns="http://www.w3.org/2000/svg">
<path d="M12.077 17.904H9.68298V21H7.93698V17.904H0.934977V16.644L7.37898 8.4H9.32298L3.14898 16.356H7.99098V13.62H9.68298V16.356H12.077V17.904ZM24.128 20.442C23.876 20.658 23.564 20.826 23.192 20.946C22.82 21.054 22.436 21.108 22.04 21.108C21.08 21.108 20.336 20.85 19.808 20.334C19.28 19.818 19.016 19.08 19.016 18.12V12.882H17.396V11.46H19.016V9.372H20.744V11.46H23.48V12.882H20.744V18.048C20.744 18.564 20.87 18.96 21.122 19.236C21.386 19.512 21.758 19.65 22.238 19.65C22.766 19.65 23.216 19.5 23.588 19.2L24.128 20.442ZM34.5227 16.284C34.5227 16.416 34.5107 16.59 34.4867 16.806H26.7467C26.8547 17.646 27.2207 18.324 27.8447 18.84C28.4807 19.344 29.2667 19.596 30.2027 19.596C31.3427 19.596 32.2607 19.212 32.9567 18.444L33.9107 19.56C33.4787 20.064 32.9387 20.448 32.2907 20.712C31.6547 20.976 30.9407 21.108 30.1487 21.108C29.1407 21.108 28.2467 20.904 27.4667 20.496C26.6867 20.076 26.0807 19.494 25.6487 18.75C25.2287 18.006 25.0187 17.166 25.0187 16.23C25.0187 15.306 25.2227 14.472 25.6307 13.728C26.0507 12.984 26.6207 12.408 27.3407 12C28.0727 11.58 28.8947 11.37 29.8067 11.37C30.7187 11.37 31.5287 11.58 32.2367 12C32.9567 12.408 33.5147 12.984 33.9107 13.728C34.3187 14.472 34.5227 15.324 34.5227 16.284ZM29.8067 12.828C28.9787 12.828 28.2827 13.08 27.7187 13.584C27.1667 14.088 26.8427 14.748 26.7467 15.564H32.8667C32.7707 14.76 32.4407 14.106 31.8767 13.602C31.3247 13.086 30.6347 12.828 29.8067 12.828ZM42.0162 11.37C43.2282 11.37 44.1882 11.724 44.8962 12.432C45.6162 13.128 45.9762 14.154 45.9762 15.51V21H44.2482V15.708C44.2482 14.784 44.0262 14.088 43.5822 13.62C43.1382 13.152 42.5022 12.918 41.6742 12.918C40.7382 12.918 40.0002 13.194 39.4602 13.746C38.9202 14.286 38.6502 15.066 38.6502 16.086V21H36.9222V11.46H38.5782V12.9C38.9262 12.408 39.3942 12.03 39.9822 11.766C40.5822 11.502 41.2602 11.37 42.0162 11.37ZM51.9101 21.108C51.1301 21.108 50.3801 21.006 49.6601 20.802C48.9401 20.586 48.3761 20.316 47.9681 19.992L48.6881 18.624C49.1081 18.924 49.6181 19.164 50.2181 19.344C50.8181 19.524 51.4241 19.614 52.0361 19.614C53.5481 19.614 54.3041 19.182 54.3041 18.318C54.3041 18.03 54.2021 17.802 53.9981 17.634C53.7941 17.466 53.5361 17.346 53.2241 17.274C52.9241 17.19 52.4921 17.1 51.9281 17.004C51.1601 16.884 50.5301 16.746 50.0381 16.59C49.5581 16.434 49.1441 16.17 48.7961 15.798C48.4481 15.426 48.2741 14.904 48.2741 14.232C48.2741 13.368 48.6341 12.678 49.3541 12.162C50.0741 11.634 51.0401 11.37 52.2521 11.37C52.8881 11.37 53.5241 11.448 54.1601 11.604C54.7961 11.76 55.3181 11.97 55.7261 12.234L54.9881 13.602C54.2081 13.098 53.2901 12.846 52.2341 12.846C51.5021 12.846 50.9441 12.966 50.5601 13.206C50.1761 13.446 49.9841 13.764 49.9841 14.16C49.9841 14.472 50.0921 14.718 50.3081 14.898C50.5241 15.078 50.7881 15.21 51.1001 15.294C51.4241 15.378 51.8741 15.474 52.4501 15.582C53.2181 15.714 53.8361 15.858 54.3041 16.014C54.7841 16.158 55.1921 16.41 55.5281 16.77C55.8641 17.13 56.0321 17.634 56.0321 18.282C56.0321 19.146 55.6601 19.836 54.9161 20.352C54.1841 20.856 53.1821 21.108 51.9101 21.108ZM71.4317 8.4V9.624L66.3377 21H64.4297L69.4157 9.966H63.6557V12.216H61.9277V8.4H71.4317ZM82.7035 21.108C81.7555 21.108 80.9035 20.898 80.1475 20.478C79.3915 20.058 78.7975 19.482 78.3655 18.75C77.9455 18.006 77.7355 17.166 77.7355 16.23C77.7355 15.294 77.9455 14.46 78.3655 13.728C78.7975 12.984 79.3915 12.408 80.1475 12C80.9035 11.58 81.7555 11.37 82.7035 11.37C83.6515 11.37 84.4975 11.58 85.2415 12C85.9975 12.408 86.5855 12.984 87.0055 13.728C87.4375 14.46 87.6535 15.294 87.6535 16.23C87.6535 17.166 87.4375 18.006 87.0055 18.75C86.5855 19.482 85.9975 20.058 85.2415 20.478C84.4975 20.898 83.6515 21.108 82.7035 21.108ZM82.7035 19.596C83.3155 19.596 83.8615 19.458 84.3415 19.182C84.8335 18.894 85.2175 18.498 85.4935 17.994C85.7695 17.478 85.9075 16.89 85.9075 16.23C85.9075 15.57 85.7695 14.988 85.4935 14.484C85.2175 13.968 84.8335 13.572 84.3415 13.296C83.8615 13.02 83.3155 12.882 82.7035 12.882C82.0915 12.882 81.5395 13.02 81.0475 13.296C80.5675 13.572 80.1835 13.968 79.8955 14.484C79.6195 14.988 79.4815 15.57 79.4815 16.23C79.4815 16.89 79.6195 17.478 79.8955 17.994C80.1835 18.498 80.5675 18.894 81.0475 19.182C81.5395 19.458 82.0915 19.596 82.7035 19.596ZM95.1373 11.37C96.3493 11.37 97.3093 11.724 98.0173 12.432C98.7373 13.128 99.0973 14.154 99.0973 15.51V21H97.3693V15.708C97.3693 14.784 97.1473 14.088 96.7033 13.62C96.2593 13.152 95.6233 12.918 94.7953 12.918C93.8593 12.918 93.1213 13.194 92.5813 13.746C92.0413 14.286 91.7713 15.066 91.7713 16.086V21H90.0433V11.46H91.6993V12.9C92.0473 12.408 92.5153 12.03 93.1033 11.766C93.7033 11.502 94.3813 11.37 95.1373 11.37ZM110.97 16.284C110.97 16.416 110.958 16.59 110.934 16.806H103.194C103.302 17.646 103.668 18.324 104.292 18.84C104.928 19.344 105.714 19.596 106.65 19.596C107.79 19.596 108.708 19.212 109.404 18.444L110.358 19.56C109.926 20.064 109.386 20.448 108.738 20.712C108.102 20.976 107.388 21.108 106.596 21.108C105.588 21.108 104.694 20.904 103.914 20.496C103.134 20.076 102.528 19.494 102.096 18.75C101.676 18.006 101.466 17.166 101.466 16.23C101.466 15.306 101.67 14.472 102.078 13.728C102.498 12.984 103.068 12.408 103.788 12C104.52 11.58 105.342 11.37 106.254 11.37C107.166 11.37 107.976 11.58 108.684 12C109.404 12.408 109.962 12.984 110.358 13.728C110.766 14.472 110.97 15.324 110.97 16.284ZM106.254 12.828C105.426 12.828 104.73 13.08 104.166 13.584C103.614 14.088 103.29 14.748 103.194 15.564H109.314C109.218 14.76 108.888 14.106 108.324 13.602C107.772 13.086 107.082 12.828 106.254 12.828ZM116.105 21.108C115.325 21.108 114.575 21.006 113.855 20.802C113.135 20.586 112.571 20.316 112.163 19.992L112.883 18.624C113.303 18.924 113.813 19.164 114.413 19.344C115.013 19.524 115.619 19.614 116.231 19.614C117.743 19.614 118.499 19.182 118.499 18.318C118.499 18.03 118.397 17.802 118.193 17.634C117.989 17.466 117.731 17.346 117.419 17.274C117.119 17.19 116.687 17.1 116.123 17.004C115.355 16.884 114.725 16.746 114.233 16.59C113.753 16.434 113.339 16.17 112.991 15.798C112.643 15.426 112.469 14.904 112.469 14.232C112.469 13.368 112.829 12.678 113.549 12.162C114.269 11.634 115.235 11.37 116.447 11.37C117.083 11.37 117.719 11.448 118.355 11.604C118.991 11.76 119.513 11.97 119.921 12.234L119.183 13.602C118.403 13.098 117.485 12.846 116.429 12.846C115.697 12.846 115.139 12.966 114.755 13.206C114.371 13.446 114.179 13.764 114.179 14.16C114.179 14.472 114.287 14.718 114.503 14.898C114.719 15.078 114.983 15.21 115.295 15.294C115.619 15.378 116.069 15.474 116.645 15.582C117.413 15.714 118.031 15.858 118.499 16.014C118.979 16.158 119.387 16.41 119.723 16.77C120.059 17.13 120.227 17.634 120.227 18.282C120.227 19.146 119.855 19.836 119.111 20.352C118.379 20.856 117.377 21.108 116.105 21.108Z" fill="#2F2F2F"/>
<path d="M127.081 15.312H131.923V16.806H127.081V15.312Z" fill="#2F2F2F"/>
<path d="M148.148 19.434V21H139.094V19.776L144.224 14.826C144.848 14.226 145.268 13.71 145.484 13.278C145.7 12.834 145.808 12.39 145.808 11.946C145.808 11.286 145.574 10.776 145.106 10.416C144.65 10.044 143.99 9.858 143.126 9.858C141.734 9.858 140.66 10.314 139.904 11.226L138.68 10.164C139.172 9.564 139.814 9.096 140.606 8.76C141.41 8.424 142.304 8.256 143.288 8.256C144.608 8.256 145.658 8.574 146.438 9.21C147.218 9.834 147.608 10.686 147.608 11.766C147.608 12.438 147.464 13.074 147.176 13.674C146.888 14.274 146.342 14.958 145.538 15.726L141.686 19.434H148.148ZM160.6 20.442C160.348 20.658 160.036 20.826 159.664 20.946C159.292 21.054 158.908 21.108 158.512 21.108C157.552 21.108 156.808 20.85 156.28 20.334C155.752 19.818 155.488 19.08 155.488 18.12V12.882H153.868V11.46H155.488V9.372H157.216V11.46H159.952V12.882H157.216V18.048C157.216 18.564 157.342 18.96 157.594 19.236C157.858 19.512 158.23 19.65 158.71 19.65C159.238 19.65 159.688 19.5 160.06 19.2L160.6 20.442ZM170.994 16.284C170.994 16.416 170.982 16.59 170.958 16.806H163.218C163.326 17.646 163.692 18.324 164.316 18.84C164.952 19.344 165.738 19.596 166.674 19.596C167.814 19.596 168.732 19.212 169.428 18.444L170.382 19.56C169.95 20.064 169.41 20.448 168.762 20.712C168.126 20.976 167.412 21.108 166.62 21.108C165.612 21.108 164.718 20.904 163.938 20.496C163.158 20.076 162.552 19.494 162.12 18.75C161.7 18.006 161.49 17.166 161.49 16.23C161.49 15.306 161.694 14.472 162.102 13.728C162.522 12.984 163.092 12.408 163.812 12C164.544 11.58 165.366 11.37 166.278 11.37C167.19 11.37 168 11.58 168.708 12C169.428 12.408 169.986 12.984 170.382 13.728C170.79 14.472 170.994 15.324 170.994 16.284ZM166.278 12.828C165.45 12.828 164.754 13.08 164.19 13.584C163.638 14.088 163.314 14.748 163.218 15.564H169.338C169.242 14.76 168.912 14.106 168.348 13.602C167.796 13.086 167.106 12.828 166.278 12.828ZM178.488 11.37C179.7 11.37 180.66 11.724 181.368 12.432C182.088 13.128 182.448 14.154 182.448 15.51V21H180.72V15.708C180.72 14.784 180.498 14.088 180.054 13.62C179.61 13.152 178.974 12.918 178.146 12.918C177.21 12.918 176.472 13.194 175.932 13.746C175.392 14.286 175.122 15.066 175.122 16.086V21H173.394V11.46H175.05V12.9C175.398 12.408 175.866 12.03 176.454 11.766C177.054 11.502 177.732 11.37 178.488 11.37ZM188.382 21.108C187.602 21.108 186.852 21.006 186.132 20.802C185.412 20.586 184.848 20.316 184.44 19.992L185.16 18.624C185.58 18.924 186.09 19.164 186.69 19.344C187.29 19.524 187.896 19.614 188.508 19.614C190.02 19.614 190.776 19.182 190.776 18.318C190.776 18.03 190.674 17.802 190.47 17.634C190.266 17.466 190.008 17.346 189.696 17.274C189.396 17.19 188.964 17.1 188.4 17.004C187.632 16.884 187.002 16.746 186.51 16.59C186.03 16.434 185.616 16.17 185.268 15.798C184.92 15.426 184.746 14.904 184.746 14.232C184.746 13.368 185.106 12.678 185.826 12.162C186.546 11.634 187.512 11.37 188.724 11.37C189.36 11.37 189.996 11.448 190.632 11.604C191.268 11.76 191.79 11.97 192.198 12.234L191.46 13.602C190.68 13.098 189.762 12.846 188.706 12.846C187.974 12.846 187.416 12.966 187.032 13.206C186.648 13.446 186.456 13.764 186.456 14.16C186.456 14.472 186.564 14.718 186.78 14.898C186.996 15.078 187.26 15.21 187.572 15.294C187.896 15.378 188.346 15.474 188.922 15.582C189.69 15.714 190.308 15.858 190.776 16.014C191.256 16.158 191.664 16.41 192 16.77C192.336 17.13 192.504 17.634 192.504 18.282C192.504 19.146 192.132 19.836 191.388 20.352C190.656 20.856 189.654 21.108 188.382 21.108ZM202.809 8.256C204.501 8.256 205.803 8.802 206.715 9.894C207.639 10.986 208.101 12.534 208.101 14.538C208.101 15.942 207.849 17.142 207.345 18.138C206.853 19.122 206.157 19.872 205.257 20.388C204.369 20.892 203.331 21.144 202.143 21.144C201.531 21.144 200.955 21.084 200.415 20.964C199.875 20.832 199.407 20.646 199.011 20.406L199.695 19.002C200.307 19.398 201.117 19.596 202.125 19.596C203.433 19.596 204.453 19.194 205.185 18.39C205.929 17.574 206.301 16.392 206.301 14.844V14.394C205.941 14.934 205.443 15.348 204.807 15.636C204.171 15.912 203.457 16.05 202.665 16.05C201.837 16.05 201.093 15.894 200.433 15.582C199.785 15.27 199.275 14.826 198.903 14.25C198.543 13.662 198.363 12.99 198.363 12.234C198.363 11.442 198.555 10.746 198.939 10.146C199.335 9.546 199.869 9.084 200.541 8.76C201.213 8.424 201.969 8.256 202.809 8.256ZM202.971 14.592C203.535 14.592 204.039 14.484 204.483 14.268C204.927 14.052 205.269 13.758 205.509 13.386C205.761 13.014 205.887 12.6 205.887 12.144C205.887 11.7 205.767 11.298 205.527 10.938C205.299 10.566 204.957 10.272 204.501 10.056C204.057 9.828 203.517 9.714 202.881 9.714C202.053 9.714 201.381 9.936 200.865 10.38C200.361 10.824 200.109 11.418 200.109 12.162C200.109 12.906 200.367 13.5 200.883 13.944C201.399 14.376 202.095 14.592 202.971 14.592ZM219.527 21.108C218.579 21.108 217.727 20.898 216.971 20.478C216.215 20.058 215.621 19.482 215.189 18.75C214.769 18.006 214.559 17.166 214.559 16.23C214.559 15.294 214.769 14.46 215.189 13.728C215.621 12.984 216.215 12.408 216.971 12C217.727 11.58 218.579 11.37 219.527 11.37C220.475 11.37 221.321 11.58 222.065 12C222.821 12.408 223.409 12.984 223.829 13.728C224.261 14.46 224.477 15.294 224.477 16.23C224.477 17.166 224.261 18.006 223.829 18.75C223.409 19.482 222.821 20.058 222.065 20.478C221.321 20.898 220.475 21.108 219.527 21.108ZM219.527 19.596C220.139 19.596 220.685 19.458 221.165 19.182C221.657 18.894 222.041 18.498 222.317 17.994C222.593 17.478 222.731 16.89 222.731 16.23C222.731 15.57 222.593 14.988 222.317 14.484C222.041 13.968 221.657 13.572 221.165 13.296C220.685 13.02 220.139 12.882 219.527 12.882C218.915 12.882 218.363 13.02 217.871 13.296C217.391 13.572 217.007 13.968 216.719 14.484C216.443 14.988 216.305 15.57 216.305 16.23C216.305 16.89 216.443 17.478 216.719 17.994C217.007 18.498 217.391 18.894 217.871 19.182C218.363 19.458 218.915 19.596 219.527 19.596ZM231.961 11.37C233.173 11.37 234.133 11.724 234.841 12.432C235.561 13.128 235.921 14.154 235.921 15.51V21H234.193V15.708C234.193 14.784 233.971 14.088 233.527 13.62C233.083 13.152 232.447 12.918 231.619 12.918C230.683 12.918 229.945 13.194 229.405 13.746C228.865 14.286 228.595 15.066 228.595 16.086V21H226.867V11.46H228.523V12.9C228.871 12.408 229.339 12.03 229.927 11.766C230.527 11.502 231.205 11.37 231.961 11.37ZM247.793 16.284C247.793 16.416 247.781 16.59 247.757 16.806H240.017C240.125 17.646 240.491 18.324 241.115 18.84C241.751 19.344 242.537 19.596 243.473 19.596C244.613 19.596 245.531 19.212 246.227 18.444L247.181 19.56C246.749 20.064 246.209 20.448 245.561 20.712C244.925 20.976 244.211 21.108 243.419 21.108C242.411 21.108 241.517 20.904 240.737 20.496C239.957 20.076 239.351 19.494 238.919 18.75C238.499 18.006 238.289 17.166 238.289 16.23C238.289 15.306 238.493 14.472 238.901 13.728C239.321 12.984 239.891 12.408 240.611 12C241.343 11.58 242.165 11.37 243.077 11.37C243.989 11.37 244.799 11.58 245.507 12C246.227 12.408 246.785 12.984 247.181 13.728C247.589 14.472 247.793 15.324 247.793 16.284ZM243.077 12.828C242.249 12.828 241.553 13.08 240.989 13.584C240.437 14.088 240.113 14.748 240.017 15.564H246.137C246.041 14.76 245.711 14.106 245.147 13.602C244.595 13.086 243.905 12.828 243.077 12.828ZM252.929 21.108C252.149 21.108 251.399 21.006 250.679 20.802C249.959 20.586 249.395 20.316 248.987 19.992L249.707 18.624C250.127 18.924 250.637 19.164 251.237 19.344C251.837 19.524 252.443 19.614 253.055 19.614C254.567 19.614 255.323 19.182 255.323 18.318C255.323 18.03 255.221 17.802 255.017 17.634C254.813 17.466 254.555 17.346 254.243 17.274C253.943 17.19 253.511 17.1 252.947 17.004C252.179 16.884 251.549 16.746 251.057 16.59C250.577 16.434 250.163 16.17 249.815 15.798C249.467 15.426 249.293 14.904 249.293 14.232C249.293 13.368 249.653 12.678 250.373 12.162C251.093 11.634 252.059 11.37 253.271 11.37C253.907 11.37 254.543 11.448 255.179 11.604C255.815 11.76 256.337 11.97 256.745 12.234L256.007 13.602C255.227 13.098 254.309 12.846 253.253 12.846C252.521 12.846 251.963 12.966 251.579 13.206C251.195 13.446 251.003 13.764 251.003 14.16C251.003 14.472 251.111 14.718 251.327 14.898C251.543 15.078 251.807 15.21 252.119 15.294C252.443 15.378 252.893 15.474 253.469 15.582C254.237 15.714 254.855 15.858 255.323 16.014C255.803 16.158 256.211 16.41 256.547 16.77C256.883 17.13 257.051 17.634 257.051 18.282C257.051 19.146 256.679 19.836 255.935 20.352C255.203 20.856 254.201 21.108 252.929 21.108Z" fill="#2F2F2F"/>
<path d="M264.468 11.856H272.532V13.278H264.468V11.856ZM264.468 16.122H272.532V17.544H264.468V16.122Z" fill="#2F2F2F"/>
<path d="M304.647 8.4V21H302.865V9.966H300.021V8.4H304.647ZM315.107 14.394C315.827 14.67 316.379 15.066 316.763 15.582C317.147 16.098 317.339 16.716 317.339 17.436C317.339 18.192 317.135 18.852 316.727 19.416C316.319 19.968 315.737 20.394 314.981 20.694C314.225 20.994 313.337 21.144 312.317 21.144C311.309 21.144 310.427 20.994 309.671 20.694C308.927 20.394 308.351 19.968 307.943 19.416C307.535 18.852 307.331 18.192 307.331 17.436C307.331 16.716 307.517 16.098 307.889 15.582C308.273 15.066 308.825 14.67 309.545 14.394C308.969 14.118 308.531 13.752 308.231 13.296C307.931 12.84 307.781 12.3 307.781 11.676C307.781 10.98 307.967 10.374 308.339 9.858C308.723 9.342 309.257 8.946 309.941 8.67C310.625 8.394 311.417 8.256 312.317 8.256C313.229 8.256 314.027 8.394 314.711 8.67C315.407 8.946 315.941 9.342 316.313 9.858C316.697 10.374 316.889 10.98 316.889 11.676C316.889 12.288 316.733 12.828 316.421 13.296C316.121 13.752 315.683 14.118 315.107 14.394ZM312.317 9.714C311.465 9.714 310.793 9.9 310.301 10.272C309.809 10.632 309.563 11.124 309.563 11.748C309.563 12.372 309.803 12.864 310.283 13.224C310.775 13.584 311.453 13.764 312.317 13.764C313.193 13.764 313.877 13.584 314.369 13.224C314.873 12.864 315.125 12.372 315.125 11.748C315.125 11.124 314.867 10.632 314.351 10.272C313.847 9.9 313.169 9.714 312.317 9.714ZM312.317 19.686C313.313 19.686 314.099 19.482 314.675 19.074C315.251 18.654 315.539 18.09 315.539 17.382C315.539 16.686 315.251 16.14 314.675 15.744C314.099 15.336 313.313 15.132 312.317 15.132C311.321 15.132 310.541 15.336 309.977 15.744C309.413 16.14 309.131 16.686 309.131 17.382C309.131 18.09 309.413 18.654 309.977 19.074C310.541 19.482 311.321 19.686 312.317 19.686Z" fill="#2F2F2F"/>
<path d="M284 1H334V-1H284V1ZM338 5V25H340V5H338ZM334 29H284V31H334V29ZM280 25V5H278V25H280ZM284 29C281.791 29 280 27.2091 280 25H278C278 28.3137 280.686 31 284 31V29ZM338 25C338 27.2091 336.209 29 334 29V31C337.314 31 340 28.3137 340 25H338ZM334 1C336.209 1 338 2.79086 338 5H340C340 1.68629 337.314 -1 334 -1V1ZM284 -1C280.686 -1 278 1.68629 278 5H280C280 2.79086 281.791 1 284 1V-1Z" fill="#2F2F2F"/>
</svg>
