<svg width="428" height="313" viewBox="0 0 428 313" fill="none" xmlns="http://www.w3.org/2000/svg">
<rect x="32.5" y="33.5" width="220.212" height="136" fill="#ABE9FF" stroke="#0995E3"/>
<path d="M137.035 7.692C138.271 7.812 139.213 8.196 139.861 8.844C140.509 9.48 140.833 10.296 140.833 11.292C140.833 12.012 140.653 12.666 140.293 13.254C139.933 13.83 139.393 14.292 138.673 14.64C137.965 14.976 137.095 15.144 136.063 15.144C135.163 15.144 134.299 15.012 133.471 14.748C132.643 14.472 131.965 14.094 131.437 13.614L132.265 12.192C132.697 12.6 133.249 12.93 133.921 13.182C134.593 13.422 135.307 13.542 136.063 13.542C136.999 13.542 137.725 13.344 138.241 12.948C138.769 12.552 139.033 12.006 139.033 11.31C139.033 10.614 138.775 10.074 138.259 9.69C137.743 9.306 136.963 9.114 135.919 9.114H134.911V7.854L138.079 3.966H132.013V2.4H140.329V3.624L137.035 7.692ZM147.659 15.144C146.663 15.144 145.775 14.892 144.995 14.388C144.227 13.872 143.621 13.128 143.177 12.156C142.733 11.184 142.511 10.032 142.511 8.7C142.511 7.368 142.733 6.216 143.177 5.244C143.621 4.272 144.227 3.534 144.995 3.03C145.775 2.514 146.663 2.256 147.659 2.256C148.643 2.256 149.519 2.514 150.287 3.03C151.067 3.534 151.679 4.272 152.123 5.244C152.567 6.216 152.789 7.368 152.789 8.7C152.789 10.032 152.567 11.184 152.123 12.156C151.679 13.128 151.067 13.872 150.287 14.388C149.519 14.892 148.643 15.144 147.659 15.144ZM147.659 13.542C148.667 13.542 149.471 13.128 150.071 12.3C150.683 11.472 150.989 10.272 150.989 8.7C150.989 7.128 150.683 5.928 150.071 5.1C149.471 4.272 148.667 3.858 147.659 3.858C146.639 3.858 145.823 4.272 145.211 5.1C144.611 5.928 144.311 7.128 144.311 8.7C144.311 10.272 144.611 11.472 145.211 12.3C145.823 13.128 146.639 13.542 147.659 13.542Z" fill="#2F2F2F"/>
<path d="M343.745 7.35C344.573 7.35 345.311 7.506 345.959 7.818C346.619 8.13 347.135 8.58 347.507 9.168C347.879 9.744 348.065 10.41 348.065 11.166C348.065 11.958 347.867 12.654 347.471 13.254C347.087 13.854 346.553 14.322 345.869 14.658C345.197 14.982 344.441 15.144 343.601 15.144C341.909 15.144 340.601 14.598 339.677 13.506C338.765 12.414 338.309 10.866 338.309 8.862C338.309 7.458 338.555 6.264 339.047 5.28C339.551 4.284 340.247 3.534 341.135 3.03C342.035 2.514 343.079 2.256 344.267 2.256C344.879 2.256 345.455 2.322 345.995 2.454C346.535 2.574 347.003 2.754 347.399 2.994L346.715 4.398C346.115 4.002 345.311 3.804 344.303 3.804C342.995 3.804 341.969 4.212 341.225 5.028C340.481 5.832 340.109 7.008 340.109 8.556C340.109 8.748 340.115 8.898 340.127 9.006C340.487 8.466 340.979 8.058 341.603 7.782C342.239 7.494 342.953 7.35 343.745 7.35ZM343.529 13.686C344.357 13.686 345.029 13.464 345.545 13.02C346.061 12.576 346.319 11.982 346.319 11.238C346.319 10.494 346.055 9.906 345.527 9.474C345.011 9.03 344.315 8.808 343.439 8.808C342.875 8.808 342.371 8.916 341.927 9.132C341.495 9.348 341.153 9.642 340.901 10.014C340.661 10.386 340.541 10.8 340.541 11.256C340.541 11.7 340.655 12.108 340.883 12.48C341.123 12.84 341.465 13.134 341.909 13.362C342.365 13.578 342.905 13.686 343.529 13.686Z" fill="#2F2F2F"/>
<path d="M10.0755 105.434V107H1.02147V105.776L6.15147 100.826C6.77547 100.226 7.19547 99.71 7.41147 99.278C7.62747 98.834 7.73547 98.39 7.73547 97.946C7.73547 97.286 7.50147 96.776 7.03347 96.416C6.57747 96.044 5.91747 95.858 5.05347 95.858C3.66147 95.858 2.58747 96.314 1.83147 97.226L0.607469 96.164C1.09947 95.564 1.74147 95.096 2.53347 94.76C3.33747 94.424 4.23147 94.256 5.21547 94.256C6.53547 94.256 7.58547 94.574 8.36547 95.21C9.14547 95.834 9.53547 96.686 9.53547 97.766C9.53547 98.438 9.39147 99.074 9.10347 99.674C8.81547 100.274 8.26947 100.958 7.46547 101.726L3.61347 105.434H10.0755ZM16.6507 107.144C15.6547 107.144 14.7667 106.892 13.9867 106.388C13.2187 105.872 12.6127 105.128 12.1687 104.156C11.7247 103.184 11.5027 102.032 11.5027 100.7C11.5027 99.368 11.7247 98.216 12.1687 97.244C12.6127 96.272 13.2187 95.534 13.9867 95.03C14.7667 94.514 15.6547 94.256 16.6507 94.256C17.6347 94.256 18.5107 94.514 19.2787 95.03C20.0587 95.534 20.6707 96.272 21.1147 97.244C21.5587 98.216 21.7807 99.368 21.7807 100.7C21.7807 102.032 21.5587 103.184 21.1147 104.156C20.6707 105.128 20.0587 105.872 19.2787 106.388C18.5107 106.892 17.6347 107.144 16.6507 107.144ZM16.6507 105.542C17.6587 105.542 18.4627 105.128 19.0627 104.3C19.6747 103.472 19.9807 102.272 19.9807 100.7C19.9807 99.128 19.6747 97.928 19.0627 97.1C18.4627 96.272 17.6587 95.858 16.6507 95.858C15.6307 95.858 14.8147 96.272 14.2027 97.1C13.6027 97.928 13.3027 99.128 13.3027 100.7C13.3027 102.272 13.6027 103.472 14.2027 104.3C14.8147 105.128 15.6307 105.542 16.6507 105.542Z" fill="#2F2F2F"/>
<rect x="259.5" y="33.5" width="168" height="136" fill="#C6FFAB" stroke="#09E31E"/>
<rect x="32.5" y="176.5" width="220.212" height="136" fill="#ABE9FF" stroke="#0995E3"/>
<path d="M12.0376 242.692C13.2736 242.812 14.2156 243.196 14.8636 243.844C15.5116 244.48 15.8356 245.296 15.8356 246.292C15.8356 247.012 15.6556 247.666 15.2956 248.254C14.9356 248.83 14.3956 249.292 13.6756 249.64C12.9676 249.976 12.0976 250.144 11.0656 250.144C10.1656 250.144 9.30161 250.012 8.47361 249.748C7.64561 249.472 6.96761 249.094 6.43961 248.614L7.26761 247.192C7.69961 247.6 8.25161 247.93 8.92361 248.182C9.59561 248.422 10.3096 248.542 11.0656 248.542C12.0016 248.542 12.7276 248.344 13.2436 247.948C13.7716 247.552 14.0356 247.006 14.0356 246.31C14.0356 245.614 13.7776 245.074 13.2616 244.69C12.7456 244.306 11.9656 244.114 10.9216 244.114H9.91361V242.854L13.0816 238.966H7.01561V237.4H15.3316V238.624L12.0376 242.692Z" fill="#2F2F2F"/>
<rect x="259.5" y="176.5" width="168" height="136" fill="#C6FFAB" stroke="#09E31E"/>
</svg>
