<svg width="115" height="48" viewBox="0 0 115 48" fill="none" xmlns="http://www.w3.org/2000/svg">
<path d="M83.7637 23.256C85.4117 23.416 86.6677 23.928 87.5317 24.792C88.3957 25.64 88.8277 26.728 88.8277 28.056C88.8277 29.016 88.5877 29.888 88.1077 30.672C87.6277 31.44 86.9077 32.056 85.9477 32.52C85.0037 32.968 83.8437 33.192 82.4677 33.192C81.2677 33.192 80.1157 33.016 79.0117 32.664C77.9077 32.296 77.0037 31.792 76.2997 31.152L77.4037 29.256C77.9797 29.8 78.7157 30.24 79.6117 30.576C80.5077 30.896 81.4597 31.056 82.4677 31.056C83.7157 31.056 84.6837 30.792 85.3717 30.264C86.0757 29.736 86.4277 29.008 86.4277 28.08C86.4277 27.152 86.0837 26.432 85.3957 25.92C84.7077 25.408 83.6677 25.152 82.2757 25.152H80.9317V23.472L85.1557 18.288H77.0677V16.2H88.1557V17.832L83.7637 23.256ZM98.3694 17.76H111.809V20.13H98.3694V17.76ZM98.3694 24.87H111.809V27.24H98.3694V24.87Z" fill="#2F2F2F"/>
<path d="M59.6847 23.5L63.5547 27.4L61.9347 29.14L58.0047 25.18L54.0747 29.14L52.4847 27.4L56.3547 23.5L52.4847 19.6L54.0747 17.86L58.0047 21.82L61.9347 17.86L63.5547 19.6L59.6847 23.5Z" fill="#2F2F2F"/>
<path d="M7.7228 21.256C9.3708 21.416 10.6268 21.928 11.4908 22.792C12.3548 23.64 12.7868 24.728 12.7868 26.056C12.7868 27.016 12.5468 27.888 12.0668 28.672C11.5868 29.44 10.8668 30.056 9.9068 30.52C8.9628 30.968 7.8028 31.192 6.4268 31.192C5.2268 31.192 4.0748 31.016 2.9708 30.664C1.8668 30.296 0.962795 29.792 0.258795 29.152L1.3628 27.256C1.9388 27.8 2.6748 28.24 3.5708 28.576C4.4668 28.896 5.4188 29.056 6.4268 29.056C7.6748 29.056 8.6428 28.792 9.3308 28.264C10.0348 27.736 10.3868 27.008 10.3868 26.08C10.3868 25.152 10.0428 24.432 9.3548 23.92C8.6668 23.408 7.6268 23.152 6.2348 23.152H4.8908V21.472L9.1148 16.288H1.0268V14.2H12.1148V15.832L7.7228 21.256Z" fill="#2F2F2F"/>
<path d="M36.9414 15.02V17H27.6534V15.434L32.6574 10.682C33.2214 10.142 33.5994 9.674 33.7914 9.278C33.9954 8.87 34.0974 8.468 34.0974 8.072C34.0974 7.484 33.8994 7.034 33.5034 6.722C33.1074 6.41 32.5254 6.254 31.7574 6.254C30.4734 6.254 29.4894 6.692 28.8054 7.568L27.1674 6.308C27.6594 5.648 28.3194 5.138 29.1474 4.778C29.9874 4.406 30.9234 4.22 31.9554 4.22C33.3234 4.22 34.4154 4.544 35.2314 5.192C36.0474 5.84 36.4554 6.722 36.4554 7.838C36.4554 8.522 36.3114 9.164 36.0234 9.764C35.7354 10.364 35.1834 11.048 34.3674 11.816L31.0014 15.02H36.9414Z" fill="#2F2F2F"/>
<line x1="19.5156" y1="23.5" x2="45.5387" y2="23.5" stroke="#2F2F2F" stroke-linecap="round"/>
<path d="M38.0474 40.138H35.8154V43H33.5474V40.138H26.6354V38.518L32.8454 30.4H35.3474L29.4974 38.158H33.6194V35.62H35.8154V38.158H38.0474V40.138Z" fill="#2F2F2F"/>
</svg>
