<svg width="113" height="48" viewBox="0 0 113 48" fill="none" xmlns="http://www.w3.org/2000/svg">
<path d="M87.267 15.2V16.832L80.475 32H77.931L84.579 17.288H76.899V20.288H74.595V15.2H87.267ZM96.6741 16.76H110.114V19.13H96.6741V16.76ZM96.6741 23.87H110.114V26.24H96.6741V23.87Z" fill="#2F2F2F"/>
<path d="M61.4893 23L65.3593 26.9L63.7393 28.64L59.8093 24.68L55.8793 28.64L54.2893 26.9L58.1593 23L54.2893 19.1L55.8793 17.36L59.8093 21.32L63.7393 17.36L65.3593 19.1L61.4893 23Z" fill="#2F2F2F"/>
<path d="M13.8332 28.912V31H1.76117V29.368L8.60117 22.768C9.43317 21.968 9.99317 21.28 10.2812 20.704C10.5692 20.112 10.7132 19.52 10.7132 18.928C10.7132 18.048 10.4012 17.368 9.77717 16.888C9.16917 16.392 8.28917 16.144 7.13717 16.144C5.28117 16.144 3.84917 16.752 2.84117 17.968L1.20917 16.552C1.86517 15.752 2.72117 15.128 3.77717 14.68C4.84917 14.232 6.04117 14.008 7.35317 14.008C9.11317 14.008 10.5132 14.432 11.5532 15.28C12.5932 16.112 13.1132 17.248 13.1132 18.688C13.1132 19.584 12.9212 20.432 12.5372 21.232C12.1532 22.032 11.4252 22.944 10.3532 23.968L5.21717 28.912H13.8332Z" fill="#2F2F2F"/>
<path d="M33.9373 9.602C35.1013 9.746 35.9893 10.142 36.6013 10.79C37.2133 11.438 37.5193 12.248 37.5193 13.22C37.5193 13.952 37.3333 14.618 36.9613 15.218C36.5893 15.818 36.0253 16.298 35.2693 16.658C34.5253 17.006 33.6133 17.18 32.5332 17.18C31.6333 17.18 30.7633 17.054 29.9233 16.802C29.0953 16.538 28.3873 16.178 27.7993 15.722L28.8073 13.904C29.2633 14.288 29.8153 14.594 30.4633 14.822C31.1233 15.038 31.8013 15.146 32.4973 15.146C33.3253 15.146 33.9733 14.978 34.4413 14.642C34.9213 14.294 35.1613 13.826 35.1613 13.238C35.1613 12.65 34.9333 12.194 34.4773 11.87C34.0333 11.534 33.3493 11.366 32.4253 11.366H31.2733V9.764L34.1353 6.362H28.4113V4.4H36.9973V5.966L33.9373 9.602Z" fill="#2F2F2F"/>
<line x1="20.2734" y1="23.5" x2="46.2965" y2="23.5" stroke="#2F2F2F" stroke-linecap="round"/>
<path d="M31.5153 35.278C33.2913 35.278 34.6053 35.626 35.4573 36.322C36.3093 37.006 36.7353 37.942 36.7353 39.13C36.7353 39.886 36.5493 40.57 36.1773 41.182C35.8053 41.794 35.2473 42.28 34.5033 42.64C33.7593 43 32.8413 43.18 31.7493 43.18C30.8493 43.18 29.9793 43.054 29.1393 42.802C28.2993 42.538 27.5913 42.178 27.0153 41.722L28.0053 39.904C28.4733 40.288 29.0313 40.594 29.6793 40.822C30.3393 41.038 31.0173 41.146 31.7133 41.146C32.5413 41.146 33.1893 40.978 33.6573 40.642C34.1373 40.294 34.3773 39.82 34.3773 39.22C34.3773 38.572 34.1193 38.086 33.6033 37.762C33.0993 37.426 32.2293 37.258 30.9933 37.258H27.9513L28.5993 30.4H35.9973V32.362H30.5793L30.3093 35.278H31.5153Z" fill="#2F2F2F"/>
</svg>
