<svg width="100" height="100" viewBox="0 0 100 100" fill="none" xmlns="http://www.w3.org/2000/svg">
<path d="M65.2749 65.4625C65.0456 67.0529 64.0522 68.4918 62.6002 69.3249C61.9124 69.7035 61.1482 69.9307 60.3839 69.9307C59.6197 69.855 58.8555 69.5521 58.397 68.8705C58.9319 69.855 58.7791 71.1424 58.1677 72.1269C57.4035 73.3387 55.9515 74.2474 54.5759 74.0202C53.1239 73.793 51.9776 72.2784 52.2833 70.9152C51.9776 71.2939 51.3663 71.2939 50.8313 71.1424C50.2964 70.991 49.8378 70.688 49.5322 70.3094C48.8444 69.4763 48.6151 68.3404 48.7679 67.3558C48.6151 68.1889 48.3094 69.0977 47.6216 69.7035C46.9338 70.2336 45.7111 70.1579 45.329 69.4006C45.2526 70.2336 44.9469 70.991 44.3355 71.6726C43.8006 72.2784 42.9599 72.6571 42.1193 72.6571C41.2023 72.6571 40.3616 72.2027 39.6738 71.5968C39.2153 71.2182 38.7568 70.688 38.5275 70.1579C38.2983 69.5521 38.2983 68.8705 38.6804 68.3404C37.9926 69.2491 36.4641 69.5521 35.4707 69.0219C34.4772 68.4918 33.9422 67.2044 34.4008 66.1441C33.713 66.5228 32.8724 66.4471 32.261 65.9169C31.6496 65.4625 31.4204 64.6295 31.5732 63.8722C31.726 63.1149 32.261 62.4333 32.7959 61.9031C35.9292 58.5709 39.9795 56.2233 44.3355 55.0115C46.1696 54.5572 48.0037 54.2542 49.9143 54.33C51.3663 54.4057 52.8183 54.6329 54.2703 55.0115C56.945 55.6931 59.6197 56.6776 61.7595 58.4195C63.8993 60.1613 65.657 62.7362 65.2749 65.4625Z" fill="#A5D637"/>
<path d="M40.3616 69.78C40.438 70.083 40.7437 70.2344 41.0494 70.3102C41.89 70.4616 42.7307 70.2344 43.342 69.6286C43.9534 69.0984 44.3355 68.2654 44.2591 67.4323C45.1761 67.4323 46.0932 67.2809 46.8574 66.8265C47.6216 66.3721 48.233 65.4633 48.1566 64.5545C48.9972 65.539 50.0671 66.4478 51.4427 66.4478C52.8182 66.4478 54.1174 65.7662 54.8816 64.706C55.6458 65.9177 57.0978 66.5993 58.4734 66.675C59.9254 66.7508 61.301 66.1449 62.4473 65.3876C61.6067 63.6458 60.2311 62.2068 58.6263 61.0709C57.0214 60.0106 55.1109 59.329 53.2004 58.9504C51.8248 58.7232 50.4492 58.5717 49.0736 58.7989C45.9404 59.2533 43.2656 61.3738 41.0494 63.6458C40.3616 64.3273 39.7502 65.1604 39.521 66.0692C39.4446 67.3566 40.2088 68.5683 40.3616 69.78Z" fill="#88B625"/>
<path d="M58.0916 92.4994C57.7095 91.8936 56.8689 91.8178 56.1811 91.5906C54.6527 90.9848 53.812 89.3187 53.5828 87.6526C53.0478 84.6233 53.812 81.594 54.5763 78.6405C54.8819 77.3531 55.264 76.0656 55.5697 74.7782C55.799 73.7937 56.1047 72.7334 56.5632 71.7489C56.9453 70.9158 57.5567 70.1585 58.168 69.4012C59.0087 68.341 59.8493 67.2807 60.6899 66.2962C61.1485 65.7661 61.607 65.0088 61.1485 64.4786C59.62 66.5991 58.0916 68.7196 56.0283 70.2343C56.6396 68.1138 57.5567 65.9933 58.7794 64.1757C58.6266 63.8728 58.3973 63.5699 58.2445 63.2669C55.6462 68.1895 54.347 73.7179 52.6657 79.0192C52.5893 79.1706 52.5129 79.3221 52.4365 79.3221C52.2836 79.3221 52.2072 79.1706 52.1308 79.0192C51.9015 78.489 51.9015 77.9589 51.8251 77.4288C51.5958 75.687 51.443 73.9451 51.2901 72.2033C51.2137 71.446 51.2137 70.6129 51.3666 69.8556C51.5194 69.3255 51.6723 68.7953 51.9015 68.2652C52.9714 65.8418 54.0413 63.1912 55.1876 60.7678C55.0348 60.692 54.8055 60.6163 54.6527 60.4648C53.2007 62.8125 51.9779 65.236 50.908 67.7351C50.6788 68.1895 50.5259 68.7196 50.2967 69.174C50.2967 69.2497 50.2203 69.3255 50.1438 69.4012C49.991 69.4769 49.8381 69.2497 49.7617 69.0983C48.8447 66.5991 48.2333 63.8728 46.7049 61.6766C46.552 61.7523 46.4756 61.9037 46.3992 61.9795C48.2333 65.9933 49.456 70.2343 50.1438 74.6267C50.3731 76.2928 50.5259 77.8832 50.3731 79.5493C50.3731 80.0794 50.2967 80.5338 50.2203 81.0639C50.1438 81.2911 50.1438 81.594 49.991 81.7455C49.8381 81.897 49.6089 82.1242 49.3796 82.0484C49.2268 81.9727 49.0739 81.897 48.9975 81.7455C48.2333 80.9124 48.004 80.1551 47.6219 79.0949C47.3163 78.1104 46.7813 76.8229 46.4756 75.8384C46.2464 75.0811 46.0171 74.3238 45.7878 73.5665C45.7114 73.3393 45.635 73.1878 45.635 72.9606C45.635 72.6577 45.7114 72.3547 45.7878 72.1276C46.3992 69.6284 46.0171 67.0535 45.635 64.4786C45.4057 64.6301 45.3293 64.7816 45.1 64.8573C45.3293 66.6749 45.3293 68.5682 45.1765 70.3857C45.1765 70.6886 45.1 70.9916 44.9472 71.2188C44.8708 71.2945 44.7944 71.3702 44.6415 71.3702C44.4123 71.3702 44.3358 71.143 44.2594 70.9916C43.8009 69.7799 43.3424 68.5682 42.8838 67.3564C42.6546 67.4322 42.5017 67.5836 42.2725 67.7351C43.8009 73.0363 45.7878 78.2618 48.0805 83.3359C48.539 84.2446 48.9211 85.1534 49.2268 86.1379C49.456 87.1225 49.5325 88.1827 49.2268 89.0915C48.9211 89.8488 48.4626 90.5304 47.8512 91.0605C47.0106 91.9693 46.0171 92.7266 44.8708 93.1053C44.9472 93.5597 45.3293 93.7111 45.7114 93.6354C46.552 93.4839 47.2398 92.9538 48.004 92.8023C49.3032 92.5752 50.4495 93.4839 51.6723 93.7869C52.0544 93.8626 52.4365 93.9383 52.7421 93.7869C53.1243 93.6354 53.4299 93.3325 53.812 93.1053C54.8819 92.348 56.3339 92.6509 57.7095 92.8023C57.8624 92.8023 58.0916 92.8023 58.168 92.7266C58.168 92.6509 58.2445 92.4237 58.0916 92.4994Z" fill="#8C5F3B"/>
<path d="M43.8768 72.5069C44.7939 75.0061 45.7109 77.5052 46.7808 79.9286C47.0865 80.5345 47.3922 81.2161 47.7743 81.8219C48.2328 82.5035 48.8442 83.1851 49.2263 83.9424C49.4556 84.4725 49.6084 85.0027 49.6848 85.6085C49.8377 86.3658 49.9141 87.1989 49.7613 88.0319C49.532 89.2436 48.9206 90.4554 48.0036 91.3641C47.0865 92.2729 45.9402 92.803 44.7175 93.1817C45.8638 92.7273 46.8572 91.97 47.6979 91.1369C48.2328 90.5311 48.7678 89.9252 49.0735 89.1679C49.3791 88.2591 49.3791 87.1989 49.0735 86.2144C48.8442 85.2298 48.3857 84.3211 47.9271 83.4123C45.5581 78.414 43.6476 73.1885 42.1191 67.8115C42.272 67.963 42.272 68.1144 42.3484 68.2659C42.8069 69.6291 43.4183 71.1437 43.8768 72.5069Z" fill="#B39681"/>
<path d="M56.1806 40.0932C56.1806 39.866 56.4099 39.6388 56.5627 39.4873C57.2505 38.9572 58.0912 38.6543 58.9318 38.6543C59.7724 38.6543 60.6131 39.1087 61.0716 39.866C61.2244 40.1689 61.3008 40.5476 61.148 40.9263C61.5301 40.6991 62.0651 40.8505 62.2943 41.2292C62.5236 41.6078 62.4472 42.138 62.1415 42.4409C63.0585 42.0622 63.8227 41.835 64.8162 41.9865C65.8097 42.138 66.7267 42.6681 67.1853 43.5011C67.6438 44.3342 67.5674 45.4702 66.8796 46.1518C67.8731 45.9246 68.943 46.1518 69.6307 46.8333C70.395 47.5149 70.7006 48.5752 70.4714 49.5597C70.3185 50.1655 69.9364 50.7714 69.4015 50.9986C70.3185 51.3772 71.0063 52.0588 71.312 52.9676C71.4648 53.422 71.3884 54.1793 71.312 54.6337C71.2356 55.1638 71.0063 55.6182 70.7006 55.9969C70.0128 56.9814 69.1722 57.8145 68.2552 58.5718C68.1787 58.6475 68.0259 58.7232 67.8731 58.7232C67.6438 58.7232 67.5674 58.496 67.491 58.2688C66.4975 54.9366 65.4276 51.453 63.1349 48.8781C61.9886 47.5907 60.6131 46.6061 59.6196 45.3187C58.5497 44.0313 57.8619 42.4409 56.5627 41.3049C56.2571 41.002 55.9514 40.4719 56.1806 40.0932Z" fill="#88B625"/>
<path d="M38.1453 68.1896C38.451 69.5527 40.0559 70.5372 41.4314 70.1586C42.807 69.7799 43.7241 68.1138 43.2655 66.7507C43.1891 66.5235 43.1127 66.1448 43.4184 66.0691C43.4948 66.0691 43.5712 66.0691 43.6476 66.0691C44.7175 66.2963 45.7874 65.6147 46.3224 64.7059C46.8573 63.7971 46.9337 62.6611 46.9337 61.6009C47.2394 62.6611 48.2329 63.5699 49.3792 63.6456C50.5255 63.6456 51.5954 62.7369 51.5954 61.6009C51.9011 62.2067 52.2068 62.9641 52.8182 63.1913C53.4295 63.4184 54.1173 63.267 54.7287 63.0398C55.5693 62.7369 56.41 62.4339 56.9449 61.7523C57.0213 62.4339 57.1742 63.0398 57.6327 63.5699C58.0912 64.0243 59.0847 64.2515 59.5432 63.7971C60.0018 64.0243 60.4603 64.2515 60.8424 64.6302C61.2245 65.0088 61.4538 65.5389 61.3773 66.0691C61.3009 66.6749 61.5302 67.3565 61.9887 67.8109C62.4472 68.2653 63.135 68.4925 63.7464 68.2653C64.4342 68.0381 64.9691 67.4322 65.2748 66.8264C65.5041 66.372 65.6569 65.9176 65.6569 65.4632C65.6569 65.0088 65.5805 64.403 65.1984 64.1C65.4277 64.403 65.8862 64.6302 66.2683 64.6302C66.6504 64.6302 67.1089 64.4787 67.4146 64.1758C67.5674 64.0243 67.7203 63.8728 67.7967 63.7214C68.1024 63.1155 68.1788 62.3582 67.9495 61.7523C67.7203 61.1465 67.3382 60.6164 66.7268 60.3892C67.8731 61.1465 69.5544 60.6921 70.4714 59.5561C71.3885 58.4959 71.5413 56.9812 71.3885 55.6181C71.2357 54.4064 70.7771 53.1189 69.9365 52.2101C69.0959 51.3014 67.9495 50.7712 66.6504 50.847C67.491 50.3926 67.9495 49.2566 67.5674 48.3478C67.1853 47.439 66.039 46.9846 65.122 47.3633C65.4277 47.2876 65.6569 46.9846 65.7333 46.6817C65.8098 46.3788 65.8098 46.0759 65.7333 45.7729C65.5041 44.7127 64.7399 43.8796 63.7464 43.501C62.7529 43.1223 61.4538 43.198 60.6131 43.8039C60.6895 43.2738 60.6895 42.7436 60.4603 42.2893C60.231 41.8349 59.7725 41.6077 59.3904 41.4562C58.3205 41.0018 57.4799 40.7746 56.41 41.229C57.4034 40.9261 57.862 39.7144 57.5563 38.7299C57.1742 37.7453 56.3335 37.0638 55.3401 36.7608C54.3466 36.4579 53.3531 36.6094 52.3596 36.7608C51.5954 36.9123 50.8312 37.1395 50.2199 37.5939C49.6085 38.0483 49.0735 38.8056 48.8443 39.5629C48.7679 39.0328 48.3093 38.6541 47.7744 38.5027C47.3159 38.3512 46.7045 38.4269 46.246 38.5027C44.6411 38.8056 43.1891 39.7144 42.1192 41.0018C41.5843 41.6834 41.1257 42.5165 41.1257 43.4252C41.1257 44.1826 41.4314 44.9399 41.6607 45.6972C40.7436 45.9244 39.9794 46.5302 39.5973 47.3633C39.2152 48.1963 39.2916 49.1809 39.7502 50.0139C38.5274 50.0139 37.2283 50.0139 36.082 50.544C34.9356 51.0742 34.0186 52.1344 34.095 53.3461C33.2544 52.9675 32.2609 53.1946 31.6495 53.8005C31.0382 54.4064 30.8089 55.3909 31.191 56.1482C29.739 56.4511 28.9748 58.0415 29.1276 59.4804C29.2041 60.3134 29.739 61.2222 30.5796 61.2222C30.1211 62.2825 30.274 63.4942 31.1146 64.3272C31.9552 65.0845 33.4072 65.1603 34.1714 64.403C33.7893 65.3875 34.095 66.6749 34.9356 67.4322C35.7763 68.1138 37.0754 68.2653 38.0689 67.6594C37.9925 67.9624 38.0689 67.9624 38.1453 68.1896Z" fill="#A1D532"/>
<path d="M46.5519 54.1794C46.017 53.3464 46.017 52.2861 46.4755 51.3774C46.7812 50.8472 47.2397 50.4686 47.8511 50.3928C48.3861 50.3171 49.0738 50.5443 49.3031 51.0744C49.3031 50.1657 50.0673 49.3326 50.9844 49.0297C51.9014 48.8025 52.8949 49.0297 53.6591 49.4841C54.3469 49.9385 54.8818 50.6958 54.6526 51.4531C55.264 50.6958 56.3338 50.5443 57.1745 50.923C58.0151 51.3016 58.6265 52.3619 58.3208 53.1949C58.3208 52.6648 58.7029 52.0589 59.0086 51.6803C59.3907 51.3016 59.7728 50.9987 60.2313 50.7715C60.6899 50.5443 61.1484 50.2414 61.6833 50.1657C62.6004 50.0142 63.6703 50.3928 64.2816 51.1502C64.893 51.9075 64.9694 53.0435 64.5873 53.8765C64.893 53.6493 65.1987 53.8765 65.3515 54.1794C65.5044 54.4824 65.3515 54.861 65.0459 55.0882C65.5808 55.3154 66.2686 55.164 66.7271 54.7853C67.1856 54.4066 67.5677 53.8765 67.7206 53.2707C67.9499 52.6648 67.9499 51.9075 67.5677 51.3774C67.1856 50.8472 66.345 50.62 65.8865 50.9987C66.345 50.1657 66.2686 49.1811 65.8101 48.3481C65.3515 47.515 64.5873 46.9849 63.6703 46.682C62.6768 46.3033 61.5305 46.3791 60.537 46.8334C59.62 47.2878 58.8557 48.2724 58.8557 49.3326C58.8557 48.7267 58.0151 48.3481 57.4802 48.651C56.9452 48.9539 56.716 49.6355 56.716 50.2414C56.9452 49.8627 56.716 49.3326 56.4103 49.0297C56.0282 48.7267 55.4932 48.7267 55.1111 49.1054C55.3404 48.3481 54.4997 45.9247 51.2901 46.0761C50.2966 46.1519 49.2267 46.5305 48.6153 47.2878C48.2332 47.818 48.0804 48.5753 48.3861 49.1054C47.8511 48.2724 45.1764 48.3481 44.7178 51.3774C44.6414 51.756 45.0235 52.1347 45.4056 52.1347C44.9471 52.6648 45.0235 53.4979 45.4821 53.9522C45.9406 54.2552 46.2463 54.4066 46.5519 54.1794Z" fill="#88B625"/>
<path d="M40.6676 58.268C41.4318 57.8136 42.5017 57.8136 43.1895 58.4952C43.648 57.4349 44.7179 56.6776 45.8642 56.6776C47.0105 56.6019 48.1569 57.2835 48.6918 58.268C47.8512 58.3437 47.2398 59.0253 46.8577 59.7069C46.4756 60.4642 46.3992 61.2973 46.3228 62.0546C45.7878 61.7516 45.3293 61.5245 44.7179 61.373C44.183 61.2973 43.4952 61.2973 43.1131 61.6759C43.2659 61.5244 42.2724 60.5399 42.1196 60.4642C41.6611 60.1613 41.1261 59.9341 40.5147 59.8584C40.1326 59.8584 39.3684 60.0855 39.3684 59.5554C39.292 59.1768 40.2855 58.4952 40.6676 58.268Z" fill="#88B625"/>
<path d="M46.0161 65.0846C46.551 64.8574 46.8567 64.403 47.0095 63.8729C47.1624 63.3427 47.086 62.7369 46.9331 62.2068C46.7803 61.8281 46.6274 61.5252 46.3218 61.2222C45.7868 60.6921 45.0226 60.4649 44.2584 60.6921C43.9527 60.7679 43.647 60.9193 43.4942 61.2222C43.5706 60.4649 43.1121 59.7076 42.4243 59.329C41.8129 58.8746 40.9723 58.7988 40.2081 58.7988C38.9853 58.8746 37.6862 59.4047 36.8455 60.3135C36.0049 61.2222 35.6228 62.5854 36.0049 63.7971C36.3106 65.0088 37.3805 65.9934 38.6796 66.1448C38.0683 66.2963 37.5333 66.7507 37.3041 67.2808C37.0748 67.8867 37.0748 68.5682 37.3805 69.0984C37.6862 69.6285 38.374 70.0071 38.9089 69.7042C38.9089 70.0829 39.2146 70.4615 39.5967 70.613C40.0552 70.8402 40.6666 70.9159 41.1251 70.6887C41.5836 70.4615 41.8893 69.9314 41.8129 69.4013C40.9723 69.3256 40.2081 68.7954 39.9024 68.0381C39.5967 67.2808 39.826 66.372 40.3609 65.7662C39.6731 65.6904 39.1382 64.9331 39.0618 64.2515C38.9853 63.5699 39.4439 62.8126 39.9788 62.3582C40.5138 61.9038 41.278 61.6009 41.9658 61.6766C42.6535 61.7524 43.3413 62.3582 43.4178 63.0398C43.7999 62.2825 45.0226 62.131 45.7104 62.6612C46.3218 63.3427 46.3218 64.2515 46.0161 65.0846Z" fill="#BEE960"/>
<path d="M58.168 63.4936C58.4737 64.3267 59.3907 64.8568 60.2314 64.7053C61.072 64.5539 61.7598 63.7966 61.9126 62.9635C61.9891 62.1305 61.5305 61.2217 60.6899 60.843C61.2248 61.0702 61.9126 60.5401 61.8362 60.01C61.7598 59.4798 60.9956 59.1012 60.5371 59.4798C62.1419 59.0254 63.1354 57.2079 62.7533 55.6175C62.3712 54.0271 60.7663 52.8154 59.1615 52.8154C57.4802 52.8154 55.9518 53.7242 55.3404 55.2389C55.4168 54.1029 54.4998 53.0426 53.3535 52.9669C52.6657 52.8912 51.9779 53.2698 51.3665 53.7242C50.8316 54.1786 50.373 54.7087 50.1438 55.3903C49.9145 56.0719 50.0674 56.905 50.5259 57.4351C50.4495 57.0564 49.9909 56.8292 49.6088 56.905C49.2267 56.9807 48.9975 57.4351 49.0739 57.8137C48.6918 57.5108 48.1568 57.4351 47.6983 57.5865C47.2398 57.738 46.7813 57.9652 46.4756 58.3439C45.4821 59.4798 45.5585 61.3731 46.552 62.4334C46.9341 62.812 47.3926 63.115 47.9276 63.0392C47.1634 62.1305 47.5455 60.4643 48.3861 59.707C49.2267 58.874 50.6787 58.874 51.6722 59.4798C51.2901 58.7982 51.3665 57.8895 51.7486 57.2079C52.1307 56.5263 52.8949 56.0719 53.6592 55.9962C54.4234 55.9204 55.264 56.3748 55.3404 57.0564C55.264 56.2234 56.0282 55.6175 56.7924 55.3903C57.9387 55.0117 59.3143 55.6932 59.8493 56.7535C60.3842 57.8895 59.9257 59.3284 58.9322 59.9342C59.3907 59.8585 59.8493 60.2372 60.0021 60.6915C60.1549 61.1459 60.0785 61.6761 59.8493 62.0547C59.7728 62.7363 58.9322 63.3422 58.168 63.4936Z" fill="#BEE960"/>
<path d="M60.9189 41.1527C60.0018 40.0924 57.862 40.5468 57.0978 41.1527C58.0913 40.2439 58.4734 38.7292 58.0913 37.4418C57.7092 36.1544 56.7157 35.0184 55.493 34.4883C54.2702 33.8824 52.8182 33.8067 51.5191 34.1096C49.9907 34.4125 48.6151 35.3213 48.3094 36.9117C48.233 36.3815 47.6216 36.0786 47.1631 36.2301C46.6281 36.3815 46.3225 36.8359 46.246 37.2903C46.0932 37.7447 46.246 38.2748 46.4753 38.7292C46.0932 38.0476 45.329 37.8205 44.5648 37.7447C42.8835 37.669 41.3551 38.7292 40.6673 40.2439C39.9795 41.7585 40.2088 43.5761 41.0494 45.015C40.7437 44.7878 40.2852 44.7878 39.9031 44.9392C39.521 45.0907 39.2917 45.3936 39.0625 45.7723C38.7568 46.3024 38.6803 46.984 38.8332 47.5899C38.986 48.1957 39.1389 48.8016 39.5974 49.1802C39.4446 48.8773 38.986 48.6501 38.6803 48.8016C38.3747 48.953 38.069 49.256 38.2218 49.6346C38.2218 49.256 37.8397 49.0288 37.534 48.8773C37.1519 48.7258 36.7698 48.8016 36.3877 48.8016C35.6235 48.953 34.9357 49.256 34.4772 49.8618C34.0187 50.4677 33.8658 51.4522 34.0951 52.1338C33.2545 50.8463 31.3439 50.6949 30.0448 51.5279C28.822 52.361 28.2107 53.9513 28.3635 55.466C28.4399 55.9204 28.5928 56.4505 28.9749 56.602C28.0578 57.3593 27.7521 58.7224 28.2107 59.8584C28.6692 60.9944 29.8155 61.7517 30.9618 61.7517C30.3505 61.2216 29.9683 60.2371 29.9683 59.404C29.9683 58.571 30.3505 57.7379 30.9618 57.2078C31.4203 56.8292 32.1081 56.602 32.5667 56.9806C31.9553 56.299 31.8789 55.0873 32.5667 54.4057C33.3309 53.5727 34.63 53.6484 35.165 54.4057C34.7065 53.7241 34.9357 52.8154 35.3942 52.1338C35.8528 51.4522 36.617 50.9978 37.3812 50.6949C37.9161 50.4677 38.6039 50.3162 39.1389 50.3919C39.7502 50.4677 40.3616 50.6949 40.7437 51.225C40.2852 50.1647 39.9795 48.953 40.2852 47.8928C40.5909 46.7568 41.7372 45.848 42.8835 46.151C42.1193 45.015 42.1193 43.5003 42.8071 42.3644C43.4949 41.2284 44.8705 40.4711 46.1696 40.6225C47.0867 40.6983 48.0801 41.2284 48.233 42.0614C48.3094 40.774 49.3793 39.7895 50.5256 39.2594C51.6719 38.7292 53.0475 38.6535 54.1174 39.2594C55.1873 39.8652 55.9515 41.1527 55.5694 42.3644C56.41 41.607 57.862 41.607 58.7791 42.2129C59.7726 42.8188 60.3075 44.0305 60.2311 45.1664C60.766 44.8635 62.5237 43.046 60.9189 41.1527Z" fill="#BEE960"/>
<path d="M54.1945 51.7555C53.8889 51.3768 53.736 50.9224 53.8124 50.468C53.8889 50.0136 54.1946 49.5592 54.6531 49.4835C55.1116 49.4078 55.6466 49.7864 55.5701 50.2408C55.6466 49.7864 56.0287 49.4078 56.4872 49.332C56.9457 49.332 57.4042 49.7107 57.4042 50.1651C57.4042 50.6195 57.0221 50.9981 56.64 51.3011C56.7929 51.2253 57.0221 51.3768 57.0221 51.604C57.0221 51.8312 56.8693 51.9826 56.7929 52.1341C56.64 52.2856 56.4872 52.5128 56.3343 52.6642C56.1815 52.8157 56.0287 52.9672 55.7994 53.0429C55.188 53.1186 54.5002 52.1341 54.1945 51.7555Z" fill="#BEE960"/>
<path d="M38.4511 46.3021C38.4511 46.1507 38.4511 45.9235 38.3747 45.772C38.2983 45.6205 38.069 45.5448 37.9162 45.6205C37.8397 45.6963 37.7633 45.772 37.7633 45.8477C37.6869 45.9992 37.6869 46.2264 37.8397 46.3778C37.6869 46.2264 37.4576 46.1507 37.3048 46.1507C37.0755 46.1507 36.8463 46.2264 36.7698 46.3778C36.617 46.605 36.6934 46.8322 36.8463 47.0594C36.9991 47.2109 37.3048 47.2866 37.534 47.2866C37.3048 47.3624 37.3048 47.5896 37.4576 47.6653C37.6105 47.741 37.7633 47.8168 37.9926 47.741C38.4511 47.741 38.7568 48.044 38.6039 47.5896C38.3747 47.2109 38.4511 46.6808 38.4511 46.3021Z" fill="#BEE960"/>
<path d="M64.8165 40.3963C64.8929 40.2448 64.9693 40.0176 64.8165 39.7904C64.7401 39.7147 64.6636 39.639 64.5108 39.5633C64.2815 39.4875 63.9758 39.5633 63.823 39.7904C64.0523 39.639 64.0523 39.2603 63.823 39.1089C63.5937 38.8817 63.2116 38.9574 62.9824 39.1846C62.7531 39.4118 62.7531 39.7904 62.9824 40.0176C62.7531 39.9419 62.6003 40.1691 62.5238 40.3963C62.4474 40.6235 62.5238 40.8507 62.6003 41.0022C62.6767 41.2294 62.8295 41.3808 62.9824 41.5323C62.9824 41.608 63.0588 41.8352 62.9824 41.9109C62.6767 42.4411 64.6636 40.775 64.8165 40.3963Z" fill="#88B625"/>
<path d="M65.5806 41.5323C65.8863 41.5323 66.2684 41.608 66.5741 41.3808C66.7269 41.3051 66.8798 41.0779 66.8034 40.9264C66.7269 40.775 66.5741 40.6992 66.4212 40.6992C66.2684 40.6992 66.1156 40.6992 65.9627 40.775C65.657 40.8507 64.8928 41.0779 64.8164 41.4565C65.1221 41.4565 65.3514 41.4565 65.5806 41.5323Z" fill="#88B625"/>
<path d="M69.0962 63.948C69.249 64.0995 69.4019 64.1752 69.5547 64.1752C69.784 64.1752 70.0132 63.948 70.0897 63.7208C70.1661 63.4936 70.0897 63.1907 70.0132 62.9635C70.3189 63.0392 70.701 62.8878 70.7774 62.5848C70.9303 62.2819 70.8539 61.9032 70.6246 61.7518C70.3953 61.5246 70.0132 61.4488 69.7075 61.6003C69.8604 61.6003 69.9368 61.4488 69.9368 61.2974C69.8604 61.1459 69.7075 61.0702 69.6311 61.0702C69.3254 60.9945 67.5678 60.843 67.8734 61.0702C68.2555 61.3731 68.4084 61.6003 68.5612 61.8275C68.8669 62.4334 68.5612 63.4179 69.0962 63.948Z" fill="#A1D532"/>
<path d="M68.2554 64.0244C68.0261 64.4031 67.8733 64.7817 67.7969 65.1604C67.7969 65.3119 67.7969 65.5391 67.9497 65.6148C68.1026 65.6905 68.2554 65.6148 68.3318 65.4633C68.4082 65.3876 68.4082 65.2361 68.4082 65.0847C68.4082 64.7817 68.4082 64.4031 68.2554 64.0244C68.179 64.1001 68.179 64.1759 68.1026 64.2516L68.2554 64.0244Z" fill="#A1D532"/>
<path d="M71.8468 60.3126C71.9232 60.2369 71.9997 60.1611 71.9997 60.0097C71.9997 59.8582 71.8468 59.7068 71.6176 59.7068C71.4647 59.7068 71.3119 59.7825 71.159 59.8582C71.3119 59.7825 71.3883 59.7068 71.5411 59.5553C71.6176 59.4796 71.6176 59.4796 71.6176 59.4038C71.6176 59.3281 71.5411 59.3281 71.4647 59.2524C71.2355 59.1766 71.0062 59.2524 70.8533 59.4038C70.7005 59.5553 70.5477 59.7825 70.3948 59.934C70.242 60.0854 70.0891 60.2369 69.8599 60.3883C69.7834 60.4641 69.707 60.5398 69.707 60.6155C69.8599 60.8427 70.4712 60.8427 70.7005 60.8427C71.2355 60.8427 71.6176 60.6155 71.8468 60.3126Z" fill="#A1D532"/>
<path d="M33.5601 66.8266C33.5601 66.978 33.6366 67.1295 33.6366 67.3567C33.6366 67.5081 33.4837 67.6596 33.3309 67.7353C33.178 67.7353 33.0252 67.5839 32.9488 67.4324C32.8724 67.281 32.9488 67.1295 32.9488 66.9023C32.7959 66.978 32.6431 67.0538 32.4903 67.0538C32.3374 66.978 32.1846 66.8266 32.1846 66.6751C32.1846 66.5236 32.261 66.2964 32.3374 66.145C32.4903 65.842 32.7959 65.5391 33.0252 65.3119C33.4837 65.009 33.6366 65.0847 33.6366 65.4634C33.6366 65.9178 33.4837 66.3722 33.5601 66.8266Z" fill="#A1D532"/>
<path d="M44.106 53.3452C43.9532 53.5724 43.8768 53.7996 43.7239 53.951C43.5711 54.1025 43.189 54.1025 43.1126 53.8753C43.0361 53.7996 43.0361 53.7238 43.0361 53.6481C43.0361 53.4209 43.1126 53.118 43.4182 53.0423C43.2654 53.118 43.0361 52.8908 43.1126 52.7393C43.189 52.5879 43.3418 52.4364 43.4947 52.3607C43.8003 52.2092 45.4052 52.2092 45.0231 52.3607C44.4881 52.5879 44.3353 53.0423 44.106 53.3452Z" fill="#88B625"/>
<path d="M42.2722 52.9673C41.8137 53.1187 41.4316 53.4217 41.2788 53.8003C41.1259 54.2547 41.2788 54.7848 41.6609 55.012C41.1259 55.1635 40.6674 55.6936 40.7438 56.2237C40.8202 56.7539 41.2788 57.2083 41.8137 57.284C41.6609 57.8141 41.1259 58.0413 40.591 58.0413C40.056 58.0413 39.5975 57.7384 39.2918 57.284C39.0626 57.0568 38.9861 56.6781 38.9861 56.3752C38.9861 56.0723 39.2154 55.7694 39.5211 55.6179C38.7569 55.5422 38.1455 54.7848 38.1455 54.0275C38.1455 53.2702 38.7569 52.5886 39.4447 52.2857C39.7503 52.21 40.056 52.1342 40.2853 52.2857C40.591 52.3614 40.8202 52.5886 40.8967 52.8915C40.8967 52.5129 41.2024 52.21 41.5845 52.21C41.9666 52.2857 42.2722 52.5886 42.2722 52.9673Z" fill="#BEE960"/>
<path d="M57.2506 62.8129C57.4034 62.5099 57.4034 62.207 57.2506 61.9041C57.0978 61.6012 56.7921 61.4497 56.4864 61.374C56.1807 61.2982 55.7986 61.4497 55.5693 61.6012C55.4929 61.6769 55.4165 61.6769 55.3401 61.7526C55.4165 61.4497 55.1872 61.071 54.8816 60.9196C54.5759 60.7681 54.1938 60.8438 53.8881 60.9953C53.6588 61.1468 53.4296 61.2982 53.3531 61.5254C53.2003 61.7526 53.2003 62.0555 53.2767 62.2827C53.1239 62.2827 52.8946 62.3585 52.8182 62.5099C52.7418 62.6614 52.7418 62.8886 52.8946 62.9643C52.6653 63.2673 52.2832 63.4187 51.9775 63.2673C51.8247 63.1915 51.7483 63.1158 51.5954 63.0401C51.4426 62.8886 51.3662 62.7371 51.2898 62.5857C51.1369 62.1313 51.4426 61.6012 51.9011 61.374C51.9775 61.2982 52.1304 61.2982 52.2068 61.2982C52.2832 61.2982 52.4361 61.374 52.4361 61.4497C52.3597 61.4497 52.3597 61.374 52.3597 61.374C52.1304 60.9196 52.2832 60.3894 52.5889 60.0108C52.8946 59.6321 53.3531 59.4049 53.8117 59.2535C54.2702 59.102 54.8816 59.1777 55.2637 59.4807C55.7222 59.7836 55.9514 60.3137 55.7222 60.7681C55.7986 60.4652 56.1043 60.3137 56.41 60.238C56.8685 60.1622 57.327 60.238 57.7091 60.5409C58.0912 60.8438 58.3205 61.2982 58.3205 61.7526C58.3205 62.0555 58.2441 62.3585 58.0148 62.5857C57.862 62.7371 57.5563 62.8129 57.2506 62.8129Z" fill="#BEE960"/>
</svg>
