<svg width="360" height="100" viewBox="0 0 360 100" fill="none" xmlns="http://www.w3.org/2000/svg">
<path d="M65.2749 65.4625C65.0456 67.0529 64.0522 68.4918 62.6002 69.3249C61.9124 69.7035 61.1482 69.9307 60.3839 69.9307C59.6197 69.855 58.8555 69.5521 58.397 68.8705C58.9319 69.855 58.7791 71.1424 58.1677 72.1269C57.4035 73.3387 55.9515 74.2474 54.5759 74.0202C53.1239 73.793 51.9776 72.2784 52.2833 70.9152C51.9776 71.2939 51.3663 71.2939 50.8313 71.1424C50.2964 70.991 49.8378 70.688 49.5322 70.3094C48.8444 69.4763 48.6151 68.3404 48.7679 67.3558C48.6151 68.1889 48.3094 69.0977 47.6216 69.7035C46.9338 70.2336 45.7111 70.1579 45.329 69.4006C45.2526 70.2336 44.9469 70.991 44.3355 71.6726C43.8006 72.2784 42.9599 72.6571 42.1193 72.6571C41.2023 72.6571 40.3616 72.2027 39.6738 71.5968C39.2153 71.2182 38.7568 70.688 38.5275 70.1579C38.2983 69.5521 38.2983 68.8705 38.6804 68.3404C37.9926 69.2491 36.4641 69.5521 35.4707 69.0219C34.4772 68.4918 33.9422 67.2044 34.4008 66.1441C33.713 66.5228 32.8724 66.4471 32.261 65.9169C31.6496 65.4625 31.4204 64.6295 31.5732 63.8722C31.726 63.1149 32.261 62.4333 32.7959 61.9031C35.9292 58.5709 39.9795 56.2233 44.3355 55.0115C46.1696 54.5572 48.0037 54.2542 49.9143 54.33C51.3663 54.4057 52.8183 54.6329 54.2703 55.0115C56.945 55.6931 59.6197 56.6776 61.7595 58.4195C63.8993 60.1613 65.657 62.7362 65.2749 65.4625Z" fill="#A5D637"/>
<path d="M40.3616 69.78C40.438 70.083 40.7437 70.2344 41.0494 70.3102C41.89 70.4616 42.7307 70.2344 43.342 69.6286C43.9534 69.0984 44.3355 68.2654 44.2591 67.4323C45.1761 67.4323 46.0932 67.2809 46.8574 66.8265C47.6216 66.3721 48.233 65.4633 48.1566 64.5545C48.9972 65.539 50.0671 66.4478 51.4427 66.4478C52.8182 66.4478 54.1174 65.7662 54.8816 64.706C55.6458 65.9177 57.0978 66.5993 58.4734 66.675C59.9254 66.7508 61.301 66.1449 62.4473 65.3876C61.6067 63.6458 60.2311 62.2068 58.6263 61.0709C57.0214 60.0106 55.1109 59.329 53.2004 58.9504C51.8248 58.7232 50.4492 58.5717 49.0736 58.7989C45.9404 59.2533 43.2656 61.3738 41.0494 63.6458C40.3616 64.3273 39.7502 65.1604 39.521 66.0692C39.4446 67.3566 40.2088 68.5683 40.3616 69.78Z" fill="#88B625"/>
<path d="M58.0916 92.4994C57.7095 91.8936 56.8689 91.8178 56.1811 91.5906C54.6527 90.9848 53.812 89.3187 53.5828 87.6526C53.0478 84.6233 53.812 81.594 54.5763 78.6405C54.8819 77.3531 55.264 76.0656 55.5697 74.7782C55.799 73.7937 56.1047 72.7334 56.5632 71.7489C56.9453 70.9158 57.5567 70.1585 58.168 69.4012C59.0087 68.341 59.8493 67.2807 60.6899 66.2962C61.1485 65.7661 61.607 65.0088 61.1485 64.4786C59.62 66.5991 58.0916 68.7196 56.0283 70.2343C56.6396 68.1138 57.5567 65.9933 58.7794 64.1757C58.6266 63.8728 58.3973 63.5699 58.2445 63.2669C55.6462 68.1895 54.347 73.7179 52.6657 79.0192C52.5893 79.1706 52.5129 79.3221 52.4365 79.3221C52.2836 79.3221 52.2072 79.1706 52.1308 79.0192C51.9015 78.489 51.9015 77.9589 51.8251 77.4288C51.5958 75.687 51.443 73.9451 51.2901 72.2033C51.2137 71.446 51.2137 70.6129 51.3666 69.8556C51.5194 69.3255 51.6723 68.7953 51.9015 68.2652C52.9714 65.8418 54.0413 63.1912 55.1876 60.7678C55.0348 60.692 54.8055 60.6163 54.6527 60.4648C53.2007 62.8125 51.9779 65.236 50.908 67.7351C50.6788 68.1895 50.5259 68.7196 50.2967 69.174C50.2967 69.2497 50.2203 69.3255 50.1438 69.4012C49.991 69.4769 49.8381 69.2497 49.7617 69.0983C48.8447 66.5991 48.2333 63.8728 46.7049 61.6766C46.552 61.7523 46.4756 61.9037 46.3992 61.9795C48.2333 65.9933 49.456 70.2343 50.1438 74.6267C50.3731 76.2928 50.5259 77.8832 50.3731 79.5493C50.3731 80.0794 50.2967 80.5338 50.2203 81.0639C50.1438 81.2911 50.1438 81.594 49.991 81.7455C49.8381 81.897 49.6089 82.1242 49.3796 82.0484C49.2268 81.9727 49.0739 81.897 48.9975 81.7455C48.2333 80.9124 48.004 80.1551 47.6219 79.0949C47.3163 78.1104 46.7813 76.8229 46.4756 75.8384C46.2464 75.0811 46.0171 74.3238 45.7878 73.5665C45.7114 73.3393 45.635 73.1878 45.635 72.9606C45.635 72.6577 45.7114 72.3547 45.7878 72.1276C46.3992 69.6284 46.0171 67.0535 45.635 64.4786C45.4057 64.6301 45.3293 64.7816 45.1 64.8573C45.3293 66.6749 45.3293 68.5682 45.1765 70.3857C45.1765 70.6886 45.1 70.9916 44.9472 71.2188C44.8708 71.2945 44.7944 71.3702 44.6415 71.3702C44.4123 71.3702 44.3358 71.143 44.2594 70.9916C43.8009 69.7799 43.3424 68.5682 42.8838 67.3564C42.6546 67.4322 42.5017 67.5836 42.2725 67.7351C43.8009 73.0363 45.7878 78.2618 48.0805 83.3359C48.539 84.2446 48.9211 85.1534 49.2268 86.1379C49.456 87.1225 49.5325 88.1827 49.2268 89.0915C48.9211 89.8488 48.4626 90.5304 47.8512 91.0605C47.0106 91.9693 46.0171 92.7266 44.8708 93.1053C44.9472 93.5597 45.3293 93.7111 45.7114 93.6354C46.552 93.4839 47.2398 92.9538 48.004 92.8023C49.3032 92.5752 50.4495 93.4839 51.6723 93.7869C52.0544 93.8626 52.4365 93.9383 52.7421 93.7869C53.1243 93.6354 53.4299 93.3325 53.812 93.1053C54.8819 92.348 56.3339 92.6509 57.7095 92.8023C57.8624 92.8023 58.0916 92.8024 58.168 92.7266C58.168 92.6509 58.2445 92.4237 58.0916 92.4994Z" fill="#8C5F3B"/>
<path d="M43.8768 72.5069C44.7939 75.0061 45.7109 77.5052 46.7808 79.9286C47.0865 80.5345 47.3922 81.2161 47.7743 81.8219C48.2328 82.5035 48.8442 83.1851 49.2263 83.9424C49.4556 84.4725 49.6084 85.0027 49.6848 85.6085C49.8377 86.3658 49.9141 87.1989 49.7613 88.0319C49.532 89.2436 48.9206 90.4553 48.0036 91.3641C47.0865 92.2729 45.9402 92.803 44.7175 93.1817C45.8638 92.7273 46.8572 91.97 47.6979 91.1369C48.2328 90.5311 48.7678 89.9252 49.0735 89.1679C49.3791 88.2591 49.3791 87.1989 49.0735 86.2144C48.8442 85.2298 48.3857 84.3211 47.9271 83.4123C45.5581 78.414 43.6476 73.1885 42.1191 67.8115C42.272 67.963 42.272 68.1144 42.3484 68.2659C42.8069 69.6291 43.4183 71.1437 43.8768 72.5069Z" fill="#B39681"/>
<path d="M56.1806 40.0932C56.1806 39.866 56.4099 39.6388 56.5627 39.4873C57.2505 38.9572 58.0912 38.6543 58.9318 38.6543C59.7724 38.6543 60.6131 39.1087 61.0716 39.866C61.2244 40.1689 61.3008 40.5476 61.148 40.9263C61.5301 40.6991 62.0651 40.8505 62.2943 41.2292C62.5236 41.6078 62.4472 42.138 62.1415 42.4409C63.0585 42.0622 63.8227 41.835 64.8162 41.9865C65.8097 42.138 66.7267 42.6681 67.1853 43.5011C67.6438 44.3342 67.5674 45.4702 66.8796 46.1518C67.8731 45.9246 68.943 46.1518 69.6307 46.8333C70.395 47.5149 70.7006 48.5752 70.4714 49.5597C70.3185 50.1655 69.9364 50.7714 69.4015 50.9986C70.3185 51.3772 71.0063 52.0588 71.312 52.9676C71.4648 53.422 71.3884 54.1793 71.312 54.6337C71.2356 55.1638 71.0063 55.6182 70.7006 55.9969C70.0128 56.9814 69.1722 57.8145 68.2552 58.5718C68.1787 58.6475 68.0259 58.7232 67.8731 58.7232C67.6438 58.7232 67.5674 58.496 67.491 58.2688C66.4975 54.9366 65.4276 51.453 63.1349 48.8781C61.9886 47.5907 60.6131 46.6061 59.6196 45.3187C58.5497 44.0313 57.8619 42.4409 56.5627 41.3049C56.2571 41.002 55.9514 40.4719 56.1806 40.0932Z" fill="#88B625"/>
<path d="M38.1453 68.1896C38.451 69.5527 40.0559 70.5372 41.4314 70.1586C42.807 69.7799 43.7241 68.1138 43.2655 66.7507C43.1891 66.5235 43.1127 66.1448 43.4184 66.0691C43.4948 66.0691 43.5712 66.0691 43.6476 66.0691C44.7175 66.2963 45.7874 65.6147 46.3224 64.7059C46.8573 63.7971 46.9337 62.6611 46.9337 61.6009C47.2394 62.6611 48.2329 63.5699 49.3792 63.6456C50.5255 63.6456 51.5954 62.7369 51.5954 61.6009C51.9011 62.2067 52.2068 62.9641 52.8182 63.1913C53.4295 63.4184 54.1173 63.267 54.7287 63.0398C55.5693 62.7369 56.41 62.4339 56.9449 61.7523C57.0213 62.4339 57.1742 63.0398 57.6327 63.5699C58.0912 64.0243 59.0847 64.2515 59.5432 63.7971C60.0018 64.0243 60.4603 64.2515 60.8424 64.6302C61.2245 65.0088 61.4538 65.5389 61.3773 66.0691C61.3009 66.6749 61.5302 67.3565 61.9887 67.8109C62.4472 68.2653 63.135 68.4925 63.7464 68.2653C64.4342 68.0381 64.9691 67.4322 65.2748 66.8264C65.5041 66.372 65.6569 65.9176 65.6569 65.4632C65.6569 65.0088 65.5805 64.403 65.1984 64.1C65.4277 64.403 65.8862 64.6302 66.2683 64.6302C66.6504 64.6302 67.1089 64.4787 67.4146 64.1758C67.5674 64.0243 67.7203 63.8728 67.7967 63.7214C68.1024 63.1155 68.1788 62.3582 67.9495 61.7523C67.7203 61.1465 67.3382 60.6164 66.7268 60.3892C67.8731 61.1465 69.5544 60.6921 70.4714 59.5561C71.3885 58.4959 71.5413 56.9812 71.3885 55.6181C71.2357 54.4064 70.7771 53.1189 69.9365 52.2101C69.0959 51.3014 67.9495 50.7712 66.6504 50.847C67.491 50.3926 67.9495 49.2566 67.5674 48.3478C67.1853 47.439 66.039 46.9846 65.122 47.3633C65.4277 47.2876 65.6569 46.9846 65.7333 46.6817C65.8098 46.3788 65.8098 46.0759 65.7333 45.7729C65.5041 44.7127 64.7399 43.8796 63.7464 43.501C62.7529 43.1223 61.4538 43.198 60.6131 43.8039C60.6895 43.2738 60.6895 42.7436 60.4603 42.2893C60.231 41.8349 59.7725 41.6077 59.3904 41.4562C58.3205 41.0018 57.4799 40.7746 56.41 41.229C57.4034 40.9261 57.862 39.7144 57.5563 38.7299C57.1742 37.7453 56.3335 37.0638 55.3401 36.7608C54.3466 36.4579 53.3531 36.6094 52.3596 36.7608C51.5954 36.9123 50.8312 37.1395 50.2199 37.5939C49.6085 38.0483 49.0735 38.8056 48.8443 39.5629C48.7679 39.0328 48.3093 38.6541 47.7744 38.5027C47.3159 38.3512 46.7045 38.4269 46.246 38.5027C44.6411 38.8056 43.1891 39.7144 42.1192 41.0018C41.5843 41.6834 41.1257 42.5165 41.1257 43.4252C41.1257 44.1826 41.4314 44.9399 41.6607 45.6972C40.7436 45.9244 39.9794 46.5302 39.5973 47.3633C39.2152 48.1963 39.2916 49.1809 39.7502 50.0139C38.5274 50.0139 37.2283 50.0139 36.082 50.544C34.9356 51.0742 34.0186 52.1344 34.095 53.3461C33.2544 52.9675 32.2609 53.1946 31.6495 53.8005C31.0382 54.4064 30.8089 55.3909 31.191 56.1482C29.739 56.4511 28.9748 58.0415 29.1276 59.4804C29.2041 60.3134 29.739 61.2222 30.5796 61.2222C30.1211 62.2825 30.274 63.4942 31.1146 64.3272C31.9552 65.0845 33.4072 65.1603 34.1714 64.403C33.7893 65.3875 34.095 66.6749 34.9356 67.4322C35.7763 68.1138 37.0754 68.2653 38.0689 67.6594C37.9925 67.9624 38.0689 67.9624 38.1453 68.1896Z" fill="#A1D532"/>
<path d="M46.5519 54.1794C46.017 53.3464 46.017 52.2861 46.4755 51.3774C46.7812 50.8472 47.2397 50.4686 47.8511 50.3928C48.3861 50.3171 49.0738 50.5443 49.3031 51.0744C49.3031 50.1657 50.0673 49.3326 50.9844 49.0297C51.9014 48.8025 52.8949 49.0297 53.6591 49.4841C54.3469 49.9385 54.8818 50.6958 54.6526 51.4531C55.264 50.6958 56.3338 50.5443 57.1745 50.923C58.0151 51.3016 58.6265 52.3619 58.3208 53.1949C58.3208 52.6648 58.7029 52.0589 59.0086 51.6803C59.3907 51.3016 59.7728 50.9987 60.2313 50.7715C60.6899 50.5443 61.1484 50.2414 61.6833 50.1657C62.6004 50.0142 63.6703 50.3928 64.2816 51.1502C64.893 51.9075 64.9694 53.0435 64.5873 53.8765C64.893 53.6493 65.1987 53.8765 65.3515 54.1794C65.5044 54.4824 65.3515 54.861 65.0459 55.0882C65.5808 55.3154 66.2686 55.164 66.7271 54.7853C67.1856 54.4066 67.5677 53.8765 67.7206 53.2707C67.9499 52.6648 67.9499 51.9075 67.5677 51.3774C67.1856 50.8472 66.345 50.62 65.8865 50.9987C66.345 50.1657 66.2686 49.1811 65.8101 48.3481C65.3515 47.515 64.5873 46.9849 63.6703 46.682C62.6768 46.3033 61.5305 46.3791 60.537 46.8334C59.62 47.2878 58.8557 48.2724 58.8557 49.3326C58.8557 48.7267 58.0151 48.3481 57.4802 48.651C56.9452 48.9539 56.716 49.6355 56.716 50.2414C56.9452 49.8627 56.716 49.3326 56.4103 49.0297C56.0282 48.7267 55.4932 48.7267 55.1111 49.1054C55.3404 48.3481 54.4997 45.9247 51.2901 46.0761C50.2966 46.1519 49.2267 46.5305 48.6153 47.2878C48.2332 47.818 48.0804 48.5753 48.3861 49.1054C47.8511 48.2724 45.1764 48.3481 44.7178 51.3774C44.6414 51.756 45.0235 52.1347 45.4056 52.1347C44.9471 52.6648 45.0235 53.4979 45.4821 53.9522C45.9406 54.2552 46.2463 54.4066 46.5519 54.1794Z" fill="#88B625"/>
<path d="M40.6675 58.268C41.4317 57.8136 42.5016 57.8136 43.1894 58.4952C43.648 57.4349 44.7178 56.6776 45.8642 56.6776C47.0105 56.6019 48.1568 57.2835 48.6917 58.268C47.8511 58.3437 47.2397 59.0253 46.8576 59.7069C46.4755 60.4642 46.3991 61.2973 46.3227 62.0546C45.7877 61.7516 45.3292 61.5245 44.7178 61.373C44.1829 61.2973 43.4951 61.2973 43.113 61.6759C43.2658 61.5244 42.2724 60.5399 42.1195 60.4642C41.661 60.1613 41.1261 59.9341 40.5147 59.8584C40.1326 59.8584 39.3684 60.0855 39.3684 59.5554C39.2919 59.1768 40.2854 58.4952 40.6675 58.268Z" fill="#88B625"/>
<path d="M46.0161 65.0846C46.551 64.8574 46.8567 64.403 47.0095 63.8729C47.1624 63.3427 47.086 62.7369 46.9331 62.2068C46.7803 61.8281 46.6274 61.5252 46.3218 61.2222C45.7868 60.6921 45.0226 60.4649 44.2584 60.6921C43.9527 60.7679 43.647 60.9193 43.4942 61.2222C43.5706 60.4649 43.1121 59.7076 42.4243 59.329C41.8129 58.8746 40.9723 58.7988 40.2081 58.7988C38.9853 58.8746 37.6862 59.4047 36.8455 60.3135C36.0049 61.2222 35.6228 62.5854 36.0049 63.7971C36.3106 65.0088 37.3805 65.9934 38.6796 66.1448C38.0683 66.2963 37.5333 66.7507 37.3041 67.2808C37.0748 67.8867 37.0748 68.5682 37.3805 69.0984C37.6862 69.6285 38.374 70.0071 38.9089 69.7042C38.9089 70.0829 39.2146 70.4615 39.5967 70.613C40.0552 70.8402 40.6666 70.9159 41.1251 70.6887C41.5836 70.4615 41.8893 69.9314 41.8129 69.4013C40.9723 69.3256 40.2081 68.7954 39.9024 68.0381C39.5967 67.2808 39.826 66.372 40.3609 65.7662C39.6731 65.6904 39.1382 64.9331 39.0618 64.2515C38.9853 63.5699 39.4439 62.8126 39.9788 62.3582C40.5138 61.9038 41.278 61.6009 41.9658 61.6766C42.6535 61.7524 43.3413 62.3582 43.4178 63.0398C43.7999 62.2825 45.0226 62.131 45.7104 62.6612C46.3218 63.3427 46.3218 64.2515 46.0161 65.0846Z" fill="#BEE960"/>
<path d="M58.168 63.4936C58.4737 64.3267 59.3907 64.8568 60.2314 64.7053C61.072 64.5539 61.7598 63.7966 61.9126 62.9635C61.9891 62.1305 61.5305 61.2217 60.6899 60.843C61.2248 61.0702 61.9126 60.5401 61.8362 60.01C61.7598 59.4798 60.9956 59.1012 60.5371 59.4798C62.1419 59.0254 63.1354 57.2079 62.7533 55.6175C62.3712 54.0271 60.7663 52.8154 59.1615 52.8154C57.4802 52.8154 55.9518 53.7242 55.3404 55.2389C55.4168 54.1029 54.4998 53.0426 53.3535 52.9669C52.6657 52.8912 51.9779 53.2698 51.3665 53.7242C50.8316 54.1786 50.373 54.7087 50.1438 55.3903C49.9145 56.0719 50.0674 56.905 50.5259 57.4351C50.4495 57.0564 49.9909 56.8292 49.6088 56.905C49.2267 56.9807 48.9975 57.4351 49.0739 57.8137C48.6918 57.5108 48.1568 57.4351 47.6983 57.5865C47.2398 57.738 46.7813 57.9652 46.4756 58.3439C45.4821 59.4798 45.5585 61.3731 46.552 62.4334C46.9341 62.812 47.3926 63.115 47.9276 63.0392C47.1634 62.1305 47.5455 60.4643 48.3861 59.707C49.2267 58.874 50.6787 58.874 51.6722 59.4798C51.2901 58.7982 51.3665 57.8895 51.7486 57.2079C52.1307 56.5263 52.8949 56.0719 53.6592 55.9962C54.4234 55.9204 55.264 56.3748 55.3404 57.0564C55.264 56.2234 56.0282 55.6175 56.7924 55.3903C57.9387 55.0117 59.3143 55.6932 59.8493 56.7535C60.3842 57.8895 59.9257 59.3284 58.9322 59.9342C59.3907 59.8585 59.8493 60.2372 60.0021 60.6915C60.1549 61.1459 60.0785 61.6761 59.8493 62.0547C59.7728 62.7363 58.9322 63.3422 58.168 63.4936Z" fill="#BEE960"/>
<path d="M60.9189 41.1527C60.0018 40.0924 57.862 40.5468 57.0978 41.1527C58.0913 40.2439 58.4734 38.7292 58.0913 37.4418C57.7092 36.1544 56.7157 35.0184 55.493 34.4883C54.2702 33.8824 52.8182 33.8067 51.5191 34.1096C49.9907 34.4125 48.6151 35.3213 48.3094 36.9117C48.233 36.3815 47.6216 36.0786 47.1631 36.2301C46.6281 36.3815 46.3225 36.8359 46.246 37.2903C46.0932 37.7447 46.246 38.2748 46.4753 38.7292C46.0932 38.0476 45.329 37.8205 44.5648 37.7447C42.8835 37.669 41.3551 38.7292 40.6673 40.2439C39.9795 41.7585 40.2088 43.5761 41.0494 45.015C40.7437 44.7878 40.2852 44.7878 39.9031 44.9392C39.521 45.0907 39.2917 45.3936 39.0625 45.7723C38.7568 46.3024 38.6803 46.984 38.8332 47.5899C38.986 48.1957 39.1389 48.8016 39.5974 49.1802C39.4446 48.8773 38.986 48.6501 38.6803 48.8016C38.3747 48.953 38.069 49.256 38.2218 49.6346C38.2218 49.256 37.8397 49.0288 37.534 48.8773C37.1519 48.7258 36.7698 48.8016 36.3877 48.8016C35.6235 48.953 34.9357 49.256 34.4772 49.8618C34.0187 50.4677 33.8658 51.4522 34.0951 52.1338C33.2545 50.8463 31.3439 50.6949 30.0448 51.5279C28.822 52.361 28.2107 53.9513 28.3635 55.466C28.4399 55.9204 28.5928 56.4505 28.9749 56.602C28.0578 57.3593 27.7521 58.7224 28.2107 59.8584C28.6692 60.9944 29.8155 61.7517 30.9618 61.7517C30.3505 61.2216 29.9683 60.2371 29.9683 59.404C29.9683 58.571 30.3505 57.7379 30.9618 57.2078C31.4203 56.8292 32.1081 56.602 32.5667 56.9806C31.9553 56.299 31.8789 55.0873 32.5667 54.4057C33.3309 53.5727 34.63 53.6484 35.165 54.4057C34.7065 53.7241 34.9357 52.8154 35.3942 52.1338C35.8528 51.4522 36.617 50.9978 37.3812 50.6949C37.9161 50.4677 38.6039 50.3162 39.1389 50.3919C39.7502 50.4677 40.3616 50.6949 40.7437 51.225C40.2852 50.1647 39.9795 48.953 40.2852 47.8928C40.5909 46.7568 41.7372 45.848 42.8835 46.151C42.1193 45.015 42.1193 43.5003 42.8071 42.3644C43.4949 41.2284 44.8705 40.4711 46.1696 40.6225C47.0867 40.6983 48.0801 41.2284 48.233 42.0614C48.3094 40.774 49.3793 39.7895 50.5256 39.2594C51.6719 38.7292 53.0475 38.6535 54.1174 39.2594C55.1873 39.8652 55.9515 41.1527 55.5694 42.3644C56.41 41.607 57.862 41.607 58.7791 42.2129C59.7726 42.8188 60.3075 44.0305 60.2311 45.1664C60.766 44.8635 62.5237 43.046 60.9189 41.1527Z" fill="#BEE960"/>
<path d="M54.1945 51.7555C53.8889 51.3768 53.736 50.9224 53.8124 50.468C53.8889 50.0136 54.1946 49.5592 54.6531 49.4835C55.1116 49.4078 55.6466 49.7864 55.5701 50.2408C55.6466 49.7864 56.0287 49.4078 56.4872 49.332C56.9457 49.332 57.4042 49.7107 57.4042 50.1651C57.4042 50.6195 57.0221 50.9981 56.64 51.3011C56.7929 51.2253 57.0221 51.3768 57.0221 51.604C57.0221 51.8312 56.8693 51.9826 56.7929 52.1341C56.64 52.2856 56.4872 52.5128 56.3343 52.6642C56.1815 52.8157 56.0287 52.9672 55.7994 53.0429C55.188 53.1186 54.5002 52.1341 54.1945 51.7555Z" fill="#BEE960"/>
<path d="M38.4511 46.3021C38.4511 46.1507 38.4511 45.9235 38.3747 45.772C38.2983 45.6205 38.069 45.5448 37.9162 45.6205C37.8397 45.6963 37.7633 45.772 37.7633 45.8477C37.6869 45.9992 37.6869 46.2264 37.8397 46.3778C37.6869 46.2264 37.4576 46.1507 37.3048 46.1507C37.0755 46.1507 36.8463 46.2264 36.7698 46.3778C36.617 46.605 36.6934 46.8322 36.8463 47.0594C36.9991 47.2109 37.3048 47.2866 37.534 47.2866C37.3048 47.3624 37.3048 47.5896 37.4576 47.6653C37.6105 47.741 37.7633 47.8168 37.9926 47.741C38.4511 47.741 38.7568 48.044 38.6039 47.5896C38.3747 47.2109 38.4511 46.6808 38.4511 46.3021Z" fill="#BEE960"/>
<path d="M64.8165 40.3963C64.8929 40.2448 64.9693 40.0176 64.8165 39.7904C64.7401 39.7147 64.6636 39.639 64.5108 39.5633C64.2815 39.4875 63.9758 39.5633 63.823 39.7904C64.0523 39.639 64.0523 39.2603 63.823 39.1089C63.5937 38.8817 63.2116 38.9574 62.9824 39.1846C62.7531 39.4118 62.7531 39.7904 62.9824 40.0176C62.7531 39.9419 62.6003 40.1691 62.5238 40.3963C62.4474 40.6235 62.5238 40.8507 62.6003 41.0022C62.6767 41.2294 62.8295 41.3808 62.9824 41.5323C62.9824 41.608 63.0588 41.8352 62.9824 41.9109C62.6767 42.4411 64.6636 40.775 64.8165 40.3963Z" fill="#88B625"/>
<path d="M65.5806 41.5323C65.8863 41.5323 66.2684 41.608 66.5741 41.3808C66.7269 41.3051 66.8798 41.0779 66.8034 40.9264C66.7269 40.775 66.5741 40.6992 66.4212 40.6992C66.2684 40.6992 66.1156 40.6992 65.9627 40.775C65.657 40.8507 64.8928 41.0779 64.8164 41.4565C65.1221 41.4565 65.3514 41.4565 65.5806 41.5323Z" fill="#88B625"/>
<path d="M69.0962 63.948C69.249 64.0995 69.4019 64.1752 69.5547 64.1752C69.784 64.1752 70.0132 63.948 70.0897 63.7208C70.1661 63.4936 70.0897 63.1907 70.0132 62.9635C70.3189 63.0392 70.701 62.8878 70.7774 62.5848C70.9303 62.2819 70.8539 61.9032 70.6246 61.7518C70.3953 61.5246 70.0132 61.4488 69.7075 61.6003C69.8604 61.6003 69.9368 61.4488 69.9368 61.2974C69.8604 61.1459 69.7075 61.0702 69.6311 61.0702C69.3254 60.9945 67.5678 60.843 67.8734 61.0702C68.2555 61.3731 68.4084 61.6003 68.5612 61.8275C68.8669 62.4334 68.5612 63.4179 69.0962 63.948Z" fill="#A1D532"/>
<path d="M68.2554 64.0244C68.0261 64.4031 67.8733 64.7817 67.7969 65.1604C67.7969 65.3119 67.7969 65.5391 67.9497 65.6148C68.1026 65.6905 68.2554 65.6148 68.3318 65.4633C68.4082 65.3876 68.4082 65.2361 68.4082 65.0847C68.4082 64.7817 68.4082 64.4031 68.2554 64.0244C68.179 64.1001 68.179 64.1759 68.1026 64.2516Z" fill="#A1D532"/>
<path d="M71.8468 60.3126C71.9232 60.2369 71.9997 60.1611 71.9997 60.0097C71.9997 59.8582 71.8468 59.7068 71.6176 59.7068C71.4647 59.7068 71.3119 59.7825 71.159 59.8582C71.3119 59.7825 71.3883 59.7068 71.5411 59.5553C71.6176 59.4796 71.6176 59.4796 71.6176 59.4038C71.6176 59.3281 71.5411 59.3281 71.4647 59.2524C71.2355 59.1766 71.0062 59.2524 70.8533 59.4038C70.7005 59.5553 70.5477 59.7825 70.3948 59.934C70.242 60.0854 70.0891 60.2369 69.8599 60.3883C69.7834 60.4641 69.707 60.5398 69.707 60.6155C69.8599 60.8427 70.4712 60.8427 70.7005 60.8427C71.2355 60.8427 71.6176 60.6155 71.8468 60.3126Z" fill="#A1D532"/>
<path d="M33.5601 66.8266C33.5601 66.978 33.6366 67.1295 33.6366 67.3567C33.6366 67.5081 33.4837 67.6596 33.3309 67.7353C33.178 67.7353 33.0252 67.5839 32.9488 67.4324C32.8724 67.281 32.9488 67.1295 32.9488 66.9023C32.7959 66.978 32.6431 67.0538 32.4903 67.0538C32.3374 66.978 32.1846 66.8266 32.1846 66.6751C32.1846 66.5236 32.261 66.2964 32.3374 66.145C32.4903 65.842 32.7959 65.5391 33.0252 65.3119C33.4837 65.009 33.6366 65.0847 33.6366 65.4634C33.6366 65.9178 33.4837 66.3722 33.5601 66.8266Z" fill="#A1D532"/>
<path d="M44.106 53.3452C43.9532 53.5724 43.8768 53.7996 43.7239 53.951C43.5711 54.1025 43.189 54.1025 43.1126 53.8753C43.0361 53.7996 43.0361 53.7238 43.0361 53.6481C43.0361 53.4209 43.1126 53.118 43.4182 53.0423C43.2654 53.118 43.0361 52.8908 43.1126 52.7393C43.189 52.5879 43.3418 52.4364 43.4947 52.3607C43.8003 52.2092 45.4052 52.2092 45.0231 52.3607C44.4881 52.5879 44.3353 53.0423 44.106 53.3452Z" fill="#88B625"/>
<path d="M42.2722 52.9673C41.8137 53.1187 41.4316 53.4217 41.2788 53.8003C41.1259 54.2547 41.2788 54.7848 41.6609 55.012C41.1259 55.1635 40.6674 55.6936 40.7438 56.2237C40.8202 56.7539 41.2788 57.2083 41.8137 57.284C41.6609 57.8141 41.1259 58.0413 40.591 58.0413C40.056 58.0413 39.5975 57.7384 39.2918 57.284C39.0626 57.0568 38.9861 56.6781 38.9861 56.3752C38.9861 56.0723 39.2154 55.7694 39.5211 55.6179C38.7569 55.5422 38.1455 54.7848 38.1455 54.0275C38.1455 53.2702 38.7569 52.5886 39.4447 52.2857C39.7504 52.21 40.056 52.1342 40.2853 52.2857C40.591 52.3614 40.8202 52.5886 40.8967 52.8915C40.8967 52.5129 41.2024 52.21 41.5845 52.21C41.9666 52.2857 42.2722 52.5886 42.2722 52.9673Z" fill="#BEE960"/>
<path d="M57.2506 62.8129C57.4034 62.5099 57.4034 62.207 57.2506 61.9041C57.0978 61.6012 56.7921 61.4497 56.4864 61.374C56.1807 61.2982 55.7986 61.4497 55.5693 61.6012C55.4929 61.6769 55.4165 61.6769 55.3401 61.7526C55.4165 61.4497 55.1872 61.071 54.8816 60.9196C54.5759 60.7681 54.1938 60.8438 53.8881 60.9953C53.6588 61.1468 53.4296 61.2982 53.3531 61.5254C53.2003 61.7526 53.2003 62.0555 53.2767 62.2827C53.1239 62.2827 52.8946 62.3585 52.8182 62.5099C52.7418 62.6614 52.7418 62.8886 52.8946 62.9643C52.6653 63.2673 52.2832 63.4187 51.9775 63.2673C51.8247 63.1915 51.7483 63.1158 51.5954 63.0401C51.4426 62.8886 51.3662 62.7371 51.2898 62.5857C51.1369 62.1313 51.4426 61.6012 51.9011 61.374C51.9775 61.2982 52.1304 61.2982 52.2068 61.2982C52.2832 61.2982 52.4361 61.374 52.4361 61.4497C52.3597 61.4497 52.3597 61.374 52.3597 61.374C52.1304 60.9196 52.2832 60.3894 52.5889 60.0108C52.8946 59.6321 53.3531 59.4049 53.8117 59.2535C54.2702 59.102 54.8816 59.1777 55.2637 59.4807C55.7222 59.7836 55.9514 60.3137 55.7222 60.7681C55.7986 60.4652 56.1043 60.3137 56.41 60.238C56.8685 60.1622 57.327 60.238 57.7091 60.5409C58.0912 60.8438 58.3205 61.2982 58.3205 61.7526C58.3205 62.0555 58.2441 62.3585 58.0148 62.5857C57.862 62.7371 57.5563 62.8129 57.2506 62.8129Z" fill="#BEE960"/>
<path d="M207.516 48.1899C207.451 49.5867 206.357 50.8566 205.006 51.301C204.426 51.4915 203.847 51.4915 203.332 51.8089C202.56 52.2534 202.238 53.0788 201.787 53.8407C201.015 55.174 199.728 56.3169 198.248 56.7613C196.703 57.2058 194.965 56.8248 193.871 55.682C193.292 57.3962 191.104 58.4756 189.301 58.1582C187.499 57.8407 185.955 56.4439 185.311 54.7296C184.732 56.3169 182.865 57.2693 181.256 56.9518C179.647 56.6343 178.296 54.9835 178.424 53.3328C177.716 54.0947 176.172 53.6502 175.979 52.6343C175.142 54.3486 173.533 55.682 171.666 56.1264C170.315 56.4439 168.899 56.3169 167.74 55.555C166.646 54.7931 165.938 53.3962 166.26 52.0629C165.423 52.9518 164.522 53.9042 163.364 54.2851C162.205 54.6026 160.661 54.0947 160.403 52.8883C158.73 53.8407 156.477 53.6502 154.997 52.5074C153.452 51.3645 152.744 49.2693 153.259 47.428C153.581 46.2851 154.289 45.3328 155.126 44.5074C157.7 41.9042 161.24 40.5708 164.78 39.7454C179.325 35.9359 195.351 39.2375 207.516 48.1899Z" fill="#88B625"/>
<path d="M188.335 93.1431C187.434 92.6352 186.984 91.6828 186.533 90.7939C185.504 88.4447 183.895 86.159 183.701 83.6193C183.573 82.032 183.508 80.5082 183.508 78.9209C183.508 78.032 183.508 77.1431 183.83 76.3177C184.023 75.6828 184.345 75.1114 184.667 74.54C185.568 72.8892 186.469 71.3019 187.37 69.6511C188.078 68.3812 188.786 67.0479 189.365 65.7146C189.687 64.9527 189.944 64.2542 190.395 63.5558C190.781 62.9844 191.232 62.4765 191.618 61.9685C194.064 59.0479 195.673 55.3654 196.252 51.6193C196.123 51.6193 196.059 51.5558 195.866 51.5558C195.801 53.3336 195.222 55.1114 194.385 56.7622C193.549 58.3495 192.455 59.8098 191.296 61.2066C190.781 61.8415 190.266 62.413 189.687 63.0479C190.009 61.7781 190.652 60.6352 191.103 59.4923C192.197 56.8257 192.519 53.9685 192.776 51.1114C192.841 50.3495 192.905 49.5241 193.034 48.7622C192.841 48.7622 192.712 48.7622 192.583 48.7622C192.39 50.7304 192.197 52.6352 191.811 54.6035C190.91 58.8574 189.043 62.8574 187.113 66.7939C187.048 66.9209 186.984 67.0479 186.855 66.9844C186.791 66.9844 186.791 66.9209 186.726 66.8574C186.598 66.6035 186.598 66.3495 186.662 66.032C186.791 64.9527 186.855 63.8733 186.984 62.7939C187.048 62.159 187.113 61.5241 187.241 60.8892C187.434 60.1273 187.692 59.3654 188.014 58.6669C188.915 56.1273 189.43 53.5241 189.751 50.7939C189.558 50.8574 189.558 50.9844 189.365 50.9209C188.85 53.905 188.078 56.8892 187.048 59.7463C186.984 59.8733 186.919 60.0003 186.791 60.0003C186.598 60.0003 186.533 59.8098 186.533 59.6193C186.212 56.8257 186.147 53.9685 186.276 51.1114C186.018 51.1749 185.89 51.3019 185.568 51.3019C185.697 54.2225 185.89 57.1431 186.147 60.0003C186.276 61.0162 186.276 62.3495 186.083 63.3654C185.697 65.9685 185.375 67.4923 184.409 69.5876C184.216 70.0955 183.83 70.6035 183.315 70.54C182.865 70.4765 182.607 69.905 182.543 69.4606C182.157 67.6828 182.028 65.905 181.899 64.1273C181.642 60.6352 181.384 57.0796 181.899 53.5876C182.092 52.3177 182.414 50.9844 182.285 49.6511C182.157 49.6511 182.028 49.5241 181.899 49.5241C181.127 49.5241 180.998 49.5876 180.226 49.5876C180.162 51.6828 180.097 53.905 179.968 56.0003C179.84 57.7146 179.325 56.8892 179.003 56.6352C178.939 56.5717 178.81 56.3812 178.746 56.3177C177.33 54.6669 176.815 52.4447 176.3 50.286C176.107 50.3495 175.849 50.286 175.656 50.413C176.171 52.8892 176.815 55.4923 178.166 57.6511C178.617 58.3495 179.132 58.9844 179.389 59.8098C179.647 60.5082 179.647 61.3336 179.711 62.0955C179.711 62.9844 179.775 63.9368 179.582 64.8257C179.518 65.0796 179.454 65.3336 179.196 65.5241C179.003 65.6511 178.746 65.5241 178.553 65.3971C176.815 64.0003 175.849 60.9527 175.463 58.413C175.077 55.8733 175.013 53.3336 174.755 50.7939C174.369 50.7939 174.305 51.2384 174.305 51.6193C174.305 55.1749 174.626 58.6669 175.27 62.159C174.24 60.8892 173.146 59.5558 172.438 58.0955C171.022 55.0479 171.344 51.5558 171.923 48.2542C171.795 48.2542 171.602 48.1908 171.473 48.1908C171.344 49.8415 171.087 51.4289 170.829 53.0162C170.829 53.0796 170.829 53.1431 170.765 53.1431C170.7 53.2066 170.636 53.1431 170.572 53.0796C168.705 51.3654 167.675 48.9527 166.26 46.8574C166.002 46.9844 165.68 47.0479 165.745 47.3654C165.745 47.3654 167.804 50.6669 168.834 52.1273C170.572 54.6035 171.28 57.6511 172.696 60.3177C174.047 62.9209 175.978 65.2066 177.651 67.6828C177.973 68.1273 178.231 68.5717 178.424 69.0796C178.681 69.7146 178.681 70.413 178.681 71.1114C178.81 75.0479 178.874 78.9844 178.874 82.9844C178.874 86.6035 176.879 90.032 174.562 92.8257C174.369 92.7622 174.047 93.1431 174.24 93.2701C174.305 93.3336 174.433 93.3336 174.498 93.3971C175.785 93.5876 177.201 93.5876 178.488 93.3336C178.681 93.2701 178.874 93.2701 179.067 93.2701C179.261 93.3336 179.454 93.3971 179.582 93.5241C180.29 93.905 181.127 94.159 181.964 94.0955C182.479 94.032 182.993 93.905 183.508 93.7781C184.731 93.5241 185.954 93.4606 187.177 93.5876C187.563 93.3971 188.014 93.3971 188.335 93.1431Z" fill="#8C5F3B"/>
<path d="M178.23 57.5879C178.681 58.2863 179.196 58.9212 179.453 59.7466C179.711 60.445 179.711 61.2704 179.775 62.0323C179.775 62.9212 179.839 63.8736 179.646 64.7625C179.582 65.0165 179.453 65.1434 179.325 65.3974C179.26 65.5244 179.196 65.4609 179.325 65.5879C179.389 65.7149 179.518 65.7149 179.646 65.7149C179.839 65.6514 179.968 65.4609 180.033 65.2704C180.161 64.953 180.161 64.5085 180.226 64.1911C180.226 63.8101 180.226 63.4292 180.226 63.0482C180.226 62.0323 180.29 61.0165 179.968 60.0641C179.711 58.9847 179.067 58.0323 178.23 57.5879Z" fill="#B39681"/>
<path d="M174.562 92.635C176.879 89.8414 178.81 86.4128 178.874 82.7938C178.874 78.8573 178.81 74.9208 178.681 70.9208C178.681 70.2223 178.617 69.5239 178.424 68.889C178.231 68.3811 177.973 67.9366 177.651 67.4922C178.424 67.8096 178.874 68.5081 179.132 69.2065C179.389 69.9684 179.453 70.7938 179.518 71.5557C179.775 75.8096 179.84 80.1271 179.711 84.3811C179.711 85.3335 179.647 86.2858 179.325 87.2382C179.003 88.0636 178.552 88.762 178.038 89.4604C177.072 90.7938 175.978 92.1906 174.498 93.016C174.305 92.889 174.498 92.6985 174.562 92.635Z" fill="#B39681"/>
<path d="M172.825 18.8567C171.795 18.3488 170.572 18.4758 169.607 19.0472C168.706 19.6821 168.127 20.825 168.191 21.9043C165.552 20.825 162.27 21.8409 160.725 24.1266C160.017 25.2059 159.695 26.7297 160.596 27.7456C159.889 27.8726 159.245 28.1901 158.794 28.7615C158.408 29.3329 158.344 30.2218 158.923 30.6028C157.765 30.8567 156.413 31.1742 155.448 31.9361C154.547 32.6345 153.903 33.9678 154.353 35.0472C152.937 35.4282 151.65 36.5075 151.264 37.9044C150.878 39.3012 151.65 41.0155 153.066 41.4599C152.358 42.6028 151.843 43.9996 152.165 45.3329C152.487 46.6663 153.774 47.8091 155.126 47.6186C155.19 48.952 156.542 49.9678 157.765 50.4758C158.473 50.7297 159.309 50.9202 160.082 50.6663C160.854 50.4123 161.433 49.5869 161.176 48.825C161.304 49.3329 161.755 49.7774 162.27 49.9678C162.785 50.1583 163.364 50.1583 163.943 50.0313C165.295 49.7774 166.646 49.079 167.161 47.8091C168.255 49.8409 170.637 51.6186 173.018 51.7456C174.048 51.8091 175.078 51.6186 175.979 51.0472C176.815 50.4758 177.459 49.5234 177.459 48.5075C177.588 49.3329 178.231 50.1583 178.939 50.6663C179.647 51.1742 180.613 51.4282 181.45 51.5551C182.479 51.6821 183.573 51.8091 184.539 51.4917C185.569 51.2377 186.47 50.6028 186.92 49.6504C186.598 50.7297 186.277 52.1266 186.727 53.2059C187.178 54.2853 188.143 55.1107 189.302 55.3012C190.46 55.4917 191.747 54.9202 192.198 53.8409C193.035 54.9837 194.515 55.6821 195.931 55.6186C197.347 55.5551 198.763 54.7297 199.471 53.5234C199.921 52.825 200.05 51.8091 199.471 51.3012C199.792 51.6186 200.114 51.5551 200.565 51.6186C201.337 51.6821 202.174 51.8091 202.946 51.4917C203.718 51.2377 204.362 50.4758 204.298 49.7139C205.328 50.1583 206.55 50.2218 207.645 49.9044C208.031 49.7774 208.352 49.6504 208.546 49.3329C208.739 49.0155 208.674 48.5075 208.352 48.3805C209.254 48.0631 209.447 47.0472 209.833 46.1583C210.09 45.5869 210.283 44.952 210.155 44.317C210.026 43.6821 209.447 43.1107 208.867 43.2377C210.155 42.4758 209.64 40.5075 208.674 39.3647C207.709 38.2218 206.164 37.7774 204.684 37.5234C206.164 37.3964 207.773 37.0155 208.803 35.8726C209.833 34.7932 209.833 32.698 208.481 31.9996C209.833 30.6663 210.155 28.3805 209.189 26.7297C208.224 25.079 206.1 24.1901 204.233 24.6345C203.718 23.5551 202.238 22.7932 201.08 22.4758C199.921 22.0948 198.698 22.0948 197.475 22.0313C197.089 19.8091 194.579 18.2218 192.327 18.7932C190.975 19.1742 189.881 20.1901 188.915 21.2059C188.336 20.0631 187.435 18.9837 186.148 18.4758C184.925 18.0313 183.316 18.2853 182.544 19.3647C182.415 19.5551 182.222 19.8091 181.964 19.8726C181.771 19.8726 181.578 19.7456 181.45 19.6821C179.004 17.9678 175.593 17.8409 173.018 19.3647C172.954 19.4282 172.825 19.4282 172.761 19.4282C172.696 19.3012 172.825 18.7932 172.825 18.8567Z" fill="#A1D432"/>
<path d="M174.113 23.1111C173.598 23.3016 173.083 23.4921 172.632 23.6825C172.504 23.746 172.375 23.8095 172.246 23.873C171.924 24.0635 171.731 24.4444 171.667 24.8254C171.152 24.5714 170.509 24.6349 169.929 24.8254C169.35 25.0159 168.9 25.3968 168.449 25.7778C167.805 25.0159 166.583 24.9524 165.617 25.1429C164.78 25.3333 164.008 25.7778 163.429 26.4127C162.85 27.0476 162.528 27.9365 162.592 28.7619C163.107 28.6349 163.622 28.6984 164.072 28.8889C164.523 29.0794 164.909 29.4603 165.295 29.7778C165.36 29.8413 165.424 29.9048 165.488 29.9048C165.553 29.9048 165.617 29.8413 165.617 29.7778C166.261 28.8254 167.419 28.3175 168.578 28.3175C169.736 28.381 170.83 28.8889 171.603 29.7143C171.603 28.9524 172.118 28.254 172.761 27.873C173.405 27.4286 174.177 27.2381 174.885 27.0476C175.336 26.9206 175.786 26.7937 176.172 26.6667C175.851 25.9048 175.722 25.1429 175.786 24.3175C175.851 23.4921 176.237 22.7302 176.816 22.2222C176.88 22.1587 177.009 22.0952 176.945 21.9683C176.945 21.9048 176.88 21.8413 176.816 21.8413C176.43 21.6508 175.915 21.7778 175.464 21.9048C175.271 22.0952 174.949 22.2222 174.628 22.4127C174.306 22.5397 173.984 22.7937 174.113 23.1111Z" fill="#88B625"/>
<path opacity="0.6" d="M158.923 50.3493C158.344 50.4128 157.764 50.2223 157.378 49.7779C157.056 49.3334 157.056 48.635 157.507 48.254C155.898 47.8096 154.611 46.3493 154.418 44.6985C154.224 43.0477 155.125 41.3334 156.606 40.5715C156.477 39.0477 157.056 37.4604 158.279 36.635C159.502 35.8096 161.433 35.9366 162.398 37.1429C161.562 38.0318 161.883 39.3652 162.205 40.508C161.626 40.8255 161.24 41.3334 161.047 41.9048C159.953 41.5239 158.601 42.0953 158.022 43.0477C157.121 44.508 157.636 46.6667 159.18 47.4921C159.309 47.5556 159.438 47.6191 159.502 47.7461C159.566 47.8096 159.502 47.9366 159.502 48.0001C159.438 48.3175 159.309 48.6985 159.373 49.016C159.438 49.3969 160.017 49.5239 160.017 49.7779C159.888 50.0953 159.18 50.2858 158.923 50.3493Z" fill="#E0CD9E"/>
<path opacity="0.6" d="M195.416 46.5395C195.673 46.222 195.802 45.8411 195.802 45.3966C195.802 44.9522 195.48 44.5712 195.094 44.5077C195.738 44.1268 195.802 43.2379 195.609 42.476C195.48 41.8411 195.223 41.2061 194.708 40.7617C194.193 40.3173 193.485 40.0633 192.841 40.3173C192.97 39.0474 192.133 37.7141 190.975 37.2061C189.752 36.6982 188.272 37.0157 187.435 37.968C186.791 36.9522 185.568 36.3807 184.346 36.4442C183.123 36.5077 182.029 37.3331 181.514 38.4125C182.994 38.222 184.41 39.6188 184.281 41.0792C185.118 40.5077 186.405 40.7617 186.92 41.5871C188.079 40.8887 189.623 40.5712 190.846 41.2061C192.069 41.8411 192.713 43.4919 191.94 44.5712C192.584 44.8887 193.034 45.5236 193.099 46.2855C193.163 47.1109 191.876 47.9998 192.906 48.1268C193.871 48.2538 194.965 47.3014 195.416 46.5395Z" fill="#E0CD9E"/>
<path d="M191.49 47.9363C192.069 48.4442 193.099 48.3172 193.614 47.6823C194.129 47.1109 194.129 46.1585 193.742 45.5236C193.485 45.0791 193.163 44.7617 192.648 44.8252C193.356 44.5077 193.549 43.6188 193.549 42.7934C193.549 42.4125 193.549 41.968 193.421 41.5871C193.099 40.3172 191.876 39.3014 190.589 39.2379C189.237 39.1109 187.886 39.9998 187.435 41.2061C187.371 40.5712 186.92 39.9363 186.277 39.6823C185.633 39.4283 184.732 39.6188 184.539 40.3172C184.668 38.6029 183.316 36.9521 181.643 36.6982C179.969 36.3807 178.167 37.4601 177.523 38.9839C176.88 40.5712 177.395 42.5394 178.682 43.6188C178.36 43.4283 177.91 43.4283 177.523 43.6188C176.622 43.9998 176.043 45.0156 175.979 46.0315C175.914 47.0474 176.365 47.9998 177.009 48.7617C177.33 49.2061 177.781 49.5871 178.36 49.5871C177.845 48.6982 177.974 47.3014 178.489 46.4125C179.068 45.5236 180.162 45.0156 181.192 45.0791C180.548 44.3807 180.162 43.4283 180.355 42.476C180.548 41.5236 181.256 40.6982 182.222 40.5712C183.187 40.4442 184.217 41.1426 184.217 42.095C184.603 41.5871 185.118 41.0791 185.762 41.1426C186.405 41.2061 186.985 41.7775 186.985 42.4125C187.242 41.9045 187.821 41.7775 188.336 41.6506C189.559 41.3966 190.911 42.222 191.361 43.3648C191.49 43.8093 191.554 44.3807 191.232 44.7617C191.747 44.6347 192.262 45.1426 192.391 45.7141C192.52 46.1585 192.52 46.6029 192.327 46.9839C192.198 47.4918 191.94 47.9363 191.49 47.9363Z" fill="#BEE960"/>
<path d="M173.791 43.5554C174.499 43.3649 175.014 42.73 175.142 42.0316C175.271 41.3332 175.014 40.5713 174.499 40.0633C173.791 39.3649 172.439 39.111 171.796 39.8729C172.632 38.857 172.182 37.2062 171.088 36.5078C169.929 35.8094 168.449 36.0633 167.419 36.9522C166.775 37.4602 166.454 38.0316 166.196 38.857C166.325 38.2221 166.067 37.5237 165.488 37.1427C164.909 36.7617 164.137 36.7617 163.622 37.1427C163.557 37.1427 163.557 37.2062 163.557 37.2697C163.557 37.3332 163.622 37.2697 163.622 37.2697C163.815 36.2538 162.721 35.3014 161.691 35.4284C160.661 35.5554 159.889 36.5713 159.76 37.5871C159.631 38.603 160.082 39.6189 160.725 40.4443C159.438 39.8094 157.7 40.1903 156.735 41.2697C155.77 42.3491 155.448 43.8729 155.705 45.2697C155.898 46.0316 156.22 46.7935 156.799 47.3649C157.379 47.9364 158.215 48.2538 158.988 48.1268C158.988 48.0633 158.73 48.1268 158.73 48.1903C158.537 48.5078 158.473 48.9522 158.601 49.3332C158.73 49.7141 159.116 49.9681 159.503 50.0316C159.824 50.0951 160.275 49.9046 160.339 49.5871C159.953 49.4602 159.567 49.0157 159.567 48.6348C159.503 48.2538 159.76 47.8094 160.082 47.6189C159.245 47.111 158.666 46.1586 158.666 45.2062C158.666 44.1903 159.181 43.2379 160.082 42.73C160.854 42.2856 161.884 42.2221 162.528 42.7935C162.27 42.349 162.27 41.5871 162.399 41.1427C162.592 40.6348 162.978 40.2538 163.429 40.0633C163.75 39.9364 164.072 39.9363 164.394 39.9363C164.78 39.9363 165.231 39.9998 165.553 40.1903C165.939 40.3808 166.196 40.6983 166.26 41.1427C166.325 40.6983 166.518 40.3173 166.904 40.0633C167.29 39.8094 167.741 39.7459 168.256 39.6824C168.899 39.6824 169.607 39.8094 170.058 40.3173C170.508 40.8252 170.508 41.6506 169.993 42.0951C170.508 41.7776 171.281 42.0316 171.667 42.5395C172.182 43.1744 172.31 44.1903 171.796 44.7617C172.182 45.0792 172.504 45.3967 173.018 45.2697C173.469 45.1427 173.919 44.7617 174.113 44.3173C174.177 44.1268 174.241 43.9364 174.113 43.8094C173.984 43.4284 173.855 43.3649 173.791 43.5554Z" fill="#BEE960"/>
<path d="M200.371 32.4443C201.273 33.2062 202.238 33.9046 203.396 34.2221C204.555 34.5396 205.907 34.2856 206.615 33.3967C207.387 32.5078 207.194 30.9205 206.1 30.4126C208.159 29.5237 209.125 26.984 208.545 24.8253C207.966 22.6665 206.1 21.0157 203.911 20.3808C202.109 19.8094 199.857 19.9999 198.569 21.3967C199.084 20.0634 198.248 18.4761 196.96 17.9046C195.673 17.2697 194.128 17.3967 192.777 17.8411C191.297 18.2856 189.945 19.238 189.559 20.7618C189.881 19.8729 189.559 18.7935 188.915 18.1586C188.272 17.5237 187.177 17.2062 186.212 17.2697C185.247 17.3332 184.346 17.7777 183.573 18.3491C183.251 18.6031 182.93 18.9205 183.123 19.3015C183.38 17.6507 182.415 15.9364 180.934 15.111C179.454 14.2856 177.588 14.3491 176.043 15.0475C175.528 15.3015 175.078 15.5554 174.756 16.0634C174.434 16.5713 174.37 17.1427 174.563 17.6507C173.082 16.8253 171.023 17.3332 170.122 18.73C169.221 20.1269 169.607 22.1586 170.958 23.1745C172.31 24.1904 174.434 23.9999 175.786 22.9205C175.271 23.0475 174.884 23.5554 174.82 24.0634C174.82 24.6983 175.271 25.2062 175.786 25.5237C176.3 25.8411 176.88 26.0316 177.395 26.4126C176.429 25.5872 175.078 25.2062 173.79 25.5237C172.567 25.7777 171.473 26.6665 170.958 27.8094C170.765 28.2538 170.637 28.8253 170.894 29.2697C170.83 28.0634 169.864 26.9205 168.577 26.73C167.29 26.5396 166.067 27.6189 165.938 28.8888C165.681 27.9364 164.715 27.3015 163.686 27.365C163.364 27.4284 163.106 27.4919 162.785 27.6189C161.562 28.1904 160.661 29.4602 160.532 30.7935C160.403 32.1269 161.047 33.5237 162.141 34.3491C161.626 33.2697 162.141 31.8094 163.106 31.111C164.072 30.4126 165.552 30.4761 166.389 31.3015C166.26 30.857 166.389 30.3491 166.711 29.9681C167.032 29.5872 167.483 29.3967 167.998 29.3332C169.028 29.2062 170.186 29.7142 170.444 30.6665C170.701 30.3491 171.087 30.1586 171.538 30.0316C171.988 29.9681 172.439 30.0951 172.696 30.4761C172.567 29.9681 173.018 29.4602 173.34 29.0157C173.726 28.6348 174.176 28.3808 174.627 28.1269C175.786 27.5554 177.137 27.1745 178.424 27.4284C177.781 26.7935 177.33 25.8411 177.523 24.8888C177.716 23.9999 178.617 23.238 179.518 23.3015C179.325 23.1745 179.197 22.857 179.197 22.6031C179.197 22.3491 179.261 22.0951 179.39 21.8411C179.776 21.0792 180.613 20.4443 181.514 20.5078C182.415 20.5078 183.316 21.2062 183.38 22.0951C183.123 21.3967 183.573 20.5713 184.281 20.1904C184.925 19.8094 185.761 19.8094 186.534 19.9364C187.564 20.1269 188.658 20.6983 188.98 21.6507C189.494 20.5713 190.653 19.8729 191.811 19.6824C192.97 19.4919 194.193 19.8729 195.03 20.6983C195.416 21.0792 195.673 21.5237 195.802 22.0316C195.866 22.5396 195.802 23.111 195.416 23.4919C196.445 22.984 197.475 22.73 198.569 22.9205C199.728 23.111 200.758 23.6824 201.401 24.6348C201.852 25.2697 202.045 25.9681 202.174 26.73C202.367 27.7459 202.367 28.8253 201.981 29.7777C201.53 30.73 200.565 31.4284 199.47 31.3015C199.792 31.7459 200.05 32.1904 200.371 32.4443Z" fill="#BEE960"/>
<path d="M186.083 37.6506C186.019 37.3967 185.954 37.0792 186.083 36.8252C186.147 36.5713 186.405 36.3173 186.662 36.3173C186.92 36.3173 187.242 36.5713 187.177 36.8252C187.306 36.4443 187.628 36.0633 188.014 35.9364C188.4 35.8094 188.915 35.9364 189.172 36.2538C189.43 36.5713 189.366 37.1427 189.044 37.3967C189.237 37.1427 189.687 37.2062 189.816 37.4602C189.945 37.7141 189.88 38.0951 189.687 38.3491C189.494 38.603 189.172 38.73 188.915 38.857C188.464 39.111 187.692 39.9364 187.177 39.6824C186.598 39.3649 186.212 38.1586 186.083 37.6506Z" fill="#BEE960"/>
<path d="M198.119 50.5394C199.406 50.7934 200.822 50.4124 201.787 49.5235C202.753 48.6347 203.268 47.2378 203.075 45.968C203.01 45.3966 202.753 44.7616 202.367 44.3807C201.916 43.9362 201.273 43.6823 200.693 43.8728C201.916 43.7458 203.01 42.7299 203.268 41.5235C203.525 40.3172 202.946 38.9839 201.981 38.2855C200.951 37.5235 199.535 37.3966 198.441 37.9045C198.312 37.968 198.183 38.0315 198.248 38.1585C198.376 37.714 198.505 37.2061 198.891 36.9521C200.565 35.8093 203.075 35.7458 204.684 37.0156C206.357 38.222 206.936 40.6981 206.035 42.4759C205.714 43.0474 205.263 43.6188 204.555 43.6823C205.263 43.9362 205.778 44.6347 205.714 45.3966C205.714 45.714 205.585 46.0315 205.392 46.222C205.199 46.4124 204.812 46.4759 204.555 46.3489C205.456 47.4918 205.199 49.2061 204.298 50.3489C203.397 51.4918 201.916 51.9997 200.5 52.0632C199.664 52.0632 198.763 51.9362 198.055 51.4283C197.926 51.3013 197.797 51.1743 197.733 51.0474C197.668 50.7299 197.926 50.5394 198.119 50.5394Z" fill="#BEE960"/>
<path d="M206.743 43.2373C207.322 43.4278 207.773 43.9992 207.966 44.5706C208.095 44.9516 208.095 45.3325 208.095 45.7135C208.03 46.1579 207.902 46.6024 207.58 46.9198C207.258 47.2373 206.743 47.3643 206.357 47.2373C206.357 47.9357 206.293 48.7611 206.808 49.269C207.258 49.777 208.095 50.0309 208.738 49.777C209.382 49.4595 209.704 48.5071 209.189 47.9992C210.026 48.2532 210.927 47.9992 211.699 47.4913C212.343 47.0468 212.858 46.4119 213.051 45.65C213.244 44.8881 212.986 44.0627 212.343 43.5547C211.699 43.1103 210.734 43.1738 210.219 43.8087C210.669 43.5547 210.734 42.9833 210.541 42.5389C210.347 42.0944 209.897 41.8405 209.446 41.7135C208.803 41.4595 208.095 41.4595 207.516 41.777C206.936 41.9674 206.55 42.6024 206.743 43.2373Z" fill="#BEE960"/>
<path d="M158.858 50.3489C158.086 50.2219 157.314 49.968 156.734 49.46C156.155 48.9521 155.769 47.7457 156.026 46.9838C154.803 47.3013 153.387 46.6029 152.873 45.46C152.358 44.3172 152.937 42.7934 154.031 42.2219C152.937 41.968 152.229 40.7616 152.293 39.6823C152.358 38.6029 153.066 37.587 153.967 36.8886C154.868 36.1902 155.962 35.4918 156.992 35.8727C156.348 35.3648 156.219 34.3489 156.541 33.587C156.863 32.8251 157.507 32.2537 158.279 31.8092C158.536 31.6823 158.794 31.5553 159.051 31.4918C159.631 31.3648 160.274 31.4283 160.789 31.7457C160.918 31.3013 160.66 30.4759 160.274 30.1584C159.18 29.2696 157.571 29.0156 156.219 29.5235C154.868 30.0315 153.838 31.3013 153.645 32.6981C153.581 33.1426 153.581 33.5235 153.709 33.968C153.838 34.3489 154.16 34.7299 154.546 34.8569C153.838 34.095 152.744 33.7775 151.714 33.9045C150.684 34.0315 149.719 34.7299 149.268 35.6823C149.075 36.1267 148.947 36.6346 149.075 37.0791C149.268 37.5235 149.783 37.9045 150.234 37.7775C149.59 38.0315 149.14 38.6029 149.011 39.2378C148.818 39.8727 148.947 40.5711 149.204 41.1426C149.397 41.6505 149.783 42.095 150.234 42.4124C150.684 42.6664 151.328 42.7299 151.843 42.4759C150.427 42.9838 149.59 44.6346 149.848 46.095C150.105 47.5553 151.328 48.8251 152.808 49.1426C153.581 49.333 154.546 49.2061 154.997 48.5711C154.868 48.9521 154.932 49.0791 154.932 49.46C154.932 49.968 155.061 50.6029 155.511 50.9203C155.962 51.2378 156.67 51.2378 156.927 50.7299C156.863 51.1743 157.185 51.6188 157.635 51.8727C157.893 51.9997 158.215 52.0632 158.472 52.1267C160.725 52.3172 160.853 49.968 160.853 49.968C160.853 49.968 159.631 50.4759 158.858 50.3489Z" fill="#BEE960"/>
<path d="M176.301 36.7614C176.236 35.8725 176.558 34.9836 177.073 34.2852C177.588 33.5868 178.36 33.0788 179.261 32.8249C179.519 32.7614 179.776 32.6979 180.034 32.7614C180.742 32.7614 181.385 33.1423 181.707 33.7138C182.544 32.3169 184.346 31.809 185.826 32.3804C186.406 32.6344 186.985 33.0788 187.114 33.7138C188.594 32.7614 190.653 33.0153 192.069 34.0947C192.713 34.6026 193.228 35.3645 193.099 36.1264C193.807 35.1106 195.223 34.8566 196.446 35.2376C197.025 35.428 197.604 35.9995 197.991 36.5074C198.377 37.0153 198.505 37.7138 198.312 38.2852C198.956 37.8407 199.535 37.2693 199.793 36.5074C200.179 35.3011 199.471 33.9677 198.441 33.2693C197.926 32.8884 197.283 32.6979 196.639 32.6979C195.995 32.6979 195.352 33.0153 195.03 33.5233C194.966 32.3804 194 31.3011 192.842 31.1106C191.683 30.9201 190.396 31.6185 189.945 32.6979C189.752 32.063 188.98 31.809 188.465 31.8725C187.95 31.936 187.5 32.2534 187.242 32.6979C187.628 31.6185 186.792 30.5391 185.891 29.9677C184.732 29.2058 183.316 28.8249 181.965 29.0153C180.613 29.2693 179.326 30.2217 179.004 31.555C178.489 31.3645 177.717 31.4915 177.266 31.809C176.816 32.1264 176.365 32.5074 176.108 33.0153C175.528 34.0947 175.464 35.6185 175.979 36.6979C176.108 36.8884 176.301 37.1423 176.494 37.0788C176.365 37.0788 176.365 36.8249 176.301 36.7614Z" fill="#88B625"/>
<path d="M212.343 40.1263C212.664 39.8723 212.793 39.3644 212.6 39.0469C213.115 38.8564 213.565 38.539 213.823 38.0945C214.08 37.6501 214.016 37.0152 213.63 36.6342C213.244 36.3168 212.471 36.3803 212.278 36.8882C212.664 36.5707 212.793 35.9993 212.664 35.4914C212.6 35.3009 212.536 35.1739 212.407 35.0469C212.085 34.793 211.635 34.793 211.248 34.9834C210.219 35.4279 209.897 38.0311 208.931 37.9676C207.709 37.9041 211.12 41.1422 212.343 40.1263Z" fill="#A1D432"/>
<path d="M212.021 32.1908C212.085 32.0004 212.085 31.7464 212.021 31.5559C211.956 31.3654 211.827 31.175 211.57 31.175C211.248 31.1115 210.991 31.4924 210.862 31.8099C210.733 32.1908 210.669 34.0956 210.669 34.0956C210.669 34.0956 211.892 32.6988 212.021 32.1908Z" fill="#A1D432"/>
<path d="M167.612 18.2222C167.547 18.0317 167.419 17.8412 167.226 17.6507C167.033 17.5237 166.775 17.3968 166.582 17.4602C166.26 17.5237 166.067 17.9047 166.067 18.2222C166.067 18.5396 166.196 18.8571 166.389 19.111C166.196 18.9841 165.938 18.8571 165.745 18.8571C165.488 18.8571 165.23 19.0475 165.23 19.238C165.23 19.4285 165.359 19.5555 165.488 19.619C165.617 19.6825 165.81 19.746 165.938 19.746C166.26 19.8095 167.483 19.9999 167.805 20.3809C168.127 20.8253 167.805 18.6031 167.612 18.2222Z" fill="#A1D432"/>
<path d="M191.811 16.7618C192.004 16.5078 192.197 16.2539 192.326 15.9999C192.455 15.6824 192.455 15.365 192.326 15.111C192.197 14.7936 191.876 14.6031 191.554 14.6666C191.232 14.7301 190.975 15.111 191.103 15.365C191.232 15.0475 191.168 14.6666 191.039 14.3491C190.975 14.2221 190.91 14.0951 190.782 14.0316C190.524 13.8412 190.138 13.9047 189.88 14.1586C189.687 14.4126 189.623 14.7301 189.623 15.0475C189.687 15.365 189.816 15.6824 189.945 15.9364C190.074 16.2539 190.782 16.8253 190.717 17.5872C190.782 17.9047 191.554 17.0158 191.811 16.7618Z" fill="#A1D432"/>
<path d="M147.853 44.6979C147.595 44.7614 147.338 44.7614 147.145 44.571C146.952 44.3805 146.952 43.9995 147.145 43.7456C147.338 43.4916 147.595 43.3646 147.917 43.2376C147.595 43.1741 147.209 43.0472 147.145 42.7297C147.08 42.4757 147.209 42.2218 147.402 42.0948C147.595 41.9678 147.853 41.9043 148.11 41.9043C148.689 41.9043 150.813 42.7297 150.17 42.9837C148.947 43.4916 148.432 44.571 147.853 44.6979Z" fill="#A1D432"/>
<path d="M149.204 46.5392C149.14 46.7296 148.947 46.8566 148.754 46.8566C148.561 46.8566 148.368 46.6661 148.303 46.5392C148.11 46.0312 148.818 45.5233 149.14 44.6979C149.397 43.8725 149.397 46.1582 149.204 46.5392Z" fill="#A1D432"/>
<path d="M157.7 26.2219C157.636 25.8409 157.893 25.333 158.344 25.333C158.73 25.333 159.052 25.714 159.181 26.0314C159.374 26.4124 159.889 27.3648 159.181 27.4917C158.601 27.5552 157.765 26.7298 157.7 26.2219Z" fill="#A1D432"/>
<path d="M186.019 52.8259C186.084 53.1434 186.084 53.5243 186.019 53.8418C185.89 54.1592 185.569 54.4132 185.247 54.3497C185.054 54.2862 184.861 54.0957 184.796 53.9053C184.732 53.7148 184.732 53.4608 184.796 53.2703C184.861 52.7624 185.118 51.937 185.697 51.7465C186.405 51.4291 185.955 52.318 186.019 52.8259Z" fill="#A1D432"/>
<path d="M176.88 51.9996C176.687 52.317 176.365 52.571 176.236 52.952C176.043 53.2694 176.043 53.7139 176.301 54.0313C176.494 54.2853 176.88 54.2853 177.137 54.1583C177.395 54.0313 177.523 53.6504 177.395 53.3329C177.717 53.5869 178.167 53.8408 178.489 53.5869C178.746 53.4599 178.875 53.0789 178.811 52.7615C178.746 52.444 178.553 52.1901 178.36 51.9996C178.231 51.8091 177.717 50.9202 177.459 50.9837C177.266 50.9837 177.009 51.8091 176.88 51.9996Z" fill="#A1D432"/>
<path d="M182.415 68.8256C182.479 69.2065 182.608 69.524 182.737 69.8414C182.801 70.0319 182.93 70.2224 183.123 70.3494C183.38 70.4764 183.638 70.4129 183.895 70.2224C184.088 70.0319 184.217 69.8414 184.346 69.5875C184.796 68.6986 185.118 67.7462 185.375 66.7938C185.504 66.4764 185.568 66.1589 185.633 65.9049C185.697 65.5875 185.761 65.2065 185.826 64.8891C185.89 64.3811 186.019 63.8097 186.148 63.3018C186.083 64.8256 186.019 66.3494 185.568 67.8097C185.44 68.2541 185.247 68.6986 185.054 69.143C184.796 69.7145 184.539 70.3494 184.088 70.7938C183.831 71.0478 183.509 71.2383 183.187 71.3652C183.058 71.3652 182.994 71.4287 182.865 71.3652C182.737 71.3018 182.608 71.2383 182.543 71.1113C182.093 70.4764 182.029 69.524 182.415 68.8256Z" fill="#B39681"/>
<path d="M337.558 37.4249C337.491 38.8688 336.36 40.1815 334.963 40.641C334.364 40.8379 333.765 40.8379 333.233 41.166C332.435 41.6255 332.102 42.4787 331.636 43.2663C330.838 44.6446 329.507 45.8261 327.977 46.2855C326.38 46.7449 324.584 46.3511 323.453 45.1697C322.854 46.9418 320.592 48.0576 318.729 47.7295C316.866 47.4013 315.269 45.9573 314.604 44.1852C314.005 45.8261 312.076 46.8106 310.413 46.4824C308.749 46.1542 307.352 44.4477 307.485 42.7413C306.753 43.5289 305.156 43.0694 304.957 42.0193C304.092 43.7914 302.429 45.1697 300.499 45.6292C299.102 45.9573 297.638 45.8261 296.441 45.0384C295.31 44.2508 294.578 42.8069 294.91 41.4286C294.046 42.3474 293.114 43.332 291.916 43.7258C290.719 44.0539 289.122 43.5289 288.856 42.2818C287.126 43.2663 284.798 43.0694 283.267 41.888C281.67 40.7066 280.939 38.5407 281.471 36.6373C281.804 35.4559 282.535 34.4713 283.4 33.6181C286.062 30.9271 289.721 29.5488 293.38 28.6955C308.417 24.7575 324.983 28.1705 337.558 37.4249Z" fill="#88B625"/>
<path d="M317.73 92.7423C316.798 92.1201 316.333 90.9536 315.867 89.8648C314.802 86.9873 313.139 84.1876 312.939 81.0768C312.806 79.1325 312.74 77.266 312.74 75.3218C312.74 74.233 312.74 73.1442 313.072 72.1332C313.272 71.3555 313.605 70.6556 313.937 69.9556C314.869 67.9336 315.8 65.9894 316.732 63.9673C317.464 62.4119 318.195 60.7788 318.794 59.1456C319.127 58.2123 319.393 57.3569 319.859 56.5014C320.258 55.8015 320.724 55.1793 321.123 54.5571C323.651 50.9797 325.314 46.4691 325.913 41.8806C325.78 41.8806 325.714 41.8028 325.514 41.8028C325.448 43.9804 324.849 46.158 323.984 48.18C323.119 50.1242 321.988 51.913 320.79 53.6239C320.258 54.4016 319.726 55.1015 319.127 55.8792C319.46 54.3238 320.125 52.924 320.591 51.5241C321.722 48.2578 322.054 44.7581 322.321 41.2585C322.387 40.3252 322.454 39.3142 322.587 38.381C322.387 38.381 322.254 38.381 322.121 38.381C321.921 40.7918 321.722 43.1249 321.323 45.5358C320.391 50.7464 318.462 55.6459 316.466 60.4677C316.399 60.6232 316.333 60.7788 316.2 60.701C316.133 60.701 316.133 60.6232 316.066 60.5454C315.933 60.2344 315.933 59.9233 316 59.5344C316.133 58.2123 316.2 56.8902 316.333 55.5682C316.399 54.7905 316.466 54.0128 316.599 53.2351C316.798 52.3018 317.064 51.3686 317.397 50.5131C318.329 47.4023 318.861 44.2137 319.193 40.8696C318.994 40.9474 318.994 41.1029 318.794 41.0251C318.262 44.6803 317.464 48.3355 316.399 51.8352C316.333 51.9907 316.266 52.1463 316.133 52.1463C315.933 52.1463 315.867 51.913 315.867 51.6796C315.534 48.2578 315.468 44.7581 315.601 41.2585C315.335 41.3362 315.202 41.4918 314.869 41.4918C315.002 45.0692 315.202 48.6466 315.468 52.1463C315.601 53.3906 315.601 55.0238 315.401 56.2681C315.002 59.4567 314.669 61.3232 313.671 63.8896C313.472 64.5117 313.072 65.1339 312.54 65.0561C312.074 64.9783 311.808 64.2784 311.742 63.734C311.343 61.5565 311.21 59.3789 311.076 57.2013C310.81 52.924 310.544 48.5688 311.076 44.2915C311.276 42.7361 311.609 41.1029 311.476 39.4697C311.343 39.4697 311.21 39.3142 311.076 39.3142C310.278 39.3142 310.145 39.392 309.347 39.392C309.28 41.9584 309.214 44.6803 309.081 47.2468C308.947 49.3465 308.415 48.3355 308.083 48.0245C308.016 47.9467 307.883 47.7134 307.816 47.6356C306.353 45.6136 305.82 42.8916 305.288 40.2474C305.089 40.3252 304.822 40.2474 304.623 40.403C305.155 43.436 305.82 46.6246 307.218 49.2688C307.683 50.1242 308.216 50.902 308.482 51.913C308.748 52.7684 308.748 53.7794 308.814 54.7127C308.814 55.8015 308.881 56.968 308.681 58.0568C308.615 58.3679 308.548 58.679 308.282 58.9123C308.083 59.0678 307.816 58.9123 307.617 58.7567C305.82 57.0458 304.822 53.3128 304.423 50.202C304.024 47.0912 303.958 43.9804 303.691 40.8696C303.292 40.8696 303.226 41.414 303.226 41.8806C303.226 46.2357 303.558 50.5131 304.224 54.7905C303.159 53.2351 302.028 51.6019 301.296 49.8132C299.832 46.0802 300.165 41.8028 300.764 37.7588C300.631 37.7588 300.431 37.681 300.298 37.681C300.165 39.703 299.899 41.6473 299.633 43.5916C299.633 43.6693 299.633 43.7471 299.566 43.7471C299.5 43.8249 299.433 43.7471 299.367 43.6693C297.437 41.5695 296.373 38.6143 294.909 36.0479C294.643 36.2034 294.31 36.2812 294.377 36.67C294.377 36.67 296.506 40.7141 297.57 42.5028C299.367 45.5358 300.099 49.2688 301.562 52.5351C302.96 55.7237 304.955 58.5234 306.685 61.5565C307.018 62.1009 307.284 62.6452 307.484 63.2674C307.75 64.0451 307.75 64.9006 307.75 65.756C307.883 70.5778 307.949 75.3995 307.949 80.2991C307.949 84.732 305.887 88.9316 303.492 92.3534C303.292 92.2757 302.96 92.7423 303.159 92.8978C303.226 92.9756 303.359 92.9756 303.425 93.0534C304.756 93.2867 306.22 93.2867 307.55 92.9756C307.75 92.8978 307.949 92.8978 308.149 92.8978C308.349 92.9756 308.548 93.0534 308.681 93.2089C309.413 93.6755 310.278 93.9866 311.143 93.9088C311.675 93.8311 312.208 93.6755 312.74 93.52C314.004 93.2089 315.268 93.1311 316.532 93.2867C316.931 93.0534 317.397 93.0534 317.73 92.7423Z" fill="#8C5F3B"/>
<path d="M307.284 49.1914C307.75 50.0469 308.282 50.8246 308.548 51.8356C308.814 52.6911 308.814 53.7021 308.881 54.6353C308.881 55.7241 308.948 56.8906 308.748 57.9794C308.681 58.2905 308.548 58.446 308.415 58.7571C308.349 58.9127 308.282 58.8349 308.415 58.9904C308.482 59.146 308.615 59.146 308.748 59.146C308.948 59.0682 309.081 58.8349 309.147 58.6016C309.28 58.2127 309.28 57.6684 309.347 57.2795C309.347 56.8129 309.347 56.3463 309.347 55.8796C309.347 54.6353 309.413 53.391 309.081 52.2244C308.814 50.9024 308.149 49.7358 307.284 49.1914Z" fill="#B39681"/>
<path d="M303.492 92.1202C305.887 88.6983 307.883 84.4987 307.95 80.0658C307.95 75.2441 307.883 70.4223 307.75 65.5228C307.75 64.6674 307.683 63.8119 307.484 63.0342C307.284 62.412 307.018 61.8676 306.685 61.3232C307.484 61.7121 307.95 62.5676 308.216 63.423C308.482 64.3563 308.548 65.3673 308.615 66.3005C308.881 71.5111 308.948 76.7995 308.814 82.0101C308.814 83.1766 308.748 84.3432 308.415 85.5098C308.083 86.5208 307.617 87.3762 307.085 88.2317C306.087 89.8649 304.956 91.5758 303.425 92.5868C303.226 92.4313 303.425 92.198 303.492 92.1202Z" fill="#B39681"/>
<path d="M301.697 7.10219C300.632 6.57712 299.368 6.70839 298.37 7.29909C297.438 7.95544 296.84 9.13685 296.906 10.2526C294.178 9.13685 290.785 10.187 289.188 12.5498C288.457 13.6656 288.124 15.2408 289.055 16.291C288.323 16.4222 287.658 16.7504 287.192 17.3411C286.793 17.9318 286.727 18.8507 287.325 19.2445C286.128 19.507 284.731 19.8352 283.733 20.6228C282.801 21.3448 282.136 22.7231 282.602 23.8389C281.138 24.2327 279.807 25.3485 279.408 26.7924C279.009 28.2364 279.807 30.0085 281.271 30.468C280.539 31.6494 280.007 33.0933 280.34 34.4716C280.672 35.85 282.003 37.0314 283.4 36.8345C283.467 38.2128 284.864 39.2629 286.128 39.788C286.86 40.0505 287.725 40.2474 288.523 39.9849C289.321 39.7224 289.92 38.8691 289.654 38.0815C289.787 38.6066 290.253 39.066 290.785 39.2629C291.317 39.4598 291.916 39.4598 292.515 39.3286C293.912 39.066 295.309 38.3441 295.842 37.0314C296.973 39.1317 299.434 40.9694 301.896 41.1007C302.961 41.1663 304.025 40.9694 304.957 40.3787C305.822 39.788 306.487 38.8035 306.487 37.7533C306.62 38.6066 307.285 39.4598 308.017 39.9849C308.749 40.51 309.747 40.7725 310.612 40.9038C311.676 41.0351 312.807 41.1663 313.805 40.8382C314.87 40.5756 315.801 39.9193 316.267 38.9348C315.935 40.0505 315.602 41.4945 316.068 42.6103C316.533 43.7261 317.531 44.5793 318.729 44.7762C319.926 44.9731 321.257 44.3824 321.723 43.2666C322.588 44.448 324.118 45.17 325.582 45.1044C327.045 45.0387 328.509 44.1855 329.241 42.9384C329.707 42.2165 329.84 41.1663 329.241 40.6413C329.574 40.9694 329.906 40.9038 330.372 40.9694C331.17 41.0351 332.035 41.1663 332.834 40.8382C333.632 40.5756 334.298 39.788 334.231 39.0004C335.296 39.4598 336.56 39.5255 337.691 39.1973C338.09 39.066 338.423 38.9348 338.622 38.6066C338.822 38.2784 338.755 37.7533 338.423 37.6221C339.354 37.2939 339.554 36.2438 339.953 35.3249C340.219 34.7342 340.419 34.0778 340.285 33.4215C340.152 32.7652 339.554 32.1744 338.955 32.3057C340.285 31.5181 339.753 29.4834 338.755 28.302C337.757 27.1206 336.16 26.6612 334.63 26.3986C336.16 26.2674 337.824 25.8736 338.888 24.6921C339.953 23.5764 339.953 21.4104 338.556 20.6885C339.953 19.3101 340.285 16.9473 339.287 15.2408C338.289 13.5343 336.094 12.6155 334.164 13.0749C333.632 11.9591 332.102 11.1715 330.904 10.8433C329.707 10.4495 328.443 10.4495 327.179 10.3839C326.779 8.0867 324.185 6.44585 321.856 7.03656C320.459 7.43036 319.328 8.48051 318.33 9.53066C317.731 8.34924 316.799 7.23346 315.469 6.70839C314.205 6.24895 312.541 6.51148 311.743 7.62726C311.61 7.82417 311.41 8.0867 311.144 8.15234C310.945 8.15234 310.745 8.02107 310.612 7.95544C308.084 6.18331 304.557 6.05204 301.896 7.62726C301.83 7.6929 301.697 7.6929 301.63 7.6929C301.563 7.56163 301.697 7.03656 301.697 7.10219Z" fill="#A1D432"/>
<path d="M303.027 11.5C302.495 11.6969 301.963 11.8938 301.497 12.0907C301.364 12.1563 301.231 12.222 301.098 12.2876C300.765 12.4845 300.565 12.8783 300.499 13.2721C299.967 13.0096 299.301 13.0752 298.703 13.2721C298.104 13.469 297.638 13.8628 297.172 14.2566C296.507 13.469 295.243 13.4034 294.245 13.6003C293.38 13.7972 292.582 14.2566 291.983 14.913C291.384 15.5693 291.051 16.4882 291.118 17.3414C291.65 17.2102 292.182 17.2758 292.648 17.4727C293.114 17.6696 293.513 18.0634 293.912 18.3916C293.979 18.4572 294.045 18.5229 294.112 18.5229C294.178 18.5229 294.245 18.4572 294.245 18.3916C294.91 17.4071 296.108 16.882 297.305 16.882C298.503 16.9476 299.634 17.4727 300.432 18.326C300.432 17.5383 300.965 16.8164 301.63 16.4226C302.295 15.9631 303.094 15.7662 303.826 15.5693C304.291 15.4381 304.757 15.3068 305.156 15.1755C304.824 14.3879 304.69 13.6003 304.757 12.7471C304.824 11.8938 305.223 11.1062 305.822 10.5811C305.888 10.5155 306.021 10.4499 305.955 10.3186C305.955 10.253 305.888 10.1873 305.822 10.1873C305.422 9.99042 304.89 10.1217 304.424 10.253C304.225 10.4499 303.892 10.5811 303.559 10.778C303.227 10.9093 302.894 11.1718 303.027 11.5Z" fill="#88B625"/>
<path opacity="0.6" d="M287.325 39.6579C286.726 39.7235 286.127 39.5266 285.728 39.0672C285.395 38.6077 285.395 37.8857 285.861 37.4919C284.198 37.0325 282.867 35.5229 282.667 33.8164C282.468 32.1099 283.399 30.3378 284.93 29.5502C284.797 27.975 285.395 26.3341 286.659 25.4809C287.924 24.6276 289.92 24.7589 290.918 26.006C290.053 26.9248 290.385 28.3032 290.718 29.4846C290.119 29.8127 289.72 30.3378 289.52 30.9285C288.389 30.5347 286.992 31.1254 286.393 32.1099C285.462 33.6195 285.994 35.8511 287.591 36.7043C287.724 36.77 287.857 36.8356 287.924 36.9669C287.99 37.0325 287.924 37.1638 287.924 37.2294C287.857 37.5576 287.724 37.9514 287.79 38.2795C287.857 38.6734 288.456 38.8046 288.456 39.0672C288.323 39.3953 287.591 39.5922 287.325 39.6579Z" fill="#E0CD9E"/>
<path opacity="0.6" d="M325.049 35.7191C325.315 35.3909 325.448 34.9971 325.448 34.5377C325.448 34.0782 325.115 33.6844 324.716 33.6188C325.381 33.225 325.448 32.3061 325.248 31.5185C325.115 30.8622 324.849 30.2058 324.317 29.7464C323.785 29.287 323.053 29.0244 322.388 29.287C322.521 27.9743 321.656 26.596 320.458 26.0709C319.194 25.5458 317.664 25.874 316.799 26.8585C316.133 25.8083 314.869 25.2176 313.605 25.2833C312.341 25.3489 311.21 26.2021 310.678 27.3179C312.208 27.121 313.672 28.565 313.539 30.0746C314.404 29.4839 315.734 29.7464 316.267 30.5996C317.464 29.8777 319.061 29.5495 320.325 30.2058C321.589 30.8622 322.254 32.5687 321.456 33.6844C322.121 34.0126 322.587 34.669 322.654 35.4566C322.72 36.3098 321.39 37.2287 322.454 37.36C323.452 37.4912 324.583 36.5067 325.049 35.7191Z" fill="#E0CD9E"/>
<path d="M320.991 37.163C321.59 37.6881 322.654 37.5568 323.186 36.9005C323.719 36.3098 323.719 35.3252 323.32 34.6689C323.053 34.2095 322.721 33.8813 322.188 33.9469C322.92 33.6188 323.12 32.6999 323.12 31.8466C323.12 31.4528 323.12 30.9934 322.987 30.5996C322.654 29.2869 321.39 28.2368 320.059 28.1711C318.662 28.0399 317.265 28.9587 316.799 30.2058C316.733 29.5494 316.267 28.8931 315.602 28.6306C314.936 28.368 314.005 28.5649 313.805 29.2869C313.938 27.5148 312.541 25.8083 310.811 25.5458C309.082 25.2176 307.219 26.3334 306.553 27.9086C305.888 29.5494 306.42 31.5841 307.751 32.6999C307.418 32.503 306.953 32.503 306.553 32.6999C305.622 33.0937 305.023 34.1438 304.957 35.194C304.89 36.2441 305.356 37.2286 306.021 38.0162C306.354 38.4757 306.819 38.8695 307.418 38.8695C306.886 37.9506 307.019 36.5067 307.551 35.5878C308.15 34.6689 309.281 34.1438 310.346 34.2095C309.68 33.4875 309.281 32.503 309.481 31.5185C309.68 30.534 310.412 29.6807 311.41 29.5494C312.408 29.4182 313.473 30.1401 313.473 31.1247C313.872 30.5996 314.404 30.0745 315.069 30.1401C315.735 30.2058 316.334 30.7965 316.334 31.4528C316.6 30.9278 317.199 30.7965 317.731 30.6652C318.995 30.4027 320.392 31.2559 320.858 32.4373C320.991 32.8968 321.057 33.4875 320.725 33.8813C321.257 33.75 321.789 34.2751 321.922 34.8658C322.055 35.3252 322.055 35.7847 321.856 36.1785C321.723 36.7036 321.457 37.163 320.991 37.163Z" fill="#BEE960"/>
<path d="M302.695 32.6347C303.427 32.4378 303.959 31.7814 304.092 31.0594C304.225 30.3375 303.959 29.5499 303.427 29.0248C302.695 28.3028 301.298 28.0403 300.632 28.8279C301.497 27.7777 301.032 26.0712 299.9 25.3493C298.703 24.6273 297.173 24.8898 296.108 25.8087C295.443 26.3338 295.11 26.9245 294.844 27.7777C294.977 27.1214 294.711 26.3994 294.112 26.0056C293.513 25.6118 292.715 25.6118 292.183 26.0056C292.116 26.0056 292.116 26.0712 292.116 26.1369C292.116 26.2025 292.183 26.1369 292.183 26.1369C292.382 25.0867 291.251 24.1022 290.187 24.2335C289.122 24.3648 288.324 25.4149 288.191 26.465C288.058 27.5152 288.523 28.5653 289.189 29.4186C287.858 28.7622 286.062 29.156 285.064 30.2718C284.066 31.3876 283.733 32.9628 283.999 34.4068C284.199 35.1944 284.531 35.982 285.13 36.5727C285.729 37.1634 286.594 37.4916 287.392 37.3603C287.392 37.2947 287.126 37.3603 287.126 37.426C286.927 37.7541 286.86 38.2136 286.993 38.6074C287.126 39.0012 287.525 39.2637 287.925 39.3293C288.257 39.395 288.723 39.1981 288.79 38.8699C288.39 38.7386 287.991 38.2792 287.991 37.8854C287.925 37.4916 288.191 37.0321 288.523 36.8352C287.658 36.3102 287.06 35.3257 287.06 34.3411C287.06 33.291 287.592 32.3065 288.523 31.7814C289.322 31.322 290.386 31.2563 291.052 31.847C290.785 31.3876 290.785 30.6 290.919 30.1406C291.118 29.6155 291.517 29.2217 291.983 29.0248C292.316 28.8935 292.648 28.8935 292.981 28.8935C293.38 28.8935 293.846 28.9591 294.179 29.156C294.578 29.353 294.844 29.6811 294.911 30.1406C294.977 29.6811 295.177 29.2873 295.576 29.0248C295.975 28.7622 296.441 28.6966 296.973 28.631C297.638 28.631 298.37 28.7622 298.836 29.2873C299.302 29.8124 299.302 30.6656 298.769 31.1251C299.302 30.7969 300.1 31.0594 300.499 31.5845C301.032 32.2409 301.165 33.291 300.632 33.8817C301.032 34.2099 301.364 34.5381 301.896 34.4068C302.362 34.2755 302.828 33.8817 303.027 33.4223C303.094 33.2254 303.161 33.0285 303.027 32.8972C302.894 32.5034 302.761 32.4378 302.695 32.6347Z" fill="#BEE960"/>
<path d="M330.172 21.1481C331.104 21.9357 332.102 22.6577 333.299 22.9859C334.497 23.314 335.894 23.0515 336.626 22.1326C337.424 21.2137 337.225 19.5729 336.094 19.0478C338.223 18.1289 339.221 15.5036 338.622 13.272C338.023 11.0404 336.094 9.33395 333.832 8.6776C331.969 8.0869 329.64 8.2838 328.309 9.72775C328.842 8.34943 327.977 6.70858 326.646 6.11787C325.315 5.46153 323.719 5.5928 322.321 6.05224C320.791 6.51168 319.394 7.49619 318.995 9.07141C319.327 8.15253 318.995 7.03675 318.329 6.38041C317.664 5.72407 316.533 5.3959 315.535 5.46153C314.537 5.52717 313.606 5.9866 312.807 6.57731C312.475 6.83985 312.142 7.16802 312.341 7.56182C312.608 5.85534 311.61 4.08321 310.079 3.22997C308.549 2.37673 306.62 2.44236 305.023 3.16434C304.491 3.42687 304.025 3.68941 303.692 4.21448C303.36 4.73956 303.293 5.33026 303.493 5.85534C301.962 5.00209 299.833 5.52716 298.902 6.97112C297.97 8.41507 298.37 10.5154 299.767 11.5655C301.164 12.6157 303.36 12.4188 304.757 11.303C304.225 11.4342 303.825 11.9593 303.759 12.4844C303.759 13.1407 304.225 13.6658 304.757 13.994C305.289 14.3221 305.888 14.519 306.42 14.9128C305.422 14.0596 304.025 13.6658 302.694 13.994C301.43 14.2565 300.299 15.1754 299.767 16.3568C299.567 16.8162 299.434 17.4069 299.7 17.8664C299.634 16.6193 298.636 15.4379 297.305 15.241C295.974 15.0441 294.71 16.1599 294.577 17.4726C294.311 16.4881 293.313 15.8317 292.249 15.8974C291.916 15.963 291.65 16.0286 291.317 16.1599C290.053 16.7506 289.122 18.0633 288.989 19.4416C288.855 20.8199 289.521 22.2639 290.652 23.1171C290.12 22.0013 290.652 20.4918 291.65 19.7698C292.648 19.0478 294.178 19.1134 295.043 19.9667C294.91 19.5072 295.043 18.9822 295.376 18.5884C295.708 18.1946 296.174 17.9977 296.706 17.932C297.771 17.8008 298.968 18.3258 299.235 19.3103C299.501 18.9822 299.9 18.7853 300.366 18.654C300.831 18.5884 301.297 18.7196 301.563 19.1134C301.43 18.5884 301.896 18.0633 302.229 17.6039C302.628 17.21 303.093 16.9475 303.559 16.685C304.757 16.0943 306.154 15.7005 307.485 15.963C306.819 15.3067 306.354 14.3221 306.553 13.3376C306.753 12.4188 307.684 11.6311 308.616 11.6968C308.416 11.5655 308.283 11.2373 308.283 10.9748C308.283 10.7123 308.35 10.4497 308.483 10.1872C308.882 9.39958 309.747 8.74324 310.678 8.80887C311.61 8.80887 312.541 9.53085 312.608 10.4497C312.341 9.72775 312.807 8.87451 313.539 8.4807C314.204 8.0869 315.069 8.0869 315.868 8.21817C316.932 8.41507 318.063 9.00578 318.396 9.99029C318.928 8.87451 320.126 8.15253 321.323 7.95563C322.521 7.75873 323.785 8.15253 324.65 9.00578C325.049 9.39958 325.315 9.85902 325.448 10.3841C325.515 10.9092 325.448 11.4999 325.049 11.8937C326.114 11.3686 327.178 11.1061 328.309 11.303C329.507 11.4999 330.571 12.0906 331.237 13.0751C331.702 13.7314 331.902 14.4534 332.035 15.241C332.235 16.2912 332.235 17.4069 331.836 18.3915C331.37 19.376 330.372 20.0979 329.241 19.9667C329.573 20.4261 329.84 20.8856 330.172 21.1481Z" fill="#BEE960"/>
<path d="M315.402 26.5304C315.336 26.2679 315.269 25.9397 315.402 25.6772C315.469 25.4147 315.735 25.1521 316.001 25.1521C316.267 25.1521 316.6 25.4147 316.533 25.6772C316.666 25.2834 316.999 24.8896 317.398 24.7583C317.797 24.627 318.329 24.7583 318.596 25.0865C318.862 25.4147 318.795 26.0054 318.463 26.2679C318.662 26.0054 319.128 26.071 319.261 26.3335C319.394 26.5961 319.327 26.9899 319.128 27.2524C318.928 27.5149 318.596 27.6462 318.329 27.7775C317.864 28.04 317.065 28.8933 316.533 28.6307C315.934 28.3026 315.535 27.0555 315.402 26.5304Z" fill="#BEE960"/>
<path d="M327.843 39.8544C329.174 40.117 330.638 39.7232 331.636 38.8043C332.634 37.8854 333.166 36.4415 332.966 35.1288C332.9 34.5381 332.634 33.8817 332.234 33.4879C331.769 33.0285 331.103 32.7659 330.505 32.9628C331.769 32.8316 332.9 31.7814 333.166 30.5344C333.432 29.2873 332.833 27.909 331.835 27.187C330.771 26.3994 329.307 26.2682 328.176 26.7932C328.043 26.8589 327.91 26.9245 327.976 27.0558C328.109 26.5963 328.242 26.0713 328.642 25.8087C330.371 24.6273 332.966 24.5617 334.63 25.8744C336.359 27.1214 336.958 29.6811 336.027 31.5189C335.694 32.1096 335.228 32.7003 334.497 32.7659C335.228 33.0285 335.761 33.7505 335.694 34.5381C335.694 34.8662 335.561 35.1944 335.361 35.3913C335.162 35.5882 334.763 35.6538 334.497 35.5226C335.428 36.704 335.162 38.4761 334.23 39.6575C333.299 40.8389 331.769 41.364 330.305 41.4297C329.44 41.4297 328.509 41.2984 327.777 40.7733C327.644 40.642 327.511 40.5108 327.444 40.3795C327.378 40.0513 327.644 39.8544 327.843 39.8544Z" fill="#BEE960"/>
<path d="M336.759 32.3056C337.358 32.5025 337.824 33.0932 338.023 33.6839C338.156 34.0777 338.156 34.4715 338.156 34.8654C338.09 35.3248 337.957 35.7842 337.624 36.1124C337.292 36.4406 336.759 36.5718 336.36 36.4406C336.36 37.1625 336.294 38.0158 336.826 38.5409C337.292 39.0659 338.156 39.3285 338.822 39.0659C339.487 38.7378 339.82 37.7533 339.288 37.2282C340.152 37.4907 341.084 37.2282 341.882 36.7031C342.548 36.2437 343.08 35.5873 343.28 34.7997C343.479 34.0121 343.213 33.1589 342.548 32.6338C341.882 32.1743 340.884 32.24 340.352 32.8963C340.818 32.6338 340.884 32.0431 340.685 31.5836C340.485 31.1242 340.019 30.8617 339.554 30.7304C338.888 30.4679 338.156 30.4679 337.558 30.796C336.959 30.9929 336.56 31.6493 336.759 32.3056Z" fill="#BEE960"/>
<path d="M287.258 39.6569C286.46 39.5257 285.661 39.2631 285.062 38.7381C284.464 38.213 284.064 36.9659 284.331 36.1783C283.066 36.5065 281.603 35.7845 281.071 34.6031C280.538 33.4217 281.137 31.8465 282.268 31.2558C281.137 30.9932 280.405 29.7462 280.472 28.6304C280.538 27.5146 281.27 26.4645 282.202 25.7425C283.133 25.0205 284.264 24.2986 285.329 24.6924C284.663 24.1673 284.53 23.1171 284.863 22.3295C285.196 21.5419 285.861 20.9512 286.659 20.4918C286.925 20.3605 287.192 20.2292 287.458 20.1636C288.056 20.0323 288.722 20.098 289.254 20.4261C289.387 19.9667 289.121 19.1135 288.722 18.7853C287.591 17.8664 285.927 17.6039 284.53 18.1289C283.133 18.654 282.069 19.9667 281.869 21.4106C281.802 21.8701 281.802 22.2639 281.935 22.7233C282.069 23.1171 282.401 23.5109 282.8 23.6422C282.069 22.8546 280.937 22.5264 279.873 22.6577C278.808 22.789 277.81 23.5109 277.345 24.4955C277.145 24.9549 277.012 25.48 277.145 25.9394C277.345 26.3988 277.877 26.7926 278.343 26.6614C277.677 26.9239 277.212 27.5146 277.079 28.171C276.879 28.8273 277.012 29.5493 277.278 30.14C277.478 30.6651 277.877 31.1245 278.343 31.4527C278.808 31.7152 279.474 31.7808 280.006 31.5183C278.542 32.0434 277.677 33.7499 277.943 35.2595C278.21 36.769 279.474 38.0817 281.004 38.4099C281.802 38.6068 282.8 38.4755 283.266 37.8192C283.133 38.213 283.2 38.3443 283.2 38.7381C283.2 39.2631 283.333 39.9195 283.798 40.2476C284.264 40.5758 284.996 40.5758 285.262 40.0507C285.196 40.5102 285.528 40.9696 285.994 41.2322C286.26 41.3634 286.593 41.4291 286.859 41.4947C289.187 41.6916 289.321 39.2631 289.321 39.2631C289.321 39.2631 288.056 39.7882 287.258 39.6569Z" fill="#BEE960"/>
<path d="M305.289 25.6113C305.223 24.6924 305.555 23.7735 306.088 23.0515C306.62 22.3295 307.418 21.8045 308.35 21.5419C308.616 21.4763 308.882 21.4107 309.148 21.4763C309.88 21.4763 310.545 21.8701 310.878 22.4608C311.743 21.0169 313.606 20.4918 315.136 21.0825C315.735 21.345 316.334 21.8045 316.467 22.4608C317.997 21.4763 320.126 21.7388 321.59 22.8546C322.255 23.3797 322.787 24.1673 322.654 24.9549C323.386 23.9048 324.85 23.6422 326.114 24.036C326.713 24.2329 327.312 24.8236 327.711 25.3487C328.11 25.8738 328.243 26.5958 328.043 27.1865C328.709 26.727 329.308 26.1363 329.574 25.3487C329.973 24.1017 329.241 22.7234 328.177 22.0014C327.644 21.6076 326.979 21.4107 326.314 21.4107C325.648 21.4107 324.983 21.7388 324.65 22.2639C324.584 21.0825 323.586 19.9667 322.388 19.7698C321.191 19.5729 319.86 20.2949 319.394 21.4107C319.195 20.7543 318.396 20.4918 317.864 20.5574C317.332 20.6231 316.866 20.9512 316.6 21.4107C316.999 20.2949 316.134 19.1791 315.203 18.5884C314.005 17.8008 312.541 17.407 311.144 17.6039C309.747 17.8664 308.416 18.8509 308.084 20.2293C307.551 20.0324 306.753 20.1636 306.287 20.4918C305.822 20.82 305.356 21.2138 305.09 21.7388C304.491 22.8546 304.424 24.4298 304.957 25.5456C305.09 25.7425 305.289 26.0051 305.489 25.9394C305.356 25.9394 305.356 25.6769 305.289 25.6113Z" fill="#88B625"/>
<path d="M342.548 29.0895C342.88 28.827 343.013 28.3019 342.814 27.9738C343.346 27.7769 343.812 27.4487 344.078 26.9892C344.344 26.5298 344.277 25.8735 343.878 25.4797C343.479 25.1515 342.681 25.2171 342.481 25.7422C342.88 25.414 343.013 24.8233 342.88 24.2982C342.814 24.1013 342.747 23.9701 342.614 23.8388C342.281 23.5763 341.816 23.5763 341.417 23.7732C340.352 24.2326 340.019 26.9236 339.021 26.858C337.757 26.7923 341.283 30.1397 342.548 29.0895Z" fill="#A1D432"/>
<path d="M342.215 20.8865C342.281 20.6896 342.281 20.427 342.215 20.2301C342.148 20.0332 342.015 19.8363 341.749 19.8363C341.416 19.7707 341.15 20.1645 341.017 20.4927C340.884 20.8865 340.817 22.8555 340.817 22.8555C340.817 22.8555 342.082 21.4116 342.215 20.8865Z" fill="#A1D432"/>
<path d="M296.307 6.44667C296.241 6.24977 296.108 6.05286 295.908 5.85596C295.709 5.72469 295.443 5.59343 295.243 5.65906C294.91 5.72469 294.711 6.1185 294.711 6.44667C294.711 6.77484 294.844 7.10301 295.043 7.36555C294.844 7.23428 294.578 7.10301 294.378 7.10301C294.112 7.10301 293.846 7.29991 293.846 7.49682C293.846 7.69372 293.979 7.82499 294.112 7.89062C294.245 7.95625 294.445 8.02189 294.578 8.02189C294.91 8.08752 296.174 8.28442 296.507 8.67823C296.84 9.13767 296.507 6.84047 296.307 6.44667Z" fill="#A1D432"/>
<path d="M321.324 4.93676C321.523 4.67422 321.723 4.41168 321.856 4.14915C321.989 3.82098 321.989 3.4928 321.856 3.23027C321.723 2.9021 321.39 2.7052 321.058 2.77083C320.725 2.83646 320.459 3.23027 320.592 3.4928C320.725 3.16463 320.658 2.77083 320.525 2.44266C320.459 2.31139 320.392 2.18012 320.259 2.11449C319.993 1.91759 319.594 1.98322 319.328 2.24576C319.128 2.50829 319.062 2.83646 319.062 3.16463C319.128 3.4928 319.261 3.82098 319.394 4.08351C319.527 4.41168 320.259 5.00239 320.193 5.79C320.259 6.11817 321.058 5.19929 321.324 4.93676Z" fill="#A1D432"/>
<path d="M275.882 33.8156C275.615 33.8813 275.349 33.8813 275.15 33.6844C274.95 33.4875 274.95 33.0937 275.15 32.8311C275.349 32.5686 275.615 32.4373 275.948 32.306C275.615 32.2404 275.216 32.1091 275.15 31.781C275.083 31.5184 275.216 31.2559 275.416 31.1246C275.615 30.9934 275.882 30.9277 276.148 30.9277C276.747 30.9277 278.942 31.781 278.277 32.0435C277.013 32.5686 276.48 33.6844 275.882 33.8156Z" fill="#A1D432"/>
<path d="M277.279 35.7186C277.212 35.9155 277.013 36.0468 276.813 36.0468C276.614 36.0468 276.414 35.8499 276.347 35.7186C276.148 35.1936 276.88 34.6685 277.212 33.8152C277.479 32.962 277.479 35.3248 277.279 35.7186Z" fill="#A1D432"/>
<path d="M286.061 14.7158C285.994 14.3219 286.261 13.7969 286.726 13.7969C287.125 13.7969 287.458 14.1907 287.591 14.5189C287.791 14.9127 288.323 15.8972 287.591 16.0284C286.992 16.0941 286.127 15.2408 286.061 14.7158Z" fill="#A1D432"/>
<path d="M315.336 42.2171C315.402 42.5453 315.402 42.9391 315.336 43.2673C315.202 43.5954 314.87 43.858 314.537 43.7923C314.338 43.7267 314.138 43.5298 314.071 43.3329C314.005 43.136 314.005 42.8734 314.071 42.6765C314.138 42.1515 314.404 41.2982 315.003 41.1013C315.735 40.7732 315.269 41.692 315.336 42.2171Z" fill="#A1D432"/>
<path d="M305.888 41.3631C305.688 41.6912 305.355 41.9538 305.222 42.3476C305.023 42.6757 305.023 43.1352 305.289 43.4634C305.489 43.7259 305.888 43.7259 306.154 43.5946C306.42 43.4634 306.553 43.0695 306.42 42.7414C306.753 43.0039 307.218 43.2664 307.551 43.0039C307.817 42.8726 307.95 42.4788 307.884 42.1507C307.817 41.8225 307.618 41.56 307.418 41.3631C307.285 41.1662 306.753 40.2473 306.487 40.3129C306.287 40.3129 306.021 41.1662 305.888 41.3631Z" fill="#A1D432"/>
<path d="M311.395 63.0572C311.462 63.4952 311.595 63.8602 311.729 64.2252C311.795 64.4442 311.929 64.6632 312.129 64.8092C312.396 64.9552 312.663 64.8822 312.93 64.6632C313.131 64.4442 313.264 64.2252 313.398 63.9332C313.865 62.9112 314.199 61.8162 314.466 60.7211C314.599 60.3561 314.666 59.9911 314.733 59.6991C314.8 59.3341 314.866 58.8961 314.933 58.5311C315 57.9471 315.133 57.2901 315.267 56.7061C315.2 58.4581 315.133 60.2101 314.666 61.8892C314.532 62.4002 314.332 62.9112 314.132 63.4222C313.865 64.0792 313.598 64.8092 313.131 65.3202C312.864 65.6122 312.53 65.8312 312.196 65.9773C312.062 65.9773 311.996 66.0503 311.862 65.9773C311.729 65.9042 311.595 65.8312 311.528 65.6852C311.061 64.9552 310.994 63.8602 311.395 63.0572Z" fill="#B39681"/>
</svg>
