<svg width="822" height="172" viewBox="0 0 822 172" fill="none" xmlns="http://www.w3.org/2000/svg">
<path d="M0.789376 119.75C0.65119 120.285 0.972643 120.83 1.50736 120.968L10.2211 123.22C10.7558 123.358 11.3013 123.037 11.4395 122.502C11.5777 121.967 11.2562 121.422 10.7215 121.284L2.97597 119.282L4.97762 111.536C5.11581 111.002 4.79436 110.456 4.25964 110.318C3.72492 110.18 3.17942 110.501 3.04124 111.036L0.789376 119.75ZM179.211 16.2502C179.349 15.7155 179.027 15.17 178.493 15.0318L169.779 12.7799C169.244 12.6418 168.699 12.9632 168.561 13.4979C168.422 14.0326 168.744 14.5781 169.279 14.7163L177.024 16.718L175.022 24.4635C174.884 24.9982 175.206 25.5437 175.74 25.6819C176.275 25.8201 176.821 25.4986 176.959 24.9639L179.211 16.2502ZM2.26526 120.862L178.75 16.8615L177.735 15.1385L1.24988 119.138L2.26526 120.862Z" fill="#CC913A"/>
<circle cx="91" cy="67" r="4" fill="#CC913A"/>
<path d="M102.515 60.9669C100.915 57.9128 98.1674 55.6195 94.8765 54.5914C91.5855 53.5633 88.0209 53.8846 84.9669 55.4847C81.9128 57.0848 79.6195 59.8326 78.5914 63.1235C77.5633 66.4145 77.8846 69.9791 79.4847 73.0331L81.4191 72.0197C80.0878 69.4787 79.8204 66.5129 80.6758 63.7747C81.5312 61.0366 83.4393 58.7504 85.9803 57.4191C88.5213 56.0878 91.4871 55.8204 94.2253 56.6758C96.9634 57.5312 99.2496 59.4393 100.581 61.9803L102.515 60.9669Z" fill="#CC913A"/>
<circle cx="274.342" cy="14.3214" r="4.34218" fill="#004BC4"/>
<path d="M290.89 16.6046L288.314 34.4813L270.437 31.9052" stroke="#004BC4" stroke-width="2"/>
<path d="M393.573 33.1704C393.892 33.6214 393.785 34.2454 393.334 34.5642L385.985 39.7598C385.534 40.0786 384.91 39.9715 384.591 39.5205C384.272 39.0695 384.379 38.4455 384.83 38.1267L391.363 33.5084L386.744 26.976C386.426 26.5251 386.533 25.901 386.984 25.5822C387.435 25.2634 388.059 25.3705 388.378 25.8215L393.573 33.1704ZM274.329 13.4183L273.344 13.2491L273.513 12.2635L274.499 12.4327L274.329 13.4183ZM254.577 132.662C254.126 132.981 253.502 132.874 253.183 132.423L247.988 125.074C247.669 124.623 247.776 123.999 248.227 123.68C248.678 123.361 249.302 123.468 249.621 123.919L254.239 130.452L260.772 125.833C261.223 125.515 261.847 125.622 262.165 126.073C262.484 126.524 262.377 127.148 261.926 127.466L254.577 132.662ZM392.587 34.7333L274.16 14.4039L274.499 12.4327L392.926 32.7621L392.587 34.7333ZM275.315 13.5875L254.986 132.015L253.014 131.676L273.344 13.2491L275.315 13.5875Z" fill="#004BC4"/>
<circle cx="507.151" cy="14.6526" r="4.15085" fill="#33C400"/>
<path d="M575.085 138.62C574.926 139.149 574.368 139.449 573.839 139.29L565.221 136.697C564.692 136.538 564.392 135.981 564.551 135.452C564.71 134.923 565.268 134.623 565.797 134.782L573.458 137.087L575.762 129.426C575.921 128.897 576.479 128.597 577.008 128.756C577.537 128.915 577.837 129.473 577.678 130.002L575.085 138.62ZM507.137 13.7019L506.15 13.5456L506.613 10.6146L508.018 13.2284L507.137 13.7019ZM487.282 143.761C486.835 144.086 486.21 143.987 485.885 143.54L480.593 136.26C480.268 135.813 480.367 135.188 480.814 134.863C481.261 134.538 481.886 134.637 482.211 135.084L486.915 141.555L493.386 136.852C493.833 136.527 494.458 136.626 494.783 137.072C495.107 137.519 495.008 138.145 494.562 138.469L487.282 143.761ZM573.247 138.806L506.257 14.1753L508.018 13.2284L575.008 137.859L573.247 138.806ZM508.125 13.8581L487.681 143.108L485.706 142.796L506.15 13.5456L508.125 13.8581Z" fill="#33C400"/>
<path d="M520.219 35.7979C520.641 38.1577 520.108 40.5866 518.739 42.5502C517.37 44.5138 515.276 45.8513 512.918 46.2683C510.56 46.6854 508.131 46.148 506.166 44.7742C504.201 43.4005 502.86 41.303 502.439 38.9431L503.932 38.679C504.283 40.6424 505.398 42.3876 507.033 43.5306C508.668 44.6735 510.689 45.1207 512.651 44.7737C514.613 44.4266 516.355 43.3139 517.494 41.6801C518.634 40.0464 519.077 38.0255 518.726 36.062L520.219 35.7979Z" fill="#33C400"/>
<circle cx="719.567" cy="74.0415" r="3.13683" transform="rotate(-100.475 719.567 74.0415)" fill="#C400B0"/>
<path d="M795.482 11.8546C796.031 11.9149 796.427 12.4088 796.367 12.9578L795.384 21.904C795.324 22.453 794.83 22.8492 794.281 22.7889C793.732 22.7286 793.336 22.2347 793.396 21.6857L794.269 13.7335L786.317 12.8603C785.768 12.8 785.372 12.3061 785.432 11.7571C785.493 11.2081 785.987 10.8119 786.536 10.8722L795.482 11.8546ZM718.922 74.1705L717.977 74.4994L717.745 73.8324L718.296 73.3904L718.922 74.1705ZM749.236 159.05C748.996 159.547 748.398 159.755 747.901 159.515L739.798 155.598C739.3 155.358 739.092 154.76 739.332 154.263C739.573 153.766 740.171 153.557 740.668 153.798L747.871 157.279L751.352 150.076C751.592 149.579 752.19 149.371 752.687 149.611C753.185 149.851 753.393 150.449 753.153 150.947L749.236 159.05ZM795.998 13.6287L719.547 74.9505L718.296 73.3904L794.747 12.0686L795.998 13.6287ZM719.866 73.8415L749.28 158.286L747.392 158.943L717.977 74.4994L719.866 73.8415Z" fill="#C400B0"/>
<path d="M732.18 63.096C735.243 64.3931 737.702 66.814 739.058 69.8664C740.413 72.9188 740.563 76.3734 739.477 79.5277C738.391 82.682 736.15 85.299 733.211 86.8465C730.272 88.394 726.854 88.7558 723.654 87.8582L724.013 86.5519C726.883 87.3568 729.948 87.0324 732.584 85.6447C735.22 84.2569 737.229 81.91 738.203 79.0813C739.177 76.2527 739.043 73.1546 737.827 70.4173C736.612 67.6799 734.406 65.5089 731.66 64.3457L732.18 63.096Z" fill="#C400B0"/>
</svg>
