<svg width="522" height="287" viewBox="0 0 522 287" fill="none" xmlns="http://www.w3.org/2000/svg">
<path d="M10.1228 264.084H3.82279L2.58079 267H0.168789L5.83879 254.4H8.14279L13.8308 267H11.3828L10.1228 264.084ZM9.34879 262.248L6.97279 256.74L4.61479 262.248H9.34879Z" fill="#2F2F2F"/>
<path d="M297.773 10.448C298.469 10.676 299.021 11.06 299.429 11.6C299.837 12.128 300.041 12.788 300.041 13.58C300.041 14.672 299.621 15.518 298.781 16.118C297.941 16.706 296.717 17 295.109 17H288.845V4.4H294.749C296.237 4.4 297.383 4.694 298.187 5.282C298.991 5.858 299.393 6.656 299.393 7.676C299.393 8.3 299.249 8.852 298.961 9.332C298.673 9.812 298.277 10.184 297.773 10.448ZM291.185 6.236V9.71H294.497C295.313 9.71 295.937 9.566 296.369 9.278C296.813 8.978 297.035 8.546 297.035 7.982C297.035 7.406 296.813 6.974 296.369 6.686C295.937 6.386 295.313 6.236 294.497 6.236H291.185ZM294.965 15.164C296.777 15.164 297.683 14.558 297.683 13.346C297.683 12.134 296.777 11.528 294.965 11.528H291.185V15.164H294.965Z" fill="#2F2F2F"/>
<path d="M515.985 263.18C514.713 263.18 513.561 262.904 512.529 262.352C511.509 261.788 510.705 261.014 510.117 260.03C509.541 259.046 509.253 257.936 509.253 256.7C509.253 255.464 509.547 254.354 510.135 253.37C510.723 252.386 511.527 251.618 512.547 251.066C513.579 250.502 514.731 250.22 516.003 250.22C517.035 250.22 517.977 250.4 518.829 250.76C519.681 251.12 520.401 251.642 520.989 252.326L519.477 253.748C518.565 252.764 517.443 252.272 516.111 252.272C515.247 252.272 514.473 252.464 513.789 252.848C513.105 253.22 512.571 253.742 512.187 254.414C511.803 255.086 511.611 255.848 511.611 256.7C511.611 257.552 511.803 258.314 512.187 258.986C512.571 259.658 513.105 260.186 513.789 260.57C514.473 260.942 515.247 261.128 516.111 261.128C517.443 261.128 518.565 260.63 519.477 259.634L520.989 261.074C520.401 261.758 519.675 262.28 518.811 262.64C517.959 263 517.017 263.18 515.985 263.18Z" fill="#2F2F2F"/>
<path d="M34.3353 258.216L32.3542 259.978L35.0058 259.963L488.054 257.344L490.21 257.332L488.808 255.694L294.26 28.3498L293.597 27.5753L292.835 28.2529L34.3353 258.216Z" fill="#E7FFE8" stroke="#2CBB32" stroke-width="2"/>
</svg>
