<svg width="100" height="100" viewBox="0 0 100 100" fill="none" xmlns="http://www.w3.org/2000/svg">
<path d="M77.5578 37.4249C77.4913 38.8688 76.3602 40.1815 74.963 40.641C74.3642 40.8379 73.7655 40.8379 73.2332 41.166C72.4348 41.6255 72.1021 42.4787 71.6364 43.2663C70.838 44.6446 69.5074 45.8261 67.9771 46.2855C66.3803 46.7449 64.584 46.3511 63.4529 45.1697C62.8541 46.9418 60.592 48.0576 58.7291 47.7295C56.8662 47.4013 55.2694 45.9573 54.6041 44.1852C54.0053 45.8261 52.0758 46.8106 50.4125 46.4824C48.7492 46.1542 47.352 44.4477 47.4851 42.7413C46.7532 43.5289 45.1564 43.0694 44.9568 42.0193C44.0919 43.7914 42.4286 45.1697 40.4992 45.6292C39.102 45.9573 37.6383 45.8261 36.4407 45.0384C35.3096 44.2508 34.5778 42.8069 34.9104 41.4286C34.0455 42.3474 33.114 43.332 31.9165 43.7258C30.7189 44.0539 29.1221 43.5289 28.856 42.2818C27.1261 43.2663 24.7975 43.0694 23.2672 41.888C21.6704 40.7066 20.9386 38.5407 21.4708 36.6373C21.8035 35.4559 22.5354 34.4713 23.4003 33.6181C26.0616 30.9271 29.7209 29.5488 33.3802 28.6955C48.4165 24.7575 64.9832 28.1705 77.5578 37.4249Z" fill="#88B625"/>
<path d="M57.7297 92.7423C56.7983 92.1201 56.3325 90.9536 55.8668 89.8648C54.8023 86.9873 53.139 84.1876 52.9394 81.0768C52.8063 79.1325 52.7398 77.266 52.7398 75.3218C52.7398 74.233 52.7398 73.1442 53.0724 72.1332C53.272 71.3555 53.6047 70.6556 53.9374 69.9556C54.8688 67.9336 55.8003 65.9894 56.7317 63.9673C57.4636 62.4119 58.1954 60.7788 58.7942 59.1456C59.1269 58.2123 59.393 57.3569 59.8588 56.5014C60.258 55.8015 60.7237 55.1793 61.1229 54.5571C63.6511 50.9797 65.3144 46.4691 65.9132 41.8806C65.7802 41.8806 65.7136 41.8028 65.514 41.8028C65.4475 43.9804 64.8487 46.158 63.9838 48.18C63.1189 50.1242 61.9878 51.913 60.7902 53.6239C60.258 54.4016 59.7257 55.1015 59.1269 55.8792C59.4596 54.3238 60.1249 52.924 60.5906 51.5241C61.7217 48.2578 62.0543 44.7581 62.3205 41.2585C62.387 40.3252 62.4535 39.3142 62.5866 38.381C62.387 38.381 62.2539 38.381 62.1209 38.381C61.9213 40.7918 61.7217 43.1249 61.3225 45.5358C60.391 50.7464 58.4616 55.6459 56.4656 60.4677C56.3991 60.6232 56.3325 60.7788 56.1995 60.701C56.1329 60.701 56.1329 60.6232 56.0664 60.5454C55.9333 60.2344 55.9333 59.9233 55.9999 59.5344C56.1329 58.2123 56.1995 56.8902 56.3325 55.5682C56.3991 54.7905 56.4656 54.0128 56.5987 53.2351C56.7983 52.3018 57.0644 51.3686 57.3971 50.5131C58.3285 47.4023 58.8608 44.2137 59.1934 40.8696C58.9938 40.9474 58.9938 41.1029 58.7942 41.0251C58.262 44.6803 57.4636 48.3355 56.3991 51.8352C56.3325 51.9907 56.266 52.1463 56.1329 52.1463C55.9333 52.1463 55.8668 51.913 55.8668 51.6796C55.5341 48.2578 55.4676 44.7581 55.6007 41.2585C55.3345 41.3362 55.2015 41.4918 54.8688 41.4918C55.0019 45.0692 55.2015 48.6466 55.4676 52.1463C55.6007 53.3906 55.6007 55.0238 55.4011 56.2681C55.0019 59.4567 54.6692 61.3232 53.6712 63.8896C53.4716 64.5117 53.0724 65.1339 52.5402 65.0561C52.0744 64.9783 51.8083 64.2784 51.7418 63.734C51.3426 61.5565 51.2095 59.3789 51.0765 57.2013C50.8103 52.924 50.5442 48.5688 51.0765 44.2915C51.2761 42.7361 51.6087 41.1029 51.4757 39.4697C51.3426 39.4697 51.2095 39.3142 51.0765 39.3142C50.2781 39.3142 50.145 39.392 49.3466 39.392C49.2801 41.9584 49.2135 44.6803 49.0805 47.2468C48.9474 49.3465 48.4152 48.3355 48.0825 48.0245C48.016 47.9467 47.8829 47.7134 47.8164 47.6356C46.3526 45.6136 45.8204 42.8916 45.2881 40.2474C45.0885 40.3252 44.8224 40.2474 44.6228 40.403C45.1551 43.436 45.8204 46.6246 47.2176 49.2688C47.6833 50.1242 48.2156 50.9019 48.4817 51.913C48.7478 52.7684 48.7478 53.7794 48.8143 54.7127C48.8143 55.8015 48.8809 56.968 48.6813 58.0568C48.6147 58.3679 48.5482 58.679 48.2821 58.9123C48.0825 59.0678 47.8164 58.9123 47.6168 58.7567C45.8204 57.0458 44.8224 53.3128 44.4232 50.202C44.024 47.0912 43.9575 43.9804 43.6913 40.8696C43.2921 40.8696 43.2256 41.414 43.2256 41.8806C43.2256 46.2357 43.5583 50.5131 44.2236 54.7905C43.1591 53.2351 42.028 51.6019 41.2962 49.8132C39.8324 46.0802 40.1651 41.8028 40.7639 37.7588C40.6308 37.7588 40.4312 37.681 40.2982 37.681C40.1651 39.703 39.899 41.6473 39.6328 43.5916C39.6328 43.6693 39.6328 43.7471 39.5663 43.7471C39.4998 43.8249 39.4332 43.7471 39.3667 43.6693C37.4373 41.5695 36.3727 38.6143 34.909 36.0479C34.6429 36.2034 34.3102 36.2812 34.3768 36.67C34.3768 36.67 36.5058 40.7141 37.5703 42.5028C39.3667 45.5358 40.0986 49.2688 41.5623 52.5351C42.9595 55.7237 44.9555 58.5234 46.6853 61.5565C47.018 62.1009 47.2841 62.6452 47.4837 63.2674C47.7498 64.0451 47.7498 64.9006 47.7498 65.756C47.8829 70.5778 47.9494 75.3995 47.9494 80.2991C47.9494 84.732 45.8869 88.9315 43.4917 92.3534C43.2921 92.2757 42.9595 92.7423 43.1591 92.8978C43.2256 92.9756 43.3587 92.9756 43.4252 93.0534C44.7559 93.2867 46.2196 93.2867 47.5502 92.9756C47.7498 92.8978 47.9494 92.8978 48.149 92.8978C48.3486 92.9756 48.5482 93.0534 48.6813 93.2089C49.4131 93.6755 50.2781 93.9866 51.143 93.9088C51.6752 93.8311 52.2075 93.6755 52.7398 93.52C54.0039 93.2089 55.268 93.1311 56.5321 93.2867C56.9313 93.0534 57.3971 93.0534 57.7297 92.7423Z" fill="#8C5F3B"/>
<path d="M47.2842 49.1914C47.7499 50.0469 48.2822 50.8246 48.5483 51.8356C48.8144 52.6911 48.8144 53.7021 48.881 54.6353C48.881 55.7241 48.9475 56.8906 48.7479 57.9794C48.6814 58.2905 48.5483 58.446 48.4152 58.7571C48.3487 58.9127 48.2822 58.8349 48.4152 58.9904C48.4818 59.146 48.6148 59.146 48.7479 59.146C48.9475 59.0682 49.0806 58.8349 49.1471 58.6016C49.2802 58.2127 49.2802 57.6684 49.3467 57.2795C49.3467 56.8129 49.3467 56.3463 49.3467 55.8796C49.3467 54.6353 49.4132 53.391 49.0806 52.2244C48.8144 50.9024 48.1491 49.7358 47.2842 49.1914Z" fill="#B39681"/>
<path d="M43.4918 92.1202C45.887 88.6983 47.883 84.4987 47.9495 80.0658C47.9495 75.2441 47.883 70.4223 47.7499 65.5228C47.7499 64.6674 47.6834 63.8119 47.4838 63.0342C47.2842 62.412 47.0181 61.8676 46.6854 61.3232C47.4838 61.7121 47.9495 62.5676 48.2156 63.423C48.4818 64.3563 48.5483 65.3673 48.6148 66.3005C48.881 71.5111 48.9475 76.7995 48.8144 82.0101C48.8144 83.1766 48.7479 84.3432 48.4152 85.5098C48.0826 86.5208 47.6168 87.3762 47.0846 88.2317C46.0866 89.8649 44.9555 91.5758 43.4253 92.5868C43.2257 92.4313 43.4253 92.198 43.4918 92.1202Z" fill="#B39681"/>
<path d="M41.6965 7.10219C40.632 6.57712 39.3679 6.70839 38.3699 7.29909C37.4384 7.95544 36.8396 9.13685 36.9062 10.2526C34.1783 9.13685 30.7852 10.187 29.1884 12.5498C28.4565 13.6656 28.1238 15.2408 29.0553 16.291C28.3234 16.4222 27.6581 16.7504 27.1924 17.3411C26.7932 17.9318 26.7267 18.8507 27.3255 19.2445C26.1279 19.507 24.7307 19.8352 23.7327 20.6228C22.8012 21.3448 22.1359 22.7231 22.6016 23.8389C21.1379 24.2327 19.8073 25.3485 19.4081 26.7924C19.0089 28.2364 19.8073 30.0085 21.271 30.468C20.5391 31.6494 20.0069 33.0933 20.3395 34.4716C20.6722 35.85 22.0028 37.0314 23.4 36.8345C23.4666 38.2128 24.8637 39.2629 26.1279 39.788C26.8597 40.0505 27.7247 40.2474 28.523 39.9849C29.3214 39.7224 29.9202 38.8691 29.6541 38.0815C29.7872 38.6066 30.2529 39.066 30.7852 39.2629C31.3174 39.4598 31.9162 39.4598 32.515 39.3286C33.9122 39.066 35.3094 38.3441 35.8416 37.0314C36.9727 39.1317 39.4344 40.9694 41.8961 41.1007C42.9606 41.1663 44.0251 40.9694 44.9566 40.3787C45.8215 39.788 46.4868 38.8035 46.4868 37.7533C46.6199 38.6066 47.2852 39.4598 48.0171 39.9849C48.749 40.51 49.7469 40.7725 50.6119 40.9038C51.6764 41.0351 52.8074 41.1663 53.8054 40.8382C54.87 40.5756 55.8014 39.9193 56.2671 38.9348C55.9345 40.0505 55.6018 41.4945 56.0675 42.6103C56.5333 43.7261 57.5313 44.5793 58.7288 44.7762C59.9264 44.9731 61.2571 44.3824 61.7228 43.2666C62.5877 44.448 64.118 45.17 65.5817 45.1044C67.0454 45.0387 68.5091 44.1855 69.241 42.9384C69.7067 42.2165 69.8398 41.1663 69.241 40.6413C69.5737 40.9694 69.9063 40.9038 70.3721 40.9694C71.1704 41.0351 72.0354 41.1663 72.8338 40.8382C73.6321 40.5756 74.2975 39.788 74.2309 39.0004C75.2955 39.4598 76.5596 39.5255 77.6906 39.1973C78.0898 39.066 78.4225 38.9348 78.6221 38.6066C78.8217 38.2784 78.7552 37.7533 78.4225 37.6221C79.354 37.2939 79.5535 36.2438 79.9527 35.3249C80.2189 34.7342 80.4185 34.0778 80.2854 33.4215C80.1523 32.7652 79.5535 32.1744 78.9548 32.3057C80.2854 31.5181 79.7532 29.4834 78.7552 28.302C77.7572 27.1206 76.1604 26.6612 74.6301 26.3986C76.1604 26.2674 77.8237 25.8736 78.8882 24.6921C79.9527 23.5764 79.9527 21.4104 78.5556 20.6885C79.9527 19.3101 80.2854 16.9473 79.2874 15.2408C78.2894 13.5343 76.0939 12.6155 74.1644 13.0749C73.6321 11.9591 72.1019 11.1715 70.9043 10.8433C69.7067 10.4495 68.4426 10.4495 67.1785 10.3839C66.7793 8.0867 64.1845 6.44585 61.8559 7.03656C60.4587 7.43036 59.3276 8.48051 58.3296 9.53066C57.7309 8.34924 56.7994 7.23346 55.4688 6.70839C54.2046 6.24895 52.5413 6.51148 51.7429 7.62726C51.6099 7.82417 51.4103 8.0867 51.1441 8.15234C50.9445 8.15234 50.7449 8.02107 50.6119 7.95544C48.0836 6.18331 44.5574 6.05204 41.8961 7.62726C41.8296 7.6929 41.6965 7.6929 41.63 7.6929C41.5634 7.56163 41.6965 7.03656 41.6965 7.10219Z" fill="#A1D432"/>
<path d="M43.0271 11.5C42.4948 11.6969 41.9626 11.8938 41.4969 12.0907C41.3638 12.1563 41.2307 12.222 41.0977 12.2876C40.765 12.4845 40.5654 12.8783 40.4989 13.2721C39.9666 13.0096 39.3013 13.0752 38.7025 13.2721C38.1037 13.469 37.638 13.8628 37.1722 14.2566C36.5069 13.469 35.2428 13.4034 34.2448 13.6003C33.3799 13.7972 32.5815 14.2566 31.9827 14.913C31.3839 15.5693 31.0512 16.4882 31.1178 17.3414C31.65 17.2102 32.1823 17.2758 32.648 17.4727C33.1137 17.6696 33.5129 18.0634 33.9121 18.3916C33.9787 18.4572 34.0452 18.5229 34.1117 18.5229C34.1783 18.5229 34.2448 18.4572 34.2448 18.3916C34.9101 17.4071 36.1077 16.882 37.3053 16.882C38.5029 16.9476 39.6339 17.4727 40.4323 18.326C40.4323 17.5383 40.9646 16.8164 41.6299 16.4226C42.2952 15.9631 43.0936 15.7662 43.8255 15.5693C44.2912 15.4381 44.757 15.3068 45.1562 15.1755C44.8235 14.3879 44.6904 13.6003 44.757 12.7471C44.8235 11.8938 45.2227 11.1062 45.8215 10.5811C45.888 10.5155 46.0211 10.4499 45.9545 10.3186C45.9545 10.253 45.888 10.1873 45.8215 10.1873C45.4223 9.99042 44.89 10.1217 44.4243 10.253C44.2247 10.4499 43.892 10.5811 43.5594 10.778C43.2267 10.9093 42.894 11.1718 43.0271 11.5Z" fill="#88B625"/>
<path opacity="0.6" d="M27.3247 39.6579C26.7259 39.7235 26.1271 39.5266 25.7279 39.0672C25.3953 38.6077 25.3953 37.8857 25.861 37.4919C24.1977 37.0325 22.867 35.5229 22.6674 33.8164C22.4678 32.1099 23.3993 30.3378 24.9295 29.5502C24.7965 27.975 25.3953 26.3341 26.6594 25.4809C27.9235 24.6276 29.9195 24.7589 30.9175 26.006C30.0525 26.9248 30.3852 28.3032 30.7179 29.4846C30.1191 29.8127 29.7199 30.3378 29.5203 30.9285C28.3892 30.5347 26.992 31.1254 26.3932 32.1099C25.4618 33.6195 25.9941 35.8511 27.5908 36.7043C27.7239 36.77 27.857 36.8356 27.9235 36.9669C27.99 37.0325 27.9235 37.1638 27.9235 37.2294C27.857 37.5576 27.7239 37.9514 27.7904 38.2795C27.857 38.6734 28.4558 38.8046 28.4558 39.0672C28.3227 39.3953 27.5908 39.5922 27.3247 39.6579Z" fill="#E0CD9E"/>
<path opacity="0.6" d="M65.0488 35.7191C65.3149 35.3909 65.448 34.9971 65.448 34.5377C65.448 34.0782 65.1153 33.6844 64.7161 33.6188C65.3814 33.225 65.448 32.3061 65.2484 31.5185C65.1153 30.8622 64.8492 30.2058 64.3169 29.7464C63.7847 29.287 63.0528 29.0244 62.3875 29.287C62.5205 27.9743 61.6556 26.596 60.458 26.0709C59.1939 25.5458 57.6637 25.874 56.7987 26.8585C56.1334 25.8083 54.8693 25.2176 53.6052 25.2833C52.341 25.3489 51.21 26.2021 50.6777 27.3179C52.208 27.121 53.6717 28.565 53.5386 30.0746C54.4036 29.4839 55.7342 29.7464 56.2665 30.5996C57.4641 29.8777 59.0608 29.5495 60.325 30.2058C61.5891 30.8622 62.2544 32.5687 61.456 33.6844C62.1213 34.0126 62.5871 34.669 62.6536 35.4566C62.7201 36.3098 61.3895 37.2287 62.454 37.36C63.452 37.4912 64.5831 36.5067 65.0488 35.7191Z" fill="#E0CD9E"/>
<path d="M60.9909 37.163C61.5897 37.6881 62.6542 37.5568 63.1865 36.9005C63.7187 36.3098 63.7187 35.3252 63.3195 34.6689C63.0534 34.2095 62.7207 33.8813 62.1885 33.9469C62.9203 33.6188 63.1199 32.6999 63.1199 31.8466C63.1199 31.4528 63.1199 30.9934 62.9869 30.5996C62.6542 29.2869 61.3901 28.2368 60.0594 28.1711C58.6622 28.0399 57.265 28.9587 56.7993 30.2058C56.7328 29.5494 56.2671 28.8931 55.6017 28.6306C54.9364 28.368 54.005 28.5649 53.8054 29.2869C53.9384 27.5148 52.5412 25.8083 50.8114 25.5458C49.0815 25.2176 47.2186 26.3334 46.5533 27.9086C45.888 29.5494 46.4202 31.5841 47.7509 32.6999C47.4182 32.503 46.9525 32.503 46.5533 32.6999C45.6218 33.0937 45.023 34.1438 44.9565 35.194C44.89 36.2441 45.3557 37.2286 46.021 38.0162C46.3537 38.4757 46.8194 38.8695 47.4182 38.8695C46.886 37.9506 47.019 36.5067 47.5513 35.5878C48.1501 34.6689 49.2811 34.1438 50.3457 34.2095C49.6803 33.4875 49.2811 32.503 49.4807 31.5185C49.6803 30.534 50.4122 29.6807 51.4102 29.5494C52.4082 29.4182 53.4727 30.1401 53.4727 31.1247C53.8719 30.5996 54.4041 30.0745 55.0695 30.1401C55.7348 30.2058 56.3336 30.7965 56.3336 31.4528C56.5997 30.9278 57.1985 30.7965 57.7308 30.6652C58.9949 30.4027 60.3921 31.2559 60.8578 32.4373C60.9909 32.8968 61.0574 33.4875 60.7247 33.8813C61.257 33.75 61.7893 34.2751 61.9223 34.8658C62.0554 35.3252 62.0554 35.7847 61.8558 36.1785C61.7227 36.7036 61.4566 37.163 60.9909 37.163Z" fill="#BEE960"/>
<path d="M42.6948 32.6347C43.4266 32.4378 43.9589 31.7814 44.092 31.0594C44.225 30.3375 43.9589 29.5499 43.4266 29.0248C42.6948 28.3028 41.2976 28.0403 40.6323 28.8279C41.4972 27.7777 41.0315 26.0712 39.9004 25.3493C38.7028 24.6273 37.1726 24.8898 36.1081 25.8087C35.4427 26.3338 35.1101 26.9245 34.8439 27.7777C34.977 27.1214 34.7109 26.3994 34.1121 26.0056C33.5133 25.6118 32.7149 25.6118 32.1826 26.0056C32.1161 26.0056 32.1161 26.0712 32.1161 26.1369C32.1161 26.2025 32.1826 26.1369 32.1826 26.1369C32.3822 25.0867 31.2512 24.1022 30.1867 24.2335C29.1221 24.3648 28.3237 25.4149 28.1907 26.465C28.0576 27.5152 28.5233 28.5653 29.1887 29.4186C27.858 28.7622 26.0616 29.156 25.0636 30.2718C24.0657 31.3876 23.733 32.9628 23.9991 34.4068C24.1987 35.1944 24.5314 35.982 25.1302 36.5727C25.729 37.1634 26.5939 37.4916 27.3923 37.3603C27.3923 37.2947 27.1262 37.3603 27.1262 37.426C26.9266 37.7541 26.86 38.2136 26.9931 38.6074C27.1262 39.0012 27.5254 39.2637 27.9246 39.3293C28.2572 39.395 28.7229 39.1981 28.7895 38.8699C28.3903 38.7386 27.9911 38.2792 27.9911 37.8854C27.9246 37.4916 28.1907 37.0321 28.5233 36.8352C27.6584 36.3102 27.0596 35.3257 27.0596 34.3411C27.0596 33.291 27.5919 32.3065 28.5233 31.7814C29.3217 31.322 30.3863 31.2563 31.0516 31.847C30.7855 31.3876 30.7855 30.6 30.9185 30.1406C31.1181 29.6155 31.5173 29.2217 31.983 29.0248C32.3157 28.8935 32.6484 28.8935 32.981 28.8935C33.3802 28.8935 33.846 28.9591 34.1786 29.156C34.5778 29.353 34.8439 29.6811 34.9105 30.1406C34.977 29.6811 35.1766 29.2873 35.5758 29.0248C35.975 28.7622 36.4407 28.6966 36.973 28.631C37.6383 28.631 38.3702 28.7622 38.8359 29.2873C39.3016 29.8124 39.3016 30.6656 38.7694 31.1251C39.3016 30.7969 40.1 31.0594 40.4992 31.5845C41.0315 32.2409 41.1645 33.291 40.6323 33.8817C41.0315 34.2099 41.3641 34.5381 41.8964 34.4068C42.3621 34.2755 42.8279 33.8817 43.0275 33.4223C43.094 33.2254 43.1605 33.0285 43.0275 32.8972C42.8944 32.5034 42.7613 32.4378 42.6948 32.6347Z" fill="#BEE960"/>
<path d="M70.1722 21.1481C71.1036 21.9357 72.1016 22.6577 73.2992 22.9858C74.4968 23.314 75.894 23.0515 76.6259 22.1326C77.4242 21.2137 77.2246 19.5729 76.0936 19.0478C78.2226 18.1289 79.2206 15.5036 78.6218 13.272C78.023 11.0404 76.0936 9.33395 73.8315 8.6776C71.9686 8.0869 69.6399 8.2838 68.3093 9.72775C68.8415 8.34943 67.9766 6.70858 66.646 6.11787C65.3153 5.46153 63.7185 5.5928 62.3213 6.05224C60.7911 6.51168 59.3939 7.49619 58.9947 9.07141C59.3274 8.15253 58.9947 7.03675 58.3294 6.38041C57.6641 5.72407 56.533 5.3959 55.535 5.46153C54.537 5.52717 53.6056 5.9866 52.8072 6.57731C52.4745 6.83985 52.1419 7.16802 52.3415 7.56182C52.6076 5.85534 51.6096 4.08321 50.0793 3.22997C48.5491 2.37673 46.6197 2.44236 45.0229 3.16434C44.4906 3.42687 44.0249 3.68941 43.6922 4.21448C43.3596 4.73956 43.293 5.33026 43.4926 5.85534C41.9624 5.00209 39.8333 5.52716 38.9019 6.97112C37.9704 8.41507 38.3696 10.5154 39.7668 11.5655C41.164 12.6157 43.3596 12.4188 44.7567 11.303C44.2245 11.4342 43.8253 11.9593 43.7587 12.4844C43.7587 13.1407 44.2245 13.6658 44.7567 13.994C45.289 14.3221 45.8878 14.519 46.4201 14.9128C45.4221 14.0596 44.0249 13.6658 42.6942 13.994C41.4301 14.2565 40.2991 15.1754 39.7668 16.3568C39.5672 16.8162 39.4341 17.4069 39.7003 17.8664C39.6337 16.6193 38.6357 15.4379 37.3051 15.241C35.9744 15.0441 34.7103 16.1599 34.5772 17.4726C34.3111 16.4881 33.3131 15.8317 32.2486 15.8974C31.9159 15.963 31.6498 16.0286 31.3172 16.1599C30.053 16.7506 29.1216 18.0633 28.9885 19.4416C28.8554 20.8199 29.5208 22.2639 30.6518 23.1171C30.1196 22.0013 30.6518 20.4918 31.6498 19.7698C32.6478 19.0478 34.1781 19.1134 35.043 19.9667C34.9099 19.5072 35.043 18.9822 35.3756 18.5884C35.7083 18.1946 36.174 17.9977 36.7063 17.932C37.7708 17.8008 38.9684 18.3258 39.2345 19.3103C39.5007 18.9822 39.8999 18.7853 40.3656 18.654C40.8313 18.5884 41.297 18.7196 41.5632 19.1134C41.4301 18.5884 41.8958 18.0633 42.2285 17.6039C42.6277 17.21 43.0934 16.9475 43.5592 16.685C44.7567 16.0943 46.1539 15.7005 47.4846 15.963C46.8193 15.3067 46.3535 14.3221 46.5531 13.3376C46.7527 12.4188 47.6842 11.6311 48.6156 11.6968C48.416 11.5655 48.283 11.2373 48.283 10.9748C48.283 10.7123 48.3495 10.4497 48.4826 10.1872C48.8818 9.39958 49.7467 8.74324 50.6781 8.80887C51.6096 8.80887 52.5411 9.53085 52.6076 10.4497C52.3415 9.72775 52.8072 8.87451 53.539 8.4807C54.2044 8.0869 55.0693 8.0869 55.8677 8.21817C56.9322 8.41507 58.0633 9.00578 58.3959 9.99029C58.9282 8.87451 60.1258 8.15253 61.3234 7.95563C62.5209 7.75873 63.7851 8.15253 64.65 9.00578C65.0492 9.39958 65.3153 9.85902 65.4484 10.3841C65.5149 10.9092 65.4484 11.4999 65.0492 11.8937C66.1137 11.3686 67.1782 11.1061 68.3093 11.303C69.5069 11.4999 70.5714 12.0906 71.2367 13.0751C71.7024 13.7314 71.902 14.4534 72.0351 15.241C72.2347 16.2912 72.2347 17.4069 71.8355 18.3915C71.3698 19.376 70.3718 20.0979 69.2407 19.9667C69.5734 20.4261 69.8395 20.8856 70.1722 21.1481Z" fill="#BEE960"/>
<path d="M55.402 26.5304C55.3355 26.2679 55.269 25.9397 55.402 25.6772C55.4686 25.4147 55.7347 25.1521 56.0008 25.1521C56.2669 25.1521 56.5996 25.4147 56.5331 25.6772C56.6661 25.2834 56.9988 24.8896 57.398 24.7583C57.7972 24.627 58.3295 24.7583 58.5956 25.0865C58.8617 25.4147 58.7952 26.0054 58.4625 26.2679C58.6621 26.0054 59.1279 26.071 59.2609 26.3335C59.394 26.5961 59.3275 26.9899 59.1279 27.2524C58.9283 27.5149 58.5956 27.6462 58.3295 27.7775C57.8637 28.04 57.0653 28.8933 56.5331 28.6307C55.9343 28.3026 55.5351 27.0555 55.402 26.5304Z" fill="#BEE960"/>
<path d="M67.8432 39.8544C69.1739 40.117 70.6376 39.7232 71.6356 38.8043C72.6336 37.8854 73.1658 36.4415 72.9662 35.1288C72.8997 34.5381 72.6336 33.8817 72.2344 33.4879C71.7686 33.0285 71.1033 32.7659 70.5045 32.9628C71.7686 32.8316 72.8997 31.7814 73.1658 30.5344C73.432 29.2873 72.8332 27.909 71.8352 27.187C70.7706 26.3994 69.3069 26.2682 68.1759 26.7932C68.0428 26.8589 67.9097 26.9245 67.9763 27.0558C68.1093 26.5963 68.2424 26.0713 68.6416 25.8087C70.3714 24.6273 72.9662 24.5617 74.6295 25.8744C76.3594 27.1214 76.9582 29.6811 76.0267 31.5189C75.6941 32.1096 75.2283 32.7003 74.4965 32.7659C75.2283 33.0285 75.7606 33.7505 75.6941 34.5381C75.6941 34.8662 75.561 35.1944 75.3614 35.3913C75.1618 35.5882 74.7626 35.6538 74.4965 35.5226C75.4279 36.704 75.1618 38.4761 74.2303 39.6575C73.2989 40.8389 71.7686 41.364 70.3049 41.4297C69.44 41.4297 68.5085 41.2984 67.7767 40.7733C67.6436 40.642 67.5105 40.5108 67.444 40.3795C67.3775 40.0513 67.6436 39.8544 67.8432 39.8544Z" fill="#BEE960"/>
<path d="M76.7593 32.3056C77.3581 32.5025 77.8238 33.0932 78.0234 33.6839C78.1565 34.0777 78.1565 34.4715 78.1565 34.8654C78.0899 35.3248 77.9569 35.7842 77.6242 36.1124C77.2915 36.4406 76.7593 36.5718 76.3601 36.4406C76.3601 37.1625 76.2935 38.0158 76.8258 38.5409C77.2915 39.0659 78.1565 39.3285 78.8218 39.0659C79.4871 38.7378 79.8198 37.7533 79.2875 37.2282C80.1524 37.4907 81.0839 37.2282 81.8823 36.7031C82.5476 36.2437 83.0799 35.5873 83.2795 34.7997C83.4791 34.0121 83.2129 33.1589 82.5476 32.6338C81.8823 32.1743 80.8843 32.24 80.352 32.8963C80.8178 32.6338 80.8843 32.0431 80.6847 31.5836C80.4851 31.1242 80.0194 30.8617 79.5536 30.7304C78.8883 30.4679 78.1565 30.4679 77.5577 30.796C76.9589 30.9929 76.5597 31.6493 76.7593 32.3056Z" fill="#BEE960"/>
<path d="M27.258 39.6569C26.4596 39.5257 25.6612 39.2631 25.0624 38.7381C24.4636 38.213 24.0644 36.9659 24.3306 36.1783C23.0665 36.5065 21.6027 35.7845 21.0705 34.6031C20.5382 33.4217 21.137 31.8465 22.2681 31.2558C21.137 30.9932 20.4052 29.7462 20.4717 28.6304C20.5382 27.5146 21.2701 26.4645 22.2015 25.7425C23.133 25.0205 24.264 24.2986 25.3286 24.6924C24.6632 24.1673 24.5302 23.1171 24.8628 22.3295C25.1955 21.5419 25.8608 20.9512 26.6592 20.4918C26.9253 20.3605 27.1915 20.2292 27.4576 20.1636C28.0564 20.0323 28.7217 20.098 29.254 20.4261C29.3871 19.9667 29.1209 19.1135 28.7217 18.7853C27.5907 17.8664 25.9274 17.6039 24.5302 18.1289C23.133 18.654 22.0685 19.9667 21.8689 21.4106C21.8023 21.8701 21.8023 22.2639 21.9354 22.7233C22.0685 23.1171 22.4011 23.5109 22.8003 23.6422C22.0685 22.8546 20.9374 22.5264 19.8729 22.6577C18.8084 22.789 17.8104 23.5109 17.3447 24.4955C17.1451 24.9549 17.012 25.48 17.1451 25.9394C17.3447 26.3988 17.8769 26.7926 18.3426 26.6614C17.6773 26.9239 17.2116 27.5146 17.0785 28.171C16.8789 28.8273 17.012 29.5493 17.2781 30.14C17.4777 30.6651 17.8769 31.1245 18.3426 31.4527C18.8084 31.7152 19.4737 31.7808 20.006 31.5183C18.5422 32.0434 17.6773 33.7499 17.9434 35.2595C18.2096 36.769 19.4737 38.0817 21.0039 38.4099C21.8023 38.6068 22.8003 38.4755 23.2661 37.8192C23.133 38.213 23.1995 38.3443 23.1995 38.7381C23.1995 39.2631 23.3326 39.9195 23.7983 40.2477C24.264 40.5758 24.9959 40.5758 25.262 40.0507C25.1955 40.5102 25.5282 40.9696 25.9939 41.2322C26.26 41.3634 26.5927 41.4291 26.8588 41.4947C29.1875 41.6916 29.3205 39.2631 29.3205 39.2631C29.3205 39.2631 28.0564 39.7882 27.258 39.6569Z" fill="#BEE960"/>
<path d="M45.2893 25.6113C45.2227 24.6924 45.5554 23.7735 46.0877 23.0515C46.6199 22.3295 47.4183 21.8045 48.3498 21.5419C48.6159 21.4763 48.882 21.4107 49.1482 21.4763C49.88 21.4763 50.5454 21.8701 50.878 22.4608C51.7429 21.0169 53.6059 20.4918 55.1361 21.0825C55.7349 21.345 56.3337 21.8045 56.4668 22.4608C57.997 21.4763 60.126 21.7388 61.5898 22.8546C62.2551 23.3797 62.7873 24.1673 62.6543 24.9549C63.3861 23.9048 64.8499 23.6422 66.114 24.036C66.7128 24.2329 67.3116 24.8236 67.7108 25.3487C68.11 25.8738 68.243 26.5958 68.0434 27.1865C68.7088 26.727 69.3075 26.1363 69.5737 25.3487C69.9729 24.1017 69.241 22.7234 68.1765 22.0014C67.6442 21.6076 66.9789 21.4107 66.3136 21.4107C65.6483 21.4107 64.9829 21.7388 64.6503 22.2639C64.5837 21.0825 63.5857 19.9667 62.3882 19.7698C61.1906 19.5729 59.8599 20.2949 59.3942 21.4107C59.1946 20.7543 58.3962 20.4918 57.8639 20.5574C57.3317 20.6231 56.8659 20.9512 56.5998 21.4107C56.999 20.2949 56.1341 19.1791 55.2026 18.5884C54.005 17.8008 52.5413 17.407 51.1441 17.6039C49.747 17.8664 48.4163 18.8509 48.0836 20.2293C47.5514 20.0324 46.753 20.1636 46.2873 20.4918C45.8215 20.82 45.3558 21.2138 45.0897 21.7388C44.4909 22.8546 44.4244 24.4298 44.9566 25.5456C45.0897 25.7425 45.2893 26.0051 45.4889 25.9394C45.3558 25.9394 45.3558 25.6769 45.2893 25.6113Z" fill="#88B625"/>
<path d="M82.5475 29.0895C82.8802 28.827 83.0133 28.3019 82.8137 27.9738C83.3459 27.7769 83.8117 27.4487 84.0778 26.9892C84.3439 26.5298 84.2774 25.8735 83.8782 25.4797C83.479 25.1515 82.6806 25.2171 82.481 25.7422C82.8802 25.414 83.0133 24.8233 82.8802 24.2982C82.8137 24.1013 82.7471 23.9701 82.6141 23.8388C82.2814 23.5763 81.8157 23.5763 81.4165 23.7732C80.352 24.2326 80.0193 26.9236 79.0213 26.858C77.7572 26.7923 81.2834 30.1397 82.5475 29.0895Z" fill="#A1D432"/>
<path d="M82.2146 20.8865C82.2811 20.6896 82.2811 20.427 82.2146 20.2301C82.148 20.0332 82.015 19.8363 81.7488 19.8363C81.4162 19.7707 81.15 20.1645 81.017 20.4927C80.8839 20.8865 80.8174 22.8555 80.8174 22.8555C80.8174 22.8555 82.0815 21.4116 82.2146 20.8865Z" fill="#A1D432"/>
<path d="M36.3074 6.44667C36.2409 6.24977 36.1078 6.05286 35.9082 5.85596C35.7086 5.72469 35.4425 5.59343 35.2429 5.65906C34.9102 5.72469 34.7106 6.1185 34.7106 6.44667C34.7106 6.77484 34.8437 7.10301 35.0433 7.36555C34.8437 7.23428 34.5776 7.10301 34.378 7.10301C34.1118 7.10301 33.8457 7.29991 33.8457 7.49682C33.8457 7.69372 33.9788 7.82499 34.1118 7.89062C34.2449 7.95625 34.4445 8.02189 34.5776 8.02189C34.9102 8.08752 36.1743 8.28442 36.507 8.67823C36.8397 9.13767 36.507 6.84047 36.3074 6.44667Z" fill="#A1D432"/>
<path d="M61.3236 4.93676C61.5232 4.67422 61.7228 4.41168 61.8559 4.14915C61.989 3.82098 61.989 3.4928 61.8559 3.23027C61.7228 2.9021 61.3902 2.7052 61.0575 2.77083C60.7248 2.83646 60.4587 3.23027 60.5918 3.49281C60.7248 3.16463 60.6583 2.77083 60.5252 2.44266C60.4587 2.31139 60.3922 2.18012 60.2591 2.11449C59.993 1.91759 59.5938 1.98322 59.3276 2.24576C59.1281 2.50829 59.0615 2.83646 59.0615 3.16463C59.1281 3.4928 59.2611 3.82098 59.3942 4.08351C59.5273 4.41168 60.2591 5.00239 60.1926 5.79C60.2591 6.11817 61.0575 5.19929 61.3236 4.93676Z" fill="#A1D432"/>
<path d="M15.8816 33.8156C15.6154 33.8813 15.3493 33.8813 15.1497 33.6844C14.9501 33.4875 14.9501 33.0937 15.1497 32.8311C15.3493 32.5686 15.6154 32.4373 15.9481 32.306C15.6154 32.2404 15.2162 32.1091 15.1497 31.781C15.0832 31.5184 15.2162 31.2559 15.4158 31.1246C15.6154 30.9934 15.8816 30.9277 16.1477 30.9277C16.7465 30.9277 18.9421 31.781 18.2767 32.0435C17.0126 32.5686 16.4804 33.6844 15.8816 33.8156Z" fill="#A1D432"/>
<path d="M17.2789 35.7186C17.2123 35.9155 17.0127 36.0468 16.8131 36.0468C16.6135 36.0468 16.4139 35.8499 16.3474 35.7186C16.1478 35.1936 16.8797 34.6685 17.2123 33.8152C17.4785 32.962 17.4785 35.3248 17.2789 35.7186Z" fill="#A1D432"/>
<path d="M26.0609 14.7158C25.9944 14.3219 26.2605 13.7969 26.7262 13.7969C27.1254 13.7969 27.4581 14.1907 27.5912 14.5189C27.7907 14.9127 28.323 15.8972 27.5912 16.0284C26.9924 16.0941 26.1274 15.2408 26.0609 14.7158Z" fill="#A1D432"/>
<path d="M55.3355 42.2171C55.402 42.5453 55.402 42.9391 55.3355 43.2673C55.2024 43.5954 54.8698 43.858 54.5371 43.7923C54.3375 43.7267 54.1379 43.5298 54.0714 43.3329C54.0049 43.136 54.0049 42.8734 54.0714 42.6765C54.1379 42.1515 54.404 41.2982 55.0028 41.1013C55.7347 40.7732 55.269 41.692 55.3355 42.2171Z" fill="#A1D432"/>
<path d="M45.8877 41.3631C45.6881 41.6912 45.3554 41.9538 45.2224 42.3476C45.0228 42.6757 45.0228 43.1352 45.2889 43.4634C45.4885 43.7259 45.8877 43.7259 46.1538 43.5946C46.4199 43.4634 46.553 43.0695 46.4199 42.7414C46.7526 43.0039 47.2183 43.2664 47.551 43.0039C47.8171 42.8726 47.9502 42.4788 47.8837 42.1507C47.8171 41.8225 47.6175 41.56 47.4179 41.3631C47.2849 41.1662 46.7526 40.2473 46.4865 40.3129C46.2869 40.3129 46.0207 41.1662 45.8877 41.3631Z" fill="#A1D432"/>
<path d="M51.3948 63.0572C51.4616 63.4952 51.5951 63.8602 51.7286 64.2252C51.7954 64.4442 51.9289 64.6632 52.1292 64.8092C52.3962 64.9552 52.6632 64.8822 52.9303 64.6632C53.1305 64.4442 53.2641 64.2252 53.3976 63.9332C53.8649 62.9112 54.1987 61.8162 54.4657 60.7211C54.5992 60.3561 54.666 59.9911 54.7327 59.6991C54.7995 59.3341 54.8662 58.8961 54.933 58.5311C54.9998 57.9471 55.1333 57.2901 55.2668 56.7061C55.2 58.4581 55.1333 60.2101 54.666 61.8892C54.5325 62.4002 54.3322 62.9112 54.1319 63.4222C53.8649 64.0792 53.5978 64.8092 53.1305 65.3202C52.8635 65.6122 52.5297 65.8312 52.1959 65.9773C52.0624 65.9773 51.9957 66.0503 51.8621 65.9773C51.7286 65.9042 51.5951 65.8312 51.5284 65.6852C51.0611 64.9552 50.9943 63.8602 51.3948 63.0572Z" fill="#B39681"/>
</svg>
