<svg width="100" height="100" viewBox="0 0 100 100" fill="none" xmlns="http://www.w3.org/2000/svg">
<path d="M77.5156 48.1899C77.4513 49.5867 76.3571 50.8566 75.0056 51.301C74.4263 51.4915 73.8471 51.4915 73.3322 51.8089C72.5598 52.2534 72.238 53.0788 71.7875 53.8407C71.0152 55.174 69.7279 56.3169 68.2476 56.7613C66.703 57.2058 64.9652 56.8248 63.8711 55.682C63.2918 57.3962 61.1035 58.4756 59.3014 58.1582C57.4993 57.8407 55.9546 56.4439 55.311 54.7296C54.7318 56.3169 52.8653 57.2693 51.2563 56.9518C49.6473 56.6343 48.2957 54.9835 48.4244 53.3328C47.7164 54.0947 46.1717 53.6502 45.9787 52.6343C45.142 54.3486 43.5329 55.682 41.6665 56.1264C40.3149 56.4439 38.8989 56.3169 37.7404 55.555C36.6463 54.7931 35.9383 53.3962 36.2601 52.0629C35.4234 52.9518 34.5224 53.9042 33.3639 54.2851C32.2054 54.6026 30.6607 54.0947 30.4033 52.8883C28.7299 53.8407 26.4772 53.6502 24.9969 52.5074C23.4522 51.3645 22.7443 49.2693 23.2592 47.428C23.581 46.2851 24.2889 45.3328 25.1256 44.5074C27.7001 41.9042 31.24 40.5708 34.7798 39.7454C49.3254 35.9359 65.3514 39.2375 77.5156 48.1899Z" fill="#88B625"/>
<path d="M58.3354 93.1431C57.4344 92.6352 56.9838 91.6828 56.5333 90.7939C55.5035 88.4447 53.8945 86.159 53.7014 83.6193C53.5727 82.032 53.5083 80.5082 53.5083 78.9209C53.5083 78.032 53.5083 77.1431 53.8301 76.3177C54.0232 75.6828 54.345 75.1114 54.6668 74.54C55.5679 72.8892 56.469 71.3019 57.37 69.6511C58.078 68.3812 58.786 67.0479 59.3652 65.7146C59.687 64.9527 59.9445 64.2542 60.395 63.5558C60.7812 62.9844 61.2317 62.4765 61.6179 61.9685C64.0636 59.0479 65.6726 55.3654 66.2519 51.6193C66.1231 51.6193 66.0588 51.5558 65.8657 51.5558C65.8013 53.3336 65.2221 55.1114 64.3854 56.7622C63.5487 58.3495 62.4546 59.8098 61.296 61.2066C60.7812 61.8415 60.2663 62.413 59.687 63.0479C60.0088 61.7781 60.6524 60.6352 61.103 59.4923C62.1971 56.8257 62.5189 53.9685 62.7764 51.1114C62.8407 50.3495 62.9051 49.5241 63.0338 48.7622C62.8407 48.7622 62.712 48.7622 62.5833 48.7622C62.3902 50.7304 62.1971 52.6352 61.8109 54.6035C60.9099 58.8574 59.0434 62.8574 57.1126 66.7939C57.0482 66.9209 56.9838 67.0479 56.8551 66.9844C56.7908 66.9844 56.7908 66.9209 56.7264 66.8574C56.5977 66.6035 56.5977 66.3495 56.662 66.032C56.7908 64.9527 56.8551 63.8733 56.9838 62.7939C57.0482 62.159 57.1126 61.5241 57.2413 60.8892C57.4344 60.1273 57.6918 59.3654 58.0136 58.6669C58.9147 56.1273 59.4296 53.5241 59.7514 50.7939C59.5583 50.8574 59.5583 50.9844 59.3652 50.9209C58.8503 53.905 58.078 56.8892 57.0482 59.7463C56.9838 59.8733 56.9195 60.0003 56.7908 60.0003C56.5977 60.0003 56.5333 59.8098 56.5333 59.6193C56.2115 56.8257 56.1472 53.9685 56.2759 51.1114C56.0184 51.1749 55.8897 51.3019 55.5679 51.3019C55.6966 54.2225 55.8897 57.1431 56.1472 60.0003C56.2759 61.0162 56.2759 62.3495 56.0828 63.3654C55.6966 65.9685 55.3748 67.4923 54.4094 69.5876C54.2163 70.0955 53.8301 70.6035 53.3153 70.54C52.8647 70.4765 52.6073 69.905 52.5429 69.4606C52.1568 67.6828 52.028 65.905 51.8993 64.1273C51.6419 60.6352 51.3844 57.0796 51.8993 53.5876C52.0924 52.3177 52.4142 50.9844 52.2855 49.6511C52.1568 49.6511 52.028 49.5241 51.8993 49.5241C51.127 49.5241 50.9983 49.5876 50.2259 49.5876C50.1616 51.6828 50.0972 53.905 49.9685 56.0003C49.8398 57.7146 49.3249 56.8892 49.0031 56.6352C48.9387 56.5717 48.81 56.3812 48.7456 56.3177C47.3297 54.6669 46.8148 52.4447 46.2999 50.286C46.1068 50.3495 45.8494 50.286 45.6563 50.413C46.1712 52.8892 46.8148 55.4923 48.1664 57.6511C48.6169 58.3495 49.1318 58.9844 49.3892 59.8098C49.6467 60.5082 49.6467 61.3336 49.711 62.0955C49.711 62.9844 49.7754 63.9368 49.5823 64.8257C49.518 65.0796 49.4536 65.3336 49.1961 65.5241C49.0031 65.6511 48.7456 65.5241 48.5525 65.3971C46.8148 64.0003 45.8494 60.9527 45.4632 58.413C45.077 55.8733 45.0127 53.3336 44.7552 50.7939C44.3691 50.7939 44.3047 51.2384 44.3047 51.6193C44.3047 55.1749 44.6265 58.6669 45.2701 62.159C44.2403 60.8892 43.1462 59.5558 42.4382 58.0955C41.0223 55.0479 41.3441 51.5558 41.9233 48.2542C41.7946 48.2542 41.6015 48.1908 41.4728 48.1908C41.3441 49.8415 41.0866 51.4289 40.8292 53.0162C40.8292 53.0796 40.8292 53.1431 40.7648 53.1431C40.7005 53.2066 40.6361 53.1431 40.5717 53.0796C38.7053 51.3654 37.6755 48.9527 36.2595 46.8574C36.0021 46.9844 35.6803 47.0479 35.7447 47.3654C35.7447 47.3654 37.8042 50.6669 38.834 52.1273C40.5717 54.6035 41.2797 57.6511 42.6957 60.3177C44.0472 62.9209 45.9781 65.2066 47.6515 67.6828C47.9733 68.1273 48.2307 68.5717 48.4238 69.0796C48.6813 69.7146 48.6813 70.413 48.6813 71.1114C48.81 75.0479 48.8743 78.9844 48.8743 82.9844C48.8743 86.6035 46.8791 90.032 44.5621 92.8257C44.3691 92.7622 44.0472 93.1431 44.2403 93.2701C44.3047 93.3336 44.4334 93.3336 44.4978 93.3971C45.785 93.5876 47.2009 93.5876 48.4882 93.3336C48.6813 93.2701 48.8743 93.2701 49.0674 93.2701C49.2605 93.3336 49.4536 93.3971 49.5823 93.5241C50.2903 93.905 51.127 94.159 51.9637 94.0955C52.4786 94.032 52.9935 93.905 53.5083 93.7781C54.7312 93.5241 55.9541 93.4606 57.1769 93.5876C57.5631 93.3971 58.0136 93.3971 58.3354 93.1431Z" fill="#8C5F3B"/>
<path d="M48.2305 57.5879C48.681 58.2863 49.1959 58.9212 49.4533 59.7466C49.7108 60.445 49.7108 61.2704 49.7751 62.0323C49.7751 62.9212 49.8395 63.8736 49.6464 64.7625C49.5821 65.0165 49.4533 65.1434 49.3246 65.3974C49.2602 65.5244 49.1959 65.4609 49.3246 65.5879C49.389 65.7149 49.5177 65.7149 49.6464 65.7149C49.8395 65.6514 49.9682 65.4609 50.0326 65.2704C50.1613 64.953 50.1613 64.5085 50.2257 64.1911C50.2257 63.8101 50.2257 63.4292 50.2257 63.0482C50.2257 62.0323 50.29 61.0165 49.9682 60.0641C49.7108 58.9847 49.0672 58.0323 48.2305 57.5879Z" fill="#B39681"/>
<path d="M44.562 92.635C46.879 89.8414 48.8099 86.4128 48.8742 82.7938C48.8742 78.8573 48.8099 74.9208 48.6811 70.9208C48.6811 70.2223 48.6168 69.5239 48.4237 68.889C48.2306 68.3811 47.9732 67.9366 47.6514 67.4922C48.4237 67.8096 48.8742 68.5081 49.1317 69.2065C49.3891 69.9684 49.4535 70.7938 49.5178 71.5557C49.7753 75.8096 49.8396 80.1271 49.7109 84.3811C49.7109 85.3335 49.6466 86.2858 49.3248 87.2382C49.003 88.0636 48.5524 88.762 48.0375 89.4604C47.0721 90.7938 45.978 92.1906 44.4977 93.016C44.3046 92.889 44.4977 92.6985 44.562 92.635Z" fill="#B39681"/>
<path d="M42.8251 18.8567C41.7953 18.3488 40.5725 18.4758 39.607 19.0472C38.706 19.6821 38.1267 20.825 38.1911 21.9043C35.5523 20.825 32.2699 21.8409 30.7252 24.1266C30.0172 25.2059 29.6954 26.7297 30.5965 27.7456C29.8885 27.8726 29.2449 28.1901 28.7944 28.7615C28.4082 29.3329 28.3438 30.2218 28.9231 30.6028C27.7646 30.8567 26.413 31.1742 25.4476 31.9361C24.5465 32.6345 23.9029 33.9678 24.3534 35.0472C22.9375 35.4282 21.6503 36.5075 21.2641 37.9044C20.8779 39.3012 21.6503 41.0155 23.0662 41.4599C22.3582 42.6028 21.8434 43.9996 22.1652 45.3329C22.487 46.6663 23.7742 47.8091 25.1258 47.6186C25.1901 48.952 26.5417 49.9678 27.7646 50.4758C28.4726 50.7297 29.3093 50.9202 30.0816 50.6663C30.8539 50.4123 31.4332 49.5869 31.1757 48.825C31.3045 49.3329 31.755 49.7774 32.2699 49.9678C32.7848 50.1583 33.364 50.1583 33.9433 50.0313C35.2948 49.7774 36.6464 49.079 37.1613 47.8091C38.2555 49.8409 40.6368 51.6186 43.0182 51.7456C44.048 51.8091 45.0777 51.6186 45.9788 51.0472C46.8155 50.4758 47.4591 49.5234 47.4591 48.5075C47.5878 49.3329 48.2314 50.1583 48.9394 50.6663C49.6474 51.1742 50.6128 51.4282 51.4495 51.5551C52.4793 51.6821 53.5734 51.8091 54.5388 51.4917C55.5686 51.2377 56.4697 50.6028 56.9202 49.6504C56.5984 50.7298 56.2766 52.1266 56.7271 53.2059C57.1777 54.2853 58.1431 55.1107 59.3016 55.3012C60.4601 55.4917 61.7473 54.9202 62.1978 53.8409C63.0345 54.9837 64.5148 55.6821 65.9308 55.6186C67.3467 55.5551 68.7627 54.7297 69.4706 53.5234C69.9212 52.825 70.0499 51.8091 69.4706 51.3012C69.7924 51.6186 70.1143 51.5551 70.5648 51.6186C71.3371 51.6821 72.1738 51.8091 72.9461 51.4917C73.7185 51.2377 74.3621 50.4758 74.2977 49.7139C75.3275 50.1583 76.5504 50.2218 77.6445 49.9044C78.0307 49.7774 78.3525 49.6504 78.5456 49.3329C78.7386 49.0155 78.6743 48.5075 78.3525 48.3805C79.2535 48.0631 79.4466 47.0472 79.8328 46.1583C80.0902 45.5869 80.2833 44.952 80.1546 44.317C80.0259 43.6821 79.4466 43.1107 78.8674 43.2377C80.1546 42.4758 79.6397 40.5075 78.6743 39.3647C77.7089 38.2218 76.1642 37.7774 74.6839 37.5234C76.1642 37.3964 77.7732 37.0155 78.803 35.8726C79.8328 34.7932 79.8328 32.698 78.4812 31.9996C79.8328 30.6663 80.1546 28.3805 79.1892 26.7297C78.2238 25.079 76.0998 24.1901 74.2334 24.6345C73.7185 23.5551 72.2382 22.7932 71.0797 22.4758C69.9212 22.0948 68.6983 22.0948 67.4754 22.0313C67.0893 19.8091 64.5792 18.2218 62.3265 18.7932C60.975 19.1742 59.8808 20.1901 58.9154 21.2059C58.3362 20.0631 57.4351 18.9837 56.1479 18.4758C54.925 18.0313 53.316 18.2853 52.5436 19.3647C52.4149 19.5551 52.2218 19.8091 51.9644 19.8726C51.7713 19.8726 51.5782 19.7456 51.4495 19.6821C49.0038 17.9678 45.5926 17.8409 43.0182 19.3647C42.9538 19.4282 42.8251 19.4282 42.7607 19.4282C42.6964 19.3012 42.8251 18.7932 42.8251 18.8567Z" fill="#A1D432"/>
<path d="M44.1128 23.1111C43.5979 23.3016 43.083 23.4921 42.6325 23.6825C42.5037 23.746 42.375 23.8095 42.2463 23.873C41.9245 24.0635 41.7314 24.4444 41.667 24.8254C41.1521 24.5714 40.5085 24.6349 39.9293 24.8254C39.35 25.0159 38.8995 25.3968 38.449 25.7778C37.8054 25.0159 36.5825 24.9524 35.6171 25.1429C34.7804 25.3333 34.0081 25.7778 33.4288 26.4127C32.8496 27.0476 32.5277 27.9365 32.5921 28.7619C33.107 28.6349 33.6219 28.6984 34.0724 28.8889C34.5229 29.0794 34.9091 29.4603 35.2953 29.7778C35.3596 29.8413 35.424 29.9048 35.4884 29.9048C35.5527 29.9048 35.6171 29.8413 35.6171 29.7778C36.2607 28.8254 37.4192 28.3175 38.5777 28.3175C39.7362 28.381 40.8303 28.8889 41.6027 29.7143C41.6027 28.9524 42.1176 28.254 42.7612 27.873C43.4048 27.4286 44.1771 27.2381 44.8851 27.0476C45.3356 26.9206 45.7862 26.7937 46.1723 26.6667C45.8505 25.9048 45.7218 25.1429 45.7862 24.3175C45.8505 23.4921 46.2367 22.7302 46.8159 22.2222C46.8803 22.1587 47.009 22.0952 46.9447 21.9683C46.9447 21.9048 46.8803 21.8413 46.8159 21.8413C46.4298 21.6508 45.9149 21.7778 45.4643 21.9048C45.2713 22.0952 44.9495 22.2222 44.6277 22.4127C44.3058 22.5397 43.984 22.7937 44.1128 23.1111Z" fill="#88B625"/>
<path opacity="0.6" d="M28.9228 50.3493C28.3436 50.4128 27.7643 50.2223 27.3781 49.7779C27.0563 49.3334 27.0563 48.635 27.5069 48.254C25.8978 47.8096 24.6106 46.3493 24.4175 44.6985C24.2244 43.0477 25.1255 41.3334 26.6058 40.5715C26.4771 39.0477 27.0563 37.4604 28.2792 36.635C29.5021 35.8096 31.4329 35.9366 32.3983 37.1429C31.5616 38.0318 31.8834 39.3652 32.2052 40.508C31.626 40.8255 31.2398 41.3334 31.0467 41.9048C29.9526 41.5239 28.601 42.0953 28.0217 43.0477C27.1207 44.508 27.6356 46.6667 29.1803 47.4921C29.309 47.5556 29.4377 47.6191 29.5021 47.7461C29.5664 47.8096 29.5021 47.9366 29.5021 48.0001C29.4377 48.3175 29.309 48.6985 29.3733 49.016C29.4377 49.3969 30.0169 49.5239 30.0169 49.7779C29.8882 50.0953 29.1803 50.2858 28.9228 50.3493Z" fill="#E0CD9E"/>
<path opacity="0.6" d="M65.4157 46.5395C65.6731 46.222 65.8019 45.8411 65.8019 45.3966C65.8019 44.9522 65.4801 44.5712 65.0939 44.5077C65.7375 44.1268 65.8019 43.2379 65.6088 42.476C65.4801 41.8411 65.2226 41.2061 64.7077 40.7617C64.1928 40.3173 63.4849 40.0633 62.8412 40.3173C62.97 39.0474 62.1333 37.7141 60.9748 37.2061C59.7519 36.6982 58.2716 37.0157 57.4349 37.968C56.7913 36.9522 55.5684 36.3807 54.3456 36.4442C53.1227 36.5077 52.0286 37.3331 51.5137 38.4125C52.994 38.222 54.4099 39.6188 54.2812 41.0792C55.1179 40.5077 56.4051 40.7617 56.92 41.5871C58.0785 40.8887 59.6232 40.5712 60.846 41.2061C62.0689 41.8411 62.7125 43.4919 61.9402 44.5712C62.5838 44.8887 63.0343 45.5236 63.0987 46.2855C63.163 47.1109 61.8758 47.9998 62.9056 48.1268C63.871 48.2538 64.9652 47.3014 65.4157 46.5395Z" fill="#E0CD9E"/>
<path d="M61.4898 47.9363C62.0691 48.4442 63.0989 48.3172 63.6137 47.6823C64.1286 47.1109 64.1286 46.1585 63.7425 45.5236C63.485 45.0791 63.1632 44.7617 62.6483 44.8252C63.3563 44.5077 63.5494 43.6188 63.5494 42.7934C63.5494 42.4125 63.5494 41.968 63.4207 41.5871C63.0988 40.3172 61.876 39.3014 60.5888 39.2379C59.2372 39.1109 57.8856 39.9998 57.4351 41.2061C57.3707 40.5712 56.9202 39.9363 56.2766 39.6823C55.633 39.4283 54.7319 39.6188 54.5388 40.3172C54.6675 38.6029 53.3159 36.9521 51.6426 36.6982C49.9692 36.3807 48.1671 37.4601 47.5234 38.9839C46.8798 40.5712 47.3947 42.5394 48.6819 43.6188C48.3601 43.4283 47.9096 43.4283 47.5234 43.6188C46.6224 43.9998 46.0431 45.0156 45.9788 46.0315C45.9144 47.0474 46.3649 47.9998 47.0086 48.7617C47.3304 49.2061 47.7809 49.5871 48.3601 49.5871C47.8452 48.6982 47.974 47.3014 48.4889 46.4125C49.0681 45.5236 50.1623 45.0156 51.192 45.0791C50.5484 44.3807 50.1623 43.4283 50.3553 42.476C50.5484 41.5236 51.2564 40.6982 52.2218 40.5712C53.1872 40.4442 54.217 41.1426 54.217 42.095C54.6032 41.5871 55.1181 41.0791 55.7617 41.1426C56.4053 41.2061 56.9845 41.7775 56.9845 42.4125C57.242 41.9045 57.8212 41.7775 58.3361 41.6506C59.559 41.3966 60.9106 42.222 61.3611 43.3648C61.4898 43.8093 61.5542 44.3807 61.2324 44.7617C61.7473 44.6347 62.2622 45.1426 62.3909 45.7141C62.5196 46.1585 62.5196 46.6029 62.3265 46.9839C62.1978 47.4918 61.9403 47.9363 61.4898 47.9363Z" fill="#BEE960"/>
<path d="M43.7907 43.5554C44.4987 43.3649 45.0136 42.73 45.1423 42.0316C45.271 41.3332 45.0136 40.5713 44.4987 40.0633C43.7907 39.3649 42.4391 39.111 41.7955 39.8729C42.6322 38.857 42.1817 37.2062 41.0876 36.5078C39.9291 35.8094 38.4488 36.0633 37.419 36.9522C36.7754 37.4602 36.4536 38.0316 36.1961 38.857C36.3248 38.2221 36.0674 37.5237 35.4881 37.1427C34.9089 36.7617 34.1366 36.7617 33.6217 37.1427C33.5573 37.1427 33.5573 37.2062 33.5573 37.2697C33.5573 37.3332 33.6217 37.2697 33.6217 37.2697C33.8147 36.2538 32.7206 35.3014 31.6908 35.4284C30.6611 35.5554 29.8887 36.5713 29.76 37.5871C29.6313 38.603 30.0818 39.6189 30.7254 40.4443C29.4382 39.8094 27.7004 40.1903 26.735 41.2697C25.7696 42.3491 25.4478 43.8729 25.7052 45.2697C25.8983 46.0316 26.2201 46.7935 26.7994 47.3649C27.3786 47.9364 28.2153 48.2538 28.9877 48.1268C28.9877 48.0633 28.7302 48.1268 28.7302 48.1903C28.5371 48.5078 28.4728 48.9522 28.6015 49.3332C28.7302 49.7141 29.1164 49.9681 29.5025 50.0316C29.8244 50.0951 30.2749 49.9046 30.3392 49.5871C29.9531 49.4602 29.5669 49.0157 29.5669 48.6348C29.5025 48.2538 29.76 47.8094 30.0818 47.6189C29.2451 47.111 28.6659 46.1586 28.6659 45.2062C28.6659 44.1903 29.1807 43.2379 30.0818 42.73C30.8541 42.2856 31.8839 42.2221 32.5275 42.7935C32.2701 42.349 32.2701 41.5871 32.3988 41.1427C32.5919 40.6348 32.9781 40.2538 33.4286 40.0633C33.7504 39.9364 34.0722 39.9363 34.394 39.9363C34.7802 39.9363 35.2307 39.9998 35.5525 40.1903C35.9387 40.3808 36.1961 40.6983 36.2605 41.1427C36.3248 40.6983 36.5179 40.3173 36.9041 40.0633C37.2903 39.8094 37.7408 39.7459 38.2557 39.6824C38.8993 39.6824 39.6073 39.8094 40.0578 40.3173C40.5083 40.8252 40.5083 41.6506 39.9934 42.0951C40.5083 41.7776 41.2806 42.0316 41.6668 42.5395C42.1817 43.1744 42.3104 44.1903 41.7955 44.7617C42.1817 45.0792 42.5035 45.3967 43.0184 45.2697C43.4689 45.1427 43.9195 44.7617 44.1125 44.3173C44.1769 44.1268 44.2413 43.9364 44.1125 43.8094C43.9838 43.4284 43.8551 43.3649 43.7907 43.5554Z" fill="#BEE960"/>
<path d="M70.3715 32.4443C71.2725 33.2062 72.238 33.9046 73.3965 34.2221C74.555 34.5396 75.9065 34.2856 76.6145 33.3967C77.3868 32.5078 77.1938 30.9205 76.0996 30.4126C78.1592 29.5237 79.1246 26.984 78.5453 24.8253C77.9661 22.6665 76.0996 21.0157 73.9113 20.3808C72.1092 19.8094 69.8566 19.9999 68.5694 21.3967C69.0843 20.0634 68.2476 18.4761 66.9603 17.9046C65.6731 17.2697 64.1284 17.3967 62.7769 17.8411C61.2966 18.2856 59.945 19.238 59.5588 20.7618C59.8806 19.8729 59.5588 18.7935 58.9152 18.1586C58.2716 17.5237 57.1774 17.2062 56.212 17.2697C55.2466 17.3332 54.3455 17.7777 53.5732 18.3491C53.2514 18.6031 52.9296 18.9205 53.1227 19.3015C53.3801 17.6507 52.4147 15.9364 50.9344 15.111C49.4541 14.2856 47.5876 14.3491 46.043 15.0475C45.5281 15.3015 45.0775 15.5554 44.7557 16.0634C44.4339 16.5713 44.3696 17.1427 44.5626 17.6507C43.0823 16.8253 41.0228 17.3332 40.1217 18.73C39.2207 20.1269 39.6068 22.1586 40.9584 23.1745C42.31 24.1904 44.4339 23.9999 45.7855 22.9205C45.2706 23.0475 44.8845 23.5554 44.8201 24.0634C44.8201 24.6983 45.2706 25.2062 45.7855 25.5237C46.3004 25.8411 46.8796 26.0316 47.3945 26.4126C46.4291 25.5872 45.0775 25.2062 43.7903 25.5237C42.5674 25.7777 41.4733 26.6665 40.9584 27.8094C40.7653 28.2538 40.6366 28.8253 40.8941 29.2697C40.8297 28.0634 39.8643 26.9205 38.5771 26.73C37.2898 26.5396 36.067 27.6189 35.9382 28.8888C35.6808 27.9364 34.7154 27.3015 33.6856 27.365C33.3638 27.4284 33.1064 27.4919 32.7845 27.6189C31.5617 28.1904 30.6606 29.4602 30.5319 30.7935C30.4032 32.1269 31.0468 33.5237 32.1409 34.3491C31.626 33.2697 32.1409 31.8094 33.1064 31.111C34.0718 30.4126 35.5521 30.4761 36.3888 31.3015C36.2601 30.857 36.3888 30.3491 36.7106 29.9681C37.0324 29.5872 37.4829 29.3967 37.9978 29.3332C39.0276 29.2062 40.1861 29.7142 40.4435 30.6665C40.701 30.3491 41.0871 30.1586 41.5377 30.0316C41.9882 29.9681 42.4387 30.0951 42.6962 30.4761C42.5674 29.9681 43.018 29.4602 43.3398 29.0157C43.726 28.6348 44.1765 28.3808 44.627 28.1269C45.7855 27.5554 47.1371 27.1745 48.4243 27.4284C47.7807 26.7935 47.3302 25.8411 47.5233 24.8888C47.7163 23.9999 48.6174 23.238 49.5185 23.3015C49.3254 23.1745 49.1967 22.857 49.1967 22.6031C49.1967 22.3491 49.261 22.0951 49.3897 21.8411C49.7759 21.0792 50.6126 20.4443 51.5137 20.5078C52.4147 20.5078 53.3158 21.2062 53.3801 22.0951C53.1227 21.3967 53.5732 20.5713 54.2812 20.1904C54.9248 19.8094 55.7615 19.8094 56.5338 19.9364C57.5636 20.1269 58.6577 20.6983 58.9796 21.6507C59.4944 20.5713 60.6529 19.8729 61.8114 19.6824C62.9699 19.4919 64.1928 19.8729 65.0295 20.6983C65.4157 21.0792 65.6731 21.5237 65.8018 22.0316C65.8662 22.5396 65.8018 23.111 65.4157 23.4919C66.4455 22.984 67.4752 22.73 68.5694 22.9205C69.7279 23.111 70.7576 23.6824 71.4013 24.6348C71.8518 25.2697 72.0449 25.9681 72.1736 26.73C72.3667 27.7459 72.3667 28.8253 71.9805 29.7777C71.53 30.73 70.5646 31.4284 69.4704 31.3015C69.7922 31.7459 70.0497 32.1904 70.3715 32.4443Z" fill="#BEE960"/>
<path d="M56.0831 37.6506C56.0187 37.3967 55.9544 37.0792 56.0831 36.8252C56.1475 36.5713 56.4049 36.3173 56.6624 36.3173C56.9198 36.3173 57.2416 36.5713 57.1772 36.8252C57.306 36.4443 57.6278 36.0633 58.0139 35.9364C58.4001 35.8094 58.915 35.9364 59.1724 36.2538C59.4299 36.5713 59.3655 37.1427 59.0437 37.3967C59.2368 37.1427 59.6873 37.2062 59.8161 37.4602C59.9448 37.7141 59.8804 38.0951 59.6873 38.3491C59.4943 38.603 59.1724 38.73 58.915 38.857C58.4645 39.111 57.6921 39.9364 57.1772 39.6824C56.598 39.3649 56.2118 38.1586 56.0831 37.6506Z" fill="#BEE960"/>
<path d="M68.1189 50.5394C69.4061 50.7934 70.8221 50.4124 71.7875 49.5235C72.7529 48.6347 73.2678 47.2378 73.0747 45.968C73.0104 45.3966 72.7529 44.7616 72.3667 44.3807C71.9162 43.9362 71.2726 43.6823 70.6934 43.8728C71.9162 43.7458 73.0104 42.7299 73.2678 41.5235C73.5252 40.3172 72.946 38.9839 71.9806 38.2855C70.9508 37.5235 69.5348 37.3966 68.4407 37.9045C68.312 37.968 68.1833 38.0315 68.2476 38.1585C68.3763 37.714 68.5051 37.2061 68.8912 36.9521C70.5646 35.8093 73.0747 35.7458 74.6837 37.0156C76.3571 38.222 76.9364 40.6981 76.0353 42.4759C75.7135 43.0474 75.263 43.6188 74.555 43.6823C75.263 43.9362 75.7779 44.6347 75.7135 45.3966C75.7135 45.714 75.5848 46.0315 75.3917 46.222C75.1986 46.4124 74.8125 46.4759 74.555 46.3489C75.4561 47.4918 75.1986 49.2061 74.2976 50.3489C73.3965 51.4918 71.9162 51.9997 70.5003 52.0632C69.6636 52.0632 68.7625 51.9362 68.0545 51.4283C67.9258 51.3013 67.7971 51.1743 67.7327 51.0474C67.6684 50.7299 67.9258 50.5394 68.1189 50.5394Z" fill="#BEE960"/>
<path d="M76.7432 43.2373C77.3225 43.4278 77.773 43.9992 77.9661 44.5706C78.0948 44.9516 78.0948 45.3325 78.0948 45.7135C78.0305 46.1579 77.9017 46.6024 77.5799 46.9198C77.2581 47.2373 76.7432 47.3643 76.3571 47.2373C76.3571 47.9357 76.2927 48.7611 76.8076 49.269C77.2581 49.777 78.0948 50.0309 78.7384 49.777C79.382 49.4595 79.7038 48.5071 79.189 47.9992C80.0257 48.2532 80.9267 47.9992 81.699 47.4913C82.3427 47.0468 82.8576 46.4119 83.0506 45.65C83.2437 44.8881 82.9863 44.0627 82.3427 43.5547C81.699 43.1103 80.7336 43.1738 80.2187 43.8087C80.6693 43.5547 80.7336 42.9833 80.5405 42.5389C80.3475 42.0944 79.8969 41.8405 79.4464 41.7135C78.8028 41.4595 78.0948 41.4595 77.5156 41.777C76.9363 41.9674 76.5501 42.6024 76.7432 43.2373Z" fill="#BEE960"/>
<path d="M28.8582 50.3489C28.0859 50.2219 27.3135 49.968 26.7343 49.46C26.155 48.9521 25.7689 47.7457 26.0263 46.9838C24.8034 47.3013 23.3875 46.6029 22.8726 45.46C22.3577 44.3172 22.937 42.7934 24.0311 42.2219C22.937 41.968 22.229 40.7616 22.2934 39.6823C22.3577 38.6029 23.0657 37.587 23.9667 36.8886C24.8678 36.1902 25.9619 35.4918 26.9917 35.8727C26.3481 35.3648 26.2194 34.3489 26.5412 33.587C26.863 32.8251 27.5066 32.2537 28.2789 31.8092C28.5364 31.6823 28.7938 31.5553 29.0513 31.4918C29.6305 31.3648 30.2741 31.4283 30.789 31.7457C30.9178 31.3013 30.6603 30.4759 30.2741 30.1584C29.18 29.2696 27.571 29.0156 26.2194 29.5235C24.8678 30.0315 23.838 31.3013 23.6449 32.6981C23.5806 33.1426 23.5806 33.5235 23.7093 33.968C23.838 34.3489 24.1598 34.7299 24.546 34.8569C23.838 34.095 22.7439 33.7775 21.7141 33.9045C20.6843 34.0315 19.7189 34.7299 19.2684 35.6823C19.0753 36.1267 18.9466 36.6346 19.0753 37.0791C19.2684 37.5235 19.7833 37.9045 20.2338 37.7775C19.5902 38.0315 19.1397 38.6029 19.0109 39.2378C18.8179 39.8727 18.9466 40.5711 19.204 41.1426C19.3971 41.6505 19.7833 42.095 20.2338 42.4124C20.6843 42.6664 21.3279 42.7299 21.8428 42.4759C20.4269 42.9838 19.5902 44.6346 19.8476 46.095C20.1051 47.5553 21.3279 48.8251 22.8082 49.1426C23.5806 49.333 24.546 49.2061 24.9965 48.5711C24.8678 48.9521 24.9322 49.0791 24.9322 49.46C24.9322 49.968 25.0609 50.6029 25.5114 50.9203C25.9619 51.2378 26.6699 51.2378 26.9274 50.7299C26.863 51.1743 27.1848 51.6188 27.6353 51.8727C27.8928 51.9997 28.2146 52.0632 28.472 52.1267C30.7247 52.3172 30.8534 49.968 30.8534 49.968C30.8534 49.968 29.6305 50.4759 28.8582 50.3489Z" fill="#BEE960"/>
<path d="M46.3008 36.7614C46.2365 35.8725 46.5583 34.9836 47.0732 34.2852C47.588 33.5868 48.3604 33.0788 49.2614 32.8249C49.5189 32.7614 49.7763 32.6979 50.0338 32.7614C50.7417 32.7614 51.3854 33.1423 51.7072 33.7138C52.5439 32.3169 54.346 31.809 55.8263 32.3804C56.4055 32.6344 56.9848 33.0788 57.1135 33.7138C58.5938 32.7614 60.6534 33.0153 62.0693 34.0947C62.7129 34.6026 63.2278 35.3645 63.0991 36.1264C63.8071 35.1106 65.223 34.8566 66.4459 35.2376C67.0251 35.428 67.6044 35.9995 67.9905 36.5074C68.3767 37.0153 68.5054 37.7138 68.3123 38.2852C68.956 37.8407 69.5352 37.2693 69.7927 36.5074C70.1788 35.3011 69.4708 33.9677 68.4411 33.2693C67.9262 32.8884 67.2826 32.6979 66.639 32.6979C65.9953 32.6979 65.3517 33.0153 65.0299 33.5233C64.9656 32.3804 64.0001 31.3011 62.8416 31.1106C61.6831 30.9201 60.3959 31.6185 59.9454 32.6979C59.7523 32.063 58.98 31.809 58.4651 31.8725C57.9502 31.936 57.4997 32.2534 57.2422 32.6979C57.6284 31.6185 56.7917 30.5391 55.8906 29.9677C54.7321 29.2058 53.3162 28.8249 51.9646 29.0153C50.613 29.2693 49.3258 30.2217 49.004 31.555C48.4891 31.3645 47.7168 31.4915 47.2662 31.809C46.8157 32.1264 46.3652 32.5074 46.1077 33.0153C45.5285 34.0947 45.4641 35.6185 45.979 36.6979C46.1077 36.8884 46.3008 37.1423 46.4939 37.0788C46.3652 37.0788 46.3652 36.8249 46.3008 36.7614Z" fill="#88B625"/>
<path d="M82.3426 40.1263C82.6644 39.8723 82.7931 39.3644 82.6 39.0469C83.1149 38.8564 83.5655 38.539 83.8229 38.0945C84.0804 37.6501 84.016 37.0152 83.6298 36.6342C83.2437 36.3168 82.4713 36.3803 82.2782 36.8882C82.6644 36.5707 82.7931 35.9993 82.6644 35.4914C82.6 35.3009 82.5357 35.1739 82.407 35.0469C82.0852 34.793 81.6346 34.793 81.2485 34.9834C80.2187 35.4279 79.8969 38.0311 78.9315 37.9676C77.7086 37.9041 81.1197 41.1422 82.3426 40.1263Z" fill="#A1D432"/>
<path d="M82.0205 32.1908C82.0849 32.0004 82.0849 31.7464 82.0205 31.5559C81.9562 31.3654 81.8275 31.175 81.57 31.175C81.2482 31.1115 80.9908 31.4924 80.862 31.8099C80.7333 32.1908 80.6689 34.0956 80.6689 34.0956C80.6689 34.0956 81.8918 32.6988 82.0205 32.1908Z" fill="#A1D432"/>
<path d="M37.6118 18.2222C37.5475 18.0317 37.4187 17.8412 37.2257 17.6507C37.0326 17.5237 36.7751 17.3968 36.5821 17.4602C36.2602 17.5237 36.0672 17.9047 36.0672 18.2222C36.0672 18.5396 36.1959 18.8571 36.389 19.111C36.1959 18.9841 35.9384 18.8571 35.7454 18.8571C35.4879 18.8571 35.2305 19.0475 35.2305 19.238C35.2305 19.4285 35.3592 19.5555 35.4879 19.619C35.6166 19.6825 35.8097 19.746 35.9384 19.746C36.2602 19.8095 37.4831 19.9999 37.8049 20.3809C38.1267 20.8253 37.8049 18.6031 37.6118 18.2222Z" fill="#A1D432"/>
<path d="M61.8113 16.7618C62.0044 16.5078 62.1975 16.2539 62.3262 15.9999C62.4549 15.6824 62.4549 15.365 62.3262 15.111C62.1975 14.7936 61.8757 14.6031 61.5539 14.6666C61.2321 14.7301 60.9746 15.111 61.1033 15.365C61.2321 15.0475 61.1677 14.6666 61.039 14.3491C60.9746 14.2221 60.9103 14.0951 60.7815 14.0316C60.5241 13.8412 60.1379 13.9047 59.8805 14.1586C59.6874 14.4126 59.623 14.7301 59.623 15.0475C59.6874 15.365 59.8161 15.6824 59.9449 15.9364C60.0736 16.2539 60.7815 16.8253 60.7172 17.5872C60.7815 17.9047 61.5539 17.0158 61.8113 16.7618Z" fill="#A1D432"/>
<path d="M17.8528 44.6979C17.5953 44.7614 17.3379 44.7614 17.1448 44.571C16.9517 44.3805 16.9517 43.9995 17.1448 43.7456C17.3379 43.4916 17.5953 43.3646 17.9171 43.2376C17.5953 43.1741 17.2092 43.0472 17.1448 42.7297C17.0805 42.4757 17.2092 42.2218 17.4023 42.0948C17.5953 41.9678 17.8528 41.9043 18.1102 41.9043C18.6895 41.9043 20.8134 42.7297 20.1698 42.9837C18.9469 43.4916 18.432 44.571 17.8528 44.6979Z" fill="#A1D432"/>
<path d="M19.2044 46.5392C19.14 46.7296 18.947 46.8566 18.7539 46.8566C18.5608 46.8566 18.3677 46.6661 18.3033 46.5392C18.1103 46.0312 18.8182 45.5233 19.14 44.6979C19.3975 43.8725 19.3975 46.1582 19.2044 46.5392Z" fill="#A1D432"/>
<path d="M27.7002 26.2219C27.6359 25.8409 27.8933 25.333 28.3438 25.333C28.73 25.333 29.0518 25.714 29.1805 26.0314C29.3736 26.4124 29.8885 27.3648 29.1805 27.4917C28.6013 27.5552 27.7646 26.7298 27.7002 26.2219Z" fill="#A1D432"/>
<path d="M56.0192 52.8259C56.0835 53.1434 56.0835 53.5243 56.0192 53.8418C55.8905 54.1592 55.5687 54.4132 55.2468 54.3497C55.0538 54.2862 54.8607 54.0957 54.7963 53.9053C54.732 53.7148 54.732 53.4608 54.7963 53.2703C54.8607 52.7624 55.1181 51.937 55.6974 51.7465C56.4053 51.4291 55.9548 52.318 56.0192 52.8259Z" fill="#A1D432"/>
<path d="M46.8799 51.9996C46.6868 52.317 46.365 52.571 46.2363 52.952C46.0432 53.2694 46.0432 53.7139 46.3006 54.0313C46.4937 54.2853 46.8799 54.2853 47.1373 54.1583C47.3948 54.0313 47.5235 53.6504 47.3948 53.3329C47.7166 53.5869 48.1671 53.8408 48.4889 53.5869C48.7463 53.4599 48.8751 53.0789 48.8107 52.7615C48.7463 52.444 48.5533 52.1901 48.3602 51.9996C48.2315 51.8091 47.7166 50.9202 47.4591 50.9837C47.266 50.9837 47.0086 51.8091 46.8799 51.9996Z" fill="#A1D432"/>
<path d="M52.4147 68.8256C52.4791 69.2065 52.6078 69.524 52.7365 69.8414C52.8009 70.0319 52.9296 70.2224 53.1227 70.3494C53.3801 70.4764 53.6376 70.4129 53.895 70.2224C54.0881 70.0319 54.2168 69.8414 54.3455 69.5875C54.7961 68.6986 55.1179 67.7462 55.3753 66.7938C55.504 66.4764 55.5684 66.1589 55.6328 65.9049C55.6971 65.5875 55.7615 65.2065 55.8258 64.8891C55.8902 64.3811 56.0189 63.8097 56.1477 63.3018C56.0833 64.8256 56.0189 66.3494 55.5684 67.8097C55.4397 68.2541 55.2466 68.6986 55.0535 69.143C54.7961 69.7145 54.5386 70.3494 54.0881 70.7938C53.8306 71.0478 53.5088 71.2383 53.187 71.3652C53.0583 71.3652 52.9939 71.4287 52.8652 71.3652C52.7365 71.3018 52.6078 71.2383 52.5434 71.1113C52.0929 70.4764 52.0285 69.524 52.4147 68.8256Z" fill="#B39681"/>
</svg>
