<svg width="245" height="95" viewBox="0 0 245 95" fill="none" xmlns="http://www.w3.org/2000/svg">
<path d="M243.673 15.0348C244.287 14.4783 244.333 13.5297 243.777 12.916L234.709 2.91528C234.152 2.30159 233.204 2.25521 232.59 2.81169C231.976 3.36817 231.93 4.31679 232.486 4.93048L240.547 13.82L231.658 21.8808C231.044 22.4373 230.997 23.3859 231.554 23.9996C232.11 24.6133 233.059 24.6597 233.673 24.1032L243.673 15.0348ZM0.260918 3.57389L242.593 15.4218L242.739 12.4254L0.407417 0.577473L0.260918 3.57389Z" fill="#22A896"/>
<path d="M243.061 84.0607C243.646 83.4749 243.646 82.5251 243.061 81.9393L233.515 72.3934C232.929 71.8076 231.979 71.8076 231.393 72.3934C230.808 72.9792 230.808 73.9289 231.393 74.5147L239.879 83L231.393 91.4853C230.808 92.0711 230.808 93.0208 231.393 93.6066C231.979 94.1924 232.929 94.1924 233.515 93.6066L243.061 84.0607ZM242 81.5L0.999953 81.5V84.5L242 84.5V81.5Z" fill="#22A896"/>
</svg>
