<svg width="571" height="48" viewBox="0 0 571 48" fill="none" xmlns="http://www.w3.org/2000/svg">
<path d="M519.261 21.1949C520.722 21.1949 521.853 21.6515 522.655 22.5646C523.467 23.4777 523.872 24.7865 523.872 26.4909C523.872 27.6881 523.654 28.7128 523.218 29.5651C522.782 30.4071 522.168 31.0514 521.377 31.4978C520.595 31.9341 519.687 32.1522 518.652 32.1522C518.105 32.1522 517.587 32.0964 517.1 31.9848C516.623 31.863 516.207 31.6906 515.852 31.4674L516.583 29.9759C517.11 30.3209 517.785 30.4934 518.607 30.4934C519.631 30.4934 520.433 30.1789 521.011 29.5498C521.59 28.9208 521.879 28.0128 521.879 26.8257V26.8105C521.564 27.1758 521.163 27.4548 520.676 27.6475C520.189 27.8302 519.642 27.9215 519.033 27.9215C518.333 27.9215 517.704 27.7896 517.146 27.5258C516.588 27.2519 516.152 26.8663 515.837 26.3692C515.522 25.872 515.365 25.2988 515.365 24.6495C515.365 23.9596 515.538 23.3559 515.883 22.8385C516.228 22.3109 516.694 21.9051 517.283 21.621C517.871 21.337 518.531 21.1949 519.261 21.1949ZM519.413 26.3692C520.053 26.3692 520.57 26.1967 520.966 25.8518C521.371 25.5068 521.574 25.0705 521.574 24.543C521.574 24.0255 521.377 23.5994 520.981 23.2646C520.595 22.9197 520.058 22.7472 519.368 22.7472C518.749 22.7472 518.247 22.9146 517.861 23.2494C517.476 23.5741 517.283 24.0103 517.283 24.5582C517.283 25.1162 517.476 25.5575 517.861 25.8822C518.247 26.2069 518.764 26.3692 519.413 26.3692ZM528.544 25.4713C530.045 25.4713 531.156 25.7655 531.877 26.354C532.597 26.9323 532.957 27.7236 532.957 28.728C532.957 29.3672 532.8 29.9455 532.485 30.4629C532.171 30.9804 531.699 31.3913 531.07 31.6956C530.441 32 529.665 32.1522 528.742 32.1522C527.981 32.1522 527.245 32.0457 526.535 31.8326C525.825 31.6094 525.226 31.305 524.739 30.9195L525.576 29.3824C525.972 29.7071 526.444 29.9658 526.991 30.1586C527.549 30.3412 528.123 30.4325 528.711 30.4325C529.411 30.4325 529.959 30.2905 530.355 30.0064C530.761 29.7122 530.963 29.3114 530.963 28.8041C530.963 28.2563 530.745 27.8454 530.309 27.5714C529.883 27.2874 529.147 27.1453 528.102 27.1453H525.53L526.078 21.3471H532.333V23.0059H527.752L527.524 25.4713H528.544Z" fill="#2F2F2F"/>
<path d="M442.579 26.3996C443.137 26.6533 443.563 26.9982 443.857 27.4345C444.161 27.8606 444.314 28.3628 444.314 28.9411C444.314 29.5904 444.131 30.1586 443.766 30.6456C443.411 31.1325 442.903 31.5079 442.244 31.7717C441.585 32.0254 440.819 32.1522 439.946 32.1522C439.073 32.1522 438.307 32.0254 437.648 31.7717C436.999 31.5079 436.496 31.1325 436.141 30.6456C435.786 30.1586 435.609 29.5904 435.609 28.9411C435.609 28.3628 435.756 27.8606 436.05 27.4345C436.344 26.9982 436.765 26.6533 437.313 26.3996C436.887 26.1663 436.557 25.8619 436.324 25.4865C436.101 25.101 435.989 24.6596 435.989 24.1625C435.989 23.5639 436.152 23.0414 436.476 22.595C436.811 22.1486 437.278 21.8037 437.876 21.5602C438.475 21.3167 439.165 21.1949 439.946 21.1949C440.737 21.1949 441.432 21.3167 442.031 21.5602C442.63 21.8037 443.096 22.1486 443.431 22.595C443.766 23.0414 443.933 23.5639 443.933 24.1625C443.933 24.6596 443.817 25.0959 443.583 25.4713C443.35 25.8467 443.015 26.1561 442.579 26.3996ZM439.946 22.7472C439.327 22.7472 438.835 22.8791 438.47 23.1429C438.115 23.4067 437.937 23.777 437.937 24.2538C437.937 24.7104 438.115 25.0756 438.47 25.3495C438.835 25.6133 439.327 25.7452 439.946 25.7452C440.575 25.7452 441.072 25.6133 441.437 25.3495C441.803 25.0756 441.985 24.7104 441.985 24.2538C441.985 23.777 441.798 23.4067 441.422 23.1429C441.057 22.8791 440.565 22.7472 439.946 22.7472ZM439.946 30.5999C440.676 30.5999 441.255 30.4477 441.681 30.1434C442.107 29.839 442.32 29.4179 442.32 28.8802C442.32 28.3527 442.107 27.9367 441.681 27.6323C441.255 27.3279 440.676 27.1758 439.946 27.1758C439.216 27.1758 438.642 27.3279 438.226 27.6323C437.81 27.9367 437.602 28.3527 437.602 28.8802C437.602 29.4179 437.81 29.839 438.226 30.1434C438.642 30.4477 439.216 30.5999 439.946 30.5999ZM448.93 25.4713C450.432 25.4713 451.543 25.7655 452.263 26.354C452.983 26.9323 453.343 27.7236 453.343 28.728C453.343 29.3672 453.186 29.9455 452.872 30.4629C452.557 30.9804 452.085 31.3913 451.456 31.6956C450.827 32 450.051 32.1522 449.128 32.1522C448.367 32.1522 447.631 32.0457 446.921 31.8326C446.211 31.6094 445.612 31.305 445.125 30.9195L445.962 29.3824C446.358 29.7071 446.83 29.9658 447.378 30.1586C447.936 30.3412 448.509 30.4325 449.097 30.4325C449.798 30.4325 450.345 30.2905 450.741 30.0064C451.147 29.7122 451.35 29.3114 451.35 28.8041C451.35 28.2563 451.132 27.8454 450.695 27.5714C450.269 27.2874 449.534 27.1453 448.489 27.1453H445.917L446.465 21.3471H452.719V23.0059H448.139L447.91 25.4713H448.93Z" fill="#2F2F2F"/>
<path d="M280.509 25.4256C281.209 25.4256 281.838 25.5626 282.396 25.8365C282.954 26.1003 283.39 26.4808 283.705 26.9779C284.019 27.4751 284.177 28.0483 284.177 28.6976C284.177 29.3875 284.004 29.9962 283.659 30.5238C283.314 31.0412 282.848 31.442 282.259 31.7261C281.671 32.0101 281.011 32.1522 280.281 32.1522C278.82 32.1522 277.684 31.6956 276.872 30.7825C276.07 29.8694 275.67 28.5606 275.67 26.8562C275.67 25.659 275.888 24.6394 276.324 23.7973C276.76 22.945 277.369 22.3008 278.15 21.8645C278.942 21.4181 279.855 21.1949 280.89 21.1949C281.437 21.1949 281.95 21.2558 282.427 21.3775C282.914 21.4891 283.335 21.6565 283.69 21.8797L282.959 23.3712C282.432 23.0262 281.757 22.8537 280.935 22.8537C279.91 22.8537 279.109 23.1682 278.531 23.7973C277.952 24.4263 277.663 25.3343 277.663 26.5214V26.5366C277.978 26.1713 278.378 25.8974 278.865 25.7148C279.352 25.522 279.9 25.4256 280.509 25.4256ZM280.174 30.5999C280.793 30.5999 281.295 30.4376 281.681 30.1129C282.066 29.7781 282.259 29.3368 282.259 28.7889C282.259 28.2309 282.066 27.7896 281.681 27.4649C281.295 27.1402 280.778 26.9779 280.129 26.9779C279.489 26.9779 278.967 27.1504 278.561 27.4953C278.165 27.8403 277.968 28.2766 277.968 28.8041C277.968 29.3216 278.16 29.7527 278.546 30.0977C278.942 30.4325 279.484 30.5999 280.174 30.5999ZM288.544 25.4713C290.045 25.4713 291.156 25.7655 291.877 26.354C292.597 26.9323 292.957 27.7236 292.957 28.728C292.957 29.3672 292.8 29.9455 292.485 30.4629C292.171 30.9804 291.699 31.3913 291.07 31.6956C290.441 32 289.665 32.1522 288.742 32.1522C287.981 32.1522 287.245 32.0457 286.535 31.8326C285.825 31.6094 285.226 31.305 284.739 30.9195L285.576 29.3824C285.972 29.7071 286.444 29.9658 286.991 30.1586C287.549 30.3412 288.123 30.4325 288.711 30.4325C289.411 30.4325 289.959 30.2905 290.355 30.0064C290.761 29.7122 290.963 29.3114 290.963 28.8041C290.963 28.2563 290.745 27.8454 290.309 27.5714C289.883 27.2874 289.147 27.1453 288.102 27.1453H285.53L286.078 21.3471H292.333V23.0059H287.752L287.524 25.4713H288.544Z" fill="#2F2F2F"/>
<path d="M40.2047 25.7452C41.1888 25.867 41.9396 26.2018 42.457 26.7496C42.9745 27.2975 43.2332 27.9823 43.2332 28.8041C43.2332 29.423 43.0759 29.9861 42.7614 30.4934C42.4469 31.0007 41.97 31.4065 41.3309 31.7108C40.7018 32.0051 39.9308 32.1522 39.0177 32.1522C38.2567 32.1522 37.5212 32.0457 36.811 31.8326C36.1109 31.6094 35.5124 31.305 35.0152 30.9195L35.8675 29.3824C36.253 29.7071 36.7197 29.9658 37.2675 30.1586C37.8256 30.3412 38.3988 30.4325 38.9872 30.4325C39.6873 30.4325 40.2351 30.2905 40.6308 30.0064C41.0366 29.7122 41.2396 29.3165 41.2396 28.8193C41.2396 28.3222 41.0468 27.9367 40.6613 27.6627C40.2859 27.3787 39.7076 27.2366 38.9264 27.2366H37.9524V25.8822L40.3721 23.0059H35.5326V21.3471H42.7918V22.6711L40.2047 25.7452ZM47.7114 25.4713C49.213 25.4713 50.3239 25.7655 51.0443 26.354C51.7646 26.9323 52.1248 27.7236 52.1248 28.728C52.1248 29.3672 51.9675 29.9455 51.653 30.4629C51.3385 30.9804 50.8667 31.3913 50.2377 31.6956C49.6087 32 48.8325 32.1522 47.9093 32.1522C47.1483 32.1522 46.4128 32.0457 45.7026 31.8326C44.9924 31.6094 44.3938 31.305 43.9068 30.9195L44.7438 29.3824C45.1395 29.7071 45.6113 29.9658 46.1591 30.1586C46.7172 30.3412 47.2904 30.4325 47.8788 30.4325C48.5789 30.4325 49.1267 30.2905 49.5224 30.0064C49.9282 29.7122 50.1312 29.3114 50.1312 28.8041C50.1312 28.2563 49.913 27.8454 49.4768 27.5714C49.0506 27.2874 48.3151 27.1453 47.2701 27.1453H44.6982L45.246 21.3471H51.5008V23.0059H46.9201L46.6918 25.4713H47.7114Z" fill="#2F2F2F"/>
<path d="M200.002 25.4713C201.504 25.4713 202.615 25.7655 203.335 26.354C204.056 26.9323 204.416 27.7236 204.416 28.728C204.416 29.3672 204.259 29.9455 203.944 30.4629C203.63 30.9804 203.158 31.3913 202.529 31.6956C201.9 32 201.124 32.1522 200.2 32.1522C199.439 32.1522 198.704 32.0457 197.994 31.8326C197.283 31.6094 196.685 31.305 196.198 30.9195L197.035 29.3824C197.431 29.7071 197.902 29.9658 198.45 30.1586C199.008 30.3412 199.581 30.4325 200.17 30.4325C200.87 30.4325 201.418 30.2905 201.813 30.0064C202.219 29.7122 202.422 29.3114 202.422 28.8041C202.422 28.2563 202.204 27.8454 201.768 27.5714C201.342 27.2874 200.606 27.1453 199.561 27.1453H196.989L197.537 21.3471H203.792V23.0059H199.211L198.983 25.4713H200.002ZM208.815 25.4713C210.317 25.4713 211.428 25.7655 212.148 26.354C212.869 26.9323 213.229 27.7236 213.229 28.728C213.229 29.3672 213.072 29.9455 212.757 30.4629C212.443 30.9804 211.971 31.3913 211.342 31.6956C210.713 32 209.937 32.1522 209.013 32.1522C208.252 32.1522 207.517 32.0457 206.807 31.8326C206.096 31.6094 205.498 31.305 205.011 30.9195L205.848 29.3824C206.244 29.7071 206.715 29.9658 207.263 30.1586C207.821 30.3412 208.394 30.4325 208.983 30.4325C209.683 30.4325 210.231 30.2905 210.626 30.0064C211.032 29.7122 211.235 29.3114 211.235 28.8041C211.235 28.2563 211.017 27.8454 210.581 27.5714C210.155 27.2874 209.419 27.1453 208.374 27.1453H205.802L206.35 21.3471H212.605V23.0059H208.024L207.796 25.4713H208.815Z" fill="#2F2F2F"/>
<path d="M0.384857 6.64951C0.0451225 6.98924 0.0451225 7.54006 0.384857 7.87979L5.92115 13.4161C6.26088 13.7558 6.8117 13.7558 7.15143 13.4161C7.49117 13.0763 7.49117 12.5255 7.15143 12.1858L2.23029 7.26465L7.15143 2.3435C7.49117 2.00377 7.49117 1.45295 7.15143 1.11322C6.8117 0.773482 6.26088 0.773482 5.92115 1.11322L0.384857 6.64951ZM570.615 7.87979C570.955 7.54006 570.955 6.98924 570.615 6.64951L565.079 1.11322C564.739 0.773482 564.188 0.773482 563.849 1.11322C563.509 1.45295 563.509 2.00377 563.849 2.3435L568.77 7.26465L563.849 12.1858C563.509 12.5255 563.509 13.0763 563.849 13.4161C564.188 13.7558 564.739 13.7558 565.079 13.4161L570.615 7.87979ZM1 8.13459H570V6.3947H1V8.13459Z" fill="#888888"/>
<line x1="45.8699" y1="1.86994" x2="45.8699" y2="12.8121" stroke="#2F2F2F" stroke-width="1.73989" stroke-linecap="round"/>
<line x1="206.16" y1="2.15993" x2="206.16" y2="12.5221" stroke="#2F2F2F" stroke-width="2.31985" stroke-linecap="round"/>
<line x1="126.16" y1="2.15993" x2="126.16" y2="12.5221" stroke="#369CB7" stroke-width="2.31985" stroke-linecap="round"/>
<line x1="286.16" y1="1.15993" x2="286.16" y2="11.5221" stroke="#2F2F2F" stroke-width="2.31985" stroke-linecap="round"/>
<line x1="365.87" y1="1.86994" x2="365.87" y2="12.8121" stroke="#369CB7" stroke-width="1.73989" stroke-linecap="round"/>
<line x1="526.16" y1="2.15993" x2="526.16" y2="12.5221" stroke="#2F2F2F" stroke-width="2.31985" stroke-linecap="round"/>
<line x1="446.16" y1="1.15993" x2="446.16" y2="11.5221" stroke="#2F2F2F" stroke-width="2.31985" stroke-linecap="round"/>
<path d="M126.73 35.0022L124.336 35.0111L124.347 38.1071L122.601 38.1136L122.59 35.0176L115.588 35.0437L115.583 33.7837L121.996 25.5157L123.94 25.5085L117.796 33.4874L122.638 33.4694L122.628 30.7334L124.32 30.7271L124.33 33.4631L126.724 33.4542L126.73 35.0022ZM131.339 30.503C133.139 30.4963 134.46 30.8334 135.303 31.5143C136.157 32.1831 136.587 33.1055 136.591 34.2815C136.594 35.0255 136.417 35.6981 136.059 36.2995C135.713 36.8888 135.181 37.3587 134.462 37.7094C133.755 38.0481 132.88 38.2193 131.836 38.2232C130.948 38.2265 130.089 38.0977 129.26 37.8368C128.431 37.5639 127.746 37.1884 127.204 36.7104L128.027 35.2854C128.46 35.6918 129.014 36.0197 129.687 36.2692C130.36 36.5067 131.068 36.6241 131.812 36.6213C132.76 36.6178 133.491 36.417 134.006 36.0191C134.532 35.6092 134.794 35.0562 134.792 34.3602C134.789 33.6042 134.499 33.0353 133.921 32.6534C133.344 32.2596 132.359 32.0652 130.967 32.0704L128.105 32.0811L128.746 25.4906L135.856 25.4641L135.862 27.0301L130.264 27.051L129.935 30.5082L131.339 30.503Z" fill="#2F2F2F"/>
<path d="M104.004 18.1826L148.003 18.0188L147.996 16.0188L103.996 16.1826L104.004 18.1826ZM152.018 22.0038L152.093 42.0037L154.093 41.9963L154.018 21.9964L152.018 22.0038ZM148.108 46.0186L104.108 46.1824L104.115 48.1823L148.115 48.0186L148.108 46.0186ZM100.093 42.1973L100.019 22.1974L98.0186 22.2049L98.0931 42.2047L100.093 42.1973ZM104.108 46.1824C101.899 46.1906 100.101 44.4064 100.093 42.1973L98.0931 42.2047C98.1054 45.5184 100.802 48.1947 104.115 48.1823L104.108 46.1824ZM152.093 42.0037C152.101 44.2128 150.317 46.0103 148.108 46.0186L148.115 48.0186C151.429 48.0062 154.105 45.3099 154.093 41.9963L152.093 42.0037ZM148.003 18.0188C150.213 18.0105 152.01 19.7947 152.018 22.0038L154.018 21.9964C154.006 18.6827 151.31 16.0064 147.996 16.0188L148.003 18.0188ZM103.996 16.1826C100.683 16.1949 98.0063 18.8912 98.0186 22.2049L100.019 22.1974C100.01 19.9883 101.795 18.1908 104.004 18.1826L103.996 16.1826Z" fill="#2F2F2F"/>
<path d="M364.686 25.5018L364.69 26.7258L359.639 38.1207L357.731 38.1278L362.676 27.0753L356.916 27.0968L356.924 29.3467L355.196 29.3532L355.182 25.5372L364.686 25.5018ZM369.566 30.5057C371.366 30.499 372.687 30.8361 373.53 31.5169C374.384 32.1858 374.813 33.1082 374.818 34.2842C374.821 35.0282 374.643 35.7008 374.285 36.3022C373.94 36.8915 373.407 37.3614 372.689 37.7121C371.982 38.0508 371.106 38.222 370.062 38.2259C369.174 38.2292 368.316 38.1004 367.487 37.8395C366.658 37.5666 365.973 37.1911 365.431 36.7131L366.254 35.2881C366.687 35.6944 367.24 36.0224 367.913 36.2719C368.586 36.5094 369.295 36.6267 370.039 36.624C370.987 36.6205 371.718 36.4197 372.232 36.0218C372.759 35.6118 373.021 35.0589 373.018 34.3629C373.015 33.6069 372.725 33.038 372.148 32.6561C371.57 32.2622 370.586 32.0679 369.194 32.0731L366.332 32.0837L366.973 25.4933L374.083 25.4668L374.089 27.0328L368.491 27.0537L368.162 30.5109L369.566 30.5057Z" fill="#2F2F2F"/>
<path d="M343.004 18.1826L387.003 18.0188L386.996 16.0188L342.996 16.1826L343.004 18.1826ZM391.018 22.0038L391.093 42.0037L393.093 41.9963L393.018 21.9964L391.018 22.0038ZM387.108 46.0186L343.108 46.1824L343.115 48.1823L387.115 48.0186L387.108 46.0186ZM339.093 42.1973L339.019 22.1974L337.019 22.2049L337.093 42.2047L339.093 42.1973ZM343.108 46.1824C340.899 46.1906 339.101 44.4064 339.093 42.1973L337.093 42.2047C337.105 45.5184 339.802 48.1947 343.115 48.1823L343.108 46.1824ZM391.093 42.0037C391.101 44.2128 389.317 46.0103 387.108 46.0186L387.115 48.0186C390.429 48.0062 393.105 45.3099 393.093 41.9963L391.093 42.0037ZM387.003 18.0188C389.213 18.0105 391.01 19.7947 391.018 22.0038L393.018 21.9964C393.006 18.6827 390.31 16.0064 386.996 16.0188L387.003 18.0188ZM342.996 16.1826C339.683 16.1949 337.006 18.8912 337.019 22.2049L339.019 22.1974C339.01 19.9883 340.795 18.1908 343.004 18.1826L342.996 16.1826Z" fill="#2F2F2F"/>
</svg>
