<svg width="180" height="112" viewBox="0 0 180 112" fill="none" xmlns="http://www.w3.org/2000/svg">
<path d="M0.789376 107.75C0.65119 108.285 0.972643 108.83 1.50736 108.968L10.2211 111.22C10.7558 111.358 11.3013 111.037 11.4395 110.502C11.5777 109.967 11.2562 109.422 10.7215 109.284L2.97597 107.282L4.97762 99.5365C5.11581 99.0018 4.79436 98.4563 4.25964 98.3181C3.72492 98.1799 3.17942 98.5013 3.04124 99.0361L0.789376 107.75ZM179.211 4.2502C179.349 3.71548 179.027 3.16999 178.493 3.0318L169.779 0.77994C169.244 0.641752 168.699 0.963204 168.561 1.49793C168.422 2.03264 168.744 2.57814 169.278 2.71633L177.024 4.71798L175.022 12.4635C174.884 12.9982 175.206 13.5437 175.74 13.6819C176.275 13.8201 176.821 13.4986 176.959 12.9639L179.211 4.2502ZM2.26526 108.862L178.75 4.86153L177.735 3.13845L1.24988 107.138L2.26526 108.862Z" fill="#CC913A"/>
<circle cx="91" cy="55" r="4" fill="#CC913A"/>
<path d="M102.515 48.9669C100.915 45.9128 98.1674 43.6195 94.8765 42.5914C91.5855 41.5633 88.0209 41.8846 84.9669 43.4847C81.9128 45.0848 79.6195 47.8326 78.5914 51.1235C77.5633 54.4145 77.8846 57.9791 79.4847 61.0331L81.4191 60.0197C80.0878 57.4787 79.8204 54.5129 80.6758 51.7747C81.5312 49.0366 83.4393 46.7504 85.9803 45.4191C88.5213 44.0878 91.4871 43.8204 94.2253 44.6758C96.9634 45.5312 99.2496 47.4393 100.581 49.9803L102.515 48.9669Z" fill="#CC913A"/>
</svg>
