<svg width="128" height="172" viewBox="0 0 128 172" fill="none" xmlns="http://www.w3.org/2000/svg">
<circle cx="25.5675" cy="74.0415" r="3.13683" transform="rotate(-100.475 25.5675 74.0415)" fill="#C400B0"/>
<path d="M101.482 11.8545C102.031 11.9148 102.427 12.4087 102.367 12.9577L101.384 21.9039C101.324 22.4529 100.83 22.8491 100.281 22.7888C99.7321 22.7285 99.3359 22.2346 99.3962 21.6856L100.269 13.7334L92.3172 12.8602C91.7682 12.7999 91.3721 12.306 91.4323 11.757C91.4926 11.208 91.9865 10.8118 92.5355 10.8721L101.482 11.8545ZM24.9217 74.1704L23.9774 74.4993L23.745 73.8323L24.296 73.3903L24.9217 74.1704ZM55.2362 159.05C54.9959 159.547 54.398 159.755 53.9007 159.515L45.7975 155.598C45.3003 155.358 45.092 154.76 45.3324 154.263C45.5727 153.766 46.1706 153.557 46.6679 153.798L53.8707 157.279L57.352 150.076C57.5923 149.579 58.1902 149.371 58.6875 149.611C59.1847 149.851 59.393 150.449 59.1527 150.946L55.2362 159.05ZM101.998 13.6286L25.5474 74.9505L24.296 73.3903L100.747 12.0685L101.998 13.6286ZM25.8661 73.8414L55.2802 158.285L53.3915 158.943L23.9774 74.4993L25.8661 73.8414Z" fill="#C400B0"/>
<path d="M38.1805 63.096C41.2433 64.3931 43.7024 66.814 45.0579 69.8664C46.4133 72.9188 46.5632 76.3734 45.477 79.5277C44.3909 82.682 42.1502 85.299 39.2109 86.8465C36.2715 88.394 32.8541 88.7557 29.6538 87.8582L30.0132 86.5519C32.8832 87.3568 35.9478 87.0324 38.5838 85.6447C41.2197 84.2569 43.2291 81.91 44.2031 79.0813C45.1772 76.2526 45.0428 73.1546 43.8272 70.4173C42.6117 67.6799 40.4064 65.5089 37.6598 64.3457L38.1805 63.096Z" fill="#C400B0"/>
</svg>
