<svg width="147" height="144" viewBox="0 0 147 144" fill="none" xmlns="http://www.w3.org/2000/svg">
<circle cx="27.3422" cy="5.32149" r="4.34218" fill="#004BC4"/>
<path d="M43.89 7.60473L41.314 25.4814L23.4373 22.9053" stroke="#004BC4" stroke-width="2"/>
<path d="M146.573 24.1704C146.892 24.6214 146.785 25.2454 146.334 25.5642L138.985 30.7598C138.534 31.0786 137.91 30.9715 137.591 30.5205C137.272 30.0695 137.379 29.4455 137.83 29.1267L144.363 24.5084L139.744 17.9761C139.426 17.5251 139.533 16.901 139.984 16.5822C140.435 16.2634 141.059 16.3705 141.378 16.8215L146.573 24.1704ZM27.3294 4.41829L26.3438 4.2491L26.513 3.26352L27.4986 3.4327L27.3294 4.41829ZM7.57728 123.662C7.12631 123.981 6.50228 123.874 6.18345 123.423L0.987933 116.074C0.669109 115.623 0.776232 114.999 1.2272 114.68C1.67817 114.361 2.3022 114.468 2.62103 114.919L7.23926 121.452L13.7716 116.833C14.2226 116.515 14.8466 116.622 15.1655 117.073C15.4843 117.524 15.3772 118.148 14.9262 118.466L7.57728 123.662ZM145.587 25.7333L27.1602 5.40387L27.4986 3.4327L145.926 23.7621L145.587 25.7333ZM28.315 4.58748L7.98558 123.015L6.01441 122.676L26.3438 4.2491L28.315 4.58748Z" fill="#004BC4"/>
</svg>
