<svg width="113" height="148" viewBox="0 0 113 148" fill="none" xmlns="http://www.w3.org/2000/svg">
<circle cx="27.1508" cy="4.65265" r="4.15085" fill="#33C400"/>
<path d="M95.0851 128.62C94.9261 129.149 94.3684 129.449 93.8395 129.29L85.2209 126.697C84.6921 126.538 84.3923 125.981 84.5514 125.452C84.7105 124.923 85.2682 124.623 85.7971 124.782L93.458 127.087L95.7624 119.426C95.9215 118.897 96.4792 118.597 97.0081 118.756C97.5369 118.915 97.8367 119.473 97.6776 120.002L95.0851 128.62ZM27.1374 3.70187L26.1497 3.54564L26.6133 0.614629L28.0182 3.22842L27.1374 3.70187ZM7.28164 133.761C6.8349 134.086 6.20951 133.987 5.88479 133.54L0.593216 126.26C0.268495 125.813 0.367413 125.188 0.814159 124.863C1.2609 124.538 1.88629 124.637 2.211 125.084L6.91463 131.555L13.3858 126.852C13.8325 126.527 14.4579 126.626 14.7826 127.072C15.1074 127.519 15.0084 128.145 14.5617 128.469L7.28164 133.761ZM93.2467 128.806L26.2566 4.17531L28.0182 3.22842L95.0084 127.859L93.2467 128.806ZM28.1251 3.85809L7.68141 133.108L5.70597 132.796L26.1497 3.54564L28.1251 3.85809Z" fill="#33C400"/>
<path d="M40.2194 25.7979C40.6408 28.1578 40.1083 30.5867 38.7389 32.5503C37.3696 34.5139 35.2757 35.8513 32.9178 36.2684C30.5599 36.6855 28.1312 36.1481 26.166 34.7743C24.2007 33.4006 22.8599 31.3031 22.4386 28.9432L23.932 28.679C24.2826 30.6425 25.3982 32.3876 27.0333 33.5306C28.6684 34.6736 30.6891 35.1208 32.6509 34.7737C34.6127 34.4267 36.3549 33.3139 37.4942 31.6802C38.6335 30.0464 39.0766 28.0255 38.726 26.0621L40.2194 25.7979Z" fill="#33C400"/>
</svg>
