<svg width="408" height="30" viewBox="0 0 408 30" fill="none" xmlns="http://www.w3.org/2000/svg">
<path d="M311.463 13.35C312.291 13.35 313.029 13.506 313.677 13.818C314.337 14.13 314.853 14.58 315.225 15.168C315.597 15.744 315.783 16.41 315.783 17.166C315.783 17.958 315.585 18.654 315.189 19.254C314.805 19.854 314.271 20.322 313.587 20.658C312.915 20.982 312.159 21.144 311.319 21.144C309.627 21.144 308.319 20.598 307.395 19.506C306.483 18.414 306.027 16.866 306.027 14.862C306.027 13.458 306.273 12.264 306.765 11.28C307.269 10.284 307.965 9.534 308.853 9.03C309.753 8.514 310.797 8.256 311.985 8.256C312.597 8.256 313.173 8.322 313.713 8.454C314.253 8.574 314.721 8.754 315.117 8.994L314.433 10.398C313.833 10.002 313.029 9.804 312.021 9.804C310.713 9.804 309.687 10.212 308.943 11.028C308.199 11.832 307.827 13.008 307.827 14.556C307.827 14.748 307.833 14.898 307.845 15.006C308.205 14.466 308.697 14.058 309.321 13.782C309.957 13.494 310.671 13.35 311.463 13.35ZM311.247 19.686C312.075 19.686 312.747 19.464 313.263 19.02C313.779 18.576 314.037 17.982 314.037 17.238C314.037 16.494 313.773 15.906 313.245 15.474C312.729 15.03 312.033 14.808 311.157 14.808C310.593 14.808 310.089 14.916 309.645 15.132C309.213 15.348 308.871 15.642 308.619 16.014C308.379 16.386 308.259 16.8 308.259 17.256C308.259 17.7 308.373 18.108 308.601 18.48C308.841 18.84 309.183 19.134 309.627 19.362C310.083 19.578 310.623 19.686 311.247 19.686ZM330.376 15.42H327.1V18.642H325.588V15.42H322.312V13.998H325.588V10.758H327.1V13.998H330.376V15.42ZM342.717 13.35C343.545 13.35 344.283 13.506 344.931 13.818C345.591 14.13 346.107 14.58 346.479 15.168C346.851 15.744 347.037 16.41 347.037 17.166C347.037 17.958 346.839 18.654 346.443 19.254C346.059 19.854 345.525 20.322 344.841 20.658C344.169 20.982 343.413 21.144 342.573 21.144C340.881 21.144 339.573 20.598 338.649 19.506C337.737 18.414 337.281 16.866 337.281 14.862C337.281 13.458 337.527 12.264 338.019 11.28C338.523 10.284 339.219 9.534 340.107 9.03C341.007 8.514 342.051 8.256 343.239 8.256C343.851 8.256 344.427 8.322 344.967 8.454C345.507 8.574 345.975 8.754 346.371 8.994L345.687 10.398C345.087 10.002 344.283 9.804 343.275 9.804C341.967 9.804 340.941 10.212 340.197 11.028C339.453 11.832 339.081 13.008 339.081 14.556C339.081 14.748 339.087 14.898 339.099 15.006C339.459 14.466 339.951 14.058 340.575 13.782C341.211 13.494 341.925 13.35 342.717 13.35ZM342.501 19.686C343.329 19.686 344.001 19.464 344.517 19.02C345.033 18.576 345.291 17.982 345.291 17.238C345.291 16.494 345.027 15.906 344.499 15.474C343.983 15.03 343.287 14.808 342.411 14.808C341.847 14.808 341.343 14.916 340.899 15.132C340.467 15.348 340.125 15.642 339.873 16.014C339.633 16.386 339.513 16.8 339.513 17.256C339.513 17.7 339.627 18.108 339.855 18.48C340.095 18.84 340.437 19.134 340.881 19.362C341.337 19.578 341.877 19.686 342.501 19.686ZM353.566 11.856H361.63V13.278H353.566V11.856ZM353.566 16.122H361.63V17.544H353.566V16.122Z" fill="#2F2F2F"/>
<path d="M37 1H67V-1H37V1ZM71 5V25H73V5H71ZM67 29H37V31H67V29ZM33 25V5H31V25H33ZM37 29C34.7909 29 33 27.2091 33 25H31C31 28.3137 33.6863 31 37 31V29ZM71 25C71 27.2091 69.2091 29 67 29V31C70.3137 31 73 28.3137 73 25H71ZM67 1C69.2091 1 71 2.79086 71 5H73C73 1.68629 70.3137 -1 67 -1V1ZM37 -1C33.6863 -1 31 1.68629 31 5H33C33 2.79086 34.7909 1 37 1V-1Z" fill="#2F2F2F"/>
<path d="M53.0376 13.692C54.2736 13.812 55.2156 14.196 55.8636 14.844C56.5116 15.48 56.8356 16.296 56.8356 17.292C56.8356 18.012 56.6556 18.666 56.2956 19.254C55.9356 19.83 55.3956 20.292 54.6756 20.64C53.9676 20.976 53.0976 21.144 52.0656 21.144C51.1656 21.144 50.3016 21.012 49.4736 20.748C48.6456 20.472 47.9676 20.094 47.4396 19.614L48.2676 18.192C48.6996 18.6 49.2516 18.93 49.9236 19.182C50.5956 19.422 51.3096 19.542 52.0656 19.542C53.0016 19.542 53.7276 19.344 54.2436 18.948C54.7716 18.552 55.0356 18.006 55.0356 17.31C55.0356 16.614 54.7776 16.074 54.2616 15.69C53.7456 15.306 52.9656 15.114 51.9216 15.114H50.9136V13.854L54.0816 9.966H48.0156V8.4H56.3316V9.624L53.0376 13.692Z" fill="#2F2F2F"/>
<path d="M8.77601 14.394C9.49601 14.67 10.048 15.066 10.432 15.582C10.816 16.098 11.008 16.716 11.008 17.436C11.008 18.192 10.804 18.852 10.396 19.416C9.98801 19.968 9.40601 20.394 8.65001 20.694C7.89401 20.994 7.00601 21.144 5.98601 21.144C4.97801 21.144 4.09601 20.994 3.34001 20.694C2.59601 20.394 2.02001 19.968 1.61201 19.416C1.20401 18.852 1.00001 18.192 1.00001 17.436C1.00001 16.716 1.18601 16.098 1.55801 15.582C1.94201 15.066 2.49401 14.67 3.21401 14.394C2.63801 14.118 2.20001 13.752 1.90001 13.296C1.60001 12.84 1.45001 12.3 1.45001 11.676C1.45001 10.98 1.63601 10.374 2.00801 9.858C2.39201 9.342 2.92601 8.946 3.61001 8.67C4.29401 8.394 5.08601 8.256 5.98601 8.256C6.89801 8.256 7.69601 8.394 8.38001 8.67C9.07601 8.946 9.61001 9.342 9.98201 9.858C10.366 10.374 10.558 10.98 10.558 11.676C10.558 12.288 10.402 12.828 10.09 13.296C9.79001 13.752 9.35201 14.118 8.77601 14.394ZM5.98601 9.714C5.13401 9.714 4.46201 9.9 3.97001 10.272C3.47801 10.632 3.23201 11.124 3.23201 11.748C3.23201 12.372 3.47201 12.864 3.95201 13.224C4.44401 13.584 5.12201 13.764 5.98601 13.764C6.86201 13.764 7.54601 13.584 8.03801 13.224C8.54201 12.864 8.79401 12.372 8.79401 11.748C8.79401 11.124 8.53601 10.632 8.02001 10.272C7.51601 9.9 6.83801 9.714 5.98601 9.714ZM5.98601 19.686C6.98201 19.686 7.76801 19.482 8.34401 19.074C8.92001 18.654 9.20801 18.09 9.20801 17.382C9.20801 16.686 8.92001 16.14 8.34401 15.744C7.76801 15.336 6.98201 15.132 5.98601 15.132C4.99001 15.132 4.21001 15.336 3.64601 15.744C3.08201 16.14 2.80001 16.686 2.80001 17.382C2.80001 18.09 3.08201 18.654 3.64601 19.074C4.21001 19.482 4.99001 19.686 5.98601 19.686Z" fill="#2F2F2F"/>
<path d="M78.3886 11.856H86.4526V13.278H78.3886V11.856ZM78.3886 16.122H86.4526V17.544H78.3886V16.122ZM97.2632 8.4V21H95.4812V9.966H92.6372V8.4H97.2632ZM103.925 8.4V21H102.143V9.966H99.2993V8.4H103.925Z" fill="#2F2F2F"/>
<path d="M26.5317 15.42H23.2557V18.642H21.7437V15.42H18.4677V13.998H21.7437V10.758H23.2557V13.998H26.5317V15.42Z" fill="#2F2F2F"/>
<path d="M191 1H221V-1H191V1ZM225 5V25H227V5H225ZM221 29H191V31H221V29ZM187 25V5H185V25H187ZM191 29C188.791 29 187 27.2091 187 25H185C185 28.3137 187.686 31 191 31V29ZM225 25C225 27.2091 223.209 29 221 29V31C224.314 31 227 28.3137 227 25H225ZM221 1C223.209 1 225 2.79086 225 5H227C227 1.68629 224.314 -1 221 -1V1ZM191 -1C187.686 -1 185 1.68629 185 5H187C187 2.79086 188.791 1 191 1V-1Z" fill="#2F2F2F"/>
<path d="M207.038 13.692C208.274 13.812 209.216 14.196 209.864 14.844C210.512 15.48 210.836 16.296 210.836 17.292C210.836 18.012 210.656 18.666 210.296 19.254C209.936 19.83 209.396 20.292 208.676 20.64C207.968 20.976 207.098 21.144 206.066 21.144C205.166 21.144 204.302 21.012 203.474 20.748C202.646 20.472 201.968 20.094 201.44 19.614L202.268 18.192C202.7 18.6 203.252 18.93 203.924 19.182C204.596 19.422 205.31 19.542 206.066 19.542C207.002 19.542 207.728 19.344 208.244 18.948C208.772 18.552 209.036 18.006 209.036 17.31C209.036 16.614 208.778 16.074 208.262 15.69C207.746 15.306 206.966 15.114 205.922 15.114H204.914V13.854L208.082 9.966H202.016V8.4H210.332V9.624L207.038 13.692Z" fill="#2F2F2F"/>
<path d="M159.796 13.422C161.596 13.422 162.916 13.764 163.756 14.448C164.608 15.12 165.034 16.044 165.034 17.22C165.034 17.964 164.854 18.636 164.494 19.236C164.146 19.824 163.612 20.292 162.892 20.64C162.184 20.976 161.308 21.144 160.264 21.144C159.376 21.144 158.518 21.012 157.69 20.748C156.862 20.472 156.178 20.094 155.638 19.614L156.466 18.192C156.898 18.6 157.45 18.93 158.122 19.182C158.794 19.422 159.502 19.542 160.246 19.542C161.194 19.542 161.926 19.344 162.442 18.948C162.97 18.54 163.234 17.988 163.234 17.292C163.234 16.536 162.946 15.966 162.37 15.582C161.794 15.186 160.81 14.988 159.418 14.988H156.556L157.222 8.4H164.332V9.966H158.734L158.392 13.422H159.796Z" fill="#2F2F2F"/>
<path d="M252.038 13.692C253.274 13.812 254.216 14.196 254.864 14.844C255.512 15.48 255.836 16.296 255.836 17.292C255.836 18.012 255.656 18.666 255.296 19.254C254.936 19.83 254.396 20.292 253.676 20.64C252.968 20.976 252.098 21.144 251.066 21.144C250.166 21.144 249.302 21.012 248.474 20.748C247.646 20.472 246.968 20.094 246.44 19.614L247.268 18.192C247.7 18.6 248.252 18.93 248.924 19.182C249.596 19.422 250.31 19.542 251.066 19.542C252.002 19.542 252.728 19.344 253.244 18.948C253.772 18.552 254.036 18.006 254.036 17.31C254.036 16.614 253.778 16.074 253.262 15.69C252.746 15.306 251.966 15.114 250.922 15.114H249.914V13.854L253.082 9.966H247.016V8.4H255.332V9.624L252.038 13.692Z" fill="#2F2F2F"/>
<path d="M172.468 11.856H180.532V13.278H172.468V11.856ZM172.468 16.122H180.532V17.544H172.468V16.122Z" fill="#2F2F2F"/>
<path d="M234.081 15.312H238.923V16.806H234.081V15.312Z" fill="#2F2F2F"/>
<path d="M373 1H403V-1H373V1ZM407 5V25H409V5H407ZM403 29H373V31H403V29ZM369 25V5H367V25H369ZM373 29C370.791 29 369 27.2091 369 25H367C367 28.3137 369.686 31 373 31V29ZM407 25C407 27.2091 405.209 29 403 29V31C406.314 31 409 28.3137 409 25H407ZM403 1C405.209 1 407 2.79086 407 5H409C409 1.68629 406.314 -1 403 -1V1ZM373 -1C369.686 -1 367 1.68629 367 5H369C369 2.79086 370.791 1 373 1V-1Z" fill="#2F2F2F"/>
<path d="M384.771 8.4V21H382.989V9.966H380.145V8.4H384.771ZM396.383 19.434V21H387.329V19.776L392.459 14.826C393.083 14.226 393.503 13.71 393.719 13.278C393.935 12.834 394.043 12.39 394.043 11.946C394.043 11.286 393.809 10.776 393.341 10.416C392.885 10.044 392.225 9.858 391.361 9.858C389.969 9.858 388.895 10.314 388.139 11.226L386.915 10.164C387.407 9.564 388.049 9.096 388.841 8.76C389.645 8.424 390.539 8.256 391.523 8.256C392.843 8.256 393.893 8.574 394.673 9.21C395.453 9.834 395.843 10.686 395.843 11.766C395.843 12.438 395.699 13.074 395.411 13.674C395.123 14.274 394.577 14.958 393.773 15.726L389.921 19.434H396.383Z" fill="#2F2F2F"/>
</svg>
